<svg width="117" height="116" viewBox="0 0 117 116" fill="none" xmlns="http://www.w3.org/2000/svg">
<g clip-path="url(#clip0_1186_2237)">
<path d="M58.4531 115.496C90.3476 115.496 116.203 89.6405 116.203 57.7461C116.203 25.8517 90.3476 -0.00390625 58.4531 -0.00390625C26.5587 -0.00390625 0.703125 25.8517 0.703125 57.7461C0.703125 89.6405 26.5587 115.496 58.4531 115.496Z" fill="#FFE353"/>
<path d="M97.6562 63.8767C97.466 62.833 97.2027 61.8041 96.876 60.7946C96.876 60.7946 95.5885 54.3524 85.6449 46.1108C86.0155 44.916 86.2155 43.6529 86.2155 42.3411C86.2155 35.1431 80.2171 29.3057 72.8191 29.3057C66.4892 29.3057 61.1882 33.5777 59.7886 39.3175C59.5642 39.2737 58.4572 39.2834 58.0134 39.2883C57.5697 39.2834 56.4627 39.2737 56.2383 39.3175C54.8387 33.5777 49.5377 29.3057 43.2078 29.3057C35.8098 29.3057 29.8114 35.1431 29.8114 42.3411C29.8114 43.6529 30.0114 44.916 30.382 46.1108C20.4384 54.3524 19.1509 60.7946 19.1509 60.7946C18.8242 61.8041 18.5609 62.833 18.3707 63.8767C17.5611 68.3486 18.3463 72.9181 20.9748 76.7122C21.9892 78.1752 23.223 79.4821 24.5982 80.633C25.9101 81.7205 27.3341 82.6764 28.8361 83.5054C34.3907 86.5729 40.6816 87.5823 46.9482 88.2309C48.6404 88.4065 50.3375 88.5723 52.0346 88.7089C55.3508 88.982 58.6328 89.1234 61.9587 88.8747C62.7731 88.8162 63.5875 88.7235 64.3971 88.6699C65.2554 88.6113 66.1527 88.5674 67.0012 88.4358C67.6937 88.3724 68.3862 88.2943 69.0836 88.2309C75.355 87.5872 81.6411 86.5729 87.1957 83.5054C88.6928 82.6764 90.1217 81.7254 91.4335 80.633C92.8088 79.4821 94.0426 78.1752 95.0569 76.7122C97.6855 72.923 98.4706 68.3535 97.6611 63.8767H97.6562Z" fill="#D6AF43"/>
<path d="M58.3646 90.2985C56.4383 90.2985 54.3511 90.201 51.9274 90.001C50.3912 89.8743 48.7185 89.7133 46.8166 89.5183C40.5841 88.8745 34.0103 87.8407 28.2119 84.6416C26.5977 83.7491 25.1055 82.7396 23.7741 81.6326C22.2526 80.3598 20.9554 78.9553 19.9166 77.4533C17.2003 73.5324 16.2006 68.6313 17.1028 63.6522C17.293 62.6134 17.5612 61.5406 17.9074 60.4628C18.1025 59.6338 19.7947 53.4404 28.9191 45.662C28.6557 44.5794 28.524 43.4675 28.524 42.3507C28.524 34.4505 35.1174 28.0229 43.2176 28.0229C49.6841 28.0229 55.2923 32.0755 57.2186 38.0007C57.4429 38.0007 57.716 38.0007 58.0379 38.0007C58.35 38.0007 58.6085 38.0007 58.8279 38.0007C60.7493 32.0755 66.3624 28.0229 72.8289 28.0229C80.9292 28.0229 87.5225 34.4505 87.5225 42.3507C87.5225 43.4675 87.3908 44.5794 87.1275 45.662C96.2518 53.4404 97.9489 59.6338 98.1391 60.4628C98.4853 61.5406 98.7535 62.6134 98.9437 63.6522C99.8459 68.6313 98.8462 73.5324 96.1299 77.4533C95.0862 78.9553 93.789 80.3598 92.2724 81.6277C90.941 82.7348 89.4439 83.7491 87.8297 84.6416C82.0264 87.8407 75.4575 88.8794 69.2251 89.5183C68.8203 89.5524 68.435 89.5914 68.0546 89.6304C67.762 89.6597 67.4694 89.6889 67.1768 89.7182C66.3966 89.8401 65.6065 89.8889 64.8458 89.9376L64.4947 89.962C64.0655 89.9913 63.6315 90.0303 63.2023 90.0693C62.8268 90.1035 62.4464 90.1376 62.0709 90.1669C60.881 90.2546 59.6716 90.2985 58.3793 90.2985H58.3646ZM43.2078 30.6076C36.5365 30.6076 31.1038 35.8744 31.1038 42.3458C31.1038 43.4919 31.2745 44.633 31.6159 45.7303L31.8743 46.5593L31.2062 47.1104C21.8234 54.8887 20.4287 60.9993 20.4189 61.0578L20.3848 61.1943C20.0678 62.1843 19.8191 63.1645 19.6484 64.1057C18.8682 68.407 19.7216 72.6205 22.0429 75.9708C22.95 77.2826 24.0911 78.5164 25.4322 79.6332C26.6319 80.6329 27.9925 81.5497 29.4652 82.3641C34.8589 85.3438 41.1206 86.3191 47.0848 86.9336C48.9721 87.1287 50.6253 87.2847 52.1468 87.4115C56.0482 87.7334 59.0474 87.787 61.8661 87.5773C62.227 87.5529 62.5927 87.5188 62.9536 87.4847C63.4071 87.4408 63.8607 87.4018 64.3142 87.3725L64.6702 87.3481C65.3871 87.3042 66.1235 87.2555 66.7965 87.1482L66.8794 87.1384C67.1817 87.1092 67.4792 87.0799 67.7816 87.0506C68.1766 87.0116 68.5716 86.9677 68.9715 86.9336C74.9162 86.324 81.1779 85.3438 86.5715 82.3641C88.0443 81.5497 89.4 80.6329 90.6046 79.6283C91.9408 78.5115 93.0819 77.2777 93.989 75.9659C96.3103 72.6156 97.1637 68.4021 96.3835 64.1008C96.2128 63.1548 95.9641 62.1745 95.6471 61.1895L95.6081 61.048C95.5983 60.9944 94.2036 54.8839 84.8208 47.1055L84.1527 46.5544L84.4111 45.7254C84.7525 44.6281 84.9232 43.487 84.9232 42.341C84.9232 35.8696 79.4954 30.6027 72.8192 30.6027C67.1817 30.6027 62.344 34.3139 61.0468 39.6295L60.7542 40.8341L59.5741 40.6C59.4473 40.5902 59.0035 40.5756 58.033 40.5854C57.0333 40.5756 56.5895 40.5854 56.4627 40.6L55.2825 40.8341L54.9899 39.6295C53.6927 34.3139 48.8502 30.6027 43.2176 30.6027L43.2078 30.6076Z" fill="black"/>
<path d="M75.2289 43.8332C75.2289 43.8332 73.9659 39.8489 75.1411 35.8354C75.1607 35.7671 75.2484 35.7476 75.2972 35.8013L75.8678 36.4645C75.8678 36.4645 77.0041 25.487 87.3037 19.4058C87.3037 19.4058 90.8539 20.8883 90.2297 24.4775C89.6055 28.0668 81.4809 38.4249 78.984 40.5707C78.984 40.5707 79.34 40.6146 80.2032 40.439C80.2812 40.4244 80.3397 40.5122 80.291 40.5756C79.8618 41.1461 78.3354 42.9018 75.2289 43.8332Z" fill="#EF6600"/>
<path d="M74.4966 45.2137L74.165 44.175C74.1114 43.9994 72.8142 39.8201 74.0675 35.5286C74.1894 35.1043 74.5356 34.7873 74.9648 34.6947C74.9892 34.6898 75.0184 34.6849 75.0428 34.68C75.8036 31.2468 78.398 23.3709 86.7274 18.4552L87.2053 18.1724L87.7174 18.3869C89.2292 19.016 91.926 21.1423 91.3115 24.673C90.7361 27.9892 84.6499 36.1284 81.2216 39.8884C81.2216 39.8884 81.2216 39.8932 81.2265 39.8981C81.4898 40.3224 81.4703 40.8539 81.168 41.2538C80.5925 42.0195 78.8954 43.9019 75.5354 44.9065L74.4917 45.2186L74.4966 45.2137ZM75.8182 38.1279C75.6378 39.8298 75.828 41.3855 76.0182 42.3755C76.6424 42.1121 77.1739 41.8195 77.6177 41.5269L76.3449 41.3757L78.2566 39.7323C80.8363 37.5134 88.5952 27.3893 89.1316 24.2926C89.4779 22.3078 88.0978 21.1618 87.337 20.6887C78.1493 26.4579 76.974 36.4844 76.9642 36.5868L76.6911 39.1471L75.8182 38.1279Z" fill="#0F0F0F"/>
<path d="M90.2147 22.8048C89.727 20.4201 87.2984 19.4058 87.2984 19.4058C86.5815 19.83 85.9085 20.2787 85.2795 20.742C85.2648 20.7907 83.6067 26.1941 90.2147 22.8048Z" fill="#3FC9B1"/>
<path d="M86.7415 25.0285C86.0051 25.0285 85.4004 24.8286 84.9225 24.4238C83.4205 23.1656 84.1325 20.6931 84.2154 20.4151L84.3227 20.064L84.6153 19.8446C85.298 19.3423 86.01 18.8692 86.7318 18.445L87.2097 18.1621L87.7218 18.3767C87.8437 18.4255 90.7014 19.6495 91.2964 22.5755L91.4671 23.3997L90.7161 23.785C89.1067 24.6091 87.79 25.0236 86.7415 25.0236V25.0285ZM86.2539 21.4051C86.1514 21.9513 86.1612 22.5707 86.3465 22.7218C86.3514 22.7218 86.8439 23.1022 88.8336 22.2293C88.4338 21.4734 87.7754 20.9613 87.3267 20.6834C86.9659 20.9126 86.605 21.1515 86.2539 21.4002V21.4051Z" fill="#0F0F0F"/>
<path d="M84.3829 25.7358L79.8865 26.3406C79.5744 26.7941 79.2818 27.2671 79.0039 27.7402C78.8576 27.9889 78.721 28.2376 78.5845 28.4863C78.4479 28.735 78.2821 28.974 78.1895 29.2324C78.2821 29.2617 78.4187 29.2324 78.5211 29.2227L79.1112 29.1788C79.6281 29.1398 80.145 29.1008 80.6668 29.0618C81.1886 29.0227 81.7397 28.9789 82.2761 28.9398L84.4219 34.2555C85.0412 33.441 85.6557 32.6022 86.2409 31.7635L84.3878 25.7358H84.3829Z" fill="#FFB727"/>
<path d="M84.1187 36.484L81.5438 30.1053L78.5983 30.3248C78.4227 30.3491 78.1496 30.3833 77.8424 30.2857L76.7598 29.9346L77.1401 28.8617C77.2426 28.5789 77.3889 28.3302 77.5059 28.1351C77.54 28.0766 77.579 28.0132 77.6083 27.9547C77.7497 27.6962 77.896 27.4377 78.0423 27.1842C78.3544 26.6477 78.6568 26.1698 78.9689 25.7163L79.2469 25.3066L85.1672 24.5117L87.4593 31.9585L87.1472 32.4022C86.5717 33.2264 85.9475 34.0749 85.3038 34.9284L84.1236 36.4889L84.1187 36.484ZM82.9971 27.7694L84.7039 32.0023C84.8112 31.856 84.9136 31.7146 85.016 31.5683L83.5969 26.9598L80.5295 27.3743C80.4027 27.5694 80.2759 27.7742 80.1491 27.9839L82.9971 27.7694Z" fill="#0F0F0F"/>
<path d="M74.3105 46.842C74.3105 46.842 74.3349 46.7299 74.3837 46.5153C74.4325 46.3007 74.5056 45.9886 74.608 45.5936C74.7153 45.1986 74.847 44.7206 75.0079 44.1696C75.0908 43.8965 75.1786 43.6039 75.2713 43.2966C75.3639 42.9894 75.481 42.6724 75.5882 42.3408C75.8028 41.6727 76.0759 40.9607 76.3539 40.1999C76.4953 39.8196 76.6562 39.4392 76.8123 39.0442C76.9732 38.6491 77.1293 38.2493 77.3097 37.8445C77.6706 37.0398 78.0168 36.1962 78.4362 35.3671C78.6411 34.9526 78.8459 34.5283 79.0507 34.1089C79.2702 33.6944 79.4896 33.275 79.7091 32.8556C80.1431 32.0168 80.6259 31.2024 81.0941 30.3978C81.2111 30.1978 81.3281 29.9979 81.4452 29.7979C81.5622 29.598 81.6939 29.4078 81.8109 29.2127C82.0596 28.8275 82.3035 28.4471 82.5424 28.0716C83.0057 27.3157 83.5275 26.6232 83.9957 25.9551C84.2347 25.6235 84.459 25.2967 84.6882 24.9895C84.9271 24.6871 85.1563 24.3945 85.3807 24.1117C85.8245 23.5509 86.2243 23.0339 86.6047 22.5901C86.99 22.1512 87.3265 21.7708 87.6045 21.4587C87.8776 21.1418 88.1019 20.9028 88.2531 20.737C88.4042 20.5712 88.4823 20.4834 88.4823 20.4834C88.4823 20.4834 88.4091 20.5761 88.2774 20.7565C88.1409 20.9321 87.9458 21.1954 87.6922 21.5221C87.4387 21.8489 87.1265 22.2488 86.7754 22.7072C86.595 22.9315 86.4292 23.19 86.239 23.4533C86.0488 23.7167 85.8537 23.9946 85.6489 24.2824C85.4441 24.5701 85.2295 24.8724 85.0052 25.1797C84.7955 25.4967 84.576 25.8283 84.3517 26.1648C83.9079 26.8426 83.4202 27.5449 82.9716 28.3056C82.5132 29.0615 82.0206 29.8272 81.572 30.6367C81.3428 31.0366 81.1136 31.4414 80.8795 31.8461C80.5918 32.3338 80.3528 32.8507 80.0699 33.3433C79.8797 33.7042 79.6896 34.065 79.4994 34.4259C79.3092 34.8112 79.119 35.1916 78.9337 35.5719C78.5143 36.3961 78.1388 37.2203 77.7681 38.0152C77.5779 38.4102 77.417 38.8101 77.2414 39.1953C77.0708 39.5806 76.9001 39.9561 76.7489 40.3267C76.4465 41.0729 76.1442 41.7702 75.8955 42.4237C75.637 43.0772 75.4127 43.677 75.2127 44.2135C75.0128 44.7499 74.8519 45.2181 74.7202 45.6033C74.5934 45.9935 74.491 46.2958 74.4227 46.5055C74.3593 46.7152 74.3203 46.8274 74.3203 46.8274L74.3105 46.842Z" fill="#603913"/>
<path d="M75.3694 47.1737L73.2285 46.5982L73.3017 46.2715C73.3504 46.0472 73.4285 45.7156 73.5358 45.301C73.6528 44.8719 73.7796 44.394 73.9454 43.8478L74.2087 42.9748C74.2721 42.7652 74.3453 42.5506 74.4184 42.336L74.5355 41.9946C74.7257 41.4094 74.95 40.7998 75.189 40.1561L75.3157 39.8196C75.4084 39.566 75.5108 39.3124 75.6181 39.054L75.8863 38.3907C76.018 38.0591 76.1545 37.7275 76.3057 37.391C76.3984 37.1813 76.4959 36.9667 76.5886 36.7473C76.8568 36.1377 77.1299 35.5086 77.4517 34.8746L78.0565 33.6311L78.7294 32.3485C79.1001 31.6316 79.5097 30.9294 79.9047 30.2466L80.4851 29.2518C80.568 29.1104 80.6557 28.9689 80.7484 28.8275C80.7874 28.7641 80.8313 28.7007 80.8703 28.6373L81.6067 27.4864C81.9578 26.9158 82.3431 26.3794 82.7137 25.8576C82.8405 25.682 82.9624 25.5065 83.0843 25.3358L83.3428 24.97C83.494 24.7555 83.6452 24.5458 83.7915 24.3409L84.8058 23.0535C85.1374 22.6341 85.4495 22.2391 85.7519 21.8831L86.7614 20.7419C86.9516 20.5225 87.1223 20.3372 87.2588 20.186L87.6489 19.752L89.3607 21.1662L88.9949 21.649C88.8779 21.805 88.7316 22.0001 88.556 22.2244L87.6392 23.4046C87.527 23.546 87.4344 23.6826 87.3368 23.824C87.2686 23.9215 87.2003 24.024 87.1271 24.1215L85.9031 25.8283L85.2594 26.7988C85.1326 26.989 85.0009 27.1938 84.8643 27.3986C84.5425 27.8814 84.2109 28.3789 83.9085 28.8909C83.772 29.1152 83.6403 29.3298 83.5086 29.5444C83.177 30.0808 82.8356 30.6319 82.5284 31.1927L81.8262 32.4168C81.6799 32.6655 81.5531 32.9093 81.4165 33.1678C81.2897 33.4116 81.1629 33.6555 81.0264 33.8944L80.2851 35.3282L79.9145 36.0792C79.5829 36.7375 79.2756 37.3959 78.9782 38.0347L78.7636 38.498C78.6465 38.7419 78.549 38.9711 78.4515 39.1954C78.3832 39.3515 78.3149 39.5075 78.2466 39.6636L78.0711 40.0586C77.9638 40.2975 77.8614 40.5316 77.7639 40.7657C77.6566 41.0339 77.5395 41.307 77.4322 41.5752C77.2518 42.0093 77.0762 42.4287 76.9251 42.8334C76.6666 43.4967 76.4423 44.0867 76.2423 44.6183C76.0473 45.1401 75.8912 45.6034 75.7595 45.9838L75.3694 47.1835V47.1737Z" fill="#0F0F0F"/>
<path d="M75.3845 43.6677C75.2918 43.3702 74.1897 39.5956 75.3357 35.821C75.3406 35.8015 75.365 35.7966 75.3796 35.8113L75.9697 36.4989C75.9697 36.4989 76.0087 36.5086 76.0136 36.4891C76.116 35.6699 77.5205 25.658 87.0886 20.0059C87.0935 20.0059 87.1032 20.0059 87.1081 20.0059C87.3178 20.0985 90.5218 21.5518 89.9366 24.9167C89.3367 28.3792 81.5389 38.3277 79.0761 40.4832C79.0615 40.4978 79.0664 40.5222 79.0908 40.5222C79.2225 40.5222 79.6077 40.5222 80.3197 40.371C80.3587 40.3612 80.3929 40.4051 80.3685 40.4393C80.0612 40.8684 78.5982 42.7216 75.4186 43.6774C75.4089 43.6774 75.3942 43.6774 75.3894 43.6628L75.3845 43.6677Z" fill="#EF6600"/>
<path d="M76.3448 41.0244C75.5255 38.9469 75.3792 36.5573 75.35 35.9331C75.35 35.9038 75.3061 35.9038 75.3012 35.9331C74.2088 39.6686 75.2915 43.3749 75.3792 43.6724C75.3792 43.6822 75.3939 43.687 75.4085 43.687C78.6027 42.7263 80.0706 40.8586 80.3632 40.4392C80.3779 40.4197 80.3535 40.3953 80.3291 40.4099C78.4662 41.4974 76.5253 41.0829 76.3595 41.0439C76.3497 41.0439 76.3448 41.039 76.3448 41.0292V41.0244Z" fill="#FFB300"/>
<path d="M89.918 23.2781C89.4547 21.0739 87.2748 20.0839 87.1041 20.0059C87.0992 20.0059 87.0895 20.0059 87.0846 20.0059C86.3921 20.4155 85.7484 20.8447 85.1388 21.2933C85.1388 21.2933 85.1388 21.2933 85.1339 21.2982C85.09 21.4347 83.5783 26.5407 89.9034 23.3025C89.9131 23.2976 89.918 23.283 89.918 23.2733V23.2781Z" fill="#3FC9B1"/>
<path d="M80.057 30.2082L82.9196 36.1139C82.9196 36.1139 82.9489 36.1334 82.9586 36.1187C83.539 35.3921 84.1388 34.6167 84.7289 33.8267C84.7289 33.8218 84.7337 33.8121 84.7289 33.8023L82.9489 28.0136C82.9489 28.0136 82.9342 27.9941 82.9245 27.9941L78.7695 28.5501" fill="#3FC9B1"/>
<path d="M84.2454 26.1406L79.9149 26.721C79.9149 26.721 79.9003 26.7258 79.8954 26.7307C79.2468 27.6817 78.6908 28.6326 78.2324 29.5446L82.1972 29.2422C82.1972 29.2422 82.2167 29.2471 82.2216 29.2568L84.2795 34.3579C84.2795 34.3579 84.3088 34.3774 84.3234 34.3628C84.9135 33.5874 85.4987 32.7876 86.0547 31.9927C86.0547 31.9878 86.0595 31.978 86.0547 31.9732L84.2649 26.1601C84.2649 26.1601 84.2503 26.1406 84.2405 26.1406H84.2454Z" fill="#FFB727"/>
<path d="M74.5068 46.6033C74.5068 46.6033 74.5312 46.4911 74.5751 46.2863C74.619 46.0766 74.6921 45.7742 74.7946 45.389C74.897 45.0037 75.0238 44.5404 75.1798 44.0089C75.2578 43.7455 75.3456 43.4627 75.4334 43.1652C75.5261 42.8677 75.6333 42.5605 75.7406 42.2386C75.9503 41.59 76.2137 40.8975 76.4819 40.166C76.6184 39.8003 76.7745 39.4296 76.9257 39.0444C77.0817 38.664 77.2329 38.2739 77.4085 37.8837C77.7596 37.1035 78.0961 36.289 78.5009 35.4844C78.6959 35.0796 78.8959 34.6748 79.0958 34.2652C79.3055 33.8604 79.5201 33.4557 79.7347 33.0509C80.1541 32.2365 80.6222 31.4513 81.0758 30.6662C81.1879 30.4711 81.3001 30.2761 81.4123 30.0859C81.5244 29.8908 81.6512 29.7055 81.7682 29.5202C82.0072 29.1447 82.2462 28.7789 82.4754 28.4132C82.924 27.6816 83.4312 27.0087 83.8847 26.3601C84.114 26.0382 84.3334 25.7212 84.5577 25.4237C84.7918 25.1311 85.0113 24.8483 85.2258 24.5752C85.655 24.0339 86.0451 23.5267 86.4109 23.1024C86.7864 22.6781 87.1131 22.3075 87.3813 22.0052C87.6496 21.6979 87.8641 21.4638 88.0104 21.3029C88.1567 21.142 88.2348 21.0542 88.2348 21.0542C88.2348 21.0542 88.1665 21.1469 88.0348 21.3175C87.9032 21.4882 87.713 21.7418 87.4642 22.0637C87.2155 22.3807 86.9181 22.7708 86.5718 23.2097C86.3962 23.4292 86.2353 23.6779 86.05 23.9363C85.8696 24.1899 85.6745 24.4581 85.4746 24.741C85.2746 25.019 85.0649 25.3116 84.8503 25.6139C84.6455 25.9212 84.4358 26.243 84.2164 26.5698C83.7872 27.2281 83.3142 27.9109 82.8753 28.6472C82.4315 29.3787 81.9536 30.1249 81.5195 30.91C81.2952 31.3002 81.0709 31.6903 80.8466 32.0853C80.5783 32.5389 80.354 33.0168 80.0955 33.4752L79.7152 34.1726C79.4616 34.6846 79.2129 35.1918 78.9641 35.6941C78.5594 36.4939 78.1936 37.2936 77.8376 38.0642C77.6523 38.4494 77.4963 38.8347 77.3304 39.2102C77.1695 39.5857 76.9988 39.9515 76.8525 40.3075C76.5599 41.0292 76.2673 41.7071 76.0284 42.341C75.7797 42.975 75.5602 43.5553 75.3651 44.0771C75.1749 44.5941 75.0189 45.0525 74.8872 45.428C74.7604 45.8035 74.6629 46.101 74.5995 46.3009C74.5361 46.5057 74.502 46.613 74.502 46.613L74.5068 46.6033Z" fill="#603913"/>
<path d="M79.4758 29.4565L78.2371 29.5492C77.9055 30.2271 77.6032 30.9147 77.3301 31.6072L80.6316 31.4219L80.6755 30.6513" fill="#3FC9B1"/>
<path d="M30.4948 48.7831C29.6901 48.7831 28.9147 48.5247 28.2807 48.037C27.5151 47.4518 27.0323 46.5788 26.9494 45.6376C26.8129 44.0625 26.769 41.5802 27.32 38.703C27.6078 37.2009 28.8659 36.0842 30.446 35.9184C35.3715 35.4063 61.2278 32.9875 86.5721 35.8989C88.2594 36.0939 89.5761 37.4204 89.7078 39.0492C89.937 41.9606 89.7761 44.1259 89.2347 45.4962C88.7178 46.7983 87.4255 47.6517 85.9527 47.6615C81.1882 47.7005 39.1704 48.0419 30.8313 48.7734C30.724 48.7831 30.6118 48.788 30.5045 48.788L30.4948 48.7831ZM31.2312 39.927C30.9142 41.8094 30.8947 43.4626 30.9581 44.6721C40.0873 43.9844 77.16 43.6577 85.5577 43.5894C85.704 42.9067 85.7869 41.6875 85.6796 39.8929C61.4668 37.1717 36.854 39.3564 31.2312 39.927Z" fill="black"/>
<mask id="mask0_1186_2237" style="mask-type:luminance" maskUnits="userSpaceOnUse" x="28" y="36" width="60" height="11">
<path d="M30.598 37.8303C36.0209 37.2646 61.3408 34.9238 86.3924 37.8108C87.0849 37.8888 87.6165 38.4107 87.6652 39.0446C87.7872 40.5613 87.8993 43.2679 87.319 44.6724C87.1093 45.1795 86.568 45.5063 85.973 45.5111C80.3112 45.555 38.7909 45.9013 30.5736 46.6328C29.7592 46.7059 29.0472 46.1549 28.9789 45.4136C28.8521 43.9945 28.7936 41.6488 29.3252 38.9227C29.4373 38.3424 29.9591 37.8986 30.598 37.8352V37.8303Z" fill="white"/>
</mask>
<g mask="url(#mask0_1186_2237)">
<path d="M67.2753 33.6802H50.8457L54.9519 40.1613L59.063 46.6474L63.1691 40.1613L67.2753 33.6802Z" fill="#63D3B3"/>
<path d="M83.7002 33.6802H67.2754L71.3816 40.1613L75.4878 46.6474L79.594 40.1613L83.7002 33.6802Z" fill="#63D3B3"/>
<path d="M50.8466 33.6802H34.4219L38.5281 40.1613L42.6343 46.6474L46.7404 40.1613L50.8466 33.6802Z" fill="#63D3B3"/>
<path d="M34.4214 33.6802L30.3152 40.1613L26.209 46.6474H34.4214H42.6337L38.5276 40.1613L34.4214 33.6802Z" fill="#EF6600"/>
<path d="M50.8452 33.6802L46.739 40.1613L42.6328 46.6474H50.8452H59.0624L54.9514 40.1613L50.8452 33.6802Z" fill="#EF6600"/>
<path d="M67.2749 33.6802L63.1687 40.1613L59.0625 46.6474H67.2749H75.4873L71.3811 40.1613L67.2749 33.6802Z" fill="#EF6600"/>
<path d="M87.8068 40.1613L83.7007 33.6802L79.5945 40.1613L75.4883 46.6474H83.7007H91.8887V46.6083L87.8068 40.1613Z" fill="#EF6600"/>
<path d="M35.9276 42.1119C35.9276 42.9263 35.201 43.5847 34.3085 43.5847C33.4161 43.5847 32.6895 42.9263 32.6895 42.1119C32.6895 41.2975 33.4161 40.6392 34.3085 40.6392C35.201 40.6392 35.9276 41.3024 35.9276 42.1119Z" fill="#F8C054"/>
<path d="M52.4647 42.1119C52.4647 42.9263 51.7381 43.5847 50.8456 43.5847C49.9532 43.5847 49.2266 42.9263 49.2266 42.1119C49.2266 41.2975 49.9532 40.6392 50.8456 40.6392C51.7381 40.6392 52.4647 41.3024 52.4647 42.1119Z" fill="#F8C054"/>
<path d="M69.0018 42.1119C69.0018 42.9263 68.2752 43.5847 67.3827 43.5847C66.4903 43.5847 65.7637 42.9263 65.7637 42.1119C65.7637 41.2975 66.4903 40.6392 67.3827 40.6392C68.2752 40.6392 69.0018 41.3024 69.0018 42.1119Z" fill="#F8C054"/>
<path d="M85.5448 42.1119C85.5448 42.9263 84.8181 43.5847 83.9257 43.5847C83.0333 43.5847 82.3066 42.9263 82.3066 42.1119C82.3066 41.2975 83.0333 40.6392 83.9257 40.6392C84.8181 40.6392 85.5448 41.3024 85.5448 42.1119Z" fill="#F8C054"/>
<path d="M46.1017 36.3086H39.1719L40.9031 39.0444L42.6343 41.7851L44.3704 39.0444L46.1017 36.3086Z" fill="#EF6600"/>
<path d="M62.5255 36.3086H55.5957L57.3269 39.0444L59.0582 41.7851L60.7943 39.0444L62.5255 36.3086Z" fill="#EF6600"/>
<path d="M78.9513 36.3086H72.0215L73.7527 39.0444L75.4839 41.7851L77.2201 39.0444L78.9513 36.3086Z" fill="#EF6600"/>
<path d="M88.4462 36.3087H91.8892V33.6802H83.7012L87.8074 40.1613L91.8892 46.6083V41.7414L90.1774 39.0446L88.4462 36.3087Z" fill="#63D3B3"/>
<path d="M26.209 33.6802V36.3087H29.6763L27.9451 39.0446L26.209 41.7853V46.6474L30.3152 40.1613L34.4214 33.6802H26.209Z" fill="#63D3B3"/>
<path d="M29.6763 36.3086H26.209V41.7851L27.9451 39.0444L29.6763 36.3086Z" fill="#F96C41"/>
</g>
<path d="M44.3635 55.3322C46.9969 55.0493 49.6108 54.6104 52.1906 54.0106C52.849 53.8546 53.3025 53.0645 53.0928 52.4159C52.8685 51.7283 52.2053 51.3479 51.4981 51.5137C49.5572 51.9673 47.5968 52.3281 45.6217 52.5964L45.9679 52.5525C45.4315 52.6256 44.8951 52.689 44.3586 52.7475C44.0075 52.7865 43.7051 52.8646 43.4418 53.1279C43.2175 53.3522 43.0468 53.7229 43.0614 54.0447C43.0907 54.6836 43.6369 55.42 44.3586 55.3419L44.3635 55.3322Z" fill="black"/>
<path d="M71.6634 52.7429C71.1269 52.6844 70.5905 52.621 70.0541 52.5479L70.4003 52.5918C68.4252 52.3235 66.4648 51.9627 64.5239 51.5091C63.8655 51.3531 63.0901 51.7139 62.9292 52.4113C62.778 53.0746 63.1291 53.8402 63.8314 54.006C66.4112 54.6107 69.0251 55.0447 71.6585 55.3276C71.9657 55.3617 72.3656 55.1569 72.5753 54.9472C72.7997 54.7229 72.9703 54.3522 72.9557 54.0304C72.9411 53.7085 72.8289 53.3476 72.5753 53.1136C72.3071 52.8697 72.0194 52.7722 71.6585 52.7332L71.6634 52.7429Z" fill="black"/>
<path d="M49.5584 61.7209C49.5828 62.3987 49.9973 63.0181 50.5532 63.4082C51.1092 63.7983 51.7773 63.9885 52.4356 64.1495C56.5126 65.1443 60.8236 65.1736 64.9054 64.1934C66.0124 63.9251 67.1584 63.5545 67.9387 62.7206C68.719 61.8867 68.9726 60.4675 68.2069 59.619C67.7241 59.0826 66.9487 58.8924 66.227 58.9363C65.5052 58.9801 64.8176 59.2289 64.1251 59.4434C60.5554 60.5651 56.6247 60.8772 53.0891 59.6531C53.0891 59.6531 49.4657 58.8924 49.5584 61.7257V61.7209Z" fill="white"/>
<path d="M48.6317 61.7208C48.6853 62.7498 49.2315 63.5935 50.0557 64.1836C50.7969 64.7151 51.7381 64.9395 52.6111 65.1394C54.4788 65.5637 56.4003 65.7978 58.3168 65.8319C60.2334 65.866 62.2133 65.6856 64.125 65.3052C65.8172 64.9687 67.7191 64.5152 68.831 63.0766C69.9234 61.6623 69.8893 59.3703 68.1873 58.4339C66.4853 57.4976 64.481 58.4291 62.7107 58.8826C62.2621 58.9996 61.8085 59.102 61.355 59.1849C61.1502 59.224 60.9405 59.263 60.7308 59.2922C60.6186 59.3117 60.5065 59.3264 60.3992 59.341C60.3748 59.341 60.1992 59.3703 60.3114 59.3508C60.4236 59.3312 60.1797 59.3654 60.1846 59.3654C59.297 59.4727 58.3997 59.5166 57.5073 59.4922C57.0489 59.4775 56.5905 59.4483 56.1321 59.3946C56.0735 59.3898 55.8297 59.3556 56.0053 59.38C55.8931 59.3654 55.7858 59.3459 55.6736 59.3312C55.4396 59.2922 55.2104 59.2483 54.9763 59.1996C54.5276 59.102 54.0838 58.9899 53.6449 58.8485C53.5181 58.8094 53.3913 58.7558 53.2597 58.7314C51.5431 58.3852 49.2559 58.7558 48.7341 60.7162C48.6463 61.0381 48.617 61.3795 48.6268 61.7111C48.6365 62.1939 49.0413 62.6572 49.5534 62.6377C50.0654 62.6181 50.4897 62.2329 50.4799 61.7111C50.4799 61.5843 50.4799 61.4624 50.4897 61.3356C50.4994 61.1941 50.4458 61.5697 50.4897 61.3405C50.4994 61.2819 50.5141 61.2234 50.5336 61.1649C50.5482 61.1161 50.5677 61.0722 50.5824 61.0235C50.6116 60.9211 50.4848 61.2234 50.5385 61.1308C50.5482 61.1112 50.5531 61.0917 50.5628 61.0771C50.5872 61.0283 50.6116 60.9845 50.6409 60.9406C50.6506 60.9259 50.6604 60.9064 50.675 60.8918C50.753 60.765 50.636 60.9503 50.6116 60.9698C50.675 60.9162 50.7287 60.843 50.7921 60.7796C50.9335 60.6382 50.6555 60.8674 50.7482 60.8089C50.7872 60.7845 50.8262 60.7552 50.8701 60.726C50.9432 60.6821 51.0213 60.648 51.0944 60.6089C51.1968 60.5553 50.8506 60.6967 51.0408 60.6333C51.0847 60.6187 51.1334 60.5992 51.1773 60.5846C51.2602 60.5602 51.3431 60.5407 51.426 60.5212C51.4748 60.5114 51.5236 60.5017 51.5675 60.4919C51.587 60.4919 51.6016 60.487 51.6211 60.4821C51.7723 60.4529 51.5187 60.4968 51.4992 60.4968C51.6747 60.487 51.8454 60.4675 52.0161 60.4626C52.1673 60.4626 52.3233 60.4626 52.4745 60.4773C52.533 60.4773 52.5964 60.487 52.655 60.4919C52.6842 60.4919 52.7184 60.4968 52.7476 60.5017C52.9037 60.5163 52.4891 60.4626 52.6013 60.4821C52.8744 60.526 53.1231 60.6187 53.3865 60.7016C54.2399 60.9552 55.1128 61.1161 55.9955 61.2234C57.717 61.4331 59.458 61.3405 61.1697 61.0722C61.989 60.9406 62.7985 60.765 63.5934 60.5407C64.3883 60.3163 65.2222 59.9945 66.0708 59.8482C66.2171 59.8238 65.9342 59.8482 66.0805 59.8482C66.1244 59.8482 66.1683 59.8384 66.2122 59.8384C66.3049 59.8335 66.3975 59.8287 66.4951 59.8335C66.578 59.8335 66.6609 59.8433 66.7438 59.8482C66.8559 59.8531 66.6706 59.8482 66.6706 59.8384C66.6706 59.8384 66.8267 59.8677 66.8413 59.8726C66.9193 59.8921 67.0022 59.9116 67.0754 59.9408C67.1095 59.9506 67.1729 59.9652 67.2071 59.9896C67.1827 59.975 67.0266 59.8969 67.1778 59.9798C67.2461 60.0189 67.3144 60.0676 67.3875 60.1018C67.485 60.1554 67.329 60.0628 67.3387 60.0579C67.3582 60.0579 67.4509 60.1554 67.4655 60.1749C67.4997 60.2091 67.524 60.2432 67.5582 60.2725C67.6313 60.3407 67.5143 60.2188 67.5143 60.2091C67.5143 60.2481 67.6216 60.3846 67.646 60.4236C67.724 60.5651 67.5874 60.2432 67.6606 60.4626C67.685 60.5407 67.6996 60.6236 67.724 60.7016C67.7581 60.8235 67.7094 60.5163 67.7191 60.6431C67.7191 60.6723 67.724 60.7065 67.7289 60.7357C67.7337 60.8186 67.7337 60.9064 67.7289 60.9893C67.7289 61.0235 67.724 61.0527 67.724 61.0869C67.724 61.2137 67.7581 60.9064 67.7337 61.0332C67.7142 61.1161 67.6996 61.2039 67.6801 61.2868C67.6606 61.36 67.6362 61.4331 67.6118 61.5063C67.5582 61.6672 67.6265 61.4868 67.6313 61.4672C67.6265 61.5014 67.5874 61.5599 67.5777 61.5843C67.5484 61.6428 67.5192 61.7013 67.485 61.7598C67.4606 61.7989 67.4411 61.833 67.4168 61.872C67.4021 61.8964 67.2997 62.0573 67.3777 61.9403C67.446 61.8379 67.3143 62.0086 67.2851 62.0476C67.2266 62.111 67.1632 62.1695 67.0998 62.228C67.0364 62.2865 66.973 62.3402 66.9047 62.3938C67.0705 62.2573 66.8072 62.4572 66.7633 62.4816C66.617 62.5743 66.4658 62.6572 66.3146 62.7352C66.2366 62.7742 66.1586 62.8083 66.0805 62.8474C66.2756 62.7547 65.9684 62.8912 65.9196 62.9059C65.5685 63.0375 65.2076 63.14 64.8419 63.2326C64.0031 63.4423 63.1545 63.6081 62.3011 63.73C62.2572 63.7349 62.2133 63.7398 62.1694 63.7495C62.3352 63.7252 62.1889 63.7495 62.1548 63.7495C62.0524 63.7642 61.9548 63.7739 61.8524 63.7886C61.6232 63.8178 61.3891 63.8373 61.1551 63.8617C60.721 63.9007 60.2821 63.93 59.8481 63.9446C58.9898 63.9788 58.1266 63.9739 57.2683 63.9251C56.8343 63.9007 56.3954 63.8666 55.9614 63.8178C55.7419 63.7934 55.5273 63.7691 55.3079 63.7398C55.2006 63.7252 55.3225 63.7398 55.3371 63.7398C55.2786 63.73 55.2201 63.7252 55.1665 63.7154C55.0494 63.7008 54.9373 63.6813 54.8202 63.6618C53.9717 63.5252 53.128 63.3594 52.299 63.1351C52.1088 63.0814 51.9235 63.0278 51.7381 62.9595C51.6796 62.94 51.465 62.8474 51.6308 62.9254C51.5382 62.8815 51.4407 62.8376 51.3529 62.7888C51.2651 62.7401 51.1724 62.6864 51.0847 62.6279C51.0554 62.6084 51.0213 62.584 50.992 62.5645C50.8847 62.4962 51.1042 62.6718 51.0115 62.5791C50.953 62.5206 50.8896 62.4718 50.8311 62.4085C50.7969 62.3743 50.7677 62.3402 50.7384 62.306C50.6409 62.1988 50.7287 62.3255 50.753 62.3255C50.7189 62.3255 50.6214 62.1207 50.6019 62.0915C50.5824 62.0622 50.5726 62.0281 50.5531 61.9988C50.4848 61.8866 50.6019 62.15 50.5628 62.0281C50.5433 61.95 50.519 61.872 50.4946 61.794C50.4799 61.7501 50.4214 61.6282 50.4946 61.833C50.4799 61.794 50.4848 61.7306 50.4848 61.6916C50.4604 61.2088 50.0801 60.7455 49.5582 60.765C49.0803 60.7845 48.6073 61.1746 48.6317 61.6916V61.7208Z" fill="black"/>
<path d="M53.8236 60.6528C53.8139 61.1551 53.7797 61.6574 53.7114 62.1548L53.7456 61.9109C53.7017 62.2231 53.648 62.5303 53.5846 62.8375C53.531 63.0814 53.5505 63.3301 53.6773 63.5495C53.7895 63.7397 54.0089 63.925 54.2284 63.9738C54.4673 64.0274 54.7307 64.0177 54.9404 63.8811C55.1354 63.7543 55.3159 63.5641 55.3646 63.3301C55.55 62.4523 55.6572 61.5549 55.6719 60.6528C55.6816 60.17 55.2427 59.7067 54.7453 59.7262C54.2479 59.7457 53.8285 60.1309 53.8187 60.6528H53.8236Z" fill="black"/>
<path d="M58.6859 61.3843C58.7249 61.5403 58.7542 61.6964 58.7786 61.8573L58.7444 61.6135C58.8615 62.5157 58.7639 63.4276 58.9834 64.3152C59.1004 64.7834 59.6564 65.1101 60.1197 64.9589C60.5829 64.8077 60.8902 64.3249 60.7634 63.8226C60.7292 63.6861 60.7049 63.5447 60.6805 63.4032L60.7146 63.6471C60.5927 62.7303 60.6951 61.7988 60.461 60.8917C60.3391 60.4236 59.7929 60.092 59.3248 60.248C58.8566 60.4041 58.5494 60.882 58.681 61.3843H58.6859Z" fill="black"/>
<path d="M62.982 60.5702C63.3234 61.5212 63.6355 62.4819 63.9183 63.4524C64.0549 63.9156 64.5767 64.2521 65.0546 64.0961C65.5325 63.94 65.8446 63.4572 65.6983 62.9598C65.4155 61.9893 65.0985 61.0286 64.762 60.0777C64.6791 59.8485 64.5523 59.6534 64.3377 59.5266C64.1378 59.4096 63.8452 59.3608 63.6257 59.4339C63.1771 59.5802 62.8064 60.0825 62.982 60.5702Z" fill="black"/>
</g>
<defs>
<clipPath id="clip0_1186_2237">
<rect width="115.5" height="115.5" fill="white" transform="translate(0.703125 -0.00390625)"/>
</clipPath>
</defs>
</svg>
