<svg width="116" height="116" viewBox="0 0 116 116" fill="none" xmlns="http://www.w3.org/2000/svg">
<g clip-path="url(#clip0_1186_2577)">
<path d="M57.9531 115.496C89.8476 115.496 115.703 89.6405 115.703 57.7461C115.703 25.8517 89.8476 -0.00390625 57.9531 -0.00390625C26.0587 -0.00390625 0.203125 25.8517 0.203125 57.7461C0.203125 89.6405 26.0587 115.496 57.9531 115.496Z" fill="#E0A83D"/>
<path d="M97.1562 63.8767C96.966 62.833 96.7027 61.8041 96.376 60.7946C96.376 60.7946 95.0885 54.3524 85.1449 46.1108C85.5155 44.916 85.7155 43.6529 85.7155 42.3411C85.7155 35.1431 79.7171 29.3057 72.3191 29.3057C65.9892 29.3057 60.6882 33.5777 59.2886 39.3175C59.0642 39.2737 57.9572 39.2834 57.5134 39.2883C57.0697 39.2834 55.9627 39.2737 55.7383 39.3175C54.3387 33.5777 49.0377 29.3057 42.7078 29.3057C35.3098 29.3057 29.3114 35.1431 29.3114 42.3411C29.3114 43.6529 29.5114 44.916 29.882 46.1108C19.9384 54.3524 18.6509 60.7946 18.6509 60.7946C18.3242 61.8041 18.0609 62.833 17.8707 63.8767C17.0611 68.3486 17.8463 72.9181 20.4748 76.7122C21.4892 78.1752 22.723 79.4821 24.0982 80.633C25.4101 81.7205 26.8341 82.6764 28.3361 83.5054C33.8907 86.5729 40.1816 87.5823 46.4482 88.2309C48.1404 88.4065 49.8375 88.5723 51.5346 88.7089C54.8508 88.982 58.1328 89.1234 61.4587 88.8747C62.2731 88.8162 63.0875 88.7235 63.8971 88.6699C64.7554 88.6113 65.6527 88.5674 66.5012 88.4358C67.1937 88.3724 67.8862 88.2943 68.5836 88.2309C74.855 87.5872 81.1411 86.5729 86.6957 83.5054C88.1928 82.6764 89.6217 81.7254 90.9335 80.633C92.3088 79.4821 93.5426 78.1752 94.5569 76.7122C97.1855 72.923 97.9706 68.3535 97.1611 63.8767H97.1562Z" fill="#D6AF43"/>
<path d="M57.8646 90.2985C55.9383 90.2985 53.8511 90.201 51.4274 90.001C49.8912 89.8743 48.2185 89.7133 46.3166 89.5183C40.0841 88.8745 33.5103 87.8407 27.7119 84.6416C26.0977 83.7491 24.6055 82.7396 23.2741 81.6326C21.7526 80.3598 20.4554 78.9553 19.4166 77.4533C16.7003 73.5324 15.7006 68.6313 16.6028 63.6522C16.793 62.6134 17.0612 61.5406 17.4074 60.4628C17.6025 59.6338 19.2947 53.4404 28.4191 45.662C28.1557 44.5794 28.024 43.4675 28.024 42.3507C28.024 34.4505 34.6174 28.0229 42.7176 28.0229C49.1841 28.0229 54.7923 32.0755 56.7186 38.0007C56.9429 38.0007 57.216 38.0007 57.5379 38.0007C57.85 38.0007 58.1085 38.0007 58.3279 38.0007C60.2493 32.0755 65.8624 28.0229 72.3289 28.0229C80.4292 28.0229 87.0225 34.4505 87.0225 42.3507C87.0225 43.4675 86.8908 44.5794 86.6275 45.662C95.7518 53.4404 97.4489 59.6338 97.6391 60.4628C97.9853 61.5406 98.2535 62.6134 98.4437 63.6522C99.3459 68.6313 98.3462 73.5324 95.6299 77.4533C94.5862 78.9553 93.289 80.3598 91.7724 81.6277C90.441 82.7348 88.9439 83.7491 87.3297 84.6416C81.5264 87.8407 74.9575 88.8794 68.7251 89.5183C68.3203 89.5524 67.935 89.5914 67.5546 89.6304C67.262 89.6597 66.9694 89.6889 66.6768 89.7182C65.8966 89.8401 65.1065 89.8889 64.3458 89.9376L63.9947 89.962C63.5655 89.9913 63.1315 90.0303 62.7023 90.0693C62.3268 90.1035 61.9464 90.1376 61.5709 90.1669C60.381 90.2546 59.1716 90.2985 57.8793 90.2985H57.8646ZM42.7078 30.6076C36.0365 30.6076 30.6038 35.8744 30.6038 42.3458C30.6038 43.4919 30.7745 44.633 31.1159 45.7303L31.3743 46.5593L30.7062 47.1104C21.3234 54.8887 19.9287 60.9993 19.9189 61.0578L19.8848 61.1943C19.5678 62.1843 19.3191 63.1645 19.1484 64.1057C18.3682 68.407 19.2216 72.6205 21.5429 75.9708C22.45 77.2826 23.5911 78.5164 24.9322 79.6332C26.1319 80.6329 27.4925 81.5497 28.9652 82.3641C34.3589 85.3438 40.6206 86.3191 46.5848 86.9336C48.4721 87.1287 50.1253 87.2847 51.6468 87.4115C55.5482 87.7334 58.5474 87.787 61.3661 87.5773C61.727 87.5529 62.0927 87.5188 62.4536 87.4847C62.9071 87.4408 63.3607 87.4018 63.8142 87.3725L64.1702 87.3481C64.8871 87.3042 65.6235 87.2555 66.2965 87.1482L66.3794 87.1384C66.6817 87.1092 66.9792 87.0799 67.2816 87.0506C67.6766 87.0116 68.0716 86.9677 68.4715 86.9336C74.4162 86.324 80.6779 85.3438 86.0715 82.3641C87.5443 81.5497 88.9 80.6329 90.1046 79.6283C91.4408 78.5115 92.5819 77.2777 93.489 75.9659C95.8103 72.6156 96.6637 68.4021 95.8835 64.1008C95.7128 63.1548 95.4641 62.1745 95.1471 61.1895L95.1081 61.048C95.0983 60.9944 93.7036 54.8839 84.3208 47.1055L83.6527 46.5544L83.9111 45.7254C84.2525 44.6281 84.4232 43.487 84.4232 42.341C84.4232 35.8696 78.9954 30.6027 72.3192 30.6027C66.6817 30.6027 61.844 34.3139 60.5468 39.6295L60.2542 40.8341L59.0741 40.6C58.9473 40.5902 58.5035 40.5756 57.533 40.5854C56.5333 40.5756 56.0895 40.5854 55.9627 40.6L54.7825 40.8341L54.4899 39.6295C53.1927 34.3139 48.3502 30.6027 42.7176 30.6027L42.7078 30.6076Z" fill="black"/>
<path d="M74.7289 43.8332C74.7289 43.8332 73.4659 39.8489 74.6411 35.8354C74.6607 35.7671 74.7484 35.7476 74.7972 35.8013L75.3678 36.4645C75.3678 36.4645 76.5041 25.487 86.8037 19.4058C86.8037 19.4058 90.3539 20.8883 89.7297 24.4775C89.1055 28.0668 80.9809 38.4249 78.484 40.5707C78.484 40.5707 78.84 40.6146 79.7032 40.439C79.7812 40.4244 79.8397 40.5122 79.791 40.5756C79.3618 41.1461 77.8354 42.9018 74.7289 43.8332Z" fill="#EF6600"/>
<path d="M73.9966 45.2137L73.665 44.175C73.6114 43.9994 72.3142 39.8201 73.5675 35.5286C73.6894 35.1043 74.0356 34.7873 74.4648 34.6947C74.4892 34.6898 74.5184 34.6849 74.5428 34.68C75.3036 31.2468 77.898 23.3709 86.2274 18.4552L86.7053 18.1724L87.2174 18.3869C88.7292 19.016 91.426 21.1423 90.8115 24.673C90.2361 27.9892 84.1499 36.1284 80.7216 39.8884C80.7216 39.8884 80.7216 39.8932 80.7265 39.8981C80.9898 40.3224 80.9703 40.8539 80.668 41.2538C80.0925 42.0195 78.3954 43.9019 75.0354 44.9065L73.9917 45.2186L73.9966 45.2137ZM75.3182 38.1279C75.1378 39.8298 75.328 41.3855 75.5182 42.3755C76.1424 42.1121 76.6739 41.8195 77.1177 41.5269L75.8449 41.3757L77.7566 39.7323C80.3363 37.5134 88.0952 27.3893 88.6316 24.2926C88.9779 22.3078 87.5978 21.1618 86.837 20.6887C77.6493 26.4579 76.474 36.4844 76.4642 36.5868L76.1911 39.1471L75.3182 38.1279Z" fill="#0F0F0F"/>
<path d="M89.7147 22.8048C89.227 20.4201 86.7984 19.4058 86.7984 19.4058C86.0815 19.83 85.4085 20.2787 84.7795 20.742C84.7648 20.7907 83.1067 26.1941 89.7147 22.8048Z" fill="#3FC9B1"/>
<path d="M86.2415 25.0285C85.5051 25.0285 84.9004 24.8286 84.4225 24.4238C82.9205 23.1656 83.6325 20.6931 83.7154 20.4151L83.8227 20.064L84.1153 19.8446C84.798 19.3423 85.51 18.8692 86.2318 18.445L86.7097 18.1621L87.2218 18.3767C87.3437 18.4255 90.2014 19.6495 90.7964 22.5755L90.9671 23.3997L90.2161 23.785C88.6067 24.6091 87.29 25.0236 86.2415 25.0236V25.0285ZM85.7539 21.4051C85.6514 21.9513 85.6612 22.5707 85.8465 22.7218C85.8514 22.7218 86.3439 23.1022 88.3336 22.2293C87.9338 21.4734 87.2754 20.9613 86.8267 20.6834C86.4659 20.9126 86.105 21.1515 85.7539 21.4002V21.4051Z" fill="#0F0F0F"/>
<path d="M83.8829 25.7358L79.3865 26.3406C79.0744 26.7941 78.7818 27.2671 78.5039 27.7402C78.3576 27.9889 78.221 28.2376 78.0845 28.4863C77.9479 28.735 77.7821 28.974 77.6895 29.2324C77.7821 29.2617 77.9187 29.2324 78.0211 29.2227L78.6112 29.1788C79.1281 29.1398 79.645 29.1008 80.1668 29.0618C80.6886 29.0227 81.2397 28.9789 81.7761 28.9398L83.9219 34.2555C84.5412 33.441 85.1557 32.6022 85.7409 31.7635L83.8878 25.7358H83.8829Z" fill="#FFB727"/>
<path d="M83.6187 36.484L81.0438 30.1053L78.0983 30.3248C77.9227 30.3491 77.6496 30.3833 77.3424 30.2857L76.2598 29.9346L76.6401 28.8617C76.7426 28.5789 76.8889 28.3302 77.0059 28.1351C77.04 28.0766 77.079 28.0132 77.1083 27.9547C77.2497 27.6962 77.396 27.4377 77.5423 27.1842C77.8544 26.6477 78.1568 26.1698 78.4689 25.7163L78.7469 25.3066L84.6672 24.5117L86.9593 31.9585L86.6472 32.4022C86.0717 33.2264 85.4475 34.0749 84.8038 34.9284L83.6236 36.4889L83.6187 36.484ZM82.4971 27.7694L84.2039 32.0023C84.3112 31.856 84.4136 31.7146 84.516 31.5683L83.0969 26.9598L80.0295 27.3743C79.9027 27.5694 79.7759 27.7742 79.6491 27.9839L82.4971 27.7694Z" fill="#0F0F0F"/>
<path d="M73.8105 46.842C73.8105 46.842 73.8349 46.7299 73.8837 46.5153C73.9325 46.3007 74.0056 45.9886 74.108 45.5936C74.2153 45.1986 74.347 44.7206 74.5079 44.1696C74.5908 43.8965 74.6786 43.6039 74.7713 43.2966C74.8639 42.9894 74.981 42.6724 75.0882 42.3408C75.3028 41.6727 75.5759 40.9607 75.8539 40.1999C75.9953 39.8196 76.1562 39.4392 76.3123 39.0442C76.4732 38.6491 76.6293 38.2493 76.8097 37.8445C77.1706 37.0398 77.5168 36.1962 77.9362 35.3671C78.1411 34.9526 78.3459 34.5283 78.5507 34.1089C78.7702 33.6944 78.9896 33.275 79.2091 32.8556C79.6431 32.0168 80.1259 31.2024 80.5941 30.3978C80.7111 30.1978 80.8281 29.9979 80.9452 29.7979C81.0622 29.598 81.1939 29.4078 81.3109 29.2127C81.5596 28.8275 81.8035 28.4471 82.0424 28.0716C82.5057 27.3157 83.0275 26.6232 83.4957 25.9551C83.7347 25.6235 83.959 25.2967 84.1882 24.9895C84.4271 24.6871 84.6563 24.3945 84.8807 24.1117C85.3245 23.5509 85.7243 23.0339 86.1047 22.5901C86.49 22.1512 86.8265 21.7708 87.1045 21.4587C87.3776 21.1418 87.6019 20.9028 87.7531 20.737C87.9042 20.5712 87.9823 20.4834 87.9823 20.4834C87.9823 20.4834 87.9091 20.5761 87.7774 20.7565C87.6409 20.9321 87.4458 21.1954 87.1922 21.5221C86.9387 21.8489 86.6265 22.2488 86.2754 22.7072C86.095 22.9315 85.9292 23.19 85.739 23.4533C85.5488 23.7167 85.3537 23.9946 85.1489 24.2824C84.9441 24.5701 84.7295 24.8724 84.5052 25.1797C84.2955 25.4967 84.076 25.8283 83.8517 26.1648C83.4079 26.8426 82.9202 27.5449 82.4716 28.3056C82.0132 29.0615 81.5206 29.8272 81.072 30.6367C80.8428 31.0366 80.6136 31.4414 80.3795 31.8461C80.0918 32.3338 79.8528 32.8507 79.5699 33.3433C79.3797 33.7042 79.1896 34.065 78.9994 34.4259C78.8092 34.8112 78.619 35.1916 78.4337 35.5719C78.0143 36.3961 77.6388 37.2203 77.2681 38.0152C77.0779 38.4102 76.917 38.8101 76.7414 39.1953C76.5708 39.5806 76.4001 39.9561 76.2489 40.3267C75.9465 41.0729 75.6442 41.7702 75.3955 42.4237C75.137 43.0772 74.9127 43.677 74.7127 44.2135C74.5128 44.7499 74.3519 45.2181 74.2202 45.6033C74.0934 45.9935 73.991 46.2958 73.9227 46.5055C73.8593 46.7152 73.8203 46.8274 73.8203 46.8274L73.8105 46.842Z" fill="#603913"/>
<path d="M74.8694 47.1737L72.7285 46.5982L72.8017 46.2715C72.8504 46.0472 72.9285 45.7156 73.0358 45.301C73.1528 44.8719 73.2796 44.394 73.4454 43.8478L73.7087 42.9748C73.7721 42.7652 73.8453 42.5506 73.9184 42.336L74.0355 41.9946C74.2257 41.4094 74.45 40.7998 74.689 40.1561L74.8157 39.8196C74.9084 39.566 75.0108 39.3124 75.1181 39.054L75.3863 38.3907C75.518 38.0591 75.6545 37.7275 75.8057 37.391C75.8984 37.1813 75.9959 36.9667 76.0886 36.7473C76.3568 36.1377 76.6299 35.5086 76.9517 34.8746L77.5565 33.6311L78.2294 32.3485C78.6001 31.6316 79.0097 30.9294 79.4047 30.2466L79.9851 29.2518C80.068 29.1104 80.1557 28.9689 80.2484 28.8275C80.2874 28.7641 80.3313 28.7007 80.3703 28.6373L81.1067 27.4864C81.4578 26.9158 81.8431 26.3794 82.2137 25.8576C82.3405 25.682 82.4624 25.5065 82.5843 25.3358L82.8428 24.97C82.994 24.7555 83.1452 24.5458 83.2915 24.3409L84.3058 23.0535C84.6374 22.6341 84.9495 22.2391 85.2519 21.8831L86.2614 20.7419C86.4516 20.5225 86.6223 20.3372 86.7588 20.186L87.1489 19.752L88.8607 21.1662L88.4949 21.649C88.3779 21.805 88.2316 22.0001 88.056 22.2244L87.1392 23.4046C87.027 23.546 86.9344 23.6826 86.8368 23.824C86.7686 23.9215 86.7003 24.024 86.6271 24.1215L85.4031 25.8283L84.7594 26.7988C84.6326 26.989 84.5009 27.1938 84.3643 27.3986C84.0425 27.8814 83.7109 28.3789 83.4085 28.8909C83.272 29.1152 83.1403 29.3298 83.0086 29.5444C82.677 30.0808 82.3356 30.6319 82.0284 31.1927L81.3262 32.4168C81.1799 32.6655 81.0531 32.9093 80.9165 33.1678C80.7897 33.4116 80.6629 33.6555 80.5264 33.8944L79.7851 35.3282L79.4145 36.0792C79.0829 36.7375 78.7756 37.3959 78.4782 38.0347L78.2636 38.498C78.1465 38.7419 78.049 38.9711 77.9515 39.1954C77.8832 39.3515 77.8149 39.5075 77.7466 39.6636L77.5711 40.0586C77.4638 40.2975 77.3614 40.5316 77.2639 40.7657C77.1566 41.0339 77.0395 41.307 76.9322 41.5752C76.7518 42.0093 76.5762 42.4287 76.4251 42.8334C76.1666 43.4967 75.9423 44.0867 75.7423 44.6183C75.5473 45.1401 75.3912 45.6034 75.2595 45.9838L74.8694 47.1835V47.1737Z" fill="#0F0F0F"/>
<path d="M74.8845 43.6677C74.7918 43.3702 73.6897 39.5956 74.8357 35.821C74.8406 35.8015 74.865 35.7966 74.8796 35.8113L75.4697 36.4989C75.4697 36.4989 75.5087 36.5086 75.5136 36.4891C75.616 35.6699 77.0205 25.658 86.5886 20.0059C86.5935 20.0059 86.6032 20.0059 86.6081 20.0059C86.8178 20.0985 90.0218 21.5518 89.4366 24.9167C88.8367 28.3792 81.0389 38.3277 78.5761 40.4832C78.5615 40.4978 78.5664 40.5222 78.5908 40.5222C78.7225 40.5222 79.1077 40.5222 79.8197 40.371C79.8587 40.3612 79.8929 40.4051 79.8685 40.4393C79.5612 40.8684 78.0982 42.7216 74.9186 43.6774C74.9089 43.6774 74.8942 43.6774 74.8894 43.6628L74.8845 43.6677Z" fill="#EF6600"/>
<path d="M75.8448 41.0244C75.0255 38.9469 74.8792 36.5573 74.85 35.9331C74.85 35.9038 74.8061 35.9038 74.8012 35.9331C73.7088 39.6686 74.7915 43.3749 74.8792 43.6724C74.8792 43.6822 74.8939 43.687 74.9085 43.687C78.1027 42.7263 79.5706 40.8586 79.8632 40.4392C79.8779 40.4197 79.8535 40.3953 79.8291 40.4099C77.9662 41.4974 76.0253 41.0829 75.8595 41.0439C75.8497 41.0439 75.8448 41.039 75.8448 41.0292V41.0244Z" fill="#FFB300"/>
<path d="M89.418 23.2781C88.9547 21.0739 86.7748 20.0839 86.6041 20.0059C86.5992 20.0059 86.5895 20.0059 86.5846 20.0059C85.8921 20.4155 85.2484 20.8447 84.6388 21.2933C84.6388 21.2933 84.6388 21.2933 84.6339 21.2982C84.59 21.4347 83.0783 26.5407 89.4034 23.3025C89.4131 23.2976 89.418 23.283 89.418 23.2733V23.2781Z" fill="#3FC9B1"/>
<path d="M79.557 30.2082L82.4196 36.1139C82.4196 36.1139 82.4489 36.1334 82.4586 36.1187C83.039 35.3921 83.6388 34.6167 84.2289 33.8267C84.2289 33.8218 84.2337 33.8121 84.2289 33.8023L82.4489 28.0136C82.4489 28.0136 82.4342 27.9941 82.4245 27.9941L78.2695 28.5501" fill="#3FC9B1"/>
<path d="M83.7454 26.1406L79.4149 26.721C79.4149 26.721 79.4003 26.7258 79.3954 26.7307C78.7468 27.6817 78.1908 28.6326 77.7324 29.5446L81.6972 29.2422C81.6972 29.2422 81.7167 29.2471 81.7216 29.2568L83.7795 34.3579C83.7795 34.3579 83.8088 34.3774 83.8234 34.3628C84.4135 33.5874 84.9987 32.7876 85.5547 31.9927C85.5547 31.9878 85.5595 31.978 85.5547 31.9732L83.7649 26.1601C83.7649 26.1601 83.7503 26.1406 83.7405 26.1406H83.7454Z" fill="#FFB727"/>
<path d="M74.0068 46.6033C74.0068 46.6033 74.0312 46.4911 74.0751 46.2863C74.119 46.0766 74.1921 45.7742 74.2946 45.389C74.397 45.0037 74.5238 44.5404 74.6798 44.0089C74.7578 43.7455 74.8456 43.4627 74.9334 43.1652C75.0261 42.8677 75.1333 42.5605 75.2406 42.2386C75.4503 41.59 75.7137 40.8975 75.9819 40.166C76.1184 39.8003 76.2745 39.4296 76.4257 39.0444C76.5817 38.664 76.7329 38.2739 76.9085 37.8837C77.2596 37.1035 77.5961 36.289 78.0009 35.4844C78.1959 35.0796 78.3959 34.6748 78.5958 34.2652C78.8055 33.8604 79.0201 33.4557 79.2347 33.0509C79.6541 32.2365 80.1222 31.4513 80.5758 30.6662C80.6879 30.4711 80.8001 30.2761 80.9123 30.0859C81.0244 29.8908 81.1512 29.7055 81.2682 29.5202C81.5072 29.1447 81.7462 28.7789 81.9754 28.4132C82.424 27.6816 82.9312 27.0087 83.3847 26.3601C83.614 26.0382 83.8334 25.7212 84.0577 25.4237C84.2918 25.1311 84.5113 24.8483 84.7258 24.5752C85.155 24.0339 85.5451 23.5267 85.9109 23.1024C86.2864 22.6781 86.6131 22.3075 86.8813 22.0052C87.1496 21.6979 87.3641 21.4638 87.5104 21.3029C87.6567 21.142 87.7348 21.0542 87.7348 21.0542C87.7348 21.0542 87.6665 21.1469 87.5348 21.3175C87.4032 21.4882 87.213 21.7418 86.9642 22.0637C86.7155 22.3807 86.4181 22.7708 86.0718 23.2097C85.8962 23.4292 85.7353 23.6779 85.55 23.9363C85.3696 24.1899 85.1745 24.4581 84.9746 24.741C84.7746 25.019 84.5649 25.3116 84.3503 25.6139C84.1455 25.9212 83.9358 26.243 83.7164 26.5698C83.2872 27.2281 82.8142 27.9109 82.3753 28.6472C81.9315 29.3787 81.4536 30.1249 81.0195 30.91C80.7952 31.3002 80.5709 31.6903 80.3466 32.0853C80.0783 32.5389 79.854 33.0168 79.5955 33.4752L79.2152 34.1726C78.9616 34.6846 78.7129 35.1918 78.4641 35.6941C78.0594 36.4939 77.6936 37.2936 77.3376 38.0642C77.1523 38.4494 76.9963 38.8347 76.8304 39.2102C76.6695 39.5857 76.4988 39.9515 76.3525 40.3075C76.0599 41.0292 75.7673 41.7071 75.5284 42.341C75.2797 42.975 75.0602 43.5553 74.8651 44.0771C74.6749 44.5941 74.5189 45.0525 74.3872 45.428C74.2604 45.8035 74.1629 46.101 74.0995 46.3009C74.0361 46.5057 74.002 46.613 74.002 46.613L74.0068 46.6033Z" fill="#603913"/>
<path d="M78.9758 29.4565L77.7371 29.5492C77.4055 30.2271 77.1032 30.9147 76.8301 31.6072L80.1316 31.4219L80.1755 30.6513" fill="#3FC9B1"/>
<path d="M29.9948 48.7831C29.1901 48.7831 28.4147 48.5247 27.7807 48.037C27.0151 47.4518 26.5323 46.5788 26.4494 45.6376C26.3129 44.0625 26.269 41.5802 26.82 38.703C27.1078 37.2009 28.3659 36.0842 29.946 35.9184C34.8715 35.4063 60.7278 32.9875 86.0721 35.8989C87.7594 36.0939 89.0761 37.4204 89.2078 39.0492C89.437 41.9606 89.2761 44.1259 88.7347 45.4962C88.2178 46.7983 86.9255 47.6517 85.4527 47.6615C80.6882 47.7005 38.6704 48.0419 30.3313 48.7734C30.224 48.7831 30.1118 48.788 30.0045 48.788L29.9948 48.7831ZM30.7312 39.927C30.4142 41.8094 30.3947 43.4626 30.4581 44.6721C39.5873 43.9844 76.66 43.6577 85.0577 43.5894C85.204 42.9067 85.2869 41.6875 85.1796 39.8929C60.9668 37.1717 36.354 39.3564 30.7312 39.927Z" fill="black"/>
<mask id="mask0_1186_2577" style="mask-type:luminance" maskUnits="userSpaceOnUse" x="28" y="36" width="60" height="11">
<path d="M30.098 37.8303C35.5209 37.2646 60.8408 34.9238 85.8924 37.8108C86.5849 37.8888 87.1165 38.4107 87.1652 39.0446C87.2872 40.5613 87.3993 43.2679 86.819 44.6724C86.6093 45.1795 86.068 45.5063 85.473 45.5111C79.8112 45.555 38.2909 45.9013 30.0736 46.6328C29.2592 46.7059 28.5472 46.1549 28.4789 45.4136C28.3521 43.9945 28.2936 41.6488 28.8252 38.9227C28.9373 38.3424 29.4591 37.8986 30.098 37.8352V37.8303Z" fill="white"/>
</mask>
<g mask="url(#mask0_1186_2577)">
<path d="M66.7753 33.6802H50.3457L54.4519 40.1613L58.563 46.6474L62.6691 40.1613L66.7753 33.6802Z" fill="#63D3B3"/>
<path d="M83.2002 33.6802H66.7754L70.8816 40.1613L74.9878 46.6474L79.094 40.1613L83.2002 33.6802Z" fill="#63D3B3"/>
<path d="M50.3466 33.6802H33.9219L38.0281 40.1613L42.1343 46.6474L46.2404 40.1613L50.3466 33.6802Z" fill="#63D3B3"/>
<path d="M33.9214 33.6802L29.8152 40.1613L25.709 46.6474H33.9214H42.1337L38.0276 40.1613L33.9214 33.6802Z" fill="#EF6600"/>
<path d="M50.3452 33.6802L46.239 40.1613L42.1328 46.6474H50.3452H58.5624L54.4514 40.1613L50.3452 33.6802Z" fill="#EF6600"/>
<path d="M66.7749 33.6802L62.6687 40.1613L58.5625 46.6474H66.7749H74.9873L70.8811 40.1613L66.7749 33.6802Z" fill="#EF6600"/>
<path d="M87.3068 40.1613L83.2007 33.6802L79.0945 40.1613L74.9883 46.6474H83.2007H91.3887V46.6083L87.3068 40.1613Z" fill="#EF6600"/>
<path d="M35.4276 42.1119C35.4276 42.9263 34.701 43.5847 33.8085 43.5847C32.9161 43.5847 32.1895 42.9263 32.1895 42.1119C32.1895 41.2975 32.9161 40.6392 33.8085 40.6392C34.701 40.6392 35.4276 41.3024 35.4276 42.1119Z" fill="#F8C054"/>
<path d="M51.9647 42.1119C51.9647 42.9263 51.2381 43.5847 50.3456 43.5847C49.4532 43.5847 48.7266 42.9263 48.7266 42.1119C48.7266 41.2975 49.4532 40.6392 50.3456 40.6392C51.2381 40.6392 51.9647 41.3024 51.9647 42.1119Z" fill="#F8C054"/>
<path d="M68.5018 42.1119C68.5018 42.9263 67.7752 43.5847 66.8827 43.5847C65.9903 43.5847 65.2637 42.9263 65.2637 42.1119C65.2637 41.2975 65.9903 40.6392 66.8827 40.6392C67.7752 40.6392 68.5018 41.3024 68.5018 42.1119Z" fill="#F8C054"/>
<path d="M85.0448 42.1119C85.0448 42.9263 84.3181 43.5847 83.4257 43.5847C82.5333 43.5847 81.8066 42.9263 81.8066 42.1119C81.8066 41.2975 82.5333 40.6392 83.4257 40.6392C84.3181 40.6392 85.0448 41.3024 85.0448 42.1119Z" fill="#F8C054"/>
<path d="M45.6017 36.3086H38.6719L40.4031 39.0444L42.1343 41.7851L43.8704 39.0444L45.6017 36.3086Z" fill="#EF6600"/>
<path d="M62.0255 36.3086H55.0957L56.8269 39.0444L58.5582 41.7851L60.2943 39.0444L62.0255 36.3086Z" fill="#EF6600"/>
<path d="M78.4513 36.3086H71.5215L73.2527 39.0444L74.9839 41.7851L76.7201 39.0444L78.4513 36.3086Z" fill="#EF6600"/>
<path d="M87.9462 36.3087H91.3892V33.6802H83.2012L87.3074 40.1613L91.3892 46.6083V41.7414L89.6774 39.0446L87.9462 36.3087Z" fill="#63D3B3"/>
<path d="M25.709 33.6802V36.3087H29.1763L27.4451 39.0446L25.709 41.7853V46.6474L29.8152 40.1613L33.9214 33.6802H25.709Z" fill="#63D3B3"/>
<path d="M29.1763 36.3086H25.709V41.7851L27.4451 39.0444L29.1763 36.3086Z" fill="#F96C41"/>
</g>
<path d="M43.8635 55.3322C46.4969 55.0493 49.1108 54.6104 51.6906 54.0106C52.349 53.8546 52.8025 53.0645 52.5928 52.4159C52.3685 51.7283 51.7053 51.3479 50.9981 51.5137C49.0572 51.9673 47.0968 52.3281 45.1217 52.5964L45.4679 52.5525C44.9315 52.6256 44.3951 52.689 43.8586 52.7475C43.5075 52.7865 43.2051 52.8646 42.9418 53.1279C42.7175 53.3522 42.5468 53.7229 42.5614 54.0447C42.5907 54.6836 43.1369 55.42 43.8586 55.3419L43.8635 55.3322Z" fill="black"/>
<path d="M71.1634 52.7429C70.6269 52.6844 70.0905 52.621 69.5541 52.5479L69.9003 52.5918C67.9252 52.3235 65.9648 51.9627 64.0239 51.5091C63.3655 51.3531 62.5901 51.7139 62.4292 52.4113C62.278 53.0746 62.6291 53.8402 63.3314 54.006C65.9112 54.6107 68.5251 55.0447 71.1585 55.3276C71.4657 55.3617 71.8656 55.1569 72.0753 54.9472C72.2997 54.7229 72.4703 54.3522 72.4557 54.0304C72.4411 53.7085 72.3289 53.3476 72.0753 53.1136C71.8071 52.8697 71.5194 52.7722 71.1585 52.7332L71.1634 52.7429Z" fill="black"/>
<path d="M49.0584 61.7209C49.0828 62.3987 49.4973 63.0181 50.0532 63.4082C50.6092 63.7983 51.2773 63.9885 51.9356 64.1495C56.0126 65.1443 60.3236 65.1736 64.4054 64.1934C65.5124 63.9251 66.6584 63.5545 67.4387 62.7206C68.219 61.8867 68.4726 60.4675 67.7069 59.619C67.2241 59.0826 66.4487 58.8924 65.727 58.9363C65.0052 58.9801 64.3176 59.2289 63.6251 59.4434C60.0554 60.5651 56.1247 60.8772 52.5891 59.6531C52.5891 59.6531 48.9657 58.8924 49.0584 61.7257V61.7209Z" fill="white"/>
<path d="M48.1317 61.7208C48.1853 62.7498 48.7315 63.5935 49.5557 64.1836C50.2969 64.7151 51.2381 64.9395 52.1111 65.1394C53.9788 65.5637 55.9003 65.7978 57.8168 65.8319C59.7334 65.866 61.7133 65.6856 63.625 65.3052C65.3172 64.9687 67.2191 64.5152 68.331 63.0766C69.4234 61.6623 69.3893 59.3703 67.6873 58.4339C65.9853 57.4976 63.981 58.4291 62.2107 58.8826C61.7621 58.9996 61.3085 59.102 60.855 59.1849C60.6502 59.224 60.4405 59.263 60.2308 59.2922C60.1186 59.3117 60.0065 59.3264 59.8992 59.341C59.8748 59.341 59.6992 59.3703 59.8114 59.3508C59.9236 59.3312 59.6797 59.3654 59.6846 59.3654C58.797 59.4727 57.8997 59.5166 57.0073 59.4922C56.5489 59.4775 56.0905 59.4483 55.6321 59.3946C55.5735 59.3898 55.3297 59.3556 55.5053 59.38C55.3931 59.3654 55.2858 59.3459 55.1736 59.3312C54.9396 59.2922 54.7104 59.2483 54.4763 59.1996C54.0276 59.102 53.5838 58.9899 53.1449 58.8485C53.0181 58.8094 52.8913 58.7558 52.7597 58.7314C51.0431 58.3852 48.7559 58.7558 48.2341 60.7162C48.1463 61.0381 48.117 61.3795 48.1268 61.7111C48.1365 62.1939 48.5413 62.6572 49.0534 62.6377C49.5654 62.6181 49.9897 62.2329 49.9799 61.7111C49.9799 61.5843 49.9799 61.4624 49.9897 61.3356C49.9994 61.1941 49.9458 61.5697 49.9897 61.3405C49.9994 61.2819 50.0141 61.2234 50.0336 61.1649C50.0482 61.1161 50.0677 61.0722 50.0824 61.0235C50.1116 60.9211 49.9848 61.2234 50.0385 61.1308C50.0482 61.1112 50.0531 61.0917 50.0628 61.0771C50.0872 61.0283 50.1116 60.9845 50.1409 60.9406C50.1506 60.9259 50.1604 60.9064 50.175 60.8918C50.253 60.765 50.136 60.9503 50.1116 60.9698C50.175 60.9162 50.2287 60.843 50.2921 60.7796C50.4335 60.6382 50.1555 60.8674 50.2482 60.8089C50.2872 60.7845 50.3262 60.7552 50.3701 60.726C50.4432 60.6821 50.5213 60.648 50.5944 60.6089C50.6968 60.5553 50.3506 60.6967 50.5408 60.6333C50.5847 60.6187 50.6334 60.5992 50.6773 60.5846C50.7602 60.5602 50.8431 60.5407 50.926 60.5212C50.9748 60.5114 51.0236 60.5017 51.0675 60.4919C51.087 60.4919 51.1016 60.487 51.1211 60.4821C51.2723 60.4529 51.0187 60.4968 50.9992 60.4968C51.1747 60.487 51.3454 60.4675 51.5161 60.4626C51.6673 60.4626 51.8233 60.4626 51.9745 60.4773C52.033 60.4773 52.0964 60.487 52.155 60.4919C52.1842 60.4919 52.2184 60.4968 52.2476 60.5017C52.4037 60.5163 51.9891 60.4626 52.1013 60.4821C52.3744 60.526 52.6231 60.6187 52.8865 60.7016C53.7399 60.9552 54.6128 61.1161 55.4955 61.2234C57.217 61.4331 58.958 61.3405 60.6697 61.0722C61.489 60.9406 62.2985 60.765 63.0934 60.5407C63.8883 60.3163 64.7222 59.9945 65.5708 59.8482C65.7171 59.8238 65.4342 59.8482 65.5805 59.8482C65.6244 59.8482 65.6683 59.8384 65.7122 59.8384C65.8049 59.8335 65.8975 59.8287 65.9951 59.8335C66.078 59.8335 66.1609 59.8433 66.2438 59.8482C66.3559 59.8531 66.1706 59.8482 66.1706 59.8384C66.1706 59.8384 66.3267 59.8677 66.3413 59.8726C66.4193 59.8921 66.5022 59.9116 66.5754 59.9408C66.6095 59.9506 66.6729 59.9652 66.7071 59.9896C66.6827 59.975 66.5266 59.8969 66.6778 59.9798C66.7461 60.0189 66.8144 60.0676 66.8875 60.1018C66.985 60.1554 66.829 60.0628 66.8387 60.0579C66.8582 60.0579 66.9509 60.1554 66.9655 60.1749C66.9997 60.2091 67.024 60.2432 67.0582 60.2725C67.1313 60.3407 67.0143 60.2188 67.0143 60.2091C67.0143 60.2481 67.1216 60.3846 67.146 60.4236C67.224 60.5651 67.0874 60.2432 67.1606 60.4626C67.185 60.5407 67.1996 60.6236 67.224 60.7016C67.2581 60.8235 67.2094 60.5163 67.2191 60.6431C67.2191 60.6723 67.224 60.7065 67.2289 60.7357C67.2337 60.8186 67.2337 60.9064 67.2289 60.9893C67.2289 61.0235 67.224 61.0527 67.224 61.0869C67.224 61.2137 67.2581 60.9064 67.2337 61.0332C67.2142 61.1161 67.1996 61.2039 67.1801 61.2868C67.1606 61.36 67.1362 61.4331 67.1118 61.5063C67.0582 61.6672 67.1265 61.4868 67.1313 61.4672C67.1265 61.5014 67.0874 61.5599 67.0777 61.5843C67.0484 61.6428 67.0192 61.7013 66.985 61.7598C66.9606 61.7989 66.9411 61.833 66.9168 61.872C66.9021 61.8964 66.7997 62.0573 66.8777 61.9403C66.946 61.8379 66.8143 62.0086 66.7851 62.0476C66.7266 62.111 66.6632 62.1695 66.5998 62.228C66.5364 62.2865 66.473 62.3402 66.4047 62.3938C66.5705 62.2573 66.3072 62.4572 66.2633 62.4816C66.117 62.5743 65.9658 62.6572 65.8146 62.7352C65.7366 62.7742 65.6586 62.8083 65.5805 62.8474C65.7756 62.7547 65.4684 62.8912 65.4196 62.9059C65.0685 63.0375 64.7076 63.14 64.3419 63.2326C63.5031 63.4423 62.6545 63.6081 61.8011 63.73C61.7572 63.7349 61.7133 63.7398 61.6694 63.7495C61.8352 63.7252 61.6889 63.7495 61.6548 63.7495C61.5524 63.7642 61.4548 63.7739 61.3524 63.7886C61.1232 63.8178 60.8891 63.8373 60.6551 63.8617C60.221 63.9007 59.7821 63.93 59.3481 63.9446C58.4898 63.9788 57.6266 63.9739 56.7683 63.9251C56.3343 63.9007 55.8954 63.8666 55.4614 63.8178C55.2419 63.7934 55.0273 63.7691 54.8079 63.7398C54.7006 63.7252 54.8225 63.7398 54.8371 63.7398C54.7786 63.73 54.7201 63.7252 54.6665 63.7154C54.5494 63.7008 54.4373 63.6813 54.3202 63.6618C53.4717 63.5252 52.628 63.3594 51.799 63.1351C51.6088 63.0814 51.4235 63.0278 51.2381 62.9595C51.1796 62.94 50.965 62.8474 51.1308 62.9254C51.0382 62.8815 50.9407 62.8376 50.8529 62.7888C50.7651 62.7401 50.6724 62.6864 50.5847 62.6279C50.5554 62.6084 50.5213 62.584 50.492 62.5645C50.3847 62.4962 50.6042 62.6718 50.5115 62.5791C50.453 62.5206 50.3896 62.4718 50.3311 62.4085C50.2969 62.3743 50.2677 62.3402 50.2384 62.306C50.1409 62.1988 50.2287 62.3255 50.253 62.3255C50.2189 62.3255 50.1214 62.1207 50.1019 62.0915C50.0824 62.0622 50.0726 62.0281 50.0531 61.9988C49.9848 61.8866 50.1019 62.15 50.0628 62.0281C50.0433 61.95 50.019 61.872 49.9946 61.794C49.9799 61.7501 49.9214 61.6282 49.9946 61.833C49.9799 61.794 49.9848 61.7306 49.9848 61.6916C49.9604 61.2088 49.5801 60.7455 49.0582 60.765C48.5803 60.7845 48.1073 61.1746 48.1317 61.6916V61.7208Z" fill="black"/>
<path d="M53.3236 60.6528C53.3139 61.1551 53.2797 61.6574 53.2114 62.1548L53.2456 61.9109C53.2017 62.2231 53.148 62.5303 53.0846 62.8375C53.031 63.0814 53.0505 63.3301 53.1773 63.5495C53.2895 63.7397 53.5089 63.925 53.7284 63.9738C53.9673 64.0274 54.2307 64.0177 54.4404 63.8811C54.6354 63.7543 54.8159 63.5641 54.8646 63.3301C55.05 62.4523 55.1572 61.5549 55.1719 60.6528C55.1816 60.17 54.7427 59.7067 54.2453 59.7262C53.7479 59.7457 53.3285 60.1309 53.3187 60.6528H53.3236Z" fill="black"/>
<path d="M58.1859 61.3843C58.2249 61.5403 58.2542 61.6964 58.2786 61.8573L58.2444 61.6135C58.3615 62.5157 58.2639 63.4276 58.4834 64.3152C58.6004 64.7834 59.1564 65.1101 59.6197 64.9589C60.0829 64.8077 60.3902 64.3249 60.2634 63.8226C60.2292 63.6861 60.2049 63.5447 60.1805 63.4032L60.2146 63.6471C60.0927 62.7303 60.1951 61.7988 59.961 60.8917C59.8391 60.4236 59.2929 60.092 58.8248 60.248C58.3566 60.4041 58.0494 60.882 58.181 61.3843H58.1859Z" fill="black"/>
<path d="M62.482 60.5702C62.8234 61.5212 63.1355 62.4819 63.4183 63.4524C63.5549 63.9156 64.0767 64.2521 64.5546 64.0961C65.0325 63.94 65.3446 63.4572 65.1983 62.9598C64.9155 61.9893 64.5985 61.0286 64.262 60.0777C64.1791 59.8485 64.0523 59.6534 63.8377 59.5266C63.6378 59.4096 63.3452 59.3608 63.1257 59.4339C62.6771 59.5802 62.3064 60.0825 62.482 60.5702Z" fill="black"/>
</g>
<defs>
<clipPath id="clip0_1186_2577">
<rect width="115.5" height="115.5" fill="white" transform="translate(0.203125 -0.00390625)"/>
</clipPath>
</defs>
</svg>
