<svg width="102" height="96" viewBox="0 0 102 96" fill="none" xmlns="http://www.w3.org/2000/svg">
<path d="M96.4447 67.2661C95.1817 69.7546 93.6836 72.1828 91.9722 74.5123C87.3028 80.8706 80.9986 86.4725 73.0378 90.3094C71.3865 91.1096 69.6642 91.8277 67.8709 92.4635C62.6165 94.3271 56.7606 95.4672 50.2869 95.6372C47.5969 95.7139 44.8084 95.6262 41.916 95.3521C40.5491 95.2315 39.1712 95.0616 37.7606 94.8533C28.0391 93.4063 20.5266 89.9585 14.9004 85.1844C9.5968 80.6842 5.96628 75.0111 3.74096 68.7241C-1.1143 55.01 0.711887 38.3908 6.4365 24.7588C8.03305 20.9548 9.93579 17.381 12.0791 14.169C17.6397 5.81556 27.7767 -0.109689 35.7157 0.367181C67.0999 2.24178 59.9373 31.4953 59.9373 31.4953C59.9373 31.4953 71.7255 12.7055 93.0384 25.9209C103.624 32.4874 104.788 50.9758 96.4447 67.2661Z" fill="#5A8900"/>
<path d="M59.9378 31.4962C59.9378 31.4962 25.8143 22.1665 6.43701 24.7593C8.03356 20.9551 9.9363 17.3811 12.0796 14.1689C18.4767 14.9693 39.2756 18.45 59.9378 31.4962Z" fill="#4B7201"/>
<path d="M59.9377 31.4951C59.9377 31.4951 26.9678 61.6421 14.8953 85.1787C9.59168 80.6786 5.96117 75.0055 3.73584 68.7184C13.3425 58.315 33.9227 38.9716 59.9377 31.4951Z" fill="#4B7201"/>
<path d="M96.4395 67.266C90.1572 42.7538 59.9321 31.4897 59.9321 31.4897C82.7868 44.8586 89.8729 65.375 91.967 74.5068L96.4395 67.2605V67.266Z" fill="#4B7201"/>
<path d="M73.0324 90.3092C71.3812 91.1094 69.6589 91.8275 67.8655 92.4633C62.6111 94.3269 56.7553 95.467 50.2816 95.637C47.5915 95.7137 44.803 95.626 41.9106 95.3519C45.1694 87.3657 59.2759 54.7193 59.9374 31.4951C59.9374 31.4951 72.6497 59.2523 73.0324 90.3092Z" fill="#4B7201"/>
</svg>
