<svg width="260" height="248" viewBox="0 0 260 248" fill="none" xmlns="http://www.w3.org/2000/svg">
<path d="M254.907 164.05C254.317 160.77 253.477 157.52 252.447 154.34C252.447 154.34 248.397 134.04 217.057 108.06C218.227 104.3 218.857 100.31 218.857 96.18C218.857 73.49 199.957 55.1 176.637 55.1C156.687 55.1 139.987 68.56 135.567 86.66C134.857 86.52 131.367 86.55 129.977 86.56C128.587 86.54 125.097 86.52 124.387 86.66C119.967 68.57 103.267 55.1 83.3172 55.1C59.9972 55.1 41.0972 73.49 41.0972 96.18C41.0972 100.31 41.7272 104.3 42.8972 108.06C11.5572 134.03 7.50722 154.34 7.50722 154.34C6.47722 157.52 5.64721 160.76 5.04721 164.05C2.49721 178.15 4.97722 192.55 13.2572 204.5C16.4472 209.11 20.3472 213.24 24.6772 216.86C28.8072 220.29 33.3072 223.3 38.0272 225.91C55.5372 235.57 75.3572 238.76 95.1072 240.8C100.447 241.35 105.787 241.87 111.137 242.31C121.587 243.18 131.937 243.61 142.417 242.84C144.977 242.65 147.547 242.36 150.097 242.19C152.797 242.01 155.627 241.87 158.307 241.45C160.497 241.25 162.677 241 164.867 240.81C184.627 238.78 204.447 235.59 221.947 225.92C226.667 223.31 231.167 220.3 235.297 216.87C239.627 213.25 243.517 209.12 246.717 204.51C254.997 192.57 257.477 178.16 254.927 164.06L254.907 164.05Z" fill="#D6AF43"/>
<path d="M131.078 247.31C125.008 247.31 118.418 247 110.788 246.36C105.948 245.96 100.678 245.46 94.6777 244.84C75.0278 242.82 54.3277 239.56 36.0377 229.47C30.9477 226.66 26.2377 223.47 22.0477 219.98C17.2577 215.97 13.1677 211.55 9.88775 206.81C1.32775 194.46 -1.82225 179.01 1.01775 163.31C1.60775 160.04 2.45775 156.66 3.54775 153.26C4.15775 150.64 9.49775 131.12 38.2577 106.61C37.4277 103.19 37.0077 99.7 37.0077 96.17C37.0077 71.27 57.7778 51.01 83.3078 51.01C103.688 51.01 121.368 63.78 127.428 82.46C128.138 82.46 128.988 82.46 130.018 82.47C130.998 82.46 131.818 82.46 132.508 82.46C138.568 63.78 156.248 51.01 176.628 51.01C202.158 51.01 222.928 71.27 222.928 96.17C222.928 99.69 222.508 103.19 221.678 106.61C250.428 131.12 255.778 150.64 256.388 153.26C257.478 156.65 258.328 160.03 258.918 163.31C261.758 179.01 258.608 194.45 250.048 206.81C246.768 211.55 242.678 215.98 237.898 219.97C233.698 223.46 228.988 226.65 223.898 229.46C205.618 239.55 184.908 242.81 165.258 244.83C163.988 244.94 162.778 245.07 161.568 245.19C160.648 245.28 159.718 245.38 158.798 245.47C156.338 245.85 153.858 246.01 151.458 246.16L150.358 246.23C148.998 246.32 147.638 246.45 146.278 246.57C145.088 246.68 143.898 246.79 142.708 246.88C138.968 247.16 135.138 247.3 131.078 247.3V247.31ZM83.3078 59.18C62.2778 59.18 45.1677 75.78 45.1677 96.18C45.1677 99.8 45.7077 103.39 46.7877 106.85L47.5977 109.46L45.4977 111.2C15.9177 135.71 11.5377 154.97 11.4977 155.16L11.3877 155.59C10.3877 158.7 9.59774 161.79 9.05774 164.77C6.60774 178.32 9.28775 191.6 16.6077 202.16C19.4777 206.29 23.0677 210.18 27.2877 213.71C31.0777 216.86 35.3577 219.76 39.9977 222.32C56.9977 231.7 76.7378 234.79 95.5278 236.72C101.478 237.33 106.688 237.83 111.478 238.22C123.778 239.24 133.228 239.4 142.118 238.74C143.258 238.66 144.398 238.55 145.538 238.45C146.968 238.32 148.398 238.19 149.828 238.09L150.948 238.02C153.198 237.88 155.538 237.73 157.648 237.39L157.908 237.36C158.858 237.27 159.798 237.17 160.748 237.08C161.998 236.95 163.238 236.83 164.488 236.72C183.218 234.79 202.958 231.71 219.958 222.33C224.598 219.77 228.878 216.87 232.668 213.71C236.878 210.19 240.468 206.3 243.338 202.17C250.658 191.61 253.338 178.33 250.888 164.78C250.348 161.8 249.568 158.71 248.558 155.6L248.438 155.15C248.398 154.98 244.018 135.73 214.438 111.21L212.338 109.47L213.148 106.86C214.218 103.4 214.768 99.81 214.768 96.19C214.768 75.79 197.658 59.19 176.628 59.19C158.868 59.19 143.608 70.89 139.528 87.64L138.598 91.43L134.878 90.69C134.478 90.66 133.078 90.62 130.018 90.65C126.868 90.61 125.458 90.65 125.068 90.69L121.348 91.43L120.418 87.64C116.328 70.89 101.068 59.19 83.3177 59.19L83.3078 59.18Z" fill="black"/>
<path d="M203.548 80.89C203.548 80.89 199.568 68.34 203.268 55.68C203.328 55.47 203.608 55.41 203.748 55.58L205.538 57.67C205.538 57.67 209.118 23.07 241.588 3.90002C241.588 3.90002 252.778 8.57002 250.818 19.88C248.858 31.19 223.238 63.83 215.378 70.6C215.378 70.6 216.508 70.73 219.218 70.19C219.468 70.14 219.648 70.42 219.498 70.63C218.148 72.43 213.338 77.97 203.538 80.9L203.548 80.89Z" fill="#EF6600"/>
<path d="M201.249 85.23L200.209 81.95C200.029 81.4 195.949 68.23 199.909 54.7C200.299 53.37 201.389 52.36 202.739 52.07C202.819 52.05 202.899 52.04 202.979 52.03C205.379 41.21 213.559 16.39 239.809 0.900009L241.319 0.0100098L242.939 0.680008C247.699 2.66001 256.199 9.36 254.269 20.48C252.459 30.93 233.279 56.58 222.469 68.43C222.469 68.43 222.479 68.45 222.489 68.46C223.329 69.8 223.259 71.47 222.309 72.73C220.499 75.14 215.139 81.08 204.559 84.24L201.259 85.23H201.249ZM205.409 62.9C204.839 68.27 205.439 73.16 206.039 76.29C208.009 75.46 209.679 74.53 211.079 73.61L207.069 73.13L213.099 67.95C221.229 60.96 245.679 29.05 247.369 19.29C248.459 13.04 244.119 9.42001 241.709 7.93001C212.749 26.11 209.049 57.72 209.019 58.04L208.159 66.11L205.409 62.9Z" fill="#0F0F0F"/>
<path d="M250.777 14.61C249.247 7.10002 241.587 3.90002 241.587 3.90002C239.327 5.23002 237.207 6.65002 235.217 8.11002C235.177 8.26002 229.947 25.29 250.767 14.61H250.777Z" fill="#3FC9B1"/>
<path d="M239.847 21.62C237.527 21.62 235.627 20.98 234.117 19.71C229.387 15.74 231.617 7.95 231.887 7.08L232.227 5.98L233.157 5.3C235.317 3.71 237.557 2.23 239.817 0.889999L241.327 0L242.947 0.680008C243.327 0.840008 252.327 4.7 254.217 13.92L254.747 16.52L252.387 17.73C247.317 20.33 243.167 21.63 239.857 21.63L239.847 21.62ZM238.317 10.2C237.997 11.92 238.027 13.87 238.607 14.36C238.627 14.37 240.177 15.57 246.447 12.81C245.187 10.43 243.107 8.82 241.697 7.94C240.557 8.66 239.427 9.42001 238.307 10.21L238.317 10.2Z" fill="#0F0F0F"/>
<path d="M232.397 23.85L218.227 25.75C217.247 27.19 216.327 28.66 215.447 30.17C214.997 30.95 214.547 31.73 214.117 32.52C213.707 33.27 213.157 34.06 212.877 34.87C213.167 34.96 213.607 34.86 213.917 34.83L215.777 34.69C217.407 34.57 219.047 34.45 220.677 34.32C222.307 34.19 224.067 34.07 225.757 33.94L232.517 50.7C234.467 48.13 236.407 45.48 238.257 42.85L232.417 23.85H232.397Z" fill="#FFB727"/>
<path d="M231.567 57.73L223.457 37.63L214.177 38.33C213.627 38.4 212.757 38.52 211.797 38.2L208.377 37.09L209.577 33.7C209.897 32.81 210.357 32.03 210.727 31.4C210.837 31.21 210.947 31.02 211.057 30.84C211.507 30.03 211.957 29.22 212.427 28.41C213.417 26.72 214.367 25.21 215.337 23.78L216.217 22.5L234.867 19.99L242.087 43.46L241.107 44.86C239.287 47.45 237.327 50.13 235.297 52.82L231.567 57.73ZM228.037 30.27L233.417 43.61C233.747 43.15 234.077 42.7 234.397 42.24L229.927 27.72L220.257 29.02C219.857 29.63 219.457 30.27 219.057 30.94L228.027 30.27H228.037Z" fill="#0F0F0F"/>
<path d="M200.668 90.37C200.668 90.37 200.748 90.01 200.898 89.34C201.048 88.67 201.278 87.68 201.608 86.43C201.948 85.18 202.358 83.67 202.868 81.95C203.128 81.09 203.408 80.17 203.698 79.21C203.988 78.24 204.348 77.25 204.698 76.19C205.378 74.08 206.228 71.83 207.108 69.45C207.548 68.26 208.058 67.05 208.548 65.81C209.048 64.57 209.538 63.3 210.118 62.03C211.258 59.49 212.358 56.84 213.668 54.23C214.308 52.92 214.948 51.59 215.598 50.26C216.288 48.95 216.978 47.63 217.678 46.32C219.038 43.68 220.568 41.11 222.038 38.58C222.408 37.95 222.768 37.31 223.138 36.69C223.498 36.06 223.918 35.46 224.298 34.85C225.078 33.64 225.848 32.44 226.598 31.26C228.058 28.88 229.698 26.7 231.178 24.59C231.928 23.54 232.638 22.51 233.358 21.54C234.108 20.59 234.838 19.66 235.538 18.78C236.938 17.01 238.198 15.38 239.398 13.99C240.618 12.61 241.678 11.41 242.548 10.42C243.418 9.42997 244.118 8.66997 244.588 8.13997C245.058 7.61997 245.318 7.33997 245.318 7.33997C245.318 7.33997 245.088 7.63997 244.668 8.19997C244.238 8.75997 243.628 9.58996 242.818 10.62C242.018 11.65 241.038 12.91 239.918 14.35C239.348 15.06 238.828 15.88 238.228 16.7C237.638 17.53 237.008 18.4 236.358 19.31C235.708 20.22 235.028 21.17 234.328 22.14C233.668 23.14 232.978 24.18 232.268 25.24C230.878 27.38 229.328 29.59 227.918 31.99C226.478 34.37 224.918 36.79 223.518 39.34C222.798 40.6 222.068 41.88 221.338 43.16C220.428 44.69 219.678 46.32 218.788 47.87C218.188 49.01 217.588 50.15 216.998 51.28C216.398 52.49 215.808 53.7 215.208 54.89C213.888 57.48 212.708 60.08 211.538 62.59C210.938 63.84 210.438 65.1 209.888 66.31C209.358 67.53 208.808 68.71 208.328 69.88C207.378 72.23 206.428 74.43 205.648 76.49C204.838 78.55 204.118 80.44 203.498 82.13C202.878 83.81 202.368 85.3 201.948 86.51C201.538 87.73 201.218 88.7 201.008 89.35C200.798 90.01 200.688 90.36 200.688 90.36L200.668 90.37Z" fill="#603913"/>
<path d="M204.008 91.42L197.258 89.61L197.488 88.58C197.648 87.87 197.888 86.83 198.228 85.53C198.598 84.18 199.008 82.67 199.518 80.95L200.348 78.2C200.548 77.54 200.778 76.87 201.008 76.18L201.368 75.1C201.958 73.26 202.678 71.34 203.428 69.3L203.818 68.24C204.118 67.44 204.438 66.64 204.768 65.83L205.608 63.74C206.028 62.7 206.448 61.64 206.928 60.59C207.218 59.93 207.528 59.25 207.828 58.56C208.668 56.64 209.538 54.66 210.548 52.66L212.458 48.74L214.588 44.7C215.758 42.44 217.048 40.22 218.298 38.08L220.118 34.94C220.378 34.49 220.668 34.05 220.948 33.6C221.078 33.4 221.208 33.2 221.338 33L223.658 29.38C224.758 27.58 225.968 25.88 227.138 24.25C227.538 23.69 227.928 23.14 228.308 22.6L229.128 21.45C229.608 20.77 230.078 20.11 230.548 19.47L233.748 15.41C234.788 14.09 235.768 12.84 236.738 11.72L239.918 8.12C240.518 7.43 241.048 6.84 241.478 6.37L242.708 5.01001L248.098 9.46001L246.948 10.98C246.568 11.48 246.108 12.09 245.568 12.79L242.678 16.51C242.328 16.95 242.028 17.38 241.718 17.83C241.508 18.14 241.288 18.45 241.058 18.77L237.208 24.16L235.178 27.21C234.788 27.81 234.358 28.45 233.928 29.1C232.918 30.62 231.878 32.19 230.918 33.81C230.488 34.51 230.078 35.19 229.658 35.87C228.618 37.56 227.538 39.3 226.568 41.07L224.358 44.93C223.898 45.71 223.498 46.48 223.068 47.3C222.668 48.07 222.268 48.84 221.828 49.59L219.488 54.11L218.318 56.48C217.268 58.55 216.298 60.63 215.368 62.64L214.688 64.11C214.318 64.87 214.008 65.6 213.698 66.31C213.488 66.81 213.268 67.3 213.048 67.79L212.498 69.03C212.168 69.78 211.838 70.52 211.538 71.26C211.198 72.11 210.838 72.97 210.488 73.81C209.918 75.18 209.368 76.5 208.888 77.77C208.068 79.85 207.358 81.73 206.738 83.39C206.128 85.04 205.628 86.49 205.218 87.69L203.988 91.46L204.008 91.42Z" fill="#0F0F0F"/>
<path d="M204.038 80.37C203.748 79.43 200.278 67.53 203.888 55.64C203.908 55.58 203.988 55.56 204.028 55.61L205.878 57.78C205.918 57.83 206.008 57.81 206.008 57.75C206.328 55.17 210.758 23.62 240.908 5.79998C240.928 5.78998 240.958 5.78998 240.978 5.79998C241.638 6.08998 251.738 10.67 249.888 21.28C247.998 32.18 223.428 63.54 215.658 70.34C215.608 70.38 215.638 70.46 215.698 70.46C216.118 70.48 217.328 70.46 219.568 69.99C219.698 69.96 219.798 70.1 219.718 70.2C218.758 71.56 214.138 77.39 204.108 80.41C204.068 80.42 204.028 80.41 204.018 80.37H204.038Z" fill="#EF6600"/>
<path d="M207.077 72.04C204.487 65.49 204.027 57.96 203.947 55.99C203.947 55.9 203.817 55.89 203.787 55.97C200.337 67.75 203.747 79.43 204.037 80.36C204.047 80.4 204.087 80.41 204.127 80.4C214.197 77.37 218.817 71.49 219.747 70.17C219.797 70.1 219.717 70.03 219.647 70.07C213.777 73.5 207.667 72.19 207.127 72.07C207.107 72.07 207.087 72.05 207.077 72.02V72.04Z" fill="#FFB300"/>
<path d="M249.848 16.1C248.388 9.15004 241.518 6.03004 240.988 5.79004C240.968 5.79004 240.948 5.79004 240.928 5.79004C238.758 7.07004 236.718 8.43004 234.798 9.85004C234.798 9.85004 234.788 9.85003 234.778 9.87003C234.648 10.3 229.868 26.39 249.798 16.19C249.828 16.17 249.848 16.13 249.838 16.1H249.848Z" fill="#3FC9B1"/>
<path d="M218.769 37.94L227.799 56.55C227.819 56.6 227.889 56.61 227.929 56.57C229.759 54.28 231.649 51.84 233.509 49.34C233.519 49.32 233.529 49.29 233.519 49.27L227.909 31.03C227.909 31.03 227.859 30.97 227.829 30.98L214.729 32.74" fill="#3FC9B1"/>
<path d="M231.979 25.13L218.339 26.96C218.339 26.96 218.299 26.98 218.289 26.99C216.239 29.99 214.489 32.99 213.059 35.86L225.549 34.91C225.549 34.91 225.619 34.93 225.629 34.96L232.109 51.03C232.129 51.09 232.209 51.1 232.239 51.05C234.089 48.6 235.939 46.09 237.699 43.58C237.709 43.56 237.719 43.54 237.709 43.51L232.069 25.19C232.069 25.19 232.019 25.13 231.989 25.14L231.979 25.13Z" fill="#FFB727"/>
<path d="M201.268 89.6201C201.268 89.6201 201.348 89.2701 201.488 88.6201C201.638 87.9701 201.858 87.0101 202.178 85.8001C202.508 84.5901 202.898 83.1301 203.398 81.4501C203.648 80.6201 203.918 79.7301 204.198 78.7901C204.478 77.8501 204.828 76.8801 205.168 75.8601C205.828 73.8101 206.658 71.6401 207.508 69.3201C207.938 68.1601 208.428 67.0001 208.908 65.7901C209.398 64.5901 209.868 63.3601 210.428 62.1301C211.528 59.6701 212.598 57.1001 213.868 54.5601C214.488 53.2901 215.118 52.0001 215.738 50.7101C216.408 49.4401 217.078 48.1601 217.748 46.8901C219.068 44.3301 220.548 41.8401 221.978 39.3801C222.338 38.7701 222.688 38.1501 223.048 37.5401C223.398 36.9301 223.798 36.3501 224.168 35.7601C224.918 34.5801 225.668 33.4201 226.398 32.2801C227.818 29.9701 229.408 27.8601 230.838 25.8101C231.568 24.8001 232.248 23.8001 232.958 22.8501C233.688 21.9201 234.398 21.0301 235.068 20.1701C236.428 18.4601 237.648 16.8701 238.808 15.5201C239.988 14.1801 241.018 13.0201 241.858 12.0601C242.698 11.1001 243.378 10.3601 243.838 9.85007C244.298 9.34007 244.538 9.07007 244.538 9.07007C244.538 9.07007 244.318 9.36007 243.908 9.90007C243.488 10.4401 242.898 11.2401 242.118 12.2401C241.338 13.2401 240.398 14.4601 239.308 15.8601C238.758 16.5501 238.248 17.3401 237.668 18.1401C237.088 18.9401 236.488 19.7901 235.858 20.6701C235.228 21.5501 234.568 22.4701 233.888 23.4201C233.248 24.3901 232.578 25.4001 231.888 26.4301C230.538 28.5101 229.038 30.6501 227.668 32.9701C226.268 35.2801 224.768 37.6201 223.398 40.1001C222.698 41.3301 221.988 42.5601 221.278 43.8001C220.428 45.2301 219.728 46.7401 218.908 48.1901C218.508 48.9201 218.108 49.6501 217.708 50.3901C216.908 52.0001 216.118 53.6001 215.338 55.1901C214.058 57.7001 212.918 60.2301 211.778 62.6601C211.198 63.8701 210.708 65.0901 210.178 66.2701C209.668 67.4501 209.138 68.6001 208.668 69.7301C207.748 72.0101 206.818 74.1401 206.068 76.1401C205.278 78.1301 204.588 79.9701 203.978 81.6001C203.368 83.2301 202.878 84.6701 202.478 85.8501C202.088 87.0401 201.778 87.9701 201.568 88.6101C201.368 89.2501 201.258 89.5901 201.258 89.5901L201.268 89.6201Z" fill="#603913"/>
<path d="M216.938 35.5701L213.038 35.8601C211.988 38.0001 211.038 40.1601 210.178 42.3501L220.578 41.7701L220.728 39.3401" fill="#3FC9B1"/>
<path d="M43.2474 116.48C40.7074 116.48 38.2674 115.66 36.2674 114.13C33.8574 112.29 32.3274 109.53 32.0674 106.57C31.6374 101.6 31.4874 93.78 33.2374 84.71C34.1474 79.98 38.1074 76.46 43.0774 75.94C58.5974 74.32 140.077 66.71 219.967 75.88C225.287 76.49 229.437 80.67 229.847 85.81C230.567 94.98 230.067 101.82 228.357 106.12C226.727 110.23 222.657 112.91 218.007 112.94C202.997 113.06 70.5774 114.14 44.2874 116.44C43.9374 116.47 43.5974 116.48 43.2574 116.48H43.2474ZM45.5674 88.58C44.5574 94.51 44.4974 99.72 44.7074 103.54C73.4874 101.37 190.317 100.34 216.787 100.13C217.247 97.98 217.517 94.13 217.167 88.47C140.857 79.9 63.2974 86.78 45.5674 88.58Z" fill="black"/>
<mask id="mask0_908_915" style="mask-type:luminance" maskUnits="userSpaceOnUse" x="38" y="77" width="186" height="33">
<path d="M43.5781 81.96C60.6581 80.17 140.468 72.81 219.428 81.89C221.608 82.14 223.278 83.77 223.448 85.77C223.828 90.54 224.188 99.08 222.348 103.5C221.688 105.1 219.978 106.13 218.108 106.14C200.258 106.28 69.4081 107.36 43.5081 109.68C40.9481 109.91 38.6981 108.18 38.4881 105.84C38.0881 101.36 37.9081 93.98 39.5781 85.39C39.9281 83.57 41.5681 82.17 43.5881 81.96H43.5781Z" fill="white"/>
</mask>
<g mask="url(#mask0_908_915)">
<path d="M159.159 68.87H107.389L120.329 89.31L133.279 109.75L146.219 89.31L159.159 68.87Z" fill="#63D3B3"/>
<path d="M210.928 68.87H159.158L172.098 89.31L185.038 109.75L197.978 89.31L210.928 68.87Z" fill="#63D3B3"/>
<path d="M107.389 68.87H55.6289L68.5689 89.31L81.5089 109.75L94.4489 89.31L107.389 68.87Z" fill="#63D3B3"/>
<path d="M55.6283 68.87L42.6783 89.31L29.7383 109.75H55.6283H81.5083L68.5683 89.31L55.6283 68.87Z" fill="#EF6600"/>
<path d="M107.388 68.87L94.4478 89.31L81.5078 109.75H107.388H133.278L120.328 89.31L107.388 68.87Z" fill="#EF6600"/>
<path d="M159.157 68.87L146.217 89.31L133.277 109.75H159.157H185.037L172.097 89.31L159.157 68.87Z" fill="#EF6600"/>
<path d="M223.869 89.31L210.929 68.87L197.979 89.31L185.039 109.75H210.929H236.729V109.62L223.869 89.31Z" fill="#EF6600"/>
<path d="M60.368 95.45C60.368 98.02 58.088 100.1 55.268 100.1C52.448 100.1 50.168 98.02 50.168 95.45C50.168 92.88 52.448 90.8 55.268 90.8C58.088 90.8 60.368 92.88 60.368 95.45Z" fill="#F8C054"/>
<path d="M112.489 95.45C112.489 98.02 110.209 100.1 107.389 100.1C104.569 100.1 102.289 98.02 102.289 95.45C102.289 92.88 104.569 90.8 107.389 90.8C110.209 90.8 112.489 92.88 112.489 95.45Z" fill="#F8C054"/>
<path d="M164.608 95.45C164.608 98.02 162.328 100.1 159.508 100.1C156.688 100.1 154.408 98.02 154.408 95.45C154.408 92.88 156.688 90.8 159.508 90.8C162.328 90.8 164.608 92.88 164.608 95.45Z" fill="#F8C054"/>
<path d="M216.727 95.45C216.727 98.02 214.447 100.1 211.627 100.1C208.807 100.1 206.527 98.02 206.527 95.45C206.527 92.88 208.807 90.8 211.627 90.8C214.447 90.8 216.727 92.88 216.727 95.45Z" fill="#F8C054"/>
<path d="M92.4279 77.16H70.5879L76.0479 85.79L81.5079 94.42L86.9679 85.79L92.4279 77.16Z" fill="#EF6600"/>
<path d="M144.198 77.16H122.348L127.808 85.79L133.278 94.42L138.738 85.79L144.198 77.16Z" fill="#EF6600"/>
<path d="M195.969 77.16H174.119L179.579 85.79L185.039 94.42L190.499 85.79L195.969 77.16Z" fill="#EF6600"/>
<path d="M225.878 77.16H236.728V68.87H210.928L223.868 89.31L236.728 109.62V94.29L231.338 85.79L225.878 77.16Z" fill="#63D3B3"/>
<path d="M29.7383 68.87V77.16H40.6683L35.2083 85.79L29.7383 94.42V109.75L42.6783 89.31L55.6283 68.87H29.7383Z" fill="#63D3B3"/>
<path d="M40.6683 77.16H29.7383V94.42L35.2083 85.79L40.6683 77.16Z" fill="#F96C41"/>
</g>
<path d="M86.9574 137.13C95.2574 136.23 103.497 134.86 111.627 132.96C113.707 132.47 115.137 129.98 114.477 127.94C113.777 125.77 111.687 124.57 109.457 125.09C103.337 126.52 97.1673 127.66 90.9373 128.5L92.0274 128.35C90.3374 128.58 88.6474 128.78 86.9574 128.96C85.8474 129.08 84.8874 129.34 84.0674 130.16C83.3574 130.87 82.8274 132.03 82.8674 133.05C82.9574 135.06 84.6774 137.38 86.9474 137.13H86.9574Z" fill="black"/>
<path d="M172.998 128.96C171.308 128.78 169.618 128.57 167.928 128.35L169.018 128.5C162.798 127.66 156.618 126.52 150.498 125.09C148.428 124.6 145.978 125.73 145.478 127.94C144.998 130.03 146.108 132.44 148.328 132.96C156.458 134.86 164.698 136.23 172.998 137.13C173.968 137.24 175.218 136.6 175.888 135.93C176.598 135.22 177.128 134.06 177.088 133.04C177.048 132.02 176.698 130.89 175.888 130.15C175.048 129.37 174.138 129.08 172.998 128.95V128.96Z" fill="black"/>
<path d="M103.328 157.25C103.398 159.39 104.708 161.34 106.458 162.56C108.208 163.78 110.308 164.39 112.388 164.89C125.238 168.02 138.828 168.12 151.688 165.02C155.178 164.18 158.788 163.01 161.248 160.38C163.708 157.75 164.508 153.27 162.098 150.61C160.578 148.92 158.128 148.32 155.858 148.46C153.588 148.6 151.408 149.38 149.238 150.06C137.978 153.6 125.598 154.57 114.448 150.71C114.448 150.71 103.028 148.31 103.328 157.25Z" fill="white"/>
<path d="M100.408 157.25C100.578 160.49 102.298 163.15 104.898 165.01C107.228 166.69 110.198 167.39 112.958 168.02C118.848 169.35 124.898 170.09 130.938 170.2C137.068 170.31 143.218 169.73 149.238 168.55C154.578 167.5 160.568 166.06 164.068 161.53C167.518 157.07 167.408 149.85 162.038 146.89C156.438 143.8 150.358 146.87 144.778 148.31C143.368 148.67 141.938 149 140.508 149.27C139.858 149.39 139.198 149.51 138.548 149.61C138.198 149.67 137.848 149.72 137.498 149.77C137.418 149.78 136.858 149.86 137.228 149.81C137.598 149.76 136.818 149.86 136.828 149.86C134.028 150.2 131.208 150.34 128.388 150.26C126.938 150.22 125.498 150.12 124.058 149.95C123.878 149.93 123.098 149.83 123.658 149.91C123.308 149.86 122.968 149.81 122.618 149.75C121.888 149.63 121.148 149.49 120.428 149.34C119.018 149.04 117.608 148.67 116.238 148.23C115.838 148.1 115.448 147.94 115.028 147.86C109.608 146.77 102.418 147.94 100.768 154.12C100.498 155.13 100.398 156.21 100.428 157.25C100.468 158.77 101.738 160.24 103.348 160.17C104.958 160.1 106.308 158.89 106.268 157.25C106.268 156.85 106.278 156.47 106.298 156.07C106.318 155.63 106.158 156.81 106.298 156.09C106.338 155.9 106.378 155.72 106.428 155.53C106.468 155.38 106.538 155.23 106.578 155.08C106.668 154.75 106.268 155.71 106.438 155.41C106.468 155.35 106.488 155.29 106.518 155.24C106.598 155.09 106.678 154.95 106.768 154.81C106.798 154.76 106.838 154.71 106.868 154.66C107.108 154.27 106.738 154.85 106.658 154.91C106.858 154.74 107.038 154.5 107.218 154.32C107.658 153.88 106.788 154.6 107.078 154.41C107.208 154.33 107.328 154.24 107.458 154.16C107.688 154.02 107.928 153.91 108.168 153.78C108.488 153.61 107.398 154.06 108.008 153.86C108.158 153.81 108.298 153.76 108.448 153.71C108.708 153.63 108.968 153.56 109.228 153.51C109.378 153.48 109.528 153.45 109.678 153.42C109.738 153.42 109.788 153.4 109.848 153.39C110.318 153.3 109.528 153.44 109.468 153.44C110.018 153.42 110.558 153.34 111.108 153.33C111.588 153.33 112.078 153.34 112.558 153.38C112.748 153.39 112.938 153.41 113.128 153.43C113.228 153.44 113.318 153.45 113.418 153.46C113.918 153.51 112.598 153.34 112.968 153.4C113.828 153.54 114.608 153.83 115.448 154.09C118.138 154.89 120.888 155.4 123.678 155.74C129.108 156.41 134.588 156.11 139.978 155.26C142.558 154.85 145.108 154.29 147.628 153.59C150.228 152.87 152.768 151.87 155.438 151.41C155.898 151.33 155.008 151.42 155.478 151.41C155.618 151.41 155.748 151.39 155.888 151.38C156.178 151.36 156.478 151.36 156.778 151.36C157.038 151.36 157.298 151.39 157.558 151.41C157.908 151.43 157.338 151.4 157.338 151.38C157.338 151.38 157.828 151.48 157.878 151.49C158.128 151.55 158.378 151.62 158.618 151.7C158.728 151.74 158.918 151.78 159.028 151.85C158.958 151.81 158.468 151.56 158.928 151.83C159.148 151.95 159.358 152.1 159.578 152.22C159.888 152.38 159.388 152.09 159.428 152.09C159.488 152.08 159.778 152.4 159.838 152.45C159.938 152.55 160.028 152.66 160.128 152.76C160.348 152.97 159.988 152.6 159.988 152.56C159.988 152.68 160.328 153.12 160.398 153.23C160.648 153.67 160.218 152.67 160.448 153.35C160.528 153.6 160.578 153.86 160.648 154.11C160.758 154.49 160.608 153.52 160.628 153.92C160.628 154.02 160.648 154.12 160.648 154.22C160.668 154.49 160.668 154.75 160.648 155.02C160.648 155.12 160.628 155.22 160.628 155.32C160.618 155.72 160.738 154.75 160.658 155.15C160.598 155.42 160.558 155.69 160.488 155.95C160.428 156.18 160.348 156.41 160.268 156.64C160.108 157.15 160.318 156.58 160.328 156.52C160.308 156.63 160.198 156.81 160.148 156.9C160.058 157.09 159.958 157.27 159.848 157.45C159.778 157.57 159.708 157.69 159.628 157.8C159.578 157.88 159.258 158.38 159.498 158.01C159.708 157.69 159.298 158.23 159.198 158.34C159.008 158.54 158.818 158.73 158.618 158.91C158.418 159.09 158.208 159.27 157.998 159.44C158.528 159.01 157.688 159.64 157.558 159.72C157.098 160.01 156.628 160.28 156.138 160.52C155.898 160.64 155.638 160.75 155.398 160.87C156.018 160.57 155.048 161 154.898 161.06C153.788 161.47 152.648 161.8 151.498 162.09C148.858 162.75 146.188 163.27 143.488 163.65C143.348 163.67 143.218 163.69 143.078 163.71C143.608 163.63 143.138 163.71 143.038 163.71C142.718 163.75 142.398 163.79 142.078 163.83C141.348 163.92 140.618 163.99 139.888 164.06C138.518 164.18 137.138 164.27 135.768 164.33C133.058 164.44 130.348 164.42 127.648 164.26C126.268 164.18 124.898 164.07 123.528 163.93C122.838 163.86 122.158 163.77 121.478 163.69C121.128 163.65 121.518 163.69 121.568 163.7C121.388 163.67 121.208 163.65 121.018 163.62C120.658 163.57 120.288 163.51 119.928 163.45C117.258 163.03 114.588 162.5 111.978 161.79C111.378 161.63 110.788 161.45 110.208 161.24C110.028 161.17 109.348 160.89 109.878 161.13C109.578 161 109.288 160.86 108.998 160.7C108.708 160.54 108.428 160.38 108.158 160.2C108.058 160.13 107.968 160.06 107.868 160C107.528 159.78 108.218 160.33 107.938 160.05C107.758 159.87 107.548 159.71 107.368 159.52C107.268 159.41 107.168 159.3 107.068 159.19C106.768 158.86 107.038 159.25 107.108 159.26C106.998 159.25 106.688 158.61 106.638 158.52C106.588 158.43 106.548 158.32 106.488 158.23C106.278 157.88 106.638 158.71 106.528 158.32C106.458 158.08 106.388 157.83 106.308 157.59C106.258 157.45 106.078 157.06 106.308 157.72C106.268 157.6 106.278 157.39 106.278 157.28C106.198 155.76 104.998 154.29 103.358 154.36C101.848 154.43 100.358 155.64 100.438 157.28L100.408 157.25Z" fill="black"/>
<path d="M116.778 153.88C116.748 155.46 116.638 157.04 116.428 158.61L116.528 157.83C116.398 158.81 116.228 159.78 116.018 160.75C115.858 161.52 115.908 162.3 116.308 163C116.658 163.6 117.358 164.18 118.048 164.34C118.798 164.51 119.628 164.47 120.298 164.05C120.918 163.65 121.478 163.05 121.638 162.31C122.218 159.54 122.558 156.71 122.608 153.88C122.638 152.35 121.248 150.89 119.688 150.96C118.128 151.03 116.798 152.24 116.768 153.88H116.778Z" fill="black"/>
<path d="M132.087 156.19C132.217 156.68 132.307 157.18 132.377 157.68L132.277 156.9C132.647 159.74 132.347 162.62 133.037 165.42C133.407 166.9 135.147 167.93 136.627 167.46C138.167 166.96 139.057 165.46 138.667 163.87C138.557 163.43 138.477 162.99 138.407 162.55L138.507 163.33C138.127 160.44 138.447 157.5 137.707 154.64C137.327 153.16 135.607 152.12 134.117 152.6C132.627 153.08 131.667 154.6 132.077 156.19H132.087Z" fill="black"/>
<path d="M145.648 153.62C146.718 156.62 147.708 159.64 148.608 162.7C149.038 164.16 150.678 165.23 152.198 164.74C153.678 164.26 154.698 162.72 154.238 161.15C153.338 158.1 152.358 155.07 151.278 152.07C151.018 151.35 150.618 150.73 149.938 150.33C149.318 149.96 148.388 149.81 147.688 150.04C146.278 150.5 145.098 152.09 145.648 153.63V153.62Z" fill="black"/>
</svg>
