<svg width="752" height="858" viewBox="0 0 752 858" fill="none" xmlns="http://www.w3.org/2000/svg">
<g clip-path="url(#clip0_979_738)">
<path d="M626.47 708.795L142.904 661.977V505.409H631.632L626.47 708.795Z" fill="#D7D7D7"/>
<path d="M141.891 536.215C130.995 531.804 120.334 526.734 109.977 520.864C96.3144 513.084 83.2925 504.124 71.3501 493.913C58.8342 483.146 47.5665 470.851 38.323 457.098C14.3707 421.533 7.18502 378.64 14.5731 336.65C16.2936 326.855 18.7226 317.2 21.6913 307.753C21.6913 307.753 33.4313 247.286 124.079 169.905C120.705 158.687 118.884 146.844 118.884 134.549C118.884 66.9618 173.569 12.1907 241.04 12.1907C298.762 12.1907 347.071 52.3052 359.857 106.173C361.915 105.757 372.002 105.826 376.016 105.896C380.064 105.861 390.151 105.757 392.176 106.173C404.961 52.2705 453.271 12.1907 510.992 12.1907C578.464 12.1907 633.149 66.9618 633.149 134.549C633.149 146.844 631.327 158.722 627.954 169.905C718.635 247.252 730.341 307.753 730.341 307.753C733.31 317.235 735.739 326.89 737.459 336.65C744.847 378.64 737.662 421.533 713.709 457.098C704.466 470.816 693.198 483.111 680.682 493.913C675.116 498.706 669.246 503.082 663.308 507.354C653.761 514.265 644.45 521.524 634.802 528.262L619.014 536.215" fill="#D7D7D7"/>
<path d="M141.891 548.371C140.44 548.371 138.99 548.093 137.573 547.538C125.597 542.675 114.7 537.431 104.276 531.492C89.5672 523.122 75.9718 513.64 63.827 503.255C49.9616 491.308 38.1205 478.11 28.6408 464.009C3.8451 427.229 -5.26351 381.21 2.93424 334.462C4.65475 324.702 7.11745 314.63 10.2549 304.523C12.0091 296.709 27.4937 238.569 110.652 165.598C108.257 155.422 107.042 145.003 107.042 134.514C107.042 60.3281 167.159 0 241.006 0C299.976 0 351.119 38.0307 368.628 93.6701C370.686 93.6701 373.149 93.6701 376.117 93.7048C378.951 93.6701 381.313 93.6701 383.337 93.6701C400.879 38.0307 452.022 0 510.992 0C584.839 0 644.956 60.3281 644.956 134.514C644.956 145.003 643.742 155.422 641.346 165.598C724.538 238.603 739.989 296.744 741.744 304.523C744.881 314.63 747.344 324.702 749.064 334.462C757.296 381.21 748.187 427.229 723.391 464.009C713.912 478.11 702.07 491.308 688.239 503.221C682.065 508.535 675.622 513.258 670.089 517.287C666.311 520.031 662.566 522.809 658.821 525.588C653.188 529.79 647.351 534.166 641.414 538.299L639.997 539.133L624.209 547.086C618.339 550.038 611.288 547.538 608.421 541.529C605.553 535.486 607.982 528.227 613.818 525.275L628.864 517.704C634.262 513.918 639.693 509.854 644.99 505.93C648.836 503.082 652.648 500.199 656.528 497.421C662.937 492.801 668.2 488.842 673.125 484.57C685.338 474.046 695.728 462.481 704.027 450.186C725.213 418.72 732.972 379.161 725.854 338.803C724.302 329.912 722.042 320.708 719.141 311.435L718.803 310.08C718.702 309.594 706.018 252.218 620.464 179.213L614.392 174.038L616.719 166.258C619.823 155.943 621.409 145.281 621.409 134.479C621.409 73.6997 571.919 24.2771 511.06 24.2771C459.68 24.2771 415.554 59.1125 403.713 108.987L401.048 120.274L390.286 118.086C389.038 117.982 384.45 117.843 376.219 117.982C367.717 117.878 363.129 117.982 361.881 118.086L351.119 120.274L348.454 108.987C336.647 59.1125 292.487 24.2771 241.107 24.2771C180.282 24.2771 130.758 73.6997 130.758 134.479C130.758 145.246 132.344 155.943 135.448 166.258L137.775 174.038L131.703 179.213C46.1495 252.218 33.4649 309.559 33.33 310.15L32.9926 311.435C30.0914 320.708 27.8311 329.912 26.2793 338.768C19.1948 379.126 26.9202 418.685 48.1062 450.151C56.4051 462.446 66.7957 474.046 79.008 484.57C89.9721 493.947 102.353 502.595 115.746 510.202C125.259 515.62 135.245 520.413 146.31 524.893C152.383 527.359 155.352 534.409 152.956 540.661C151.135 545.454 146.682 548.371 141.959 548.371H141.891ZM389.881 118.086C389.881 118.086 389.881 118.086 389.915 118.086H389.881ZM362.083 118.086H362.05C362.05 118.086 362.05 118.086 362.083 118.086Z" fill="#494949"/>
<path d="M130.118 648.084C125.125 716.574 132.041 785.898 132.041 785.898L112.07 808.786C101.072 821.393 108.291 841.537 124.585 843.76C207.035 854.874 379.424 817.295 379.424 817.295C379.424 817.295 557.818 856.194 638.446 843.135C652.918 840.808 659.025 822.817 649.275 811.634L626.841 785.898C626.841 785.898 628.19 732.377 627.212 685.386V655.17" fill="#D7D7D7"/>
<path d="M160.547 858C146.918 858 134.267 857.34 123.066 855.847C111.158 854.249 101.206 846.052 97.0226 834.452C92.8394 822.852 95.2346 809.897 103.264 800.693L119.76 781.765C118.242 763.983 114.025 705.773 118.31 647.181C118.782 640.478 124.483 635.477 130.961 635.963C137.472 636.45 142.33 642.284 141.857 648.988C136.999 715.637 143.679 783.988 143.746 784.648L144.286 789.996L120.84 816.913C117.669 820.525 118.613 824.45 119.153 825.978C119.693 827.471 121.447 831.083 126.103 831.708C205.584 842.44 375.274 805.764 376.96 805.382L379.423 804.861L381.886 805.382C383.64 805.764 559.099 843.691 636.623 831.118C640.098 830.562 641.414 827.819 641.819 826.672C642.223 825.492 642.898 822.505 640.503 819.726L614.931 790.413L615.066 785.585C615.066 785.064 616.416 731.821 615.437 685.664V655.17C615.437 648.467 620.734 643.014 627.245 643.014C633.756 643.014 639.052 648.467 639.052 655.17V685.386C639.862 723.729 639.086 767.074 638.782 781.348L658.079 803.507C665.501 812.016 667.795 824.033 664.084 834.834C660.373 845.601 651.265 853.381 640.301 855.152C562.709 867.725 402.127 834.556 379.423 829.694C360.329 833.758 243.266 857.965 160.513 857.965L160.547 858Z" fill="#494949"/>
<g style="mix-blend-mode:multiply" opacity="0.6">
<path d="M446.355 111.036C444.635 93.2185 433.266 76.4781 420.278 65.121C402.398 49.5267 383.708 56.1603 366.503 69.2887C353.987 78.8398 326.83 97.8725 337.052 117.253C345.553 133.403 357.934 146.045 370.99 158.27C380.368 167.057 390.219 176.4 403.815 171.815C422.943 165.355 442.172 143.996 445.883 123.782C446.659 119.51 446.794 115.238 446.389 111.001L446.355 111.036Z" fill="#B2B6B5"/>
</g>
<path d="M434.92 98.6714C433.199 80.8543 421.83 64.1138 408.842 52.7567C390.962 37.1624 372.273 43.7961 355.068 56.9245C342.518 66.4756 315.395 85.5083 325.616 104.923C334.118 121.073 346.499 133.715 359.555 145.941C368.933 154.728 378.784 164.07 392.379 159.486C411.507 153.026 430.737 131.666 434.414 111.452C435.19 107.181 435.325 102.909 434.92 98.6714Z" fill="#999999"/>
<path d="M385.328 161.709C374.937 161.709 366.875 154.137 359.082 146.844L358.913 146.67C347.072 135.591 333.713 122.358 324.773 105.375C314.686 86.2377 339.245 67.6565 352.436 57.6886L354.527 56.1257C366.369 47.0956 376.86 42.7195 386.61 42.7195C394.74 42.7195 402.432 45.8453 409.516 52.0274C424.495 65.1211 434.38 82.5215 435.931 98.602C436.37 103.048 436.201 107.424 435.425 111.661C431.748 131.875 412.586 153.79 392.716 160.458C390.253 161.292 387.757 161.709 385.362 161.709H385.328ZM386.576 44.7339C377.231 44.7339 367.111 49.0058 355.641 57.7581L353.549 59.321C340.831 68.9415 317.182 86.8281 326.459 104.437C335.231 121.143 348.489 134.236 360.195 145.211L360.364 145.385C367.887 152.435 375.646 159.729 385.294 159.729C387.487 159.729 389.781 159.347 392.041 158.583C411.304 152.088 429.859 130.902 433.435 111.314C434.177 107.285 434.346 103.082 433.941 98.8104C432.423 83.2161 422.808 66.302 408.201 53.5556C401.487 47.686 394.234 44.7339 386.576 44.7339Z" fill="#626262"/>
<path d="M385.328 165.182C373.621 165.182 364.681 156.812 356.821 149.448C344.609 137.987 330.98 124.511 321.804 107.076C310.333 85.2652 336.411 65.5379 350.411 54.9101L352.503 53.3472C364.918 43.8656 376.084 39.2463 386.61 39.2463C395.549 39.2463 403.983 42.65 411.675 49.3531C427.328 63.0025 437.652 81.2711 439.271 98.2547C439.743 103.013 439.541 107.736 438.697 112.286C434.818 133.611 414.644 156.707 393.728 163.758C390.928 164.696 388.094 165.182 385.328 165.182ZM386.576 48.207C377.973 48.207 368.527 52.2358 357.664 60.5366L355.573 62.1342C343.698 71.1296 321.601 87.87 329.462 102.804C337.997 119.024 350.985 131.874 362.489 142.641C369.708 149.414 376.995 156.221 385.328 156.221C387.183 156.221 389.106 155.909 391.029 155.249C409.246 149.101 426.789 129.096 430.162 110.654C430.837 106.937 431.006 103.082 430.601 99.1577C429.184 84.4317 420.008 68.3858 406.041 56.2299C399.969 50.916 393.424 48.2417 386.576 48.2417V48.207Z" fill="#565656"/>
<g style="mix-blend-mode:multiply" opacity="0.4">
<path d="M434.92 98.6714C433.199 80.8543 421.83 64.1138 408.842 52.7567C390.962 37.1624 372.273 43.7961 355.068 56.9245C342.518 66.4756 315.395 85.5083 325.616 104.923C334.118 121.073 346.499 133.715 359.555 145.941C368.933 154.728 378.784 164.07 392.379 159.486C411.507 153.026 430.737 131.666 434.414 111.452C435.19 107.181 435.325 102.909 434.92 98.6714ZM395.685 114.196C395.044 122.949 394.133 142.433 382.9 144.378C374.466 145.836 365.02 136.528 359.453 131.249C350.378 122.705 340.325 114.335 333.646 103.569C330.846 99.0187 328.686 94.712 330.339 89.3287C331.723 84.8136 336.007 81.1669 339.347 78.18C345.689 72.5535 352.099 66.8923 358.981 61.9952C365.559 55.7089 373.15 49.1794 382.225 49.8046C390.996 50.395 392.818 61.8563 393.897 68.9067C396.158 83.737 396.799 99.2618 395.685 114.231V114.196Z" fill="#999999"/>
</g>
<g style="mix-blend-mode:multiply" opacity="0.4">
<path d="M330.541 97.4557C329.866 95.4413 329.563 93.3922 329.9 91.1347C327.91 90.5095 325.953 90.0233 324.368 89.8496C323.288 93.2533 323.052 96.7264 323.861 100.234C326.088 99.2965 328.315 98.3588 330.541 97.4557Z" fill="#999999"/>
</g>
<g style="mix-blend-mode:multiply" opacity="0.4">
<path d="M385.058 143.753C384.384 144.031 383.675 144.274 382.933 144.378C382.09 144.517 381.246 144.552 380.369 144.482C380.774 149.865 381.415 155.214 382.494 160.458C385.564 160.91 388.87 160.667 392.379 159.486C392.716 159.382 393.054 159.208 393.391 159.104C390.355 154.137 387.487 149.032 385.058 143.753Z" fill="#999999"/>
</g>
<g style="mix-blend-mode:multiply" opacity="0.4">
<path d="M395.651 84.5706C396.393 94.4343 396.427 104.437 395.685 114.196C395.314 118.955 394.875 126.943 392.75 133.542C398.89 130.346 405.806 128.193 411.608 125.345C419.469 121.49 426.823 116.732 434.278 112.078C434.312 111.869 434.38 111.661 434.413 111.487C435.189 107.215 435.324 102.943 434.919 98.7062C433.199 80.8891 421.83 64.1487 408.842 52.7916C402.938 47.6166 396.933 44.9076 390.895 44.0393C393.087 56.2647 396.09 68.108 395.752 80.8544C395.752 82.1047 395.651 83.355 395.617 84.5706H395.651Z" fill="#999999"/>
</g>
<g style="mix-blend-mode:screen" opacity="0.4">
<path d="M389.95 54.9796C392.345 59.0778 393.256 64.7043 393.897 68.872C396.157 83.7023 396.798 99.2271 395.685 114.196C395.044 122.949 394.133 142.433 382.899 144.378C382.596 144.447 382.292 144.447 381.988 144.447C385.328 145.211 388.668 145.003 391.603 143.023C401.015 136.772 401.589 122.358 402.061 112.078C402.601 99.8523 403.174 87.6269 400.948 75.471C399.362 66.8576 397.338 58.5221 389.95 54.9448V54.9796Z" fill="white"/>
</g>
<g style="mix-blend-mode:multiply" opacity="0.4">
<path d="M351.727 78.4232C350.951 77.798 350.108 77.9717 349.365 78.4232C348.488 78.701 347.78 79.4999 347.341 80.3681C346.7 81.7227 346.194 84.258 347.881 84.9874C348.725 85.3347 350.074 84.6053 350.647 84.0149C351.558 83.0424 352.233 82.07 352.503 80.7154C352.638 79.9861 352.334 78.8747 351.761 78.3885L351.727 78.4232Z" fill="#999999"/>
</g>
<g style="mix-blend-mode:multiply" opacity="0.4">
<path d="M355.909 87.3489C355.909 87.3489 355.707 87.21 355.639 87.1406C354.492 86.307 352.367 88.7035 353.143 89.8496C353.21 89.9538 353.278 90.058 353.345 90.1622C354.492 91.8293 357.292 88.3562 355.943 87.3837L355.909 87.3489Z" fill="#999999"/>
</g>
<g style="mix-blend-mode:multiply" opacity="0.4">
<path d="M366.536 106.382C366.536 106.382 366.401 106.243 366.266 106.173C365.996 105.965 365.456 106.555 365.625 106.833C365.524 107.007 365.524 107.18 365.726 107.215C365.827 107.215 365.929 107.215 366.064 107.215C366.367 107.215 366.806 106.625 366.536 106.382Z" fill="#999999"/>
</g>
<g style="mix-blend-mode:multiply" opacity="0.4">
<path d="M415.859 114.057C415.859 114.057 415.69 114.057 415.589 114.092C415.555 114.092 415.488 114.127 415.454 114.162C415.42 114.162 415.387 114.196 415.319 114.266C415.319 114.266 415.319 114.266 415.286 114.266C415.218 114.301 415.184 114.405 415.117 114.474C415.117 114.474 415.117 114.544 415.083 114.578C415.083 114.648 415.016 114.717 415.016 114.787C415.016 114.787 415.016 114.822 415.016 114.856C415.016 114.96 415.016 115.065 415.184 115.134H415.252C415.252 115.134 415.454 115.134 415.555 115.03C415.994 114.96 416.466 114.023 415.859 114.023V114.057Z" fill="#999999"/>
</g>
<g style="mix-blend-mode:multiply" opacity="0.4">
<path d="M419.197 92.6281C419.265 92.0029 419.164 91.4125 418.86 90.9957C418.691 90.7873 418.523 90.7526 418.253 90.8221C417.949 90.9263 417.713 91.0999 417.477 91.3083C417.51 91.0305 417.241 90.8915 416.937 91.2041C416.431 91.7251 416.229 92.5934 416.229 93.288C416.229 93.9479 416.431 95.1635 417.308 95.1287C418.253 95.094 418.894 94.1563 419.096 93.1143C419.164 92.9407 419.197 92.767 419.164 92.6281H419.197Z" fill="#999999"/>
</g>
<g style="mix-blend-mode:multiply" opacity="0.4">
<path d="M423.043 106.312C422.841 105.757 422.166 106.521 422.031 106.799C421.289 107.597 421.863 108.535 422.672 107.597C423.01 107.215 423.246 106.799 423.043 106.278V106.312Z" fill="#999999"/>
</g>
<g style="mix-blend-mode:multiply" opacity="0.4">
<path d="M420.749 125.275C420.243 125.137 419.771 125.275 419.332 125.692C418.421 125.623 417.915 126.526 417.645 127.255C417.342 128.054 417.105 129.27 417.814 129.86C418.657 130.624 419.905 129.652 420.479 128.992C420.648 128.818 420.681 128.749 420.648 128.783C420.783 128.644 420.884 128.505 420.985 128.332C421.221 127.95 421.322 127.533 421.424 127.082C421.592 126.422 421.457 125.519 420.749 125.275Z" fill="#999999"/>
</g>
<g style="mix-blend-mode:multiply" opacity="0.4">
<path d="M398.822 147.295C398.822 147.295 398.687 147.364 398.586 147.399C398.383 147.469 397.81 148.094 398.181 148.302C398.215 148.302 398.282 148.372 398.316 148.372C399.092 148.823 399.564 146.982 398.788 147.295H398.822Z" fill="#999999"/>
</g>
<g style="mix-blend-mode:multiply" opacity="0.4">
<path d="M367.381 145.42C367.313 144.899 366.773 145.072 366.436 145.489C366.436 145.489 366.369 145.42 366.335 145.42C365.964 145.177 365.458 145.871 365.593 146.218C365.896 147.017 366.335 147.99 367.279 147.399C367.617 147.191 367.887 146.774 367.92 146.392C367.988 145.871 367.414 145.836 367.381 145.454V145.42Z" fill="#999999"/>
</g>
<g style="mix-blend-mode:multiply" opacity="0.4">
<path d="M339.076 114.092C339.076 114.092 339.076 113.953 338.975 113.884C338.739 113.328 338.3 112.911 337.76 112.772C337.153 112.633 336.546 113.467 336.579 114.057C336.579 114.37 336.714 114.613 336.849 114.821C336.849 115.69 337.355 116.593 338.165 116.801C338.536 116.87 338.873 116.558 339.042 116.245C339.346 115.655 339.346 114.821 339.076 114.092Z" fill="#999999"/>
</g>
<g style="mix-blend-mode:multiply" opacity="0.4">
<path d="M362.017 121.629C362.017 121.629 361.916 121.768 361.882 121.837C361.747 121.837 361.578 121.837 361.444 121.837C360.566 122.115 360.364 123.157 360.465 123.991C360.6 124.998 361.444 125.866 362.354 126.179C363.434 126.561 364.48 125.519 365.121 124.755C366.875 122.74 363.906 119.337 361.983 121.594L362.017 121.629Z" fill="#999999"/>
</g>
<g style="mix-blend-mode:multiply" opacity="0.4">
<path d="M386.576 68.3857C385.935 68.3857 385.463 68.7678 385.125 69.2888C385.058 69.2888 384.99 69.2887 384.956 69.3582C384.012 69.8097 383.472 71.581 384.248 72.4146C387.048 75.332 388.667 68.4205 386.576 68.4205V68.3857Z" fill="#999999"/>
</g>
<g style="mix-blend-mode:multiply" opacity="0.4">
<path d="M353.211 60.8143C352.941 60.9532 352.705 61.1268 352.502 61.3005C351.929 61.4394 351.457 62.1688 351.288 62.6897C351.254 62.8287 351.221 63.0718 351.355 63.176C352.199 63.8706 353.987 61.9951 353.784 61.0921C353.717 60.8143 353.481 60.6753 353.211 60.8143Z" fill="#999999"/>
</g>
<g style="mix-blend-mode:multiply" opacity="0.4">
<path d="M338.874 96.5529C338.874 96.5529 338.469 96.4834 338.3 96.5529C338.266 96.4834 338.233 96.414 338.199 96.3445C338.132 96.2403 338.03 96.1708 337.895 96.2056C336.782 96.4487 336.748 97.8727 337.389 98.602C338.064 99.3661 339.65 97.3517 338.84 96.5529H338.874Z" fill="#999999"/>
</g>
<g style="mix-blend-mode:multiply" opacity="0.4">
<path d="M408.437 77.3117C408.268 77.1033 408.032 77.2075 407.83 77.3811C407.796 77.3811 407.729 77.3811 407.661 77.3811C406.885 77.7979 406.48 79.6039 407.391 80.0554C407.931 80.2985 408.369 79.7776 408.639 79.3261C409.044 78.6662 408.876 77.8326 408.403 77.2422L408.437 77.3117Z" fill="#999999"/>
</g>
<g style="mix-blend-mode:multiply" opacity="0.4">
<path d="M412.383 69.011C412.383 69.011 412.248 68.9068 412.181 68.8373C411.979 68.4206 411.236 69.0805 411.338 69.4625C411.405 69.7751 411.439 69.8445 411.742 69.9487C412.113 70.0877 412.788 69.2194 412.383 68.9763V69.011Z" fill="#999999"/>
</g>
<g style="mix-blend-mode:multiply" opacity="0.4">
<path d="M397.1 50.8118C397.1 50.8118 397.1 50.6034 396.999 50.5339C396.864 50.4645 396.797 50.3255 396.763 50.1866C396.763 50.1866 396.729 50.1171 396.696 50.1171C396.459 49.8393 396.122 50.2561 395.953 50.6034C395.953 50.4992 395.92 50.395 395.953 50.3255C396.021 50.1519 395.785 50.2213 395.751 50.3255C395.549 50.777 396.19 52.4789 396.797 52.2705C397.404 52.0621 397.337 51.4022 397.134 50.8465L397.1 50.8118Z" fill="#999999"/>
</g>
<g style="mix-blend-mode:multiply" opacity="0.4">
<path d="M427.463 86.7585C427.463 86.7585 427.396 86.689 427.362 86.6543C427.564 86.0639 426.957 85.9944 426.586 86.307C426.35 86.5154 425.911 87.4531 426.586 87.4184C426.721 87.4184 426.856 87.4531 426.957 87.5226C427.261 87.6268 427.666 87.0364 427.463 86.7932V86.7585Z" fill="#999999"/>
</g>
<g style="mix-blend-mode:multiply" opacity="0.4">
<path d="M407.087 112.842C406.986 113.05 406.885 113.259 406.784 113.467C406.683 113.606 406.514 113.814 406.615 113.988C406.615 113.988 406.615 113.988 406.615 114.023C406.683 114.162 406.885 114.162 407.02 114.057C407.459 113.71 407.728 113.467 407.897 112.877C408.133 112.147 407.29 112.356 407.087 112.807V112.842Z" fill="#999999"/>
</g>
<g style="mix-blend-mode:multiply" opacity="0.4">
<path d="M404.017 136.285C404.017 136.285 404.017 136.112 403.949 136.077C402.937 135.347 402.262 137.952 403.645 137.188C403.848 137.084 404.185 136.563 404.017 136.285Z" fill="#999999"/>
</g>
<path d="M519.898 826.603C546.178 797.394 562.169 759.259 562.169 717.478C562.169 625.718 485.387 551.358 390.691 551.358C295.995 551.358 219.213 625.752 219.213 717.478C219.213 758.391 234.529 795.866 259.864 824.797C324.569 816.635 382.426 804.445 382.426 804.445C382.426 804.445 449.492 818.58 519.966 826.603H519.898Z" fill="white"/>
<path d="M145.536 537.327C120.943 549.795 99.4872 568.793 83.8002 591.959C73.5445 607.067 65.8191 623.842 59.1732 640.965C56.8792 646.869 54.6526 652.982 50.6718 657.844C45.8476 663.783 38.8306 667.534 34.31 673.716C29.7895 679.898 29.3172 690.596 36.1318 693.826C41.0572 696.153 46.7247 693.305 51.414 690.491C51.1778 698.653 56.2719 706.711 63.6263 709.767C70.9806 712.823 80.0892 710.705 85.4532 704.696C83.6989 711.226 88.6243 718.033 94.7305 720.569C100.837 723.104 107.651 722.513 114.162 721.854C115.95 721.68 117.806 721.472 119.29 720.464C121.28 719.11 122.191 716.609 123.001 714.247C130.187 692.888 137.339 671.528 144.524 650.168" fill="#D7D7D7"/>
<path d="M140.442 528.331C112.678 542.502 88.9615 564.591 72.06 591.299C62.7827 605.99 55.6982 621.967 49.3896 638.221C49.0186 639.124 48.6812 640.062 48.3438 640.965C48.1752 641.416 47.9727 641.868 47.8041 642.319C47.7029 642.562 47.2306 643.743 47.7703 642.423C48.3101 641.034 47.7029 642.528 47.5679 642.875C47.3655 643.326 47.1631 643.778 46.9607 644.229C46.4884 645.237 46.0161 646.209 45.5101 647.182C45.0378 648.05 44.5655 648.883 44.0594 649.682C43.7895 650.099 43.5197 650.481 43.2498 650.898C43.1148 651.106 42.4739 652.183 43.1823 651.002C43.8907 649.821 43.1148 651.002 42.8449 651.315C42.5413 651.662 42.2377 652.009 41.9003 652.322C41.1919 653.086 40.4497 653.815 39.6738 654.51C34.1074 659.65 27.3603 664.026 23.9867 671.181C19.7698 680.072 19.3987 691.047 26.0109 698.862C29.5194 702.995 35.1532 705.322 40.4497 705.148C46.2522 704.94 51.5487 702.474 56.5079 699.556C51.4475 696.569 46.3534 693.548 41.2931 690.561C41.1582 703.029 48.6475 714.56 59.7465 719.353C70.8455 724.146 84.3735 721.09 92.6049 712.129L75.7034 701.987C73.207 712.58 78.5372 723 87.4097 728.487C95.6411 733.558 105.661 733.28 114.837 732.273C118.008 731.926 120.977 731.509 123.81 729.877C126.442 728.383 128.668 725.987 130.186 723.312C132.514 719.214 133.695 714.248 135.213 709.802C138.215 700.876 141.218 691.95 144.22 683.024C147.594 673.022 150.934 663.019 154.307 653.016C156.028 647.876 152.317 641.381 147.223 640.201C141.589 638.881 136.63 641.972 134.774 647.494C129.647 662.776 124.519 678.058 119.391 693.339C118.109 697.125 116.861 700.911 115.579 704.696C114.938 706.572 114.297 708.482 113.656 710.358C113.386 711.156 113.116 711.955 112.846 712.754C112.273 714.386 113.555 710.67 112.745 712.824C112.307 714.004 114.229 711.4 113.285 712.198C112.441 712.893 114.297 711.504 114.229 711.573C113.015 712.372 114.297 711.087 114.837 711.365C114.735 711.33 113.993 711.573 113.858 711.608C112.846 711.955 114.803 711.469 114.87 711.469C114.466 711.434 113.892 711.573 113.454 711.608C112.441 711.712 111.429 711.816 110.417 711.886C108.764 712.025 107.111 712.094 105.458 712.094C104.581 712.094 103.704 712.094 102.793 712.025C102.422 712.025 102.051 711.955 101.68 711.921C100.398 711.851 103.67 712.372 101.781 711.921C100.803 711.677 99.8581 711.4 98.8798 711.156C98.5761 711.087 97.4629 710.531 98.7448 711.156C100.229 711.886 98.3737 710.913 98.205 710.844C97.9352 710.705 97.6653 710.531 97.3954 710.358C96.4845 709.767 96.552 709.142 97.6653 710.67C97.2604 710.115 96.552 709.663 96.0797 709.107C95.8098 708.829 94.899 707.683 95.8773 708.934C96.8556 710.184 95.9785 709.003 95.7761 708.691C95.5737 708.343 95.405 707.926 95.1688 707.579C94.5616 706.572 95.7086 709.489 95.5062 708.343C95.4387 707.961 95.3038 707.544 95.1688 707.162C94.764 706.12 95.2026 709.246 95.27 708.135C95.27 707.857 95.27 707.51 95.27 707.232C95.1688 705.148 94.764 709.628 95.27 707.544C96.2821 703.203 94.6291 697.959 90.6145 695.771C86.6 693.582 81.5059 693.965 78.3348 697.403C78.0649 697.715 77.7613 697.993 77.4914 698.306C77.2215 698.584 75.8046 699.73 77.1203 698.723C78.3685 697.75 77.1878 698.653 76.9179 698.827C76.5805 699.07 76.2432 699.278 75.8721 699.487C75.501 699.695 74.8263 699.938 74.5227 700.216C74.7925 699.938 76.5805 699.417 75.2648 699.904C74.4889 700.181 73.713 700.424 72.9371 700.633C72.4311 700.772 71.925 700.841 71.4527 700.946C70.2045 701.223 73.5781 700.841 72.3298 700.807C71.5202 700.807 70.7105 700.876 69.9009 700.841C68.2141 700.772 69.7322 700.772 70.4744 701.015C70.1033 700.911 69.6647 700.876 69.2936 700.772C68.9226 700.668 68.5177 700.563 68.1129 700.459C67.7081 700.355 66.0888 699.626 67.6069 700.355C69.125 701.084 66.7635 699.904 66.3586 699.626C66.0213 699.417 65.6839 699.174 65.3466 698.966C64.3008 698.341 66.9996 700.494 65.7177 699.278C65.1104 698.723 64.5369 698.167 63.9634 697.542C63.6935 697.229 63.4574 696.882 63.1538 696.604C64.8068 698.202 63.9634 697.681 63.4911 696.951C63.0526 696.257 62.6477 695.527 62.2766 694.763C61.5007 693.2 62.4116 694.52 62.4453 695.25C62.4453 694.868 62.1754 694.416 62.0405 694.069C61.8043 693.27 61.7369 692.402 61.467 691.638C62.2092 693.826 61.6357 693.27 61.6019 692.228C61.6019 691.707 61.6019 691.186 61.6019 690.665C61.7031 682.677 52.9656 677.78 46.3872 681.67C45.645 682.086 44.9365 682.538 44.1944 682.92C43.8233 683.128 42.1365 683.684 41.9003 684.066C42.3389 683.267 43.5534 683.51 42.3052 683.858C41.8329 683.997 41.3943 684.17 40.9557 684.275C40.6184 684.379 40.281 684.413 39.9437 684.518C38.7292 684.865 42.1028 684.448 40.2473 684.413C38.3918 684.379 42.5076 684.795 39.9437 684.309C38.8641 684.101 40.8883 684.622 40.9557 684.761C40.9557 684.761 40.2473 684.274 40.1461 684.24C40.2473 684.24 42.1028 686.011 41.1244 684.934C40.8545 684.622 40.3822 683.962 41.2931 685.282C42.6088 687.157 40.7871 684.622 40.8883 684.309C41.0232 683.927 41.4618 686.81 41.4955 685.664C41.4955 685.455 41.3606 685.143 41.2931 684.969C41.2931 684.969 41.0232 684.066 41.0907 683.997C41.1919 683.858 41.2594 686.984 41.2931 685.247C41.2931 684.657 41.2931 684.031 41.2931 683.441C41.2931 681.253 40.7533 685.768 41.2931 683.58C41.428 682.955 41.563 682.364 41.7654 681.774C41.8666 681.496 42.069 681.044 42.1028 680.767C42.1028 680.732 41.0907 682.885 41.5967 682.017C41.9003 681.496 42.1365 680.906 42.4401 680.385C42.5076 680.246 42.9461 679.725 42.9799 679.516C42.8112 680.28 41.563 681.288 42.7775 679.829C47.1631 674.55 53.2018 671.077 57.6211 665.867C63.1875 659.303 66.19 651.488 69.2936 643.465C69.9684 641.729 70.5081 639.575 71.4865 637.978C71.4865 638.047 70.7443 639.749 71.2166 638.638C71.3515 638.29 71.5202 637.908 71.6551 637.561C72.0937 636.484 72.566 635.373 73.0383 634.296C74.5227 630.788 76.1082 627.35 77.7275 623.912C81.1011 616.826 84.812 609.88 88.9278 603.247C90.8507 600.155 92.8748 597.099 94.9664 594.147C95.4387 593.487 95.9448 592.827 96.4171 592.133C97.4629 590.674 96.2484 592.341 96.0797 592.549C96.3496 592.167 96.6532 591.785 96.9231 591.438C98.0026 590.049 99.0822 588.659 100.195 587.305C104.581 581.956 109.304 576.886 114.297 572.127C117.164 569.384 120.133 566.744 123.203 564.243C123.743 563.792 126.138 562.16 123.878 563.688C124.654 563.167 125.362 562.542 126.104 561.986C127.69 560.77 129.276 559.624 130.895 558.478C137.271 553.998 143.951 549.969 150.866 546.426C155.623 543.995 157.31 536.667 154.51 532.186C151.372 527.185 145.738 525.865 140.678 528.435L140.442 528.331Z" fill="#494949"/>
<path d="M610.715 537.327C635.308 549.795 656.764 568.793 672.451 591.959C682.707 607.067 690.432 623.842 697.078 640.965C699.372 646.869 701.598 652.982 705.579 657.844C710.403 663.783 717.421 667.534 721.941 673.716C726.462 679.898 726.934 690.596 720.119 693.826C715.194 696.153 709.526 693.305 704.837 690.491C705.073 698.653 699.979 706.711 692.625 709.767C685.27 712.823 676.162 710.705 670.798 704.696C672.552 711.226 667.627 718.033 661.521 720.569C655.414 723.104 648.6 722.513 642.089 721.854C640.301 721.68 638.445 721.472 636.961 720.464C634.971 719.11 634.06 716.609 633.25 714.247C626.065 692.888 618.913 671.528 611.727 650.168" fill="#D7D7D7"/>
<path d="M605.587 546.322C611.795 549.483 617.8 553.025 623.569 556.95C626.369 558.86 629.067 560.84 631.733 562.924C633.757 564.487 630.721 562.09 632.137 563.236C632.778 563.757 633.386 564.278 634.027 564.799C635.443 565.98 636.86 567.23 638.277 568.446C643.405 573.03 648.263 577.927 652.817 583.137C655.145 585.777 657.372 588.521 659.497 591.299C659.699 591.577 659.935 591.855 660.138 592.133C660.981 593.244 658.991 590.57 659.834 591.716C660.307 592.376 660.813 593.036 661.285 593.695C662.331 595.154 663.343 596.648 664.355 598.141C668.639 604.532 672.451 611.235 675.96 618.112C677.748 621.619 679.435 625.162 681.054 628.739C681.796 630.406 682.538 632.108 683.281 633.775C683.685 634.748 684.09 635.72 684.495 636.658C684.664 637.005 684.799 637.387 684.934 637.735C685.203 638.36 686.114 639.68 684.934 637.804C685.844 639.263 686.351 641.312 686.958 642.91C687.632 644.646 688.273 646.383 688.982 648.085C690.601 652.079 692.187 656.107 694.447 659.754C696.707 663.401 699.339 666.562 702.409 669.34C704.905 671.598 707.536 673.647 710.033 675.904C711.484 677.224 712.765 678.648 714.081 680.141C714.857 681.01 713.44 679.273 713.44 679.273C713.508 679.551 713.98 680.107 714.115 680.385C714.284 680.697 714.452 681.01 714.621 681.322C715.127 682.295 714.621 682.677 714.317 680.524C714.419 681.183 714.79 681.913 714.958 682.573C715.026 682.816 715.059 683.094 715.127 683.371C715.565 685.073 714.958 683.024 715.026 682.434C714.958 683.094 715.127 683.858 715.093 684.518C715.093 684.518 715.093 685.455 715.026 685.525C715.127 685.421 715.633 682.607 715.127 684.483C715.059 684.726 714.992 684.969 714.958 685.212C714.655 686.81 716.004 683.371 715.397 684.309C715.127 684.726 713.98 686.636 715.093 685.039C716.072 683.649 715.464 684.552 715.093 684.865C714.351 685.525 717.387 683.476 715.835 684.275C715.498 684.448 714.79 684.726 716.072 684.275C718.062 683.51 715.431 684.448 715.431 684.379C715.397 684.17 717.59 684.379 716.443 684.205C714.284 683.892 716.578 684.691 716.746 684.413C716.611 684.657 714.385 683.788 714.014 683.684C712.226 683.128 714.182 683.858 714.419 683.892C713.879 683.788 713.271 683.337 712.765 683.094C711.787 682.573 710.843 682.052 709.898 681.496C703.319 677.606 694.582 682.503 694.683 690.491C694.683 690.908 694.683 691.325 694.683 691.742C694.683 692.158 694.481 694.069 694.683 692.228C694.886 690.387 694.447 693.061 694.312 693.582C694.177 694.034 693.874 694.624 693.84 695.076C693.84 694.694 694.784 693.027 694.143 694.312C693.772 695.041 693.401 695.805 692.963 696.5C692.76 696.847 691.647 698.306 692.693 696.986C693.671 695.736 692.727 696.882 692.524 697.16C691.984 697.785 691.411 698.375 690.804 698.931C689.555 700.077 690.5 698.896 691.175 698.653C690.837 698.757 690.466 699.139 690.163 699.348C689.825 699.556 689.454 699.765 689.117 699.973C688.779 700.147 687.126 700.98 688.678 700.216C690.095 699.521 688.813 700.112 688.442 700.216C688.071 700.355 687.666 700.459 687.261 700.563C686.857 700.668 686.452 700.737 686.081 700.807C684.832 701.084 688.476 700.668 686.654 700.702C685.844 700.702 685.035 700.702 684.225 700.702C682.842 700.702 684.697 700.772 685.102 700.876C684.63 700.737 684.09 700.702 683.618 700.598C682.808 700.424 682.032 700.181 681.29 699.904C679.671 699.313 681.223 699.626 681.729 700.112C681.459 699.869 680.953 699.73 680.649 699.556C679.941 699.139 679.3 698.584 678.591 698.202C680.514 699.209 679.671 699.105 678.996 698.445C678.625 698.098 678.254 697.715 677.917 697.333C674.948 694.103 669.314 693.27 665.637 695.701C661.757 698.271 659.902 702.821 660.981 707.475C660.981 705.148 661.42 709.281 660.981 707.475C660.981 707.753 660.88 708.135 660.948 708.378C660.88 708.065 661.521 705.843 661.015 707.405C660.914 707.683 660.813 707.996 660.745 708.274C660.543 709.281 661.15 707.267 661.217 707.232C660.88 707.614 660.172 708.864 659.969 709.385C660.475 707.926 661.116 708.031 660.408 708.76C660.205 709.003 659.969 709.246 659.767 709.455C659.564 709.663 659.295 709.906 659.092 710.115C657.878 711.33 659.429 709.767 659.666 709.698C659.058 709.871 658.35 710.566 657.81 710.879C657.574 711.018 657.203 711.122 656.967 711.295C657.473 710.879 658.755 710.635 657.405 711.018C656.562 711.261 655.719 711.504 654.875 711.712C654.504 711.782 652.885 712.025 654.369 711.851C655.854 711.677 654.47 711.851 654.234 711.851C652.345 711.955 650.456 712.025 648.533 711.921C646.88 711.851 645.227 711.712 643.574 711.538C643.068 711.504 642.562 711.434 642.056 711.4C640.571 711.226 641.752 711.4 642.056 711.4C643.945 711.643 642.056 711.4 642.056 711.365C641.212 711.087 641.179 711.122 641.988 711.469C642.663 711.816 642.764 711.851 642.292 711.573C641.28 710.983 643.169 712.303 643.135 712.268C641.887 711.226 643.641 712.615 643.641 712.928C643.641 712.789 643.304 712.233 643.203 712.129C642.629 711.261 643.574 713.171 643.607 713.206C643.135 711.365 642.359 709.594 641.752 707.787C640.47 704.002 639.222 700.216 637.94 696.43C635.342 688.72 632.778 681.01 630.181 673.299C627.279 664.651 624.378 656.003 621.477 647.355C619.756 642.215 614.46 638.256 609.029 640.062C604.069 641.694 600.122 647.355 601.944 652.877C607.949 670.729 613.92 688.581 619.925 706.398C623.164 716.019 625.458 728.73 636.692 731.439C641.01 732.481 645.969 732.725 650.422 732.759C656.022 732.794 661.454 731.822 666.615 729.495C676.77 724.841 683.179 713.136 680.514 701.848L663.613 711.99C671.844 720.951 685.44 724.007 696.471 719.214C707.503 714.421 715.059 702.89 714.925 690.422C709.864 693.409 704.77 696.43 699.71 699.417C703.556 701.675 707.671 703.828 712.057 704.558C718.264 705.599 723.999 704.245 728.891 700.077C735.233 694.624 736.414 684.9 734.491 677.05C732.501 668.923 726.833 663.123 720.727 658.018C719.31 656.837 717.893 655.656 716.544 654.406C715.937 653.85 715.363 653.294 714.79 652.739C714.419 652.357 712.732 650.967 712.698 650.412C712.698 650.481 714.081 652.461 712.968 650.794C712.698 650.377 712.428 649.995 712.158 649.578C711.652 648.779 711.146 647.911 710.708 647.077C709.864 645.48 708.65 643.569 708.211 641.798C708.279 642.041 709.088 643.986 708.414 642.25C708.245 641.798 708.042 641.347 707.874 640.895C707.503 639.992 707.165 639.054 706.828 638.151C706.052 636.206 705.31 634.227 704.5 632.282C702.679 627.802 700.823 623.356 698.833 618.945C695.392 611.304 691.647 603.802 687.396 596.578C679.266 582.72 669.348 569.835 657.945 558.686C645.463 546.496 631.193 536.111 615.776 528.262C611.053 525.831 604.609 526.803 601.944 532.013C599.515 536.736 600.493 543.683 605.587 546.253V546.322Z" fill="#494949"/>
<path d="M330.238 295.563C329.159 298.341 329.732 301.641 329.968 304.697C330.407 311.018 330.913 317.374 331.52 323.695C333.274 342.45 335.062 361.83 339.009 380.237C342.147 394.929 348.59 410.002 360.128 419.762C373.352 430.91 392.075 432.612 406.919 423.79C423.281 414.066 433.469 394.442 439.609 376.695C449.257 348.701 450.978 318.59 451.821 289.172C452.091 279.621 440.182 280.212 433.739 280.073C421.695 279.864 409.652 277.016 398.89 271.39C393.425 268.507 385.025 261.109 378.649 264.652C376.422 265.902 374.567 267.778 372.677 269.549C363.771 277.919 353.111 284.345 341.641 288.234C338.301 289.381 334.286 290.388 331.756 293.097C331.048 293.826 330.575 294.66 330.272 295.528L330.238 295.563Z" fill="#868686"/>
<path d="M322.107 293.27C320.521 298.063 321.398 303.238 321.77 308.17C322.141 313.067 322.545 317.964 322.984 322.861C323.861 332.204 324.738 341.547 325.852 350.89C328.011 368.985 330.372 387.496 338.098 404.133C345.216 419.414 357.765 432.3 374.06 436.537C382.156 438.655 390.759 438.655 398.889 436.537C407.019 434.418 414.239 429.938 420.581 424.346C432.422 413.892 440.08 399.131 445.782 384.405C452.326 367.491 455.666 349.535 457.69 331.51C458.702 322.41 459.31 313.241 459.714 304.107C459.917 299.557 460.085 294.972 460.22 290.423C460.355 285.873 458.905 288.373 455.801 284.866C451.247 279.691 446.119 279.274 439.675 279.065C436.639 278.961 431.883 271.459 428.846 271.216C427.834 271.147 426.856 271.042 425.844 270.938C425.608 270.938 424.022 270.695 425.102 270.869C426.181 271.042 424.596 270.799 424.36 270.765C422.133 270.417 419.906 269.966 417.714 269.41C415.757 268.924 413.834 268.368 411.911 267.708C410.966 267.396 410.022 267.048 409.077 266.701C408.605 266.527 408.133 266.354 407.66 266.145C407.323 266.006 406.952 265.868 406.615 265.729C407.357 266.041 407.458 266.111 406.884 265.833C403.747 264.305 400.778 262.638 397.81 260.762C390.556 256.247 381.785 252.67 373.79 257.602C369.978 259.963 366.908 263.471 363.501 266.388C363.129 266.701 362.758 267.014 362.387 267.326C360.633 268.82 363.264 266.701 362.117 267.535C361.341 268.09 360.599 268.681 359.823 269.236C358.17 270.417 356.484 271.563 354.763 272.64C353.042 273.717 351.288 274.724 349.5 275.662C348.657 276.113 347.813 276.53 346.936 276.947C346.498 277.155 346.093 277.364 345.654 277.572C344.946 277.885 344.271 278.197 345.384 277.711C341.876 279.204 338.233 280.212 334.724 281.601C329.967 283.476 325.008 296.362 322.984 291.291C321.23 286.88 321.668 300.807 326.02 303.169C329.697 305.183 335.635 304.489 337.558 300.043C337.76 299.592 337.929 299.21 338.165 298.793C337.929 299.175 337.187 299.696 338.165 298.932C336.681 300.078 338.334 298.862 338.975 298.515C339.245 298.376 339.548 298.237 339.818 298.098C340.864 297.542 338.401 298.584 339.548 298.237C340.425 297.959 341.303 297.612 342.213 297.299C346.194 295.979 350.074 294.451 353.886 292.715C361.206 289.381 367.819 284.935 374.093 279.864C375.477 278.718 376.86 277.537 378.175 276.322C378.884 275.696 379.559 275.002 380.233 274.377C380.571 274.064 380.942 273.752 381.279 273.439C382.426 272.362 380.672 273.752 381.482 273.265C381.785 273.092 382.089 272.883 382.359 272.675C383.911 271.529 382.123 272.953 381.92 272.744C381.819 272.64 382.865 272.536 382.932 272.432C382.629 273.092 381.009 272.432 382.224 272.571C382.359 272.571 383.27 272.605 383.27 272.571C383.135 272.744 381.144 272.05 382.629 272.501C383.337 272.71 384.079 272.918 384.788 273.161C386.238 273.682 384.484 273.161 384.383 272.987C384.484 273.126 385.226 273.404 385.462 273.508C386.171 273.89 386.879 274.272 387.588 274.689C388.937 275.488 390.253 276.356 391.602 277.19C394.976 279.309 398.552 280.941 402.195 282.504C410.022 285.769 418.253 287.609 426.654 288.478C429.892 288.825 433.097 288.894 436.336 288.929C437.415 288.929 438.528 288.964 439.608 289.033C440.215 289.068 440.823 289.137 441.43 289.172C442.071 289.207 442.745 289.589 440.553 289.033C440.924 289.137 441.295 289.137 441.666 289.242C442.172 289.346 442.678 289.45 443.15 289.589C443.42 289.658 443.69 289.763 443.96 289.832C445.174 290.145 443.218 289.52 443.117 289.415C443.42 289.693 444.129 290.006 444.533 290.214C444.972 290.423 445.984 291.499 443.757 289.589C443.96 289.763 444.129 289.936 444.297 290.145C442.577 288.061 443.42 288.825 443.656 289.346C444.23 290.527 443.319 288.373 443.319 288.373C443.319 288.478 443.555 289.137 443.555 289.207C443.757 290.318 443.251 288.755 443.454 288.269C443.251 288.79 443.454 289.902 443.454 290.492C443.42 291.708 443.386 292.888 443.353 294.104C443.083 302.717 442.678 311.331 442.003 319.909C441.666 324.077 441.295 328.245 440.822 332.378C440.688 333.454 440.553 334.531 440.451 335.573C440.283 336.962 440.62 334.253 440.451 335.677C440.384 336.094 440.35 336.476 440.283 336.893C439.979 339.15 439.642 341.408 439.237 343.665C437.854 352.001 435.998 360.267 433.569 368.359C432.456 372.041 431.242 375.688 429.858 379.265C429.555 380.064 429.251 380.863 428.914 381.661C428.543 382.564 429.049 382.287 429.015 381.384C429.015 381.592 428.711 382.078 428.644 382.287C427.902 383.988 427.16 385.69 426.35 387.392C424.832 390.587 423.179 393.713 421.357 396.735C420.514 398.159 419.603 399.548 418.692 400.903C418.253 401.528 417.815 402.153 417.376 402.778C416.465 404.063 417.376 402.813 417.511 402.604C417.241 403.056 416.836 403.473 416.499 403.889C414.34 406.598 412.012 409.134 409.482 411.461C408.942 411.982 408.369 412.433 407.795 412.954C406.581 414.031 407.897 412.954 408.031 412.815C407.829 413.058 407.289 413.371 407.019 413.579C405.569 414.656 404.051 415.663 402.499 416.566C401.824 416.948 401.149 417.33 400.441 417.678C399.969 417.921 397.776 419.31 399.463 418.164C398.147 419.067 396.022 419.414 394.504 419.831C393.66 420.039 392.817 420.248 391.973 420.421C391.805 420.421 390.691 420.63 390.691 420.63C390.691 420.56 392.817 420.421 391.029 420.595C389.308 420.769 387.621 420.873 385.901 420.838C385.058 420.838 384.18 420.769 383.337 420.699C382.898 420.699 380.807 420.352 381.92 420.56C383.135 420.803 381.751 420.526 381.448 420.456C381.043 420.387 380.604 420.283 380.2 420.213C379.255 420.005 378.31 419.762 377.4 419.484C376.59 419.241 375.747 418.963 374.937 418.685C374.6 418.581 372.508 417.678 373.554 418.164C374.6 418.65 372.508 417.643 372.204 417.504C371.226 417.018 370.281 416.462 369.337 415.872C368.696 415.455 368.021 415.038 367.414 414.587C367.043 414.344 366.705 414.066 366.334 413.788C365.322 413.093 367.38 414.726 366.469 413.892C365.12 412.711 363.77 411.53 362.522 410.21C361.341 408.995 360.262 407.71 359.216 406.39C358.238 405.174 359.149 406.286 359.317 406.529C359.047 406.147 358.778 405.8 358.541 405.418C357.968 404.584 357.394 403.716 356.855 402.882C354.965 399.895 353.414 396.735 351.963 393.505C351.288 392.011 351.895 393.435 352.03 393.678C351.828 393.296 351.693 392.81 351.524 392.393C351.187 391.525 350.883 390.692 350.58 389.823C349.973 388.087 349.433 386.35 348.927 384.579C346.666 376.591 345.317 368.325 344.103 360.128C343.968 359.156 343.833 358.218 343.698 357.245C343.63 356.69 343.529 356.134 343.462 355.613C343.462 355.37 343.192 353.668 343.327 354.71C343.462 355.752 343.225 354.015 343.225 353.807C343.158 353.39 343.124 352.973 343.057 352.557C342.888 351.167 342.719 349.813 342.551 348.424C342.045 344.152 341.606 339.88 341.201 335.643C340.324 326.786 339.481 317.93 338.84 309.073C338.671 306.85 338.502 304.628 338.334 302.405C338.233 301.363 338.233 300.321 338.199 299.279C338.199 299.105 338.3 297.855 338.199 298.932C338.03 300.217 338.536 297.959 338.536 297.89C339.953 293.583 336.917 288.2 332.632 287.193C327.943 286.081 323.76 288.651 322.242 293.27H322.107Z" fill="#494949"/>
<path d="M311.919 232.838C322.334 232.838 330.777 224.146 330.777 213.423C330.777 202.701 322.334 194.009 311.919 194.009C301.504 194.009 293.061 202.701 293.061 213.423C293.061 224.146 301.504 232.838 311.919 232.838Z" fill="#494949"/>
<path d="M461.604 232.838C472.019 232.838 480.462 224.146 480.462 213.423C480.462 202.701 472.019 194.009 461.604 194.009C451.189 194.009 442.746 202.701 442.746 213.423C442.746 224.146 451.189 232.838 461.604 232.838Z" fill="#494949"/>
<path d="M500.569 282.4C499.692 277.676 495.273 274.62 490.719 275.488C490.145 275.627 431.614 286.463 392.548 251.663C391.3 250.551 389.815 249.891 388.264 249.648V249.544C388.027 249.544 387.791 249.544 387.555 249.579C387.319 249.579 387.083 249.509 386.847 249.544V249.648C385.329 249.891 383.81 250.551 382.562 251.663C343.496 286.463 284.999 275.627 284.392 275.488C279.837 274.585 275.418 277.676 274.541 282.4C273.664 287.123 276.666 291.673 281.254 292.541C282.098 292.715 288.71 293.965 298.831 294.451C319.443 295.459 354.461 293.271 384.215 272.258C386.239 270.799 388.905 270.799 390.929 272.258C420.683 293.271 455.701 295.459 476.313 294.451C486.434 293.965 493.046 292.715 493.89 292.541C498.478 291.638 501.48 287.088 500.603 282.4H500.569Z" fill="#494949"/>
</g>
<defs>
<clipPath id="clip0_979_738">
<rect width="752" height="858" fill="white"/>
</clipPath>
</defs>
</svg>
