<svg width="528" height="135" viewBox="0 0 528 135" fill="none" xmlns="http://www.w3.org/2000/svg">
<g clip-path="url(#clip0_755_1938)">
<path d="M469.877 134.349C458.503 134.349 448.031 128.275 442.198 118.738H84.7736C78.9041 128.131 68.486 134.121 57.2371 134.121H29.862C18.3143 134.121 8.62542 125.43 7.32241 113.913L0.197722 51.165C-0.531483 44.7252 1.51268 38.2554 5.81619 33.418C10.1197 28.5806 16.288 25.8079 22.7433 25.8079H38.1104C39.1026 20.5924 41.3918 15.665 44.8346 11.5418C50.7759 4.42979 59.4964 0.348633 68.743 0.348633L465.484 1.76503C474.749 1.80104 483.463 5.91821 489.381 13.0782C492.537 16.8893 494.706 21.3186 495.794 26.0299H504.365C510.826 26.0299 516.995 28.8087 521.298 33.6461C525.596 38.4834 527.64 44.9533 526.911 51.3991L519.792 114.141C518.489 125.658 508.794 134.349 497.247 134.349H469.877Z" fill="#59300A"/>
<path d="M514.789 30.7172C512.141 27.7404 508.346 26.0299 504.365 26.0299H487.808C488.245 20.2203 486.434 14.4586 482.68 9.92135C478.413 4.76589 472.131 1.79504 465.454 1.77104L68.7428 0.348633C62.0783 0.348633 55.7964 3.28947 51.5108 8.41492C47.4524 13.2703 45.6593 19.5541 46.4602 25.8019H22.7431C18.7684 25.8019 14.9729 27.5123 12.3251 30.4892C9.6772 33.466 8.41603 37.4512 8.87029 41.4183L15.989 104.166C16.7899 111.26 22.7551 116.608 29.8678 116.608H57.2429C67.3681 116.608 76.0169 110.204 79.4298 101.225H447.613C450.972 110.324 459.674 116.836 469.883 116.836H497.252C504.359 116.836 510.33 111.488 511.131 104.394L518.25 41.6463C518.704 37.6792 517.443 33.7001 514.795 30.7172H514.789Z" fill="#FFB727"/>
<path d="M497.247 108.073H469.877C461.569 108.073 454.827 101.309 454.827 92.9609V34.7864H504.365C507.497 34.7864 509.936 37.5232 509.577 40.65C507.204 61.566 504.831 82.4819 502.459 103.398C502.154 106.063 499.912 108.073 497.247 108.073Z" fill="#88480B"/>
<path d="M29.8619 107.851H57.231C65.5391 107.851 72.2813 101.087 72.2813 92.7388V34.5583H22.7432C19.6112 34.5583 17.1725 37.2951 17.5312 40.422C19.9041 61.3379 22.277 82.2539 24.6499 103.17C24.9547 105.835 27.1961 107.845 29.8619 107.845V107.851Z" fill="#88480B"/>
<g filter="url(#filter0_d_755_1938)">
<path d="M455.52 92.4688H78.4975C71.8091 92.4688 66.089 87.6434 64.9295 81.0295C61.6779 62.4663 58.4264 43.903 55.1749 25.3337C53.6866 16.8473 60.2076 9.07512 68.7907 9.10513C201.004 9.57926 333.211 10.0534 465.424 10.5215C474.001 10.5515 480.469 18.3598 478.927 26.8342C475.639 44.9233 472.358 63.0184 469.07 81.1075C467.875 87.6794 462.173 92.4628 455.514 92.4628L455.52 92.4688Z" fill="#CD7522"/>
</g>
<path d="M189.964 56.6026C189.964 56.6026 190.006 56.6446 190.042 56.6806C190.986 57.7309 192.05 58.7032 193.234 59.5974C194.417 60.4917 195.78 60.9718 197.316 61.0438C197.352 61.0438 197.394 61.0498 197.448 61.0678C197.501 61.0858 197.543 61.0919 197.579 61.0919C197.615 61.0919 197.657 61.1039 197.711 61.1219C197.764 61.1399 197.806 61.1459 197.842 61.1459C197.98 61.1459 198.129 61.1399 198.284 61.1219C198.44 61.1039 198.589 61.0798 198.727 61.0438C199.283 60.9358 199.815 60.7257 200.323 60.4137C200.825 60.1016 201.219 59.7115 201.5 59.2553C201.536 59.1833 201.572 59.1173 201.602 59.0453C201.638 58.9733 201.673 58.9072 201.709 58.8352C201.781 58.5891 201.829 58.3611 201.865 58.151C201.901 57.941 201.918 57.7489 201.918 57.5749C201.918 56.6266 201.506 55.8344 200.687 55.1862C199.868 54.538 198.984 54.0399 198.045 53.6918C197.663 53.5537 197.292 53.4397 196.946 53.3497C196.599 53.2596 196.264 53.1816 195.953 53.1156C195.917 53.1156 195.882 53.1096 195.846 53.0916C195.81 53.0736 195.774 53.0616 195.744 53.0616C194.035 52.6415 192.427 51.9693 190.933 51.039C189.432 50.1147 188.404 48.7704 187.842 47.0179C187.741 46.6698 187.639 46.3037 187.556 45.9135C187.466 45.5294 187.406 45.1273 187.37 44.7072C187.334 44.5692 187.316 44.4371 187.316 44.3111V43.915C187.316 43.6329 187.322 43.3568 187.34 43.0747C187.358 42.7987 187.4 42.5166 187.472 42.2345C187.579 41.5323 187.753 40.8361 187.992 40.1339C188.237 39.4317 188.548 38.8015 188.936 38.2434C190.054 36.3888 191.488 35.0565 193.252 34.2522C195.015 33.448 196.85 33.0459 198.775 33.0459C199.229 33.0459 199.689 33.0699 200.161 33.1239C200.633 33.1779 201.112 33.238 201.602 33.304C202.857 33.514 204.106 33.8621 205.343 34.3543C206.581 34.8464 207.722 35.4226 208.768 36.0888L205.893 42.5526C204.949 41.8504 203.957 41.2382 202.911 40.7161C201.865 40.1939 200.729 39.9298 199.51 39.9298H199.091C198.29 40.0379 197.537 40.398 196.844 41.0102C196.145 41.6223 195.798 42.2765 195.798 42.9787C195.798 43.0807 195.804 43.1888 195.822 43.2908C195.84 43.3988 195.882 43.5009 195.953 43.6089C196.025 43.855 196.145 44.083 196.318 44.2931C196.491 44.5031 196.683 44.6952 196.892 44.8693C197.274 45.1813 197.836 45.4754 198.565 45.7335C199.301 45.9976 200.066 46.2496 200.867 46.4957C201.53 46.6698 202.175 46.8378 202.803 46.9939C203.431 47.1499 203.957 47.2999 204.375 47.438C206.33 48.1402 207.794 49.3045 208.768 50.931C209.742 52.5574 210.251 54.2859 210.286 56.1044V56.3685C210.286 56.5786 210.28 56.7886 210.262 56.9987C210.245 57.2087 210.233 57.4008 210.233 57.5749C210.023 59.3934 209.438 61.1279 208.481 62.7783C207.525 64.4228 206.24 65.6892 204.638 66.5594C204.046 66.8415 203.437 67.0756 202.809 67.2676C202.181 67.4597 201.554 67.6277 200.926 67.7657C200.406 67.8678 199.88 67.9518 199.36 67.9998C198.834 68.0538 198.332 68.0778 197.842 68.0778H197.268C195.176 68.0058 193.114 67.5437 191.094 66.6854C189.068 65.8272 187.275 64.6809 185.703 63.2465L189.887 56.5186C189.922 56.5546 189.946 56.5786 189.964 56.5966V56.6026Z" fill="white"/>
<path d="M224.057 41.8084H216.628V33.8741H240.596V41.8084H233.167V67.3456H224.063V41.8084H224.057Z" fill="white"/>
<path d="M251.528 33.8741H262.885L274.451 67.3456H265.347L263.674 61.3019H250.799L249.072 67.3456H240.07L251.528 33.8741ZM252.73 54.8381H261.785L258.384 43.7529C258.211 43.2308 258.043 42.6726 257.888 42.0965C257.733 41.5203 257.601 40.9502 257.494 40.392C257.422 40.1819 257.368 39.9779 257.338 39.7858C257.302 39.5938 257.266 39.4137 257.231 39.2337C257.195 39.4077 257.153 39.5938 257.099 39.7858C257.045 39.9779 257.003 40.1819 256.968 40.392C256.932 40.464 256.914 40.524 256.914 40.572C256.914 40.6201 256.896 40.6861 256.86 40.7581C256.758 41.2802 256.645 41.7904 256.519 42.2825C256.394 42.7747 256.268 43.2608 256.125 43.7529L252.724 54.8381H252.73Z" fill="white"/>
<path d="M288.622 67.3456H280.039V33.8741H292.023C292.442 33.8741 292.86 33.8861 293.278 33.9042C293.697 33.9222 294.115 33.9462 294.534 33.9822C295.717 34.0542 296.888 34.2342 298.036 34.5343C299.19 34.8344 300.236 35.3506 301.174 36.0828C302.358 37.031 303.26 38.1834 303.87 39.5518C304.479 40.9201 304.82 42.3545 304.892 43.861V44.1731C304.892 46.8378 304.27 48.9564 303.033 50.5349C301.796 52.1073 299.919 53.1936 297.408 53.7938L306.512 67.3516H296.255L288.616 54.2139V67.3516L288.622 67.3456ZM288.855 49.6646C288.945 49.6826 289.041 49.6886 289.142 49.6886C289.214 49.6886 289.292 49.6946 289.375 49.7126C289.465 49.7306 289.543 49.7426 289.608 49.7426H289.77C291.27 49.7426 292.657 49.5086 293.93 49.0344C295.203 48.5603 295.854 47.342 295.89 45.3854V45.1213C295.89 43.3028 295.281 42.1445 294.061 41.6523C292.842 41.1602 291.497 40.9021 290.033 40.8661H288.622V49.6406C288.694 49.6406 288.772 49.6526 288.855 49.6706V49.6646Z" fill="white"/>
<path d="M319.29 41.8084H311.861V33.8741H335.829V41.8084H328.399V67.3456H319.296V41.8084H319.29Z" fill="white"/>
<g opacity="0.5">
<path d="M67.3622 56.6806L64.4753 22.837C64.0868 18.3177 67.5834 14.4046 72.0961 14.2966L149.828 12.436L72.2694 18.4858C69.4961 18.7018 67.3563 21.0245 67.3563 23.8213V56.6806H67.3622Z" fill="white"/>
</g>
</g>
<defs>
<filter id="filter0_d_755_1938" x="44.0624" y="1.20504" width="445.992" height="105.164" filterUnits="userSpaceOnUse" color-interpolation-filters="sRGB">
<feFlood flood-opacity="0" result="BackgroundImageFix"/>
<feColorMatrix in="SourceAlpha" type="matrix" values="0 0 0 0 0 0 0 0 0 0 0 0 0 0 0 0 0 0 127 0" result="hardAlpha"/>
<feOffset dy="3"/>
<feGaussianBlur stdDeviation="5.45"/>
<feComposite in2="hardAlpha" operator="out"/>
<feColorMatrix type="matrix" values="0 0 0 0 0 0 0 0 0 0 0 0 0 0 0 0 0 0 0.25 0"/>
<feBlend mode="normal" in2="BackgroundImageFix" result="effect1_dropShadow_755_1938"/>
<feBlend mode="normal" in="SourceGraphic" in2="effect1_dropShadow_755_1938" result="shape"/>
</filter>
<clipPath id="clip0_755_1938">
<rect width="527" height="134" fill="white" transform="translate(0.0541992 0.348633)"/>
</clipPath>
</defs>
</svg>
