<svg width="224" height="248" viewBox="0 0 224 248" fill="none" xmlns="http://www.w3.org/2000/svg">
<g clip-path="url(#clip0_873_2745)">
<path d="M186.192 204.4L42.8516 190.92V145.84H187.722L186.192 204.4Z" fill="#98CA51"/>
<path d="M42.5526 154.71C39.3226 153.44 36.1626 151.98 33.0926 150.29C29.0426 148.05 25.1826 145.47 21.6426 142.53C17.9326 139.43 14.5926 135.89 11.8526 131.93C4.7526 121.69 2.6226 109.34 4.8126 97.2501C5.3226 94.4301 6.0426 91.6501 6.9226 88.9301C6.9226 88.9301 10.4026 71.5201 37.2726 49.2401C36.2726 46.0101 35.7326 42.6001 35.7326 39.0601C35.7326 19.6001 51.9426 3.83008 71.9426 3.83008C89.0526 3.83008 103.373 15.3801 107.163 30.8901C107.773 30.7701 110.763 30.7901 111.953 30.8101C113.153 30.8001 116.143 30.7701 116.743 30.8901C120.533 15.3701 134.853 3.83008 151.963 3.83008C171.963 3.83008 188.173 19.6001 188.173 39.0601C188.173 42.6001 187.633 46.0201 186.633 49.2401C213.513 71.5101 216.983 88.9301 216.983 88.9301C217.863 91.6601 218.583 94.4401 219.093 97.2501C221.283 109.34 219.153 121.69 212.053 131.93C209.313 135.88 205.973 139.42 202.263 142.53C200.613 143.91 198.873 145.17 197.113 146.4C194.283 148.39 191.523 150.48 188.663 152.42L183.983 154.71" fill="#98CA51"/>
<path d="M42.552 158.21C42.122 158.21 41.692 158.13 41.272 157.97C37.722 156.57 34.492 155.06 31.402 153.35C27.042 150.94 23.012 148.21 19.412 145.22C15.302 141.78 11.792 137.98 8.98196 133.92C1.63196 123.33 -1.06804 110.08 1.36196 96.6201C1.87196 93.8101 2.60196 90.9101 3.53196 88.0001C4.05196 85.7501 8.64196 69.0101 33.292 48.0001C32.582 45.0701 32.222 42.0701 32.222 39.0501C32.222 17.6901 50.042 0.320068 71.932 0.320068C89.412 0.320068 104.572 11.2701 109.762 27.2901C110.372 27.2901 111.102 27.2901 111.982 27.3001C112.822 27.2901 113.522 27.2901 114.122 27.2901C119.322 11.2701 134.482 0.320068 151.962 0.320068C173.852 0.320068 191.672 17.6901 191.672 39.0501C191.672 42.0701 191.312 45.0701 190.602 48.0001C215.262 69.0201 219.842 85.7601 220.362 88.0001C221.292 90.9101 222.022 93.8101 222.532 96.6201C224.972 110.08 222.272 123.33 214.922 133.92C212.112 137.98 208.602 141.78 204.502 145.21C202.672 146.74 200.762 148.1 199.122 149.26C198.002 150.05 196.892 150.85 195.782 151.65C194.112 152.86 192.382 154.12 190.622 155.31L190.202 155.55L185.522 157.84C183.782 158.69 181.692 157.97 180.842 156.24C179.992 154.5 180.712 152.41 182.442 151.56L186.902 149.38C188.502 148.29 190.112 147.12 191.682 145.99C192.822 145.17 193.952 144.34 195.102 143.54C197.002 142.21 198.562 141.07 200.022 139.84C203.642 136.81 206.722 133.48 209.182 129.94C215.462 120.88 217.762 109.49 215.652 97.8701C215.192 95.3101 214.522 92.6601 213.662 89.9901L213.562 89.6001C213.532 89.4601 209.772 72.9401 184.412 51.9201L182.612 50.4301L183.302 48.1901C184.222 45.2201 184.692 42.1501 184.692 39.0401C184.692 21.5401 170.022 7.31007 151.982 7.31007C136.752 7.31007 123.672 17.3401 120.162 31.7001L119.372 34.9501L116.182 34.3201C115.812 34.2901 114.452 34.2501 112.012 34.2901C109.492 34.2601 108.132 34.2901 107.762 34.3201L104.572 34.9501L103.782 31.7001C100.282 17.3401 87.192 7.31007 71.962 7.31007C53.932 7.31007 39.252 21.5401 39.252 39.0401C39.252 42.1401 39.722 45.2201 40.642 48.1901L41.332 50.4301L39.532 51.9201C14.172 72.9401 10.412 89.4501 10.372 89.6201L10.272 89.9901C9.41196 92.6601 8.74196 95.3101 8.28196 97.8601C6.18196 109.48 8.47196 120.87 14.752 129.93C17.212 133.47 20.292 136.81 23.912 139.84C27.162 142.54 30.832 145.03 34.802 147.22C37.622 148.78 40.582 150.16 43.862 151.45C45.662 152.16 46.542 154.19 45.832 155.99C45.292 157.37 43.972 158.21 42.572 158.21H42.552ZM116.062 34.3201C116.062 34.3201 116.062 34.3201 116.072 34.3201H116.062ZM107.822 34.3201H107.812C107.812 34.3201 107.812 34.3201 107.822 34.3201Z" fill="black"/>
<path d="M39.063 186.92C37.583 206.64 39.633 226.6 39.633 226.6L33.713 233.19C30.453 236.82 32.593 242.62 37.423 243.26C61.863 246.46 112.963 235.64 112.963 235.64C112.963 235.64 165.843 246.84 189.743 243.08C194.033 242.41 195.843 237.23 192.953 234.01L186.303 226.6C186.303 226.6 186.703 211.19 186.413 197.66V188.96" fill="#98CA51"/>
<path d="M48.0831 247.36C44.0431 247.36 40.293 247.17 36.9731 246.74C33.4431 246.28 30.4931 243.92 29.2531 240.58C28.0131 237.24 28.7231 233.51 31.1031 230.86L35.9931 225.41C35.5431 220.29 34.2931 203.53 35.5631 186.66C35.7031 184.73 37.3931 183.29 39.3131 183.43C41.2431 183.57 42.6831 185.25 42.543 187.18C41.1031 206.37 43.0831 226.05 43.1031 226.24L43.2631 227.78L36.3131 235.53C35.3731 236.57 35.6531 237.7 35.8131 238.14C35.9731 238.57 36.4931 239.61 37.8731 239.79C61.4331 242.88 111.733 232.32 112.233 232.21L112.963 232.06L113.693 232.21C114.213 232.32 166.223 243.24 189.203 239.62C190.233 239.46 190.623 238.67 190.743 238.34C190.863 238 191.063 237.14 190.353 236.34L182.773 227.9L182.813 226.51C182.813 226.36 183.213 211.03 182.923 197.74V188.96C182.923 187.03 184.493 185.46 186.423 185.46C188.353 185.46 189.923 187.03 189.923 188.96V197.66C190.163 208.7 189.933 221.18 189.843 225.29L195.563 231.67C197.763 234.12 198.443 237.58 197.343 240.69C196.243 243.79 193.543 246.03 190.293 246.54C167.293 250.16 119.693 240.61 112.963 239.21C107.303 240.38 72.6031 247.35 48.0731 247.35L48.0831 247.36Z" fill="black"/>
<g style="mix-blend-mode:multiply" opacity="0.6">
<path d="M132.802 32.29C132.292 27.16 128.922 22.34 125.072 19.07C119.772 14.58 114.232 16.49 109.132 20.27C105.422 23.02 97.3723 28.5 100.402 34.08C102.922 38.73 106.592 42.37 110.462 45.89C113.242 48.42 116.162 51.11 120.192 49.79C125.862 47.93 131.562 41.78 132.662 35.96C132.892 34.73 132.932 33.5 132.812 32.28L132.802 32.29Z" fill="#B2B6B5"/>
</g>
<path d="M129.412 28.7302C128.902 23.6002 125.532 18.7802 121.682 15.5102C116.382 11.0202 110.842 12.9302 105.742 16.7102C102.022 19.4602 93.9822 24.9402 97.0122 30.5302C99.5322 35.1802 103.202 38.8202 107.072 42.3402C109.852 44.8702 112.772 47.5602 116.802 46.2402C122.472 44.3802 128.172 38.2302 129.262 32.4102C129.492 31.1802 129.532 29.9502 129.412 28.7302Z" fill="#908882"/>
<path d="M114.713 46.8801C111.633 46.8801 109.243 44.7001 106.933 42.6001L106.883 42.5501C103.373 39.3601 99.4131 35.5501 96.7631 30.6601C93.7731 25.1501 101.053 19.8001 104.963 16.9301L105.583 16.4801C109.093 13.8801 112.203 12.6201 115.093 12.6201C117.503 12.6201 119.783 13.5201 121.883 15.3001C126.323 19.0701 129.253 24.0801 129.713 28.7101C129.843 29.9901 129.793 31.2501 129.563 32.4701C128.473 38.2901 122.793 44.6001 116.903 46.5201C116.173 46.7601 115.433 46.8801 114.723 46.8801H114.713ZM115.083 13.2001C112.313 13.2001 109.313 14.4301 105.913 16.9501L105.293 17.4001C101.523 20.1701 94.5131 25.3201 97.2631 30.3901C99.8631 35.2001 103.793 38.9701 107.263 42.1301L107.313 42.1801C109.543 44.2101 111.843 46.3101 114.703 46.3101C115.353 46.3101 116.033 46.2001 116.703 45.9801C122.413 44.1101 127.913 38.0101 128.973 32.3701C129.193 31.2101 129.243 30.0001 129.123 28.7701C128.673 24.2801 125.823 19.4101 121.493 15.7401C119.503 14.0501 117.353 13.2001 115.083 13.2001Z" fill="#626262"/>
<path d="M114.712 47.8801C111.242 47.8801 108.592 45.4701 106.262 43.3501C102.642 40.0501 98.6025 36.1701 95.8825 31.1501C92.4825 24.8701 100.212 19.1901 104.362 16.1301L104.982 15.6801C108.662 12.9501 111.972 11.6201 115.092 11.6201C117.742 11.6201 120.242 12.6001 122.522 14.5301C127.162 18.4601 130.222 23.7201 130.702 28.6101C130.842 29.9801 130.782 31.3401 130.532 32.6501C129.382 38.7901 123.402 45.4401 117.202 47.4701C116.372 47.7401 115.532 47.8801 114.712 47.8801ZM115.082 14.2001C112.532 14.2001 109.732 15.3601 106.512 17.7501L105.892 18.2101C102.372 20.8001 95.8225 25.6201 98.1525 29.9201C100.682 34.5901 104.532 38.2901 107.942 41.3901C110.082 43.3401 112.242 45.3001 114.712 45.3001C115.262 45.3001 115.832 45.2101 116.402 45.0201C121.802 43.2501 127.002 37.4901 128.002 32.1801C128.202 31.1101 128.252 30.0001 128.132 28.8701C127.712 24.6301 124.992 20.0101 120.852 16.5101C119.052 14.9801 117.112 14.2101 115.082 14.2101V14.2001Z" fill="#0F0F0F"/>
<g style="mix-blend-mode:multiply" opacity="0.4">
<path d="M129.412 28.7302C128.902 23.6002 125.532 18.7802 121.682 15.5102C116.382 11.0202 110.842 12.9302 105.742 16.7102C102.022 19.4602 93.9822 24.9402 97.0122 30.5302C99.5322 35.1802 103.202 38.8202 107.072 42.3402C109.852 44.8702 112.772 47.5602 116.802 46.2402C122.472 44.3802 128.172 38.2302 129.262 32.4102C129.492 31.1802 129.532 29.9502 129.412 28.7302ZM117.782 33.2002C117.592 35.7202 117.322 41.3302 113.992 41.8902C111.492 42.3102 108.692 39.6302 107.042 38.1102C104.352 35.6502 101.372 33.2402 99.3922 30.1402C98.5622 28.8302 97.9222 27.5902 98.4122 26.0402C98.8222 24.7402 100.092 23.6902 101.082 22.8302C102.962 21.2102 104.862 19.5802 106.902 18.1702C108.852 16.3602 111.102 14.4802 113.792 14.6602C116.392 14.8302 116.932 18.1302 117.252 20.1602C117.922 24.4302 118.112 28.9002 117.782 33.2102V33.2002Z" fill="#908882"/>
</g>
<g style="mix-blend-mode:multiply" opacity="0.4">
<path d="M98.4727 28.3802C98.2727 27.8002 98.1827 27.2102 98.2827 26.5602C97.6927 26.3802 97.1127 26.2402 96.6427 26.1902C96.3227 27.1702 96.2527 28.1702 96.4927 29.1802C97.1527 28.9102 97.8127 28.6402 98.4727 28.3802Z" fill="#908882"/>
</g>
<g style="mix-blend-mode:multiply" opacity="0.4">
<path d="M114.632 41.7102C114.432 41.7902 114.222 41.8602 114.002 41.8902C113.752 41.9302 113.502 41.9402 113.242 41.9202C113.362 43.4702 113.552 45.0102 113.872 46.5202C114.782 46.6502 115.762 46.5802 116.802 46.2402C116.902 46.2102 117.002 46.1602 117.102 46.1302C116.202 44.7002 115.352 43.2302 114.632 41.7102Z" fill="#908882"/>
</g>
<g style="mix-blend-mode:multiply" opacity="0.4">
<path d="M117.773 24.67C117.993 27.51 118.003 30.39 117.783 33.2C117.673 34.57 117.543 36.87 116.913 38.77C118.733 37.85 120.783 37.23 122.503 36.41C124.833 35.3 127.013 33.93 129.223 32.59C129.233 32.53 129.253 32.47 129.263 32.42C129.493 31.19 129.533 29.96 129.413 28.74C128.903 23.61 125.533 18.79 121.683 15.52C119.933 14.03 118.153 13.25 116.363 13C117.013 16.52 117.903 19.93 117.803 23.6C117.803 23.96 117.773 24.32 117.763 24.67H117.773Z" fill="#908882"/>
</g>
<g style="mix-blend-mode:screen" opacity="0.4">
<path d="M116.083 16.1501C116.793 17.3301 117.063 18.9501 117.253 20.1501C117.923 24.4201 118.113 28.8901 117.783 33.2001C117.593 35.7201 117.323 41.3301 113.993 41.8901C113.903 41.9101 113.813 41.9101 113.723 41.9101C114.713 42.1301 115.703 42.0701 116.573 41.5001C119.363 39.7001 119.533 35.5501 119.673 32.5901C119.833 29.0701 120.003 25.5501 119.343 22.0501C118.873 19.5701 118.273 17.1701 116.083 16.1401V16.1501Z" fill="white"/>
</g>
<g style="mix-blend-mode:multiply" opacity="0.4">
<path d="M104.752 22.9C104.522 22.72 104.272 22.77 104.052 22.9C103.792 22.98 103.582 23.21 103.452 23.46C103.262 23.85 103.112 24.58 103.612 24.79C103.862 24.89 104.262 24.68 104.432 24.51C104.702 24.23 104.902 23.95 104.982 23.56C105.022 23.35 104.932 23.03 104.762 22.89L104.752 22.9Z" fill="#908882"/>
</g>
<g style="mix-blend-mode:multiply" opacity="0.4">
<path d="M105.992 25.47C105.992 25.47 105.932 25.43 105.912 25.41C105.572 25.17 104.942 25.86 105.172 26.19C105.192 26.22 105.212 26.25 105.232 26.28C105.572 26.76 106.402 25.76 106.002 25.48L105.992 25.47Z" fill="#908882"/>
</g>
<g style="mix-blend-mode:multiply" opacity="0.4">
<path d="M109.141 30.95C109.141 30.95 109.101 30.91 109.061 30.89C108.981 30.83 108.821 31 108.871 31.08C108.841 31.13 108.841 31.18 108.901 31.19C108.931 31.19 108.961 31.19 109.001 31.19C109.091 31.19 109.221 31.02 109.141 30.95Z" fill="#908882"/>
</g>
<g style="mix-blend-mode:multiply" opacity="0.4">
<path d="M123.762 33.1599C123.762 33.1599 123.712 33.1599 123.682 33.1699C123.672 33.1699 123.652 33.1799 123.642 33.1899C123.632 33.1899 123.622 33.1999 123.602 33.2199C123.602 33.2199 123.602 33.2199 123.592 33.2199C123.572 33.2299 123.562 33.2599 123.542 33.2799C123.542 33.2799 123.542 33.2999 123.532 33.3099C123.532 33.3299 123.512 33.3499 123.512 33.3699C123.512 33.3699 123.512 33.3799 123.512 33.3899C123.512 33.4199 123.512 33.4499 123.562 33.4699H123.582C123.582 33.4699 123.642 33.4699 123.672 33.4399C123.802 33.4199 123.942 33.1499 123.762 33.1499V33.1599Z" fill="#908882"/>
</g>
<g style="mix-blend-mode:multiply" opacity="0.4">
<path d="M124.753 26.9901C124.773 26.8101 124.743 26.6401 124.653 26.5201C124.603 26.4601 124.553 26.4501 124.473 26.4701C124.383 26.5001 124.313 26.5501 124.243 26.6101C124.253 26.5301 124.173 26.4901 124.083 26.5801C123.933 26.7301 123.873 26.9801 123.873 27.1801C123.873 27.3701 123.933 27.7201 124.193 27.7101C124.473 27.7001 124.663 27.4301 124.723 27.1301C124.743 27.0801 124.753 27.0301 124.743 26.9901H124.753Z" fill="#908882"/>
</g>
<g style="mix-blend-mode:multiply" opacity="0.4">
<path d="M125.892 30.9299C125.832 30.7699 125.632 30.9899 125.592 31.0699C125.372 31.2999 125.542 31.5699 125.782 31.2999C125.882 31.1899 125.952 31.0699 125.892 30.9199V30.9299Z" fill="#908882"/>
</g>
<g style="mix-blend-mode:multiply" opacity="0.4">
<path d="M125.213 36.39C125.063 36.35 124.923 36.39 124.793 36.51C124.523 36.49 124.373 36.75 124.293 36.96C124.203 37.19 124.133 37.54 124.343 37.71C124.593 37.93 124.963 37.65 125.133 37.46C125.183 37.41 125.193 37.39 125.183 37.4C125.223 37.36 125.253 37.32 125.283 37.27C125.353 37.16 125.383 37.04 125.413 36.91C125.463 36.72 125.423 36.46 125.213 36.39Z" fill="#908882"/>
</g>
<g style="mix-blend-mode:multiply" opacity="0.4">
<path d="M118.713 42.7301C118.713 42.7301 118.673 42.7501 118.643 42.7601C118.583 42.7801 118.413 42.9601 118.523 43.0201C118.533 43.0201 118.553 43.0401 118.563 43.0401C118.793 43.1701 118.933 42.6401 118.703 42.7301H118.713Z" fill="#908882"/>
</g>
<g style="mix-blend-mode:multiply" opacity="0.4">
<path d="M109.392 42.1901C109.372 42.0401 109.212 42.0901 109.112 42.2101C109.112 42.2101 109.092 42.1901 109.082 42.1901C108.972 42.1201 108.822 42.3201 108.862 42.4201C108.952 42.6501 109.082 42.9301 109.362 42.7601C109.462 42.7001 109.542 42.5801 109.552 42.4701C109.572 42.3201 109.402 42.3101 109.392 42.2001V42.1901Z" fill="#908882"/>
</g>
<g style="mix-blend-mode:multiply" opacity="0.4">
<path d="M101.002 33.1701C101.002 33.1701 101.002 33.1301 100.972 33.1101C100.902 32.9501 100.772 32.8301 100.612 32.7901C100.432 32.7501 100.252 32.9901 100.262 33.1601C100.262 33.2501 100.302 33.3201 100.342 33.3801C100.342 33.6301 100.492 33.8901 100.732 33.9501C100.842 33.9701 100.942 33.8801 100.992 33.7901C101.082 33.6201 101.082 33.3801 101.002 33.1701Z" fill="#908882"/>
</g>
<g style="mix-blend-mode:multiply" opacity="0.4">
<path d="M107.803 35.34C107.803 35.34 107.773 35.38 107.763 35.4C107.723 35.4 107.673 35.4 107.633 35.4C107.373 35.48 107.313 35.78 107.343 36.02C107.383 36.31 107.633 36.56 107.903 36.65C108.223 36.76 108.533 36.46 108.723 36.24C109.243 35.66 108.363 34.68 107.793 35.33L107.803 35.34Z" fill="#908882"/>
</g>
<g style="mix-blend-mode:multiply" opacity="0.4">
<path d="M115.081 20.01C114.891 20.01 114.751 20.12 114.651 20.27C114.631 20.27 114.611 20.27 114.601 20.29C114.321 20.42 114.161 20.93 114.391 21.17C115.221 22.01 115.701 20.02 115.081 20.02V20.01Z" fill="#908882"/>
</g>
<g style="mix-blend-mode:multiply" opacity="0.4">
<path d="M105.192 17.8299C105.112 17.8699 105.042 17.9199 104.982 17.9699C104.812 18.0099 104.672 18.2199 104.622 18.3699C104.612 18.4099 104.602 18.4799 104.642 18.5099C104.892 18.7099 105.422 18.1699 105.362 17.9099C105.342 17.8299 105.272 17.7899 105.192 17.8299Z" fill="#908882"/>
</g>
<g style="mix-blend-mode:multiply" opacity="0.4">
<path d="M100.942 28.1199C100.942 28.1199 100.822 28.0999 100.772 28.1199C100.762 28.0999 100.752 28.0799 100.742 28.0599C100.722 28.0299 100.692 28.0099 100.652 28.0199C100.322 28.0899 100.312 28.4999 100.502 28.7099C100.702 28.9299 101.172 28.3499 100.932 28.1199H100.942Z" fill="#908882"/>
</g>
<g style="mix-blend-mode:multiply" opacity="0.4">
<path d="M121.562 22.5799C121.512 22.5199 121.442 22.5499 121.382 22.5999C121.372 22.5999 121.352 22.5999 121.332 22.5999C121.102 22.7199 120.982 23.2399 121.252 23.3699C121.412 23.4399 121.542 23.2899 121.622 23.1599C121.742 22.9699 121.692 22.7299 121.552 22.5599L121.562 22.5799Z" fill="#908882"/>
</g>
<g style="mix-blend-mode:multiply" opacity="0.4">
<path d="M122.733 20.1899C122.733 20.1899 122.693 20.1599 122.673 20.1399C122.613 20.0199 122.393 20.2099 122.423 20.3199C122.443 20.4099 122.453 20.4299 122.543 20.4599C122.653 20.4999 122.853 20.2499 122.733 20.1799V20.1899Z" fill="#908882"/>
</g>
<g style="mix-blend-mode:multiply" opacity="0.4">
<path d="M118.202 14.95C118.202 14.95 118.202 14.89 118.172 14.87C118.132 14.85 118.112 14.81 118.102 14.77C118.102 14.77 118.092 14.75 118.082 14.75C118.012 14.67 117.912 14.79 117.862 14.89C117.862 14.86 117.852 14.83 117.862 14.81C117.882 14.76 117.812 14.78 117.802 14.81C117.742 14.94 117.932 15.43 118.112 15.37C118.292 15.31 118.272 15.12 118.212 14.96L118.202 14.95Z" fill="#908882"/>
</g>
<g style="mix-blend-mode:multiply" opacity="0.4">
<path d="M127.203 25.2999C127.203 25.2999 127.183 25.2799 127.173 25.2699C127.233 25.0999 127.053 25.0799 126.943 25.1699C126.873 25.2299 126.743 25.4999 126.943 25.4899C126.983 25.4899 127.023 25.4999 127.053 25.5199C127.143 25.5499 127.263 25.3799 127.203 25.3099V25.2999Z" fill="#908882"/>
</g>
<g style="mix-blend-mode:multiply" opacity="0.4">
<path d="M121.163 32.8101C121.133 32.8701 121.103 32.9301 121.073 32.9901C121.043 33.0301 120.993 33.0901 121.023 33.1401C121.023 33.1401 121.023 33.1401 121.023 33.1501C121.043 33.1901 121.103 33.1901 121.143 33.1601C121.273 33.0601 121.353 32.9901 121.403 32.8201C121.473 32.6101 121.223 32.6701 121.163 32.8001V32.8101Z" fill="#908882"/>
</g>
<g style="mix-blend-mode:multiply" opacity="0.4">
<path d="M120.252 39.5599C120.252 39.5599 120.252 39.5099 120.232 39.4999C119.932 39.2899 119.732 40.0399 120.142 39.8199C120.202 39.7899 120.302 39.6399 120.252 39.5599Z" fill="#908882"/>
</g>
<path d="M154.603 238.32C162.393 229.91 167.133 218.93 167.133 206.9C167.133 180.48 144.373 159.07 116.303 159.07C88.2327 159.07 65.4727 180.49 65.4727 206.9C65.4727 218.68 70.0127 229.47 77.5227 237.8C96.7027 235.45 113.853 231.94 113.853 231.94C113.853 231.94 133.733 236.01 154.623 238.32H154.603Z" fill="white"/>
<path d="M43.6325 155.03C36.3425 158.62 29.9825 164.09 25.3325 170.76C22.2925 175.11 20.0025 179.94 18.0325 184.87C17.3525 186.57 16.6925 188.33 15.5125 189.73C14.0825 191.44 12.0025 192.52 10.6625 194.3C9.32246 196.08 9.18246 199.16 11.2025 200.09C12.6625 200.76 14.3425 199.94 15.7325 199.13C15.6625 201.48 17.1725 203.8 19.3525 204.68C21.5325 205.56 24.2325 204.95 25.8225 203.22C25.3025 205.1 26.7625 207.06 28.5725 207.79C30.3825 208.52 32.4025 208.35 34.3325 208.16C34.8625 208.11 35.4125 208.05 35.8525 207.76C36.4425 207.37 36.7125 206.65 36.9525 205.97C39.0825 199.82 41.2025 193.67 43.3325 187.52" fill="#98CA51"/>
<path d="M42.1222 152.44C33.8922 156.52 26.8622 162.88 21.8522 170.57C19.1022 174.8 17.0022 179.4 15.1322 184.08C15.0222 184.34 14.9222 184.61 14.8222 184.87C14.7722 185 14.7122 185.13 14.6622 185.26C14.6322 185.33 14.4922 185.67 14.6522 185.29C14.8122 184.89 14.6322 185.32 14.5922 185.42C14.5322 185.55 14.4722 185.68 14.4122 185.81C14.2722 186.1 14.1322 186.38 13.9822 186.66C13.8422 186.91 13.7022 187.15 13.5522 187.38C13.4722 187.5 13.3922 187.61 13.3122 187.73C13.2722 187.79 13.0822 188.1 13.2922 187.76C13.5022 187.42 13.2722 187.76 13.1922 187.85C13.1022 187.95 13.0122 188.05 12.9122 188.14C12.7022 188.36 12.4822 188.57 12.2522 188.77C10.6022 190.25 8.60222 191.51 7.60222 193.57C6.35222 196.13 6.24222 199.29 8.20222 201.54C9.24222 202.73 10.9122 203.4 12.4822 203.35C14.2022 203.29 15.7722 202.58 17.2422 201.74C15.7422 200.88 14.2322 200.01 12.7322 199.15C12.6922 202.74 14.9122 206.06 18.2022 207.44C21.4922 208.82 25.5022 207.94 27.9422 205.36L22.9322 202.44C22.1922 205.49 23.7722 208.49 26.4022 210.07C28.8422 211.53 31.8122 211.45 34.5322 211.16C35.4722 211.06 36.3522 210.94 37.1922 210.47C37.9722 210.04 38.6322 209.35 39.0822 208.58C39.7722 207.4 40.1222 205.97 40.5722 204.69C41.4622 202.12 42.3522 199.55 43.2422 196.98C44.2422 194.1 45.2322 191.22 46.2322 188.34C46.7422 186.86 45.6422 184.99 44.1322 184.65C42.4622 184.27 40.9922 185.16 40.4422 186.75C38.9222 191.15 37.4022 195.55 35.8822 199.95C35.5022 201.04 35.1322 202.13 34.7522 203.22C34.5622 203.76 34.3722 204.31 34.1822 204.85C34.1022 205.08 34.0222 205.31 33.9422 205.54C33.7722 206.01 34.1522 204.94 33.9122 205.56C33.7822 205.9 34.3522 205.15 34.0722 205.38C33.8222 205.58 34.3722 205.18 34.3522 205.2C33.9922 205.43 34.3722 205.06 34.5322 205.14C34.5022 205.13 34.2822 205.2 34.2422 205.21C33.9422 205.31 34.5222 205.17 34.5422 205.17C34.4222 205.16 34.2522 205.2 34.1222 205.21C33.8222 205.24 33.5222 205.27 33.2222 205.29C32.7322 205.33 32.2422 205.35 31.7522 205.35C31.4922 205.35 31.2322 205.35 30.9622 205.33C30.8522 205.33 30.7422 205.31 30.6322 205.3C30.2522 205.28 31.2222 205.43 30.6622 205.3C30.3722 205.23 30.0922 205.15 29.8022 205.08C29.7122 205.06 29.3822 204.9 29.7622 205.08C30.2022 205.29 29.6522 205.01 29.6022 204.99C29.5222 204.95 29.4422 204.9 29.3622 204.85C29.0922 204.68 29.1122 204.5 29.4422 204.94C29.3222 204.78 29.1122 204.65 28.9722 204.49C28.8922 204.41 28.6222 204.08 28.9122 204.44C29.2022 204.8 28.9422 204.46 28.8822 204.37C28.8222 204.27 28.7722 204.15 28.7022 204.05C28.5222 203.76 28.8622 204.6 28.8022 204.27C28.7822 204.16 28.7422 204.04 28.7022 203.93C28.5822 203.63 28.7122 204.53 28.7322 204.21C28.7322 204.13 28.7322 204.03 28.7322 203.95C28.7022 203.35 28.5822 204.64 28.7322 204.04C29.0322 202.79 28.5422 201.28 27.3522 200.65C26.1622 200.02 24.6522 200.13 23.7122 201.12C23.6322 201.21 23.5422 201.29 23.4622 201.38C23.3822 201.46 22.9622 201.79 23.3522 201.5C23.7222 201.22 23.3722 201.48 23.2922 201.53C23.1922 201.6 23.0922 201.66 22.9822 201.72C22.8722 201.78 22.6722 201.85 22.5822 201.93C22.6622 201.85 23.1922 201.7 22.8022 201.84C22.5722 201.92 22.3422 201.99 22.1122 202.05C21.9622 202.09 21.8122 202.11 21.6722 202.14C21.3022 202.22 22.3022 202.11 21.9322 202.1C21.6922 202.1 21.4522 202.12 21.2122 202.11C20.7122 202.09 21.1622 202.09 21.3822 202.16C21.2722 202.13 21.1422 202.12 21.0322 202.09C20.9222 202.06 20.8022 202.03 20.6822 202C20.5622 201.97 20.0822 201.76 20.5322 201.97C20.9822 202.18 20.2822 201.84 20.1622 201.76C20.0622 201.7 19.9622 201.63 19.8622 201.57C19.5522 201.39 20.3522 202.01 19.9722 201.66C19.7922 201.5 19.6222 201.34 19.4522 201.16C19.3722 201.07 19.3022 200.97 19.2122 200.89C19.7022 201.35 19.4522 201.2 19.3122 200.99C19.1822 200.79 19.0622 200.58 18.9522 200.36C18.7222 199.91 18.9922 200.29 19.0022 200.5C19.0022 200.39 18.9222 200.26 18.8822 200.16C18.8122 199.93 18.7922 199.68 18.7122 199.46C18.9322 200.09 18.7622 199.93 18.7522 199.63C18.7522 199.48 18.7522 199.33 18.7522 199.18C18.7822 196.88 16.1922 195.47 14.2422 196.59C14.0222 196.71 13.8122 196.84 13.5922 196.95C13.4822 197.01 12.9822 197.17 12.9122 197.28C13.0422 197.05 13.4022 197.12 13.0322 197.22C12.8922 197.26 12.7622 197.31 12.6322 197.34C12.5322 197.37 12.4322 197.38 12.3322 197.41C11.9722 197.51 12.9722 197.39 12.4222 197.38C11.8722 197.37 13.0922 197.49 12.3322 197.35C12.0122 197.29 12.6122 197.44 12.6322 197.48C12.6322 197.48 12.4222 197.34 12.3922 197.33C12.4222 197.33 12.9722 197.84 12.6822 197.53C12.6022 197.44 12.4622 197.25 12.7322 197.63C13.1222 198.17 12.5822 197.44 12.6122 197.35C12.6522 197.24 12.7822 198.07 12.7922 197.74C12.7922 197.68 12.7522 197.59 12.7322 197.54C12.7322 197.54 12.6522 197.28 12.6722 197.26C12.7022 197.22 12.7222 198.12 12.7322 197.62C12.7322 197.45 12.7322 197.27 12.7322 197.1C12.7322 196.47 12.5722 197.77 12.7322 197.14C12.7722 196.96 12.8122 196.79 12.8722 196.62C12.9022 196.54 12.9622 196.41 12.9722 196.33C12.9722 196.32 12.6722 196.94 12.8222 196.69C12.9122 196.54 12.9822 196.37 13.0722 196.22C13.0922 196.18 13.2222 196.03 13.2322 195.97C13.1822 196.19 12.8122 196.48 13.1722 196.06C14.4722 194.54 16.2622 193.54 17.5722 192.04C19.2222 190.15 20.1122 187.9 21.0322 185.59C21.2322 185.09 21.3922 184.47 21.6822 184.01C21.6822 184.03 21.4622 184.52 21.6022 184.2C21.6422 184.1 21.6922 183.99 21.7322 183.89C21.8622 183.58 22.0022 183.26 22.1422 182.95C22.5822 181.94 23.0522 180.95 23.5322 179.96C24.5322 177.92 25.6322 175.92 26.8522 174.01C27.4222 173.12 28.0222 172.24 28.6422 171.39C28.7822 171.2 28.9322 171.01 29.0722 170.81C29.3822 170.39 29.0222 170.87 28.9722 170.93C29.0522 170.82 29.1422 170.71 29.2222 170.61C29.5422 170.21 29.8622 169.81 30.1922 169.42C31.4922 167.88 32.8922 166.42 34.3722 165.05C35.2222 164.26 36.1022 163.5 37.0122 162.78C37.1722 162.65 37.8822 162.18 37.2122 162.62C37.4422 162.47 37.6522 162.29 37.8722 162.13C38.3422 161.78 38.8122 161.45 39.2922 161.12C41.1822 159.83 43.1622 158.67 45.2122 157.65C46.6222 156.95 47.1222 154.84 46.2922 153.55C45.3622 152.11 43.6922 151.73 42.1922 152.47L42.1222 152.44Z" fill="black"/>
<path d="M181.523 155.03C188.813 158.62 195.173 164.09 199.823 170.76C202.863 175.11 205.153 179.94 207.123 184.87C207.803 186.57 208.463 188.33 209.643 189.73C211.073 191.44 213.153 192.52 214.493 194.3C215.833 196.08 215.973 199.16 213.953 200.09C212.493 200.76 210.813 199.94 209.423 199.13C209.493 201.48 207.983 203.8 205.803 204.68C203.623 205.56 200.923 204.95 199.333 203.22C199.853 205.1 198.393 207.06 196.583 207.79C194.773 208.52 192.753 208.35 190.823 208.16C190.293 208.11 189.743 208.05 189.303 207.76C188.713 207.37 188.443 206.65 188.203 205.97C186.073 199.82 183.953 193.67 181.823 187.52" fill="#98CA51"/>
<path d="M180.003 157.62C181.843 158.53 183.623 159.55 185.333 160.68C186.163 161.23 186.963 161.8 187.753 162.4C188.353 162.85 187.453 162.16 187.873 162.49C188.063 162.64 188.243 162.79 188.433 162.94C188.853 163.28 189.273 163.64 189.693 163.99C191.213 165.31 192.653 166.72 194.003 168.22C194.693 168.98 195.353 169.77 195.983 170.57C196.043 170.65 196.113 170.73 196.173 170.81C196.423 171.13 195.833 170.36 196.083 170.69C196.223 170.88 196.373 171.07 196.513 171.26C196.823 171.68 197.123 172.11 197.423 172.54C198.693 174.38 199.823 176.31 200.863 178.29C201.393 179.3 201.893 180.32 202.373 181.35C202.593 181.83 202.813 182.32 203.033 182.8C203.153 183.08 203.273 183.36 203.393 183.63C203.443 183.73 203.483 183.84 203.523 183.94C203.603 184.12 203.873 184.5 203.523 183.96C203.793 184.38 203.943 184.97 204.123 185.43C204.323 185.93 204.513 186.43 204.723 186.92C205.203 188.07 205.673 189.23 206.343 190.28C207.013 191.33 207.793 192.24 208.703 193.04C209.443 193.69 210.223 194.28 210.963 194.93C211.393 195.31 211.773 195.72 212.163 196.15C212.393 196.4 211.973 195.9 211.973 195.9C211.993 195.98 212.133 196.14 212.173 196.22C212.223 196.31 212.273 196.4 212.323 196.49C212.473 196.77 212.323 196.88 212.233 196.26C212.263 196.45 212.373 196.66 212.423 196.85C212.443 196.92 212.453 197 212.473 197.08C212.603 197.57 212.423 196.98 212.443 196.81C212.423 197 212.473 197.22 212.463 197.41C212.463 197.41 212.463 197.68 212.443 197.7C212.473 197.67 212.623 196.86 212.473 197.4C212.453 197.47 212.433 197.54 212.423 197.61C212.333 198.07 212.733 197.08 212.553 197.35C212.473 197.47 212.133 198.02 212.463 197.56C212.753 197.16 212.573 197.42 212.463 197.51C212.243 197.7 213.143 197.11 212.683 197.34C212.583 197.39 212.373 197.47 212.753 197.34C213.343 197.12 212.563 197.39 212.563 197.37C212.553 197.31 213.203 197.37 212.863 197.32C212.223 197.23 212.903 197.46 212.953 197.38C212.913 197.45 212.253 197.2 212.143 197.17C211.613 197.01 212.193 197.22 212.263 197.23C212.103 197.2 211.923 197.07 211.773 197C211.483 196.85 211.203 196.7 210.923 196.54C208.973 195.42 206.383 196.83 206.413 199.13C206.413 199.25 206.413 199.37 206.413 199.49C206.413 199.61 206.353 200.16 206.413 199.63C206.473 199.1 206.343 199.87 206.303 200.02C206.263 200.15 206.173 200.32 206.163 200.45C206.163 200.34 206.443 199.86 206.253 200.23C206.143 200.44 206.033 200.66 205.903 200.86C205.843 200.96 205.513 201.38 205.823 201C206.113 200.64 205.833 200.97 205.773 201.05C205.613 201.23 205.443 201.4 205.263 201.56C204.893 201.89 205.173 201.55 205.373 201.48C205.273 201.51 205.163 201.62 205.073 201.68C204.973 201.74 204.863 201.8 204.763 201.86C204.663 201.91 204.173 202.15 204.633 201.93C205.053 201.73 204.673 201.9 204.563 201.93C204.453 201.97 204.333 202 204.213 202.03C204.093 202.06 203.973 202.08 203.863 202.1C203.493 202.18 204.573 202.06 204.033 202.07C203.793 202.07 203.553 202.07 203.313 202.07C202.903 202.07 203.453 202.09 203.573 202.12C203.433 202.08 203.273 202.07 203.133 202.04C202.893 201.99 202.663 201.92 202.443 201.84C201.963 201.67 202.423 201.76 202.573 201.9C202.493 201.83 202.343 201.79 202.253 201.74C202.043 201.62 201.853 201.46 201.643 201.35C202.213 201.64 201.963 201.61 201.763 201.42C201.653 201.32 201.543 201.21 201.443 201.1C200.563 200.17 198.893 199.93 197.803 200.63C196.653 201.37 196.103 202.68 196.423 204.02C196.423 203.35 196.553 204.54 196.423 204.02C196.423 204.1 196.393 204.21 196.413 204.28C196.393 204.19 196.583 203.55 196.433 204C196.403 204.08 196.373 204.17 196.353 204.25C196.293 204.54 196.473 203.96 196.493 203.95C196.393 204.06 196.183 204.42 196.123 204.57C196.273 204.15 196.463 204.18 196.253 204.39C196.193 204.46 196.123 204.53 196.063 204.59C196.003 204.65 195.923 204.72 195.863 204.78C195.503 205.13 195.963 204.68 196.033 204.66C195.853 204.71 195.643 204.91 195.483 205C195.413 205.04 195.303 205.07 195.233 205.12C195.383 205 195.763 204.93 195.363 205.04C195.113 205.11 194.863 205.18 194.613 205.24C194.503 205.26 194.023 205.33 194.463 205.28C194.903 205.23 194.493 205.28 194.423 205.28C193.863 205.31 193.303 205.33 192.733 205.3C192.243 205.28 191.753 205.24 191.263 205.19C191.113 205.18 190.963 205.16 190.813 205.15C190.373 205.1 190.723 205.15 190.813 205.15C191.373 205.22 190.813 205.15 190.813 205.14C190.563 205.06 190.553 205.07 190.793 205.17C190.993 205.27 191.023 205.28 190.883 205.2C190.583 205.03 191.143 205.41 191.133 205.4C190.763 205.1 191.283 205.5 191.283 205.59C191.283 205.55 191.183 205.39 191.153 205.36C190.983 205.11 191.263 205.66 191.273 205.67C191.133 205.14 190.903 204.63 190.723 204.11C190.343 203.02 189.973 201.93 189.593 200.84C188.823 198.62 188.063 196.4 187.293 194.18C186.433 191.69 185.573 189.2 184.713 186.71C184.203 185.23 182.633 184.09 181.023 184.61C179.553 185.08 178.383 186.71 178.923 188.3C180.703 193.44 182.473 198.58 184.253 203.71C185.213 206.48 185.893 210.14 189.223 210.92C190.503 211.22 191.973 211.29 193.293 211.3C194.953 211.31 196.563 211.03 198.093 210.36C201.103 209.02 203.003 205.65 202.213 202.4L197.203 205.32C199.643 207.9 203.673 208.78 206.943 207.4C210.213 206.02 212.453 202.7 212.413 199.11C210.913 199.97 209.403 200.84 207.903 201.7C209.043 202.35 210.263 202.97 211.563 203.18C213.403 203.48 215.103 203.09 216.553 201.89C218.433 200.32 218.783 197.52 218.213 195.26C217.623 192.92 215.943 191.25 214.133 189.78C213.713 189.44 213.293 189.1 212.893 188.74C212.713 188.58 212.543 188.42 212.373 188.26C212.263 188.15 211.763 187.75 211.753 187.59C211.753 187.61 212.163 188.18 211.833 187.7C211.753 187.58 211.673 187.47 211.593 187.35C211.443 187.12 211.293 186.87 211.163 186.63C210.913 186.17 210.553 185.62 210.423 185.11C210.443 185.18 210.683 185.74 210.483 185.24C210.433 185.11 210.373 184.98 210.323 184.85C210.213 184.59 210.113 184.32 210.013 184.06C209.783 183.5 209.563 182.93 209.323 182.37C208.783 181.08 208.233 179.8 207.643 178.53C206.623 176.33 205.513 174.17 204.253 172.09C201.843 168.1 198.903 164.39 195.523 161.18C191.823 157.67 187.593 154.68 183.023 152.42C181.623 151.72 179.713 152 178.923 153.5C178.203 154.86 178.493 156.86 180.003 157.6V157.62Z" fill="black"/>
<path d="M98.3834 85.4201C98.0634 86.2201 98.2334 87.1701 98.3034 88.0501C98.4334 89.8701 98.5834 91.7001 98.7634 93.5201C99.2834 98.9201 99.8134 104.5 100.983 109.8C101.913 114.03 103.823 118.37 107.243 121.18C111.163 124.39 116.713 124.88 121.113 122.34C125.963 119.54 128.983 113.89 130.803 108.78C133.663 100.72 134.173 92.0501 134.423 83.5801C134.503 80.8301 130.973 81.0001 129.063 80.9601C125.493 80.9001 121.923 80.0801 118.733 78.4601C117.113 77.6301 114.623 75.5001 112.733 76.5201C112.073 76.8801 111.523 77.4201 110.963 77.9301C108.323 80.3401 105.163 82.1901 101.763 83.3101C100.773 83.6401 99.5834 83.9301 98.8334 84.7101C98.6234 84.9201 98.4834 85.1601 98.3934 85.4101L98.3834 85.4201Z" fill="#FF743E"/>
<path d="M95.9726 84.7601C95.5026 86.1401 95.7626 87.6301 95.8726 89.0501C95.9826 90.4601 96.1026 91.8701 96.2326 93.2801C96.4926 95.9701 96.7526 98.6601 97.0826 101.35C97.7226 106.56 98.4226 111.89 100.713 116.68C102.823 121.08 106.543 124.79 111.373 126.01C113.773 126.62 116.323 126.62 118.733 126.01C121.143 125.4 123.283 124.11 125.163 122.5C128.673 119.49 130.943 115.24 132.633 111C134.573 106.13 135.563 100.96 136.163 95.7701C136.463 93.1501 136.643 90.5101 136.763 87.8801C136.823 86.5701 136.873 85.2501 136.913 83.9401C136.953 82.6301 136.523 83.3501 135.603 82.3401C134.253 80.8501 132.733 80.7301 130.823 80.6701C129.923 80.6401 128.513 78.4801 127.613 78.4101C127.313 78.3901 127.023 78.3601 126.723 78.3301C126.653 78.3301 126.183 78.2601 126.503 78.3101C126.823 78.3601 126.353 78.2901 126.283 78.2801C125.623 78.1801 124.963 78.0501 124.313 77.8901C123.733 77.7501 123.163 77.5901 122.593 77.4001C122.313 77.3101 122.033 77.2101 121.753 77.1101C121.613 77.0601 121.473 77.0101 121.333 76.9501C121.233 76.9101 121.123 76.8701 121.023 76.8301C121.243 76.9201 121.273 76.9401 121.103 76.8601C120.173 76.4201 119.293 75.9401 118.413 75.4001C116.263 74.1001 113.663 73.0701 111.293 74.4901C110.163 75.1701 109.253 76.1801 108.243 77.0201C108.133 77.1101 108.023 77.2001 107.913 77.2901C107.393 77.7201 108.173 77.1101 107.833 77.3501C107.603 77.5101 107.383 77.6801 107.153 77.8401C106.663 78.1801 106.163 78.5101 105.653 78.8201C105.143 79.1301 104.623 79.4201 104.093 79.6901C103.843 79.8201 103.593 79.9401 103.333 80.0601C103.203 80.1201 103.083 80.1801 102.953 80.2401C102.743 80.3301 102.543 80.4201 102.873 80.2801C101.833 80.7101 100.753 81.0001 99.7126 81.4001C98.3026 81.9401 96.8326 85.6501 96.2326 84.1901C95.7126 82.9201 95.8426 86.9301 97.1326 87.6101C98.2226 88.1901 99.9826 87.9901 100.553 86.7101C100.613 86.5801 100.663 86.4701 100.733 86.3501C100.663 86.4601 100.443 86.6101 100.733 86.3901C100.293 86.7201 100.783 86.3701 100.973 86.2701C101.053 86.2301 101.143 86.1901 101.223 86.1501C101.533 85.9901 100.803 86.2901 101.143 86.1901C101.403 86.1101 101.663 86.0101 101.933 85.9201C103.113 85.5401 104.263 85.1001 105.393 84.6001C107.563 83.6401 109.523 82.3601 111.383 80.9001C111.793 80.5701 112.203 80.2301 112.593 79.8801C112.803 79.7001 113.003 79.5001 113.203 79.3201C113.303 79.2301 113.413 79.1401 113.513 79.0501C113.853 78.7401 113.333 79.1401 113.573 79.0001C113.663 78.9501 113.753 78.8901 113.833 78.8301C114.293 78.5001 113.763 78.9101 113.703 78.8501C113.673 78.8201 113.983 78.7901 114.003 78.7601C113.913 78.9501 113.433 78.7601 113.793 78.8001C113.833 78.8001 114.103 78.8101 114.103 78.8001C114.063 78.8501 113.473 78.6501 113.913 78.7801C114.123 78.8401 114.343 78.9001 114.553 78.9701C114.983 79.1201 114.463 78.9701 114.433 78.9201C114.463 78.9601 114.683 79.0401 114.753 79.0701C114.963 79.1801 115.173 79.2901 115.383 79.4101C115.783 79.6401 116.173 79.8901 116.573 80.1301C117.573 80.7401 118.633 81.2101 119.713 81.6601C122.033 82.6001 124.473 83.1301 126.963 83.3801C127.923 83.4801 128.873 83.5001 129.833 83.5101C130.153 83.5101 130.483 83.5201 130.803 83.5401C130.983 83.5501 131.163 83.5701 131.343 83.5801C131.533 83.5901 131.733 83.7001 131.083 83.5401C131.193 83.5701 131.303 83.5701 131.413 83.6001C131.563 83.6301 131.713 83.6601 131.853 83.7001C131.933 83.7201 132.013 83.7501 132.093 83.7701C132.453 83.8601 131.873 83.6801 131.843 83.6501C131.933 83.7301 132.143 83.8201 132.263 83.8801C132.393 83.9401 132.693 84.2501 132.033 83.7001C132.093 83.7501 132.143 83.8001 132.193 83.8601C131.683 83.2601 131.933 83.4801 132.003 83.6301C132.173 83.9701 131.903 83.3501 131.903 83.3501C131.903 83.3801 131.973 83.5701 131.973 83.5901C132.033 83.9101 131.883 83.4601 131.943 83.3201C131.883 83.4701 131.943 83.7901 131.943 83.9601C131.933 84.3101 131.923 84.6501 131.913 85.0001C131.833 87.4801 131.713 89.9601 131.513 92.4301C131.413 93.6301 131.303 94.8301 131.163 96.0201C131.123 96.3301 131.083 96.6401 131.053 96.9401C131.003 97.3401 131.103 96.5601 131.053 96.9701C131.033 97.0901 131.023 97.2001 131.003 97.3201C130.913 97.9701 130.813 98.6201 130.693 99.2701C130.283 101.67 129.733 104.05 129.013 106.38C128.683 107.44 128.323 108.49 127.913 109.52C127.823 109.75 127.733 109.98 127.633 110.21C127.523 110.47 127.673 110.39 127.663 110.13C127.663 110.19 127.573 110.33 127.553 110.39C127.333 110.88 127.113 111.37 126.873 111.86C126.423 112.78 125.933 113.68 125.393 114.55C125.143 114.96 124.873 115.36 124.603 115.75C124.473 115.93 124.343 116.11 124.213 116.29C123.943 116.66 124.213 116.3 124.253 116.24C124.173 116.37 124.053 116.49 123.953 116.61C123.313 117.39 122.623 118.12 121.873 118.79C121.713 118.94 121.543 119.07 121.373 119.22C121.013 119.53 121.403 119.22 121.443 119.18C121.383 119.25 121.223 119.34 121.143 119.4C120.713 119.71 120.263 120 119.803 120.26C119.603 120.37 119.403 120.48 119.193 120.58C119.053 120.65 118.403 121.05 118.903 120.72C118.513 120.98 117.883 121.08 117.433 121.2C117.183 121.26 116.933 121.32 116.683 121.37C116.633 121.37 116.303 121.43 116.303 121.43C116.303 121.41 116.933 121.37 116.403 121.42C115.893 121.47 115.393 121.5 114.883 121.49C114.633 121.49 114.373 121.47 114.123 121.45C113.993 121.45 113.373 121.35 113.703 121.41C114.063 121.48 113.653 121.4 113.563 121.38C113.443 121.36 113.313 121.33 113.193 121.31C112.913 121.25 112.633 121.18 112.363 121.1C112.123 121.03 111.873 120.95 111.633 120.87C111.533 120.84 110.913 120.58 111.223 120.72C111.533 120.86 110.913 120.57 110.823 120.53C110.533 120.39 110.253 120.23 109.973 120.06C109.783 119.94 109.583 119.82 109.403 119.69C109.293 119.62 109.193 119.54 109.083 119.46C108.783 119.26 109.393 119.73 109.123 119.49C108.723 119.15 108.323 118.81 107.953 118.43C107.603 118.08 107.283 117.71 106.973 117.33C106.683 116.98 106.953 117.3 107.003 117.37C106.923 117.26 106.843 117.16 106.773 117.05C106.603 116.81 106.433 116.56 106.273 116.32C105.713 115.46 105.253 114.55 104.823 113.62C104.623 113.19 104.803 113.6 104.843 113.67C104.783 113.56 104.743 113.42 104.693 113.3C104.593 113.05 104.503 112.81 104.413 112.56C104.233 112.06 104.073 111.56 103.923 111.05C103.253 108.75 102.853 106.37 102.493 104.01C102.453 103.73 102.413 103.46 102.373 103.18C102.353 103.02 102.323 102.86 102.303 102.71C102.303 102.64 102.223 102.15 102.263 102.45C102.303 102.75 102.233 102.25 102.233 102.19C102.213 102.07 102.203 101.95 102.183 101.83C102.133 101.43 102.083 101.04 102.033 100.64C101.883 99.4101 101.753 98.1801 101.633 96.9601C101.373 94.4101 101.123 91.8601 100.933 89.3101C100.883 88.6701 100.833 88.0301 100.783 87.3901C100.753 87.0901 100.753 86.7901 100.743 86.4901C100.743 86.4401 100.773 86.0801 100.743 86.3901C100.693 86.7601 100.843 86.1101 100.843 86.0901C101.263 84.8501 100.363 83.3001 99.0926 83.0101C97.7026 82.6901 96.4626 83.4301 96.0126 84.7601H95.9726Z" fill="black"/>
<path d="M92.9513 67.3602C96.0386 67.3602 98.5413 64.8574 98.5413 61.7702C98.5413 58.6829 96.0386 56.1802 92.9513 56.1802C89.8641 56.1802 87.3613 58.6829 87.3613 61.7702C87.3613 64.8574 89.8641 67.3602 92.9513 67.3602Z" fill="black"/>
<path d="M137.322 67.3602C140.41 67.3602 142.912 64.8574 142.912 61.7702C142.912 58.6829 140.41 56.1802 137.322 56.1802C134.235 56.1802 131.732 58.6829 131.732 61.7702C131.732 64.8574 134.235 67.3602 137.322 67.3602Z" fill="black"/>
<path d="M148.871 81.63C148.611 80.27 147.301 79.39 145.951 79.64C145.781 79.68 128.431 82.8 116.851 72.78C116.481 72.46 116.041 72.27 115.581 72.2V72.17C115.511 72.17 115.441 72.17 115.371 72.18C115.301 72.18 115.231 72.16 115.161 72.17V72.2C114.711 72.27 114.261 72.46 113.891 72.78C102.311 82.8 84.9713 79.68 84.7913 79.64C83.4413 79.38 82.1313 80.27 81.8713 81.63C81.6113 82.99 82.5013 84.3 83.8613 84.55C84.1113 84.6 86.0713 84.96 89.0713 85.1C95.1813 85.39 105.561 84.76 114.381 78.71C114.981 78.29 115.771 78.29 116.371 78.71C125.191 84.76 135.571 85.39 141.681 85.1C144.681 84.96 146.641 84.6 146.891 84.55C148.251 84.29 149.141 82.98 148.881 81.63H148.871Z" fill="black"/>
</g>
<defs>
<clipPath id="clip0_873_2745">
<rect width="222.91" height="247.04" fill="white" transform="translate(0.492188 0.320068)"/>
</clipPath>
</defs>
</svg>
