<svg width="119" height="118" viewBox="0 0 119 118" fill="none" xmlns="http://www.w3.org/2000/svg">
<path d="M59.9531 116.746C91.8476 116.746 117.703 90.8905 117.703 58.9961C117.703 27.1017 91.8476 1.24609 59.9531 1.24609C28.0587 1.24609 2.20312 27.1017 2.20312 58.9961C2.20312 90.8905 28.0587 116.746 59.9531 116.746Z" fill="#77B7E6"/>
<path d="M100.046 64.2904C99.8556 63.237 99.5874 62.2031 99.2607 61.1839C99.2607 61.1839 97.9635 54.6832 87.9321 46.3733C88.3027 45.1688 88.5075 43.896 88.5075 42.5744C88.5075 35.3129 82.4555 29.4268 74.9942 29.4268C68.6105 29.4268 63.2608 33.7378 61.8514 39.5264C61.6271 39.4825 60.5103 39.4923 60.0617 39.4972C59.613 39.4923 58.4963 39.4825 58.2719 39.5264C56.8577 33.7329 51.5128 29.4268 45.1292 29.4268C37.6678 29.4268 31.6158 35.3129 31.6158 42.5744C31.6158 43.896 31.8206 45.1737 32.1913 46.3733C22.1599 54.6881 20.8627 61.1839 20.8627 61.1839C20.5359 62.2031 20.2677 63.2419 20.0775 64.2904C19.2582 68.8013 20.0531 73.4147 22.7061 77.2331C23.7302 78.7059 24.9737 80.0275 26.3587 81.1882C27.6803 82.2854 29.119 83.251 30.6307 84.0849C36.2341 87.1768 42.5787 88.2009 48.8989 88.8495C50.6057 89.025 52.3175 89.1908 54.0292 89.3323C57.3746 89.6102 60.6859 89.7468 64.0411 89.5029C64.8604 89.4444 65.6796 89.3469 66.4989 89.2933C67.367 89.2347 68.2692 89.1908 69.1275 89.0543C69.8297 88.9909 70.5271 88.9129 71.2245 88.8495C77.5496 88.2009 83.8893 87.1768 89.4975 84.0849C91.0093 83.251 92.4479 82.2854 93.7695 81.1882C95.1545 80.0275 96.4029 78.7059 97.4222 77.2331C100.07 73.4098 100.865 68.8013 100.051 64.2904H100.046Z" fill="#98CA51"/>
<path d="M60.4118 90.9424C58.4709 90.9424 56.3593 90.8448 53.9161 90.64C52.3653 90.5132 50.6779 90.3523 48.7565 90.1523C42.4655 89.5037 35.843 88.4601 29.9909 85.2317C28.3621 84.3344 26.8552 83.3103 25.5141 82.1984C23.9779 80.9159 22.671 79.4967 21.6225 77.9801C18.8818 74.0251 17.8723 69.0801 18.7842 64.0571C18.9744 63.0086 19.2475 61.9259 19.5938 60.8384C19.7888 59.9996 21.5006 53.7526 30.7029 45.906C30.4396 44.8136 30.303 43.6919 30.303 42.5654C30.303 34.5969 36.95 28.1108 45.1234 28.1108C51.6484 28.1108 57.3054 32.1975 59.2463 38.1764C59.4755 38.1764 59.7486 38.1764 60.0753 38.1764C60.3875 38.1764 60.6508 38.1715 60.8702 38.1764C62.8112 32.1975 68.4682 28.1108 74.9932 28.1108C83.1666 28.1108 89.8135 34.5969 89.8135 42.5654C89.8135 43.6919 89.677 44.8136 89.4136 45.906C98.616 53.7477 100.328 59.9948 100.523 60.8384C100.869 61.9259 101.142 63.0086 101.332 64.0571C102.244 69.0801 101.235 74.0251 98.4941 77.9801C97.4456 79.4967 96.1337 80.911 94.6024 82.1936C93.2565 83.3103 91.7496 84.3344 90.1208 85.2317C84.2687 88.4601 77.6412 89.5037 71.3503 90.1523C70.9504 90.1865 70.5749 90.2255 70.1945 90.2645C69.8922 90.2938 69.5849 90.3279 69.2826 90.3572C68.4925 90.4791 67.6928 90.5327 66.9174 90.5815L66.576 90.601C66.142 90.6303 65.7031 90.6693 65.2642 90.7083C64.8838 90.7424 64.5083 90.7766 64.1279 90.8058C62.9282 90.8936 61.709 90.9375 60.407 90.9375L60.4118 90.9424ZM45.1234 30.7296C38.3935 30.7296 32.9169 36.0404 32.9169 42.5703C32.9169 43.7309 33.0925 44.877 33.4339 45.984L33.6923 46.8179L33.0194 47.3738C23.5537 55.2205 22.1492 61.3846 22.1394 61.4432L22.1053 61.5797C21.7834 62.5746 21.5347 63.5645 21.3591 64.5204C20.574 68.8558 21.4323 73.1082 23.7731 76.4878C24.6899 77.8094 25.8408 79.053 27.1917 80.1843C28.406 81.1938 29.7763 82.1204 31.2589 82.9397C36.7013 85.9437 43.0166 86.9288 49.0296 87.5482C50.9315 87.7433 52.6042 87.9042 54.1355 88.031C58.071 88.3577 61.0946 88.4114 63.9426 88.1968C64.3034 88.1675 64.6692 88.1383 65.0301 88.1041C65.4885 88.0602 65.9518 88.0212 66.4102 87.9871L66.7564 87.9627C67.4831 87.9188 68.2341 87.87 68.9168 87.7628L68.9997 87.753C69.3118 87.7237 69.6239 87.6945 69.9312 87.6603C70.3213 87.6213 70.7114 87.5823 71.1016 87.5482C77.0999 86.9288 83.4153 85.9437 88.8577 82.9397C90.3402 82.1204 91.7106 81.1938 92.9249 80.1843C94.2708 79.0578 95.4217 77.8143 96.3386 76.4927C98.6794 73.1131 99.5377 68.8606 98.7525 64.5252C98.5818 63.5694 98.3283 62.5843 98.0064 61.5846L97.9674 61.4383C97.9576 61.3846 96.5531 55.2205 87.0874 47.3738L86.4144 46.8179L86.6729 45.984C87.0143 44.877 87.1898 43.7261 87.1898 42.5703C87.1898 36.0404 81.7133 30.7296 74.9834 30.7296C69.2972 30.7296 64.4156 34.4749 63.1087 39.8344L62.8112 41.0488L61.6213 40.8147C61.4847 40.8049 60.9775 40.7903 60.0656 40.8C59.1244 40.7903 58.6172 40.8 58.4758 40.8147L57.2859 41.0488L56.9884 39.8344C55.6814 34.4749 50.795 30.7296 45.1136 30.7296H45.1234ZM58.5197 40.8049H58.5148C58.5148 40.8049 58.5148 40.8049 58.5197 40.8049ZM61.5969 40.8049C61.5969 40.8049 61.5969 40.8049 61.6018 40.8049H61.5969Z" fill="black"/>
<g style="mix-blend-mode:multiply" opacity="0.6">
<path d="M67.834 40.0491C67.6438 38.1374 66.3856 36.333 64.947 35.1138C62.9719 33.4362 60.8993 34.1482 58.9974 35.5625C57.6124 36.5915 54.6083 38.6348 55.7397 40.7172C56.6809 42.4533 58.0513 43.8139 59.4948 45.1257C60.5335 46.0718 61.621 47.0764 63.128 46.5838C65.2444 45.8913 67.3756 43.5944 67.7803 41.4194C67.8681 40.961 67.8827 40.4977 67.834 40.0442V40.0491Z" fill="#B2B6B5"/>
</g>
<path d="M66.5664 38.7232C66.3762 36.8116 65.118 35.0072 63.6794 33.788C61.7043 32.1153 59.6317 32.8224 57.7298 34.2367C56.3448 35.2656 53.3408 37.309 54.4722 39.3913C55.4134 41.1274 56.7788 42.4881 58.2272 43.7999C59.266 44.746 60.3535 45.7506 61.8604 45.258C63.9769 44.5655 66.1031 42.2686 66.5128 40.0936C66.6005 39.6352 66.6152 39.1719 66.5664 38.7184V38.7232Z" fill="#908882"/>
<path d="M61.0804 45.4967C59.9295 45.4967 59.0371 44.6872 58.1739 43.902L58.1544 43.8825C56.8474 42.6926 55.3649 41.2686 54.3798 39.4447C53.263 37.3867 55.9794 35.3921 57.4375 34.3193L57.6667 34.1486C58.9737 33.1781 60.1392 32.7051 61.217 32.7051C62.1143 32.7051 62.9677 33.0416 63.748 33.7048C65.4061 35.1093 66.4984 36.982 66.674 38.7083C66.7228 39.1862 66.7033 39.6593 66.6155 40.1128C66.2058 42.2878 64.0893 44.6384 61.8899 45.3601C61.6168 45.4479 61.3438 45.4967 61.0755 45.4967H61.0804ZM61.2218 32.9245C60.188 32.9245 59.0712 33.3829 57.7984 34.3241L57.5692 34.4948C56.1647 35.5287 53.5459 37.4501 54.57 39.3423C55.5405 41.1369 57.0084 42.5463 58.3007 43.7216L58.3202 43.7411C59.1541 44.497 60.0124 45.2821 61.0804 45.2821C61.3242 45.2821 61.5778 45.2382 61.8266 45.1602C63.9577 44.4628 66.0108 42.1854 66.4058 40.0787C66.4887 39.6446 66.5033 39.1911 66.4594 38.7376C66.2936 37.0649 65.2305 35.2458 63.6114 33.8755C62.8702 33.2464 62.0655 32.9294 61.217 32.9294L61.2218 32.9245Z" fill="#626262"/>
<path d="M61.0794 45.8673C59.7871 45.8673 58.7971 44.97 57.9242 44.1751C56.5734 42.9462 55.0665 41.4978 54.0521 39.6203C52.7842 37.2746 55.6663 35.1581 57.2171 34.0169L57.4463 33.8462C58.8215 32.827 60.0553 32.3296 61.2209 32.3296C62.2108 32.3296 63.1423 32.6953 63.9957 33.4171C65.7269 34.885 66.8681 36.8454 67.0485 38.6693C67.0973 39.1814 67.0778 39.6885 66.9851 40.1811C66.556 42.4731 64.3225 44.9554 62.0109 45.7113C61.6988 45.8137 61.3867 45.8625 61.0794 45.8625V45.8673ZM61.2209 33.2952C60.2699 33.2952 59.2263 33.7292 58.0217 34.6216L57.7877 34.7923C56.471 35.7579 54.0277 37.5574 54.8958 39.1619C55.8419 40.9028 57.2756 42.2878 58.5484 43.4436C59.3482 44.1702 60.1529 44.9017 61.0746 44.9017C61.2794 44.9017 61.4891 44.8676 61.7037 44.7945C63.7177 44.1361 65.6587 41.9855 66.0342 40.0007C66.1073 39.6008 66.1268 39.1862 66.083 38.762C65.9269 37.1819 64.9077 35.4556 63.3666 34.1486C62.6936 33.578 61.9719 33.2903 61.216 33.2903L61.2209 33.2952Z" fill="#0F0F0F"/>
<g style="mix-blend-mode:multiply" opacity="0.4">
<path d="M66.5664 38.7232C66.3762 36.8116 65.118 35.0072 63.6794 33.788C61.7043 32.1153 59.6317 32.8224 57.7298 34.2367C56.3448 35.2656 53.3408 37.309 54.4722 39.3913C55.4134 41.1274 56.7788 42.4881 58.2272 43.7999C59.266 44.746 60.3535 45.7506 61.8604 45.258C63.9769 44.5655 66.1031 42.2686 66.5128 40.0936C66.6005 39.6352 66.6152 39.1719 66.5664 38.7184V38.7232ZM62.2261 40.3911C62.153 41.3323 62.0554 43.4244 60.8119 43.6341C59.8756 43.7901 58.8368 42.7904 58.2175 42.2198C57.2129 41.2981 56.101 40.4008 55.3597 39.245C55.0476 38.7574 54.8135 38.2941 54.994 37.7138C55.1451 37.2261 55.6231 36.8359 55.9888 36.5141C56.6911 35.9094 57.3982 35.2998 58.1638 34.7731C58.8953 34.0952 59.7341 33.393 60.7387 33.4613C61.7092 33.5247 61.9091 34.7536 62.0262 35.5144C62.2749 37.109 62.348 38.7769 62.2261 40.3813V40.3911Z" fill="#908882"/>
</g>
<g style="mix-blend-mode:multiply" opacity="0.4">
<path d="M55.0227 38.5918C54.9447 38.3772 54.9154 38.1528 54.9544 37.9139C54.735 37.8456 54.5204 37.792 54.3448 37.7773C54.2278 38.1431 54.1985 38.5137 54.2912 38.8941C54.535 38.7917 54.7837 38.6942 55.0276 38.5966L55.0227 38.5918Z" fill="#908882"/>
</g>
<g style="mix-blend-mode:multiply" opacity="0.4">
<path d="M61.0501 43.5659C60.977 43.5952 60.899 43.6196 60.8161 43.6342C60.7234 43.6488 60.6259 43.6537 60.5332 43.6439C60.5771 44.2243 60.6502 44.7948 60.7673 45.3605C61.1087 45.4093 61.4695 45.3849 61.8645 45.2533C61.9036 45.2386 61.9377 45.224 61.9767 45.2094C61.6402 44.6729 61.3232 44.1267 61.055 43.561L61.0501 43.5659Z" fill="#908882"/>
</g>
<g style="mix-blend-mode:multiply" opacity="0.4">
<path d="M62.221 37.207C62.3039 38.2701 62.3088 39.343 62.2259 40.3914C62.1869 40.9035 62.1381 41.7618 61.8992 42.4689C62.5819 42.1276 63.3427 41.8935 63.9864 41.5862C64.8544 41.1717 65.6688 40.6597 66.493 40.1622C66.493 40.1427 66.5028 40.1183 66.5076 40.0988C66.5954 39.6404 66.6101 39.1771 66.5613 38.7236C66.3711 36.8119 65.1129 35.0076 63.6743 33.7884C63.0208 33.2324 62.3576 32.9398 61.6895 32.8521C61.9284 34.1639 62.2649 35.4367 62.2308 36.8071C62.2308 36.9387 62.221 37.0753 62.2161 37.207H62.221Z" fill="#908882"/>
</g>
<g style="mix-blend-mode:screen" opacity="0.4">
<path d="M61.5917 34.0269C61.8599 34.4658 61.9574 35.0753 62.0257 35.5191C62.2744 37.1138 62.3476 38.7816 62.2256 40.3861C62.1525 41.3273 62.055 43.4194 60.8114 43.6291C60.7773 43.634 60.7431 43.634 60.709 43.6389C61.0796 43.7218 61.4502 43.6974 61.7721 43.4877C62.8108 42.8147 62.8742 41.2688 62.9279 40.1618C62.9913 38.845 63.0498 37.5332 62.806 36.2311C62.6304 35.3046 62.4061 34.4072 61.5868 34.0269H61.5917Z" fill="white"/>
</g>
<g style="mix-blend-mode:multiply" opacity="0.4">
<path d="M57.3639 36.5471C57.2762 36.4788 57.1835 36.4984 57.1006 36.5471C57.0031 36.5764 56.925 36.6593 56.8763 36.7568C56.8031 36.9031 56.7495 37.1762 56.9348 37.2542C57.0274 37.2933 57.1786 37.2152 57.2371 37.1518C57.3396 37.0494 57.4127 36.9421 57.442 36.7958C57.4566 36.7178 57.4225 36.5959 57.3591 36.5471H57.3639Z" fill="#908882"/>
</g>
<g style="mix-blend-mode:multiply" opacity="0.4">
<path d="M57.8265 37.5037C57.8265 37.5037 57.807 37.489 57.7973 37.4793C57.6705 37.3915 57.4364 37.65 57.5193 37.767C57.5242 37.7768 57.5339 37.7865 57.5437 37.8011C57.6705 37.9816 57.9777 37.6061 57.8314 37.5037H57.8265Z" fill="#908882"/>
</g>
<g style="mix-blend-mode:multiply" opacity="0.4">
<path d="M59.0015 39.5466C59.0015 39.5466 58.987 39.532 58.9725 39.5223C58.9435 39.4979 58.8855 39.5661 58.9048 39.5954C58.8951 39.6149 58.8951 39.6344 58.9145 39.6344C58.9241 39.6344 58.9386 39.6344 58.9483 39.6344C58.9821 39.6344 59.0305 39.571 59.0015 39.5418V39.5466Z" fill="#908882"/>
</g>
<g style="mix-blend-mode:multiply" opacity="0.4">
<path d="M64.4589 40.376C64.4589 40.376 64.4394 40.376 64.4296 40.376C64.4296 40.376 64.4199 40.3808 64.415 40.3857C64.415 40.3857 64.4052 40.3857 64.4004 40.3955C64.4004 40.3955 64.4004 40.3955 64.3955 40.3955C64.3906 40.4003 64.3857 40.4101 64.376 40.4199C64.376 40.4199 64.376 40.4247 64.376 40.4296C64.376 40.4345 64.3711 40.4442 64.3711 40.4491C64.3711 40.4491 64.3711 40.4491 64.3711 40.454C64.3711 40.4686 64.3711 40.4784 64.3906 40.4833H64.4004C64.4004 40.4833 64.4247 40.4833 64.4345 40.4735C64.4833 40.4637 64.5369 40.3662 64.4686 40.3662L64.4589 40.376Z" fill="#908882"/>
</g>
<g style="mix-blend-mode:multiply" opacity="0.4">
<path d="M64.8238 38.0738C64.8287 38.0055 64.8189 37.9421 64.7848 37.8982C64.7653 37.8739 64.7458 37.869 64.7165 37.8787C64.6824 37.8885 64.6531 37.908 64.6287 37.9324C64.6287 37.9031 64.6043 37.8885 64.5702 37.9226C64.5166 37.9811 64.4922 38.0689 64.4922 38.1469C64.4922 38.2152 64.5166 38.3469 64.6092 38.342C64.7116 38.342 64.7848 38.2347 64.8092 38.1274C64.8189 38.1079 64.8189 38.0884 64.8189 38.0738H64.8238Z" fill="#908882"/>
</g>
<g style="mix-blend-mode:multiply" opacity="0.4">
<path d="M65.2542 39.5419C65.2298 39.4834 65.1566 39.5663 65.142 39.5955C65.0591 39.6785 65.1225 39.7809 65.2152 39.6833C65.2542 39.6443 65.2786 39.5955 65.2542 39.5419Z" fill="#908882"/>
</g>
<g style="mix-blend-mode:multiply" opacity="0.4">
<path d="M64.9997 41.5807C64.946 41.5661 64.8924 41.5807 64.8436 41.6246C64.7461 41.6148 64.6876 41.7124 64.6534 41.7953C64.6193 41.8782 64.5949 42.0098 64.6729 42.0732C64.7656 42.1513 64.907 42.0488 64.9655 41.9806C64.985 41.9611 64.985 41.9562 64.985 41.9562C64.9997 41.9416 65.0094 41.9269 65.0192 41.9074C65.0436 41.8635 65.0582 41.8245 65.0679 41.7758C65.0826 41.7026 65.0728 41.6051 64.9948 41.5807H64.9997Z" fill="#908882"/>
</g>
<g style="mix-blend-mode:multiply" opacity="0.4">
<path d="M62.5716 43.9454C62.5716 43.9454 62.5569 43.9503 62.5472 43.9551C62.5228 43.9649 62.4643 44.0283 62.5033 44.0527C62.5082 44.0527 62.513 44.0576 62.5179 44.0624C62.6057 44.1112 62.6545 43.9161 62.5716 43.9454Z" fill="#908882"/>
</g>
<g style="mix-blend-mode:multiply" opacity="0.4">
<path d="M59.095 43.7458C59.0852 43.6921 59.0267 43.7116 58.9877 43.7507C58.9877 43.7507 58.9828 43.7458 58.9779 43.7409C58.934 43.7116 58.8804 43.7897 58.895 43.8287C58.9292 43.9165 58.9779 44.0189 59.0803 43.9555C59.1194 43.9311 59.1486 43.8872 59.1535 43.8482C59.1584 43.7946 59.0999 43.7897 59.095 43.7458Z" fill="#908882"/>
</g>
<g style="mix-blend-mode:multiply" opacity="0.4">
<path d="M55.9638 40.3759C55.9638 40.3759 55.9638 40.3612 55.954 40.3564C55.9248 40.2979 55.8809 40.2491 55.8175 40.2345C55.7492 40.2198 55.6809 40.3125 55.6858 40.371C55.6858 40.4051 55.7004 40.4295 55.7151 40.4539C55.7151 40.5466 55.7687 40.6441 55.8614 40.6636C55.9004 40.6734 55.9394 40.6343 55.9589 40.6051C55.993 40.5417 55.993 40.449 55.9589 40.371L55.9638 40.3759Z" fill="#908882"/>
</g>
<g style="mix-blend-mode:multiply" opacity="0.4">
<path d="M58.4991 41.19C58.4991 41.19 58.4894 41.2047 58.4845 41.2144C58.4698 41.2144 58.4503 41.2144 58.4357 41.2144C58.3382 41.2437 58.3187 41.3558 58.3284 41.4436C58.3431 41.5558 58.4357 41.6436 58.5381 41.6777C58.6552 41.7216 58.7722 41.6046 58.8454 41.5265C59.0355 41.3071 58.7137 40.9462 58.4991 41.1852V41.19Z" fill="#908882"/>
</g>
<g style="mix-blend-mode:multiply" opacity="0.4">
<path d="M61.221 35.4648C61.1479 35.4648 61.0991 35.5039 61.0601 35.5624C61.0552 35.5624 61.0455 35.5624 61.0406 35.5673C60.9333 35.616 60.8748 35.8062 60.9626 35.894C61.2698 36.2061 61.4502 35.4648 61.221 35.4648Z" fill="#908882"/>
</g>
<g style="mix-blend-mode:multiply" opacity="0.4">
<path d="M57.528 34.6552C57.4988 34.6698 57.4744 34.6893 57.45 34.7088C57.3866 34.7234 57.333 34.8015 57.3135 34.8551C57.3086 34.8697 57.3037 34.8941 57.3183 34.9087C57.411 34.9819 57.6061 34.7819 57.5866 34.6844C57.5817 34.6552 57.5524 34.6405 57.5232 34.6552H57.528Z" fill="#908882"/>
</g>
<g style="mix-blend-mode:multiply" opacity="0.4">
<path d="M55.9394 38.4939C55.9394 38.4939 55.8955 38.4842 55.876 38.4939C55.876 38.4842 55.8711 38.4793 55.8662 38.4695C55.8614 38.4598 55.8467 38.45 55.8321 38.4549C55.7102 38.4842 55.7053 38.6305 55.7785 38.7134C55.8516 38.7963 56.0272 38.5817 55.9394 38.4939Z" fill="#908882"/>
</g>
<g style="mix-blend-mode:multiply" opacity="0.4">
<path d="M63.6387 36.4263C63.6387 36.4263 63.5948 36.4165 63.5753 36.436C63.5705 36.436 63.5656 36.436 63.5558 36.436C63.4729 36.4799 63.4242 36.675 63.5266 36.7237C63.5851 36.753 63.6387 36.6945 63.6631 36.6457C63.707 36.5726 63.6875 36.4848 63.6387 36.4214V36.4263Z" fill="#908882"/>
</g>
<g style="mix-blend-mode:multiply" opacity="0.4">
<path d="M64.0749 35.5337C64.0749 35.5337 64.0603 35.5239 64.0505 35.5141C64.0261 35.4703 63.9481 35.5385 63.9579 35.5824C63.9676 35.6166 63.9676 35.6263 64.0018 35.6361C64.0457 35.6507 64.1188 35.558 64.0749 35.5288V35.5337Z" fill="#908882"/>
</g>
<g style="mix-blend-mode:multiply" opacity="0.4">
<path d="M62.3811 33.5783C62.3811 33.5783 62.3811 33.5539 62.3714 33.549C62.3567 33.5393 62.347 33.5295 62.3421 33.51C62.3421 33.51 62.3421 33.5051 62.3372 33.5003C62.3128 33.471 62.2738 33.5149 62.2543 33.5539C62.2543 33.5441 62.2543 33.5344 62.2543 33.5246C62.2592 33.5051 62.2348 33.5149 62.2299 33.5246C62.2104 33.5734 62.2787 33.7538 62.347 33.7295C62.4153 33.7051 62.4104 33.6368 62.3811 33.5783Z" fill="#908882"/>
</g>
<g style="mix-blend-mode:multiply" opacity="0.4">
<path d="M65.7421 37.4407C65.7421 37.4407 65.7372 37.4309 65.7323 37.4309C65.7567 37.3675 65.6884 37.3578 65.6494 37.3919C65.6201 37.4163 65.5763 37.5139 65.6494 37.509C65.664 37.509 65.6787 37.5138 65.6933 37.5187C65.7274 37.5285 65.7713 37.4651 65.7469 37.4407H65.7421Z" fill="#908882"/>
</g>
<g style="mix-blend-mode:multiply" opacity="0.4">
<path d="M63.4884 40.2436C63.4884 40.2436 63.4641 40.2875 63.4543 40.3119C63.4397 40.3265 63.425 40.3509 63.4348 40.3655C63.4348 40.3655 63.4348 40.3655 63.4348 40.3704C63.4446 40.385 63.4641 40.385 63.4787 40.3704C63.5275 40.3363 63.5567 40.307 63.5762 40.2436C63.6006 40.1656 63.508 40.19 63.4836 40.2387L63.4884 40.2436Z" fill="#908882"/>
</g>
<g style="mix-blend-mode:multiply" opacity="0.4">
<path d="M63.1471 42.7605C63.1471 42.7605 63.1471 42.741 63.1373 42.7361C63.0252 42.6581 62.952 42.9361 63.1032 42.858C63.1276 42.8434 63.1617 42.7898 63.1471 42.7605Z" fill="#908882"/>
</g>
<path d="M51.7269 53.3288C52.8716 53.3288 53.7995 52.4009 53.7995 51.2562C53.7995 50.1115 52.8716 49.1836 51.7269 49.1836C50.5822 49.1836 49.6543 50.1115 49.6543 51.2562C49.6543 52.4009 50.5822 53.3288 51.7269 53.3288Z" fill="black"/>
<path d="M68.1761 53.3288C69.3208 53.3288 70.2487 52.4009 70.2487 51.2562C70.2487 50.1115 69.3208 49.1836 68.1761 49.1836C67.0315 49.1836 66.1035 50.1115 66.1035 51.2562C66.1035 52.4009 67.0315 53.3288 68.1761 53.3288Z" fill="black"/>
<path d="M54.1895 60.7422C54.0724 61.0445 54.1358 61.3957 54.1602 61.7224C54.209 62.4051 54.2675 63.083 54.3309 63.7657C54.526 65.7798 54.7259 67.8622 55.16 69.8421C55.5062 71.4222 56.2182 73.0412 57.4959 74.0897C58.9589 75.2894 61.0315 75.4699 62.6701 74.5238C64.4793 73.4802 65.6059 71.3685 66.2837 69.4617C67.3517 66.4528 67.5419 63.2196 67.6346 60.0546C67.6638 59.0305 66.3471 59.089 65.6351 59.0792C64.3038 59.0597 62.9676 58.7525 61.7825 58.1478C61.1778 57.8405 60.2464 57.0408 59.5441 57.426C59.2954 57.5577 59.0906 57.7625 58.8858 57.9527C57.9007 58.8549 56.7205 59.5425 55.4526 59.9619C55.0819 60.0838 54.6381 60.196 54.3602 60.4837C54.2821 60.5618 54.2285 60.6495 54.1944 60.7422H54.1895Z" fill="#FF743E"/>
<path d="M53.2924 60.4935C53.1168 61.0104 53.2144 61.5664 53.2582 62.0931C53.3021 62.6198 53.3411 63.1464 53.3948 63.6682C53.4923 64.6728 53.5899 65.6774 53.7118 66.682C53.9507 68.6279 54.2141 70.6176 55.0675 72.4024C55.8527 74.0459 57.2425 75.4309 59.0469 75.8844C59.9442 76.1087 60.8952 76.1087 61.7925 75.8844C62.6898 75.6601 63.4945 75.1773 64.1918 74.5774C65.5037 73.4509 66.3522 71.8709 66.9813 70.2859C67.7031 68.4669 68.0737 66.5406 68.298 64.5997C68.4102 63.6195 68.4785 62.6393 68.5223 61.6542C68.5467 61.1665 68.5614 60.6739 68.576 60.1814C68.5906 59.6888 68.4297 59.9619 68.0883 59.5864C67.5811 59.0305 67.0154 58.9866 66.3034 58.9622C65.9669 58.9525 65.4403 58.1429 65.1038 58.1186C64.9916 58.1088 64.8843 58.099 64.7722 58.0893C64.7429 58.0893 64.5673 58.0649 64.6893 58.0795C64.8112 58.0942 64.6356 58.0698 64.6063 58.0649C64.3576 58.0259 64.1138 57.9771 63.87 57.9186C63.6554 57.865 63.4408 57.8064 63.2311 57.7382C63.1238 57.704 63.0214 57.665 62.9141 57.6309C62.8605 57.6114 62.8117 57.5919 62.7581 57.5724C62.7191 57.5577 62.68 57.5431 62.641 57.5236C62.7239 57.5577 62.7337 57.5626 62.6703 57.5382C62.324 57.3724 61.9973 57.192 61.6657 56.9969C60.861 56.5092 59.8906 56.1289 59.0079 56.6604C58.5836 56.914 58.2471 57.2895 57.8716 57.6016C57.8326 57.6358 57.7887 57.665 57.7497 57.6992C57.5546 57.8601 57.8472 57.6309 57.7204 57.7235C57.6375 57.7821 57.5497 57.8503 57.4668 57.9089C57.2864 58.0356 57.0962 58.1576 56.906 58.2746C56.7158 58.3916 56.5208 58.4989 56.3208 58.5965C56.2282 58.6452 56.1355 58.6891 56.038 58.733C55.9892 58.7574 55.9453 58.7769 55.8965 58.7964C55.8185 58.8305 55.7454 58.8598 55.8673 58.811C55.482 58.972 55.0773 59.0793 54.6871 59.2304C54.1604 59.4304 53.6094 60.8202 53.385 60.2692C53.19 59.7961 53.2436 61.2933 53.7215 61.5469C54.1263 61.7615 54.7847 61.6883 54.9992 61.2104C55.0187 61.1616 55.0431 61.1226 55.0675 61.0738C55.0431 61.1177 54.9602 61.1714 55.0675 61.0885C54.9017 61.2153 55.087 61.0787 55.1553 61.0446C55.1845 61.0299 55.2187 61.0153 55.2479 61.0007C55.365 60.9373 55.0919 61.0543 55.2187 61.0153C55.3162 60.9861 55.4137 60.947 55.5113 60.9178C55.9502 60.7764 56.3793 60.6105 56.8036 60.4252C57.6131 60.0644 58.3447 59.5913 59.0371 59.0451C59.1932 58.9232 59.3395 58.7964 59.4858 58.6647C59.5638 58.5965 59.637 58.5233 59.715 58.455C59.754 58.4209 59.793 58.3868 59.832 58.3526C59.9588 58.2356 59.7638 58.3868 59.8564 58.3331C59.8906 58.3136 59.9247 58.2892 59.954 58.2697C60.1246 58.1478 59.9296 58.299 59.9052 58.2795C59.8954 58.2697 60.0125 58.2551 60.0174 58.2453C59.9832 58.3185 59.8077 58.2453 59.9393 58.26C59.954 58.26 60.0564 58.26 60.0564 58.26C60.0417 58.2795 59.8223 58.2063 59.9832 58.2551C60.0613 58.2795 60.1442 58.299 60.2222 58.3282C60.3831 58.3819 60.188 58.3282 60.1783 58.3087C60.188 58.3234 60.271 58.3526 60.2953 58.3673C60.3734 58.4063 60.4514 58.4502 60.5294 58.4941C60.6806 58.5818 60.8269 58.6696 60.9732 58.7623C61.3487 58.9915 61.7437 59.167 62.1485 59.3328C63.0165 59.684 63.9236 59.879 64.8551 59.9766C65.2111 60.0107 65.5671 60.0205 65.9279 60.0253C66.0499 60.0253 66.1718 60.0253 66.2888 60.0351C66.3571 60.0351 66.4205 60.0449 66.4888 60.0497C66.5619 60.0546 66.6302 60.0936 66.3912 60.0351C66.4302 60.0449 66.4741 60.0497 66.5131 60.0546C66.5668 60.0644 66.6253 60.079 66.679 60.0936C66.7082 60.1034 66.7375 60.1131 66.7716 60.1229C66.9081 60.157 66.6887 60.0887 66.679 60.079C66.7131 60.1082 66.7911 60.1424 66.835 60.1619C66.8838 60.1863 66.9959 60.3033 66.7472 60.0936C66.7667 60.1131 66.7911 60.1326 66.8057 60.1521C66.6156 59.9278 66.7082 60.0107 66.7375 60.0644C66.8009 60.1912 66.6985 59.9619 66.7033 59.9619C66.7033 59.9766 66.7277 60.0449 66.7326 60.0497C66.757 60.1716 66.6985 60.001 66.7228 59.9522C66.6985 60.0058 66.7228 60.1278 66.7228 60.1912C66.7228 60.3228 66.7131 60.4496 66.7082 60.5813C66.6789 61.5079 66.6351 62.4296 66.5619 63.3561C66.5278 63.8048 66.4839 64.2486 66.4302 64.6972C66.4156 64.8143 66.401 64.9264 66.3863 65.0435C66.3668 65.1947 66.4059 64.9021 66.3863 65.0532C66.3815 65.0971 66.3766 65.141 66.3668 65.18C66.3327 65.4239 66.2937 65.6677 66.2547 65.9067C66.0986 66.804 65.8987 67.6915 65.6256 68.5596C65.5037 68.9546 65.3671 69.3447 65.2159 69.73C65.1818 69.8178 65.1477 69.9007 65.1135 69.9885C65.0745 70.086 65.1282 70.0567 65.1282 69.9592C65.1282 69.9836 65.094 70.0324 65.0843 70.0567C65.0014 70.2421 64.9185 70.4225 64.8307 70.6029C64.66 70.9443 64.4796 71.2808 64.2747 71.6075C64.1821 71.7587 64.0797 71.9099 63.9772 72.0562C63.9285 72.1245 63.8797 72.1927 63.8309 72.261C63.7285 72.4024 63.8309 72.2659 63.8456 72.2415C63.8163 72.2903 63.7724 72.3342 63.7334 72.378C63.4945 72.6707 63.236 72.9437 62.958 73.1925C62.8995 73.2461 62.8361 73.2997 62.7727 73.3534C62.6362 73.4656 62.7873 73.3534 62.7971 73.3388C62.7776 73.368 62.7142 73.3973 62.6849 73.4217C62.524 73.5387 62.3582 73.646 62.1875 73.7435C62.1143 73.7874 62.0363 73.8264 61.9583 73.8654C61.9046 73.8898 61.6657 74.041 61.851 73.9191C61.7047 74.0166 61.4706 74.0556 61.3048 74.0947C61.2122 74.119 61.1195 74.1385 61.0268 74.158C61.0073 74.158 60.8854 74.1824 60.8854 74.1824C60.8854 74.1776 61.1195 74.158 60.9196 74.1776C60.7294 74.1971 60.544 74.2068 60.3539 74.2019C60.2612 74.2019 60.1637 74.1971 60.071 74.1873C60.0222 74.1873 59.7882 74.1483 59.9149 74.1727C60.0466 74.1971 59.8954 74.1678 59.8662 74.1629C59.8174 74.1532 59.7735 74.1434 59.7248 74.1337C59.6223 74.1093 59.5151 74.0849 59.4126 74.0556C59.32 74.0313 59.2322 74.002 59.1396 73.9679C59.1054 73.9532 58.8713 73.8606 58.9835 73.9093C59.0957 73.9581 58.8665 73.8557 58.8323 73.8362C58.725 73.7825 58.6177 73.724 58.5153 73.6606C58.4422 73.6167 58.3739 73.5728 58.3008 73.5241C58.2617 73.4948 58.2227 73.4656 58.1837 73.4412C58.0716 73.368 58.3008 73.5387 58.1983 73.4509C58.0472 73.3241 57.9009 73.1973 57.7594 73.0559C57.6278 72.9242 57.5107 72.7877 57.3937 72.6463C57.2815 72.5146 57.3839 72.6365 57.4034 72.6609C57.3742 72.6219 57.3449 72.5829 57.3157 72.5439C57.2523 72.4561 57.1889 72.3634 57.1303 72.2708C56.9206 71.9489 56.75 71.6075 56.589 71.2613C56.5159 71.1004 56.5793 71.2515 56.5939 71.2808C56.5744 71.2369 56.5549 71.1881 56.5403 71.1442C56.5061 71.0516 56.4671 70.9589 56.4379 70.8663C56.3696 70.681 56.3111 70.4908 56.2574 70.3054C56.0087 69.4471 55.8575 68.5596 55.7259 67.6769C55.7112 67.5745 55.6966 67.4721 55.682 67.3697C55.6722 67.3111 55.6673 67.2526 55.6576 67.1941C55.6576 67.1697 55.6283 66.9844 55.643 67.0966C55.6576 67.2087 55.6332 67.0234 55.6283 66.999C55.6234 66.9551 55.6186 66.9113 55.6088 66.8674C55.5893 66.7211 55.5698 66.5699 55.5552 66.4236C55.5015 65.9652 55.4528 65.5068 55.404 65.0484C55.3065 64.0974 55.2138 63.1464 55.1407 62.1955C55.1211 61.9565 55.1016 61.7176 55.0821 61.4786C55.0724 61.3664 55.0675 61.2543 55.0675 61.1421C55.0675 61.1275 55.0821 60.9909 55.0675 61.1031C55.048 61.2445 55.1065 60.9958 55.1065 60.9909C55.2626 60.5276 54.9261 59.9522 54.453 59.8449C53.9361 59.7279 53.4728 60.001 53.307 60.4984L53.2924 60.4935Z" fill="black"/>
<path d="M73.0326 59.3266C72.9351 58.8195 72.4474 58.4878 71.9402 58.5854C71.8768 58.6 65.4005 59.7655 61.0798 56.0251C60.9432 55.9032 60.7774 55.8349 60.6067 55.8105V55.8008C60.5824 55.8008 60.5531 55.8008 60.5287 55.8057C60.5043 55.8057 60.4751 55.8008 60.4507 55.8008V55.8105C60.28 55.8349 60.1142 55.9081 59.9776 56.0251C55.6569 59.7655 49.1806 58.6 49.1172 58.5854C48.6149 58.4878 48.1224 58.8195 48.0248 59.3266C47.9273 59.8338 48.2589 60.3215 48.7661 60.419C48.8587 60.4385 49.5903 60.5702 50.7119 60.6238C52.9893 60.7311 56.8663 60.4971 60.1581 58.2391C60.3824 58.0831 60.675 58.0831 60.9042 58.2391C64.196 60.4971 68.073 60.7311 70.3504 60.6238C71.4672 60.5702 72.2036 60.4385 72.2962 60.419C72.8034 60.3215 73.135 59.8338 73.0375 59.3266H73.0326Z" fill="black"/>
</svg>
