<svg width="102" height="96" viewBox="0 0 102 96" fill="none" xmlns="http://www.w3.org/2000/svg">
<path d="M96.434 66.9258C95.1709 69.4143 93.6728 71.8425 91.9614 74.172C87.2921 80.5303 80.9879 86.1321 73.027 89.969C71.3758 90.7693 69.6535 91.4873 67.8601 92.1232C62.6057 93.9868 56.7499 95.1269 50.2762 95.2968C47.5861 95.3736 44.7976 95.2859 41.9052 95.0118C40.5383 94.8912 39.1605 94.7213 37.7498 94.513C28.0284 93.0659 20.5159 89.6182 14.8897 84.844C9.58605 80.3439 5.95554 74.6708 3.73021 68.3838C-1.12505 54.6696 0.701145 38.0504 6.42576 24.4185C8.02231 20.6145 9.92505 17.0407 12.0684 13.8287C17.6289 5.47523 27.7659 -0.450021 35.7049 0.0268492C67.0892 1.90144 59.9266 31.155 59.9266 31.155C59.9266 31.155 71.7148 12.3652 93.0276 25.5805C103.613 32.1471 104.778 50.6354 96.434 66.9258Z" fill="#9FC745"/>
<path d="M59.9266 31.1558C59.9266 31.1558 25.8031 21.8262 6.42578 24.419C8.02233 20.6148 9.92507 17.0408 12.0684 13.8286C18.4655 14.6289 39.2644 18.1097 59.9266 31.1558Z" fill="#8FA92A"/>
<path d="M59.9264 31.1548C59.9264 31.1548 26.9566 61.3018 14.8841 84.8384C9.58045 80.3382 5.94994 74.6651 3.72461 68.3781C13.3312 57.9746 33.9114 38.6312 59.9264 31.1548Z" fill="#8FA92A"/>
<path d="M96.4283 66.9257C90.146 42.4134 59.9209 31.1494 59.9209 31.1494C82.7756 44.5182 89.8617 65.0346 91.9558 74.1664L96.4283 66.9202V66.9257Z" fill="#8FA92A"/>
<path d="M73.0222 89.9688C71.3709 90.7691 69.6486 91.4871 67.8553 92.123C62.6009 93.9866 56.745 95.1267 50.2713 95.2966C47.5813 95.3734 44.7928 95.2857 41.9004 95.0116C45.1591 87.0254 59.2656 54.3789 59.9272 31.1548C59.9272 31.1548 72.6394 58.9119 73.0222 89.9688Z" fill="#8FA92A"/>
</svg>
