<svg width="229" height="111" viewBox="0 0 229 111" fill="none" xmlns="http://www.w3.org/2000/svg">
<rect x="5" y="23.1533" width="219" height="82" rx="35" fill="#56533D"/>
<rect x="5" y="23.1533" width="219" height="82" rx="35" stroke="white" stroke-width="10"/>
<g clip-path="url(#clip0_990_381)">
<path d="M161.442 29.804L159.607 30.5774C158.459 31.0613 155.47 31.8256 151.994 32.4641C148.417 33.1212 143.966 33.7114 139.777 33.7411C135.762 33.7695 131.308 33.3012 128.265 31.2686C126.618 30.1681 125.307 28.5541 124.843 26.3634C124.397 24.2569 124.816 22.0037 125.803 19.7058L126.008 19.229L126.361 18.8487L128.56 20.8899C126.361 18.8487 126.361 18.8483 126.362 18.8478L126.363 18.8469L126.364 18.845L126.369 18.8403L126.38 18.828L126.414 18.7921C126.442 18.7633 126.479 18.7248 126.525 18.6773C126.618 18.5823 126.748 18.4515 126.913 18.2911C127.244 17.9707 127.717 17.5304 128.317 17.0221C129.51 16.0108 131.233 14.7029 133.346 13.5382L133.347 13.5377C137.591 11.2007 143.851 9.22072 150.498 12.1089L161.442 29.804ZM161.442 29.804V29.3166V29.804ZM162.936 25.0106C162.824 22.6512 161.545 20.2389 159.541 18.1111C157.493 15.9364 154.504 13.8491 150.498 12.109L162.936 25.0106Z" fill="#9C9EB2" stroke="white" stroke-width="6"/>
<path d="M128.56 20.8904C127.094 19.5296 127.094 19.5293 127.094 19.529L127.095 19.5284L127.096 19.5269L127.1 19.5233L127.109 19.5132L127.139 19.4818C127.163 19.456 127.197 19.4205 127.241 19.3762C127.327 19.2875 127.451 19.1632 127.609 19.0096C127.926 18.7028 128.383 18.2776 128.964 17.7853C130.121 16.8044 131.789 15.5388 133.829 14.4145L135.548 13.467L136.527 15.1677C137.432 16.7381 139.457 19.5935 143.059 21.6306C146.61 23.6393 151.874 24.9569 159.492 23.2059L161.822 22.6703L161.937 25.0584C162.031 26.9982 161.151 28.8426 159.219 29.6564L128.56 20.8904ZM128.56 20.8904L127.094 19.5296L126.858 19.7831L126.722 20.101C125.783 22.2857 125.432 24.3206 125.821 26.1567C126.222 28.0488 127.35 29.4554 128.821 30.4376C131.593 32.2895 135.776 32.7699 139.77 32.7416C143.88 32.7125 148.269 32.1322 151.814 31.4811C155.29 30.8424 158.181 30.0938 159.218 29.6567L128.56 20.8904Z" fill="#8D8FA1" stroke="white" stroke-width="4"/>
<path d="M143.487 19.2204L143.486 19.2203C142.2 18.9214 140.97 19.2417 140.036 19.6988C139.096 20.1594 138.256 20.8529 137.677 21.6203C137.387 22.0046 137.112 22.4738 136.954 23.0056C136.798 23.5322 136.717 24.2685 137.044 25.0215C137.767 26.6857 139.577 26.8311 140.651 26.7527L140.652 26.7527C141.808 26.6679 142.881 26.4182 143.791 26.0487C144.662 25.6949 145.544 25.1657 146.139 24.414C146.447 24.0258 146.738 23.5014 146.822 22.8571C146.911 22.1743 146.746 21.5053 146.372 20.94C145.702 19.927 144.524 19.4617 143.487 19.2204Z" fill="#8D8FA1" stroke="white" stroke-width="4"/>
<path d="M148.506 24.6446C147.723 23.7494 147.675 22.6147 147.997 21.6535L148.506 24.6446ZM148.506 24.6446C149.179 25.4152 150.097 25.6492 150.73 25.7014M148.506 24.6446L150.73 25.7014M150.73 25.7014C151.396 25.7564 152.117 25.6476 152.748 25.361M150.73 25.7014L152.748 25.361M152.748 25.361C153.308 25.1064 154.289 24.4614 154.451 23.1892L152.748 25.361ZM154.451 23.1888C154.579 22.1849 154.135 21.376 153.726 20.8894C153.302 20.3837 152.737 19.9953 152.137 19.7671C151.547 19.543 150.733 19.4054 149.891 19.6919C148.958 20.0089 148.303 20.7403 147.997 21.6524L154.451 23.1888Z" fill="#8D8FA1" stroke="white" stroke-width="4"/>
</g>
<path d="M158.442 27.8129C155.185 29.1858 121.83 36.5564 128.56 20.8899C128.56 20.8899 131.008 18.2527 134.794 16.1655C138.639 14.0482 143.865 12.4975 149.303 14.8605C156.73 18.0869 159.807 22.3562 159.94 25.1531C160.001 26.419 159.458 27.3834 158.442 27.8114V27.8129Z" fill="#9C9EB2"/>
<path d="M158.442 27.8129C155.185 29.1858 121.83 36.5564 128.56 20.8899C128.56 20.8899 131.008 18.2527 134.794 16.1655C136.821 19.6843 143.799 28.8648 159.94 25.1546C160.001 26.4205 159.458 27.3849 158.442 27.8129Z" fill="#8D8FA1"/>
<path d="M143.034 21.1689C140.238 20.5194 136.643 25.0403 140.506 24.7585C144.37 24.4752 146.642 22.0083 143.034 21.1689Z" fill="#8D8FA1"/>
<path d="M149.893 22.2884C149.264 24.1646 152.334 23.9823 152.467 22.9364C152.6 21.8921 150.415 20.7302 149.893 22.2884Z" fill="#8D8FA1"/>
<path d="M141.565 32.4675C135.152 38.1322 110.39 44.7764 94.4089 32.4675C90.6554 29.5771 92.6136 21.4681 97.4388 14.5827C101.466 8.83661 107.493 3.94196 113.862 3.6496C125.037 3.13422 140.114 18.1994 142.475 27.178C143.075 29.446 142.86 31.3252 141.567 32.469L141.565 32.4675Z" fill="#9C9EB2"/>
<path d="M141.565 32.4668C135.152 38.1315 110.39 44.7758 94.4089 32.4668C90.6554 29.5764 92.6136 21.4674 97.4388 14.582C99.2236 20.1413 105.231 31.6108 121.533 30.8513C134.865 30.232 140.286 28.4296 142.474 27.1758C143.073 29.4438 142.858 31.323 141.565 32.4668Z" fill="#8D8FA1"/>
<path d="M106.372 20.6508C103.479 21.2882 101.357 27.4728 106.372 28.487C111.387 29.5012 113.783 19.0172 106.372 20.6508Z" fill="#8D8FA1"/>
<path d="M122.867 22.5569C121.021 24.5868 125.702 26.368 125.973 23.8499C126.244 21.3317 124.353 20.9233 122.867 22.5569Z" fill="#8D8FA1"/>
<path d="M115.903 26.7237C116.664 24.3638 121.955 26.2339 121.534 28.0031C121.111 29.7738 114.341 31.5701 115.903 26.7237Z" fill="#8D8FA1"/>
<path d="M103.355 9.35163C102.352 10.503 106.02 11.5277 106.07 10.0298C106.119 8.53184 104.778 7.71958 103.355 9.35163Z" fill="#8D8FA1"/>
<defs>
<clipPath id="clip0_990_381">
<rect width="90" height="28" fill="white" transform="translate(79.5)"/>
</clipPath>
</defs>
</svg>
