<svg width="117" height="116" viewBox="0 0 117 116" fill="none" xmlns="http://www.w3.org/2000/svg">
<g clip-path="url(#clip0_1186_2449)">
<path d="M58.7031 115.496C90.5976 115.496 116.453 89.6405 116.453 57.7461C116.453 25.8517 90.5976 -0.00390625 58.7031 -0.00390625C26.8087 -0.00390625 0.953125 25.8517 0.953125 57.7461C0.953125 89.6405 26.8087 115.496 58.7031 115.496Z" fill="#7A593A"/>
<path d="M97.9062 63.8767C97.716 62.833 97.4527 61.8041 97.126 60.7946C97.126 60.7946 95.8385 54.3524 85.8949 46.1108C86.2655 44.916 86.4655 43.6529 86.4655 42.3411C86.4655 35.1431 80.4671 29.3057 73.0691 29.3057C66.7392 29.3057 61.4382 33.5777 60.0386 39.3175C59.8142 39.2737 58.7072 39.2834 58.2634 39.2883C57.8197 39.2834 56.7127 39.2737 56.4883 39.3175C55.0887 33.5777 49.7877 29.3057 43.4578 29.3057C36.0598 29.3057 30.0614 35.1431 30.0614 42.3411C30.0614 43.6529 30.2614 44.916 30.632 46.1108C20.6884 54.3524 19.4009 60.7946 19.4009 60.7946C19.0742 61.8041 18.8109 62.833 18.6207 63.8767C17.8111 68.3486 18.5963 72.9181 21.2248 76.7122C22.2392 78.1752 23.473 79.4821 24.8482 80.633C26.1601 81.7205 27.5841 82.6764 29.0861 83.5054C34.6407 86.5729 40.9316 87.5823 47.1982 88.2309C48.8904 88.4065 50.5875 88.5723 52.2846 88.7089C55.6008 88.982 58.8828 89.1234 62.2087 88.8747C63.0231 88.8162 63.8375 88.7235 64.6471 88.6699C65.5054 88.6113 66.4027 88.5674 67.2512 88.4358C67.9437 88.3724 68.6362 88.2943 69.3336 88.2309C75.605 87.5872 81.8911 86.5729 87.4457 83.5054C88.9428 82.6764 90.3717 81.7254 91.6835 80.633C93.0588 79.4821 94.2926 78.1752 95.3069 76.7122C97.9355 72.923 98.7206 68.3535 97.9111 63.8767H97.9062Z" fill="#D6AF43"/>
<path d="M58.6146 90.2985C56.6883 90.2985 54.6011 90.201 52.1774 90.001C50.6412 89.8743 48.9685 89.7133 47.0666 89.5183C40.8341 88.8745 34.2603 87.8407 28.4619 84.6416C26.8477 83.7491 25.3555 82.7396 24.0241 81.6326C22.5026 80.3598 21.2054 78.9553 20.1666 77.4533C17.4503 73.5324 16.4506 68.6313 17.3528 63.6522C17.543 62.6134 17.8112 61.5406 18.1574 60.4628C18.3525 59.6338 20.0447 53.4404 29.1691 45.662C28.9057 44.5794 28.774 43.4675 28.774 42.3507C28.774 34.4505 35.3674 28.0229 43.4676 28.0229C49.9341 28.0229 55.5423 32.0755 57.4686 38.0007C57.6929 38.0007 57.966 38.0007 58.2879 38.0007C58.6 38.0007 58.8585 38.0007 59.0779 38.0007C60.9993 32.0755 66.6124 28.0229 73.0789 28.0229C81.1792 28.0229 87.7725 34.4505 87.7725 42.3507C87.7725 43.4675 87.6408 44.5794 87.3775 45.662C96.5018 53.4404 98.1989 59.6338 98.3891 60.4628C98.7353 61.5406 99.0035 62.6134 99.1937 63.6522C100.096 68.6313 99.0962 73.5324 96.3799 77.4533C95.3362 78.9553 94.039 80.3598 92.5224 81.6277C91.191 82.7348 89.6939 83.7491 88.0797 84.6416C82.2764 87.8407 75.7075 88.8794 69.4751 89.5183C69.0703 89.5524 68.685 89.5914 68.3046 89.6304C68.012 89.6597 67.7194 89.6889 67.4268 89.7182C66.6466 89.8401 65.8565 89.8889 65.0958 89.9376L64.7447 89.962C64.3155 89.9913 63.8815 90.0303 63.4523 90.0693C63.0768 90.1035 62.6964 90.1376 62.3209 90.1669C61.131 90.2546 59.9216 90.2985 58.6293 90.2985H58.6146ZM43.4578 30.6076C36.7865 30.6076 31.3538 35.8744 31.3538 42.3458C31.3538 43.4919 31.5245 44.633 31.8659 45.7303L32.1243 46.5593L31.4562 47.1104C22.0734 54.8887 20.6787 60.9993 20.6689 61.0578L20.6348 61.1943C20.3178 62.1843 20.0691 63.1645 19.8984 64.1057C19.1182 68.407 19.9716 72.6205 22.2929 75.9708C23.2 77.2826 24.3411 78.5164 25.6822 79.6332C26.8819 80.6329 28.2425 81.5497 29.7152 82.3641C35.1089 85.3438 41.3706 86.3191 47.3348 86.9336C49.2221 87.1287 50.8753 87.2847 52.3968 87.4115C56.2982 87.7334 59.2974 87.787 62.1161 87.5773C62.477 87.5529 62.8427 87.5188 63.2036 87.4847C63.6571 87.4408 64.1107 87.4018 64.5642 87.3725L64.9202 87.3481C65.6371 87.3042 66.3735 87.2555 67.0465 87.1482L67.1294 87.1384C67.4317 87.1092 67.7292 87.0799 68.0316 87.0506C68.4266 87.0116 68.8216 86.9677 69.2215 86.9336C75.1662 86.324 81.4279 85.3438 86.8215 82.3641C88.2943 81.5497 89.65 80.6329 90.8546 79.6283C92.1908 78.5115 93.3319 77.2777 94.239 75.9659C96.5603 72.6156 97.4137 68.4021 96.6335 64.1008C96.4628 63.1548 96.2141 62.1745 95.8971 61.1895L95.8581 61.048C95.8483 60.9944 94.4536 54.8839 85.0708 47.1055L84.4027 46.5544L84.6611 45.7254C85.0025 44.6281 85.1732 43.487 85.1732 42.341C85.1732 35.8696 79.7454 30.6027 73.0692 30.6027C67.4317 30.6027 62.594 34.3139 61.2968 39.6295L61.0042 40.8341L59.8241 40.6C59.6973 40.5902 59.2535 40.5756 58.283 40.5854C57.2833 40.5756 56.8395 40.5854 56.7127 40.6L55.5325 40.8341L55.2399 39.6295C53.9427 34.3139 49.1002 30.6027 43.4676 30.6027L43.4578 30.6076Z" fill="black"/>
<path d="M75.4789 43.8332C75.4789 43.8332 74.2159 39.8489 75.3911 35.8354C75.4107 35.7671 75.4984 35.7476 75.5472 35.8013L76.1178 36.4645C76.1178 36.4645 77.2541 25.487 87.5537 19.4058C87.5537 19.4058 91.1039 20.8883 90.4797 24.4775C89.8555 28.0668 81.7309 38.4249 79.234 40.5707C79.234 40.5707 79.59 40.6146 80.4532 40.439C80.5312 40.4244 80.5897 40.5122 80.541 40.5756C80.1118 41.1461 78.5854 42.9018 75.4789 43.8332Z" fill="#EF6600"/>
<path d="M74.7466 45.2137L74.415 44.175C74.3614 43.9994 73.0642 39.8201 74.3175 35.5286C74.4394 35.1043 74.7856 34.7873 75.2148 34.6947C75.2392 34.6898 75.2684 34.6849 75.2928 34.68C76.0536 31.2468 78.648 23.3709 86.9774 18.4552L87.4553 18.1724L87.9674 18.3869C89.4792 19.016 92.176 21.1423 91.5615 24.673C90.9861 27.9892 84.8999 36.1284 81.4716 39.8884C81.4716 39.8884 81.4716 39.8932 81.4765 39.8981C81.7398 40.3224 81.7203 40.8539 81.418 41.2538C80.8425 42.0195 79.1454 43.9019 75.7854 44.9065L74.7417 45.2186L74.7466 45.2137ZM76.0682 38.1279C75.8878 39.8298 76.078 41.3855 76.2682 42.3755C76.8924 42.1121 77.4239 41.8195 77.8677 41.5269L76.5949 41.3757L78.5066 39.7323C81.0863 37.5134 88.8452 27.3893 89.3816 24.2926C89.7279 22.3078 88.3478 21.1618 87.587 20.6887C78.3993 26.4579 77.224 36.4844 77.2142 36.5868L76.9411 39.1471L76.0682 38.1279Z" fill="#0F0F0F"/>
<path d="M90.4647 22.8048C89.977 20.4201 87.5484 19.4058 87.5484 19.4058C86.8315 19.83 86.1585 20.2787 85.5295 20.742C85.5148 20.7907 83.8567 26.1941 90.4647 22.8048Z" fill="#3FC9B1"/>
<path d="M86.9915 25.0285C86.2551 25.0285 85.6504 24.8286 85.1725 24.4238C83.6705 23.1656 84.3825 20.6931 84.4654 20.4151L84.5727 20.064L84.8653 19.8446C85.548 19.3423 86.26 18.8692 86.9818 18.445L87.4597 18.1621L87.9718 18.3767C88.0937 18.4255 90.9514 19.6495 91.5464 22.5755L91.7171 23.3997L90.9661 23.785C89.3567 24.6091 88.04 25.0236 86.9915 25.0236V25.0285ZM86.5039 21.4051C86.4014 21.9513 86.4112 22.5707 86.5965 22.7218C86.6014 22.7218 87.0939 23.1022 89.0836 22.2293C88.6838 21.4734 88.0254 20.9613 87.5767 20.6834C87.2159 20.9126 86.855 21.1515 86.5039 21.4002V21.4051Z" fill="#0F0F0F"/>
<path d="M84.6329 25.7358L80.1365 26.3406C79.8244 26.7941 79.5318 27.2671 79.2539 27.7402C79.1076 27.9889 78.971 28.2376 78.8345 28.4863C78.6979 28.735 78.5321 28.974 78.4395 29.2324C78.5321 29.2617 78.6687 29.2324 78.7711 29.2227L79.3612 29.1788C79.8781 29.1398 80.395 29.1008 80.9168 29.0618C81.4386 29.0227 81.9897 28.9789 82.5261 28.9398L84.6719 34.2555C85.2912 33.441 85.9057 32.6022 86.4909 31.7635L84.6378 25.7358H84.6329Z" fill="#FFB727"/>
<path d="M84.3687 36.484L81.7938 30.1053L78.8483 30.3248C78.6727 30.3491 78.3996 30.3833 78.0924 30.2857L77.0098 29.9346L77.3901 28.8617C77.4926 28.5789 77.6389 28.3302 77.7559 28.1351C77.79 28.0766 77.829 28.0132 77.8583 27.9547C77.9997 27.6962 78.146 27.4377 78.2923 27.1842C78.6044 26.6477 78.9068 26.1698 79.2189 25.7163L79.4969 25.3066L85.4172 24.5117L87.7093 31.9585L87.3972 32.4022C86.8217 33.2264 86.1975 34.0749 85.5538 34.9284L84.3736 36.4889L84.3687 36.484ZM83.2471 27.7694L84.9539 32.0023C85.0612 31.856 85.1636 31.7146 85.266 31.5683L83.8469 26.9598L80.7795 27.3743C80.6527 27.5694 80.5259 27.7742 80.3991 27.9839L83.2471 27.7694Z" fill="#0F0F0F"/>
<path d="M74.5605 46.842C74.5605 46.842 74.5849 46.7299 74.6337 46.5153C74.6825 46.3007 74.7556 45.9886 74.858 45.5936C74.9653 45.1986 75.097 44.7206 75.2579 44.1696C75.3408 43.8965 75.4286 43.6039 75.5213 43.2966C75.6139 42.9894 75.731 42.6724 75.8382 42.3408C76.0528 41.6727 76.3259 40.9607 76.6039 40.1999C76.7453 39.8196 76.9062 39.4392 77.0623 39.0442C77.2232 38.6491 77.3793 38.2493 77.5597 37.8445C77.9206 37.0398 78.2668 36.1962 78.6862 35.3671C78.8911 34.9526 79.0959 34.5283 79.3007 34.1089C79.5202 33.6944 79.7396 33.275 79.9591 32.8556C80.3931 32.0168 80.8759 31.2024 81.3441 30.3978C81.4611 30.1978 81.5781 29.9979 81.6952 29.7979C81.8122 29.598 81.9439 29.4078 82.0609 29.2127C82.3096 28.8275 82.5535 28.4471 82.7924 28.0716C83.2557 27.3157 83.7775 26.6232 84.2457 25.9551C84.4847 25.6235 84.709 25.2967 84.9382 24.9895C85.1771 24.6871 85.4063 24.3945 85.6307 24.1117C86.0745 23.5509 86.4743 23.0339 86.8547 22.5901C87.24 22.1512 87.5765 21.7708 87.8545 21.4587C88.1276 21.1418 88.3519 20.9028 88.5031 20.737C88.6542 20.5712 88.7323 20.4834 88.7323 20.4834C88.7323 20.4834 88.6591 20.5761 88.5274 20.7565C88.3909 20.9321 88.1958 21.1954 87.9422 21.5221C87.6887 21.8489 87.3765 22.2488 87.0254 22.7072C86.845 22.9315 86.6792 23.19 86.489 23.4533C86.2988 23.7167 86.1037 23.9946 85.8989 24.2824C85.6941 24.5701 85.4795 24.8724 85.2552 25.1797C85.0455 25.4967 84.826 25.8283 84.6017 26.1648C84.1579 26.8426 83.6702 27.5449 83.2216 28.3056C82.7632 29.0615 82.2706 29.8272 81.822 30.6367C81.5928 31.0366 81.3636 31.4414 81.1295 31.8461C80.8418 32.3338 80.6028 32.8507 80.3199 33.3433C80.1297 33.7042 79.9396 34.065 79.7494 34.4259C79.5592 34.8112 79.369 35.1916 79.1837 35.5719C78.7643 36.3961 78.3888 37.2203 78.0181 38.0152C77.8279 38.4102 77.667 38.8101 77.4914 39.1953C77.3208 39.5806 77.1501 39.9561 76.9989 40.3267C76.6965 41.0729 76.3942 41.7702 76.1455 42.4237C75.887 43.0772 75.6627 43.677 75.4627 44.2135C75.2628 44.7499 75.1019 45.2181 74.9702 45.6033C74.8434 45.9935 74.741 46.2958 74.6727 46.5055C74.6093 46.7152 74.5703 46.8274 74.5703 46.8274L74.5605 46.842Z" fill="#603913"/>
<path d="M75.6194 47.1737L73.4785 46.5982L73.5517 46.2715C73.6004 46.0472 73.6785 45.7156 73.7858 45.301C73.9028 44.8719 74.0296 44.394 74.1954 43.8478L74.4587 42.9748C74.5221 42.7652 74.5953 42.5506 74.6684 42.336L74.7855 41.9946C74.9757 41.4094 75.2 40.7998 75.439 40.1561L75.5657 39.8196C75.6584 39.566 75.7608 39.3124 75.8681 39.054L76.1363 38.3907C76.268 38.0591 76.4045 37.7275 76.5557 37.391C76.6484 37.1813 76.7459 36.9667 76.8386 36.7473C77.1068 36.1377 77.3799 35.5086 77.7017 34.8746L78.3065 33.6311L78.9794 32.3485C79.3501 31.6316 79.7597 30.9294 80.1547 30.2466L80.7351 29.2518C80.818 29.1104 80.9057 28.9689 80.9984 28.8275C81.0374 28.7641 81.0813 28.7007 81.1203 28.6373L81.8567 27.4864C82.2078 26.9158 82.5931 26.3794 82.9637 25.8576C83.0905 25.682 83.2124 25.5065 83.3343 25.3358L83.5928 24.97C83.744 24.7555 83.8952 24.5458 84.0415 24.3409L85.0558 23.0535C85.3874 22.6341 85.6995 22.2391 86.0019 21.8831L87.0114 20.7419C87.2016 20.5225 87.3723 20.3372 87.5088 20.186L87.8989 19.752L89.6107 21.1662L89.2449 21.649C89.1279 21.805 88.9816 22.0001 88.806 22.2244L87.8892 23.4046C87.777 23.546 87.6844 23.6826 87.5868 23.824C87.5186 23.9215 87.4503 24.024 87.3771 24.1215L86.1531 25.8283L85.5094 26.7988C85.3826 26.989 85.2509 27.1938 85.1143 27.3986C84.7925 27.8814 84.4609 28.3789 84.1585 28.8909C84.022 29.1152 83.8903 29.3298 83.7586 29.5444C83.427 30.0808 83.0856 30.6319 82.7784 31.1927L82.0762 32.4168C81.9299 32.6655 81.8031 32.9093 81.6665 33.1678C81.5397 33.4116 81.4129 33.6555 81.2764 33.8944L80.5351 35.3282L80.1645 36.0792C79.8329 36.7375 79.5256 37.3959 79.2282 38.0347L79.0136 38.498C78.8965 38.7419 78.799 38.9711 78.7015 39.1954C78.6332 39.3515 78.5649 39.5075 78.4966 39.6636L78.3211 40.0586C78.2138 40.2975 78.1114 40.5316 78.0139 40.7657C77.9066 41.0339 77.7895 41.307 77.6822 41.5752C77.5018 42.0093 77.3262 42.4287 77.1751 42.8334C76.9166 43.4967 76.6923 44.0867 76.4923 44.6183C76.2973 45.1401 76.1412 45.6034 76.0095 45.9838L75.6194 47.1835V47.1737Z" fill="#0F0F0F"/>
<path d="M75.6345 43.6677C75.5418 43.3702 74.4397 39.5956 75.5857 35.821C75.5906 35.8015 75.615 35.7966 75.6296 35.8113L76.2197 36.4989C76.2197 36.4989 76.2587 36.5086 76.2636 36.4891C76.366 35.6699 77.7705 25.658 87.3386 20.0059C87.3435 20.0059 87.3532 20.0059 87.3581 20.0059C87.5678 20.0985 90.7718 21.5518 90.1866 24.9167C89.5867 28.3792 81.7889 38.3277 79.3261 40.4832C79.3115 40.4978 79.3164 40.5222 79.3408 40.5222C79.4725 40.5222 79.8577 40.5222 80.5697 40.371C80.6087 40.3612 80.6429 40.4051 80.6185 40.4393C80.3112 40.8684 78.8482 42.7216 75.6686 43.6774C75.6589 43.6774 75.6442 43.6774 75.6394 43.6628L75.6345 43.6677Z" fill="#EF6600"/>
<path d="M76.5948 41.0244C75.7755 38.9469 75.6292 36.5573 75.6 35.9331C75.6 35.9038 75.5561 35.9038 75.5512 35.9331C74.4588 39.6686 75.5415 43.3749 75.6292 43.6724C75.6292 43.6822 75.6439 43.687 75.6585 43.687C78.8527 42.7263 80.3206 40.8586 80.6132 40.4392C80.6279 40.4197 80.6035 40.3953 80.5791 40.4099C78.7162 41.4974 76.7753 41.0829 76.6095 41.0439C76.5997 41.0439 76.5948 41.039 76.5948 41.0292V41.0244Z" fill="#FFB300"/>
<path d="M90.168 23.2781C89.7047 21.0739 87.5248 20.0839 87.3541 20.0059C87.3492 20.0059 87.3395 20.0059 87.3346 20.0059C86.6421 20.4155 85.9984 20.8447 85.3888 21.2933C85.3888 21.2933 85.3888 21.2933 85.3839 21.2982C85.34 21.4347 83.8283 26.5407 90.1534 23.3025C90.1631 23.2976 90.168 23.283 90.168 23.2733V23.2781Z" fill="#3FC9B1"/>
<path d="M80.307 30.2082L83.1696 36.1139C83.1696 36.1139 83.1989 36.1334 83.2086 36.1187C83.789 35.3921 84.3888 34.6167 84.9789 33.8267C84.9789 33.8218 84.9837 33.8121 84.9789 33.8023L83.1989 28.0136C83.1989 28.0136 83.1842 27.9941 83.1745 27.9941L79.0195 28.5501" fill="#3FC9B1"/>
<path d="M84.4954 26.1406L80.1649 26.721C80.1649 26.721 80.1503 26.7258 80.1454 26.7307C79.4968 27.6817 78.9408 28.6326 78.4824 29.5446L82.4472 29.2422C82.4472 29.2422 82.4667 29.2471 82.4716 29.2568L84.5295 34.3579C84.5295 34.3579 84.5588 34.3774 84.5734 34.3628C85.1635 33.5874 85.7487 32.7876 86.3047 31.9927C86.3047 31.9878 86.3095 31.978 86.3047 31.9732L84.5149 26.1601C84.5149 26.1601 84.5003 26.1406 84.4905 26.1406H84.4954Z" fill="#FFB727"/>
<path d="M74.7568 46.6033C74.7568 46.6033 74.7812 46.4911 74.8251 46.2863C74.869 46.0766 74.9421 45.7742 75.0446 45.389C75.147 45.0037 75.2738 44.5404 75.4298 44.0089C75.5078 43.7455 75.5956 43.4627 75.6834 43.1652C75.7761 42.8677 75.8833 42.5605 75.9906 42.2386C76.2003 41.59 76.4637 40.8975 76.7319 40.166C76.8684 39.8003 77.0245 39.4296 77.1757 39.0444C77.3317 38.664 77.4829 38.2739 77.6585 37.8837C78.0096 37.1035 78.3461 36.289 78.7509 35.4844C78.9459 35.0796 79.1459 34.6748 79.3458 34.2652C79.5555 33.8604 79.7701 33.4557 79.9847 33.0509C80.4041 32.2365 80.8722 31.4513 81.3258 30.6662C81.4379 30.4711 81.5501 30.2761 81.6623 30.0859C81.7744 29.8908 81.9012 29.7055 82.0182 29.5202C82.2572 29.1447 82.4962 28.7789 82.7254 28.4132C83.174 27.6816 83.6812 27.0087 84.1347 26.3601C84.364 26.0382 84.5834 25.7212 84.8077 25.4237C85.0418 25.1311 85.2613 24.8483 85.4758 24.5752C85.905 24.0339 86.2951 23.5267 86.6609 23.1024C87.0364 22.6781 87.3631 22.3075 87.6313 22.0052C87.8996 21.6979 88.1141 21.4638 88.2604 21.3029C88.4067 21.142 88.4848 21.0542 88.4848 21.0542C88.4848 21.0542 88.4165 21.1469 88.2848 21.3175C88.1532 21.4882 87.963 21.7418 87.7142 22.0637C87.4655 22.3807 87.1681 22.7708 86.8218 23.2097C86.6462 23.4292 86.4853 23.6779 86.3 23.9363C86.1196 24.1899 85.9245 24.4581 85.7246 24.741C85.5246 25.019 85.3149 25.3116 85.1003 25.6139C84.8955 25.9212 84.6858 26.243 84.4664 26.5698C84.0372 27.2281 83.5642 27.9109 83.1253 28.6472C82.6815 29.3787 82.2036 30.1249 81.7695 30.91C81.5452 31.3002 81.3209 31.6903 81.0966 32.0853C80.8283 32.5389 80.604 33.0168 80.3455 33.4752L79.9652 34.1726C79.7116 34.6846 79.4629 35.1918 79.2141 35.6941C78.8094 36.4939 78.4436 37.2936 78.0876 38.0642C77.9023 38.4494 77.7463 38.8347 77.5804 39.2102C77.4195 39.5857 77.2488 39.9515 77.1025 40.3075C76.8099 41.0292 76.5173 41.7071 76.2784 42.341C76.0297 42.975 75.8102 43.5553 75.6151 44.0771C75.4249 44.5941 75.2689 45.0525 75.1372 45.428C75.0104 45.8035 74.9129 46.101 74.8495 46.3009C74.7861 46.5057 74.752 46.613 74.752 46.613L74.7568 46.6033Z" fill="#603913"/>
<path d="M79.7258 29.4565L78.4871 29.5492C78.1555 30.2271 77.8532 30.9147 77.5801 31.6072L80.8816 31.4219L80.9255 30.6513" fill="#3FC9B1"/>
<path d="M30.7448 48.7831C29.9401 48.7831 29.1647 48.5247 28.5307 48.037C27.7651 47.4518 27.2823 46.5788 27.1994 45.6376C27.0629 44.0625 27.019 41.5802 27.57 38.703C27.8578 37.2009 29.1159 36.0842 30.696 35.9184C35.6215 35.4063 61.4778 32.9875 86.8221 35.8989C88.5094 36.0939 89.8261 37.4204 89.9578 39.0492C90.187 41.9606 90.0261 44.1259 89.4847 45.4962C88.9678 46.7983 87.6755 47.6517 86.2027 47.6615C81.4382 47.7005 39.4204 48.0419 31.0813 48.7734C30.974 48.7831 30.8618 48.788 30.7545 48.788L30.7448 48.7831ZM31.4812 39.927C31.1642 41.8094 31.1447 43.4626 31.2081 44.6721C40.3373 43.9844 77.41 43.6577 85.8077 43.5894C85.954 42.9067 86.0369 41.6875 85.9296 39.8929C61.7168 37.1717 37.104 39.3564 31.4812 39.927Z" fill="black"/>
<mask id="mask0_1186_2449" style="mask-type:luminance" maskUnits="userSpaceOnUse" x="29" y="36" width="60" height="11">
<path d="M30.848 37.8303C36.2709 37.2646 61.5908 34.9238 86.6424 37.8108C87.3349 37.8888 87.8665 38.4107 87.9152 39.0446C88.0372 40.5613 88.1493 43.2679 87.569 44.6724C87.3593 45.1795 86.818 45.5063 86.223 45.5111C80.5612 45.555 39.0409 45.9013 30.8236 46.6328C30.0092 46.7059 29.2972 46.1549 29.2289 45.4136C29.1021 43.9945 29.0436 41.6488 29.5752 38.9227C29.6873 38.3424 30.2091 37.8986 30.848 37.8352V37.8303Z" fill="white"/>
</mask>
<g mask="url(#mask0_1186_2449)">
<path d="M67.5253 33.6802H51.0957L55.2019 40.1613L59.313 46.6474L63.4191 40.1613L67.5253 33.6802Z" fill="#63D3B3"/>
<path d="M83.9502 33.6802H67.5254L71.6316 40.1613L75.7378 46.6474L79.844 40.1613L83.9502 33.6802Z" fill="#63D3B3"/>
<path d="M51.0966 33.6802H34.6719L38.7781 40.1613L42.8843 46.6474L46.9904 40.1613L51.0966 33.6802Z" fill="#63D3B3"/>
<path d="M34.6714 33.6802L30.5652 40.1613L26.459 46.6474H34.6714H42.8837L38.7776 40.1613L34.6714 33.6802Z" fill="#EF6600"/>
<path d="M51.0952 33.6802L46.989 40.1613L42.8828 46.6474H51.0952H59.3124L55.2014 40.1613L51.0952 33.6802Z" fill="#EF6600"/>
<path d="M67.5249 33.6802L63.4187 40.1613L59.3125 46.6474H67.5249H75.7373L71.6311 40.1613L67.5249 33.6802Z" fill="#EF6600"/>
<path d="M88.0568 40.1613L83.9507 33.6802L79.8445 40.1613L75.7383 46.6474H83.9507H92.1387V46.6083L88.0568 40.1613Z" fill="#EF6600"/>
<path d="M36.1776 42.1119C36.1776 42.9263 35.451 43.5847 34.5585 43.5847C33.6661 43.5847 32.9395 42.9263 32.9395 42.1119C32.9395 41.2975 33.6661 40.6392 34.5585 40.6392C35.451 40.6392 36.1776 41.3024 36.1776 42.1119Z" fill="#F8C054"/>
<path d="M52.7147 42.1119C52.7147 42.9263 51.9881 43.5847 51.0956 43.5847C50.2032 43.5847 49.4766 42.9263 49.4766 42.1119C49.4766 41.2975 50.2032 40.6392 51.0956 40.6392C51.9881 40.6392 52.7147 41.3024 52.7147 42.1119Z" fill="#F8C054"/>
<path d="M69.2518 42.1119C69.2518 42.9263 68.5252 43.5847 67.6327 43.5847C66.7403 43.5847 66.0137 42.9263 66.0137 42.1119C66.0137 41.2975 66.7403 40.6392 67.6327 40.6392C68.5252 40.6392 69.2518 41.3024 69.2518 42.1119Z" fill="#F8C054"/>
<path d="M85.7948 42.1119C85.7948 42.9263 85.0681 43.5847 84.1757 43.5847C83.2833 43.5847 82.5566 42.9263 82.5566 42.1119C82.5566 41.2975 83.2833 40.6392 84.1757 40.6392C85.0681 40.6392 85.7948 41.3024 85.7948 42.1119Z" fill="#F8C054"/>
<path d="M46.3517 36.3086H39.4219L41.1531 39.0444L42.8843 41.7851L44.6204 39.0444L46.3517 36.3086Z" fill="#EF6600"/>
<path d="M62.7755 36.3086H55.8457L57.5769 39.0444L59.3082 41.7851L61.0443 39.0444L62.7755 36.3086Z" fill="#EF6600"/>
<path d="M79.2013 36.3086H72.2715L74.0027 39.0444L75.7339 41.7851L77.4701 39.0444L79.2013 36.3086Z" fill="#EF6600"/>
<path d="M88.6962 36.3087H92.1392V33.6802H83.9512L88.0574 40.1613L92.1392 46.6083V41.7414L90.4274 39.0446L88.6962 36.3087Z" fill="#63D3B3"/>
<path d="M26.459 33.6802V36.3087H29.9263L28.1951 39.0446L26.459 41.7853V46.6474L30.5652 40.1613L34.6714 33.6802H26.459Z" fill="#63D3B3"/>
<path d="M29.9263 36.3086H26.459V41.7851L28.1951 39.0444L29.9263 36.3086Z" fill="#F96C41"/>
</g>
<path d="M44.6135 55.3322C47.2469 55.0493 49.8608 54.6104 52.4406 54.0106C53.099 53.8546 53.5525 53.0645 53.3428 52.4159C53.1185 51.7283 52.4553 51.3479 51.7481 51.5137C49.8072 51.9673 47.8468 52.3281 45.8717 52.5964L46.2179 52.5525C45.6815 52.6256 45.1451 52.689 44.6086 52.7475C44.2575 52.7865 43.9551 52.8646 43.6918 53.1279C43.4675 53.3522 43.2968 53.7229 43.3114 54.0447C43.3407 54.6836 43.8869 55.42 44.6086 55.3419L44.6135 55.3322Z" fill="black"/>
<path d="M71.9134 52.7429C71.3769 52.6844 70.8405 52.621 70.3041 52.5479L70.6503 52.5918C68.6752 52.3235 66.7148 51.9627 64.7739 51.5091C64.1155 51.3531 63.3401 51.7139 63.1792 52.4113C63.028 53.0746 63.3791 53.8402 64.0814 54.006C66.6612 54.6107 69.2751 55.0447 71.9085 55.3276C72.2157 55.3617 72.6156 55.1569 72.8253 54.9472C73.0497 54.7229 73.2203 54.3522 73.2057 54.0304C73.1911 53.7085 73.0789 53.3476 72.8253 53.1136C72.5571 52.8697 72.2694 52.7722 71.9085 52.7332L71.9134 52.7429Z" fill="black"/>
<path d="M49.8084 61.7209C49.8328 62.3987 50.2473 63.0181 50.8032 63.4082C51.3592 63.7983 52.0273 63.9885 52.6856 64.1495C56.7626 65.1443 61.0736 65.1736 65.1554 64.1934C66.2624 63.9251 67.4084 63.5545 68.1887 62.7206C68.969 61.8867 69.2226 60.4675 68.4569 59.619C67.9741 59.0826 67.1987 58.8924 66.477 58.9363C65.7552 58.9801 65.0676 59.2289 64.3751 59.4434C60.8054 60.5651 56.8747 60.8772 53.3391 59.6531C53.3391 59.6531 49.7157 58.8924 49.8084 61.7257V61.7209Z" fill="white"/>
<path d="M48.8817 61.7208C48.9353 62.7498 49.4815 63.5935 50.3057 64.1836C51.0469 64.7151 51.9881 64.9395 52.8611 65.1394C54.7288 65.5637 56.6503 65.7978 58.5668 65.8319C60.4834 65.866 62.4633 65.6856 64.375 65.3052C66.0672 64.9687 67.9691 64.5152 69.081 63.0766C70.1734 61.6623 70.1393 59.3703 68.4373 58.4339C66.7353 57.4976 64.731 58.4291 62.9607 58.8826C62.5121 58.9996 62.0585 59.102 61.605 59.1849C61.4002 59.224 61.1905 59.263 60.9808 59.2922C60.8686 59.3117 60.7565 59.3264 60.6492 59.341C60.6248 59.341 60.4492 59.3703 60.5614 59.3508C60.6736 59.3312 60.4297 59.3654 60.4346 59.3654C59.547 59.4727 58.6497 59.5166 57.7573 59.4922C57.2989 59.4775 56.8405 59.4483 56.3821 59.3946C56.3235 59.3898 56.0797 59.3556 56.2553 59.38C56.1431 59.3654 56.0358 59.3459 55.9236 59.3312C55.6896 59.2922 55.4604 59.2483 55.2263 59.1996C54.7776 59.102 54.3338 58.9899 53.8949 58.8485C53.7681 58.8094 53.6413 58.7558 53.5097 58.7314C51.7931 58.3852 49.5059 58.7558 48.9841 60.7162C48.8963 61.0381 48.867 61.3795 48.8768 61.7111C48.8865 62.1939 49.2913 62.6572 49.8034 62.6377C50.3154 62.6181 50.7397 62.2329 50.7299 61.7111C50.7299 61.5843 50.7299 61.4624 50.7397 61.3356C50.7494 61.1941 50.6958 61.5697 50.7397 61.3405C50.7494 61.2819 50.7641 61.2234 50.7836 61.1649C50.7982 61.1161 50.8177 61.0722 50.8324 61.0235C50.8616 60.9211 50.7348 61.2234 50.7885 61.1308C50.7982 61.1112 50.8031 61.0917 50.8128 61.0771C50.8372 61.0283 50.8616 60.9845 50.8909 60.9406C50.9006 60.9259 50.9104 60.9064 50.925 60.8918C51.003 60.765 50.886 60.9503 50.8616 60.9698C50.925 60.9162 50.9787 60.843 51.0421 60.7796C51.1835 60.6382 50.9055 60.8674 50.9982 60.8089C51.0372 60.7845 51.0762 60.7552 51.1201 60.726C51.1932 60.6821 51.2713 60.648 51.3444 60.6089C51.4468 60.5553 51.1006 60.6967 51.2908 60.6333C51.3347 60.6187 51.3834 60.5992 51.4273 60.5846C51.5102 60.5602 51.5931 60.5407 51.676 60.5212C51.7248 60.5114 51.7736 60.5017 51.8175 60.4919C51.837 60.4919 51.8516 60.487 51.8711 60.4821C52.0223 60.4529 51.7687 60.4968 51.7492 60.4968C51.9247 60.487 52.0954 60.4675 52.2661 60.4626C52.4173 60.4626 52.5733 60.4626 52.7245 60.4773C52.783 60.4773 52.8464 60.487 52.905 60.4919C52.9342 60.4919 52.9684 60.4968 52.9976 60.5017C53.1537 60.5163 52.7391 60.4626 52.8513 60.4821C53.1244 60.526 53.3731 60.6187 53.6365 60.7016C54.4899 60.9552 55.3628 61.1161 56.2455 61.2234C57.967 61.4331 59.708 61.3405 61.4197 61.0722C62.239 60.9406 63.0485 60.765 63.8434 60.5407C64.6383 60.3163 65.4722 59.9945 66.3208 59.8482C66.4671 59.8238 66.1842 59.8482 66.3305 59.8482C66.3744 59.8482 66.4183 59.8384 66.4622 59.8384C66.5549 59.8335 66.6475 59.8287 66.7451 59.8335C66.828 59.8335 66.9109 59.8433 66.9938 59.8482C67.1059 59.8531 66.9206 59.8482 66.9206 59.8384C66.9206 59.8384 67.0767 59.8677 67.0913 59.8726C67.1693 59.8921 67.2522 59.9116 67.3254 59.9408C67.3595 59.9506 67.4229 59.9652 67.4571 59.9896C67.4327 59.975 67.2766 59.8969 67.4278 59.9798C67.4961 60.0189 67.5644 60.0676 67.6375 60.1018C67.735 60.1554 67.579 60.0628 67.5887 60.0579C67.6082 60.0579 67.7009 60.1554 67.7155 60.1749C67.7497 60.2091 67.774 60.2432 67.8082 60.2725C67.8813 60.3407 67.7643 60.2188 67.7643 60.2091C67.7643 60.2481 67.8716 60.3846 67.896 60.4236C67.974 60.5651 67.8374 60.2432 67.9106 60.4626C67.935 60.5407 67.9496 60.6236 67.974 60.7016C68.0081 60.8235 67.9594 60.5163 67.9691 60.6431C67.9691 60.6723 67.974 60.7065 67.9789 60.7357C67.9837 60.8186 67.9837 60.9064 67.9789 60.9893C67.9789 61.0235 67.974 61.0527 67.974 61.0869C67.974 61.2137 68.0081 60.9064 67.9837 61.0332C67.9642 61.1161 67.9496 61.2039 67.9301 61.2868C67.9106 61.36 67.8862 61.4331 67.8618 61.5063C67.8082 61.6672 67.8765 61.4868 67.8813 61.4672C67.8765 61.5014 67.8374 61.5599 67.8277 61.5843C67.7984 61.6428 67.7692 61.7013 67.735 61.7598C67.7106 61.7989 67.6911 61.833 67.6668 61.872C67.6521 61.8964 67.5497 62.0573 67.6277 61.9403C67.696 61.8379 67.5643 62.0086 67.5351 62.0476C67.4766 62.111 67.4132 62.1695 67.3498 62.228C67.2864 62.2865 67.223 62.3402 67.1547 62.3938C67.3205 62.2573 67.0572 62.4572 67.0133 62.4816C66.867 62.5743 66.7158 62.6572 66.5646 62.7352C66.4866 62.7742 66.4086 62.8083 66.3305 62.8474C66.5256 62.7547 66.2184 62.8912 66.1696 62.9059C65.8185 63.0375 65.4576 63.14 65.0919 63.2326C64.2531 63.4423 63.4045 63.6081 62.5511 63.73C62.5072 63.7349 62.4633 63.7398 62.4194 63.7495C62.5852 63.7252 62.4389 63.7495 62.4048 63.7495C62.3024 63.7642 62.2048 63.7739 62.1024 63.7886C61.8732 63.8178 61.6391 63.8373 61.4051 63.8617C60.971 63.9007 60.5321 63.93 60.0981 63.9446C59.2398 63.9788 58.3766 63.9739 57.5183 63.9251C57.0843 63.9007 56.6454 63.8666 56.2114 63.8178C55.9919 63.7934 55.7773 63.7691 55.5579 63.7398C55.4506 63.7252 55.5725 63.7398 55.5871 63.7398C55.5286 63.73 55.4701 63.7252 55.4165 63.7154C55.2994 63.7008 55.1873 63.6813 55.0702 63.6618C54.2217 63.5252 53.378 63.3594 52.549 63.1351C52.3588 63.0814 52.1735 63.0278 51.9881 62.9595C51.9296 62.94 51.715 62.8474 51.8808 62.9254C51.7882 62.8815 51.6907 62.8376 51.6029 62.7888C51.5151 62.7401 51.4224 62.6864 51.3347 62.6279C51.3054 62.6084 51.2713 62.584 51.242 62.5645C51.1347 62.4962 51.3542 62.6718 51.2615 62.5791C51.203 62.5206 51.1396 62.4718 51.0811 62.4085C51.0469 62.3743 51.0177 62.3402 50.9884 62.306C50.8909 62.1988 50.9787 62.3255 51.003 62.3255C50.9689 62.3255 50.8714 62.1207 50.8519 62.0915C50.8324 62.0622 50.8226 62.0281 50.8031 61.9988C50.7348 61.8866 50.8519 62.15 50.8128 62.0281C50.7933 61.95 50.769 61.872 50.7446 61.794C50.7299 61.7501 50.6714 61.6282 50.7446 61.833C50.7299 61.794 50.7348 61.7306 50.7348 61.6916C50.7104 61.2088 50.3301 60.7455 49.8082 60.765C49.3303 60.7845 48.8573 61.1746 48.8817 61.6916V61.7208Z" fill="black"/>
<path d="M54.0736 60.6528C54.0639 61.1551 54.0297 61.6574 53.9614 62.1548L53.9956 61.9109C53.9517 62.2231 53.898 62.5303 53.8346 62.8375C53.781 63.0814 53.8005 63.3301 53.9273 63.5495C54.0395 63.7397 54.2589 63.925 54.4784 63.9738C54.7173 64.0274 54.9807 64.0177 55.1904 63.8811C55.3854 63.7543 55.5659 63.5641 55.6146 63.3301C55.8 62.4523 55.9072 61.5549 55.9219 60.6528C55.9316 60.17 55.4927 59.7067 54.9953 59.7262C54.4979 59.7457 54.0785 60.1309 54.0687 60.6528H54.0736Z" fill="black"/>
<path d="M58.9359 61.3843C58.9749 61.5403 59.0042 61.6964 59.0286 61.8573L58.9944 61.6135C59.1115 62.5157 59.0139 63.4276 59.2334 64.3152C59.3504 64.7834 59.9064 65.1101 60.3697 64.9589C60.8329 64.8077 61.1402 64.3249 61.0134 63.8226C60.9792 63.6861 60.9549 63.5447 60.9305 63.4032L60.9646 63.6471C60.8427 62.7303 60.9451 61.7988 60.711 60.8917C60.5891 60.4236 60.0429 60.092 59.5748 60.248C59.1066 60.4041 58.7994 60.882 58.931 61.3843H58.9359Z" fill="black"/>
<path d="M63.232 60.5702C63.5734 61.5212 63.8855 62.4819 64.1683 63.4524C64.3049 63.9156 64.8267 64.2521 65.3046 64.0961C65.7825 63.94 66.0946 63.4572 65.9483 62.9598C65.6655 61.9893 65.3485 61.0286 65.012 60.0777C64.9291 59.8485 64.8023 59.6534 64.5877 59.5266C64.3878 59.4096 64.0952 59.3608 63.8757 59.4339C63.4271 59.5802 63.0564 60.0825 63.232 60.5702Z" fill="black"/>
</g>
<defs>
<clipPath id="clip0_1186_2449">
<rect width="115.5" height="115.5" fill="white" transform="translate(0.953125 -0.00390625)"/>
</clipPath>
</defs>
</svg>
