<svg width="39" height="38" viewBox="0 0 39 38" fill="none" xmlns="http://www.w3.org/2000/svg">
<path d="M19.5625 36.6074C29.3364 36.6074 37.2598 28.6841 37.2598 18.9102C37.2598 9.13622 29.3364 1.21289 19.5625 1.21289C9.78857 1.21289 1.86523 9.13622 1.86523 18.9102C1.86523 28.6841 9.78857 36.6074 19.5625 36.6074Z" fill="#FCF9E8" stroke="black" stroke-width="2" stroke-linecap="round" stroke-linejoin="round"/>
<path d="M19.5625 8.29175V10.9463V8.29175Z" fill="#FFE5BD"/>
<path d="M19.5625 8.29175V10.9463" stroke="#CD7522" stroke-width="3.5" stroke-linecap="round" stroke-linejoin="round"/>
<path d="M27.0714 11.4017L25.1943 13.2788" stroke="#59300A" stroke-width="3.5" stroke-linecap="round" stroke-linejoin="round"/>
<path d="M30.181 18.9102H27.5264H30.181Z" fill="#FFE5BD"/>
<path d="M30.181 18.9102H27.5264" stroke="#633408" stroke-width="3.5" stroke-linecap="round" stroke-linejoin="round"/>
<path d="M27.0714 26.4184L25.1943 24.5414L27.0714 26.4184Z" fill="#FFE5BD"/>
<path d="M27.0714 26.4184L25.1943 24.5414" stroke="#753C06" stroke-width="3.5" stroke-linecap="round" stroke-linejoin="round"/>
<path d="M19.5625 29.5285V26.8739V29.5285Z" fill="#FFE5BD"/>
<path d="M19.5625 29.5285V26.8739" stroke="#88480B" stroke-width="3.5" stroke-linecap="round" stroke-linejoin="round"/>
<path d="M12.0537 26.4184L13.9308 24.5414L12.0537 26.4184Z" fill="#FFE5BD"/>
<path d="M12.0537 26.4184L13.9308 24.5414" stroke="#88480B" stroke-width="3.5" stroke-linecap="round" stroke-linejoin="round"/>
<path d="M8.94434 18.9102H11.5989H8.94434Z" fill="#FFE5BD"/>
<path d="M8.94434 18.9102H11.5989" stroke="#95500F" stroke-width="3.5" stroke-linecap="round" stroke-linejoin="round"/>
<path d="M11.5986 11.4017L13.4757 13.2788L11.5986 11.4017Z" fill="#FFE5BD"/>
<path d="M11.5986 11.4017L13.4757 13.2788" stroke="#A65B15" stroke-width="3.5" stroke-linecap="round" stroke-linejoin="round"/>
</svg>
