<svg width="35" height="30" viewBox="0 0 35 30" fill="none" xmlns="http://www.w3.org/2000/svg">
<g clip-path="url(#clip0_576_1525)">
<path d="M29.7825 22.9517C29.7825 25.819 23.4617 28.144 15.6671 28.144C7.87247 28.144 1.55428 25.819 1.55428 22.9517C1.55428 21.9322 1.20488 18.5956 1.72505 18.1506C3.93444 16.2625 10.6441 17.7595 15.6697 17.7595C21.9433 17.7595 27.7203 15.9415 29.5566 18.0265C30.0006 18.5309 29.7852 22.3934 29.7852 22.9517H29.7825Z" fill="white"/>
<path d="M15.6669 29.4926C8.00102 29.4926 0.240555 27.2458 0.240555 22.9517C0.240555 22.744 0.219539 22.3637 0.198522 21.9618C0.0487767 19.1269 0.0671665 17.8106 0.881569 17.1147C2.81775 15.4586 6.51146 15.7688 10.7884 16.1275C12.4461 16.2678 14.1616 16.4108 15.6695 16.4108C17.7922 16.4108 19.9071 16.1923 21.7723 15.9981C25.7471 15.5854 28.8891 15.259 30.5311 17.1201C31.1038 17.7675 31.2273 18.9192 31.1117 22.477C31.1038 22.7008 31.0985 22.8681 31.0985 22.9517C31.0985 27.2458 23.3381 29.4926 15.6695 29.4926H15.6669ZM2.78622 19.0325C2.70741 19.6691 2.78622 21.1418 2.82037 21.8161C2.84402 22.2747 2.86503 22.6712 2.86503 22.9517C2.86503 24.2572 7.38365 26.7953 15.6669 26.7953C23.9502 26.7953 28.4688 24.2572 28.4688 22.9517C28.4688 22.8519 28.4741 22.6523 28.4846 22.3879C28.5581 20.1465 28.5108 19.1944 28.4452 18.8059C27.5204 18.1127 24.7357 18.4014 22.0376 18.6819C20.1094 18.8815 17.9236 19.108 15.6695 19.108C14.0539 19.108 12.2858 18.9597 10.5756 18.8167C7.68052 18.574 4.12079 18.2746 2.78885 19.0325H2.78622Z" fill="black"/>
<mask id="mask0_576_1525" style="mask-type:luminance" maskUnits="userSpaceOnUse" x="1" y="17" width="29" height="12">
<mask id="mask1_576_1525" style="mask-type:luminance" maskUnits="userSpaceOnUse" x="1" y="17" width="29" height="12">
<path d="M29.7825 22.9517C29.7825 25.819 23.4617 28.144 15.6671 28.144C7.87247 28.144 1.55428 25.819 1.55428 22.9517C1.55428 21.9322 1.20488 18.5956 1.72505 18.1506C3.93444 16.2625 10.6441 17.7595 15.6697 17.7595C21.9433 17.7595 27.7203 15.9415 29.5566 18.0265C30.0006 18.5309 29.7852 22.3934 29.7852 22.9517H29.7825Z" fill="white"/>
</mask>
<g mask="url(#mask1_576_1525)">
<path d="M15.6669 29.4926C8.00102 29.4926 0.240555 27.2458 0.240555 22.9517C0.240555 22.744 0.219539 22.3637 0.198522 21.9618C0.0487767 19.1269 0.0671665 17.8106 0.881569 17.1147C2.81775 15.4586 6.51146 15.7688 10.7884 16.1275C12.4461 16.2678 14.1616 16.4108 15.6695 16.4108C17.7922 16.4108 19.9071 16.1923 21.7723 15.9981C25.7471 15.5854 28.8891 15.259 30.5311 17.1201C31.1038 17.7675 31.2273 18.9192 31.1117 22.477C31.1038 22.7008 31.0985 22.8681 31.0985 22.9517C31.0985 27.2458 23.3381 29.4926 15.6695 29.4926H15.6669ZM2.78622 19.0325C2.70741 19.6691 2.78622 21.1418 2.82037 21.8161C2.84402 22.2747 2.86503 22.6712 2.86503 22.9517C2.86503 24.2572 7.38365 26.7953 15.6669 26.7953C23.9502 26.7953 28.4688 24.2572 28.4688 22.9517C28.4688 22.8519 28.4741 22.6523 28.4846 22.3879C28.5581 20.1465 28.5108 19.1944 28.4452 18.8059C27.5204 18.1127 24.7357 18.4014 22.0376 18.6819C20.1094 18.8815 17.9236 19.108 15.6695 19.108C14.0539 19.108 12.2858 18.9597 10.5756 18.8167C7.68052 18.574 4.12079 18.2746 2.78885 19.0325H2.78622Z" fill="white"/>
</g>
</mask>
<g mask="url(#mask0_576_1525)">
<path d="M3.66412 16.1572H2.61328V28.8345H3.66412V16.1572Z" fill="white"/>
<path d="M4.97775 14.8086H1.2998V30.1831H4.97775V14.8086Z" fill="black"/>
<path d="M9.18086 19.6638H5.76562V31.8016H9.18086V19.6638Z" fill="white"/>
<path d="M10.4945 33.1503H4.45215V18.3152H10.4945V33.1503ZM7.07925 30.453H7.86739V21.0125H7.07925V30.453Z" fill="black"/>
<path d="M28.0958 16.1572H26.7822V28.8345H28.0958V16.1572Z" fill="white"/>
<path d="M29.4094 14.8086H25.4688V30.1831H29.4094V14.8086Z" fill="black"/>
<path d="M12.8595 19.394H11.2832V31.5318H12.8595V19.394Z" fill="white"/>
<path d="M14.1731 18.0454H9.96973V32.8805H14.1731V18.0454Z" fill="black"/>
</g>
<path d="M29.782 18.9569C29.782 21.8241 23.4611 24.1492 15.6665 24.1492C7.8719 24.1492 1.55371 21.8268 1.55371 18.9569C1.55371 16.087 7.8719 13.7646 15.6691 13.7646C23.4664 13.7646 29.7846 16.0897 29.7846 18.9569H29.782Z" fill="white"/>
<path d="M15.6666 25.4979C8.0007 25.4979 0.240234 23.251 0.240234 18.9569C0.240234 14.6629 8.0007 12.416 15.6692 12.416C23.3377 12.416 31.0982 14.6629 31.0982 18.9569C31.0982 23.251 23.3377 25.4979 15.6692 25.4979H15.6666ZM15.6666 15.1133C7.38333 15.1133 2.86471 17.6514 2.86471 18.9569C2.86471 20.2624 7.38333 22.8006 15.6666 22.8006C23.9499 22.8006 28.4685 20.2597 28.4685 18.9569C28.4685 17.6541 23.9499 15.1133 15.6666 15.1133Z" fill="black"/>
<path d="M20.1697 21.2981C19.5759 21.4464 18.9507 21.557 18.2965 21.6325C17.6424 21.708 16.9646 21.7458 16.2658 21.7458C14.6133 21.7458 13.2236 21.5705 12.0939 21.2225C10.9643 20.8746 10.1604 20.3702 9.68488 19.7148H7.63837L8.46591 18.9325H9.38802C9.38014 18.8948 9.37489 18.857 9.37226 18.8139C9.367 18.7734 9.367 18.7141 9.367 18.6385C9.367 18.563 9.367 18.501 9.37226 18.4578C9.37489 18.4147 9.38014 18.3742 9.38802 18.3337H7.63574L8.46328 17.5515H9.67963C10.1683 16.8934 10.9748 16.3917 12.0992 16.0464C13.221 15.7012 14.6081 15.5286 16.2605 15.5286C16.9593 15.5286 17.6371 15.5663 18.2913 15.6419C18.9454 15.7174 19.5707 15.828 20.1644 15.9736V17.2144C19.6548 17.0067 19.1109 16.8475 18.533 16.7423C17.955 16.6371 17.356 16.5832 16.7334 16.5832C15.9295 16.5832 15.2465 16.6668 14.6816 16.8287C14.1194 16.9932 13.6965 17.2332 13.418 17.5488H18.5067L17.687 18.331H13.0371C13.0239 18.3742 13.0134 18.4201 13.0108 18.4686C13.0082 18.5172 13.0055 18.59 13.0055 18.6844C13.0055 18.7195 13.0055 18.7572 13.0108 18.7977C13.0134 18.8381 13.0187 18.884 13.0266 18.9271H17.0776L16.2369 19.7094H13.4154C13.7306 20.0357 14.1615 20.2812 14.7105 20.443C15.2596 20.6049 15.9321 20.6885 16.7308 20.6885C17.3534 20.6885 17.9498 20.6345 18.5198 20.5293C19.0899 20.4241 19.6364 20.265 20.1618 20.0546V21.2954L20.1697 21.2981Z" fill="white"/>
<path d="M16.2659 23.0918C14.4952 23.0918 12.9636 22.8976 11.7157 22.5119C10.615 22.172 9.74014 21.6865 9.10175 21.0607H4.27313L5.73381 19.6797H4.27051L7.95634 16.2002H9.10701C9.75328 15.5744 10.6307 15.0889 11.7262 14.7518C12.9662 14.3715 14.4926 14.1772 16.2632 14.1772C17.0067 14.1772 17.7397 14.2177 18.4385 14.2986C19.1452 14.3795 19.8309 14.5009 20.4745 14.6601L21.4807 14.9082V16.2002H21.8511L21.4807 16.5536V22.3581L20.4745 22.6063C19.8309 22.7654 19.1452 22.8868 18.4385 22.9677C17.7371 23.0486 17.0067 23.0891 16.2632 23.0891L16.2659 23.0918ZM10.7332 18.9002L10.7384 18.9083C10.8593 19.0755 11.0327 19.2347 11.2507 19.3803L10.7884 18.9002H10.7332ZM19.5813 18.4282L18.8877 19.0728C19.1609 18.9973 19.4289 18.9083 19.689 18.8058L20.0988 18.6413L19.6811 18.4713C19.647 18.4578 19.6128 18.4444 19.5787 18.4309L19.5813 18.4282ZM10.7332 18.3661H10.9276L11.4635 17.7619C11.1456 17.94 10.9013 18.1423 10.7332 18.3661Z" fill="black"/>
<path d="M32.7588 17.0579C32.7588 19.9252 26.438 22.2502 18.6434 22.2502C10.8487 22.2502 4.52792 19.9252 4.52792 17.0579C4.52792 16.0384 4.17851 12.6991 4.69868 12.2568C6.90807 10.3687 13.6177 11.8657 18.6434 11.8657C24.9169 11.8657 30.6939 10.0477 32.5302 12.1327C32.9742 12.6371 32.7588 16.4996 32.7588 17.0579Z" fill="white"/>
<path d="M18.6432 23.5989C10.9773 23.5989 3.21419 21.352 3.21419 17.0579C3.21419 16.8503 3.19317 16.4699 3.17215 16.068C3.02241 13.2332 3.0408 11.9169 3.8552 11.221C5.79138 9.56488 9.48509 9.87507 13.762 10.2338C15.4197 10.3741 17.1352 10.517 18.6432 10.517C20.7633 10.517 22.8807 10.2985 24.7459 10.1043C28.7208 9.69165 31.8628 9.36528 33.5047 11.2291C34.0774 11.8765 34.2009 13.0282 34.0853 16.5859C34.0774 16.8098 34.0722 16.977 34.0722 17.0606C34.0722 21.3547 26.3117 23.6016 18.6432 23.6016V23.5989ZM5.75985 13.1388C5.68104 13.7753 5.75985 15.2481 5.79663 15.9224C5.82028 16.3809 5.84129 16.7774 5.84129 17.0579C5.84129 18.3634 10.3599 20.9016 18.6432 20.9016C26.9264 20.9016 31.4451 18.3634 31.4451 17.0579C31.4451 16.9581 31.4503 16.7585 31.4608 16.4942C31.5344 14.2528 31.4871 13.3006 31.4214 12.9122C30.4967 12.219 27.7119 12.5076 25.0139 12.7881C23.0856 12.9877 20.8999 13.2143 18.6458 13.2143C17.0301 13.2143 15.2621 13.066 13.5518 12.923C10.6568 12.6802 7.09705 12.3808 5.76511 13.1388H5.75985Z" fill="black"/>
<mask id="mask2_576_1525" style="mask-type:luminance" maskUnits="userSpaceOnUse" x="4" y="11" width="29" height="12">
<mask id="mask3_576_1525" style="mask-type:luminance" maskUnits="userSpaceOnUse" x="4" y="11" width="29" height="12">
<path d="M32.7588 17.0579C32.7588 19.9252 26.438 22.2502 18.6434 22.2502C10.8487 22.2502 4.52792 19.9252 4.52792 17.0579C4.52792 16.0384 4.17851 12.6991 4.69868 12.2568C6.90807 10.3687 13.6177 11.8657 18.6434 11.8657C24.9169 11.8657 30.6939 10.0477 32.5302 12.1327C32.9742 12.6371 32.7588 16.4996 32.7588 17.0579Z" fill="white"/>
</mask>
<g mask="url(#mask3_576_1525)">
<path d="M18.6432 23.5989C10.9773 23.5989 3.21419 21.352 3.21419 17.0579C3.21419 16.8503 3.19317 16.4699 3.17215 16.068C3.02241 13.2332 3.0408 11.9169 3.8552 11.221C5.79138 9.56488 9.48509 9.87507 13.762 10.2338C15.4197 10.3741 17.1352 10.517 18.6432 10.517C20.7633 10.517 22.8807 10.2985 24.7459 10.1043C28.7208 9.69165 31.8628 9.36528 33.5047 11.2291C34.0774 11.8765 34.2009 13.0282 34.0853 16.5859C34.0774 16.8098 34.0722 16.977 34.0722 17.0606C34.0722 21.3547 26.3117 23.6016 18.6432 23.6016V23.5989ZM5.75985 13.1388C5.68104 13.7753 5.75985 15.2481 5.79663 15.9224C5.82028 16.3809 5.84129 16.7774 5.84129 17.0579C5.84129 18.3634 10.3599 20.9016 18.6432 20.9016C26.9264 20.9016 31.4451 18.3634 31.4451 17.0579C31.4451 16.9581 31.4503 16.7585 31.4608 16.4942C31.5344 14.2528 31.4871 13.3006 31.4214 12.9122C30.4967 12.219 27.7119 12.5076 25.0139 12.7881C23.0856 12.9877 20.8999 13.2143 18.6458 13.2143C17.0301 13.2143 15.2621 13.066 13.5518 12.923C10.6568 12.6802 7.09705 12.3808 5.76511 13.1388H5.75985Z" fill="white"/>
</g>
</mask>
<g mask="url(#mask2_576_1525)">
<path d="M6.55374 9.95337H6.02832V22.6306H6.55374V9.95337Z" fill="white"/>
<path d="M7.86737 8.60474H4.71484V23.9793H7.86737V8.60474Z" fill="black"/>
<path d="M12.0705 13.7295H8.39258V25.8673H12.0705V13.7295Z" fill="white"/>
<path d="M13.3842 27.2159H7.0791V12.3809H13.3842V27.2159ZM9.70621 24.5186H10.7571V15.0781H9.70621V24.5186Z" fill="black"/>
<path d="M31.2481 9.95337H30.1973V22.6306H31.2481V9.95337Z" fill="white"/>
<path d="M32.5617 8.60474H28.8838V23.9793H32.5617V8.60474Z" fill="black"/>
<path d="M16.0108 13.1902H14.1719V25.8674H16.0108V13.1902Z" fill="white"/>
<path d="M17.3245 11.8416H12.8584V27.2161H17.3245V11.8416Z" fill="black"/>
</g>
<path d="M32.7582 13.0661C32.7582 15.9333 26.4374 18.2583 18.6428 18.2583C10.8482 18.2583 4.52734 15.9333 4.52734 13.0661C4.52734 10.1988 10.8455 7.87378 18.6428 7.87378C26.44 7.87378 32.7582 10.1988 32.7582 13.0661Z" fill="white"/>
<path d="M18.6429 19.607C10.977 19.607 3.21387 17.3601 3.21387 13.0661C3.21387 8.77199 10.9743 6.52515 18.6429 6.52515C26.3114 6.52515 34.0718 8.77199 34.0718 13.0661C34.0718 17.3601 26.3114 19.607 18.6429 19.607ZM18.6429 9.22243C10.3596 9.22243 5.84097 11.7633 5.84097 13.0661C5.84097 14.3689 10.3596 16.9097 18.6429 16.9097C26.9261 16.9097 31.4447 14.3689 31.4447 13.0661C31.4447 11.7633 26.9261 9.22243 18.6429 9.22243Z" fill="black"/>
<path d="M23.1456 15.4045C22.5518 15.5529 21.9266 15.6634 21.2724 15.739C20.6183 15.8145 19.9405 15.8523 19.2417 15.8523C17.5892 15.8523 16.1995 15.6769 15.0698 15.329C13.9402 14.9783 13.1363 14.4766 12.6608 13.8212H10.6143L11.4418 13.039H12.3665C12.3587 13.0012 12.3534 12.9635 12.3508 12.9203C12.3455 12.8798 12.3455 12.8205 12.3455 12.745C12.3455 12.6695 12.3455 12.6074 12.3508 12.5643C12.3534 12.5211 12.3587 12.4806 12.3665 12.4402H10.6143L11.4418 11.658H12.6608C13.1494 10.9998 13.9559 10.4981 15.0803 10.1529C16.2047 9.80764 17.5892 9.63501 19.2417 9.63501C19.9405 9.63501 20.6183 9.67277 21.2724 9.7483C21.9266 9.82382 22.5518 9.93441 23.1456 10.0801V11.3208C22.6359 11.1131 22.0895 10.954 21.5141 10.8488C20.9362 10.7436 20.3372 10.6896 19.7146 10.6896C18.9107 10.6896 18.2276 10.7733 17.6628 10.9378C17.1006 11.1023 16.6776 11.3424 16.3991 11.658H21.4878L20.6682 12.4402H16.0182C16.0051 12.4833 15.9946 12.5292 15.9919 12.5777C15.9893 12.6263 15.9867 12.6991 15.9867 12.7935C15.9867 12.8286 15.9867 12.8664 15.9919 12.9068C15.9946 12.9473 16.0025 12.9931 16.0077 13.0363H20.0587L19.218 13.8185H16.3939C16.7091 14.1449 17.14 14.3903 17.6891 14.5522C18.2381 14.714 18.9107 14.7976 19.7093 14.7976C20.3319 14.7976 20.9283 14.7437 21.4984 14.6385C22.0684 14.5333 22.6149 14.3741 23.1403 14.1638V15.4045H23.1456Z" fill="white"/>
<path d="M19.2418 17.1982C17.4685 17.1982 15.9395 17.004 14.6916 16.6183C13.5909 16.2784 12.716 15.7929 12.0803 15.1699H7.24902L8.70969 13.7888H7.24902L10.9322 10.3093H12.0855C12.7318 9.68357 13.6092 9.19806 14.7047 8.8609C15.9447 8.48058 17.4711 8.28638 19.2418 8.28638C19.9879 8.28638 20.7182 8.32684 21.417 8.40776C22.1237 8.48867 22.8094 8.61005 23.453 8.76919L24.4592 9.01734V10.3066H24.827L24.4592 10.66V16.4645L23.453 16.7127C22.8067 16.8718 22.1237 16.9932 21.417 17.0741C20.7156 17.1551 19.9852 17.1955 19.2418 17.1955V17.1982ZM13.7091 13.0066L13.7143 13.0147C13.8352 13.182 14.0059 13.3384 14.2214 13.484L13.7616 13.0066H13.7091ZM22.5572 12.5346L21.8636 13.1793C22.1368 13.1037 22.4048 13.0147 22.6649 12.9122L23.0773 12.7477L22.6596 12.5778C22.6255 12.5643 22.5913 12.5508 22.5572 12.5373V12.5346ZM13.7091 12.4726H13.9009L14.4342 11.8684C14.1189 12.0464 13.8746 12.2487 13.7091 12.4726Z" fill="black"/>
<path d="M30.8467 11.3858C30.8467 14.253 24.5259 16.5781 16.7312 16.5781C8.93662 16.5781 2.61581 14.253 2.61581 11.3858C2.61581 10.3663 2.2664 7.02701 2.78657 6.58466C4.99596 4.69655 11.7056 6.19355 16.7312 6.19355C23.0048 6.19355 28.7818 4.37558 30.6181 6.46058C31.0621 6.96497 30.8467 10.8275 30.8467 11.3885V11.3858Z" fill="white"/>
<path d="M16.7311 17.9267C9.06518 17.9267 1.30208 15.6798 1.30208 11.3858C1.30208 11.1781 1.28106 10.7977 1.26005 10.3959C1.1103 7.561 1.12869 6.24473 1.94309 5.54883C3.87927 3.8927 7.57035 4.20288 11.8473 4.56162C13.505 4.70188 15.2205 4.84484 16.7284 4.84484C18.8511 4.84484 20.966 4.62636 22.8312 4.43215C26.806 4.01947 29.948 3.6931 31.59 5.55422C32.1627 6.20157 32.2862 7.35331 32.1706 10.911C32.1627 11.1349 32.1574 11.3021 32.1574 11.3858C32.1574 15.6798 24.397 17.9267 16.7284 17.9267H16.7311ZM3.84774 7.4666C3.76893 8.10316 3.84774 9.57588 3.8819 10.2502C3.90554 10.7087 3.92656 11.1052 3.92656 11.3858C3.92656 12.6912 8.44518 15.2294 16.7284 15.2294C25.0117 15.2294 29.5303 12.6912 29.5303 11.3858C29.5303 11.286 29.5356 11.0864 29.5461 10.822C29.6196 8.58058 29.5724 7.62844 29.5067 7.24003C28.5819 6.54683 25.7972 6.83543 23.0992 7.11595C21.1709 7.31555 18.9851 7.54212 16.7311 7.54212C15.1154 7.54212 13.3474 7.39377 11.6371 7.25082C8.74204 7.00806 5.18231 6.70866 3.85037 7.4666H3.84774Z" fill="black"/>
<mask id="mask4_576_1525" style="mask-type:luminance" maskUnits="userSpaceOnUse" x="2" y="5" width="29" height="12">
<mask id="mask5_576_1525" style="mask-type:luminance" maskUnits="userSpaceOnUse" x="2" y="5" width="29" height="12">
<path d="M30.8467 11.3858C30.8467 14.253 24.5259 16.5781 16.7312 16.5781C8.93662 16.5781 2.61581 14.253 2.61581 11.3858C2.61581 10.3663 2.2664 7.02701 2.78657 6.58466C4.99596 4.69655 11.7056 6.19355 16.7312 6.19355C23.0048 6.19355 28.7818 4.37558 30.6181 6.46058C31.0621 6.96497 30.8467 10.8275 30.8467 11.3885V11.3858Z" fill="white"/>
</mask>
<g mask="url(#mask5_576_1525)">
<path d="M16.7311 17.9267C9.06518 17.9267 1.30208 15.6798 1.30208 11.3858C1.30208 11.1781 1.28106 10.7977 1.26005 10.3959C1.1103 7.561 1.12869 6.24473 1.94309 5.54883C3.87927 3.8927 7.57035 4.20288 11.8473 4.56162C13.505 4.70188 15.2205 4.84484 16.7284 4.84484C18.8511 4.84484 20.966 4.62636 22.8312 4.43215C26.806 4.01947 29.948 3.6931 31.59 5.55422C32.1627 6.20157 32.2862 7.35331 32.1706 10.911C32.1627 11.1349 32.1574 11.3021 32.1574 11.3858C32.1574 15.6798 24.397 17.9267 16.7284 17.9267H16.7311ZM3.84774 7.4666C3.76893 8.10316 3.84774 9.57588 3.8819 10.2502C3.90554 10.7087 3.92656 11.1052 3.92656 11.3858C3.92656 12.6912 8.44518 15.2294 16.7284 15.2294C25.0117 15.2294 29.5303 12.6912 29.5303 11.3858C29.5303 11.286 29.5356 11.0864 29.5461 10.822C29.6196 8.58058 29.5724 7.62844 29.5067 7.24003C28.5819 6.54683 25.7972 6.83543 23.0992 7.11595C21.1709 7.31555 18.9851 7.54212 16.7311 7.54212C15.1154 7.54212 13.3474 7.39377 11.6371 7.25082C8.74204 7.00806 5.18231 6.70866 3.85037 7.4666H3.84774Z" fill="white"/>
</g>
</mask>
<g mask="url(#mask4_576_1525)">
<path d="M4.97762 4.28931H3.66406V16.9665H4.97762V4.28931Z" fill="white"/>
<path d="M6.29124 2.94067H2.35059V18.3152H6.29124V2.94067Z" fill="black"/>
<path d="M10.2317 8.06543H6.55371V20.2032H10.2317V8.06543Z" fill="white"/>
<path d="M11.5453 21.5519H5.24023V6.7168H11.5453V21.5519ZM7.86734 18.8546H8.91818V9.41408H7.86734V18.8546Z" fill="black"/>
<path d="M29.4093 4.28931H28.0957V16.9665H29.4093V4.28931Z" fill="white"/>
<path d="M30.7229 2.94067H26.7822V18.3152H30.7229V2.94067Z" fill="black"/>
<path d="M14.172 7.52612H12.0703V19.9336H14.172V7.52612Z" fill="white"/>
<path d="M15.4856 6.17749H10.7568V21.2823H15.4856V6.17749Z" fill="black"/>
</g>
<path d="M30.8461 7.39101C30.8461 10.2582 24.5253 12.5833 16.7307 12.5833C8.93605 12.5833 2.61523 10.2609 2.61523 7.39101C2.61523 4.52109 8.93342 2.19873 16.7307 2.19873C24.5279 2.19873 30.8461 4.52379 30.8461 7.39101Z" fill="white"/>
<path d="M16.7307 13.9319C9.06485 13.9319 1.30176 11.6851 1.30176 7.39102C1.30176 3.09694 9.06485 0.850098 16.7307 0.850098C24.3966 0.850098 32.1597 3.09694 32.1597 7.39102C32.1597 11.6851 24.3993 13.9319 16.7307 13.9319ZM16.7307 3.54738C8.44748 3.54738 3.92886 6.08553 3.92886 7.39102C3.92886 8.6965 8.44748 11.2346 16.7307 11.2346C25.014 11.2346 29.5326 8.69381 29.5326 7.39102C29.5326 6.08823 25.014 3.54738 16.7307 3.54738Z" fill="black"/>
<path d="M21.2341 9.73214C20.6404 9.88049 20.0151 9.99108 19.361 10.0666C18.7068 10.1421 18.029 10.1799 17.3302 10.1799C15.6778 10.1799 14.288 10.0046 13.1584 9.65662C12.0287 9.30867 11.2248 8.80427 10.7493 8.14883H8.70282L9.53036 7.36662H10.4525C10.4446 7.32886 10.4393 7.2911 10.4367 7.24794C10.4341 7.20748 10.4315 7.14814 10.4315 7.07262C10.4315 6.99709 10.4315 6.93506 10.4367 6.8919C10.4393 6.84874 10.4446 6.80828 10.4525 6.76782H8.7002L9.52773 5.98561H10.7441C11.2327 5.32747 12.0392 4.82578 13.1636 4.48053C14.288 4.13527 15.6725 3.96265 17.325 3.96265C18.0238 3.96265 18.7016 4.00041 19.3557 4.07593C20.0099 4.15146 20.6351 4.26205 21.2289 4.4077V5.64845C20.7192 5.44076 20.1754 5.28162 19.5974 5.17643C19.0195 5.07123 18.4205 5.01729 17.7979 5.01729C16.994 5.01729 16.3109 5.0982 15.7461 5.26274C15.1839 5.42727 14.7609 5.66733 14.4825 5.98291H19.5712L18.7515 6.76513H14.1042C14.091 6.80828 14.0805 6.85414 14.0779 6.90269C14.0753 6.95124 14.0726 7.02137 14.0726 7.11847C14.0726 7.15354 14.0726 7.1913 14.0779 7.23176C14.0805 7.27222 14.0884 7.31807 14.0936 7.36123H18.1446L17.304 8.14344H14.4798C14.7951 8.46981 15.2259 8.71526 15.775 8.8771C16.3241 9.03894 16.9966 9.12255 17.7952 9.12255C18.4179 9.12255 19.0142 9.06861 19.5843 8.96342C20.1544 8.85822 20.7008 8.69908 21.2262 8.48869V9.72944L21.2341 9.73214Z" fill="white"/>
<path d="M17.33 11.5258C15.5594 11.5258 14.0278 11.3316 12.7799 10.9459C11.6791 10.6061 10.8043 10.1206 10.1659 9.49749H5.33466L6.79533 8.11648H5.33203L9.01786 4.63698H10.1712C10.8174 4.01121 11.6949 3.5257 12.7904 3.18854C14.0304 2.80822 15.5567 2.61401 17.3274 2.61401C18.0735 2.61401 18.8065 2.65447 19.5026 2.73539C20.2093 2.81631 20.8924 2.93769 21.5386 3.09683L22.5448 3.34498V4.63428H22.9126L22.5448 4.98763V10.7922L21.5386 11.0403C20.895 11.1995 20.2093 11.3209 19.5026 11.4018C18.8012 11.4827 18.0709 11.5231 17.3274 11.5231L17.33 11.5258ZM11.7973 7.33426L11.8026 7.34236C11.9234 7.50959 12.0968 7.66873 12.3149 7.81438L11.8525 7.33426H11.7973ZM20.6454 6.85954L19.9519 7.50419C20.2277 7.42867 20.4957 7.33966 20.7531 7.23716L21.1656 7.07263L20.7479 6.9027C20.7137 6.88921 20.6796 6.87573 20.6454 6.86224V6.85954ZM11.7973 6.7975H11.9891L12.5224 6.19331C12.2045 6.37133 11.9628 6.57363 11.7947 6.7975H11.7973Z" fill="black"/>
<path d="M29.7825 22.9515C29.7825 25.8187 23.4617 28.1438 15.6671 28.1438C7.87247 28.1438 1.55428 25.8187 1.55428 22.9515C1.55428 21.9319 1.20488 18.5954 1.72505 18.1503C3.93444 16.2622 10.6441 17.7592 15.6697 17.7592C21.9432 17.7592 27.7203 15.9413 29.5566 18.0263C30.0006 18.5306 29.7852 22.3932 29.7852 22.9515H29.7825Z" fill="#CD7B00"/>
<mask id="mask6_576_1525" style="mask-type:luminance" maskUnits="userSpaceOnUse" x="1" y="17" width="29" height="12">
<path d="M29.7825 22.9515C29.7825 25.8187 23.4617 28.1438 15.6671 28.1438C7.87247 28.1438 1.55428 25.8187 1.55428 22.9515C1.55428 21.9319 1.20488 18.5954 1.72505 18.1503C3.93444 16.2622 10.6441 17.7592 15.6697 17.7592C21.9432 17.7592 27.7203 15.9413 29.5566 18.0263C30.0006 18.5306 29.7852 22.3932 29.7852 22.9515H29.7825Z" fill="white"/>
</mask>
<g mask="url(#mask6_576_1525)">
<path d="M3.66412 16.157H2.61328V28.8342H3.66412V16.157Z" fill="#EBBD00"/>
<path d="M9.18086 19.6636H5.76562V31.8014H9.18086V19.6636Z" fill="#EBBD00"/>
<path d="M28.0958 16.157H26.7822V28.8342H28.0958V16.157Z" fill="#EBBD00"/>
<path d="M12.8595 19.3938H11.2832V31.5316H12.8595V19.3938Z" fill="#EBBD00"/>
</g>
<path d="M29.7829 18.9569C29.7829 21.8241 23.4621 24.1492 15.6675 24.1492C7.87288 24.1492 1.55469 21.8268 1.55469 18.9569C1.55469 16.087 7.87288 13.7646 15.6701 13.7646C23.4674 13.7646 29.7856 16.0897 29.7856 18.9569H29.7829Z" fill="#FFCF00"/>
<path d="M20.1697 21.2981C19.5759 21.4464 18.9507 21.557 18.2965 21.6325C17.6424 21.708 16.9646 21.7458 16.2658 21.7458C14.6133 21.7458 13.2236 21.5705 12.0939 21.2225C10.9643 20.8746 10.1604 20.3702 9.68488 19.7148H7.63837L8.46591 18.9325H9.38802C9.38014 18.8948 9.37489 18.857 9.37226 18.8139C9.367 18.7734 9.367 18.7141 9.367 18.6385C9.367 18.563 9.367 18.501 9.37226 18.4578C9.37489 18.4147 9.38014 18.3742 9.38802 18.3337H7.63574L8.46328 17.5515H9.67963C10.1683 16.8934 10.9748 16.3917 12.0992 16.0464C13.221 15.7012 14.6081 15.5286 16.2605 15.5286C16.9593 15.5286 17.6371 15.5663 18.2913 15.6419C18.9454 15.7174 19.5707 15.828 20.1644 15.9736V17.2144C19.6548 17.0067 19.1109 16.8475 18.533 16.7423C17.955 16.6371 17.356 16.5832 16.7334 16.5832C15.9295 16.5832 15.2465 16.6668 14.6816 16.8287C14.1194 16.9932 13.6965 17.2332 13.418 17.5488H18.5067L17.687 18.331H13.0371C13.0239 18.3742 13.0134 18.4201 13.0108 18.4686C13.0082 18.5172 13.0055 18.59 13.0055 18.6844C13.0055 18.7195 13.0055 18.7572 13.0108 18.7977C13.0134 18.8381 13.0187 18.884 13.0266 18.9271H17.0776L16.2369 19.7094H13.4154C13.7306 20.0357 14.1615 20.2812 14.7105 20.443C15.2596 20.6049 15.9321 20.6885 16.7308 20.6885C17.3534 20.6885 17.9498 20.6345 18.5198 20.5293C19.0899 20.4241 19.6364 20.265 20.1618 20.0546V21.2954L20.1697 21.2981Z" fill="white"/>
<path d="M32.7588 17.0579C32.7588 19.9252 26.438 22.2502 18.6434 22.2502C10.8487 22.2502 4.52792 19.9252 4.52792 17.0579C4.52792 16.0384 4.17851 12.6991 4.69868 12.2568C6.90807 10.3687 13.6177 11.8657 18.6434 11.8657C24.9169 11.8657 30.6939 10.0477 32.5302 12.1327C32.9742 12.6371 32.7588 16.4996 32.7588 17.0579Z" fill="#CD7B00"/>
<mask id="mask7_576_1525" style="mask-type:luminance" maskUnits="userSpaceOnUse" x="4" y="11" width="29" height="12">
<path d="M32.7588 17.0579C32.7588 19.9252 26.438 22.2502 18.6434 22.2502C10.8487 22.2502 4.52792 19.9252 4.52792 17.0579C4.52792 16.0384 4.17851 12.6991 4.69868 12.2568C6.90807 10.3687 13.6177 11.8657 18.6434 11.8657C24.9169 11.8657 30.6939 10.0477 32.5302 12.1327C32.9742 12.6371 32.7588 16.4996 32.7588 17.0579Z" fill="white"/>
</mask>
<g mask="url(#mask7_576_1525)">
<path d="M6.55374 9.95337H6.02832V22.6306H6.55374V9.95337Z" fill="#EBBD00"/>
<path d="M12.0705 13.7295H8.39258V25.8673H12.0705V13.7295Z" fill="#EBBD00"/>
<path d="M31.2481 9.95337H30.1973V22.6306H31.2481V9.95337Z" fill="#EBBD00"/>
<path d="M16.0108 13.1902H14.1719V25.8674H16.0108V13.1902Z" fill="#EBBD00"/>
</g>
<path d="M32.7592 13.0661C32.7592 15.9333 26.4384 18.2583 18.6438 18.2583C10.8491 18.2583 4.52832 15.9333 4.52832 13.0661C4.52832 10.1988 10.8465 7.87378 18.6438 7.87378C26.441 7.87378 32.7592 10.1988 32.7592 13.0661Z" fill="#FFCF00"/>
<path d="M23.1465 15.4045C22.5528 15.5529 21.9276 15.6634 21.2734 15.739C20.6193 15.8145 19.9415 15.8523 19.2426 15.8523C17.5902 15.8523 16.2005 15.6769 15.0708 15.329C13.9411 14.9783 13.1373 14.4766 12.6618 13.8212H10.6152L11.4428 13.039H12.3675C12.3596 13.0012 12.3544 12.9635 12.3518 12.9203C12.3465 12.8798 12.3465 12.8205 12.3465 12.745C12.3465 12.6695 12.3465 12.6074 12.3518 12.5643C12.3544 12.5211 12.3596 12.4806 12.3675 12.4402H10.6152L11.4428 11.658H12.6618C13.1504 10.9998 13.9569 10.4981 15.0813 10.1529C16.2057 9.80764 17.5902 9.63501 19.2426 9.63501C19.9415 9.63501 20.6193 9.67277 21.2734 9.7483C21.9276 9.82382 22.5528 9.93441 23.1465 10.0801V11.3208C22.6369 11.1131 22.0904 10.954 21.5151 10.8488C20.9371 10.7436 20.3382 10.6896 19.7155 10.6896C18.9116 10.6896 18.2286 10.7733 17.6638 10.9378C17.1016 11.1023 16.6786 11.3424 16.4001 11.658H21.4888L20.6692 12.4402H16.0192C16.0061 12.4833 15.9955 12.5292 15.9929 12.5777C15.9903 12.6263 15.9877 12.6991 15.9877 12.7935C15.9877 12.8286 15.9877 12.8664 15.9929 12.9068C15.9955 12.9473 16.0034 12.9931 16.0087 13.0363H20.0597L19.219 13.8185H16.3949C16.7101 14.1449 17.141 14.3903 17.69 14.5522C18.2391 14.714 18.9116 14.7976 19.7103 14.7976C20.3329 14.7976 20.9293 14.7437 21.4993 14.6385C22.0694 14.5333 22.6159 14.3741 23.1413 14.1638V15.4045H23.1465Z" fill="white"/>
<path d="M30.8467 11.3856C30.8467 14.2528 24.5259 16.5779 16.7312 16.5779C8.93662 16.5779 2.61581 14.2528 2.61581 11.3856C2.61581 10.366 2.2664 7.02677 2.78657 6.58441C4.99596 4.69631 11.7056 6.1933 16.7312 6.1933C23.0048 6.1933 28.7818 4.37533 30.6181 6.46034C31.0621 6.96473 30.8467 10.8272 30.8467 11.3883V11.3856Z" fill="#CD7B00"/>
<mask id="mask8_576_1525" style="mask-type:luminance" maskUnits="userSpaceOnUse" x="2" y="5" width="29" height="12">
<path d="M30.8467 11.3856C30.8467 14.2528 24.5259 16.5779 16.7312 16.5779C8.93662 16.5779 2.61581 14.2528 2.61581 11.3856C2.61581 10.366 2.2664 7.02677 2.78657 6.58441C4.99596 4.69631 11.7056 6.1933 16.7312 6.1933C23.0048 6.1933 28.7818 4.37533 30.6181 6.46034C31.0621 6.96473 30.8467 10.8272 30.8467 11.3883V11.3856Z" fill="white"/>
</mask>
<g mask="url(#mask8_576_1525)">
<path d="M4.97762 4.28906H3.66406V16.9663H4.97762V4.28906Z" fill="#EBBD00"/>
<path d="M10.2317 8.06519H6.55371V20.203H10.2317V8.06519Z" fill="#EBBD00"/>
<path d="M29.4093 4.28906H28.0957V16.9663H29.4093V4.28906Z" fill="#EBBD00"/>
<path d="M14.172 7.52588H12.0703V19.9334H14.172V7.52588Z" fill="#EBBD00"/>
</g>
<path d="M30.8471 7.39101C30.8471 10.2582 24.5263 12.5833 16.7316 12.5833C8.93703 12.5833 2.61621 10.2609 2.61621 7.39101C2.61621 4.52109 8.9344 2.19873 16.7316 2.19873C24.5289 2.19873 30.8471 4.52379 30.8471 7.39101Z" fill="#FFCF00"/>
<path d="M21.2341 9.73214C20.6404 9.88049 20.0151 9.99108 19.361 10.0666C18.7068 10.1421 18.029 10.1799 17.3302 10.1799C15.6778 10.1799 14.288 10.0046 13.1584 9.65662C12.0287 9.30867 11.2248 8.80427 10.7493 8.14883H8.70282L9.53036 7.36662H10.4525C10.4446 7.32886 10.4393 7.2911 10.4367 7.24794C10.4341 7.20748 10.4315 7.14814 10.4315 7.07262C10.4315 6.99709 10.4315 6.93506 10.4367 6.8919C10.4393 6.84874 10.4446 6.80828 10.4525 6.76782H8.7002L9.52773 5.98561H10.7441C11.2327 5.32747 12.0392 4.82578 13.1636 4.48053C14.288 4.13527 15.6725 3.96265 17.325 3.96265C18.0238 3.96265 18.7016 4.00041 19.3557 4.07593C20.0099 4.15146 20.6351 4.26205 21.2289 4.4077V5.64845C20.7192 5.44076 20.1754 5.28162 19.5974 5.17643C19.0195 5.07123 18.4205 5.01729 17.7979 5.01729C16.994 5.01729 16.3109 5.0982 15.7461 5.26274C15.1839 5.42727 14.7609 5.66733 14.4825 5.98291H19.5712L18.7515 6.76513H14.1042C14.091 6.80828 14.0805 6.85414 14.0779 6.90269C14.0753 6.95124 14.0726 7.02137 14.0726 7.11847C14.0726 7.15354 14.0726 7.1913 14.0779 7.23176C14.0805 7.27222 14.0884 7.31807 14.0936 7.36123H18.1446L17.304 8.14344H14.4798C14.7951 8.46981 15.2259 8.71526 15.775 8.8771C16.3241 9.03894 16.9966 9.12255 17.7952 9.12255C18.4179 9.12255 19.0142 9.06861 19.5843 8.96342C20.1544 8.85822 20.7008 8.69908 21.2262 8.48869V9.72944L21.2341 9.73214Z" fill="white"/>
</g>
<defs>
<clipPath id="clip0_576_1525">
<rect width="34" height="29" fill="white" transform="translate(0.5625 0.5)"/>
</clipPath>
</defs>
</svg>
