<svg width="57" height="58" viewBox="0 0 57 58" fill="none" xmlns="http://www.w3.org/2000/svg">
<g opacity="0.3">
<path d="M52.7676 16.8784C51.8402 15.5665 48.6296 12.1809 47.9684 11.527C47.4652 11.0262 46.9121 10.5834 46.3257 10.1943C46.3174 10.1861 46.3007 10.1778 46.3007 10.1778C39.2018 5.4596 26.6133 8.86994 16.9068 18.5298C6.70952 28.6822 3.43658 42.0007 9.29625 48.8214C9.82026 49.5084 11.4921 51.1929 13.7503 53.1837C18.7491 57.5832 26.1807 59.0938 33.1924 56.7306C37.7712 55.191 42.0256 52.5753 45.6437 48.7635C45.6437 48.7635 53.354 41.3013 55.7369 33.5535C57.7955 26.8611 55.87 21.2655 52.7676 16.8784Z" fill="#56533D"/>
</g>
<path d="M22.6999 53.1464C17.6761 53.1464 12.9351 51.4081 9.35447 48.2502C7.25846 46.4085 5.41614 44.5998 4.77153 43.7472C3.61956 42.4104 2.7587 40.7632 2.24718 38.8925C0.11374 31.1488 4.22258 20.4336 12.4694 12.2306C19.219 5.51336 27.5906 1.5029 34.8642 1.5029C37.9874 1.5029 40.7031 2.2396 42.9405 3.68816L43.0361 3.71714L43.1484 3.82061C43.7764 4.24276 44.3544 4.71458 44.866 5.22365C45.5563 5.91068 48.8043 9.33343 49.7733 10.6992C53.6908 16.2452 54.7347 22.1305 52.8716 28.1896C50.4428 36.0822 42.8573 43.4865 42.5329 43.7969C41.593 44.7902 40.5783 45.7338 39.5386 46.574C36.6109 48.9579 33.3088 50.779 29.724 51.9834C27.4408 52.7532 25.0745 53.1422 22.6999 53.1422V53.1464Z" fill="#FFAA00"/>
<path d="M34.8641 2.44241C37.7628 2.44241 40.3911 3.12531 42.5287 4.5449C42.5287 4.5449 42.5495 4.55318 42.5619 4.5656C43.1483 4.95464 43.6931 5.39335 44.1963 5.89414C44.8576 6.5522 48.0723 9.93771 48.9955 11.2497C52.0979 15.6409 54.0234 21.2324 51.9649 27.9248C49.5819 35.6767 41.8716 43.1347 41.8716 43.1347C40.9359 44.1239 39.9586 45.0303 38.9397 45.858C36.0244 48.2295 32.8097 49.9637 29.4203 51.106C27.1912 51.8551 24.9206 52.2151 22.6998 52.2151C17.9297 52.2151 13.3884 50.5596 9.97819 47.5549C7.71168 45.5642 6.04402 43.8797 5.52418 43.1885C4.40963 41.8931 3.62363 40.3576 3.15785 38.6566C1.16166 31.4055 4.87541 21.1124 13.1347 12.8969C19.9259 6.13833 28.1228 2.44241 34.8641 2.44241ZM34.8641 0.563416C27.3451 0.563416 18.724 4.67734 11.8039 11.5684C3.3242 19.999 -0.884445 31.0826 1.33632 39.1491C1.87696 41.1315 2.79188 42.8864 4.05198 44.3681C4.76729 45.291 6.59297 47.0831 8.72641 48.9621C12.4818 52.269 17.4431 54.0941 22.6956 54.0941C25.1742 54.0941 27.6404 53.6885 30.0233 52.8856C33.7163 51.644 37.1181 49.7691 40.1332 47.3107C41.1896 46.454 42.2292 45.4897 43.2149 44.4508C43.8387 43.8424 51.3203 36.4216 53.7656 28.4752C55.716 22.1222 54.6306 15.9637 50.5343 10.1695C49.4738 8.66711 46.0511 5.09122 45.523 4.56974C44.9657 4.01514 44.3336 3.4978 43.6474 3.03839C43.5975 3.00115 43.5434 2.96804 43.4935 2.93906C41.0939 1.36633 38.1869 0.571693 34.8558 0.571693L34.8641 0.563416Z" fill="#56533D"/>
<path d="M38.9398 45.8538C36.0286 48.2253 32.8098 49.9595 29.4204 51.1018C22.4046 53.4609 14.9729 51.9544 9.97827 47.5507C7.89058 45.709 6.30194 44.1321 5.66982 43.3623C5.80705 43.5196 5.95261 43.6686 6.09817 43.8134C7.07547 44.786 8.21081 45.5476 9.47091 46.1063C9.81608 46.2553 10.1737 46.4002 10.5397 46.5202C10.5647 46.5285 10.5979 46.5409 10.6229 46.545C15.5136 48.155 21.9347 47.0417 28.2019 43.5817C30.0276 44.7571 33.2464 45.829 38.9439 45.8538H38.9398Z" fill="#E47B01"/>
<path d="M37.1598 36.8024C28.6469 45.2745 17.9173 48.9456 10.6187 46.5409C10.5938 46.5327 10.5605 46.5203 10.5356 46.5161C10.1696 46.3961 9.81193 46.2512 9.46675 46.1022C8.20665 45.5435 7.07132 44.782 6.09401 43.8094C-0.535022 37.2039 2.6173 23.368 13.1348 12.897C23.6564 2.4259 37.5632 -0.711281 44.1923 5.89004C44.9658 6.65985 45.6062 7.52485 46.1178 8.47677C46.3839 8.96514 46.6168 9.48663 46.8081 10.0164C46.9537 10.3972 47.0784 10.7945 47.1866 11.2001C49.0788 18.4305 45.3567 28.6449 37.1557 36.8024H37.1598Z" fill="#FFDB22"/>
<path d="M33.6374 33.421C26.2681 40.192 16.6946 41.7979 12.249 37.0093C10.3942 35.0103 9.7246 32.2125 10.1155 29.1374C10.6645 24.8497 13.2595 20.028 17.5514 16.0755C21.3025 12.632 25.6193 10.5295 29.5452 9.92115C33.3338 9.33345 36.7564 10.1405 38.9398 12.4872C43.3813 17.2757 41.0108 26.6459 33.6374 33.421Z" fill="#FF9D07"/>
<path d="M29.7739 15.3305C27.0166 15.8644 24.0348 17.3709 21.394 19.7631C18.146 22.7141 16.1291 26.3562 15.6258 29.6382L10.1197 29.1374C10.6686 24.8497 13.2637 20.028 17.5555 16.0755C21.3067 12.632 25.6235 10.5295 29.5493 9.92114L29.7739 15.3305Z" fill="#FFAD0A"/>
<path d="M33.0967 33.4128C27.4741 38.5076 20.2961 39.5878 17.0648 35.8174C15.7132 34.2447 15.264 32.076 15.6092 29.7086C16.0916 26.41 18.1169 22.7348 21.394 19.759C24.2552 17.164 27.5157 15.6161 30.4559 15.2147C33.2964 14.8256 35.8373 15.5044 37.426 17.3544C40.6573 21.1248 38.7235 28.3097 33.0967 33.4087V33.4128Z" fill="#FEDB1D"/>
<path d="M37.1598 36.8024C28.1894 45.7297 16.7529 49.3263 9.46676 46.1022C8.20666 45.5435 7.07132 44.7819 6.09402 43.8093C5.88608 43.6024 5.69062 43.3913 5.50348 43.172C6.31443 43.8549 7.22936 44.4177 8.21082 44.8482C15.4969 48.0723 26.9293 44.4798 35.9039 35.5484C44.1008 27.3909 47.827 17.1764 45.9348 9.94599C45.4773 8.19943 44.683 6.6267 43.5518 5.29816C43.7722 5.48026 43.9926 5.67892 44.2006 5.88586C45.6686 7.34684 46.6542 9.1472 47.1949 11.1959C49.0871 18.4263 45.365 28.6408 37.164 36.7983L37.1598 36.8024Z" fill="#FDFFFF"/>
<path d="M37.1598 36.8024C28.6469 45.2745 17.9173 48.9455 10.6187 46.5409C17.2478 47.0334 22.6832 44.7406 27.0582 42.5305C31.9614 40.0555 38.8815 34.4185 43.0777 26.3355C47.0618 18.6622 47.2365 11.7836 46.1178 8.47675C46.3839 8.96512 46.6168 9.4866 46.8081 10.0164C46.9537 10.3971 47.0784 10.7945 47.1866 11.2001C49.0788 18.4305 45.3567 28.6449 37.1557 36.8024H37.1598Z" fill="#FDFFFF"/>
</svg>
