<svg width="27" height="27" viewBox="0 0 27 27" fill="none" xmlns="http://www.w3.org/2000/svg">
<path d="M24.2812 11.3818H23.375V11.3333H13.25V16H19.6079C18.6804 18.7166 16.1879 20.6667 13.25 20.6667C9.52231 20.6667 6.5 17.5324 6.5 13.6667C6.5 9.80092 9.52231 6.66667 13.25 6.66667C14.9707 6.66667 16.5361 7.33983 17.7281 8.43942L20.9101 5.1395C18.9009 3.19758 16.2133 2 13.25 2C7.03719 2 2 7.22375 2 13.6667C2 20.1096 7.03719 25.3333 13.25 25.3333C19.4628 25.3333 24.5 20.1096 24.5 13.6667C24.5 12.8844 24.4224 12.1208 24.2812 11.3818Z" fill="#FFC107"/>
<path d="M3.29736 8.23642L6.99355 11.0475C7.99368 8.47967 10.4158 6.66667 13.2502 6.66667C14.9709 6.66667 16.5364 7.33983 17.7283 8.43942L20.9104 5.1395C18.9011 3.19758 16.2135 2 13.2502 2C8.92911 2 5.18174 4.52992 3.29736 8.23642Z" fill="#FF3D00"/>
<path d="M13.2502 25.3333C16.1561 25.3333 18.7964 24.1801 20.7927 22.3047L17.3109 19.2492C16.1434 20.1699 14.7169 20.6679 13.2502 20.6667C10.3241 20.6667 7.83949 18.7317 6.90349 16.0315L3.23486 18.9627C5.09674 22.741 8.87786 25.3333 13.2502 25.3333Z" fill="#4CAF50"/>
<path d="M24.2812 11.3817H23.375V11.3333H13.25V16H19.6079C19.1642 17.2929 18.365 18.4227 17.309 19.2497L17.3107 19.2486L20.7926 22.3041C20.5462 22.5362 24.5 19.5 24.5 13.6666C24.5 12.8844 24.4224 12.1208 24.2812 11.3817Z" fill="#1976D2"/>
</svg>
