<svg width="20" height="15" viewBox="0 0 20 15" fill="none" xmlns="http://www.w3.org/2000/svg">
<path d="M8.19317 3.25846L5.93954 5.99446C5.86432 6.08583 5.75785 6.14972 5.63831 6.17525C5.51876 6.20078 5.39354 6.18637 5.284 6.13446L3.03355 5.07146C3.17031 4.78869 3.21066 4.47279 3.149 4.16742C3.08735 3.86206 2.92675 3.58233 2.68941 3.36691C2.45206 3.15148 2.1497 3.01101 1.82413 2.96491C1.49855 2.91881 1.16585 2.96937 0.872033 3.10958C0.578212 3.2498 0.337783 3.47275 0.183991 3.7476C0.0301993 4.02246 -0.0293577 4.33564 0.0135549 4.64385C0.0564676 4.95206 0.19973 5.24007 0.423533 5.46805C0.647336 5.69603 0.940624 5.85272 1.26284 5.91646L3.05473 13.9565C3.11747 14.2373 3.28068 14.4892 3.51692 14.6699C3.75317 14.8505 4.04806 14.9489 4.35205 14.9485H14.7115C15.0153 14.9487 15.31 14.8502 15.546 14.6696C15.782 14.4889 15.9451 14.2372 16.0078 13.9565L17.7997 5.91646C18.1219 5.85272 18.4152 5.69603 18.639 5.46805C18.8628 5.24007 19.0061 4.95206 19.049 4.64385C19.0919 4.33564 19.0323 4.02246 18.8785 3.7476C18.7247 3.47275 18.4843 3.2498 18.1905 3.10958C17.8967 2.96937 17.564 2.91881 17.2384 2.96491C16.9128 3.01101 16.6105 3.15148 16.3731 3.36691C16.1358 3.58233 15.9752 3.86206 15.9135 4.16742C15.8519 4.47279 15.8922 4.78869 16.029 5.07146L13.7775 6.13446C13.6679 6.18637 13.5427 6.20078 13.4232 6.17525C13.3036 6.14972 13.1971 6.08583 13.1219 5.99446L10.8683 3.25746C11.0221 3.03081 11.1084 2.76925 11.1183 2.50023C11.1282 2.2312 11.0612 1.96463 10.9244 1.72846C10.7876 1.49229 10.5861 1.29523 10.3408 1.15796C10.0956 1.02068 9.81581 0.948242 9.53073 0.948242C9.24566 0.948242 8.96583 1.02068 8.72061 1.15796C8.47539 1.29523 8.27381 1.49229 8.13702 1.72846C8.00022 1.96463 7.93325 2.2312 7.94313 2.50023C7.95301 2.76925 8.03938 3.03181 8.19317 3.25846ZM9.53073 11.9485C9.32212 11.9485 9.11555 11.9097 8.92282 11.8343C8.73009 11.7589 8.55496 11.6484 8.40745 11.5091C8.25994 11.3698 8.14293 11.2045 8.0631 11.0225C7.98327 10.8405 7.94218 10.6454 7.94218 10.4485C7.94218 10.2515 7.98327 10.0564 8.0631 9.87443C8.14293 9.69244 8.25994 9.52709 8.40745 9.3878C8.55496 9.24851 8.73009 9.13802 8.92282 9.06264C9.11555 8.98726 9.32212 8.94846 9.53073 8.94846C9.95204 8.94846 10.3561 9.10649 10.654 9.3878C10.9519 9.6691 11.1193 10.0506 11.1193 10.4485C11.1193 10.8463 10.9519 11.2278 10.654 11.5091C10.3561 11.7904 9.95204 11.9485 9.53073 11.9485Z" fill="#FFFDEE"/>
</svg>
