<svg width="34" height="28" viewBox="0 0 34 28" fill="none" xmlns="http://www.w3.org/2000/svg">
<mask id="path-1-outside-1_755_3287" maskUnits="userSpaceOnUse" x="-0.333496" y="0.43486" width="34" height="28" fill="black">
<rect fill="white" x="-0.333496" y="0.43486" width="34" height="28"/>
<path fill-rule="evenodd" clip-rule="evenodd" d="M29.3403 10.1305C29.8626 9.3455 30.167 8.40301 30.167 7.38943C30.167 4.6531 27.9487 2.43486 25.2124 2.43486C22.7939 2.43486 20.7801 4.16772 20.3449 6.45957C20.0742 6.56958 19.8006 6.69214 19.5247 6.81577C18.594 7.23283 17.6362 7.66199 16.6665 7.66199C15.6898 7.66199 14.7333 7.22661 13.8067 6.80492C13.5298 6.67888 13.2556 6.55406 12.9843 6.44246C12.5423 4.15909 10.5326 2.43486 8.1201 2.43486C5.38377 2.43486 3.16553 4.6531 3.16553 7.38943C3.16553 8.40376 3.47033 9.34689 3.99334 10.1322C2.52006 11.7637 1.6665 13.6981 1.6665 15.7704C1.6665 21.5913 8.38292 26.3122 16.6665 26.3122C24.9501 26.3122 31.6665 21.5913 31.6665 15.7704C31.6665 13.6951 30.8134 11.7609 29.3403 10.1305Z"/>
</mask>
<path fill-rule="evenodd" clip-rule="evenodd" d="M29.3403 10.1305C29.8626 9.3455 30.167 8.40301 30.167 7.38943C30.167 4.6531 27.9487 2.43486 25.2124 2.43486C22.7939 2.43486 20.7801 4.16772 20.3449 6.45957C20.0742 6.56958 19.8006 6.69214 19.5247 6.81577C18.594 7.23283 17.6362 7.66199 16.6665 7.66199C15.6898 7.66199 14.7333 7.22661 13.8067 6.80492C13.5298 6.67888 13.2556 6.55406 12.9843 6.44246C12.5423 4.15909 10.5326 2.43486 8.1201 2.43486C5.38377 2.43486 3.16553 4.6531 3.16553 7.38943C3.16553 8.40376 3.47033 9.34689 3.99334 10.1322C2.52006 11.7637 1.6665 13.6981 1.6665 15.7704C1.6665 21.5913 8.38292 26.3122 16.6665 26.3122C24.9501 26.3122 31.6665 21.5913 31.6665 15.7704C31.6665 13.6951 30.8134 11.7609 29.3403 10.1305Z" fill="#56533D"/>
<path d="M29.3403 10.1305L28.0915 9.29958L27.4454 10.2707L28.2273 11.1361L29.3403 10.1305ZM20.3449 6.45957L20.9095 7.84926L21.6662 7.54183L21.8186 6.7394L20.3449 6.45957ZM19.5247 6.81577L20.1381 8.18464L20.1381 8.18464L19.5247 6.81577ZM13.8067 6.80492L14.4281 5.43968L13.8067 6.80492ZM12.9843 6.44246L11.5116 6.72748L11.6654 7.52184L12.4136 7.82966L12.9843 6.44246ZM3.99334 10.1322L5.10659 11.1376L5.88846 10.2718L5.24182 9.30079L3.99334 10.1322ZM28.667 7.38943C28.667 8.09829 28.4551 8.75311 28.0915 9.29958L30.5891 10.9614C31.2701 9.9379 31.667 8.70773 31.667 7.38943H28.667ZM25.2124 3.93486C27.1203 3.93486 28.667 5.48153 28.667 7.38943H31.667C31.667 3.82467 28.7772 0.93486 25.2124 0.93486V3.93486ZM21.8186 6.7394C22.1219 5.14224 23.5277 3.93486 25.2124 3.93486V0.93486C22.06 0.93486 19.4383 3.1932 18.8713 6.17975L21.8186 6.7394ZM20.1381 8.18464C20.4185 8.05898 20.6676 7.94756 20.9095 7.84926L19.7803 5.06989C19.4807 5.19161 19.1827 5.32531 18.9114 5.44691L20.1381 8.18464ZM16.6665 9.16199C18.0161 9.16199 19.2775 8.57026 20.1381 8.18464L18.9114 5.44691C17.9104 5.89539 17.2562 6.16199 16.6665 6.16199V9.16199ZM13.1854 8.17017C14.0422 8.56016 15.3049 9.16199 16.6665 9.16199V6.16199C16.0748 6.16199 15.4243 5.89306 14.4281 5.43968L13.1854 8.17017ZM12.4136 7.82966C12.6549 7.92892 12.9037 8.04196 13.1854 8.17017L14.4281 5.43968C14.156 5.3158 13.8562 5.1792 13.5549 5.05525L12.4136 7.82966ZM8.1201 3.93486C9.80053 3.93486 11.2036 5.13619 11.5116 6.72748L14.4569 6.15743C13.8811 3.182 11.2646 0.93486 8.1201 0.93486V3.93486ZM4.66553 7.38943C4.66553 5.48153 6.21219 3.93486 8.1201 3.93486V0.93486C4.55534 0.93486 1.66553 3.82467 1.66553 7.38943H4.66553ZM5.24182 9.30079C4.87773 8.75407 4.66553 8.09881 4.66553 7.38943H1.66553C1.66553 8.7087 2.06294 9.9397 2.74486 10.9637L5.24182 9.30079ZM3.1665 15.7704C3.1665 14.1321 3.83693 12.5435 5.10659 11.1376L2.8801 9.1269C1.2032 10.9838 0.166504 13.2642 0.166504 15.7704H3.1665ZM16.6665 24.8122C12.7961 24.8122 9.35574 23.7069 6.92268 21.9969C4.48519 20.2838 3.1665 18.0596 3.1665 15.7704H0.166504C0.166504 19.302 2.20603 22.3488 5.19764 24.4513C8.19369 26.557 12.2533 27.8122 16.6665 27.8122V24.8122ZM30.1665 15.7704C30.1665 18.0596 28.8478 20.2838 26.4103 21.9969C23.9773 23.7069 20.5369 24.8122 16.6665 24.8122V27.8122C21.0797 27.8122 25.1393 26.557 28.1354 24.4513C31.127 22.3488 33.1665 19.302 33.1665 15.7704H30.1665ZM28.2273 11.1361C29.4961 12.5404 30.1665 14.1285 30.1665 15.7704H33.1665C33.1665 13.2617 32.1306 10.9813 30.4533 9.12489L28.2273 11.1361Z" fill="#56533D" mask="url(#path-1-outside-1_755_3287)"/>
<path d="M31.6665 15.7703C31.6665 21.5912 24.9501 26.3122 16.6665 26.3122C8.38292 26.3122 1.6665 21.5912 1.6665 15.7703C1.6665 11.4679 5.34593 7.75932 10.612 6.12401C12.4614 5.54971 14.5153 7.66198 16.6665 7.66198C18.8177 7.66198 20.9105 5.54971 22.7794 6.14348C28.0163 7.78852 31.6665 11.4777 31.6665 15.7703Z" fill="#7EB737"/>
<path d="M25.2124 12.344C27.9487 12.344 30.167 10.1258 30.167 7.38944C30.167 4.6531 27.9487 2.43486 25.2124 2.43486C22.4761 2.43486 20.2578 4.6531 20.2578 7.38944C20.2578 10.1258 22.4761 12.344 25.2124 12.344Z" fill="#FFFDEE"/>
<path d="M25.2123 9.85204C26.6619 9.85204 27.8371 8.67684 27.8371 7.22717C27.8371 5.7775 26.6619 4.60231 25.2123 4.60231C23.7626 4.60231 22.5874 5.7775 22.5874 7.22717C22.5874 8.67684 23.7626 9.85204 25.2123 9.85204Z" fill="#56533D"/>
<path d="M8.1201 12.344C10.8564 12.344 13.0747 10.1258 13.0747 7.38944C13.0747 4.6531 10.8564 2.43486 8.1201 2.43486C5.38377 2.43486 3.16553 4.6531 3.16553 7.38944C3.16553 10.1258 5.38377 12.344 8.1201 12.344Z" fill="#FFFDEE"/>
<path d="M8.11998 9.85204C9.56965 9.85204 10.7448 8.67684 10.7448 7.22717C10.7448 5.7775 9.56965 4.60231 8.11998 4.60231C6.67031 4.60231 5.49512 5.7775 5.49512 7.22717C5.49512 8.67684 6.67031 9.85204 8.11998 9.85204Z" fill="#56533D"/>
<path d="M6.64369 15.8131L6.64372 15.813L6.63972 15.8107C6.29581 15.6101 5.83713 15.7045 5.62617 16.0662C5.42597 16.4094 5.51959 16.8669 5.8794 17.0784C9.44536 19.2491 13.0518 20.3357 16.6663 20.3357C20.2813 20.3357 23.8884 19.2487 27.4549 17.0773L27.4549 17.0773L27.4574 17.0758C27.8073 16.8571 27.9097 16.4148 27.7063 16.0662L27.7064 16.0661L27.7024 16.0596C27.4837 15.7098 27.0414 15.6074 26.6928 15.8107L26.6928 15.8107L26.6888 15.8131C23.3537 17.8421 20.0059 18.8501 16.6663 18.8501C13.3267 18.8501 9.97877 17.8421 6.64369 15.8131Z" fill="#56533D" stroke="#56533D" stroke-width="0.5"/>
</svg>
