<svg width="31" height="36" viewBox="0 0 31 36" fill="none" xmlns="http://www.w3.org/2000/svg">
<g clip-path="url(#clip0_555_10192)">
<path d="M13.985 1.75254C13.985 1.75254 2.32078 3.79209 1.82617 14.394C1.82617 14.394 2.32078 22.0816 4.51231 24.1431C4.51231 24.1431 3.74257 26.4734 4.58308 28.4081L7.90577 29.4033L8.68267 34.7739H22.1126V29.0899C22.1126 29.0899 28.4033 30.1142 26.071 23.8593C26.071 23.8593 32.6444 13.6236 25.5056 6.65768C25.5056 6.65768 18.9314 -0.0487008 13.9858 1.75294L13.985 1.75254Z" fill="#FFFDEE"/>
<path d="M16.7916 27.3966C16.0934 27.3966 15.5276 26.8277 15.5276 26.1256C15.5276 25.8677 15.3189 25.6578 15.0624 25.6578C14.806 25.6578 14.5972 25.8677 14.5972 26.1256C14.5972 26.8277 14.0315 27.3966 13.3333 27.3966C12.6351 27.3966 12.0693 26.8277 12.0693 26.1256C12.0693 24.4655 13.412 23.1152 15.0628 23.1152C16.7136 23.1152 18.0563 24.4655 18.0563 26.1256C18.0563 26.8277 17.4905 27.3966 16.7923 27.3966H16.7916Z" fill="#040000"/>
<path d="M9.24935 22.7697C11.5493 22.7697 13.4137 20.8948 13.4137 18.5819C13.4137 16.269 11.5493 14.394 9.24935 14.394C6.94942 14.394 5.08496 16.269 5.08496 18.5819C5.08496 20.8948 6.94942 22.7697 9.24935 22.7697Z" fill="#040000"/>
<path d="M20.8753 22.7697C23.1753 22.7697 25.0397 20.8948 25.0397 18.5819C25.0397 16.269 23.1753 14.394 20.8753 14.394C18.5754 14.394 16.7109 16.269 16.7109 18.5819C16.7109 20.8948 18.5754 22.7697 20.8753 22.7697Z" fill="#040000"/>
<path d="M21.8331 35.6787H8.29189C7.59371 35.6787 7.02794 35.1097 7.02794 34.4076V30.3565H5.73695C3.73388 30.3565 2.10454 28.718 2.10454 26.7036V26.6557C2.10454 25.796 2.39876 24.9888 2.91603 24.3506C1.06801 21.8033 0.0625 18.7218 0.0625 15.5443V15.2681C0.0625 13.2509 0.45572 11.2933 1.23103 9.4497C1.97969 7.66965 3.05121 6.07152 4.41575 4.69929C5.78029 3.32707 7.36947 2.24952 9.13955 1.49664C10.9729 0.716967 12.9195 0.321533 14.9253 0.321533H15.2001C17.2059 0.321533 19.1525 0.716967 20.9858 1.49664C22.7559 2.24952 24.3451 3.32707 25.7097 4.69929C27.0742 6.07152 28.1457 7.66965 28.8944 9.4497C29.6697 11.2933 30.0629 13.2505 30.0629 15.2681V15.5443C30.0629 18.7222 29.0574 21.8033 27.2094 24.3506C27.7266 24.9888 28.0209 25.796 28.0209 26.6557V26.7036C28.0209 28.718 26.3915 30.3565 24.3884 30.3565H23.0975V34.4076C23.0975 35.1097 22.5317 35.6787 21.8335 35.6787H21.8331ZM9.55623 33.1361H20.5692V29.085C20.5692 28.3829 21.1349 27.814 21.8331 27.814H24.3881C24.9968 27.814 25.4922 27.3158 25.4922 26.7036V26.6557C25.4922 26.2338 25.2588 25.8536 24.8831 25.6633C24.5344 25.4866 24.2867 25.1579 24.2115 24.7725C24.1364 24.387 24.2425 23.9884 24.4994 23.6925C26.4563 21.4359 27.5342 18.5419 27.5342 15.5443V15.2681C27.5342 11.955 26.2512 8.83995 23.9217 6.49734C21.5922 4.15472 18.4945 2.86446 15.2001 2.86446H14.9253C11.6305 2.86446 8.53323 4.15472 6.20373 6.49734C3.87423 8.83995 2.59119 11.955 2.59119 15.2681V15.5443C2.59119 18.5419 3.66907 21.4359 5.62602 23.6925C5.88247 23.9884 5.98903 24.387 5.91388 24.7725C5.83874 25.1579 5.59103 25.4866 5.24234 25.6633C4.86662 25.8536 4.63323 26.2338 4.63323 26.6557V26.7036C4.63323 27.3158 5.12863 27.814 5.73735 27.814H8.29228C8.99046 27.814 9.55623 28.3829 9.55623 29.085V33.1361Z" fill="#040000"/>
<path d="M12.9312 35.1912C12.3495 35.1912 11.8779 34.717 11.8779 34.1316V31.5247C11.8779 30.9398 12.3495 30.4656 12.9312 30.4656C13.5128 30.4656 13.9844 30.9398 13.9844 31.5247V34.1316C13.9844 34.7166 13.5128 35.1912 12.9312 35.1912Z" fill="#040000"/>
<path d="M17.1938 35.1912C16.6122 35.1912 16.1406 34.717 16.1406 34.1316V31.5247C16.1406 30.9398 16.6122 30.4656 17.1938 30.4656C17.7755 30.4656 18.2471 30.9398 18.2471 31.5247V34.1316C18.2471 34.7166 17.7755 35.1912 17.1938 35.1912Z" fill="#040000"/>
</g>
<defs>
<clipPath id="clip0_555_10192">
<rect width="30" height="35.3571" fill="white" transform="translate(0.0625 0.321533)"/>
</clipPath>
</defs>
</svg>
