<svg width="36" height="34" viewBox="0 0 36 34" fill="none" xmlns="http://www.w3.org/2000/svg">
<g clip-path="url(#clip0_474_1153)">
<path d="M32.6826 15.5062C30.5394 10.6664 24.8134 7.203 18.085 7.203C11.3565 7.203 6.14648 10.3615 3.79675 14.8614L2.58496 14.8343V20.1223H2.59357C2.85495 26.8522 9.68988 32.243 18.085 32.243C26.48 32.243 33.315 26.8522 33.5764 20.1223H33.585V15.5259L32.683 15.5057L32.6826 15.5062Z" fill="#F5EED8"/>
<path d="M18.085 28.402C26.6454 28.402 33.585 22.5461 33.585 15.3225C33.585 8.09883 26.6454 2.24292 18.085 2.24292C9.52455 2.24292 2.58496 8.09883 2.58496 15.3225C2.58496 22.5461 9.52455 28.402 18.085 28.402Z" fill="#68AF1D"/>
<path d="M18.085 25.8019C25.1047 25.8019 30.7954 21.0324 30.7954 15.1489C30.7954 9.26537 25.1047 4.49585 18.085 4.49585C11.0652 4.49585 5.37457 9.26537 5.37457 15.1489C5.37457 21.0324 11.0652 25.8019 18.085 25.8019Z" fill="#FCEEE0"/>
<path d="M20.4106 8.1581L18.1044 5.62183L16.0197 8.1581H17.2935V14.2327H18.9529V8.1581H20.4106Z" fill="#56533D"/>
<path d="M16.0197 13.2307V15.1351C16.0197 16.0425 16.9764 16.7787 18.1565 16.7787C19.3366 16.7787 20.2933 16.043 20.2933 15.1351V13.2307H16.0197Z" fill="#56533D"/>
<path d="M30.4021 14.7732L26.5851 13.0571V13.7868L26.5185 13.7698H18.123V15.3757H26.5851V16.6909L30.4021 14.7732Z" fill="#56533D"/>
<path d="M20.2938 13.2307C20.2938 14.1381 19.337 14.8743 18.157 14.8743C16.9769 14.8743 16.0201 14.1386 16.0201 13.2307C16.0201 12.3228 16.9769 11.5872 18.157 11.5872C19.337 11.5872 20.2938 12.3228 20.2938 13.2307Z" fill="#948D87"/>
<path d="M33.8463 15.4543C33.8463 8.15794 26.848 2.24292 18.2152 2.24292C9.58233 2.24292 2.90292 7.89354 2.59592 14.9617H2.58405V20.3025H2.59273C2.85632 27.1002 9.74907 32.5453 18.2152 32.5453C26.6813 32.5453 33.574 27.1002 33.8376 20.3025H33.8463V15.6598H33.8431C33.8445 15.5911 33.8463 15.5229 33.8463 15.4543Z" stroke="black" stroke-miterlimit="10"/>
</g>
<defs>
<clipPath id="clip0_474_1153">
<rect width="35" height="33" fill="white" transform="translate(0.613953 0.932983)"/>
</clipPath>
</defs>
</svg>
