<svg width="15" height="15" viewBox="0 0 15 15" fill="none" xmlns="http://www.w3.org/2000/svg">
<path d="M12.5019 5.35774H9.105V1.97713C9.105 0.957254 8.27618 0.132416 7.25138 0.132416C6.22659 0.132416 5.39776 0.957254 5.39776 1.97713V5.35774H2.00084C0.97604 5.35774 0.147217 6.18258 0.147217 7.20245C0.147217 8.22233 0.97604 9.04716 2.00084 9.04716H5.39776V12.4278C5.39776 13.4477 6.22659 14.2725 7.25138 14.2725C8.27618 14.2725 9.105 13.4477 9.105 12.4278V9.04716H12.5019C13.5267 9.04716 14.3556 8.22233 14.3556 7.20245C14.3556 6.18258 13.5267 5.35774 12.5019 5.35774Z" fill="#F5EED8"/>
</svg>
