<svg width="39" height="36" viewBox="0 0 39 36" fill="none" xmlns="http://www.w3.org/2000/svg">
<path d="M6.0656 1.05115H17.6331C20.257 1.05115 22.3862 3.17892 22.3862 5.79638V24.232C22.3862 26.8494 20.257 28.9772 17.6331 28.9772H6.0656C3.44178 28.9772 1.3125 26.8494 1.3125 24.232V5.79638C1.3125 3.17893 3.44178 1.05115 6.0656 1.05115Z" fill="white" stroke="black" stroke-width="1.5"/>
<path d="M13.2137 6.37863L9.19718 23.0324C8.69038 25.1308 9.65188 27.2158 11.4423 28.3604H16.605C19.6031 28.3604 22.0377 26.0846 22.0377 23.272V6.19674C22.0377 4.84811 21.4766 3.81947 20.5625 2.91003L19.7073 2.53681C16.7802 1.91573 13.8721 3.63701 13.2089 6.37863H13.2137Z" fill="#C4C4C4"/>
<path d="M15.619 10.9897C14.6978 10.2327 13.8102 9.653 13.7142 9.59071L11.8527 8.38818L9.99114 9.59071C9.89518 9.653 9.00279 10.2327 8.0864 10.9897C6.7622 12.0772 5.24609 13.5864 5.24609 15.6417C5.24609 17.5341 6.7814 19.0672 8.67653 19.0672C9.53534 19.0672 10.3174 18.7462 10.9171 18.2288C10.6244 19.3738 10.0679 20.6722 8.99319 21.64H14.7218C13.6471 20.6722 13.0905 19.3738 12.7979 18.2288C13.3976 18.7462 14.1796 19.0672 15.0384 19.0672C16.9336 19.0672 18.4689 17.5341 18.4689 15.6417C18.4689 13.5864 16.9528 12.0724 15.6286 10.9897H15.619Z" fill="#383332"/>
<path d="M15.6182 10.9897C14.697 10.2328 13.8094 9.65306 13.7134 9.59078L13.4256 9.40393L10.6572 21.64H14.7114C13.6367 20.6723 13.0801 19.3739 12.7875 18.2289C13.3872 18.7463 14.1692 19.0673 15.028 19.0673C16.9232 19.0673 18.4585 17.5342 18.4585 15.6418C18.4585 13.5864 16.9424 12.0725 15.6182 10.9897Z" fill="#242120"/>
<path d="M31.3642 31.6081L37.5374 14.236L37.5374 14.2358C38.4151 11.7677 37.1198 9.05295 34.6445 8.17523L23.7441 4.3138L23.7439 4.31372C21.2688 3.43606 18.5505 4.72819 17.6724 7.19744L11.4977 24.5741L11.4976 24.5742C10.6199 27.0423 11.9152 29.7569 14.3903 30.6347C14.3903 30.6348 14.3904 30.6348 14.3905 30.6348L25.2901 34.496L31.3642 31.6081ZM31.3642 31.6081L31.3626 31.6078C30.4846 34.0767 27.7665 35.3694 25.2909 34.4963L31.3642 31.6081Z" fill="white" stroke="black" stroke-width="1.5"/>
<path d="M22.7274 24.4331L21.3744 22.6748C21.3024 22.5837 20.6595 21.7405 20.0454 20.7201C19.1626 19.254 18.2414 17.3233 18.9275 15.3877C19.5608 13.6055 21.5231 12.6713 23.3079 13.3037C24.6609 13.7828 25.5245 15.0236 25.5917 16.3699C26.4937 15.3638 27.9474 14.9422 29.3004 15.4261C31.0852 16.0585 32.0208 18.018 31.3875 19.8002C30.6966 21.7357 28.7631 22.6556 27.151 23.2353C26.0283 23.6425 25.0016 23.8917 24.8864 23.9156L22.7274 24.4283V24.4331Z" fill="#E03443"/>
</svg>
