<svg width="36" height="36" viewBox="0 0 36 36" fill="none" xmlns="http://www.w3.org/2000/svg">
<path d="M25.6229 16.9105H19.0856V10.3732C19.0856 10.0843 18.9708 9.80714 18.7665 9.60281C18.5622 9.39848 18.2851 9.28369 17.9961 9.28369C17.7071 9.28369 17.43 9.39848 17.2257 9.60281C17.0213 9.80714 16.9066 10.0843 16.9066 10.3732V16.9105H10.3693C10.0804 16.9105 9.80323 17.0253 9.5989 17.2296C9.39458 17.4339 9.27979 17.711 9.27979 18C9.27979 18.289 9.39458 18.5661 9.5989 18.7704C9.80323 18.9747 10.0804 19.0895 10.3693 19.0895H16.9066V25.6268C16.9066 25.9157 17.0213 26.1929 17.2257 26.3972C17.43 26.6015 17.7071 26.7163 17.9961 26.7163C18.2851 26.7163 18.5622 26.6015 18.7665 26.3972C18.9708 26.1929 19.0856 25.9157 19.0856 25.6268V19.0895H25.6229C25.9118 19.0895 26.189 18.9747 26.3933 18.7704C26.5976 18.5661 26.7124 18.289 26.7124 18C26.7124 17.711 26.5976 17.4339 26.3933 17.2296C26.189 17.0253 25.9118 16.9105 25.6229 16.9105Z" fill="#FFFDEE"/>
</svg>
