<svg width="34" height="31" viewBox="0 0 34 31" fill="none" xmlns="http://www.w3.org/2000/svg">
<path d="M8.34484 9.69824H4.94922C4.14668 9.69824 3.49609 10.3488 3.49609 11.1514V20.8439C3.49609 21.6464 4.14668 22.297 4.94922 22.297H8.34484C9.14738 22.297 9.79796 21.6464 9.79796 20.8439V11.1514C9.79796 10.3488 9.14738 9.69824 8.34484 9.69824Z" fill="#5A8900"/>
<path d="M23.656 5.06534V26.9721C23.656 28.5351 21.9532 29.5038 20.6099 28.7098L10.7876 22.8873C10.1733 22.5228 9.79883 21.8637 9.79883 21.1496V10.8529C9.79883 10.1388 10.1783 9.47465 10.7925 9.11511L20.6149 3.32758C21.9581 2.5336 23.656 3.50735 23.656 5.06534Z" fill="#7EB737"/>
<path fill-rule="evenodd" clip-rule="evenodd" d="M4.20216 10.1533C3.8133 10.1533 3.49807 10.4686 3.49807 10.8574V20.5499C3.49807 20.9388 3.8133 21.254 4.20216 21.254H7.59778C7.98664 21.254 8.30187 20.9388 8.30187 20.5499V10.8574C8.30187 10.4686 7.98664 10.1533 7.59778 10.1533H4.20216ZM2 10.8574C2 9.64121 2.98594 8.65527 4.20216 8.65527H7.59778C8.814 8.65527 9.79994 9.64121 9.79994 10.8574V20.5499C9.79994 21.7662 8.814 22.7521 7.59778 22.7521H4.20216C2.98594 22.7521 2 21.7662 2 20.5499V10.8574Z" fill="#56533D"/>
<path fill-rule="evenodd" clip-rule="evenodd" d="M22.1579 4.77078C22.1579 3.79033 21.0888 3.18026 20.247 3.67784L10.4238 9.4659L10.4219 9.46698C10.0385 9.69142 9.79885 10.1088 9.79885 10.5583V20.855C9.79885 21.3053 10.0344 21.7193 10.4208 21.9487L20.242 27.7705C21.0868 28.2698 22.1579 27.6595 22.1579 26.6775V4.77078ZM19.4853 2.38787C21.3299 1.29811 23.656 2.63548 23.656 4.77078V26.6775C23.656 28.8215 21.3215 30.1487 19.4797 29.0601L9.65659 23.2371C8.81457 22.7374 8.30078 21.833 8.30078 20.855V10.5583C8.30078 9.58003 8.81974 8.66946 9.66416 8.1747C9.66449 8.17451 9.66481 8.17432 9.66514 8.17413L19.4847 2.38821C19.4849 2.38809 19.4851 2.38798 19.4853 2.38787Z" fill="#56533D"/>
<path d="M27.2967 18.8775C26.9422 18.8775 26.6426 18.5729 26.6426 18.2234C26.6426 17.8738 26.9472 17.5692 27.2967 17.5692C28.0008 17.5692 28.5551 17.0149 28.5551 16.3108C28.5551 15.6067 28.0008 15.0525 27.2967 15.0525C26.9422 15.0525 26.6426 14.7478 26.6426 14.3983C26.6426 14.0487 26.9472 13.7441 27.2967 13.7441C28.7099 13.7441 29.8185 14.8527 29.8185 16.2659C29.8185 17.6791 28.7099 18.8875 27.2967 18.8875V18.8775Z" fill="#56533D"/>
<path d="M27.2967 21.3995C26.9422 21.3995 26.6426 21.0949 26.6426 20.7454C26.6426 20.3958 26.9472 20.0912 27.2967 20.0912C29.3641 20.0912 31.0769 18.3784 31.0769 16.3111C31.0769 14.2438 29.3641 12.531 27.2967 12.531C26.9422 12.531 26.6426 12.2264 26.6426 11.8768C26.6426 11.5273 26.9472 11.2227 27.2967 11.2227C30.0682 11.2227 32.3352 13.4897 32.3352 16.2612C32.3352 19.0326 30.0682 21.3995 27.2967 21.3995Z" fill="#56533D"/>
</svg>
