<svg width="27" height="24" viewBox="0 0 27 24" fill="none" xmlns="http://www.w3.org/2000/svg">
<mask id="path-1-outside-1_812_20478" maskUnits="userSpaceOnUse" x="0.352539" y="0" width="27" height="24" fill="black">
<rect fill="white" x="0.352539" width="27" height="24"/>
<path fill-rule="evenodd" clip-rule="evenodd" d="M6.89064 6.32457L13.2899 1.13877C13.5193 0.953743 13.844 0.953743 14.0719 1.13877L25.7769 10.623C26.1871 10.9548 26.017 11.5851 25.552 11.7078C25.4986 11.7225 25.4413 11.7304 25.3804 11.7304H24.8501C24.8001 11.7304 24.7515 11.7364 24.7049 11.7476C24.5567 11.7851 24.4292 11.8763 24.3439 11.9988L24.341 11.9965C24.2704 12.0974 24.229 12.2203 24.229 12.3527V22.5681C24.229 22.9113 23.9504 23.1903 23.6078 23.1903H18.229C17.8864 23.1903 17.6079 22.9113 17.6079 22.5681V17.25C17.6079 16.9068 17.3293 16.6277 16.9867 16.6277H10.3701C10.0275 16.6277 9.74893 16.9068 9.74893 17.25V22.5681C9.74893 22.9113 9.47038 23.1903 9.12778 23.1903H3.74003C3.39743 23.1903 3.11888 22.9113 3.11888 22.5681V12.3527C3.11888 12.0094 2.84034 11.7304 2.49774 11.7304H1.9749C1.3895 11.7304 1.12883 10.9918 1.58463 10.6232L6.89064 6.32457Z"/>
</mask>
<path fill-rule="evenodd" clip-rule="evenodd" d="M6.89064 6.32457L13.2899 1.13877C13.5193 0.953743 13.844 0.953743 14.0719 1.13877L25.7769 10.623C26.1871 10.9548 26.017 11.5851 25.552 11.7078C25.4986 11.7225 25.4413 11.7304 25.3804 11.7304H24.8501C24.8001 11.7304 24.7515 11.7364 24.7049 11.7476C24.5567 11.7851 24.4292 11.8763 24.3439 11.9988L24.341 11.9965C24.2704 12.0974 24.229 12.2203 24.229 12.3527V22.5681C24.229 22.9113 23.9504 23.1903 23.6078 23.1903H18.229C17.8864 23.1903 17.6079 22.9113 17.6079 22.5681V17.25C17.6079 16.9068 17.3293 16.6277 16.9867 16.6277H10.3701C10.0275 16.6277 9.74893 16.9068 9.74893 17.25V22.5681C9.74893 22.9113 9.47038 23.1903 9.12778 23.1903H3.74003C3.39743 23.1903 3.11888 22.9113 3.11888 22.5681V12.3527C3.11888 12.0094 2.84034 11.7304 2.49774 11.7304H1.9749C1.3895 11.7304 1.12883 10.9918 1.58463 10.6232L6.89064 6.32457Z" fill="#88480B"/>
<path d="M6.89064 6.32457L7.39423 6.94617L7.39432 6.9461L6.89064 6.32457ZM13.2899 1.13877L12.7876 0.516087L12.7862 0.517236L13.2899 1.13877ZM14.0719 1.13877L13.5676 1.75985L13.5682 1.76034L14.0719 1.13877ZM25.7769 10.623L25.2732 11.2446L25.2739 11.2451L25.7769 10.623ZM25.552 11.7078L25.3479 10.9342L25.3398 10.9364L25.552 11.7078ZM24.7049 11.7476L24.5176 10.9697L24.5084 10.9721L24.7049 11.7476ZM24.3439 11.9988L23.8402 12.6203L24.5088 13.1623L25.0005 12.4558L24.3439 11.9988ZM24.341 11.9965L24.8447 11.375L24.1775 10.8342L23.6854 11.5381L24.341 11.9965ZM1.58463 10.6232L2.08765 11.2453L2.08823 11.2448L1.58463 10.6232ZM7.39432 6.9461L13.7935 1.76031L12.7862 0.517236L6.38696 5.70303L7.39432 6.9461ZM13.7921 1.76146C13.7294 1.81207 13.6345 1.81416 13.5676 1.75985L14.5761 0.517692C14.0534 0.093329 13.3091 0.0954106 12.7876 0.516089L13.7921 1.76146ZM13.5682 1.76034L25.2732 11.2446L26.2805 10.0015L14.5755 0.517205L13.5682 1.76034ZM25.2739 11.2451C25.2551 11.23 25.2314 11.2001 25.2183 11.1592C25.2064 11.1219 25.2074 11.0889 25.2131 11.0642C25.2228 11.0218 25.2621 10.9569 25.3479 10.9342L25.756 12.4813C26.8194 12.2008 27.2279 10.7675 26.2799 10.001L25.2739 11.2451ZM25.3804 12.5304C25.5116 12.5304 25.6403 12.5132 25.7642 12.4791L25.3398 10.9364C25.3569 10.9317 25.3709 10.9304 25.3804 10.9304V12.5304ZM24.8501 12.5304H25.3804V10.9304H24.8501V12.5304ZM24.8921 12.5254C24.8779 12.5288 24.8637 12.5304 24.8501 12.5304V10.9304C24.7365 10.9304 24.625 10.9439 24.5176 10.9698L24.8921 12.5254ZM24.5084 10.9721C24.167 11.0586 23.8787 11.2668 23.6873 11.5418L25.0005 12.4558C24.9797 12.4858 24.9464 12.5117 24.9014 12.5231L24.5084 10.9721ZM24.8476 11.3773L24.8447 11.375L23.8373 12.618L23.8402 12.6203L24.8476 11.3773ZM25.029 12.3527C25.029 12.3898 25.0168 12.426 24.9967 12.4549L23.6854 11.5381C23.524 11.7688 23.429 12.0508 23.429 12.3527H25.029ZM25.029 22.5681V12.3527H23.429V22.5681H25.029ZM23.6078 23.9903C24.3936 23.9903 25.029 23.3518 25.029 22.5681H23.429C23.429 22.4708 23.5073 22.3903 23.6078 22.3903V23.9903ZM18.229 23.9903H23.6078V22.3903H18.229V23.9903ZM16.8079 22.5681C16.8079 23.3518 17.4433 23.9903 18.229 23.9903V22.3903C18.3296 22.3903 18.4079 22.4708 18.4079 22.5681H16.8079ZM16.8079 17.25V22.5681H18.4079V17.25H16.8079ZM16.9867 17.4277C16.8862 17.4277 16.8079 17.3473 16.8079 17.25H18.4079C18.4079 16.4663 17.7725 15.8277 16.9867 15.8277V17.4277ZM10.3701 17.4277H16.9867V15.8277H10.3701V17.4277ZM10.5489 17.25C10.5489 17.3473 10.4706 17.4277 10.3701 17.4277V15.8277C9.58433 15.8277 8.94893 16.4663 8.94893 17.25H10.5489ZM10.5489 22.5681V17.25H8.94893V22.5681H10.5489ZM9.12778 23.9903C9.91353 23.9903 10.5489 23.3518 10.5489 22.5681H8.94893C8.94893 22.4708 9.02724 22.3903 9.12778 22.3903V23.9903ZM3.74003 23.9903H9.12778V22.3903H3.74003V23.9903ZM2.31888 22.5681C2.31888 23.3518 2.95429 23.9903 3.74003 23.9903V22.3903C3.84058 22.3903 3.91888 22.4708 3.91888 22.5681H2.31888ZM2.31888 12.3527V22.5681H3.91888V12.3527H2.31888ZM2.49774 12.5304C2.39719 12.5304 2.31888 12.45 2.31888 12.3527H3.91888C3.91888 11.5689 3.28348 10.9304 2.49774 10.9304V12.5304ZM1.9749 12.5304H2.49774V10.9304H1.9749V12.5304ZM1.08162 10.0011C0.0417547 10.842 0.632349 12.5304 1.9749 12.5304V10.9304C2.00377 10.9304 2.04627 10.9417 2.08399 10.9701C2.11723 10.9951 2.13507 11.0243 2.14377 11.049C2.15248 11.0737 2.15679 11.1073 2.14674 11.1472C2.13532 11.1925 2.10966 11.2275 2.08765 11.2453L1.08162 10.0011ZM6.38705 5.70296L1.08104 10.0016L2.08823 11.2448L7.39423 6.94617L6.38705 5.70296Z" fill="#56533D" mask="url(#path-1-outside-1_812_20478)"/>
<path d="M13.8198 1.45128L24.6475 10.2233H24.6434L25.5186 10.9338C25.684 11.0681 25.5865 11.3305 25.3804 11.3305H24.8501C24.286 11.3305 23.829 11.7892 23.829 12.3527V22.5681C23.829 22.6911 23.7289 22.7904 23.6078 22.7904H18.229C18.108 22.7904 18.0079 22.6911 18.0079 22.5681V17.25C18.0079 16.6866 17.5509 16.2278 16.9867 16.2278H10.3701C9.80591 16.2278 9.34893 16.6866 9.34893 17.25V22.5681C9.34893 22.6911 9.24881 22.7904 9.12778 22.7904H3.74003C3.619 22.7904 3.51888 22.6911 3.51888 22.5681V12.3527C3.51888 11.7892 3.06191 11.3305 2.49774 11.3305H1.9749C1.76807 11.3305 1.67236 11.0667 1.83614 10.9343L1.83643 10.9341L13.5414 1.45128L13.5417 1.45102C13.6227 1.38527 13.7385 1.38527 13.8195 1.45102L13.8198 1.45128Z" fill="#CD7522" stroke="#56533D" stroke-width="0.8"/>
</svg>
