<svg width="38" height="38" viewBox="0 0 38 38" fill="none" xmlns="http://www.w3.org/2000/svg">
<path d="M30.0833 9.5C29.6634 9.5 29.2607 9.66682 28.9638 9.96375C28.6668 10.2607 28.5 10.6634 28.5 11.0833V17.4167C28.5 17.8366 28.3332 18.2393 28.0363 18.5363C27.7393 18.8332 27.3366 19 26.9167 19H11.7325L13.7909 16.9575C14.089 16.6594 14.2565 16.255 14.2565 15.8333C14.2565 15.4117 14.089 15.0073 13.7909 14.7092C13.4927 14.411 13.0883 14.2435 12.6667 14.2435C12.245 14.2435 11.8407 14.411 11.5425 14.7092L6.79252 19.4592C6.64837 19.6097 6.53538 19.7873 6.46002 19.9817C6.30166 20.3671 6.30166 20.7995 6.46002 21.185C6.53538 21.3794 6.64837 21.5569 6.79252 21.7075L11.5425 26.4575C11.6897 26.6059 11.8648 26.7237 12.0578 26.8041C12.2507 26.8845 12.4577 26.9258 12.6667 26.9258C12.8757 26.9258 13.0827 26.8845 13.2756 26.8041C13.4685 26.7237 13.6437 26.6059 13.7909 26.4575C13.9393 26.3103 14.057 26.1352 14.1374 25.9422C14.2178 25.7493 14.2592 25.5424 14.2592 25.3333C14.2592 25.1243 14.2178 24.9174 14.1374 24.7244C14.057 24.5315 13.9393 24.3564 13.7909 24.2092L11.7325 22.1667H26.9167C28.1765 22.1667 29.3846 21.6662 30.2754 20.7754C31.1662 19.8846 31.6667 18.6764 31.6667 17.4167V11.0833C31.6667 10.6634 31.4999 10.2607 31.2029 9.96375C30.906 9.66682 30.5033 9.5 30.0833 9.5Z" fill="white"/>
</svg>
