<svg width="81" height="43" viewBox="0 0 81 43" fill="none" xmlns="http://www.w3.org/2000/svg">
<g clip-path="url(#clip0_474_1141)">
<path d="M78.7912 20.7351L78.2092 17.912L77.8665 19.2485C72.925 13.9905 54.9641 15.4086 58.7578 14.3692C64.113 12.9015 73.4471 8.73745 73.1059 6.65865L72.6259 4.14135L71.6767 5.70804C69.9942 5.32109 66.7112 5.32635 61.1875 5.94663C41.5199 8.15279 24.3908 11.776 9.174 22.1625C5.92851 24.3777 4.26923 26.4509 3.89052 28.3096L3.37444 27.2422L3.82546 29.5474C3.84618 29.7404 3.88685 29.9296 3.9364 30.1172L3.94735 30.1746L3.95179 30.1738C5.52643 35.7325 19.7518 38.6845 36.0968 36.3606C57.1137 33.3726 79.6197 25.0687 78.7853 20.7408L78.7898 20.7399L78.7912 20.7351Z" fill="#568326"/>
<path d="M8.69471 19.6476C23.9115 9.26115 41.0406 5.63792 60.7077 3.42955C84.5895 0.749723 66.6143 9.56635 58.2781 11.8521C54.2247 12.9639 75.0144 11.2676 78.2117 17.9118C80.2476 22.1411 57.1504 30.78 35.6211 33.8404C12.5437 37.1227 -6.31485 29.8915 8.69471 19.6476Z" fill="#7DC134"/>
<path d="M9.35083 32.4312C9.35083 32.4312 29.861 19.6016 37.7189 17.2536L15.218 33.9259L9.34861 32.4316L9.35083 32.4312Z" fill="#568326"/>
<path d="M15.0715 15.7403L37.9439 13.5163L26.418 10.6199L15.0715 15.7403Z" fill="#568326"/>
<path d="M41.6016 32.6999L49.459 16.8499L48.4035 31.5634L41.6016 32.6999Z" fill="#568326"/>
<path d="M40.259 6.65019L47.5392 11.6868L44.4285 5.79795L40.259 6.65019Z" fill="#568326"/>
</g>
<defs>
<clipPath id="clip0_474_1141">
<rect width="75.3009" height="28.6143" fill="white" transform="translate(0.869324 14.1031) rotate(-10.7947)"/>
</clipPath>
</defs>
</svg>
