<svg width="26" height="30" viewBox="0 0 26 30" fill="none" xmlns="http://www.w3.org/2000/svg">
<g clip-path="url(#clip0_755_3272)">
<path d="M25.7889 21.4686C25.7963 21.4307 25.8038 21.3966 25.8075 21.3587C25.8112 21.3246 25.8112 21.2905 25.8112 21.2564C25.8112 21.2564 25.8112 21.2488 25.8112 21.2451C25.8112 21.2299 25.8112 21.2147 25.8112 21.1996C25.8112 21.1844 25.8112 21.1655 25.8112 21.1503C25.8112 21.1162 25.8038 21.0821 25.8001 21.048C25.7963 21.0139 25.7926 20.9798 25.7852 20.9457C25.7852 20.9305 25.7777 20.9154 25.774 20.9002C25.774 20.8851 25.7666 20.8737 25.7591 20.8585C25.7591 20.8548 25.7591 20.851 25.7554 20.8472C25.7442 20.8131 25.7368 20.7828 25.7256 20.7486C25.7107 20.7145 25.6958 20.6804 25.6772 20.6463C25.6661 20.6236 25.6586 20.5971 25.6437 20.5743L22.2568 14.6023L25.6437 8.63027C25.6549 8.60753 25.6661 8.58479 25.6772 8.55827C25.6921 8.52416 25.7107 8.49006 25.7256 8.45595C25.7368 8.42185 25.7479 8.39153 25.7554 8.35743C25.7554 8.35364 25.7554 8.34985 25.7591 8.34606C25.7628 8.3309 25.7703 8.31954 25.774 8.30438C25.7777 8.28922 25.7814 8.27407 25.7852 8.25891C25.7926 8.2248 25.7963 8.1907 25.8001 8.15659C25.8038 8.12249 25.8112 8.08839 25.8112 8.05428C25.8112 8.03912 25.8112 8.02018 25.8112 8.00502C25.8112 7.98986 25.8112 7.9747 25.8112 7.95955C25.8112 7.95955 25.8112 7.95197 25.8112 7.94818C25.8112 7.91408 25.8112 7.87997 25.8075 7.84587C25.8038 7.80797 25.7963 7.77387 25.7889 7.73597C25.7852 7.71324 25.7814 7.6905 25.7777 7.66398C25.7777 7.66398 25.7777 7.66398 25.7777 7.66019C25.7777 7.65261 25.774 7.64882 25.7703 7.64124C25.7591 7.60335 25.7442 7.56924 25.7331 7.53514C25.7219 7.50482 25.7107 7.47451 25.6996 7.44419C25.6884 7.42146 25.6772 7.39872 25.6623 7.37978C25.6586 7.3722 25.6549 7.36083 25.6512 7.35325C25.6475 7.34567 25.64 7.33809 25.6326 7.33051C25.6177 7.30778 25.6065 7.28504 25.5916 7.26609C25.5767 7.24336 25.5544 7.22062 25.5358 7.19789C25.5097 7.16757 25.4874 7.13347 25.4576 7.10315C25.4539 7.09936 25.4502 7.09557 25.4465 7.08799C25.4465 7.08799 25.439 7.08042 25.4353 7.08042C25.4279 7.07284 25.4204 7.06905 25.4093 7.06147C25.3683 7.02357 25.3237 6.98568 25.279 6.95158C25.2567 6.93642 25.2343 6.92126 25.212 6.9061C25.2008 6.89853 25.1897 6.89095 25.1748 6.88337C25.145 6.86442 25.1115 6.85305 25.078 6.8379C25.052 6.82653 25.0296 6.81516 25.0036 6.80379C24.9738 6.79242 24.944 6.78106 24.9105 6.77348C24.8919 6.7659 24.8696 6.76211 24.851 6.75832C24.8286 6.75453 24.81 6.74695 24.7877 6.74316C24.7133 6.728 24.6388 6.72043 24.5607 6.72043H17.7868L14.3999 0.7446C14.3999 0.7446 14.385 0.729442 14.3813 0.721863C14.3329 0.642287 14.2808 0.570289 14.2175 0.50208C14.2101 0.494502 14.2063 0.483133 14.1989 0.479344C14.1989 0.479344 14.1915 0.471765 14.1877 0.467976C14.1207 0.403557 14.0463 0.346716 13.9644 0.293665C13.957 0.289876 13.9495 0.282297 13.9421 0.274718C13.9309 0.26714 13.9198 0.26714 13.9086 0.259561C13.8267 0.214089 13.7411 0.176195 13.6481 0.149669C13.6481 0.149669 13.6481 0.149669 13.6443 0.149669C13.5401 0.119355 13.4322 0.107986 13.3205 0.107986C13.2089 0.107986 13.1009 0.123144 12.9967 0.149669C12.9967 0.149669 12.9967 0.149669 12.993 0.149669C12.9 0.176195 12.8143 0.214089 12.7325 0.259561C12.7213 0.26714 12.7101 0.26714 12.699 0.274718C12.6915 0.278508 12.6841 0.286087 12.6729 0.293665C12.591 0.342927 12.5166 0.399767 12.4496 0.467976C12.4496 0.467976 12.4422 0.475555 12.4384 0.475555C12.431 0.483133 12.4273 0.494502 12.4198 0.50208C12.3566 0.570289 12.3007 0.642287 12.2561 0.721863C12.2523 0.729442 12.2412 0.737021 12.2375 0.7446L8.85052 6.71664H2.0655C1.98734 6.71664 1.9129 6.72422 1.83846 6.73937C1.81613 6.74316 1.79752 6.75074 1.77519 6.75453C1.75658 6.75832 1.73425 6.7659 1.71564 6.76969C1.68587 6.77727 1.65237 6.78863 1.62259 6.8C1.59654 6.81137 1.57421 6.82274 1.54816 6.83411C1.51466 6.84926 1.48488 6.86442 1.45139 6.87958C1.44022 6.88716 1.42533 6.89474 1.41417 6.90232C1.39184 6.91747 1.3695 6.93263 1.34717 6.94779C1.30251 6.98189 1.25785 7.016 1.21691 7.05768C1.20946 7.06526 1.20202 7.06905 1.19085 7.07663C1.19085 7.07663 1.18341 7.0842 1.17969 7.0842C1.17597 7.08799 1.17224 7.09178 1.16852 7.09936C1.14247 7.12968 1.11642 7.15999 1.09036 7.1941C1.07175 7.21683 1.05314 7.23957 1.03453 7.2623C1.01965 7.28504 1.00848 7.30778 0.993593 7.32672C0.989871 7.3343 0.982427 7.34188 0.974983 7.34946C0.971261 7.35704 0.967539 7.36841 0.963817 7.37599C0.952652 7.39872 0.937764 7.41767 0.926598 7.4404C0.911711 7.47072 0.904267 7.50103 0.893101 7.53135C0.878214 7.56545 0.867048 7.59956 0.855882 7.63745C0.855882 7.64503 0.85216 7.64882 0.848439 7.6564C0.840995 7.67913 0.840995 7.70566 0.837273 7.7284C0.829829 7.76629 0.822385 7.80039 0.818663 7.83829C0.814941 7.87239 0.814941 7.9065 0.814941 7.9406C0.814941 7.9406 0.814941 7.94818 0.814941 7.95197C0.814941 7.96713 0.814941 7.98228 0.814941 7.99744C0.814941 8.0126 0.814941 8.03155 0.814941 8.0467C0.814941 8.08081 0.822385 8.11491 0.826107 8.14902C0.829829 8.18312 0.833551 8.21722 0.840995 8.25133C0.840995 8.26649 0.848439 8.28164 0.85216 8.2968C0.85216 8.31196 0.859604 8.32333 0.863326 8.33848C0.863326 8.34227 0.863326 8.34606 0.867048 8.35364C0.878214 8.38775 0.885658 8.41806 0.896823 8.45216C0.911711 8.48627 0.926598 8.52037 0.945208 8.55448C0.956374 8.57721 0.963817 8.60374 0.978705 8.62648L4.36563 14.5985L0.982427 20.5781C0.971261 20.6009 0.960096 20.6236 0.94893 20.6501C0.934042 20.6842 0.915433 20.7145 0.900545 20.7524C0.889379 20.7865 0.878214 20.8169 0.87077 20.851C0.87077 20.8548 0.87077 20.8585 0.867048 20.8661C0.863326 20.8813 0.855882 20.8926 0.855882 20.9078C0.85216 20.923 0.848439 20.9381 0.844717 20.9533C0.837273 20.9874 0.833551 21.0215 0.829829 21.0556C0.826107 21.0897 0.818663 21.1238 0.818663 21.1579C0.818663 21.1731 0.818663 21.192 0.818663 21.2072C0.818663 21.2223 0.818663 21.2375 0.818663 21.2526C0.818663 21.2526 0.818663 21.2602 0.818663 21.264C0.818663 21.2981 0.818663 21.3322 0.822385 21.3663C0.826107 21.4042 0.833551 21.4383 0.840995 21.4762C0.844717 21.4989 0.848439 21.5255 0.85216 21.5482C0.85216 21.5558 0.855882 21.5596 0.859604 21.5672C0.87077 21.605 0.885658 21.6392 0.896823 21.6733C0.907989 21.7036 0.919155 21.7339 0.93032 21.7642C0.941486 21.7869 0.952652 21.8097 0.967539 21.8286C0.971261 21.8362 0.974983 21.8476 0.978705 21.8551C0.982427 21.8627 0.989871 21.8703 0.997315 21.8779C1.0122 21.9006 1.02337 21.9234 1.03826 21.9423C1.05314 21.965 1.07547 21.9878 1.09408 22.0105C1.12014 22.0408 1.14247 22.0749 1.17224 22.1052C1.17597 22.109 1.17969 22.1128 1.18341 22.1204C1.18341 22.1204 1.19085 22.128 1.19458 22.1318C1.20202 22.1393 1.20946 22.1431 1.22063 22.1507C1.26157 22.1886 1.30623 22.2265 1.3509 22.2606C1.37323 22.2758 1.39556 22.2909 1.41789 22.3061C1.42905 22.3137 1.44022 22.3212 1.45511 22.3288C1.48488 22.3478 1.51838 22.3591 1.55188 22.3743C1.57793 22.3857 1.60026 22.397 1.62632 22.4084C1.65609 22.4198 1.68587 22.4311 1.71936 22.4387C1.73797 22.4463 1.7603 22.4501 1.77891 22.4539C1.80124 22.4577 1.81985 22.4652 1.84219 22.469C1.91662 22.4842 1.99106 22.4918 2.06922 22.4918H8.84308L12.23 28.4638C12.23 28.4638 12.2449 28.479 12.2486 28.4865C12.297 28.5661 12.3491 28.6381 12.4124 28.7063C12.4198 28.7139 12.4235 28.7253 12.431 28.7328C12.431 28.7328 12.4384 28.7404 12.4422 28.7404C12.5092 28.8086 12.5836 28.8655 12.6655 28.9147C12.6729 28.9185 12.6804 28.9261 12.6915 28.9337C12.7027 28.9413 12.7139 28.9413 12.725 28.9488C12.8069 28.9943 12.8925 29.0322 12.9856 29.0587C12.9856 29.0587 12.9856 29.0587 12.9893 29.0587C13.0935 29.089 13.2014 29.1004 13.3131 29.1004C13.4247 29.1004 13.5327 29.0852 13.6369 29.0587C13.6369 29.0587 13.6369 29.0587 13.6406 29.0587C13.7337 29.0322 13.8193 28.9943 13.9011 28.9488C13.9123 28.9413 13.9235 28.9413 13.9346 28.9337C13.9421 28.9299 13.9495 28.9223 13.9607 28.9147C14.0426 28.8655 14.117 28.8086 14.184 28.7404C14.184 28.7404 14.1915 28.7366 14.1952 28.7328C14.2026 28.7253 14.2063 28.7139 14.2138 28.7063C14.2771 28.6381 14.3329 28.5661 14.3775 28.4865C14.3813 28.479 14.3924 28.4714 14.3962 28.4638L17.7831 22.4918H24.5569C24.6351 22.4918 24.7095 22.4842 24.784 22.469C24.8063 22.4652 24.8249 22.4577 24.8472 22.4539C24.8659 22.4501 24.8882 22.4425 24.9068 22.4387C24.9366 22.4311 24.9701 22.4198 24.9998 22.4084C25.0259 22.397 25.0482 22.3857 25.0743 22.3743C25.1078 22.3591 25.1376 22.344 25.1711 22.3288C25.1822 22.3212 25.1971 22.3137 25.2083 22.3061C25.2306 22.2909 25.2529 22.2758 25.2753 22.2606C25.3199 22.2265 25.3646 22.1924 25.4055 22.1507C25.413 22.1431 25.4204 22.1393 25.4316 22.1318C25.4316 22.1318 25.439 22.1242 25.4428 22.1204C25.4465 22.1166 25.4502 22.1128 25.4539 22.1052C25.48 22.0749 25.506 22.0446 25.5321 22.0105C25.5507 21.9878 25.5693 21.965 25.5879 21.9423C25.6028 21.9196 25.614 21.8968 25.6288 21.8779C25.6326 21.8703 25.64 21.8627 25.6475 21.8551C25.6512 21.8476 25.6549 21.8362 25.6586 21.8286C25.6698 21.8059 25.6847 21.7869 25.6958 21.7642C25.7107 21.7339 25.7182 21.7036 25.7293 21.6733C25.7442 21.6392 25.7554 21.605 25.7666 21.5672C25.7666 21.5596 25.7703 21.5558 25.774 21.5482C25.774 21.5482 25.774 21.5482 25.774 21.5444C25.7814 21.5217 25.7814 21.4989 25.7852 21.4724L25.7889 21.4686Z" fill="#56533D"/>
<path d="M20.8126 14.6023L24.5606 7.99363H17.0647L13.313 1.38119L9.56506 7.99363H2.06543L5.8171 14.6023L2.06543 21.2147H9.56506L13.313 27.8272L17.0647 21.2147H24.5606L20.8126 14.6023Z" fill="#FFC33D"/>
<path d="M13.313 1.38119L9.56506 7.99363H2.06543L13.313 14.6023V1.38119Z" fill="#FFE384"/>
<path d="M24.5606 7.99363H17.0647L13.313 1.38119V14.6023L24.5606 7.99363Z" fill="#FFC33D"/>
<path d="M24.5606 21.2147L20.8126 14.6023L24.5606 7.99363L13.313 14.6023L24.5606 21.2147Z" fill="#F1A327"/>
<path d="M13.313 27.8272L17.0647 21.2147H24.5606L13.313 14.6023V27.8272Z" fill="#EF7429"/>
<path d="M2.06543 21.2147H9.56506L13.313 27.8272V14.6023L2.06543 21.2147Z" fill="#F1A327"/>
<path d="M2.06543 7.99363L5.8171 14.6023L2.06543 21.2147L13.313 14.6023L2.06543 7.99363Z" fill="#FFC33D"/>
<path d="M18.937 11.298H15.1891L13.3132 7.99363L11.4411 11.298H7.68945L9.56529 14.6023L7.68945 17.9104H11.4411L13.3132 21.2147L15.1891 17.9104H18.937L17.0649 14.6023L18.2522 12.5068L18.937 11.298Z" fill="#FFD569"/>
</g>
<defs>
<clipPath id="clip0_755_3272">
<rect width="25" height="29" fill="white" transform="translate(0.814941 0.104172)"/>
</clipPath>
</defs>
</svg>
