<svg width="22" height="26" viewBox="0 0 22 26" fill="none" xmlns="http://www.w3.org/2000/svg">
<path d="M14.5987 22.3218C12.724 22.3218 11.3504 21.2527 10.813 20.7577C10.2771 21.2527 8.9035 22.3218 7.02881 22.3218C6.28905 22.3218 5.54613 22.1517 4.82375 21.8161C3.05655 20.9961 1.7177 19.1526 1.32728 17.0038C0.838843 14.3114 1.84258 11.5826 4.15354 9.31846C8.86873 4.70057 10.5126 1.76371 10.5284 1.73486C10.5838 1.63311 10.6944 1.56934 10.8146 1.56934C10.9347 1.56934 11.0437 1.63311 11.1007 1.73486C11.1165 1.76371 12.7604 4.70057 17.4756 9.31998C19.7865 11.5841 20.7903 14.313 20.3018 17.0053C19.9114 19.1541 18.5726 20.9976 16.8053 21.8176C16.0814 22.1532 15.3401 22.3233 14.6003 22.3233L14.5987 22.3218Z" fill="#699B19"/>
<path d="M10.6954 2.54816C10.7392 2.48062 10.7784 2.41909 10.8132 2.36369C10.8481 2.4191 10.8873 2.48063 10.9311 2.54817C11.1612 2.90276 11.5171 3.42282 12.0237 4.0901C13.0369 5.4247 14.6525 7.34798 17.0685 9.71396C21.7685 14.3166 19.7506 19.828 16.5582 21.3096C15.8544 21.636 15.198 21.7617 14.599 21.7617C13.5279 21.7617 12.6282 21.3599 11.9905 20.9509C11.6724 20.7469 11.4225 20.5429 11.2527 20.3906C11.168 20.3145 11.1035 20.2516 11.0608 20.2083C11.0394 20.1867 11.0235 20.17 11.0133 20.1591L11.0022 20.1472L10.9999 20.1446L10.9998 20.1445L10.9997 20.1444L10.9996 20.1443L10.9996 20.1443L10.8132 19.9354L10.6269 20.1443L10.6269 20.1443L10.6268 20.1444L10.6267 20.1445L10.6266 20.1446L10.6243 20.1472L10.6132 20.1591C10.6029 20.17 10.5871 20.1867 10.5657 20.2084C10.523 20.2516 10.4585 20.3145 10.3737 20.3906C10.204 20.5429 9.95414 20.7469 9.63616 20.9509C8.99865 21.3599 8.09933 21.7617 7.02907 21.7617C6.42994 21.7617 5.772 21.636 5.07008 21.3097L5.06985 21.3096C1.87754 19.8295 -0.140534 14.3167 4.5595 9.71396L4.55953 9.71393C6.97473 7.34796 8.59 5.42467 9.60299 4.09009C10.1095 3.42281 10.4654 2.90274 10.6954 2.54816ZM10.0237 1.46958L10.0234 1.4702C10.0234 1.47017 10.0216 1.47333 10.0177 1.48025L10.0015 1.50827C9.9874 1.53247 9.96668 1.56751 9.93898 1.61311C9.8836 1.7043 9.80039 1.83762 9.68664 2.01074C9.45913 2.35699 9.10943 2.86242 8.61563 3.50847C7.62806 4.80054 6.06398 6.65523 3.74808 8.92397C1.31564 11.3057 0.238838 14.2119 0.763848 17.1014C1.18427 19.4167 2.63785 21.421 4.57819 22.3205L4.5782 22.3205C5.37536 22.69 6.20142 22.8797 7.02907 22.8797C8.74366 22.8797 10.0727 22.0785 10.8134 21.4953C11.5551 22.0783 12.8841 22.8797 14.5974 22.8797C15.4251 22.8797 16.2496 22.69 17.0481 22.3206L17.0484 22.3205C18.9901 21.4195 20.4437 19.4153 20.8626 17.1014C21.3876 14.2118 20.3108 11.3057 17.8784 8.92247L17.8784 8.92244C15.5507 6.64236 13.9827 4.78051 12.9961 3.48774C12.5028 2.84134 12.1549 2.33717 11.93 1.99408C11.8175 1.82253 11.7358 1.69125 11.6821 1.6026C11.6305 1.51743 11.6052 1.47233 11.6032 1.46889L11.6031 1.46868L11.6024 1.46737C11.4447 1.18354 11.1398 1.00928 10.8132 1.00928C10.4864 1.00928 10.1813 1.18379 10.0237 1.46958Z" fill="#56533D" stroke="#56533D" stroke-width="0.5"/>
<path d="M10.8478 16.7711C10.8363 16.7762 10.8252 16.7819 10.8144 16.7881C10.8036 16.7819 10.7925 16.7762 10.781 16.7711C10.7924 16.7669 10.8035 16.7621 10.8144 16.7569C10.8253 16.7622 10.8364 16.7669 10.8478 16.7711ZM11.1672 9.13071C11.1618 8.94713 11.002 8.80642 10.8136 8.80645C10.6252 8.80647 10.4655 8.94721 10.4601 9.1308L10.2994 14.5911L10.2948 14.6432L6.64696 13.2001C6.4761 13.1325 6.27609 13.2005 6.1927 13.3604C6.10832 13.5223 6.17579 13.7154 6.34005 13.8003L10.299 15.8466V16.1034L5.42074 15.794C5.2374 15.7824 5.07103 15.9061 5.04631 16.0834C5.02149 16.2613 5.14933 16.4218 5.33039 16.4546L10.2676 17.347L10.2586 17.6375L6.88146 19.9391C6.731 20.0417 6.68918 20.238 6.78974 20.3879C6.88905 20.536 7.09142 20.5852 7.25345 20.5048L10.8136 18.7374L14.3738 20.5048C14.5359 20.5852 14.7382 20.536 14.8376 20.3879C14.9381 20.238 14.8963 20.0417 14.7458 19.9391L11.369 17.6377L11.3606 17.3471L16.2984 16.4546C16.4795 16.4218 16.6073 16.2613 16.5825 16.0834C16.5578 15.9061 16.3914 15.7824 16.2081 15.794L11.3298 16.1034V15.8466L15.2888 13.8003C15.453 13.7154 15.5205 13.5223 15.4361 13.3605C15.3527 13.2005 15.1528 13.1325 14.9819 13.2001L11.3338 14.6428L11.3294 14.5916L11.1672 9.13071Z" fill="#88B737" stroke="#88B737" stroke-width="0.1" stroke-linecap="round" stroke-linejoin="round"/>
<path fill-rule="evenodd" clip-rule="evenodd" d="M10.8145 17.1831C10.9822 17.1831 11.1182 17.2989 11.1182 17.4418V24.537C11.1182 24.6799 10.9822 24.7958 10.8145 24.7958C10.6467 24.7958 10.5107 24.6799 10.5107 24.537V17.4418C10.5107 17.2989 10.6467 17.1831 10.8145 17.1831Z" fill="#56533D" stroke="#56533D" stroke-width="0.6" stroke-linecap="round" stroke-linejoin="round"/>
</svg>
