<svg width="33" height="32" viewBox="0 0 33 32" fill="none" xmlns="http://www.w3.org/2000/svg">
<path d="M16.5 31.0088C20.6445 31.0088 24.3967 29.3289 27.1128 26.6128C29.8289 23.8967 31.5088 20.1445 31.5088 16C31.5088 11.8555 29.8289 8.10328 27.1128 5.38718C24.3967 2.67113 20.6445 0.991211 16.5 0.991211C12.3555 0.991211 8.60328 2.67113 5.88718 5.38718C3.17113 8.10328 1.49121 11.8555 1.49121 16C1.49121 20.1445 3.17113 23.8967 5.88718 26.6128C8.60328 29.3289 12.3555 31.0088 16.5 31.0088Z" fill="#FCF9E8" stroke="black" stroke-width="2" stroke-linejoin="round"/>
<path d="M10.4961 16L14.9987 20.5026L24.004 11.4973" fill="#FCF9E8"/>
<path d="M10.4961 16L14.9987 20.5026L24.004 11.4973" stroke="#4B7201" stroke-width="3" stroke-linecap="round" stroke-linejoin="round"/>
</svg>
