<svg width="30" height="30" viewBox="0 0 30 30" fill="none" xmlns="http://www.w3.org/2000/svg">
<path d="M24.3503 6.14663C21.8699 3.7489 18.5064 2.40244 15 2.40244C11.4936 2.40244 8.13013 3.7489 5.64972 6.14663C3.1692 8.54447 1.775 11.7974 1.775 15.1899C1.775 18.5825 3.1692 21.8354 5.64972 24.2333C8.13013 26.631 11.4936 27.9774 15 27.9774C18.5064 27.9774 21.8699 26.631 24.3503 24.2333C26.8308 21.8354 28.225 18.5825 28.225 15.1899C28.225 11.7974 26.8308 8.54447 24.3503 6.14663ZM22.8854 22.8078C20.7947 24.8289 17.9582 25.9649 15 25.9649C12.0418 25.9649 9.20534 24.8289 7.11455 22.8078C5.02388 20.7868 3.85 18.0465 3.85 15.1899C3.85 12.3333 5.02388 9.59304 7.11455 7.57205C9.20534 5.55096 12.0418 4.41494 15 4.41494C17.9582 4.41494 20.7947 5.55096 22.8854 7.57205C24.9761 9.59304 26.15 12.3333 26.15 15.1899C26.15 18.0465 24.9761 20.7868 22.8854 22.8078ZM16.0639 22.1137C16.3467 21.8403 16.5063 21.4687 16.5063 21.0806C16.5063 20.6924 16.3467 20.3208 16.0639 20.0474C15.7812 19.7742 15.3984 19.6212 15 19.6212C14.6016 19.6212 14.2188 19.7742 13.9361 20.0474C13.6533 20.3208 13.4937 20.6924 13.4937 21.0806C13.4937 21.4687 13.6533 21.8403 13.9361 22.1137C14.2188 22.387 14.6016 22.5399 15 22.5399C15.3984 22.5399 15.7812 22.387 16.0639 22.1137ZM15.7324 8.13348C15.5376 7.94516 15.2741 7.83994 15 7.83994C14.7259 7.83994 14.4624 7.94516 14.2676 8.13348C14.0727 8.3219 13.9625 8.5782 13.9625 8.84619V17.0024C13.9625 17.2704 14.0727 17.5267 14.2676 17.7152C14.4624 17.9035 14.7259 18.0087 15 18.0087C15.2741 18.0087 15.5376 17.9035 15.7324 17.7152C15.9273 17.5267 16.0375 17.2704 16.0375 17.0024V8.84619C16.0375 8.5782 15.9273 8.3219 15.7324 8.13348Z" fill="#56533D" stroke="#56533D" stroke-width="0.2"/>
</svg>
