<svg width="14" height="14" viewBox="0 0 14 14" fill="none" xmlns="http://www.w3.org/2000/svg">
<path d="M9.41569 6.89533L4.66674 2.58095C4.5875 2.50893 4.48223 2.46875 4.37276 2.46875C4.26328 2.46875 4.15801 2.50893 4.07877 2.58095L4.07366 2.58583C4.03511 2.62074 4.00442 2.66277 3.98344 2.70935C3.96247 2.75594 3.95165 2.8061 3.95165 2.8568C3.95165 2.90749 3.96247 2.95766 3.98344 3.00424C4.00442 3.05082 4.03511 3.09285 4.07366 3.12776L8.54566 7.19026L4.07366 11.2511C4.03511 11.2861 4.00442 11.3281 3.98344 11.3747C3.96247 11.4212 3.95165 11.4714 3.95165 11.5221C3.95165 11.5728 3.96247 11.623 3.98344 11.6695C4.00442 11.7161 4.03511 11.7582 4.07366 11.7931L4.07877 11.798C4.15801 11.87 4.26328 11.9102 4.37276 11.9102C4.48223 11.9102 4.5875 11.87 4.66674 11.798L9.41569 7.48358C9.45745 7.44564 9.4907 7.4 9.51342 7.34944C9.53614 7.29889 9.54785 7.24446 9.54785 7.18945C9.54785 7.13445 9.53614 7.08002 9.51342 7.02946C9.4907 6.9789 9.45745 6.93327 9.41569 6.89533Z" fill="#222222"/>
</svg>
