<svg width="36" height="34" viewBox="0 0 36 34" fill="none" xmlns="http://www.w3.org/2000/svg">
<path d="M32.3812 14.7853C30.2381 9.94556 24.5121 6.48212 17.7836 6.48212C11.0551 6.48212 5.84512 9.64064 3.49539 14.1405L2.2836 14.1135V19.4014H2.29221C2.55359 26.1313 9.38852 31.5221 17.7836 31.5221C26.1787 31.5221 33.0136 26.1313 33.275 19.4014H33.2836V14.805L32.3817 14.7848L32.3812 14.7853Z" fill="#F5EED8"/>
<path d="M17.7836 27.6811C26.344 27.6811 33.2836 21.8252 33.2836 14.6016C33.2836 7.37794 26.344 1.52203 17.7836 1.52203C9.22319 1.52203 2.2836 7.37794 2.2836 14.6016C2.2836 21.8252 9.22319 27.6811 17.7836 27.6811Z" fill="#CD7522"/>
<path d="M17.7836 25.081C24.8034 25.081 30.494 20.3115 30.494 14.428C30.494 8.54448 24.8034 3.77496 17.7836 3.77496C10.7639 3.77496 5.07321 8.54448 5.07321 14.428C5.07321 20.3115 10.7639 25.081 17.7836 25.081Z" fill="#FCEEE0"/>
<path d="M20.1093 7.43722L17.8031 4.90094L15.7184 7.43722H16.9922V13.5118H18.6516V7.43722H20.1093Z" fill="#56533D"/>
<path d="M15.7184 12.5098V14.4142C15.7184 15.3216 16.6751 16.0578 17.8552 16.0578C19.0353 16.0578 19.992 15.3221 19.992 14.4142V12.5098H15.7184Z" fill="#56533D"/>
<path d="M30.1008 14.0524L26.2838 12.3362V13.0659L26.2172 13.049H17.8217V14.6549H26.2838V15.9701L30.1008 14.0524Z" fill="#56533D"/>
<path d="M19.9925 12.5098C19.9925 13.4172 19.0357 14.1534 17.8556 14.1534C16.6756 14.1534 15.7188 13.4177 15.7188 12.5098C15.7188 11.6019 16.6756 10.8663 17.8556 10.8663C19.0357 10.8663 19.9925 11.6019 19.9925 12.5098Z" fill="#948D87"/>
<path d="M33.545 14.7334C33.545 7.43705 26.5467 1.52203 17.9138 1.52203C9.281 1.52203 2.60159 7.17266 2.29459 14.2408H2.28271V19.5816H2.29139C2.55499 26.3793 9.44774 31.8244 17.9138 31.8244C26.3799 31.8244 33.2727 26.3793 33.5363 19.5816H33.545V14.9389H33.5418C33.5431 14.8702 33.545 14.8021 33.545 14.7334Z" stroke="black" stroke-miterlimit="10"/>
</svg>
