<svg width="32" height="36" viewBox="0 0 32 36" fill="none" xmlns="http://www.w3.org/2000/svg">
<g clip-path="url(#clip0_472_50)">
<path d="M31.0458 26.5212C31.055 26.4742 31.0643 26.4319 31.0689 26.3848C31.0735 26.3425 31.0735 26.3001 31.0735 26.2578C31.0735 26.2578 31.0735 26.2484 31.0735 26.2437C31.0735 26.2249 31.0735 26.2061 31.0735 26.1873C31.0735 26.1684 31.0735 26.1449 31.0735 26.1261C31.0735 26.0838 31.0643 26.0414 31.0597 25.9991C31.055 25.9568 31.0504 25.9144 31.0412 25.8721C31.0412 25.8533 31.032 25.8344 31.0274 25.8156C31.0274 25.7968 31.0181 25.7827 31.0089 25.7639C31.0089 25.7592 31.0089 25.7545 31.0043 25.7498C30.9904 25.7074 30.9812 25.6698 30.9674 25.6275C30.9489 25.5851 30.9304 25.5428 30.9074 25.5005C30.8935 25.4722 30.8843 25.4393 30.8658 25.4111L26.666 17.9975L30.8658 10.584C30.8797 10.5557 30.8935 10.5275 30.9074 10.4946C30.9258 10.4522 30.9489 10.4099 30.9674 10.3676C30.9812 10.3252 30.9951 10.2876 31.0043 10.2453C31.0043 10.2406 31.0043 10.2359 31.0089 10.2312C31.0135 10.2123 31.0227 10.1982 31.0274 10.1794C31.032 10.1606 31.0366 10.1418 31.0412 10.123C31.0504 10.0806 31.055 10.0383 31.0597 9.99595C31.0643 9.95362 31.0735 9.91128 31.0735 9.86894C31.0735 9.85013 31.0735 9.82661 31.0735 9.80779C31.0735 9.78898 31.0735 9.77016 31.0735 9.75134C31.0735 9.75134 31.0735 9.74194 31.0735 9.73723C31.0735 9.6949 31.0735 9.65256 31.0689 9.61022C31.0643 9.56318 31.055 9.52085 31.0458 9.4738C31.0412 9.44558 31.0366 9.41736 31.032 9.38443C31.032 9.38443 31.032 9.38443 31.032 9.37972C31.032 9.37032 31.0274 9.36561 31.0227 9.3562C31.0089 9.30916 30.9904 9.26683 30.9766 9.22449C30.9627 9.18686 30.9489 9.14923 30.9351 9.1116C30.9212 9.08337 30.9074 9.05515 30.8889 9.03163C30.8843 9.02222 30.8797 9.00811 30.8751 8.9987C30.8704 8.98929 30.8612 8.97988 30.852 8.97047C30.8335 8.94225 30.8197 8.91402 30.8012 8.8905C30.7828 8.86228 30.7551 8.83406 30.732 8.80583C30.6997 8.7682 30.672 8.72586 30.6351 8.68823C30.6305 8.68353 30.6258 8.67882 30.6212 8.66941C30.6212 8.66941 30.612 8.66001 30.6074 8.66001C30.5982 8.6506 30.5889 8.6459 30.5751 8.63649C30.5243 8.58945 30.4689 8.54241 30.4135 8.50007C30.3859 8.48125 30.3582 8.46244 30.3305 8.44362C30.3166 8.43421 30.3028 8.4248 30.2843 8.4154C30.2474 8.39188 30.2059 8.37776 30.1643 8.35895C30.132 8.34484 30.1043 8.33072 30.072 8.31661C30.0351 8.3025 29.9982 8.28839 29.9566 8.27898C29.9336 8.26957 29.9059 8.26487 29.8828 8.26016C29.8551 8.25546 29.832 8.24605 29.8043 8.24135C29.712 8.22253 29.6197 8.21312 29.5228 8.21312H21.1232L16.9234 0.794856C16.9234 0.794856 16.905 0.77604 16.9004 0.766632C16.8404 0.667847 16.7758 0.57847 16.6973 0.493798C16.6881 0.484389 16.6835 0.470277 16.6742 0.465573C16.6742 0.465573 16.665 0.456165 16.6604 0.451461C16.5773 0.371493 16.485 0.300932 16.3835 0.235075C16.3742 0.230371 16.365 0.220963 16.3558 0.211555C16.3419 0.202147 16.3281 0.202147 16.3142 0.192739C16.2127 0.136291 16.1066 0.0892503 15.9912 0.056322C15.9912 0.056322 15.9912 0.056322 15.9866 0.056322C15.8573 0.0186897 15.7235 0.00457764 15.585 0.00457764C15.4466 0.00457764 15.3128 0.0233938 15.1835 0.056322C15.1835 0.056322 15.1835 0.056322 15.1789 0.056322C15.0635 0.0892503 14.9574 0.136291 14.8559 0.192739C14.842 0.202147 14.8282 0.202147 14.8143 0.211555C14.8051 0.216259 14.7959 0.225667 14.782 0.235075C14.6805 0.296228 14.5882 0.366789 14.5051 0.451461C14.5051 0.451461 14.4959 0.460869 14.4913 0.460869C14.482 0.470277 14.4774 0.484389 14.4682 0.493798C14.3897 0.57847 14.3205 0.667847 14.2651 0.766632C14.2605 0.77604 14.2467 0.785448 14.242 0.794856L10.0422 8.20842H1.62882C1.5319 8.20842 1.4396 8.21783 1.34729 8.23664C1.3196 8.24135 1.29653 8.25076 1.26884 8.25546C1.24576 8.26016 1.21807 8.26957 1.19499 8.27428C1.15807 8.28368 1.11654 8.2978 1.07961 8.31191C1.04731 8.32602 1.01962 8.34013 0.987311 8.35424C0.945774 8.37306 0.908853 8.39188 0.867317 8.41069C0.853471 8.4201 0.835011 8.42951 0.821165 8.43892C0.793474 8.45773 0.765783 8.47655 0.738092 8.49537C0.68271 8.5377 0.627329 8.58004 0.576562 8.63178C0.567332 8.64119 0.558101 8.64589 0.544256 8.6553C0.544256 8.6553 0.535025 8.66471 0.53041 8.66471C0.525795 8.66941 0.52118 8.67412 0.516565 8.68353C0.484259 8.72116 0.451953 8.75879 0.419647 8.80113C0.396571 8.82935 0.373495 8.85758 0.350419 8.8858C0.331959 8.91402 0.318113 8.94225 0.299652 8.96577C0.295037 8.97518 0.285807 8.98459 0.276577 8.99399C0.271962 9.0034 0.267346 9.01751 0.262731 9.02692C0.248886 9.05515 0.230425 9.07867 0.21658 9.10689C0.198119 9.14452 0.188889 9.18215 0.175043 9.21979C0.156583 9.26212 0.142737 9.30446 0.128892 9.3515C0.128892 9.36091 0.124277 9.36561 0.119661 9.37502C0.110431 9.40324 0.110431 9.43617 0.105816 9.4644C0.0965856 9.51144 0.0873553 9.55377 0.0827402 9.60081C0.078125 9.64315 0.078125 9.68549 0.078125 9.72782C0.078125 9.72782 0.078125 9.73723 0.078125 9.74193C0.078125 9.76075 0.078125 9.77957 0.078125 9.79838C0.078125 9.8172 0.078125 9.84072 0.078125 9.85954C0.078125 9.90187 0.0873553 9.94421 0.0919705 9.98655C0.0965856 10.0289 0.101201 10.0712 0.110431 10.1136C0.110431 10.1324 0.119661 10.1512 0.124277 10.17C0.124277 10.1888 0.133507 10.2029 0.138122 10.2217C0.138122 10.2265 0.138122 10.2312 0.142737 10.2406C0.156583 10.2829 0.165813 10.3205 0.179658 10.3629C0.198119 10.4052 0.21658 10.4475 0.239655 10.4899C0.253501 10.5181 0.262731 10.551 0.281192 10.5793L4.48098 17.9928L0.285807 25.4158C0.271962 25.444 0.258116 25.4722 0.244271 25.5052C0.22581 25.5475 0.202734 25.5851 0.184274 25.6322C0.170428 25.6745 0.156583 25.7121 0.147352 25.7545C0.147352 25.7592 0.147352 25.7639 0.142737 25.7733C0.138122 25.7921 0.128892 25.8062 0.128892 25.825C0.124277 25.8439 0.119661 25.8627 0.115046 25.8815C0.105816 25.9238 0.101201 25.9662 0.0965856 26.0085C0.0919705 26.0508 0.0827402 26.0932 0.0827402 26.1355C0.0827402 26.1543 0.0827402 26.1778 0.0827402 26.1967C0.0827402 26.2155 0.0827402 26.2343 0.0827402 26.2531C0.0827402 26.2531 0.0827402 26.2625 0.0827402 26.2672C0.0827402 26.3096 0.0827402 26.3519 0.0873553 26.3942C0.0919705 26.4413 0.101201 26.4836 0.110431 26.5306C0.115046 26.5589 0.119661 26.5918 0.124277 26.62C0.124277 26.6294 0.128892 26.6341 0.133507 26.6435C0.147352 26.6906 0.165813 26.7329 0.179658 26.7753C0.193504 26.8129 0.207349 26.8505 0.221195 26.8882C0.23504 26.9164 0.248886 26.9446 0.267346 26.9681C0.271962 26.9775 0.276577 26.9916 0.281192 27.0011C0.285807 27.0105 0.295037 27.0199 0.304268 27.0293C0.322728 27.0575 0.336574 27.0857 0.355034 27.1092C0.373495 27.1375 0.401186 27.1657 0.424262 27.1939C0.456568 27.2315 0.484259 27.2739 0.52118 27.3115C0.525795 27.3162 0.53041 27.3209 0.535025 27.3303C0.535025 27.3303 0.544256 27.3397 0.548871 27.3444C0.558101 27.3539 0.567332 27.3586 0.581177 27.368C0.631944 27.415 0.687326 27.462 0.742707 27.5044C0.770398 27.5232 0.798089 27.542 0.82578 27.5608C0.839626 27.5702 0.853471 27.5796 0.871932 27.5891C0.908853 27.6126 0.950389 27.6267 0.991926 27.6455C1.02423 27.6596 1.05192 27.6737 1.08423 27.6878C1.12115 27.702 1.15807 27.7161 1.19961 27.7255C1.22268 27.7349 1.25037 27.7396 1.27345 27.7443C1.30114 27.749 1.32422 27.7584 1.35191 27.7631C1.44421 27.7819 1.53651 27.7913 1.63343 27.7913H10.033L14.2328 35.2049C14.2328 35.2049 14.2513 35.2237 14.2559 35.2331C14.3159 35.3319 14.3805 35.4213 14.459 35.506C14.4682 35.5154 14.4728 35.5295 14.482 35.5389C14.482 35.5389 14.4913 35.5483 14.4959 35.5483C14.5789 35.633 14.6712 35.7035 14.7728 35.7647C14.782 35.7694 14.7912 35.7788 14.8051 35.7882C14.8189 35.7976 14.8328 35.7976 14.8466 35.807C14.9482 35.8635 15.0543 35.9105 15.1697 35.9434C15.1697 35.9434 15.1697 35.9434 15.1743 35.9434C15.3035 35.9811 15.4374 35.9952 15.5758 35.9952C15.7143 35.9952 15.8481 35.9764 15.9773 35.9434C15.9773 35.9434 15.9773 35.9434 15.982 35.9434C16.0973 35.9105 16.2035 35.8635 16.305 35.807C16.3189 35.7976 16.3327 35.7976 16.3465 35.7882C16.3558 35.7835 16.365 35.7741 16.3789 35.7647C16.4804 35.7035 16.5727 35.633 16.6558 35.5483C16.6558 35.5483 16.665 35.5436 16.6696 35.5389C16.6788 35.5295 16.6835 35.5154 16.6927 35.506C16.7711 35.4213 16.8404 35.3319 16.8958 35.2331C16.9004 35.2237 16.9142 35.2143 16.9188 35.2049L21.1186 27.7913H29.5182C29.6151 27.7913 29.7074 27.7819 29.7997 27.7631C29.8274 27.7584 29.8505 27.749 29.8782 27.7443C29.9013 27.7396 29.929 27.7302 29.952 27.7255C29.989 27.7161 30.0305 27.702 30.0674 27.6878C30.0997 27.6737 30.1274 27.6596 30.1597 27.6455C30.2012 27.6267 30.2382 27.6079 30.2797 27.5891C30.2936 27.5796 30.312 27.5702 30.3259 27.5608C30.3535 27.542 30.3812 27.5232 30.4089 27.5044C30.4643 27.462 30.5197 27.4197 30.5705 27.368C30.5797 27.3586 30.5889 27.3539 30.6028 27.3444C30.6028 27.3444 30.612 27.335 30.6166 27.3303C30.6212 27.3256 30.6258 27.3209 30.6305 27.3115C30.6628 27.2739 30.6951 27.2363 30.7274 27.1939C30.7505 27.1657 30.7735 27.1375 30.7966 27.1092C30.8151 27.081 30.8289 27.0528 30.8474 27.0293C30.852 27.0199 30.8612 27.0105 30.8704 27.0011C30.8751 26.9916 30.8797 26.9775 30.8843 26.9681C30.8981 26.9399 30.9166 26.9164 30.9304 26.8882C30.9489 26.8505 30.9581 26.8129 30.972 26.7753C30.9904 26.7329 31.0043 26.6906 31.0181 26.6435C31.0181 26.6341 31.0227 26.6294 31.0274 26.62C31.0274 26.62 31.0274 26.62 31.0274 26.6153C31.0366 26.5871 31.0366 26.5589 31.0412 26.5259L31.0458 26.5212Z" fill="#56533D"/>
<path d="M24.8754 17.9977L29.5228 9.79381H20.2279L15.5758 1.58527L10.9284 9.79381H1.62881L6.28089 17.9977L1.62881 26.2062H10.9284L15.5758 34.4147L20.2279 26.2062H29.5228L24.8754 17.9977Z" fill="#FFC33D"/>
<path d="M15.5758 1.58527L10.9284 9.79381H1.62881L15.5758 17.9977V1.58527Z" fill="#FFE384"/>
<path d="M29.5228 9.79381H20.2279L15.5758 1.58527V17.9977L29.5228 9.79381Z" fill="#FFC33D"/>
<path d="M29.5228 26.2062L24.8753 17.9977L29.5228 9.79382L15.5758 17.9977L29.5228 26.2062Z" fill="#F1A327"/>
<path d="M15.5758 34.4147L20.2279 26.2062H29.5228L15.5758 17.9977V34.4147Z" fill="#EF7429"/>
<path d="M1.62881 26.2062H10.9284L15.5758 34.4147V17.9977L1.62881 26.2062Z" fill="#F1A327"/>
<path d="M1.62881 9.79382L6.28089 17.9977L1.62881 26.2062L15.5758 17.9977L1.62881 9.79382Z" fill="#FFC33D"/>
<path d="M22.5493 13.8957H17.9019L15.5758 9.79382L13.2544 13.8957H8.60233L10.9284 17.9977L8.60233 22.1043H13.2544L15.5758 26.2062L17.9019 22.1043H22.5493L20.2279 17.9977L21.7001 15.3963L22.5493 13.8957Z" fill="#FFD569"/>
</g>
<defs>
<clipPath id="clip0_472_50">
<rect width="31" height="36" fill="white" transform="translate(0.078125)"/>
</clipPath>
</defs>
</svg>
