<svg width="24" height="29" viewBox="0 0 24 29" fill="none" xmlns="http://www.w3.org/2000/svg">
<path d="M11.7142 0.604172C8.2604 0.604172 5.43457 3.43 5.43457 6.88379V9.39564H7.94642V6.88379C7.94642 4.81152 9.64191 3.11602 11.7142 3.11602C13.7865 3.11602 15.482 4.81152 15.482 6.88379V9.39564H17.9938V6.88379C17.9938 3.43 15.168 0.604172 11.7142 0.604172Z" fill="#56533D"/>
<path d="M4.17835 27.3635H19.2494C21.0728 27.3635 22.5613 25.875 22.5613 24.0516V12.7483C22.5613 10.925 21.0728 9.43649 19.2494 9.43649H4.17835C2.35501 9.43649 0.866504 10.925 0.866504 12.7483V24.0516C0.866504 25.875 2.35501 27.3635 4.17835 27.3635Z" fill="#5A8900" stroke="#56533D" stroke-width="1.6"/>
<path d="M11.7138 20.2521C13.1346 20.2521 14.2865 19.1003 14.2865 17.6794C14.2865 16.2586 13.1346 15.1068 11.7138 15.1068C10.2929 15.1068 9.14111 16.2586 9.14111 17.6794C9.14111 19.1003 10.2929 20.2521 11.7138 20.2521Z" fill="#FFFDEE"/>
</svg>
