<svg width="34" height="31" viewBox="0 0 34 31" fill="none" xmlns="http://www.w3.org/2000/svg">
<path d="M9.37316 9.50488H5.97754C5.175 9.50488 4.52441 10.1555 4.52441 10.958V20.6505C4.52441 21.453 5.175 22.1036 5.97754 22.1036H9.37316C10.1757 22.1036 10.8263 21.453 10.8263 20.6505V10.958C10.8263 10.1555 10.1757 9.50488 9.37316 9.50488Z" fill="#5A8900"/>
<path d="M24.6843 4.87198V26.7787C24.6843 28.3417 22.9815 29.3105 21.6382 28.5165L11.8159 22.694C11.2017 22.3295 10.8271 21.6703 10.8271 20.9562V10.6595C10.8271 9.94543 11.2067 9.28129 11.8209 8.92175L21.6432 3.13422C22.9865 2.34024 24.6843 3.31399 24.6843 4.87198Z" fill="#7EB737"/>
<path fill-rule="evenodd" clip-rule="evenodd" d="M5.23048 9.95998C4.84162 9.95998 4.52639 10.2752 4.52639 10.6641V20.3566C4.52639 20.7454 4.84162 21.0607 5.23048 21.0607H8.6261C9.01496 21.0607 9.33019 20.7454 9.33019 20.3566V10.6641C9.33019 10.2752 9.01496 9.95998 8.6261 9.95998H5.23048ZM3.02832 10.6641C3.02832 9.44785 4.01426 8.46191 5.23048 8.46191H8.6261C9.84232 8.46191 10.8283 9.44785 10.8283 10.6641V20.3566C10.8283 21.5728 9.84232 22.5587 8.6261 22.5587H5.23048C4.01426 22.5587 3.02832 21.5728 3.02832 20.3566V10.6641Z" fill="#56533D"/>
<path fill-rule="evenodd" clip-rule="evenodd" d="M23.1862 4.57742C23.1862 3.59697 22.1171 2.9869 21.2753 3.48448L11.4521 9.27254L11.4503 9.27362C11.0668 9.49807 10.8272 9.91546 10.8272 10.365V20.6617C10.8272 21.1119 11.0628 21.526 11.4492 21.7553L21.2703 27.5771C22.1151 28.0764 23.1862 27.4662 23.1862 26.4842V4.57742ZM20.5136 2.19451C22.3583 1.10475 24.6843 2.44212 24.6843 4.57742V26.4842C24.6843 28.6281 22.3498 29.9554 20.5081 28.8667L10.6849 23.0438C9.84289 22.544 9.3291 21.6396 9.3291 20.6617V10.365C9.3291 9.38667 9.84806 8.4761 10.6925 7.98134C10.6928 7.98115 10.6931 7.98096 10.6935 7.98077L20.513 2.19485C20.5132 2.19473 20.5134 2.19462 20.5136 2.19451Z" fill="#56533D"/>
<path d="M28.3251 18.6842C27.9705 18.6842 27.6709 18.3796 27.6709 18.03C27.6709 17.6805 27.9755 17.3758 28.3251 17.3758C29.0291 17.3758 29.5834 16.8216 29.5834 16.1175C29.5834 15.4134 29.0291 14.8591 28.3251 14.8591C27.9705 14.8591 27.6709 14.5545 27.6709 14.2049C27.6709 13.8554 27.9755 13.5508 28.3251 13.5508C29.7382 13.5508 30.8468 14.6594 30.8468 16.0725C30.8468 17.4857 29.7382 18.6941 28.3251 18.6941V18.6842Z" fill="#56533D"/>
<path d="M28.3251 21.2062C27.9705 21.2062 27.6709 20.9016 27.6709 20.552C27.6709 20.2025 27.9755 19.8979 28.3251 19.8979C30.3924 19.8979 32.1052 18.1851 32.1052 16.1177C32.1052 14.0504 30.3924 12.3376 28.3251 12.3376C27.9705 12.3376 27.6709 12.033 27.6709 11.6835C27.6709 11.3339 27.9755 11.0293 28.3251 11.0293C31.0965 11.0293 33.3636 13.2964 33.3636 16.0678C33.3636 18.8392 31.0965 21.2062 28.3251 21.2062Z" fill="#56533D"/>
<path d="M1.59912 30.1617C1.61078 30.1617 1.62211 30.1596 1.63271 30.1558C1.78623 30.1476 1.9426 30.088 2.0503 29.9282L29.1556 2.12184L29.1563 2.12105C29.4259 1.83837 29.4269 1.38885 29.1556 1.11L29.1556 1.11L29.1549 1.1093C28.8784 0.830629 28.4365 0.829603 28.1637 1.11L1.10316 28.9279L1.10316 28.9279L1.10247 28.9286C0.832878 29.2113 0.831911 29.6608 1.10316 29.9397C1.26195 30.1029 1.43237 30.1617 1.59912 30.1617Z" fill="#56533D" stroke="#56533D" stroke-width="0.2" stroke-linejoin="round"/>
</svg>
