<svg width="36" height="36" viewBox="0 0 36 36" fill="none" xmlns="http://www.w3.org/2000/svg">
<mask id="path-1-outside-1_553_3980" maskUnits="userSpaceOnUse" x="0.5625" y="-0.295654" width="36" height="36" fill="black">
<rect fill="white" x="0.5625" y="-0.295654" width="36" height="36"/>
<path fill-rule="evenodd" clip-rule="evenodd" d="M28.3934 20.1024C32.7614 12.8722 31.0609 5.32584 24.5923 3.2416C18.1284 1.15735 9.34955 5.32105 4.98156 12.5512C1.68015 18.0219 1.8503 23.6763 4.92869 27.0073L7.5015 29.9727C8.51133 31.137 9.86412 32.0425 11.5313 32.5792C17.9952 34.6634 26.774 30.4949 31.142 23.2648C34.3811 17.9032 34.281 12.3644 31.3706 9.01045L28.6278 5.84907C31.5374 9.20312 31.6371 14.7414 28.3983 20.1025C24.7779 26.1017 18.1175 29.993 12.2593 29.9534C18.1143 29.99 24.7744 26.0994 28.3934 20.1024ZM26.1594 19.3789C22.6298 25.2244 15.5276 28.5975 10.2975 26.911C5.06731 25.2292 3.6907 19.1202 7.22034 13.2747C10.75 7.42925 17.8521 4.05613 23.0823 5.74269C28.3124 7.42446 29.6891 13.5335 26.1594 19.3789Z"/>
</mask>
<path fill-rule="evenodd" clip-rule="evenodd" d="M28.3934 20.1024C32.7614 12.8722 31.0609 5.32584 24.5923 3.2416C18.1284 1.15735 9.34955 5.32105 4.98156 12.5512C1.68015 18.0219 1.8503 23.6763 4.92869 27.0073L7.5015 29.9727C8.51133 31.137 9.86412 32.0425 11.5313 32.5792C17.9952 34.6634 26.774 30.4949 31.142 23.2648C34.3811 17.9032 34.281 12.3644 31.3706 9.01045L28.6278 5.84907C31.5374 9.20312 31.6371 14.7414 28.3983 20.1025C24.7779 26.1017 18.1175 29.993 12.2593 29.9534C18.1143 29.99 24.7744 26.0994 28.3934 20.1024ZM26.1594 19.3789C22.6298 25.2244 15.5276 28.5975 10.2975 26.911C5.06731 25.2292 3.6907 19.1202 7.22034 13.2747C10.75 7.42925 17.8521 4.05613 23.0823 5.74269C28.3124 7.42446 29.6891 13.5335 26.1594 19.3789Z" fill="#6ABAFF"/>
<path d="M24.5923 3.2416L23.9785 5.14509L23.9789 5.14522L24.5923 3.2416ZM28.3934 20.1024L26.6816 19.0682L26.6811 19.0691L28.3934 20.1024ZM4.98156 12.5512L3.26971 11.517L3.26921 11.5179L4.98156 12.5512ZM4.92869 27.0073L6.43935 25.6966L6.41879 25.6729L6.39749 25.6499L4.92869 27.0073ZM7.5015 29.9727L9.01239 28.6622L9.01216 28.662L7.5015 29.9727ZM11.5313 32.5792L12.1451 30.6757L12.1441 30.6754L11.5313 32.5792ZM31.142 23.2648L32.8539 24.299V24.299L31.142 23.2648ZM31.3706 9.01045L29.86 10.3211L29.8601 10.3212L31.3706 9.01045ZM28.6278 5.84907L30.1384 4.53838L27.117 7.15965L28.6278 5.84907ZM28.3983 20.1025L26.6865 19.0683L26.686 19.0691L28.3983 20.1025ZM12.2593 29.9534L12.2718 27.9535L12.2458 31.9534L12.2593 29.9534ZM10.2975 26.911L10.9113 25.0075L10.9097 25.007L10.2975 26.911ZM26.1594 19.3789L27.8715 20.4127V20.4127L26.1594 19.3789ZM7.22034 13.2747L5.50825 12.2409L7.22034 13.2747ZM23.0823 5.74269L22.4685 7.64617L22.4701 7.64668L23.0823 5.74269ZM23.9789 5.14522C26.5158 5.96264 28.0678 7.79645 28.6055 10.1821C29.1569 12.6281 28.6574 15.7977 26.6816 19.0682L30.1053 21.1366C32.4974 17.1769 33.3317 12.9583 32.5076 9.3025C31.67 5.58631 29.1373 2.6048 25.2056 1.33797L23.9789 5.14522ZM6.69342 13.5854C8.66604 10.3202 11.649 7.73354 14.8585 6.21035C18.0865 4.67835 21.3608 4.30103 23.9785 5.14509L25.206 1.33811C21.3599 0.0979257 17.0128 0.760331 13.1435 2.59666C9.25557 4.4418 5.66508 7.55206 3.26971 11.517L6.69342 13.5854ZM6.39749 25.6499C4.12593 23.192 3.67738 18.5832 6.69392 13.5846L3.26921 11.5179C-0.317067 17.4606 -0.425334 24.1607 3.45988 28.3647L6.39749 25.6499ZM9.01216 28.662L6.43935 25.6966L3.41802 28.318L5.99084 31.2834L9.01216 28.662ZM12.1441 30.6754C10.8096 30.2458 9.77239 29.5385 9.01239 28.6622L5.99062 31.2831C7.25027 32.7355 8.91866 33.8393 10.9185 34.483L12.1441 30.6754ZM29.4301 22.2306C27.4574 25.496 24.4742 28.0839 21.2646 29.6083C18.0363 31.1415 14.7623 31.5196 12.1451 30.6757L10.9175 34.4827C14.7641 35.723 19.1115 35.059 22.9806 33.2215C26.8683 31.3751 30.4586 28.2637 32.8539 24.299L29.4301 22.2306ZM29.8601 10.3212C32.0156 12.8053 32.3874 17.3355 29.4301 22.2306L32.8539 24.299C36.3747 18.471 36.5465 11.9235 32.8812 7.69965L29.8601 10.3212ZM27.1171 7.15976L29.86 10.3211L32.8813 7.69976L30.1384 4.53838L27.1171 7.15976ZM30.1102 21.1367C33.6307 15.3092 33.8028 8.76243 30.1385 4.5385L27.117 7.15965C29.272 9.64381 29.6435 14.1736 26.6865 19.0683L30.1102 21.1367ZM12.2458 31.9534C18.9046 31.9983 26.1777 27.653 30.1107 21.1358L26.686 19.0691C23.3781 24.5504 17.3304 27.9876 12.2728 27.9535L12.2458 31.9534ZM26.6811 19.0691C23.3747 24.5479 17.3271 27.9851 12.2718 27.9535L12.2468 31.9534C18.9016 31.995 26.1741 27.6508 30.1058 21.1358L26.6811 19.0691ZM9.68365 28.8144C12.9134 29.8559 16.5331 29.2914 19.7241 27.7761C22.9336 26.252 25.8953 23.6855 27.8715 20.4127L24.4473 18.3451C22.8939 20.9178 20.5397 22.9607 18.0082 24.1628C15.4581 25.3738 12.9117 25.6525 10.9113 25.0075L9.68365 28.8144ZM5.50825 12.2409C3.53504 15.5088 2.82997 19.0219 3.52299 22.0943C4.22958 25.2269 6.37125 27.7493 9.68523 28.8149L10.9097 25.007C8.99351 24.3908 7.8318 23.0179 7.42496 21.2142C7.00455 19.3503 7.376 16.8861 8.93243 14.3085L5.50825 12.2409ZM23.6961 3.83921C20.4664 2.79772 16.8466 3.36224 13.6557 4.87756C10.4462 6.40169 7.48444 8.96813 5.50825 12.2409L8.93243 14.3085C10.4859 11.7358 12.8401 9.69299 15.3716 8.49084C17.9216 7.27986 20.4681 7.0011 22.4685 7.64617L23.6961 3.83921ZM27.8715 20.4127C29.8447 17.1449 30.5498 13.6318 29.8568 10.5594C29.1502 7.42674 27.0085 4.90432 23.6945 3.8387L22.4701 7.64668C24.3862 8.26283 25.5479 9.63579 25.9548 11.4395C26.3752 13.3034 26.0038 15.7675 24.4473 18.3451L27.8715 20.4127Z" fill="black" mask="url(#path-1-outside-1_553_3980)"/>
<path d="M28.6269 5.84814C29.5415 6.90225 30.4561 7.95635 31.3706 9.01045C34.281 12.3644 34.3811 17.9032 31.142 23.2648C26.774 30.4949 17.9952 34.6634 11.5313 32.5792C9.86412 32.0425 8.51133 31.137 7.5015 29.9727C6.58694 28.9186 5.67238 27.8645 4.75781 26.8104C5.76764 27.9747 7.12043 28.8802 8.7876 29.4169C15.2562 31.5011 24.0351 27.3326 28.3983 20.1025C31.6374 14.7409 31.5374 9.2021 28.6269 5.84814Z" fill="#DD9C07"/>
<path d="M24.5923 3.2416C31.0609 5.32584 32.7614 12.8722 28.3934 20.1024C24.0302 27.3326 15.2466 31.5011 8.78272 29.4168C2.31885 27.3326 0.618338 19.7814 4.98156 12.5512C9.34955 5.32105 18.1284 1.15735 24.5923 3.2416ZM10.2975 26.911C15.5276 28.5975 22.6298 25.2244 26.1594 19.3789C29.6891 13.5335 28.3124 7.42446 23.0823 5.74269C17.8521 4.05613 10.75 7.42925 7.22034 13.2747C3.6907 19.1202 5.06731 25.2292 10.2975 26.911Z" fill="#FFD906"/>
<g style="mix-blend-mode:overlay" opacity="0.6">
<path d="M28.3981 20.1025C24.0349 27.3326 15.2513 31.5011 8.78743 29.4169C7.81094 29.1007 6.94402 28.6598 6.19141 28.1136C7.0107 28.7605 7.9729 29.2779 9.07323 29.6325C15.5419 31.7167 24.3207 27.5483 28.6839 20.3181C31.6563 15.3973 31.8135 10.3329 29.5747 6.94058C29.2603 6.57643 28.9412 6.21229 28.6268 5.84814C31.5324 9.2021 31.6372 14.7409 28.3981 20.1025Z" fill="white"/>
</g>
<path d="M23.0819 5.74281C28.3073 7.42937 29.6886 13.5384 26.159 19.379C22.6294 25.2245 15.5272 28.5976 10.2971 26.9111C5.07166 25.2245 3.69029 19.1155 7.21993 13.2748C10.7496 7.42937 17.8517 4.05625 23.0819 5.74281Z" fill="white"/>
<path d="M8.12527 14.003C11.6549 8.1575 18.7571 4.78438 23.9825 6.47094C24.7017 6.70093 25.3448 7.02195 25.9164 7.41005C25.159 6.68176 24.2111 6.11159 23.0822 5.74745C17.852 4.06088 10.7499 7.43401 7.22023 13.2795C4.17645 18.32 4.78616 23.5522 8.36343 25.9814C5.60545 23.3318 5.35776 18.5883 8.12527 14.0078V14.003Z" fill="#C4C4C4"/>
<path d="M22.1865 7.22803L12.7217 15.0475L15.7464 14.669L22.1865 7.22803Z" fill="#D61C1C"/>
<path d="M12.7224 15.0475L11.1934 25.4304L15.7471 14.6689L12.7224 15.0475Z" fill="#3775AA"/>
<path d="M15.7471 14.669L20.6581 17.6109L22.1871 7.22803L15.7471 14.669Z" fill="#FF3B3B"/>
<path d="M11.1934 25.4304L20.6581 17.6108L15.7471 14.6689L11.1934 25.4304Z" fill="#6ABAFF"/>
</svg>
