<svg width="94" height="94" viewBox="0 0 94 94" fill="none" xmlns="http://www.w3.org/2000/svg">
<g opacity="0.3">
<path d="M77.4204 54.5938C77.6309 52.7347 77.4638 47.304 77.3958 46.2231C77.3465 45.3979 77.2089 44.5843 77.0007 43.7917C76.9998 43.7781 76.9918 43.758 76.9918 43.758C74.4775 34.1556 60.8924 27.3646 44.9694 28.2393C28.2382 29.1617 15.0723 38.2023 14.88 48.6719C14.8031 49.6751 14.9509 52.4349 15.3711 55.9152C16.3069 63.6132 21.596 70.6854 29.5221 74.0648C34.6952 76.2748 40.4202 77.298 46.5191 76.7885C46.5191 76.7885 59.0039 76.2772 67.0792 71.3893C74.0548 67.1674 76.7173 60.8114 77.4204 54.5938Z" fill="#56533D"/>
</g>
<path d="M23.1792 62.8183C18.8124 58.9252 16.0385 53.7402 15.3733 48.2205C14.9786 44.9954 14.7788 41.9955 14.8792 40.7549C14.9138 38.7002 15.442 36.6013 16.4471 34.5788C20.5935 26.1946 32.4687 20.0647 45.9938 19.3251C57.0662 18.7169 67.4509 21.7184 73.7733 27.355C76.4881 29.7753 78.2777 32.5201 79.1 35.5131L79.1607 35.6124L79.1781 35.7894C79.3968 36.643 79.5337 37.501 79.5838 38.3399C79.6515 39.4721 79.8223 44.9642 79.6061 46.9023C78.7136 54.7589 75.0602 60.6835 68.7452 64.5064C60.5178 69.4848 48.1864 70.0424 47.6639 70.0609C46.0772 70.1959 44.4639 70.2298 42.9091 70.1544C38.5168 69.9578 34.2354 68.9818 30.186 67.2506C27.6049 66.1505 25.2465 64.6549 23.1824 62.8147L23.1792 62.8183Z" fill="#FFAA00"/>
<path d="M73.0452 28.1715C75.5648 30.4178 77.3202 33.0481 78.0781 35.9386C78.0781 35.9386 78.0898 35.9619 78.091 35.9824C78.2992 36.775 78.4328 37.5785 78.4821 38.4037C78.5469 39.4882 78.7177 44.9221 78.5035 46.778C77.7973 52.9992 75.1379 59.3516 68.1623 63.5735C60.0838 68.465 47.6022 68.9727 47.6022 68.9727C46.0223 69.1074 44.4704 69.1379 42.9433 69.0678C38.5715 68.8701 34.4333 67.8862 30.602 66.2526C28.0839 65.1763 25.8311 63.7297 23.9008 62.0087C19.7545 58.3122 17.0899 53.3539 16.4542 48.0994C16.0268 44.6126 15.8826 41.8561 15.9664 40.8524C16.0014 38.8627 16.5081 36.9189 17.4215 35.0794C21.3055 27.2296 32.5101 21.1605 46.0558 20.4198C57.1964 19.8079 67.1854 22.9474 73.0452 28.1715ZM74.5013 26.5382C67.9656 20.7114 57.2838 17.6066 45.9285 18.2338C32.0245 18.9907 19.7771 25.3634 15.4565 34.0959C14.3901 36.2381 13.8255 38.4725 13.7726 40.7369C13.6791 42.0934 13.8773 45.066 14.2757 48.3525C14.9773 54.1371 17.8754 59.5684 22.441 63.6388C24.5955 65.5595 27.0535 67.1181 29.747 68.2668C33.9192 70.0494 38.3291 71.0559 42.855 71.2555C44.4371 71.3294 46.0881 71.2969 47.7499 71.1577C48.7636 71.1123 61.0175 70.4597 69.301 65.4474C75.9196 61.4367 79.7485 55.2424 80.6781 47.0315C80.9205 44.9038 80.7166 39.1432 80.6616 38.2806C80.607 37.3667 80.4584 36.4271 80.218 35.496C80.2035 35.425 80.1821 35.3543 80.1612 35.2904C79.2942 32.0638 77.3832 29.1204 74.4876 26.539L74.5013 26.5382Z" fill="#56533D"/>
<path d="M42.9466 69.0643C38.5784 68.8697 34.4367 67.8827 30.6053 66.249C22.6788 62.8628 17.3865 55.7942 16.4575 48.0959C16.0701 44.8771 15.9112 42.2754 15.9583 41.1164C15.9557 41.3595 15.9668 41.6018 15.981 41.8405C16.0768 43.4432 16.4735 44.985 17.1359 46.4472C17.3204 46.8442 17.5191 47.2472 17.7442 47.6352C17.7594 47.6617 17.7787 47.6983 17.7972 47.7212C20.8007 52.9106 27.2449 56.9189 35.3738 58.768C36.0499 61.2045 38.0171 64.6307 42.9503 69.0675L42.9466 69.0643Z" fill="#E47B01"/>
<path d="M48.4138 59.8172C34.4488 60.5843 22.2775 55.4606 17.7968 47.7145C17.7815 47.6879 17.7622 47.6513 17.7437 47.6284C17.5186 47.2405 17.32 46.8374 17.1354 46.4404C16.4731 44.9782 16.0764 43.4365 15.9806 41.8337C15.3373 30.955 28.7993 21.3713 46.0558 20.42C63.316 19.4718 77.8353 27.5219 78.4818 38.397C78.5576 39.6656 78.444 40.9138 78.1509 42.1376C78.0038 42.7684 77.8021 43.4021 77.5579 44.0109C77.3893 44.4546 77.1899 44.8967 76.9696 45.333C73.0112 53.0843 61.8603 59.0786 48.4102 59.814L48.4138 59.8172Z" fill="#FFDB22"/>
<path d="M47.9724 54.1483C36.3196 54.3231 26.7537 48.3001 26.6002 40.6926C26.5371 37.5177 28.1232 34.5669 30.8461 32.1969C34.646 28.8952 40.6382 26.7151 47.4317 26.6054C53.3608 26.5192 58.7424 28.0369 62.6263 30.5504C66.3749 32.9755 68.7245 36.3293 68.8038 40.0611C68.9537 47.6653 59.6319 53.9731 47.9724 54.1483Z" fill="#FF9D07"/>
<path d="M58.6332 35.4296C55.8227 33.7569 52.0634 32.7557 47.9141 32.7886C42.8041 32.8367 38.2285 34.4394 35.2477 36.9023L30.8497 32.2001C34.6496 28.8984 40.6418 26.7183 47.4353 26.6086C53.3644 26.5224 58.7459 28.0401 62.6299 30.5536L58.6332 35.4296Z" fill="#FFAD0A"/>
<path d="M47.5088 53.7222C38.6733 53.7935 31.5969 49.17 31.7099 43.3885C31.7539 40.9741 33.0441 38.7409 35.1787 36.9506C38.1542 34.4572 42.7628 32.8321 47.9173 32.7851C52.4153 32.7467 56.4489 33.9279 59.3158 35.8574C62.0862 37.7204 63.7689 40.2795 63.7162 43.1187C63.6031 48.9001 56.3543 53.6468 47.512 53.7186L47.5088 53.7222Z" fill="#FEDB1D"/>
<path d="M48.4138 59.8172C33.6984 60.6255 20.9703 54.8891 17.1355 46.4404C16.4731 44.9782 16.0764 43.4364 15.9806 41.8337C15.9602 41.4926 15.9539 41.1577 15.9612 40.822C16.1369 42.044 16.496 43.2423 17.0156 44.377C20.8504 52.8258 33.5717 58.5625 48.2939 57.7538C61.7404 57.0152 72.895 51.0241 76.8533 43.2729C77.8092 41.4002 78.3375 39.4176 78.3838 37.3862C78.4342 37.7153 78.4719 38.0588 78.4923 38.3998C78.6362 40.8074 78.0977 43.1361 76.98 45.3358C73.0217 53.0871 61.8708 59.0814 48.4206 59.8168L48.4138 59.8172Z" fill="#FDFFFF"/>
<path d="M48.4138 59.8172C34.4488 60.5843 22.2775 55.4605 17.7968 47.7144C23.1772 53.2796 29.6787 55.4988 35.1943 56.968C41.3742 58.6164 51.7577 59.0792 61.669 55.3051C71.0784 51.7227 76.5607 45.8789 78.1509 42.1376C78.0038 42.7683 77.8021 43.4021 77.5579 44.0108C77.3893 44.4546 77.1899 44.8967 76.9696 45.333C73.0112 53.0842 61.8603 59.0785 48.4102 59.814L48.4138 59.8172Z" fill="#FDFFFF"/>
</svg>
