<svg width="36" height="38" viewBox="0 0 36 38" fill="none" xmlns="http://www.w3.org/2000/svg">
<path d="M16.8733 6.49386L27.7483 8.80636C28.1833 8.89886 28.4961 9.29352 28.4961 9.74986V28.2499C28.4961 28.4715 28.4217 28.6864 28.2855 28.8583C28.1493 29.0301 27.9596 29.1485 27.7483 29.1934L16.8733 31.5059C16.7371 31.5348 16.5964 31.5322 16.4613 31.4983C16.3262 31.4644 16.2001 31.4001 16.0922 31.3099C15.9843 31.2197 15.8972 31.106 15.8374 30.977C15.7775 30.8479 15.7463 30.7068 15.7461 30.5639V7.43736C15.746 7.29422 15.7769 7.15286 15.8366 7.02355C15.8964 6.89424 15.9833 6.78023 16.0913 6.6898C16.1993 6.59937 16.3255 6.53479 16.4607 6.50077C16.596 6.46674 16.737 6.46489 16.8733 6.49386ZM13.4961 8.20819V10.1353H9.37109V27.8644H13.4961V29.7915H8.43359C8.20163 29.7914 7.97793 29.703 7.80574 29.5432C7.63355 29.3835 7.5251 29.1638 7.50134 28.9266L7.49609 28.8288V9.1725C7.49609 8.673 7.86509 8.26292 8.33759 8.21359L8.43359 8.20819H13.4961ZM17.6211 8.62136V29.3799L26.6211 27.4659V10.5346L17.6211 8.62136ZM19.8711 17.8444C20.1695 17.8444 20.4556 17.9662 20.6666 18.183C20.8776 18.3999 20.9961 18.694 20.9961 19.0006C20.9961 19.3073 20.8776 19.6014 20.6666 19.8182C20.4556 20.0351 20.1695 20.1569 19.8711 20.1569C19.5727 20.1569 19.2866 20.0351 19.0756 19.8182C18.8646 19.6014 18.7461 19.3073 18.7461 19.0006C18.7461 18.694 18.8646 18.3999 19.0756 18.183C19.2866 17.9662 19.5727 17.8444 19.8711 17.8444Z" fill="white"/>
</svg>
