<svg width="29" height="29" viewBox="0 0 29 29" fill="none" xmlns="http://www.w3.org/2000/svg">
<path d="M6.50813 0.802246C3.05434 0.802246 0.228516 3.62807 0.228516 7.08186V9.59371H2.74036V7.08186C2.74036 5.00959 4.43586 3.31409 6.50813 3.31409C8.58041 3.31409 10.2759 5.00959 10.2759 7.08186V9.59371H12.7878V7.08186C12.7878 3.62807 9.96192 0.802246 6.50813 0.802246Z" fill="#56533D"/>
<path d="M9.01966 27.5616H24.0907C25.9141 27.5616 27.4026 26.0731 27.4026 24.2497V12.9464C27.4026 11.1231 25.9141 9.63457 24.0907 9.63457H9.01966C7.19632 9.63457 5.70781 11.1231 5.70781 12.9464V24.2497C5.70781 26.0731 7.19632 27.5616 9.01966 27.5616Z" fill="#5A8900" stroke="#56533D" stroke-width="1.6"/>
<path d="M16.5546 20.45C17.9755 20.45 19.1273 19.2982 19.1273 17.8774C19.1273 16.4565 17.9755 15.3047 16.5546 15.3047C15.1338 15.3047 13.9819 16.4565 13.9819 17.8774C13.9819 19.2982 15.1338 20.45 16.5546 20.45Z" fill="#FFFDEE"/>
</svg>
