<svg width="31" height="30" viewBox="0 0 31 30" fill="none" xmlns="http://www.w3.org/2000/svg">
<path d="M8.21045 2.5H19.4604C20.1235 2.5 20.7594 2.76339 21.2282 3.23223C21.6971 3.70107 21.9604 4.33696 21.9604 5V6.25C21.9604 6.58152 21.8288 6.89946 21.5943 7.13388C21.3599 7.3683 21.042 7.5 20.7104 7.5C20.3789 7.5 20.061 7.3683 19.8266 7.13388C19.5921 6.89946 19.4604 6.58152 19.4604 6.25V5H8.21045V25H19.4604V23.75C19.4604 23.4185 19.5921 23.1005 19.8266 22.8661C20.061 22.6317 20.3789 22.5 20.7104 22.5C21.042 22.5 21.3599 22.6317 21.5943 22.8661C21.8288 23.1005 21.9604 23.4185 21.9604 23.75V25C21.9604 25.663 21.6971 26.2989 21.2282 26.7678C20.7594 27.2366 20.1235 27.5 19.4604 27.5H8.21045C7.54741 27.5 6.91152 27.2366 6.44268 26.7678C5.97384 26.2989 5.71045 25.663 5.71045 25V5C5.71045 4.33696 5.97384 3.70107 6.44268 3.23223C6.91152 2.76339 7.54741 2.5 8.21045 2.5Z" fill="white"/>
<path d="M21.7042 20.3688C22.1917 20.8563 22.9792 20.8563 23.4667 20.3688L27.9517 15.8838C28.186 15.6493 28.3177 15.3315 28.3177 15C28.3177 14.6685 28.186 14.3507 27.9517 14.1163L23.4667 9.63125C23.2291 9.4165 22.918 9.30125 22.5979 9.30933C22.2777 9.31741 21.9729 9.44821 21.7464 9.67468C21.5199 9.90115 21.3891 10.206 21.381 10.5262C21.3729 10.8463 21.4882 11.1574 21.703 11.395L24.048 13.75H13.2104C12.8789 13.75 12.561 13.8817 12.3266 14.1161C12.0921 14.3505 11.9604 14.6685 11.9604 15C11.9604 15.3315 12.0921 15.6495 12.3266 15.8839C12.561 16.1183 12.8789 16.25 13.2104 16.25H24.048L21.703 18.605C21.4696 18.8393 21.3387 19.1565 21.3389 19.4871C21.3392 19.8178 21.4705 20.1348 21.7042 20.3688Z" fill="white"/>
</svg>
