<svg width="34" height="32" viewBox="0 0 34 32" fill="none" xmlns="http://www.w3.org/2000/svg">
<path d="M25.5145 5.0895L32.3455 12.7952L25.9055 30.3694L19.0791 22.6637L25.5145 5.0895Z" fill="#95500F"/>
<path d="M30.3351 13.0404L26.2227 8.40151L25.5925 10.1235L24.9255 9.36927L21.0522 19.9419L21.7192 20.6962L21.089 22.4181L25.1969 27.0525L25.8271 25.3305L26.4987 26.0893L30.3719 15.5166L29.7049 14.7578L30.3351 13.0404Z" fill="#383332"/>
<path d="M24.461 19.8693C24.3368 19.7285 24.1804 19.7285 24.0056 19.8693C23.84 20.0056 23.6928 20.2374 23.5824 20.5418C23.4674 20.8598 23.4122 21.1915 23.4168 21.5095C23.4214 21.8185 23.4904 22.0547 23.61 22.1911C23.7296 22.3274 23.8768 22.3364 24.0424 22.2183C24.2126 22.1002 24.3598 21.8685 24.4794 21.555C24.5898 21.2506 24.6496 20.9189 24.6496 20.5963C24.6496 20.2737 24.5852 20.0102 24.461 19.8693Z" fill="#FFAA00"/>
<path d="M27.8421 13.2996L26.3977 11.6685L25.2063 14.9217L25.9699 15.7849L26.4621 14.4446L27.0463 15.1034L26.3103 17.1071L25.9699 16.7209C25.7675 16.4892 25.5605 16.4392 25.3581 16.5709C25.1419 16.7073 24.9349 17.048 24.7417 17.5796L24.2725 18.8563L25.0683 19.7559L25.4133 18.8109L25.7859 19.2334C26.1907 19.6878 26.6737 19.3061 27.0739 18.2111L27.9065 15.9394C28.1549 15.267 28.2561 14.699 28.2193 14.2583C28.1871 13.8676 28.0629 13.545 27.8467 13.3042" fill="#FFAA00"/>
<path d="M19.0788 22.6638L25.9053 30.3695L8.53561 26.8847L1.70459 19.179L19.0788 22.6638Z" fill="#633408"/>
<path d="M16.31 22.7501L5.85873 20.651L6.52574 21.4098L4.82373 21.0645L8.93154 25.7034L10.6335 26.0441L11.3052 26.7984L21.7564 28.8929L21.0848 28.1387L22.7868 28.4794L18.679 23.8451L16.977 23.5043L16.31 22.7501Z" fill="#2E2A29"/>
<path d="M13.9408 25.708C13.6234 25.6444 13.3888 25.6444 13.26 25.7034C13.1404 25.7625 13.1358 25.8624 13.2554 25.9942C13.3796 26.1351 13.6096 26.2804 13.9178 26.4213C14.2168 26.5576 14.5388 26.6666 14.8424 26.7257C15.146 26.7893 15.376 26.7939 15.514 26.7439C15.652 26.6939 15.6612 26.5939 15.5416 26.4531C15.422 26.3213 15.2012 26.1714 14.9022 26.0306C14.5894 25.8806 14.2536 25.767 13.9408 25.708Z" fill="#FF8800"/>
<path d="M12.8414 22.8365L9.16602 22.1004L10.431 23.5271L12.3768 23.9178L11.857 23.3272L13.3382 23.6225L14.1156 24.4994L13.2462 24.3267C12.7264 24.2222 12.3722 24.195 12.1928 24.254C11.9996 24.3131 12.0042 24.463 12.2112 24.6947L12.708 25.2536L14.7366 25.6625L14.3686 25.2491L15.3162 25.4399C16.342 25.6443 16.7008 25.4808 16.2776 24.9992L15.3944 24.0041C15.1322 23.7088 14.7596 23.4589 14.2904 23.2636C13.8764 23.0909 13.3888 22.9455 12.8414 22.8365Z" fill="#FF8800"/>
<path d="M25.5143 5.08976L19.0788 22.6639L1.70459 19.1791L8.14461 1.60492L25.5143 5.08976Z" fill="#CD7522"/>
<path d="M21.4023 6.17549L10.951 4.07641L10.3208 5.79838L8.61882 5.45762L4.74561 16.0303L6.44761 16.371L5.81741 18.093L16.2686 20.1876L16.8988 18.4656L18.6008 18.8109L22.4741 8.23369L20.7721 7.89293L21.4023 6.17549Z" fill="#474140"/>
<path d="M11.8476 14.4769C11.5302 14.4133 11.2036 14.4815 10.8954 14.6768C10.601 14.8631 10.3848 15.1221 10.2744 15.4265C10.1594 15.7446 10.1732 16.049 10.3204 16.3125C10.4584 16.5715 10.6976 16.7396 11.0012 16.7986C11.3048 16.8577 11.6222 16.7986 11.9166 16.6305C12.2202 16.4579 12.4456 16.1989 12.5606 15.8809C12.671 15.5764 12.6618 15.272 12.5376 14.9994C12.4042 14.7177 12.165 14.536 11.8522 14.4724" fill="#FFE384"/>
<path d="M16.2964 7.47992L12.621 6.74387L11.4296 9.997L13.3754 10.3877L13.8676 9.04741L15.3488 9.34274L14.6128 11.3464L13.7434 11.1738C13.2236 11.0693 12.7728 11.1147 12.4002 11.3146C12.0046 11.5236 11.7056 11.9007 11.5078 12.4323L11.0386 13.709L13.0672 14.1134L13.4122 13.1683L14.3598 13.3592C15.3856 13.5636 16.2412 13.032 16.6414 11.9371L17.474 9.66533C17.7224 8.99289 17.7132 8.47039 17.4556 8.12055C17.2302 7.80705 16.8392 7.5935 16.2918 7.48446" fill="#FFE384"/>
<path d="M24.8743 4.96653L9.93171 1.93919C8.96885 1.74412 8.00688 2.27725 7.66193 3.19712L2.08728 18.0628C1.82823 18.7536 1.97052 19.5309 2.45748 20.0852L8.03714 26.4357C8.32752 26.7662 8.71876 26.9917 9.15028 27.0774L24.2231 30.0686C25.1842 30.2593 26.1419 29.7257 26.4854 28.8081L32.0174 14.031C32.2768 13.338 32.1324 12.5584 31.642 12.0043L25.9748 5.60119C25.6867 5.27565 25.3004 5.05285 24.8743 4.96653Z" stroke="#56533D" stroke-width="2"/>
</svg>
