<svg width="35" height="36" viewBox="0 0 35 36" fill="none" xmlns="http://www.w3.org/2000/svg">
<path d="M1.61146 20.1122L1.61142 20.1125C1.48737 21.0098 1.61367 22.0394 1.87939 22.9737C2.14494 23.9075 2.57945 24.8504 3.16066 25.5487C3.16091 25.549 3.16116 25.5493 3.16142 25.5496L8.97392 32.5563L8.97515 32.5578C9.57978 33.2838 10.4591 33.8321 11.3583 34.1692C12.2577 34.5064 13.2813 34.6714 14.2157 34.5223L14.2173 34.522L27.9565 32.3054C27.9566 32.3054 27.9567 32.3054 27.9568 32.3054C28.927 32.1504 29.8101 31.6262 30.4725 30.951C31.1348 30.2759 31.6417 29.3834 31.776 28.4116L33.5145 15.8856L33.5146 15.8851C33.6387 14.987 33.5111 13.957 33.245 13.0233C32.9788 12.0894 32.5444 11.1471 31.9659 10.4496L31.9656 10.4492L26.1519 3.44499L26.1508 3.44372C25.5462 2.71772 24.6669 2.16941 23.7677 1.83228C22.8683 1.49511 21.8447 1.33006 20.9103 1.47921L20.9088 1.47946L7.16394 3.69634L7.16288 3.69651C6.19464 3.85374 5.3123 4.377 4.64981 5.05165C3.98757 5.72605 3.48045 6.61762 3.34601 7.58962C3.346 7.58971 3.34598 7.5898 3.34597 7.58988L1.61146 20.1122Z" fill="url(#paint0_linear_603_752)" stroke="black" stroke-width="2"/>
<path d="M4.85928 22.4462C3.4198 22.6806 3.00112 23.7851 3.9302 24.9094L9.74394 31.9136C10.673 33.034 12.6149 33.761 14.0584 33.5306L27.7992 31.3137C29.2427 31.0833 29.6574 29.9749 28.7283 28.8545L22.9146 21.8503C21.9855 20.7299 20.0436 20.0029 18.6001 20.2333L4.85529 22.4502L4.85928 22.4462Z" fill="url(#paint1_linear_603_752)"/>
<path d="M17.5115 29.3353C17.049 30.0028 15.6015 30.2372 14.2657 29.8598C12.9379 29.4823 12.2321 28.6361 12.6946 27.9647C13.1572 27.2972 14.6126 27.0628 15.9404 27.4442C17.2723 27.8217 17.9741 28.6719 17.5115 29.3353Z" fill="#1F2021"/>
<path d="M19.9637 25.7955C19.5011 26.463 18.0497 26.6974 16.7179 26.32C15.39 25.9425 14.6842 25.0963 15.1468 24.4249C15.6093 23.7574 17.0648 23.523 18.3926 23.9005C19.7244 24.2779 20.4262 25.1281 19.9637 25.7916" fill="#1F2021"/>
<path d="M21.5862 17.1901C21.3868 18.6323 21.9849 20.73 22.914 21.8503L28.7278 28.8545C29.6568 29.9749 30.5819 29.7127 30.7813 28.2745L32.5199 15.7479C32.7192 14.3058 32.1211 12.2121 31.192 11.0877L25.3783 4.0835C24.4492 2.96314 23.5241 3.22535 23.3247 4.66354L21.5862 17.1901Z" fill="url(#paint2_linear_603_752)"/>
<path d="M29.2104 22.7363C29.0469 23.9242 28.4129 24.2818 27.8028 23.5428C27.1888 22.7999 26.8259 21.2425 26.9894 20.0586C27.1529 18.8747 27.7829 18.5092 28.397 19.2521C29.011 19.9911 29.3739 21.5564 29.2104 22.7363Z" fill="#1F2021"/>
<path d="M30.0844 16.4434C29.9209 17.6313 29.2869 17.9888 28.6768 17.2499C28.0628 16.5109 27.6999 14.9535 27.8634 13.7656C28.0269 12.5817 28.6569 12.2162 29.271 12.9591C29.8851 13.6981 30.2479 15.2634 30.0844 16.4434Z" fill="#1F2021"/>
<path d="M26.2476 19.1687C26.0841 20.3566 25.4541 20.7182 24.836 19.9752C24.222 19.2363 23.8591 17.6749 24.0226 16.491C24.1861 15.3071 24.8161 14.9416 25.4302 15.6845C26.0442 16.4234 26.4071 17.9848 26.2436 19.1687" fill="#1F2021"/>
<path d="M27.1215 12.8755C26.958 14.0634 26.328 14.425 25.714 13.686C25.0999 12.9431 24.737 11.3857 24.9005 10.2018C25.064 9.01786 25.694 8.65235 26.3081 9.39131C26.9222 10.1342 27.285 11.6956 27.1215 12.8755Z" fill="#1F2021"/>
<path d="M2.58747 20.2439C2.3881 21.6861 3.4049 22.6753 4.84438 22.4409L18.5892 20.2241C20.0327 19.9897 21.3725 18.623 21.5758 17.1808L23.3144 4.65425C23.5137 3.21209 22.4969 2.22284 21.0574 2.45724L7.30864 4.67809C5.86517 4.90852 4.52538 6.27917 4.32202 7.72133L2.58747 20.2439Z" fill="url(#paint3_linear_603_752)"/>
<path d="M10.6687 12.8278C10.8322 11.6399 11.9926 10.5156 13.2606 10.309C14.5246 10.1064 15.4218 10.897 15.2583 12.0849C15.0948 13.2688 13.9305 14.3971 12.6664 14.5997C11.3984 14.8063 10.5052 14.0038 10.6687 12.8239" fill="#1F2021"/>
<defs>
<linearGradient id="paint0_linear_603_752" x1="17.7168" y1="18.268" x2="30.0046" y2="35.3409" gradientUnits="userSpaceOnUse">
<stop stop-color="#FF9F05"/>
<stop offset="0.58" stop-color="#FF8105"/>
<stop offset="1" stop-color="#FF7105"/>
</linearGradient>
<linearGradient id="paint1_linear_603_752" x1="-0.352115" y1="39.8885" x2="33.5074" y2="13.1069" gradientUnits="userSpaceOnUse">
<stop stop-color="#FFEA05"/>
<stop offset="0.19" stop-color="#FFD905"/>
<stop offset="0.72" stop-color="#FFAF05"/>
<stop offset="1" stop-color="#FF9F05"/>
</linearGradient>
<linearGradient id="paint2_linear_603_752" x1="44.9628" y1="18.1246" x2="14.928" y2="15.2759" gradientUnits="userSpaceOnUse">
<stop stop-color="#FFEA05"/>
<stop offset="0.19" stop-color="#FFD905"/>
<stop offset="0.72" stop-color="#FFAF05"/>
<stop offset="1" stop-color="#FF9F05"/>
</linearGradient>
<linearGradient id="paint3_linear_603_752" x1="10.7222" y1="5.30554" x2="24.8368" y2="52.1648" gradientUnits="userSpaceOnUse">
<stop stop-color="#FFEA05"/>
<stop offset="0.19" stop-color="#FFD905"/>
<stop offset="0.72" stop-color="#FFAF05"/>
<stop offset="1" stop-color="#FF9F05"/>
</linearGradient>
</defs>
</svg>
