<svg width="27" height="25" viewBox="0 0 27 25" fill="none" xmlns="http://www.w3.org/2000/svg">
<mask id="path-1-outside-1_917_1148" maskUnits="userSpaceOnUse" x="0.15918" y="0.57959" width="27" height="24" fill="black">
<rect fill="white" x="0.15918" y="0.57959" width="27" height="24"/>
<path fill-rule="evenodd" clip-rule="evenodd" d="M6.69728 6.90416L13.0965 1.71836C13.3259 1.53333 13.6506 1.53333 13.8785 1.71836L25.5835 11.2026C25.9938 11.5344 25.8236 12.1647 25.3586 12.2874C25.3052 12.302 25.2479 12.31 25.1871 12.31H24.6568C24.6068 12.31 24.5581 12.3159 24.5115 12.3272C24.3634 12.3647 24.2358 12.4559 24.1506 12.5784L24.1476 12.5761C24.0771 12.677 24.0356 12.7999 24.0356 12.9322V23.1477C24.0356 23.4909 23.7571 23.7699 23.4145 23.7699H18.0357C17.6931 23.7699 17.4145 23.4909 17.4145 23.1477V17.8296C17.4145 17.4864 17.136 17.2073 16.7934 17.2073H10.1767C9.83412 17.2073 9.55557 17.4864 9.55557 17.8296V23.1477C9.55557 23.4909 9.27702 23.7699 8.93442 23.7699H3.54667C3.20407 23.7699 2.92552 23.4909 2.92552 23.1477V12.9322C2.92552 12.589 2.64698 12.31 2.30438 12.31H1.78154C1.19614 12.31 0.935467 11.5714 1.39127 11.2028L6.69728 6.90416Z"/>
</mask>
<path fill-rule="evenodd" clip-rule="evenodd" d="M6.69728 6.90416L13.0965 1.71836C13.3259 1.53333 13.6506 1.53333 13.8785 1.71836L25.5835 11.2026C25.9938 11.5344 25.8236 12.1647 25.3586 12.2874C25.3052 12.302 25.2479 12.31 25.1871 12.31H24.6568C24.6068 12.31 24.5581 12.3159 24.5115 12.3272C24.3634 12.3647 24.2358 12.4559 24.1506 12.5784L24.1476 12.5761C24.0771 12.677 24.0356 12.7999 24.0356 12.9322V23.1477C24.0356 23.4909 23.7571 23.7699 23.4145 23.7699H18.0357C17.6931 23.7699 17.4145 23.4909 17.4145 23.1477V17.8296C17.4145 17.4864 17.136 17.2073 16.7934 17.2073H10.1767C9.83412 17.2073 9.55557 17.4864 9.55557 17.8296V23.1477C9.55557 23.4909 9.27702 23.7699 8.93442 23.7699H3.54667C3.20407 23.7699 2.92552 23.4909 2.92552 23.1477V12.9322C2.92552 12.589 2.64698 12.31 2.30438 12.31H1.78154C1.19614 12.31 0.935467 11.5714 1.39127 11.2028L6.69728 6.90416Z" fill="#88480B"/>
<path d="M6.69728 6.90416L7.20087 7.52576L7.20096 7.52569L6.69728 6.90416ZM13.0965 1.71836L12.5942 1.09568L12.5928 1.09683L13.0965 1.71836ZM13.8785 1.71836L13.3743 2.33944L13.3749 2.33993L13.8785 1.71836ZM25.5835 11.2026L25.0799 11.8242L25.0805 11.8247L25.5835 11.2026ZM25.3586 12.2874L25.1546 11.5138L25.1464 11.516L25.3586 12.2874ZM24.5115 12.3272L24.3242 11.5493L24.315 11.5517L24.5115 12.3272ZM24.1506 12.5784L23.6468 13.1999L24.3155 13.7418L24.8072 13.0354L24.1506 12.5784ZM24.1476 12.5761L24.6514 11.9546L23.9841 11.4138L23.492 12.1177L24.1476 12.5761ZM1.39127 11.2028L1.89429 11.8249L1.89487 11.8244L1.39127 11.2028ZM7.20096 7.52569L13.6002 2.3399L12.5928 1.09683L6.1936 6.28262L7.20096 7.52569ZM13.5988 2.34105C13.536 2.39166 13.4412 2.39375 13.3743 2.33944L14.3828 1.09728C13.8601 0.672919 13.1158 0.675 12.5942 1.09568L13.5988 2.34105ZM13.3749 2.33993L25.0799 11.8242L26.0872 10.5811L14.3822 1.09679L13.3749 2.33993ZM25.0805 11.8247C25.0618 11.8095 25.0381 11.7797 25.025 11.7388C25.013 11.7015 25.014 11.6685 25.0197 11.6438C25.0295 11.6014 25.0687 11.5365 25.1546 11.5138L25.5627 13.0609C26.6261 12.7804 27.0345 11.3471 26.0865 10.5806L25.0805 11.8247ZM25.1871 13.11C25.3182 13.11 25.447 13.0928 25.5708 13.0587L25.1464 11.516C25.1635 11.5113 25.1776 11.51 25.1871 11.51V13.11ZM24.6568 13.11H25.1871V11.51H24.6568V13.11ZM24.6988 13.1049C24.6846 13.1084 24.6704 13.11 24.6568 13.11V11.51C24.5432 11.51 24.4317 11.5235 24.3243 11.5494L24.6988 13.1049ZM24.315 11.5517C23.9737 11.6382 23.6854 11.8464 23.4939 12.1214L24.8072 13.0354C24.7863 13.0654 24.7531 13.0912 24.708 13.1027L24.315 11.5517ZM24.6543 11.9569L24.6514 11.9546L23.6439 13.1976L23.6468 13.1999L24.6543 11.9569ZM24.8356 12.9322C24.8356 12.9694 24.8235 13.0056 24.8033 13.0344L23.492 12.1177C23.3307 12.3484 23.2356 12.6303 23.2356 12.9322H24.8356ZM24.8356 23.1477V12.9322H23.2356V23.1477H24.8356ZM23.4145 24.5699C24.2002 24.5699 24.8356 23.9314 24.8356 23.1477H23.2356C23.2356 23.0504 23.3139 22.9699 23.4145 22.9699V24.5699ZM18.0357 24.5699H23.4145V22.9699H18.0357V24.5699ZM16.6145 23.1477C16.6145 23.9314 17.2499 24.5699 18.0357 24.5699V22.9699C18.1362 22.9699 18.2145 23.0504 18.2145 23.1477H16.6145ZM16.6145 17.8296V23.1477H18.2145V17.8296H16.6145ZM16.7934 18.0073C16.6928 18.0073 16.6145 17.9269 16.6145 17.8296H18.2145C18.2145 17.0459 17.5791 16.4073 16.7934 16.4073V18.0073ZM10.1767 18.0073H16.7934V16.4073H10.1767V18.0073ZM10.3556 17.8296C10.3556 17.9269 10.2773 18.0073 10.1767 18.0073V16.4073C9.39097 16.4073 8.75557 17.0459 8.75557 17.8296H10.3556ZM10.3556 23.1477V17.8296H8.75557V23.1477H10.3556ZM8.93442 24.5699C9.72017 24.5699 10.3556 23.9314 10.3556 23.1477H8.75557C8.75557 23.0504 8.83388 22.9699 8.93442 22.9699V24.5699ZM3.54667 24.5699H8.93442V22.9699H3.54667V24.5699ZM2.12552 23.1477C2.12552 23.9314 2.76093 24.5699 3.54667 24.5699V22.9699C3.64722 22.9699 3.72552 23.0504 3.72552 23.1477H2.12552ZM2.12552 12.9322V23.1477H3.72552V12.9322H2.12552ZM2.30438 13.11C2.20383 13.11 2.12552 13.0295 2.12552 12.9322H3.72552C3.72552 12.1485 3.09012 11.51 2.30438 11.51V13.11ZM1.78154 13.11H2.30438V11.51H1.78154V13.11ZM0.88826 10.5807C-0.151605 11.4216 0.43899 13.11 1.78154 13.11V11.51C1.81041 11.51 1.85291 11.5213 1.89063 11.5497C1.92387 11.5747 1.94171 11.6039 1.95041 11.6286C1.95912 11.6532 1.96344 11.6869 1.95338 11.7268C1.94197 11.7721 1.9163 11.8071 1.89429 11.8249L0.88826 10.5807ZM6.19369 6.28255L0.88768 10.5812L1.89487 11.8244L7.20087 7.52576L6.19369 6.28255Z" fill="#56533D" mask="url(#path-1-outside-1_917_1148)"/>
<path d="M13.6265 2.03063L24.4541 10.8026H24.45L25.3252 11.5131C25.4907 11.6475 25.3931 11.9098 25.1871 11.9098H24.6568C24.0926 11.9098 23.6356 12.3686 23.6356 12.932V23.1475C23.6356 23.2704 23.5355 23.3697 23.4145 23.3697H18.0357C17.9146 23.3697 17.8145 23.2704 17.8145 23.1475V17.8294C17.8145 17.2659 17.3575 16.8071 16.7934 16.8071H10.1767C9.61255 16.8071 9.15557 17.2659 9.15557 17.8294V23.1475C9.15557 23.2704 9.05545 23.3697 8.93442 23.3697H3.54667C3.42565 23.3697 3.32552 23.2704 3.32552 23.1475V12.932C3.32552 12.3686 2.86855 11.9098 2.30438 11.9098H1.78154C1.57472 11.9098 1.479 11.6461 1.64278 11.5136L1.64307 11.5134L13.3481 2.03063L13.3484 2.03037C13.4294 1.96462 13.5452 1.96462 13.6262 2.03037L13.6265 2.03063Z" fill="#CD7522" stroke="#56533D" stroke-width="0.8"/>
<mask id="path-4-inside-2_917_1148" fill="white">
<path d="M25.1935 12.3083H24.6632C24.4517 12.3083 24.264 12.4158 24.1508 12.5784L13.8787 4.25506C13.6508 4.07003 13.3261 4.07003 13.0967 4.25506L2.82172 12.5814C2.71 12.4173 2.52083 12.3083 2.30633 12.3083H1.78349C1.19809 12.3083 0.93742 11.5712 1.39323 11.2026L13.0967 1.71836C13.3261 1.53333 13.6508 1.53333 13.8787 1.71836L25.5837 11.2026C26.0396 11.5712 25.7789 12.3083 25.1935 12.3083Z"/>
</mask>
<path d="M25.1935 12.3083H24.6632C24.4517 12.3083 24.264 12.4158 24.1508 12.5784L13.8787 4.25506C13.6508 4.07003 13.3261 4.07003 13.0967 4.25506L2.82172 12.5814C2.71 12.4173 2.52083 12.3083 2.30633 12.3083H1.78349C1.19809 12.3083 0.93742 11.5712 1.39323 11.2026L13.0967 1.71836C13.3261 1.53333 13.6508 1.53333 13.8787 1.71836L25.5837 11.2026C26.0396 11.5712 25.7789 12.3083 25.1935 12.3083Z" fill="#6D3907"/>
<path d="M24.1508 12.5784L21.6325 15.6862L24.9757 18.3952L27.4338 14.8635L24.1508 12.5784ZM13.8787 4.25506L11.3575 7.36046L11.3605 7.36287L13.8787 4.25506ZM13.0967 4.25506L10.5854 1.14164L10.5784 1.14733L13.0967 4.25506ZM2.82172 12.5814L-0.485027 14.8321L1.96165 18.4268L5.34006 15.6891L2.82172 12.5814ZM1.39323 11.2026L3.90829 14.313L3.91162 14.3103L1.39323 11.2026ZM13.0967 1.71836L10.5854 -1.39506L10.5783 -1.38932L13.0967 1.71836ZM13.8787 1.71836L11.3575 4.82376L11.3605 4.8262L13.8787 1.71836ZM25.5837 11.2026L23.0655 14.3105L23.0687 14.313L25.5837 11.2026ZM25.1935 8.30833H24.6632V16.3083H25.1935V8.30833ZM24.6632 8.30833C23.0644 8.30833 21.6829 9.12217 20.8677 10.2933L27.4338 14.8635C26.8451 15.7094 25.839 16.3083 24.6632 16.3083V8.30833ZM26.669 9.47061L16.397 1.14725L11.3605 7.36287L21.6325 15.6862L26.669 9.47061ZM16.4 1.14966C14.6981 -0.232037 12.2756 -0.221629 10.5854 1.14164L15.608 7.36848C14.3767 8.36169 12.6036 8.3721 11.3575 7.36046L16.4 1.14966ZM10.5784 1.14733L0.303377 9.47367L5.34006 15.6891L15.6151 7.36279L10.5784 1.14733ZM6.12846 10.3307C5.30691 9.12369 3.9057 8.30833 2.30633 8.30833V16.3083C1.13595 16.3083 0.113091 15.7108 -0.485027 14.8321L6.12846 10.3307ZM2.30633 8.30833H1.78349V16.3083H2.30633V8.30833ZM1.78349 8.30833C4.97572 8.30833 6.3791 12.3151 3.90829 14.313L-1.12184 8.09225C-4.50426 10.8273 -2.57954 16.3083 1.78349 16.3083V8.30833ZM3.91162 14.3103L15.6151 4.82604L10.5783 -1.38932L-1.12517 8.09495L3.91162 14.3103ZM15.608 4.83178C14.3767 5.82499 12.6036 5.8354 11.3575 4.82376L16.4 -1.38704C14.6981 -2.76874 12.2756 -2.75833 10.5854 -1.39505L15.608 4.83178ZM11.3605 4.8262L23.0655 14.3105L28.1019 8.09479L16.397 -1.38947L11.3605 4.8262ZM23.0687 14.313C20.5978 12.3151 22.0013 8.30833 25.1935 8.30833V16.3083C29.5565 16.3083 31.4813 10.8273 28.0988 8.09225L23.0687 14.313Z" fill="#56533D" mask="url(#path-4-inside-2_917_1148)"/>
</svg>
