<svg width="42" height="39" viewBox="0 0 42 39" fill="none" xmlns="http://www.w3.org/2000/svg">
<g clip-path="url(#clip0_474_1742)">
<path d="M6.51368 0.819153H18.9949C21.8586 0.819153 24.1826 3.14143 24.1826 5.99841V25.8901C24.1826 28.7471 21.8586 31.0694 18.9949 31.0694H6.51368C3.64999 31.0694 1.32593 28.7471 1.32593 25.8901V5.99841C1.32593 3.14143 3.64999 0.819153 6.51368 0.819153Z" fill="white" stroke="black" stroke-width="1.5"/>
<path d="M13.9494 6.43134L9.55953 25.8371C9.00561 28.2822 10.0565 30.7118 12.0133 32.0455H17.656C20.9329 32.0455 23.5937 29.3937 23.5937 26.1163V6.2194C23.5937 4.64791 22.9777 3.22634 21.9786 2.16662L21.0468 1.95467C17.8475 1.23096 14.669 3.23668 13.9442 6.43134H13.9494Z" fill="#C4C4C4"/>
<path d="M16.8206 11.602C15.8267 10.7852 14.869 10.1598 14.7654 10.0926L12.7569 8.79504L10.7483 10.0926C10.6447 10.1598 9.68186 10.7852 8.6931 11.602C7.26431 12.7755 5.62845 14.4038 5.62845 16.6215C5.62845 18.6634 7.28501 20.3176 9.32984 20.3176C10.2565 20.3176 11.1003 19.9712 11.7474 19.4129C11.4316 20.6484 10.8311 22.0493 9.6715 23.0935H15.8526C14.693 22.0493 14.0925 20.6484 13.7767 19.4129C14.4238 19.9712 15.2676 20.3176 16.1942 20.3176C18.2391 20.3176 19.8956 18.6634 19.8956 16.6215C19.8956 14.4038 18.2598 12.7703 16.831 11.602H16.8206Z" fill="#383332"/>
<path d="M16.8206 11.602C15.8267 10.7852 14.869 10.1597 14.7654 10.0925L14.4548 9.89093L11.4678 23.0935H15.8422C14.6826 22.0493 14.0821 20.6484 13.7663 19.4129C14.4134 19.9712 15.2572 20.3175 16.1839 20.3175C18.2287 20.3175 19.8853 18.6633 19.8853 16.6214C19.8853 14.4038 18.2494 12.7703 16.8206 11.602Z" fill="#242120"/>
<path d="M40.5275 15.1245L33.8668 33.8688L33.8651 33.8685C32.9067 36.5636 29.9394 37.9743 27.2374 37.0207L15.4768 32.8546C15.4768 32.8546 15.4767 32.8545 15.4766 32.8545C12.7753 31.8965 11.3614 28.9336 12.3194 26.2396L12.3195 26.2395L18.9819 7.49037C18.982 7.49031 18.982 7.49025 18.982 7.4902C19.9405 4.79515 22.9073 3.38503 25.6086 4.3429L25.6088 4.34298L37.3702 8.50941C40.0717 9.46735 41.4856 12.4303 40.5276 15.1244L40.5275 15.1245Z" fill="white" stroke="black" stroke-width="1.5"/>
<path d="M24.4926 26.1073L23.0327 24.2101C22.9551 24.1119 22.2614 23.2021 21.5988 22.101C20.6462 20.5192 19.6523 18.4359 20.3926 16.3475C21.0759 14.4245 23.1932 13.4165 25.119 14.0988C26.5788 14.6158 27.5106 15.9546 27.5831 17.4072C28.5563 16.3217 30.1249 15.8667 31.5848 16.3889C33.5105 17.0712 34.52 19.1855 33.8366 21.1085C33.0912 23.1969 31.005 24.1894 29.2656 24.8149C28.0542 25.2543 26.9464 25.5231 26.8221 25.549L24.4926 26.1021V26.1073Z" fill="#E03443"/>
</g>
<defs>
<clipPath id="clip0_474_1742">
<rect width="41" height="38" fill="white" transform="translate(0.575928 0.0691528)"/>
</clipPath>
</defs>
</svg>
