<svg width="31" height="28" viewBox="0 0 31 28" fill="none" xmlns="http://www.w3.org/2000/svg">
<path d="M6.34484 8.14227H2.94922C2.14668 8.14227 1.49609 8.79286 1.49609 9.5954V19.2879C1.49609 20.0904 2.14668 20.741 2.94922 20.741H6.34484C7.14738 20.741 7.79796 20.0904 7.79796 19.2879V9.5954C7.79796 8.79286 7.14738 8.14227 6.34484 8.14227Z" fill="#5A8900"/>
<path d="M21.656 3.50937V25.4161C21.656 26.9791 19.9532 27.9478 18.6099 27.1539L8.78755 21.3314C8.17335 20.9668 7.79883 20.3077 7.79883 19.5936V9.2969C7.79883 8.58282 8.17834 7.91868 8.79255 7.55914L18.6149 1.77161C19.9581 0.977632 21.656 1.95138 21.656 3.50937Z" fill="#7EB737"/>
<path fill-rule="evenodd" clip-rule="evenodd" d="M2.20216 8.59737C1.8133 8.59737 1.49807 8.9126 1.49807 9.30146V18.994C1.49807 19.3828 1.8133 19.6981 2.20216 19.6981H5.59778C5.98664 19.6981 6.30187 19.3828 6.30187 18.994V9.30146C6.30187 8.9126 5.98664 8.59737 5.59778 8.59737H2.20216ZM0 9.30146C0 8.08524 0.98594 7.0993 2.20216 7.0993H5.59778C6.814 7.0993 7.79994 8.08524 7.79994 9.30146V18.994C7.79994 20.2102 6.814 21.1961 5.59778 21.1961H2.20216C0.98594 21.1961 0 20.2102 0 18.994V9.30146Z" fill="#56533D"/>
<path fill-rule="evenodd" clip-rule="evenodd" d="M20.1579 3.21481C20.1579 2.23436 19.0888 1.62429 18.247 2.12187L8.42378 7.90993L8.42193 7.91101C8.03851 8.13546 7.79885 8.55285 7.79885 9.00235V19.2991C7.79885 19.7493 8.03444 20.1634 8.42083 20.3927L18.242 26.2145C19.0868 26.7138 20.1579 26.1036 20.1579 25.1216V3.21481ZM17.4853 0.831896C19.3299 -0.257857 21.656 1.07951 21.656 3.21481V25.1216C21.656 27.2655 19.3215 28.5928 17.4797 27.5041L7.65659 21.6812C6.81457 21.1814 6.30078 20.277 6.30078 19.2991V9.00235C6.30078 8.02406 6.81974 7.11349 7.66416 6.61873C7.66449 6.61854 7.66481 6.61835 7.66514 6.61816L17.4847 0.832237C17.4849 0.832124 17.4851 0.83201 17.4853 0.831896Z" fill="#56533D"/>
<path d="M25.2967 17.3215C24.9422 17.3215 24.6426 17.0169 24.6426 16.6674C24.6426 16.3178 24.9472 16.0132 25.2967 16.0132C26.0008 16.0132 26.5551 15.459 26.5551 14.7549C26.5551 14.0508 26.0008 13.4965 25.2967 13.4965C24.9422 13.4965 24.6426 13.1919 24.6426 12.8423C24.6426 12.4928 24.9472 12.1882 25.2967 12.1882C26.7099 12.1882 27.8185 13.2967 27.8185 14.7099C27.8185 16.1231 26.7099 17.3315 25.2967 17.3315V17.3215Z" fill="#56533D"/>
<path d="M25.2967 19.8436C24.9422 19.8436 24.6426 19.539 24.6426 19.1894C24.6426 18.8399 24.9472 18.5352 25.2967 18.5352C27.3641 18.5352 29.0769 16.8225 29.0769 14.7551C29.0769 12.6878 27.3641 10.975 25.2967 10.975C24.9422 10.975 24.6426 10.6704 24.6426 10.3208C24.6426 9.97129 24.9472 9.66669 25.2967 9.66669C28.0682 9.66669 30.3352 11.9338 30.3352 14.7052C30.3352 17.4766 28.0682 19.8436 25.2967 19.8436Z" fill="#56533D"/>
</svg>
