<svg width="31" height="28" viewBox="0 0 31 28" fill="none" xmlns="http://www.w3.org/2000/svg">
<path d="M6.34484 7.81689H2.94922C2.14668 7.81689 1.49609 8.46748 1.49609 9.27002V18.9625C1.49609 19.7651 2.14668 20.4156 2.94922 20.4156H6.34484C7.14738 20.4156 7.79796 19.7651 7.79796 18.9625V9.27002C7.79796 8.46748 7.14738 7.81689 6.34484 7.81689Z" fill="#5A8900"/>
<path d="M21.656 3.18399V25.0907C21.656 26.6537 19.9532 27.6225 18.6099 26.8285L8.78755 21.006C8.17335 20.6415 7.79883 19.9823 7.79883 19.2682V8.97152C7.79883 8.25744 8.17834 7.5933 8.79255 7.23376L18.6149 1.44623C19.9581 0.652253 21.656 1.626 21.656 3.18399Z" fill="#5A8900"/>
<path fill-rule="evenodd" clip-rule="evenodd" d="M2.20216 8.27199C1.8133 8.27199 1.49807 8.58723 1.49807 8.97609V18.6686C1.49807 19.0574 1.8133 19.3727 2.20216 19.3727H5.59778C5.98664 19.3727 6.30187 19.0574 6.30187 18.6686V8.97609C6.30187 8.58723 5.98664 8.27199 5.59778 8.27199H2.20216ZM0 8.97609C0 7.75987 0.98594 6.77393 2.20216 6.77393H5.59778C6.814 6.77393 7.79994 7.75987 7.79994 8.97609V18.6686C7.79994 19.8848 6.814 20.8707 5.59778 20.8707H2.20216C0.98594 20.8707 0 19.8848 0 18.6686V8.97609Z" fill="#56533D"/>
<path fill-rule="evenodd" clip-rule="evenodd" d="M20.1579 2.88943C20.1579 1.90898 19.0888 1.29891 18.247 1.79649L8.42378 7.58455L8.42193 7.58564C8.03851 7.81008 7.79885 8.22747 7.79885 8.67697V18.9737C7.79885 19.4239 8.03444 19.838 8.42083 20.0673L18.242 25.8891C19.0868 26.3884 20.1579 25.7782 20.1579 24.7962V2.88943ZM17.4853 0.506518C19.3299 -0.583236 21.656 0.75413 21.656 2.88943V24.7962C21.656 26.9401 19.3215 28.2674 17.4797 27.1788L7.65659 21.3558C6.81457 20.856 6.30078 19.9516 6.30078 18.9737V8.67697C6.30078 7.69868 6.81974 6.78811 7.66416 6.29335C7.66449 6.29316 7.66481 6.29297 7.66514 6.29278L17.4847 0.506859C17.4849 0.506745 17.4851 0.506631 17.4853 0.506518Z" fill="#56533D"/>
<path d="M25.2967 16.9962C24.9422 16.9962 24.6426 16.6916 24.6426 16.342C24.6426 15.9925 24.9472 15.6879 25.2967 15.6879C26.0008 15.6879 26.5551 15.1336 26.5551 14.4295C26.5551 13.7254 26.0008 13.1711 25.2967 13.1711C24.9422 13.1711 24.6426 12.8665 24.6426 12.5169C24.6426 12.1674 24.9472 11.8628 25.2967 11.8628C26.7099 11.8628 27.8185 12.9714 27.8185 14.3845C27.8185 15.7977 26.7099 17.0062 25.2967 17.0062V16.9962Z" fill="#56533D"/>
<path d="M25.2967 19.5182C24.9422 19.5182 24.6426 19.2136 24.6426 18.864C24.6426 18.5145 24.9472 18.2099 25.2967 18.2099C27.3641 18.2099 29.0769 16.4971 29.0769 14.4297C29.0769 12.3624 27.3641 10.6496 25.2967 10.6496C24.9422 10.6496 24.6426 10.345 24.6426 9.99547C24.6426 9.64592 24.9472 9.34131 25.2967 9.34131C28.0682 9.34131 30.3352 11.6084 30.3352 14.3798C30.3352 17.1512 28.0682 19.5182 25.2967 19.5182Z" fill="#56533D"/>
</svg>
