<svg width="381" height="573" viewBox="0 0 381 573" fill="none" xmlns="http://www.w3.org/2000/svg">
<g clip-path="url(#clip0_873_564)">
<path d="M358.598 0H22.5981C10.2987 0 0.328125 9.97062 0.328125 22.27V550.73C0.328125 563.029 10.2987 573 22.5981 573H358.598C370.897 573 380.868 563.029 380.868 550.73V22.27C380.868 9.97062 370.897 0 358.598 0Z" fill="#FFBA35"/>
<path d="M317.159 301.57C316.559 298.24 315.709 294.96 314.669 291.74C314.669 291.74 310.559 271.17 278.819 244.86C279.999 241.05 280.639 237.01 280.639 232.83C280.639 209.85 261.489 191.21 237.869 191.21C217.659 191.21 200.739 204.85 196.269 223.18C195.549 223.04 192.019 223.07 190.609 223.08C189.199 223.06 185.659 223.04 184.949 223.18C180.479 204.85 163.549 191.21 143.349 191.21C119.729 191.21 100.579 209.84 100.579 232.83C100.579 237.01 101.219 241.05 102.399 244.86C70.6486 271.17 66.5486 291.74 66.5486 291.74C65.5086 294.96 64.6586 298.25 64.0586 301.57C61.4686 315.85 63.9886 330.44 72.3686 342.54C75.6086 347.21 79.5486 351.39 83.9286 355.06C88.1086 358.54 92.6686 361.59 97.4486 364.23C115.189 374.02 135.259 377.25 155.279 379.31C160.689 379.87 166.099 380.39 171.519 380.84C182.099 381.72 192.589 382.16 203.209 381.37C205.809 381.18 208.399 380.88 210.989 380.71C213.729 380.53 216.589 380.39 219.299 379.96C221.519 379.75 223.729 379.51 225.939 379.31C245.959 377.25 266.029 374.02 283.769 364.23C288.559 361.59 293.109 358.54 297.289 355.06C301.669 351.39 305.619 347.21 308.849 342.54C317.239 330.44 319.749 315.85 317.159 301.57Z" fill="#98CA51"/>
<path d="M191.728 385.92C185.578 385.92 178.898 385.6 171.168 384.96C166.268 384.55 160.928 384.05 154.848 383.42C134.938 381.37 113.968 378.07 95.4482 367.85C90.2982 365.01 85.5282 361.78 81.2782 358.24C76.4182 354.18 72.2782 349.69 68.9582 344.9C60.2882 332.39 57.0982 316.74 59.9782 300.84C60.5782 297.52 61.4382 294.1 62.5382 290.66C63.1582 288 68.5682 268.23 97.6982 243.4C96.8582 239.94 96.4282 236.4 96.4282 232.83C96.4282 207.6 117.468 187.08 143.338 187.08C163.988 187.08 181.898 200.02 188.028 218.94C188.748 218.94 189.618 218.94 190.648 218.95C191.638 218.94 192.468 218.93 193.168 218.94C199.308 200.02 217.218 187.08 237.858 187.08C263.718 187.08 284.768 207.6 284.768 232.83C284.768 236.4 284.338 239.94 283.498 243.4C312.628 268.23 318.038 288 318.658 290.66C319.758 294.1 320.618 297.52 321.218 300.84C324.098 316.74 320.908 332.39 312.238 344.9C308.918 349.7 304.778 354.18 299.928 358.23C295.668 361.77 290.898 365 285.748 367.85C267.228 378.07 246.248 381.38 226.348 383.42C225.088 383.53 223.888 383.66 222.688 383.78C221.728 383.88 220.758 383.98 219.798 384.07C217.288 384.46 214.758 384.62 212.318 384.78L211.238 384.85C209.858 384.94 208.478 385.07 207.088 385.2C205.888 385.31 204.688 385.42 203.498 385.51C199.708 385.79 195.838 385.93 191.728 385.93V385.92ZM143.328 195.34C122.028 195.34 104.688 212.15 104.688 232.82C104.688 236.49 105.238 240.12 106.328 243.63L107.148 246.27L105.018 248.04C75.0582 272.87 70.6182 292.38 70.5782 292.57L70.4682 293C69.4482 296.15 68.6582 299.28 68.1082 302.3C65.6182 316.03 68.3382 329.48 75.7482 340.18C78.6482 344.37 82.2882 348.3 86.5682 351.88C90.4082 355.07 94.7382 358.01 99.4382 360.6C116.668 370.11 136.658 373.23 155.688 375.19C161.718 375.81 166.998 376.31 171.848 376.71C184.308 377.74 193.878 377.91 202.888 377.24C204.038 377.15 205.188 377.05 206.328 376.94C207.788 376.81 209.248 376.67 210.698 376.58L211.788 376.51C214.088 376.37 216.458 376.22 218.628 375.87L218.898 375.84C219.888 375.75 220.868 375.65 221.848 375.55C223.088 375.42 224.318 375.3 225.558 375.19C244.538 373.24 264.528 370.11 281.758 360.61C286.458 358.02 290.788 355.08 294.638 351.88C298.908 348.31 302.548 344.37 305.448 340.19C312.868 329.49 315.578 316.04 313.088 302.31C312.538 299.29 311.748 296.16 310.728 293.01L310.608 292.55C310.568 292.38 306.128 272.87 276.168 248.04L274.038 246.27L274.858 243.63C275.948 240.13 276.498 236.49 276.498 232.82C276.498 212.15 259.168 195.34 237.858 195.34C219.868 195.34 204.408 207.19 200.268 224.16L199.328 228L195.558 227.26C195.118 227.22 193.518 227.18 190.638 227.22C187.658 227.18 186.048 227.22 185.618 227.26L181.848 228L180.908 224.16C176.768 207.19 161.308 195.34 143.318 195.34H143.328ZM185.728 227.23H185.708C185.708 227.23 185.718 227.23 185.728 227.23ZM195.458 227.23C195.458 227.23 195.468 227.23 195.478 227.23H195.458Z" fill="black"/>
<g style="mix-blend-mode:multiply" opacity="0.6">
<path d="M215.208 224.85C214.608 218.79 210.628 213.09 206.078 209.23C199.818 203.93 193.268 206.18 187.248 210.65C182.858 213.9 173.358 220.38 176.938 226.97C179.918 232.46 184.248 236.77 188.818 240.93C192.108 243.92 195.558 247.1 200.308 245.54C207.008 243.35 213.748 236.07 215.038 229.2C215.308 227.74 215.358 226.29 215.218 224.85H215.208Z" fill="#B2B6B5"/>
</g>
<path d="M211.208 220.64C210.608 214.58 206.628 208.88 202.078 205.02C195.818 199.72 189.268 201.97 183.248 206.44C178.858 209.69 169.358 216.17 172.938 222.76C175.908 228.25 180.248 232.56 184.818 236.71C188.108 239.7 191.558 242.88 196.318 241.32C203.018 239.13 209.758 231.85 211.038 224.98C211.308 223.52 211.358 222.07 211.218 220.63L211.208 220.64Z" fill="#908882"/>
<path d="M193.84 242.08C190.2 242.08 187.38 239.51 184.65 237.03L184.59 236.97C180.45 233.2 175.77 228.7 172.64 222.92C169.11 216.41 177.71 210.09 182.32 206.7L183.05 206.16C187.19 203.09 190.87 201.6 194.29 201.6C197.14 201.6 199.83 202.66 202.31 204.76C207.56 209.21 211.02 215.13 211.56 220.6C211.71 222.11 211.65 223.61 211.38 225.04C210.09 231.92 203.38 239.37 196.42 241.64C195.56 241.92 194.69 242.07 193.84 242.07V242.08ZM194.28 202.29C191.01 202.29 187.47 203.74 183.45 206.72L182.72 207.26C178.27 210.53 169.99 216.62 173.23 222.6C176.31 228.28 180.94 232.73 185.04 236.46L185.1 236.52C187.73 238.92 190.46 241.39 193.83 241.39C194.6 241.39 195.4 241.26 196.19 241C202.93 238.79 209.44 231.58 210.68 224.92C210.94 223.54 211 222.12 210.85 220.67C210.32 215.37 206.95 209.62 201.84 205.28C199.49 203.29 196.94 202.28 194.27 202.28L194.28 202.29Z" fill="#626262"/>
<path d="M193.839 243.26C189.739 243.26 186.619 240.41 183.859 237.9C179.579 234.01 174.819 229.42 171.599 223.48C167.579 216.06 176.709 209.35 181.619 205.74L182.349 205.2C186.699 201.98 190.609 200.41 194.289 200.41C197.419 200.41 200.379 201.57 203.069 203.85C208.549 208.49 212.159 214.71 212.739 220.48C212.899 222.1 212.839 223.71 212.539 225.26C211.179 232.52 204.109 240.37 196.789 242.77C195.809 243.09 194.819 243.25 193.849 243.25L193.839 243.26ZM194.279 203.47C191.269 203.47 187.959 204.84 184.149 207.67L183.419 208.21C179.259 211.27 171.519 216.96 174.269 222.04C177.259 227.55 181.809 231.93 185.839 235.59C188.369 237.89 190.919 240.21 193.839 240.21C194.489 240.21 195.159 240.1 195.839 239.88C202.219 237.8 208.359 230.99 209.539 224.71C209.779 223.45 209.829 222.13 209.699 220.8C209.199 215.8 205.989 210.34 201.099 206.2C198.969 204.4 196.679 203.48 194.289 203.48L194.279 203.47Z" fill="#0F0F0F"/>
<g style="mix-blend-mode:multiply" opacity="0.4">
<path d="M211.208 220.64C210.608 214.58 206.628 208.88 202.078 205.02C195.818 199.72 189.268 201.97 183.248 206.44C178.858 209.69 169.358 216.17 172.938 222.76C175.908 228.25 180.248 232.56 184.818 236.71C188.108 239.7 191.558 242.88 196.318 241.32C203.018 239.13 209.758 231.85 211.038 224.98C211.308 223.52 211.358 222.07 211.218 220.63L211.208 220.64ZM197.468 225.92C197.238 228.89 196.928 235.53 192.988 236.19C190.028 236.69 186.728 233.52 184.768 231.72C181.598 228.81 178.068 225.97 175.728 222.3C174.748 220.76 173.998 219.29 174.568 217.46C175.048 215.92 176.558 214.68 177.718 213.67C179.938 211.75 182.178 209.83 184.598 208.16C186.908 206.02 189.558 203.8 192.738 204.01C195.808 204.21 196.448 208.11 196.818 210.51C197.608 215.56 197.838 220.83 197.448 225.92H197.468Z" fill="#908882"/>
</g>
<g style="mix-blend-mode:multiply" opacity="0.4">
<path d="M174.658 220.22C174.418 219.54 174.308 218.83 174.438 218.07C173.738 217.86 173.058 217.69 172.498 217.63C172.128 218.78 172.038 219.97 172.318 221.16C173.098 220.84 173.868 220.52 174.658 220.22Z" fill="#908882"/>
</g>
<g style="mix-blend-mode:multiply" opacity="0.4">
<path d="M193.74 235.97C193.51 236.07 193.26 236.14 192.99 236.19C192.69 236.24 192.39 236.24 192.09 236.23C192.23 238.06 192.46 239.88 192.83 241.67C193.91 241.82 195.06 241.74 196.3 241.33C196.42 241.29 196.54 241.24 196.65 241.2C195.58 239.51 194.59 237.78 193.73 235.98L193.74 235.97Z" fill="#908882"/>
</g>
<g style="mix-blend-mode:multiply" opacity="0.4">
<path d="M197.449 215.84C197.709 219.2 197.719 222.59 197.469 225.91C197.349 227.53 197.189 230.25 196.439 232.49C198.589 231.41 201.019 230.67 203.049 229.7C205.799 228.38 208.379 226.76 210.989 225.19C210.999 225.12 211.029 225.05 211.039 224.98C211.309 223.52 211.359 222.07 211.219 220.63C210.619 214.57 206.639 208.87 202.089 205.01C200.019 203.26 197.919 202.33 195.809 202.04C196.569 206.2 197.629 210.23 197.519 214.56C197.509 214.98 197.489 215.41 197.469 215.83L197.449 215.84Z" fill="#908882"/>
</g>
<g style="mix-blend-mode:screen" opacity="0.4">
<path d="M195.46 205.78C196.3 207.17 196.62 209.09 196.84 210.51C197.63 215.56 197.86 220.83 197.47 225.92C197.24 228.89 196.93 235.53 192.99 236.19C192.88 236.21 192.78 236.21 192.67 236.22C193.84 236.48 195.01 236.4 196.04 235.74C199.33 233.61 199.53 228.72 199.7 225.21C199.89 221.05 200.09 216.89 199.31 212.76C198.76 209.83 198.05 206.99 195.46 205.78Z" fill="white"/>
</g>
<g style="mix-blend-mode:multiply" opacity="0.4">
<path d="M182.069 213.75C181.789 213.53 181.499 213.59 181.239 213.75C180.929 213.84 180.679 214.11 180.539 214.42C180.309 214.88 180.139 215.75 180.729 215.99C181.019 216.11 181.499 215.86 181.689 215.66C182.009 215.33 182.249 214.99 182.339 214.54C182.389 214.29 182.289 213.91 182.079 213.75H182.069Z" fill="#908882"/>
</g>
<g style="mix-blend-mode:multiply" opacity="0.4">
<path d="M183.54 216.79C183.54 216.79 183.47 216.74 183.44 216.72C183.04 216.44 182.3 217.26 182.57 217.64C182.59 217.67 182.62 217.71 182.64 217.74C183.04 218.31 184.02 217.12 183.54 216.79Z" fill="#908882"/>
</g>
<g style="mix-blend-mode:multiply" opacity="0.4">
<path d="M187.259 223.26C187.259 223.26 187.209 223.22 187.159 223.19C187.059 223.12 186.869 223.32 186.939 223.42C186.909 223.48 186.899 223.54 186.969 223.55C187.009 223.55 187.049 223.55 187.089 223.55C187.199 223.55 187.349 223.35 187.259 223.26Z" fill="#908882"/>
</g>
<g style="mix-blend-mode:multiply" opacity="0.4">
<path d="M204.529 225.87C204.529 225.87 204.469 225.87 204.439 225.88C204.439 225.88 204.439 225.88 204.429 225.88C204.409 225.88 204.399 225.9 204.389 225.9C204.369 225.9 204.359 225.92 204.349 225.93C204.349 225.93 204.339 225.93 204.329 225.94C204.309 225.96 204.289 225.99 204.269 226.01C204.269 226.02 204.269 226.03 204.249 226.04C204.239 226.06 204.229 226.08 204.229 226.11C204.229 226.11 204.229 226.12 204.229 226.13C204.229 226.17 204.229 226.2 204.289 226.22H204.309C204.309 226.22 204.389 226.22 204.419 226.19C204.569 226.16 204.739 225.84 204.529 225.84V225.87Z" fill="#908882"/>
</g>
<g style="mix-blend-mode:multiply" opacity="0.4">
<path d="M205.698 218.59C205.718 218.38 205.678 218.17 205.578 218.03C205.518 217.95 205.458 217.94 205.368 217.97C205.258 218 205.178 218.06 205.098 218.13C205.108 218.03 205.018 217.99 204.918 218.1C204.748 218.28 204.678 218.57 204.678 218.81C204.678 219.03 204.748 219.44 205.048 219.43C205.378 219.41 205.598 219.1 205.678 218.74C205.708 218.68 205.718 218.62 205.708 218.57L205.698 218.59Z" fill="#908882"/>
</g>
<g style="mix-blend-mode:multiply" opacity="0.4">
<path d="M207.048 223.23C206.968 223.04 206.738 223.3 206.698 223.4C206.438 223.67 206.648 223.99 206.928 223.68C207.048 223.55 207.128 223.41 207.058 223.24L207.048 223.23Z" fill="#908882"/>
</g>
<g style="mix-blend-mode:multiply" opacity="0.4">
<path d="M206.238 229.69C206.068 229.64 205.888 229.7 205.748 229.83C205.428 229.8 205.258 230.11 205.148 230.36C205.038 230.63 204.968 231.04 205.208 231.25C205.508 231.5 205.948 231.18 206.138 230.96C206.198 230.9 206.208 230.88 206.198 230.88C206.238 230.83 206.278 230.78 206.308 230.73C206.388 230.6 206.428 230.46 206.468 230.31C206.518 230.08 206.488 229.78 206.228 229.7L206.238 229.69Z" fill="#908882"/>
</g>
<g style="mix-blend-mode:multiply" opacity="0.4">
<path d="M198.57 237.18C198.57 237.18 198.52 237.2 198.49 237.21C198.42 237.24 198.22 237.44 198.35 237.51C198.37 237.51 198.38 237.53 198.4 237.54C198.67 237.7 198.84 237.07 198.57 237.18Z" fill="#908882"/>
</g>
<g style="mix-blend-mode:multiply" opacity="0.4">
<path d="M187.548 236.54C187.518 236.36 187.338 236.43 187.218 236.56C187.208 236.56 187.198 236.54 187.188 236.53C187.058 236.44 186.878 236.68 186.928 236.8C187.038 237.07 187.188 237.4 187.518 237.2C187.638 237.13 187.728 236.99 187.748 236.85C187.768 236.68 187.578 236.67 187.558 236.53L187.548 236.54Z" fill="#908882"/>
</g>
<g style="mix-blend-mode:multiply" opacity="0.4">
<path d="M177.649 225.88C177.649 225.88 177.639 225.83 177.619 225.81C177.529 225.63 177.389 225.48 177.189 225.43C176.969 225.38 176.759 225.67 176.779 225.86C176.779 225.96 176.819 226.05 176.869 226.12C176.869 226.41 177.039 226.73 177.329 226.79C177.449 226.82 177.579 226.7 177.629 226.6C177.739 226.4 177.739 226.11 177.639 225.87L177.649 225.88Z" fill="#908882"/>
</g>
<g style="mix-blend-mode:multiply" opacity="0.4">
<path d="M185.679 228.45C185.679 228.45 185.649 228.5 185.629 228.52C185.579 228.52 185.529 228.52 185.479 228.52C185.169 228.61 185.099 228.97 185.139 229.25C185.189 229.6 185.489 229.89 185.799 230C186.179 230.13 186.549 229.77 186.769 229.52C187.379 228.83 186.349 227.68 185.679 228.45Z" fill="#908882"/>
</g>
<g style="mix-blend-mode:multiply" opacity="0.4">
<path d="M194.279 210.33C194.049 210.33 193.889 210.46 193.769 210.63C193.749 210.63 193.729 210.64 193.709 210.65C193.379 210.8 193.189 211.41 193.459 211.68C194.439 212.67 195.009 210.32 194.279 210.32V210.33Z" fill="#908882"/>
</g>
<g style="mix-blend-mode:multiply" opacity="0.4">
<path d="M182.599 207.76C182.499 207.81 182.429 207.87 182.349 207.93C182.149 207.98 181.979 208.22 181.919 208.4C181.899 208.45 181.889 208.53 181.939 208.57C182.229 208.8 182.859 208.17 182.789 207.86C182.769 207.77 182.689 207.72 182.589 207.76H182.599Z" fill="#908882"/>
</g>
<g style="mix-blend-mode:multiply" opacity="0.4">
<path d="M177.569 219.92C177.519 219.87 177.429 219.9 177.369 219.92C177.359 219.9 177.349 219.87 177.329 219.85C177.309 219.82 177.269 219.79 177.229 219.8C176.839 219.88 176.829 220.36 177.059 220.62C177.289 220.88 177.849 220.2 177.569 219.92Z" fill="#908882"/>
</g>
<g style="mix-blend-mode:multiply" opacity="0.4">
<path d="M201.939 213.37C201.879 213.3 201.799 213.33 201.729 213.39C201.709 213.39 201.699 213.39 201.669 213.39C201.399 213.53 201.249 214.15 201.579 214.3C201.769 214.39 201.929 214.21 202.019 214.06C202.159 213.83 202.099 213.55 201.939 213.36V213.37Z" fill="#908882"/>
</g>
<g style="mix-blend-mode:multiply" opacity="0.4">
<path d="M203.308 210.54C203.308 210.54 203.258 210.5 203.238 210.49C203.168 210.35 202.908 210.57 202.938 210.71C202.968 210.82 202.978 210.84 203.078 210.88C203.208 210.92 203.448 210.63 203.308 210.55V210.54Z" fill="#908882"/>
</g>
<g style="mix-blend-mode:multiply" opacity="0.4">
<path d="M197.969 204.36C197.969 204.36 197.969 204.29 197.929 204.26C197.889 204.23 197.859 204.19 197.839 204.14C197.839 204.14 197.829 204.12 197.819 204.11C197.739 204.01 197.619 204.16 197.559 204.27C197.559 204.24 197.549 204.2 197.559 204.17C197.579 204.11 197.509 204.14 197.489 204.17C197.419 204.33 197.649 204.9 197.849 204.83C198.059 204.75 198.039 204.53 197.959 204.35L197.969 204.36Z" fill="#908882"/>
</g>
<g style="mix-blend-mode:multiply" opacity="0.4">
<path d="M208.6 216.59C208.6 216.59 208.58 216.57 208.57 216.55C208.65 216.35 208.43 216.32 208.3 216.43C208.21 216.5 208.06 216.82 208.3 216.81C208.35 216.81 208.39 216.83 208.43 216.84C208.54 216.88 208.68 216.67 208.6 216.59Z" fill="#908882"/>
</g>
<g style="mix-blend-mode:multiply" opacity="0.4">
<path d="M201.458 225.46C201.428 225.53 201.388 225.6 201.348 225.67C201.308 225.71 201.258 225.79 201.288 225.85C201.288 225.85 201.288 225.86 201.298 225.87C201.328 225.92 201.388 225.91 201.438 225.88C201.598 225.77 201.688 225.67 201.748 225.48C201.828 225.24 201.528 225.3 201.458 225.46Z" fill="#908882"/>
</g>
<g style="mix-blend-mode:multiply" opacity="0.4">
<path d="M200.388 233.43C200.388 233.43 200.388 233.37 200.358 233.35C200.008 233.1 199.768 233.99 200.248 233.73C200.328 233.69 200.438 233.51 200.378 233.42L200.388 233.43Z" fill="#908882"/>
</g>
<path d="M164.228 266.87C167.851 266.87 170.788 263.933 170.788 260.31C170.788 256.687 167.851 253.75 164.228 253.75C160.605 253.75 157.668 256.687 157.668 260.31C157.668 263.933 160.605 266.87 164.228 266.87Z" fill="black"/>
<path d="M216.298 266.87C219.921 266.87 222.858 263.933 222.858 260.31C222.858 256.687 219.921 253.75 216.298 253.75C212.675 253.75 209.738 256.687 209.738 260.31C209.738 263.933 212.675 266.87 216.298 266.87Z" fill="black"/>
<path d="M172.028 290.34C171.658 291.29 171.858 292.4 171.928 293.45C172.088 295.61 172.258 297.76 172.468 299.91C173.088 306.29 173.718 312.88 175.098 319.14C176.198 324.14 178.448 329.27 182.498 332.58C187.128 336.37 193.688 336.95 198.878 333.96C204.608 330.65 208.178 323.98 210.318 317.94C213.698 308.42 214.298 298.18 214.588 288.17C214.688 284.93 210.508 285.12 208.258 285.08C204.038 285.01 199.818 284.04 196.058 282.13C194.138 281.15 191.198 278.63 188.968 279.84C188.178 280.26 187.538 280.9 186.878 281.5C183.758 284.35 180.028 286.53 176.008 287.86C174.838 288.25 173.428 288.59 172.548 289.52C172.308 289.77 172.138 290.05 172.028 290.34Z" fill="#FF743E"/>
<path d="M169.178 289.55C168.628 291.18 168.938 292.95 169.068 294.62C169.198 296.29 169.338 297.95 169.498 299.61C169.798 302.79 170.108 305.97 170.498 309.14C171.258 315.29 172.078 321.6 174.788 327.24C177.278 332.44 181.678 336.83 187.378 338.27C190.218 338.99 193.228 338.99 196.068 338.27C198.908 337.55 201.448 336.03 203.668 334.13C207.818 330.57 210.498 325.56 212.498 320.55C214.788 314.79 215.958 308.69 216.658 302.55C217.018 299.45 217.228 296.34 217.368 293.23C217.438 291.68 217.498 290.13 217.548 288.58C217.598 287 217.078 287.88 215.998 286.69C214.398 284.93 212.608 284.79 210.358 284.72C209.288 284.69 207.628 282.13 206.558 282.05C206.208 282.02 205.858 281.99 205.508 281.95C205.418 281.95 204.868 281.87 205.248 281.92C205.628 281.97 205.078 281.89 204.988 281.88C204.208 281.76 203.428 281.6 202.658 281.41C201.978 281.24 201.298 281.05 200.628 280.83C200.298 280.72 199.958 280.61 199.628 280.48C199.468 280.42 199.298 280.36 199.138 280.29C199.018 280.24 198.888 280.19 198.768 280.14C199.028 280.25 199.058 280.26 198.868 280.18C197.768 279.66 196.738 279.09 195.688 278.46C193.148 276.92 190.078 275.71 187.268 277.39C185.928 278.19 184.868 279.39 183.668 280.37C183.538 280.48 183.408 280.58 183.278 280.68C182.658 281.19 183.588 280.47 183.188 280.75C182.918 280.94 182.658 281.14 182.378 281.33C181.798 281.73 181.208 282.12 180.608 282.48C180.008 282.84 179.388 283.19 178.758 283.51C178.458 283.66 178.168 283.81 177.868 283.95C177.718 284.02 177.568 284.09 177.418 284.16C177.168 284.27 176.938 284.37 177.328 284.21C176.108 284.72 174.828 285.06 173.598 285.54C171.928 286.18 170.188 290.57 169.478 288.83C168.858 287.33 169.018 292.07 170.538 292.87C171.828 293.55 173.908 293.32 174.578 291.81C174.648 291.66 174.708 291.53 174.788 291.39C174.708 291.52 174.448 291.7 174.788 291.44C174.268 291.83 174.848 291.41 175.068 291.3C175.168 291.25 175.268 291.21 175.358 291.16C175.718 290.97 174.868 291.33 175.258 291.21C175.568 291.12 175.878 290.99 176.188 290.9C177.578 290.45 178.938 289.93 180.278 289.34C182.838 288.2 185.158 286.7 187.348 284.96C187.838 284.57 188.308 284.17 188.778 283.76C189.018 283.54 189.258 283.32 189.498 283.1C189.618 282.99 189.738 282.88 189.858 282.78C190.258 282.41 189.638 282.88 189.928 282.72C190.028 282.66 190.138 282.59 190.228 282.52C190.768 282.13 190.148 282.62 190.078 282.54C190.048 282.51 190.418 282.47 190.428 282.44C190.318 282.67 189.758 282.44 190.178 282.48C190.228 282.48 190.538 282.49 190.548 282.49C190.498 282.54 189.808 282.32 190.318 282.47C190.568 282.55 190.818 282.61 191.068 282.7C191.578 282.87 190.968 282.69 190.928 282.64C190.958 282.69 191.228 282.78 191.308 282.82C191.558 282.95 191.808 283.08 192.048 283.22C192.528 283.49 192.988 283.78 193.458 284.07C194.638 284.79 195.888 285.35 197.168 285.87C199.908 286.99 202.798 287.6 205.738 287.9C206.868 288.01 207.998 288.04 209.128 288.06C209.508 288.06 209.888 288.07 210.278 288.1C210.488 288.11 210.698 288.13 210.908 288.15C211.138 288.17 211.368 288.29 210.598 288.1C210.728 288.13 210.858 288.14 210.988 288.17C211.168 288.2 211.338 288.24 211.508 288.29C211.608 288.32 211.698 288.35 211.798 288.38C212.228 288.49 211.538 288.28 211.498 288.24C211.598 288.34 211.858 288.45 211.988 288.51C212.138 288.58 212.498 288.95 211.708 288.3C211.778 288.36 211.838 288.42 211.898 288.49C211.288 287.78 211.588 288.05 211.678 288.22C211.878 288.62 211.558 287.89 211.558 287.89C211.558 287.93 211.638 288.15 211.648 288.17C211.718 288.55 211.538 288.02 211.618 287.85C211.548 288.02 211.618 288.41 211.618 288.61C211.608 289.02 211.588 289.43 211.578 289.84C211.478 292.77 211.348 295.7 211.108 298.62C210.998 300.04 210.858 301.45 210.698 302.86C210.658 303.22 210.608 303.59 210.568 303.95C210.508 304.43 210.628 303.51 210.568 303.98C210.548 304.12 210.528 304.25 210.508 304.39C210.398 305.16 210.278 305.93 210.148 306.7C209.658 309.54 209.018 312.35 208.168 315.1C207.778 316.35 207.348 317.59 206.868 318.81C206.758 319.08 206.648 319.36 206.538 319.63C206.408 319.94 206.588 319.85 206.578 319.54C206.578 319.62 206.478 319.78 206.448 319.85C206.188 320.43 205.928 321.01 205.648 321.58C205.118 322.67 204.528 323.73 203.898 324.76C203.598 325.24 203.288 325.72 202.958 326.18C202.808 326.4 202.648 326.61 202.498 326.82C202.178 327.26 202.498 326.84 202.548 326.76C202.458 326.91 202.308 327.06 202.198 327.2C201.448 328.12 200.628 328.99 199.738 329.78C199.548 329.95 199.348 330.12 199.148 330.28C198.718 330.64 199.188 330.28 199.228 330.23C199.158 330.32 198.968 330.42 198.878 330.49C198.368 330.86 197.848 331.2 197.298 331.51C197.058 331.64 196.818 331.77 196.578 331.89C196.418 331.97 195.648 332.45 196.228 332.06C195.768 332.36 195.018 332.49 194.498 332.62C194.208 332.69 193.908 332.76 193.618 332.82C193.558 332.83 193.178 332.89 193.178 332.9C193.178 332.88 193.928 332.83 193.298 332.88C192.698 332.93 192.108 332.97 191.508 332.96C191.208 332.96 190.908 332.94 190.608 332.92C190.458 332.91 189.718 332.8 190.108 332.87C190.528 332.95 190.048 332.85 189.948 332.84C189.798 332.81 189.658 332.78 189.508 332.75C189.178 332.68 188.848 332.6 188.528 332.51C188.238 332.43 187.948 332.34 187.668 332.24C187.558 332.2 186.818 331.9 187.178 332.06C187.538 332.22 186.808 331.88 186.708 331.83C186.368 331.66 186.038 331.48 185.708 331.28C185.478 331.14 185.248 331 185.028 330.85C184.898 330.76 184.778 330.67 184.648 330.58C184.298 330.35 185.018 330.9 184.698 330.62C184.228 330.21 183.758 329.81 183.318 329.37C182.908 328.96 182.528 328.52 182.158 328.07C181.808 327.66 182.128 328.04 182.188 328.12C182.098 327.99 181.998 327.87 181.908 327.75C181.708 327.47 181.508 327.18 181.318 326.88C180.658 325.86 180.108 324.79 179.608 323.69C179.378 323.19 179.588 323.66 179.628 323.75C179.558 323.61 179.508 323.46 179.448 323.31C179.338 323.02 179.218 322.73 179.118 322.43C178.908 321.84 178.718 321.25 178.538 320.65C177.748 317.94 177.278 315.12 176.848 312.34C176.798 312.01 176.748 311.69 176.708 311.36C176.678 311.17 176.658 310.99 176.628 310.8C176.618 310.72 176.538 310.14 176.588 310.49C176.638 310.84 176.558 310.26 176.548 310.18C176.528 310.04 176.508 309.9 176.498 309.76C176.438 309.29 176.378 308.82 176.328 308.36C176.158 306.91 175.998 305.46 175.858 304.01C175.548 301 175.258 297.99 175.028 294.97C174.968 294.22 174.908 293.46 174.848 292.71C174.818 292.36 174.808 292 174.798 291.65C174.798 291.6 174.838 291.17 174.798 291.53C174.738 291.97 174.918 291.19 174.918 291.18C175.418 289.72 174.348 287.89 172.858 287.55C171.218 287.18 169.758 288.04 169.228 289.61L169.178 289.55Z" fill="black"/>
<path d="M231.667 285.86C231.357 284.26 229.807 283.21 228.217 283.51C228.007 283.55 207.527 287.24 193.837 275.41C193.397 275.03 192.877 274.8 192.337 274.73V274.7C192.257 274.7 192.167 274.71 192.087 274.72C192.007 274.72 191.917 274.7 191.837 274.7V274.73C191.297 274.81 190.777 275.03 190.337 275.41C176.657 287.25 156.167 283.56 155.957 283.51C154.367 283.21 152.807 284.26 152.507 285.86C152.197 287.46 153.247 289.01 154.857 289.32C155.147 289.38 157.467 289.8 161.007 289.97C168.227 290.31 180.497 289.57 190.907 282.42C191.617 281.93 192.547 281.93 193.267 282.42C203.687 289.57 215.957 290.31 223.167 289.97C226.707 289.8 229.027 289.38 229.317 289.32C230.917 289.01 231.967 287.47 231.667 285.86Z" fill="black"/>
</g>
<defs>
<clipPath id="clip0_873_564">
<rect width="380.54" height="573" fill="white" transform="translate(0.328125)"/>
</clipPath>
</defs>
</svg>
