<svg width="382" height="573" viewBox="0 0 382 573" fill="none" xmlns="http://www.w3.org/2000/svg">
<g clip-path="url(#clip0_873_1439)">
<path d="M359.01 0H23.0102C10.7109 0 0.740234 9.97062 0.740234 22.27V550.73C0.740234 563.029 10.7109 573 23.0102 573H359.01C371.31 573 381.28 563.029 381.28 550.73V22.27C381.28 9.97062 371.31 0 359.01 0Z" fill="#FFBA35"/>
<path d="M319.971 95.66C338.748 95.66 353.971 80.4377 353.971 61.66C353.971 42.8823 338.748 27.66 319.971 27.66C301.193 27.66 285.971 42.8823 285.971 61.66C285.971 80.4377 301.193 95.66 319.971 95.66Z" fill="white"/>
<path d="M324.52 62.5654C324.52 63.3882 324.581 64.3562 324.702 65.4694C324.823 66.5584 325.065 67.6111 325.428 68.6275C325.767 69.6923 326.214 70.5877 326.771 71.3137C327.352 72.0155 328.09 72.3664 328.985 72.3664C329.905 72.3664 330.655 72.0034 331.236 71.2774C331.817 70.5272 332.276 69.6439 332.615 68.6275C332.93 67.6111 333.148 66.5463 333.269 65.4331C333.414 64.2957 333.486 63.3398 333.486 62.5654C333.486 61.8394 333.414 60.9682 333.269 59.9518C333.123 58.9354 332.869 57.9311 332.506 56.9389C332.167 55.9951 331.708 55.1844 331.127 54.5068C330.546 53.805 329.832 53.4299 328.985 53.3815C328.09 53.3331 327.352 53.6356 326.771 54.289C326.19 54.9424 325.742 55.741 325.428 56.6848C325.065 57.6528 324.823 58.6813 324.702 59.7703C324.581 60.8593 324.52 61.791 324.52 62.5654ZM329.058 78.4285C326.977 78.4285 325.186 77.9687 323.685 77.0491C322.185 76.1295 320.939 74.9316 319.946 73.4554C318.93 72.0034 318.168 70.3336 317.66 68.446C317.176 66.5342 316.934 64.5982 316.934 62.638C316.934 60.7746 317.163 58.9475 317.623 57.1567C318.107 55.3417 318.845 53.7082 319.838 52.2562C320.83 50.8284 322.088 49.6789 323.613 48.8077C325.137 47.9123 326.952 47.4646 329.058 47.4646C331.091 47.4646 332.845 47.9002 334.321 48.7714C335.822 49.6184 337.08 50.7437 338.096 52.1473C339.089 53.5993 339.827 55.2328 340.311 57.0478C340.795 58.8386 341.037 60.702 341.037 62.638C341.037 64.4288 340.807 66.268 340.347 68.1556C339.911 70.019 339.222 71.7009 338.278 73.2013C337.286 74.7501 336.027 76.0085 334.503 76.9765C332.978 77.9445 331.163 78.4285 329.058 78.4285Z" fill="#FFBA35"/>
<path d="M312.767 48.3721V77.4847H305.798V56.9026H301.188V53.3815C301.962 53.0185 302.664 52.6434 303.293 52.2562C303.85 51.9174 304.382 51.506 304.89 51.022C305.423 50.538 305.834 50.0056 306.124 49.4248C306.294 48.965 306.608 48.6867 307.068 48.5899C307.528 48.4689 308.109 48.3963 308.811 48.3721H312.767Z" fill="#FFBA35"/>
<path d="M102.83 487.151C102.83 489.18 102.98 491.566 103.278 494.311C103.576 496.996 104.173 499.592 105.068 502.098C105.903 504.723 107.007 506.931 108.38 508.721C109.812 510.451 111.631 511.316 113.839 511.316C116.106 511.316 117.956 510.421 119.388 508.631C120.82 506.781 121.954 504.604 122.789 502.098C123.565 499.592 124.102 496.966 124.4 494.222C124.758 491.417 124.937 489.06 124.937 487.151C124.937 485.361 124.758 483.213 124.4 480.707C124.042 478.201 123.416 475.725 122.521 473.279C121.685 470.952 120.551 468.953 119.119 467.282C117.688 465.552 115.927 464.627 113.839 464.508C111.631 464.388 109.812 465.134 108.38 466.745C106.948 468.356 105.844 470.325 105.068 472.652C104.173 475.039 103.576 477.575 103.278 480.26C102.98 482.945 102.83 485.242 102.83 487.151ZM114.018 526.263C108.887 526.263 104.471 525.129 100.772 522.862C97.0727 520.594 93.9998 517.641 91.5535 514.001C89.0475 510.421 87.168 506.304 85.915 501.65C84.7217 496.936 84.125 492.163 84.125 487.33C84.125 482.736 84.6918 478.231 85.8255 473.816C87.0188 469.341 88.8387 465.313 91.285 461.733C93.7313 458.213 96.834 455.379 100.593 453.231C104.352 451.023 108.827 449.919 114.018 449.919C119.03 449.919 123.356 450.993 126.995 453.141C130.695 455.229 133.798 458.004 136.304 461.465C138.75 465.045 140.57 469.072 141.763 473.547C142.956 477.962 143.553 482.557 143.553 487.33C143.553 491.745 142.986 496.28 141.853 500.934C140.778 505.528 139.078 509.675 136.751 513.375C134.305 517.193 131.202 520.296 127.443 522.683C123.684 525.069 119.209 526.263 114.018 526.263Z" fill="white"/>
<path d="M73.8532 452.156V523.935H56.6692V473.189H45.3027V464.507C47.2121 463.612 48.9424 462.688 50.4937 461.733C51.8661 460.898 53.1787 459.883 54.4317 458.69C55.7444 457.497 56.7587 456.184 57.4747 454.752C57.8924 453.618 58.6681 452.932 59.8017 452.693C60.9354 452.395 62.3674 452.216 64.0977 452.156H73.8532Z" fill="white"/>
<path d="M268.08 362.34L124.74 348.87V303.78H269.6L268.08 362.34Z" fill="#98CA51"/>
<path d="M121.322 310.65C118.092 309.38 118.042 309.93 114.972 308.23C110.922 305.99 107.062 303.41 103.522 300.47C99.8115 297.37 96.4715 293.83 93.7315 289.87C86.6315 279.63 84.5015 267.28 86.6915 255.19C87.2015 252.37 87.9215 249.59 88.8015 246.87C88.8015 246.87 92.2815 229.46 119.152 207.18C118.152 203.95 117.612 200.54 117.612 197C117.612 177.54 133.822 161.77 153.822 161.77C170.932 161.77 185.252 173.32 189.042 188.83C189.652 188.71 192.642 188.73 193.832 188.75C195.032 188.74 198.022 188.71 198.622 188.83C202.412 173.31 216.732 161.77 233.842 161.77C253.842 161.77 270.052 177.54 270.052 197C270.052 200.54 269.512 203.96 268.512 207.18C295.392 229.45 298.862 246.87 298.862 246.87C299.742 249.6 300.462 252.38 300.972 255.19C303.162 267.28 301.032 279.63 293.932 289.87C291.192 293.82 287.852 297.36 284.142 300.47C282.492 301.85 280.752 303.11 278.992 304.34C276.162 306.33 273.402 308.42 270.542 310.36L265.862 312.65" fill="#98CA51"/>
<path d="M265.861 316.15C264.571 316.15 263.321 315.43 262.711 314.19C261.861 312.45 262.581 310.36 264.311 309.51L268.771 307.33C270.381 306.24 271.991 305.06 273.561 303.93C274.691 303.11 275.821 302.29 276.971 301.49C278.861 300.16 280.421 299.02 281.891 297.79C285.511 294.76 288.591 291.43 291.051 287.89C297.331 278.83 299.631 267.44 297.521 255.82C297.061 253.26 296.391 250.61 295.531 247.94L295.431 247.55C295.401 247.41 291.641 230.89 266.281 209.87L264.481 208.38L265.171 206.14C266.091 203.17 266.561 200.1 266.561 196.99C266.561 179.49 251.891 165.26 233.851 165.26C218.621 165.26 205.541 175.29 202.031 189.65L201.241 192.9L198.051 192.27C197.681 192.24 196.321 192.2 193.881 192.24C191.361 192.21 190.001 192.24 189.631 192.27L186.441 192.9L185.651 189.65C182.151 175.29 169.061 165.26 153.831 165.26C135.801 165.26 121.121 179.49 121.121 196.99C121.121 200.09 121.591 203.17 122.511 206.14L123.201 208.38L121.401 209.87C96.0408 230.89 92.2808 247.4 92.2408 247.57L92.1408 247.94C91.2808 250.61 90.6108 253.26 90.1508 255.81C88.0508 267.43 90.3408 278.82 96.6208 287.88C99.0808 291.42 102.161 294.76 105.781 297.79C109.031 300.49 112.701 302.98 116.671 305.17C118.161 305.99 118.641 306.13 119.521 306.37C120.251 306.57 121.151 306.82 122.611 307.4C124.411 308.11 125.291 310.14 124.581 311.94C123.871 313.74 121.841 314.62 120.041 313.91C118.921 313.47 118.271 313.29 117.641 313.11C116.341 312.75 115.331 312.43 113.281 311.29C108.921 308.88 104.891 306.15 101.291 303.16C97.1808 299.72 93.6708 295.92 90.8608 291.86C83.5208 281.27 80.8208 268.02 83.2508 254.56C83.7608 251.75 84.4908 248.85 85.4208 245.94C85.9408 243.69 90.5308 226.95 115.181 205.94C114.471 203.01 114.111 200.01 114.111 196.99C114.111 175.63 131.921 158.26 153.821 158.26C171.301 158.26 186.461 169.21 191.651 185.23C192.261 185.23 192.991 185.23 193.871 185.24C194.711 185.24 195.411 185.22 196.011 185.23C201.211 169.21 216.371 158.26 233.841 158.26C255.731 158.26 273.551 175.63 273.551 196.99C273.551 200.01 273.191 203.01 272.481 205.94C297.141 226.96 301.721 243.7 302.241 245.94C303.171 248.85 303.901 251.75 304.411 254.56C306.851 268.02 304.151 281.27 296.801 291.86C293.991 295.92 290.481 299.72 286.381 303.15C284.731 304.53 283.031 305.77 281.001 307.2C279.891 307.98 278.781 308.78 277.681 309.58C276.001 310.8 274.271 312.05 272.501 313.25L272.081 313.49L267.401 315.78C266.901 316.02 266.381 316.14 265.861 316.14V316.15ZM197.951 192.26C197.951 192.26 197.951 192.26 197.961 192.26H197.951ZM189.711 192.26H189.701C189.701 192.26 189.701 192.26 189.711 192.26Z" fill="black"/>
<path d="M120.952 344.87C119.472 364.59 121.522 384.55 121.522 384.55L115.602 391.14C112.342 394.77 114.482 400.57 119.312 401.21C143.752 404.41 194.852 393.59 194.852 393.59C194.852 393.59 247.732 404.79 271.632 401.03C275.922 400.36 277.732 395.18 274.842 391.96L268.192 384.55C268.192 384.55 268.592 369.14 268.302 355.61V346.91L268.712 337.8" fill="#98CA51"/>
<path d="M129.962 405.3C125.922 405.3 122.172 405.11 118.862 404.68C115.332 404.22 112.382 401.86 111.142 398.52C109.902 395.18 110.612 391.45 112.992 388.8L117.882 383.35C117.432 378.23 116.182 361.47 117.452 344.6C117.592 342.67 119.272 341.23 121.202 341.37C123.132 341.51 124.572 343.19 124.432 345.12C122.992 364.29 124.972 383.99 124.992 384.18L125.152 385.72L118.202 393.47C117.262 394.51 117.542 395.64 117.702 396.08C117.862 396.51 118.382 397.55 119.762 397.73C143.322 400.82 193.622 390.26 194.122 390.15L194.842 390L195.572 390.15C196.092 390.26 248.102 401.18 271.082 397.56C272.112 397.4 272.502 396.61 272.622 396.28C272.742 395.94 272.942 395.08 272.232 394.28L264.652 385.84L264.692 384.45C264.692 384.3 265.092 368.97 264.802 355.68V346.82L265.222 337.63C265.312 335.7 266.942 334.2 268.872 334.29C270.802 334.38 272.302 336.01 272.212 337.94L271.802 346.97V355.59C272.042 366.63 271.812 379.11 271.722 383.22L277.442 389.6C279.642 392.05 280.322 395.51 279.222 398.62C278.122 401.72 275.422 403.96 272.172 404.47C249.172 408.09 201.572 398.54 194.842 397.14C189.182 398.31 154.482 405.28 129.952 405.28L129.962 405.3Z" fill="black"/>
<g style="mix-blend-mode:multiply" opacity="0.6">
<path d="M214.691 190.24C214.181 185.11 210.811 180.29 206.961 177.02C201.661 172.53 196.121 174.44 191.021 178.22C187.311 180.97 179.261 186.45 182.291 192.03C184.811 196.68 188.481 200.32 192.351 203.84C195.131 206.37 198.051 209.06 202.081 207.74C207.751 205.88 213.451 199.73 214.551 193.91C214.781 192.68 214.821 191.45 214.701 190.23L214.691 190.24Z" fill="#B2B6B5"/>
</g>
<path d="M211.301 186.68C210.791 181.55 207.421 176.73 203.571 173.46C198.271 168.97 192.731 170.88 187.631 174.66C183.911 177.41 175.871 182.89 178.901 188.48C181.421 193.13 185.091 196.77 188.961 200.29C191.741 202.82 194.661 205.51 198.691 204.19C204.361 202.33 210.061 196.18 211.151 190.36C211.381 189.13 211.421 187.9 211.301 186.68Z" fill="#908882"/>
<path d="M196.592 204.83C193.512 204.83 191.122 202.65 188.812 200.55L188.762 200.5C185.252 197.31 181.292 193.5 178.642 188.61C175.652 183.1 182.932 177.75 186.842 174.88L187.462 174.43C190.972 171.83 194.082 170.57 196.972 170.57C199.382 170.57 201.662 171.47 203.762 173.25C208.202 177.02 211.132 182.03 211.592 186.66C211.722 187.94 211.672 189.2 211.442 190.42C210.352 196.24 204.672 202.55 198.782 204.47C198.052 204.71 197.312 204.83 196.602 204.83H196.592ZM196.962 171.15C194.192 171.15 191.192 172.38 187.792 174.9L187.172 175.35C183.402 178.12 176.392 183.27 179.142 188.34C181.742 193.15 185.672 196.92 189.142 200.08L189.192 200.13C191.422 202.16 193.722 204.26 196.582 204.26C197.232 204.26 197.912 204.15 198.582 203.93C204.292 202.06 209.792 195.96 210.852 190.32C211.072 189.16 211.122 187.95 211.002 186.72C210.552 182.23 207.702 177.36 203.372 173.69C201.382 172 199.232 171.15 196.962 171.15Z" fill="#626262"/>
<path d="M196.591 205.83C193.121 205.83 190.471 203.42 188.141 201.3C184.521 198 180.481 194.12 177.761 189.1C174.361 182.82 182.091 177.14 186.241 174.08L186.861 173.63C190.541 170.9 193.851 169.57 196.971 169.57C199.621 169.57 202.121 170.55 204.401 172.48C209.041 176.41 212.101 181.67 212.581 186.56C212.721 187.93 212.661 189.29 212.411 190.6C211.261 196.74 205.281 203.39 199.081 205.42C198.251 205.69 197.411 205.83 196.591 205.83ZM196.961 172.15C194.411 172.15 191.611 173.31 188.391 175.7L187.771 176.16C184.251 178.75 177.701 183.57 180.031 187.87C182.561 192.54 186.411 196.24 189.821 199.34C191.961 201.29 194.121 203.25 196.591 203.25C197.141 203.25 197.711 203.16 198.281 202.97C203.681 201.2 208.881 195.44 209.881 190.13C210.081 189.06 210.131 187.95 210.011 186.82C209.591 182.58 206.871 177.96 202.731 174.46C200.931 172.93 198.991 172.16 196.961 172.16V172.15Z" fill="#0F0F0F"/>
<g style="mix-blend-mode:multiply" opacity="0.4">
<path d="M211.301 186.68C210.791 181.55 207.421 176.73 203.571 173.46C198.271 168.97 192.731 170.88 187.631 174.66C183.911 177.41 175.871 182.89 178.901 188.48C181.421 193.13 185.091 196.77 188.961 200.29C191.741 202.82 194.661 205.51 198.691 204.19C204.361 202.33 210.061 196.18 211.151 190.36C211.381 189.13 211.421 187.9 211.301 186.68ZM199.671 191.15C199.481 193.67 199.211 199.28 195.881 199.84C193.381 200.26 190.581 197.58 188.931 196.06C186.241 193.6 183.261 191.19 181.281 188.09C180.451 186.78 179.811 185.54 180.301 183.99C180.711 182.69 181.981 181.64 182.971 180.78C184.851 179.16 186.751 177.53 188.791 176.12C190.741 174.31 192.991 172.43 195.681 172.61C198.281 172.78 198.821 176.08 199.141 178.11C199.811 182.38 200.001 186.85 199.671 191.16V191.15Z" fill="#908882"/>
</g>
<g style="mix-blend-mode:multiply" opacity="0.4">
<path d="M180.361 186.33C180.161 185.75 180.071 185.16 180.171 184.51C179.581 184.33 179.001 184.19 178.531 184.14C178.211 185.12 178.141 186.12 178.381 187.13C179.041 186.86 179.701 186.59 180.361 186.33Z" fill="#908882"/>
</g>
<g style="mix-blend-mode:multiply" opacity="0.4">
<path d="M196.511 199.65C196.311 199.73 196.101 199.8 195.881 199.83C195.631 199.87 195.381 199.88 195.121 199.86C195.241 201.41 195.431 202.95 195.751 204.46C196.661 204.59 197.641 204.52 198.681 204.18C198.781 204.15 198.881 204.1 198.981 204.07C198.081 202.64 197.231 201.17 196.511 199.65Z" fill="#908882"/>
</g>
<g style="mix-blend-mode:multiply" opacity="0.4">
<path d="M199.662 182.62C199.882 185.46 199.892 188.34 199.672 191.15C199.562 192.52 199.432 194.82 198.802 196.72C200.622 195.8 202.672 195.18 204.392 194.36C206.722 193.25 208.902 191.88 211.112 190.54C211.122 190.48 211.142 190.42 211.152 190.37C211.382 189.14 211.422 187.91 211.302 186.69C210.792 181.56 207.422 176.74 203.572 173.47C201.822 171.98 200.042 171.2 198.252 170.95C198.902 174.47 199.792 177.88 199.692 181.55C199.692 181.91 199.662 182.27 199.652 182.62H199.662Z" fill="#908882"/>
</g>
<g style="mix-blend-mode:screen" opacity="0.4">
<path d="M197.971 174.1C198.681 175.28 198.951 176.9 199.141 178.1C199.811 182.37 200.001 186.84 199.671 191.15C199.481 193.67 199.211 199.28 195.881 199.84C195.791 199.86 195.701 199.86 195.611 199.86C196.601 200.08 197.591 200.02 198.461 199.45C201.251 197.65 201.421 193.5 201.561 190.54C201.721 187.02 201.891 183.5 201.231 180C200.761 177.52 200.161 175.12 197.971 174.09V174.1Z" fill="white"/>
</g>
<g style="mix-blend-mode:multiply" opacity="0.4">
<path d="M186.641 180.85C186.411 180.67 186.161 180.72 185.941 180.85C185.681 180.93 185.471 181.16 185.341 181.41C185.151 181.8 185.001 182.53 185.501 182.74C185.751 182.84 186.151 182.63 186.321 182.46C186.591 182.18 186.791 181.9 186.871 181.51C186.911 181.3 186.821 180.98 186.651 180.84L186.641 180.85Z" fill="#908882"/>
</g>
<g style="mix-blend-mode:multiply" opacity="0.4">
<path d="M187.881 183.42C187.881 183.42 187.821 183.38 187.801 183.36C187.461 183.12 186.831 183.81 187.061 184.14C187.081 184.17 187.101 184.2 187.121 184.23C187.461 184.71 188.291 183.71 187.891 183.43L187.881 183.42Z" fill="#908882"/>
</g>
<g style="mix-blend-mode:multiply" opacity="0.4">
<path d="M191.03 188.89C191.03 188.89 190.99 188.85 190.95 188.83C190.87 188.77 190.71 188.94 190.76 189.02C190.73 189.07 190.73 189.12 190.79 189.13C190.82 189.13 190.85 189.13 190.89 189.13C190.98 189.13 191.11 188.96 191.03 188.89Z" fill="#908882"/>
</g>
<g style="mix-blend-mode:multiply" opacity="0.4">
<path d="M205.65 191.11C205.65 191.11 205.6 191.11 205.57 191.12C205.56 191.12 205.54 191.13 205.53 191.14C205.52 191.14 205.51 191.15 205.49 191.17C205.49 191.17 205.49 191.17 205.48 191.17C205.46 191.18 205.45 191.21 205.43 191.23C205.43 191.23 205.43 191.25 205.42 191.26C205.42 191.28 205.4 191.3 205.4 191.32C205.4 191.32 205.4 191.33 205.4 191.34C205.4 191.37 205.4 191.4 205.45 191.42H205.47C205.47 191.42 205.53 191.42 205.56 191.39C205.69 191.37 205.83 191.1 205.65 191.1V191.11Z" fill="#908882"/>
</g>
<g style="mix-blend-mode:multiply" opacity="0.4">
<path d="M206.63 184.94C206.65 184.76 206.62 184.59 206.53 184.47C206.48 184.41 206.43 184.4 206.35 184.42C206.26 184.45 206.19 184.5 206.12 184.56C206.13 184.48 206.05 184.44 205.96 184.53C205.81 184.68 205.75 184.93 205.75 185.13C205.75 185.32 205.81 185.67 206.07 185.66C206.35 185.65 206.54 185.38 206.6 185.08C206.62 185.03 206.63 184.98 206.62 184.94H206.63Z" fill="#908882"/>
</g>
<g style="mix-blend-mode:multiply" opacity="0.4">
<path d="M207.781 188.87C207.721 188.71 207.521 188.93 207.481 189.01C207.261 189.24 207.431 189.51 207.671 189.24C207.771 189.13 207.841 189.01 207.781 188.86V188.87Z" fill="#908882"/>
</g>
<g style="mix-blend-mode:multiply" opacity="0.4">
<path d="M207.092 194.34C206.942 194.3 206.802 194.34 206.672 194.46C206.402 194.44 206.252 194.7 206.172 194.91C206.082 195.14 206.012 195.49 206.222 195.66C206.472 195.88 206.842 195.6 207.012 195.41C207.062 195.36 207.072 195.34 207.062 195.35C207.102 195.31 207.132 195.27 207.162 195.22C207.232 195.11 207.262 194.99 207.292 194.86C207.342 194.67 207.302 194.41 207.092 194.34Z" fill="#908882"/>
</g>
<g style="mix-blend-mode:multiply" opacity="0.4">
<path d="M200.601 200.68C200.601 200.68 200.561 200.7 200.531 200.71C200.471 200.73 200.301 200.91 200.411 200.97C200.421 200.97 200.441 200.99 200.451 200.99C200.681 201.12 200.821 200.59 200.591 200.68H200.601Z" fill="#908882"/>
</g>
<g style="mix-blend-mode:multiply" opacity="0.4">
<path d="M191.271 200.14C191.251 199.99 191.091 200.04 190.991 200.16C190.991 200.16 190.971 200.14 190.961 200.14C190.851 200.07 190.701 200.27 190.741 200.37C190.831 200.6 190.961 200.88 191.241 200.71C191.341 200.65 191.421 200.53 191.431 200.42C191.451 200.27 191.281 200.26 191.271 200.15V200.14Z" fill="#908882"/>
</g>
<g style="mix-blend-mode:multiply" opacity="0.4">
<path d="M182.891 191.11C182.891 191.11 182.891 191.07 182.861 191.05C182.791 190.89 182.661 190.77 182.501 190.73C182.321 190.69 182.141 190.93 182.151 191.1C182.151 191.19 182.191 191.26 182.231 191.32C182.231 191.57 182.381 191.83 182.621 191.89C182.731 191.91 182.831 191.82 182.881 191.73C182.971 191.56 182.971 191.32 182.891 191.11Z" fill="#908882"/>
</g>
<g style="mix-blend-mode:multiply" opacity="0.4">
<path d="M189.692 193.29C189.692 193.29 189.662 193.33 189.652 193.35C189.612 193.35 189.562 193.35 189.522 193.35C189.262 193.43 189.202 193.73 189.232 193.97C189.272 194.26 189.522 194.51 189.792 194.6C190.112 194.71 190.422 194.41 190.612 194.19C191.132 193.61 190.252 192.63 189.682 193.28L189.692 193.29Z" fill="#908882"/>
</g>
<g style="mix-blend-mode:multiply" opacity="0.4">
<path d="M196.97 177.95C196.78 177.95 196.64 178.06 196.54 178.21C196.52 178.21 196.5 178.21 196.49 178.23C196.21 178.36 196.05 178.87 196.28 179.11C197.11 179.95 197.59 177.96 196.97 177.96V177.95Z" fill="#908882"/>
</g>
<g style="mix-blend-mode:multiply" opacity="0.4">
<path d="M187.081 175.78C187.001 175.82 186.931 175.87 186.871 175.92C186.701 175.96 186.561 176.17 186.511 176.32C186.501 176.36 186.491 176.43 186.531 176.46C186.781 176.66 187.311 176.12 187.251 175.86C187.231 175.78 187.161 175.74 187.081 175.78Z" fill="#908882"/>
</g>
<g style="mix-blend-mode:multiply" opacity="0.4">
<path d="M182.83 186.07C182.83 186.07 182.71 186.05 182.66 186.07C182.65 186.05 182.64 186.03 182.63 186.01C182.61 185.98 182.58 185.96 182.54 185.97C182.21 186.04 182.2 186.45 182.39 186.66C182.59 186.88 183.06 186.3 182.82 186.07H182.83Z" fill="#908882"/>
</g>
<g style="mix-blend-mode:multiply" opacity="0.4">
<path d="M203.451 180.52C203.401 180.46 203.331 180.49 203.271 180.54C203.261 180.54 203.241 180.54 203.221 180.54C202.991 180.66 202.871 181.18 203.141 181.31C203.301 181.38 203.431 181.23 203.511 181.1C203.631 180.91 203.581 180.67 203.441 180.5L203.451 180.52Z" fill="#908882"/>
</g>
<g style="mix-blend-mode:multiply" opacity="0.4">
<path d="M204.612 178.13C204.612 178.13 204.572 178.1 204.552 178.08C204.492 177.96 204.272 178.15 204.302 178.26C204.322 178.35 204.332 178.37 204.422 178.4C204.532 178.44 204.732 178.19 204.612 178.12V178.13Z" fill="#908882"/>
</g>
<g style="mix-blend-mode:multiply" opacity="0.4">
<path d="M200.091 172.9C200.091 172.9 200.091 172.84 200.061 172.82C200.021 172.8 200.001 172.76 199.991 172.72C199.991 172.72 199.981 172.7 199.971 172.7C199.901 172.62 199.801 172.74 199.751 172.84C199.751 172.81 199.741 172.78 199.751 172.76C199.771 172.71 199.701 172.73 199.691 172.76C199.631 172.89 199.821 173.38 200.001 173.32C200.181 173.26 200.161 173.07 200.101 172.91L200.091 172.9Z" fill="#908882"/>
</g>
<g style="mix-blend-mode:multiply" opacity="0.4">
<path d="M209.091 183.24C209.091 183.24 209.071 183.22 209.061 183.21C209.121 183.04 208.941 183.02 208.831 183.11C208.761 183.17 208.631 183.44 208.831 183.43C208.871 183.43 208.911 183.44 208.941 183.46C209.031 183.49 209.151 183.32 209.091 183.25V183.24Z" fill="#908882"/>
</g>
<g style="mix-blend-mode:multiply" opacity="0.4">
<path d="M203.052 190.76C203.022 190.82 202.992 190.88 202.962 190.94C202.932 190.98 202.882 191.04 202.912 191.09C202.912 191.09 202.912 191.09 202.912 191.1C202.932 191.14 202.992 191.14 203.032 191.11C203.162 191.01 203.242 190.94 203.292 190.77C203.362 190.56 203.112 190.62 203.052 190.75V190.76Z" fill="#908882"/>
</g>
<g style="mix-blend-mode:multiply" opacity="0.4">
<path d="M202.141 197.5C202.141 197.5 202.141 197.45 202.121 197.44C201.821 197.23 201.621 197.98 202.031 197.76C202.091 197.73 202.191 197.58 202.141 197.5Z" fill="#908882"/>
</g>
<path d="M236.482 396.26C244.272 387.85 249.012 376.87 249.012 364.84C249.012 338.42 226.252 317.01 198.182 317.01C170.112 317.01 147.352 338.43 147.352 364.84C147.352 376.62 151.892 387.41 159.402 395.74C178.582 393.39 195.732 389.88 195.732 389.88C195.732 389.88 215.612 393.95 236.502 396.26H236.482Z" fill="white"/>
<path d="M180.262 243.37C179.942 244.17 180.112 245.12 180.182 246C180.312 247.82 180.462 249.65 180.642 251.47C181.162 256.87 181.692 262.45 182.862 267.75C183.792 271.98 185.702 276.32 189.122 279.13C193.042 282.34 198.592 282.83 202.992 280.29C207.842 277.49 210.862 271.84 212.682 266.73C215.542 258.67 216.052 250 216.302 241.53C216.382 238.78 212.852 238.95 210.942 238.91C207.372 238.85 203.802 238.03 200.612 236.41C198.992 235.58 196.502 233.45 194.612 234.47C193.952 234.83 193.402 235.37 192.842 235.88C190.202 238.29 187.042 240.14 183.642 241.26C182.652 241.59 181.462 241.88 180.712 242.66C180.502 242.87 180.362 243.11 180.272 243.36L180.262 243.37Z" fill="#FF743E"/>
<path d="M177.851 242.7C177.381 244.08 177.641 245.57 177.751 246.99C177.861 248.4 177.981 249.81 178.111 251.22C178.371 253.91 178.631 256.6 178.961 259.29C179.601 264.5 180.301 269.83 182.591 274.62C184.701 279.02 188.421 282.73 193.251 283.95C195.651 284.56 198.201 284.56 200.611 283.95C203.021 283.34 205.161 282.05 207.041 280.44C210.551 277.43 212.821 273.18 214.511 268.94C216.451 264.07 217.441 258.9 218.041 253.71C218.341 251.09 218.521 248.45 218.641 245.82C218.701 244.51 218.751 243.19 218.791 241.88C218.831 240.57 218.401 241.29 217.481 240.28C216.131 238.79 214.611 238.67 212.701 238.61C211.801 238.58 210.391 236.42 209.491 236.35C209.191 236.33 208.901 236.3 208.601 236.27C208.531 236.27 208.061 236.2 208.381 236.25C208.701 236.3 208.231 236.23 208.161 236.22C207.501 236.12 206.841 235.99 206.191 235.83C205.611 235.69 205.041 235.53 204.471 235.34C204.191 235.25 203.911 235.15 203.631 235.05C203.491 235 203.351 234.95 203.211 234.89C203.111 234.85 203.001 234.81 202.901 234.77C203.121 234.86 203.151 234.88 202.981 234.8C202.051 234.36 201.171 233.88 200.291 233.34C198.141 232.04 195.541 231.01 193.171 232.43C192.041 233.11 191.131 234.12 190.121 234.96C190.011 235.05 189.901 235.14 189.791 235.23C189.271 235.66 190.051 235.05 189.711 235.29C189.481 235.45 189.261 235.62 189.031 235.78C188.541 236.12 188.041 236.45 187.531 236.76C187.021 237.07 186.501 237.36 185.971 237.63C185.721 237.76 185.471 237.88 185.211 238C185.081 238.06 184.961 238.12 184.831 238.18C184.621 238.27 184.421 238.36 184.751 238.22C183.711 238.65 182.631 238.94 181.591 239.34C180.181 239.88 178.711 243.59 178.111 242.13C177.591 240.86 177.721 244.87 179.011 245.55C180.101 246.13 181.861 245.93 182.431 244.65C182.491 244.52 182.541 244.41 182.611 244.29C182.541 244.4 182.321 244.55 182.611 244.33C182.171 244.66 182.661 244.31 182.851 244.21C182.931 244.17 183.021 244.13 183.101 244.09C183.411 243.93 182.681 244.23 183.021 244.13C183.281 244.05 183.541 243.95 183.811 243.86C184.991 243.48 186.141 243.04 187.271 242.54C189.441 241.58 191.401 240.3 193.261 238.84C193.671 238.51 194.081 238.17 194.471 237.82C194.681 237.64 194.881 237.44 195.081 237.26C195.181 237.17 195.291 237.08 195.391 236.99C195.731 236.68 195.211 237.08 195.451 236.94C195.541 236.89 195.631 236.83 195.711 236.77C196.171 236.44 195.641 236.85 195.581 236.79C195.551 236.76 195.861 236.73 195.881 236.7C195.791 236.89 195.311 236.7 195.671 236.74C195.711 236.74 195.981 236.75 195.981 236.74C195.941 236.79 195.351 236.59 195.791 236.72C196.001 236.78 196.221 236.84 196.431 236.91C196.861 237.06 196.341 236.91 196.311 236.86C196.341 236.9 196.561 236.98 196.631 237.01C196.841 237.12 197.051 237.23 197.261 237.35C197.661 237.58 198.051 237.83 198.451 238.07C199.451 238.68 200.511 239.15 201.591 239.6C203.911 240.54 206.351 241.07 208.841 241.32C209.801 241.42 210.751 241.44 211.711 241.45C212.031 241.45 212.361 241.46 212.681 241.48C212.861 241.49 213.041 241.51 213.221 241.52C213.411 241.53 213.611 241.64 212.961 241.48C213.071 241.51 213.181 241.51 213.291 241.54C213.441 241.57 213.591 241.6 213.731 241.64C213.811 241.66 213.891 241.69 213.971 241.71C214.331 241.8 213.751 241.62 213.721 241.59C213.811 241.67 214.021 241.76 214.141 241.82C214.271 241.88 214.571 242.19 213.911 241.64C213.971 241.69 214.021 241.74 214.071 241.8C213.561 241.2 213.811 241.42 213.881 241.57C214.051 241.91 213.781 241.29 213.781 241.29C213.781 241.32 213.851 241.51 213.851 241.53C213.911 241.85 213.761 241.4 213.821 241.26C213.761 241.41 213.821 241.73 213.821 241.9C213.811 242.25 213.801 242.59 213.791 242.94C213.711 245.42 213.591 247.9 213.391 250.37C213.291 251.57 213.181 252.77 213.041 253.96C213.001 254.27 212.961 254.58 212.931 254.88C212.881 255.28 212.981 254.5 212.931 254.91C212.911 255.03 212.901 255.14 212.881 255.26C212.791 255.91 212.691 256.56 212.571 257.21C212.161 259.61 211.611 261.99 210.891 264.32C210.561 265.38 210.201 266.43 209.791 267.46C209.701 267.69 209.611 267.92 209.511 268.15C209.401 268.41 209.551 268.33 209.541 268.07C209.541 268.13 209.451 268.27 209.431 268.33C209.211 268.82 208.991 269.31 208.751 269.8C208.301 270.72 207.811 271.62 207.271 272.49C207.021 272.9 206.751 273.3 206.481 273.69C206.351 273.87 206.221 274.05 206.091 274.23C205.821 274.6 206.091 274.24 206.131 274.18C206.051 274.31 205.931 274.43 205.831 274.55C205.191 275.33 204.501 276.06 203.751 276.73C203.591 276.88 203.421 277.01 203.251 277.16C202.891 277.47 203.281 277.16 203.321 277.12C203.261 277.19 203.101 277.28 203.021 277.34C202.591 277.65 202.141 277.94 201.681 278.2C201.481 278.31 201.281 278.42 201.071 278.52C200.931 278.59 200.281 278.99 200.781 278.66C200.391 278.92 199.761 279.02 199.311 279.14C199.061 279.2 198.811 279.26 198.561 279.31C198.511 279.31 198.181 279.37 198.181 279.37C198.181 279.35 198.811 279.31 198.281 279.36C197.771 279.41 197.271 279.44 196.761 279.43C196.511 279.43 196.251 279.41 196.001 279.39C195.871 279.39 195.251 279.29 195.581 279.35C195.941 279.42 195.531 279.34 195.441 279.32C195.321 279.3 195.191 279.27 195.071 279.25C194.791 279.19 194.511 279.12 194.241 279.04C194.001 278.97 193.751 278.89 193.511 278.81C193.411 278.78 192.791 278.52 193.101 278.66C193.411 278.8 192.791 278.51 192.701 278.47C192.411 278.33 192.131 278.17 191.851 278C191.661 277.88 191.461 277.76 191.281 277.63C191.171 277.56 191.071 277.48 190.961 277.4C190.661 277.2 191.271 277.67 191.001 277.43C190.601 277.09 190.201 276.75 189.831 276.37C189.481 276.02 189.161 275.65 188.851 275.27C188.561 274.92 188.831 275.24 188.881 275.31C188.801 275.2 188.721 275.1 188.651 274.99C188.481 274.75 188.311 274.5 188.151 274.26C187.591 273.4 187.131 272.49 186.701 271.56C186.501 271.13 186.681 271.54 186.721 271.61C186.661 271.5 186.621 271.36 186.571 271.24C186.471 270.99 186.381 270.75 186.291 270.5C186.111 270 185.951 269.5 185.801 268.99C185.131 266.69 184.731 264.31 184.371 261.95C184.331 261.67 184.291 261.4 184.251 261.12C184.231 260.96 184.201 260.8 184.181 260.65C184.181 260.58 184.101 260.09 184.141 260.39C184.181 260.69 184.111 260.19 184.111 260.13C184.091 260.01 184.081 259.89 184.061 259.77C184.011 259.37 183.961 258.98 183.911 258.58C183.761 257.35 183.631 256.12 183.511 254.9C183.251 252.35 183.001 249.8 182.811 247.25C182.761 246.61 182.711 245.97 182.661 245.33C182.631 245.03 182.631 244.73 182.621 244.43C182.621 244.38 182.651 244.02 182.621 244.33C182.571 244.7 182.721 244.05 182.721 244.03C183.141 242.79 182.241 241.24 180.971 240.95C179.581 240.63 178.341 241.37 177.891 242.7H177.851Z" fill="black"/>
<path d="M174.84 225.3C177.927 225.3 180.43 222.797 180.43 219.71C180.43 216.623 177.927 214.12 174.84 214.12C171.753 214.12 169.25 216.623 169.25 219.71C169.25 222.797 171.753 225.3 174.84 225.3Z" fill="black"/>
<path d="M219.211 225.3C222.298 225.3 224.801 222.797 224.801 219.71C224.801 216.623 222.298 214.12 219.211 214.12C216.124 214.12 213.621 216.623 213.621 219.71C213.621 222.797 216.124 225.3 219.211 225.3Z" fill="black"/>
<path d="M230.75 239.57C230.49 238.21 229.18 237.33 227.83 237.58C227.66 237.62 210.31 240.74 198.73 230.72C198.36 230.4 197.92 230.21 197.46 230.14V230.11C197.39 230.11 197.32 230.11 197.25 230.12C197.18 230.12 197.11 230.1 197.04 230.11V230.14C196.59 230.21 196.14 230.4 195.77 230.72C184.19 240.74 166.85 237.62 166.67 237.58C165.32 237.32 164.01 238.21 163.75 239.57C163.49 240.93 164.38 242.24 165.74 242.49C165.99 242.54 167.95 242.9 170.95 243.04C177.06 243.33 187.44 242.7 196.26 236.65C196.86 236.23 197.65 236.23 198.25 236.65C207.07 242.7 217.45 243.33 223.56 243.04C226.56 242.9 228.52 242.54 228.77 242.49C230.13 242.23 231.02 240.92 230.76 239.57H230.75Z" fill="black"/>
<path d="M321.101 238.59H296.171C289.975 238.59 284.951 243.613 284.951 249.81V299C284.951 305.197 289.975 310.22 296.171 310.22H321.101C327.298 310.22 332.321 305.197 332.321 299V249.81C332.321 243.613 327.298 238.59 321.101 238.59Z" fill="#FFB717"/>
<path d="M321.101 313.22H296.171C288.331 313.22 281.951 306.84 281.951 299V249.81C281.951 241.97 288.331 235.59 296.171 235.59H321.101C328.941 235.59 335.321 241.97 335.321 249.81V299C335.321 306.84 328.941 313.22 321.101 313.22ZM296.171 241.59C291.641 241.59 287.951 245.28 287.951 249.81V299C287.951 303.53 291.641 307.22 296.171 307.22H321.101C325.631 307.22 329.321 303.53 329.321 299V249.81C329.321 245.28 325.631 241.59 321.101 241.59H296.171Z" fill="black"/>
<path d="M264.362 313.06C278.202 305.93 288.212 291.5 303.372 287.98C303.902 287.86 304.472 287.75 304.962 287.98C305.372 288.17 305.642 288.56 305.842 288.96C307.492 292.24 305.232 296.09 302.812 298.85C305.032 297.71 307.462 296.57 309.912 297C312.372 297.43 314.522 300.19 313.392 302.42C312.272 304.62 308.802 304.96 308.052 307.31C310.362 307.15 312.742 307.01 314.932 307.77C317.122 308.54 319.072 310.46 319.132 312.78C319.202 315.63 316.592 317.73 314.232 319.32C298.552 329.89 280.732 339.62 261.912 338.04" fill="#98CA51"/>
<path d="M265.621 315.22C272.511 311.65 278.351 306.45 284.331 301.59C285.061 301 285.791 300.41 286.521 299.83C286.691 299.7 286.861 299.56 287.031 299.43C287.131 299.35 287.221 299.27 287.321 299.2C287.261 299.25 286.901 299.52 287.261 299.25C287.621 298.98 288.001 298.69 288.371 298.41C289.871 297.29 291.401 296.21 292.991 295.22C294.581 294.23 296.111 293.36 297.761 292.58C298.171 292.39 298.581 292.2 299.001 292.02C299.321 291.88 298.581 292.19 298.901 292.06C298.981 292.03 299.071 291.99 299.151 291.96C299.401 291.86 299.661 291.76 299.911 291.66C300.761 291.34 301.631 291.05 302.511 290.8C303.011 290.66 303.521 290.52 304.031 290.41C304.141 290.39 304.331 290.31 304.431 290.33L304.171 290.37C304.421 290.37 304.441 290.37 304.231 290.36C304.101 290.32 303.981 290.32 303.851 290.26C303.721 290.21 303.621 290.13 303.551 290.02C303.461 289.89 303.451 289.89 303.521 290C303.571 290.12 303.641 290.23 303.701 290.34C303.871 290.63 303.551 289.82 303.701 290.38C303.751 290.56 303.941 290.94 303.881 291.12C303.881 291.1 303.851 290.51 303.861 291.02C303.861 291.18 303.871 291.33 303.871 291.49C303.871 291.58 303.871 291.68 303.871 291.77C303.871 291.82 303.771 292.37 303.851 292.01C303.931 291.65 303.831 292.06 303.811 292.15C303.781 292.31 303.741 292.47 303.691 292.62C303.621 292.88 303.531 293.12 303.441 293.37C303.411 293.48 303.251 293.8 303.461 293.33C303.401 293.45 303.351 293.58 303.291 293.7C303.161 293.98 303.011 294.25 302.861 294.52C302.571 295.03 302.241 295.53 301.901 296.01C301.821 296.12 301.731 296.23 301.651 296.34C301.781 296.16 301.821 296.13 301.661 296.32C301.451 296.58 301.231 296.84 301.011 297.1C300.191 298.05 300.021 299.36 300.811 300.38C301.601 301.4 302.911 301.6 304.041 301.02C304.581 300.74 305.141 300.48 305.691 300.21C305.961 300.09 305.971 300.08 305.731 300.19C305.871 300.13 306.011 300.08 306.161 300.02C306.371 299.94 306.591 299.86 306.811 299.79C307.101 299.7 307.391 299.61 307.681 299.55C307.801 299.52 308.701 299.41 308.121 299.45C308.381 299.43 308.641 299.41 308.901 299.42C309.031 299.42 309.781 299.53 309.241 299.42C309.461 299.47 309.671 299.53 309.891 299.59C310.141 299.69 310.101 299.67 309.761 299.53C309.861 299.58 309.961 299.63 310.061 299.69C310.131 299.73 310.411 299.96 310.491 299.96C310.211 299.74 310.181 299.71 310.391 299.88C310.481 299.95 310.561 300.03 310.641 300.11C310.721 300.19 310.801 300.27 310.871 300.35C311.041 300.56 311.021 300.52 310.791 300.24C310.871 300.24 311.051 300.66 311.091 300.73C311.411 301.24 311.021 300.36 311.121 300.8C311.151 300.9 311.181 301 311.201 301.1C311.251 301.37 311.241 301.3 311.181 300.9C311.181 301 311.191 301.11 311.181 301.21C311.161 301.48 311.181 301.42 311.221 301.01C311.221 301.01 311.101 301.47 311.091 301.47C311.241 301.13 311.261 301.08 311.141 301.3C311.091 301.38 311.041 301.46 310.991 301.54C311.241 301.23 311.281 301.17 311.121 301.37C311.061 301.44 310.991 301.51 310.921 301.58C310.791 301.71 310.591 301.82 310.491 301.96C310.661 301.74 310.871 301.68 310.521 301.92C310.191 302.14 309.841 302.35 309.501 302.55C307.781 303.58 306.311 304.7 305.621 306.66C305.111 308.13 306.471 309.93 308.031 309.82C309.381 309.73 310.731 309.64 312.071 309.73C312.211 309.73 313.051 309.85 312.511 309.76C312.841 309.82 313.171 309.88 313.491 309.96C313.531 309.96 314.411 310.23 314.411 310.25C314.411 310.26 313.851 309.98 314.311 310.21C314.471 310.29 314.631 310.37 314.791 310.46C315.001 310.58 315.201 310.71 315.401 310.85C315.821 311.14 315.321 310.81 315.321 310.79C315.321 310.79 315.561 311 315.591 311.03C315.791 311.21 315.961 311.42 316.141 311.61C316.381 311.87 315.841 311.11 316.121 311.6C316.191 311.73 316.281 311.85 316.351 311.97C316.411 312.08 316.531 312.24 316.551 312.36C316.551 312.32 316.381 311.8 316.481 312.25C316.511 312.36 316.541 312.48 316.571 312.59C316.691 313.01 316.551 312.53 316.571 312.44C316.521 312.64 316.571 313.04 316.581 313.24C316.581 313.59 316.691 312.77 316.601 313.1C316.551 313.27 316.521 313.44 316.471 313.6C316.291 314.19 316.671 313.25 316.401 313.81C316.281 314.05 316.151 314.27 316.001 314.49C315.971 314.54 315.791 314.76 315.791 314.78C315.771 314.65 316.081 314.43 315.841 314.7C315.631 314.93 315.431 315.16 315.211 315.37C315.011 315.57 314.801 315.76 314.591 315.94C314.501 316.02 313.781 316.61 314.291 316.2C313.861 316.55 313.391 316.86 312.931 317.17C310.781 318.63 308.601 320.05 306.391 321.43C301.921 324.22 297.331 326.83 292.561 329.07C292.031 329.32 291.501 329.56 290.961 329.8C290.661 329.93 290.361 330.07 290.061 330.2C289.931 330.26 289.791 330.32 289.661 330.37C289.561 330.41 289.461 330.46 289.361 330.5C289.591 330.4 289.621 330.39 289.451 330.46C288.281 330.95 287.091 331.42 285.901 331.85C283.471 332.74 280.991 333.51 278.471 334.13C277.081 334.47 275.681 334.77 274.271 335.01C273.921 335.07 273.571 335.13 273.211 335.18C273.071 335.2 272.931 335.22 272.791 335.24C272.661 335.26 272.021 335.34 272.611 335.27C271.901 335.36 271.191 335.44 270.481 335.5C267.621 335.76 264.731 335.77 261.871 335.53C260.561 335.42 259.311 336.76 259.371 338.03C259.431 339.48 260.471 340.42 261.871 340.53C273.181 341.46 284.301 338.35 294.491 333.64C299.571 331.29 304.451 328.52 309.191 325.55C311.501 324.1 313.821 322.63 316.051 321.05C318.281 319.47 320.451 317.59 321.281 314.9C322.321 311.54 320.531 308.25 317.751 306.39C314.971 304.53 311.281 304.56 308.001 304.78C308.801 305.83 309.611 306.89 310.411 307.94C310.551 307.53 310.141 308.36 310.381 308.02C310.381 308.02 310.521 307.82 310.531 307.79C310.531 307.81 310.171 308.18 310.351 308.02C310.451 307.93 310.541 307.81 310.641 307.72C310.711 307.66 310.791 307.6 310.851 307.53C311.051 307.32 310.431 307.82 310.681 307.66C311.241 307.29 311.811 306.94 312.381 306.59C313.961 305.63 315.371 304.43 315.941 302.6C316.581 300.54 315.761 298.41 314.421 296.84C313.081 295.27 310.951 294.4 308.871 294.38C306.241 294.35 303.791 295.49 301.511 296.66C302.521 297.97 303.531 299.28 304.541 300.59C306.191 298.69 307.661 296.59 308.421 294.17C309.181 291.74 309.061 288.42 307.141 286.52C305.061 284.46 301.981 285.6 299.581 286.42C297.581 287.1 295.621 287.96 293.751 288.94C286.471 292.76 280.381 298.46 273.991 303.55C273.551 303.9 273.111 304.25 272.661 304.6C272.571 304.67 272.291 304.9 272.721 304.55C272.601 304.65 272.471 304.74 272.351 304.84C272.131 305.01 271.901 305.18 271.681 305.35C270.781 306.02 269.871 306.68 268.951 307.32C267.061 308.62 265.111 309.82 263.071 310.87C261.911 311.47 261.471 313.2 262.171 314.29C262.931 315.48 264.351 315.83 265.591 315.19L265.621 315.22Z" fill="black"/>
<path d="M124.74 311.15C117.45 314.74 111.09 320.21 106.44 326.88C103.4 331.23 101.11 336.06 99.1399 340.99C98.4599 342.69 97.7999 344.45 96.6199 345.85C95.1899 347.56 93.1099 348.64 91.7699 350.42C90.4299 352.2 90.2899 355.28 92.3099 356.21C93.7699 356.88 95.4499 356.06 96.8399 355.25C96.7699 357.6 98.2799 359.92 100.46 360.8C102.64 361.68 105.34 361.07 106.93 359.34C106.41 361.22 107.87 363.18 109.68 363.91C111.49 364.64 113.51 364.47 115.44 364.28C115.97 364.23 116.52 364.17 116.96 363.88C117.55 363.49 117.82 362.77 118.06 362.09C120.19 355.94 122.31 349.79 124.44 343.64" fill="#98CA51"/>
<path d="M123.22 308.56C114.99 312.64 107.96 319 102.95 326.69C100.2 330.92 98.0999 335.52 96.2299 340.2C96.1199 340.46 96.0199 340.73 95.9199 340.99C95.8699 341.12 95.8099 341.25 95.7599 341.38C95.7299 341.45 95.5899 341.79 95.7499 341.41C95.9099 341.01 95.7299 341.44 95.6899 341.54C95.6299 341.67 95.5699 341.8 95.5099 341.93C95.3699 342.22 95.2299 342.5 95.0799 342.78C94.9399 343.03 94.7999 343.27 94.6499 343.5C94.5699 343.62 94.4899 343.73 94.4099 343.85C94.3699 343.91 94.1799 344.22 94.3899 343.88C94.5999 343.54 94.3699 343.88 94.2899 343.97C94.1999 344.07 94.1099 344.17 94.0099 344.26C93.7999 344.48 93.5799 344.69 93.3499 344.89C91.6999 346.37 89.6999 347.63 88.6999 349.69C87.4499 352.25 87.3399 355.41 89.2999 357.66C90.3399 358.85 92.0099 359.52 93.5799 359.47C95.2999 359.41 96.8699 358.7 98.3399 357.86C96.8399 357 95.3299 356.13 93.8299 355.27C93.7899 358.86 96.0099 362.18 99.2999 363.56C102.59 364.94 106.6 364.06 109.04 361.48L104.03 358.56C103.29 361.61 104.87 364.61 107.5 366.19C109.94 367.65 112.91 367.57 115.63 367.28C116.57 367.18 117.45 367.06 118.29 366.59C119.07 366.16 119.73 365.47 120.18 364.7C120.87 363.52 121.22 362.09 121.67 360.81C122.56 358.24 123.45 355.67 124.34 353.1C125.34 350.22 126.33 347.34 127.33 344.46C127.84 342.98 126.74 341.11 125.23 340.77C123.56 340.39 122.09 341.28 121.54 342.87C120.02 347.27 118.5 351.67 116.98 356.07C116.6 357.16 116.23 358.25 115.85 359.34C115.66 359.88 115.47 360.43 115.28 360.97C115.2 361.2 115.12 361.43 115.04 361.66C114.87 362.13 115.25 361.06 115.01 361.68C114.88 362.02 115.45 361.27 115.17 361.5C114.92 361.7 115.47 361.3 115.45 361.32C115.09 361.55 115.47 361.18 115.63 361.26C115.6 361.25 115.38 361.32 115.34 361.33C115.04 361.43 115.62 361.29 115.64 361.29C115.52 361.28 115.35 361.32 115.22 361.33C114.92 361.36 114.62 361.39 114.32 361.41C113.83 361.45 113.34 361.47 112.85 361.47C112.59 361.47 112.33 361.47 112.06 361.45C111.95 361.45 111.84 361.43 111.73 361.42C111.35 361.4 112.32 361.55 111.76 361.42C111.47 361.35 111.19 361.27 110.9 361.2C110.81 361.18 110.48 361.02 110.86 361.2C111.3 361.41 110.75 361.13 110.7 361.11C110.62 361.07 110.54 361.02 110.46 360.97C110.19 360.8 110.21 360.62 110.54 361.06C110.42 360.9 110.21 360.77 110.07 360.61C109.99 360.53 109.72 360.2 110.01 360.56C110.3 360.92 110.04 360.58 109.98 360.49C109.92 360.39 109.87 360.27 109.8 360.17C109.62 359.88 109.96 360.72 109.9 360.39C109.88 360.28 109.84 360.16 109.8 360.05C109.68 359.75 109.81 360.65 109.83 360.33C109.83 360.25 109.83 360.15 109.83 360.07C109.8 359.47 109.68 360.76 109.83 360.16C110.13 358.91 109.64 357.4 108.45 356.77C107.26 356.14 105.75 356.25 104.81 357.24C104.73 357.33 104.64 357.41 104.56 357.5C104.48 357.58 104.06 357.91 104.45 357.62C104.82 357.34 104.47 357.6 104.39 357.65C104.29 357.72 104.19 357.78 104.08 357.84C103.97 357.9 103.77 357.97 103.68 358.05C103.76 357.97 104.29 357.82 103.9 357.96C103.67 358.04 103.44 358.11 103.21 358.17C103.06 358.21 102.91 358.23 102.77 358.26C102.4 358.34 103.4 358.23 103.03 358.22C102.79 358.22 102.55 358.24 102.31 358.23C101.81 358.21 102.26 358.21 102.48 358.28C102.37 358.25 102.24 358.24 102.13 358.21C102.02 358.18 101.9 358.15 101.78 358.12C101.66 358.09 101.18 357.88 101.63 358.09C102.08 358.3 101.38 357.96 101.26 357.88C101.16 357.82 101.06 357.75 100.96 357.69C100.65 357.51 101.45 358.13 101.07 357.78C100.89 357.62 100.72 357.46 100.55 357.28C100.47 357.19 100.4 357.09 100.31 357.01C100.8 357.47 100.55 357.32 100.41 357.11C100.28 356.91 100.16 356.7 100.05 356.48C99.8199 356.03 100.09 356.41 100.1 356.62C100.1 356.51 100.02 356.38 99.9799 356.28C99.9099 356.05 99.8899 355.8 99.8099 355.58C100.03 356.21 99.8599 356.05 99.8499 355.75C99.8499 355.6 99.8499 355.45 99.8499 355.3C99.8799 353 97.2899 351.59 95.3399 352.71C95.1199 352.83 94.9099 352.96 94.6899 353.07C94.5799 353.13 94.0799 353.29 94.0099 353.4C94.1399 353.17 94.4999 353.24 94.1299 353.34C93.9899 353.38 93.8599 353.43 93.7299 353.46C93.6299 353.49 93.5299 353.5 93.4299 353.53C93.0699 353.63 94.0699 353.51 93.5199 353.5C92.9699 353.49 94.1899 353.61 93.4299 353.47C93.1099 353.41 93.7099 353.56 93.7299 353.6C93.7299 353.6 93.5199 353.46 93.4899 353.45C93.5199 353.45 94.0699 353.96 93.7799 353.65C93.6999 353.56 93.5599 353.37 93.8299 353.75C94.2199 354.29 93.6799 353.56 93.7099 353.47C93.7499 353.36 93.8799 354.19 93.8899 353.86C93.8899 353.8 93.8499 353.71 93.8299 353.66C93.8299 353.66 93.7499 353.4 93.7699 353.38C93.7999 353.34 93.8199 354.24 93.8299 353.74C93.8299 353.57 93.8299 353.39 93.8299 353.22C93.8299 352.59 93.6699 353.89 93.8299 353.26C93.8699 353.08 93.9099 352.91 93.9699 352.74C93.9999 352.66 94.0599 352.53 94.0699 352.45C94.0699 352.44 93.7699 353.06 93.9199 352.81C94.0099 352.66 94.0799 352.49 94.1699 352.34C94.1899 352.3 94.3199 352.15 94.3299 352.09C94.2799 352.31 93.9099 352.6 94.2699 352.18C95.5699 350.66 97.3599 349.66 98.6699 348.16C100.32 346.27 101.21 344.02 102.13 341.71C102.33 341.21 102.49 340.59 102.78 340.13C102.78 340.15 102.56 340.64 102.7 340.32C102.74 340.22 102.79 340.11 102.83 340.01C102.96 339.7 103.1 339.38 103.24 339.07C103.68 338.06 104.15 337.07 104.63 336.08C105.63 334.04 106.73 332.04 107.95 330.13C108.52 329.24 109.12 328.36 109.74 327.51C109.88 327.32 110.03 327.13 110.17 326.93C110.48 326.51 110.12 326.99 110.07 327.05C110.15 326.94 110.24 326.83 110.32 326.73C110.64 326.33 110.96 325.93 111.29 325.54C112.59 324 113.99 322.54 115.47 321.17C116.32 320.38 117.2 319.62 118.11 318.9C118.27 318.77 118.98 318.3 118.31 318.74C118.54 318.59 118.75 318.41 118.97 318.25C119.44 317.9 119.91 317.57 120.39 317.24C122.28 315.95 124.26 314.79 126.31 313.77C127.72 313.07 128.22 310.96 127.39 309.67C126.46 308.23 124.79 307.85 123.29 308.59L123.22 308.56Z" fill="black"/>
</g>
<defs>
<clipPath id="clip0_873_1439">
<rect width="380.54" height="573" fill="white" transform="translate(0.740234)"/>
</clipPath>
</defs>
</svg>
