<svg width="382" height="573" viewBox="0 0 382 573" fill="none" xmlns="http://www.w3.org/2000/svg">
<g clip-path="url(#clip0_873_905)">
<path d="M358.758 0H22.7583C10.4589 0 0.488281 9.97062 0.488281 22.27V550.73C0.488281 563.029 10.4589 573 22.7583 573H358.758C371.058 573 381.028 563.029 381.028 550.73V22.27C381.028 9.97062 371.058 0 358.758 0Z" fill="#FFBA35"/>
<path d="M319.719 95.66C338.496 95.66 353.719 80.4377 353.719 61.66C353.719 42.8823 338.496 27.66 319.719 27.66C300.941 27.66 285.719 42.8823 285.719 61.66C285.719 80.4377 300.941 95.66 319.719 95.66Z" fill="white"/>
<path d="M327.416 65.8949H332.556V71.7037H327.416V78.5155H319.726V71.7037H303.721V65.9367L316.258 47.4237C316.62 46.8944 316.912 46.4765 317.135 46.17C317.386 45.8636 317.665 45.6268 317.971 45.4596C318.25 45.3203 318.57 45.2367 318.932 45.2089C319.322 45.1532 319.866 45.1253 320.562 45.1253H327.416V65.8949ZM319.726 65.8949V53.3997C318.918 54.6256 318.18 55.74 317.511 56.7429C316.871 57.718 316.23 58.6931 315.589 59.6682C314.893 60.6712 314.224 61.6602 313.583 62.6353C312.97 63.6104 312.26 64.697 311.452 65.8949H319.726Z" fill="#FFBA35"/>
<path d="M103.987 493.92H116.974V508.597H103.987V525.808H84.5582V508.597H44.1172V494.025L75.7942 447.249C76.7093 445.911 77.4484 444.855 78.0116 444.081C78.6451 443.307 79.349 442.708 80.1234 442.286C80.8273 441.934 81.6368 441.723 82.5519 441.652C83.5375 441.512 84.9101 441.441 86.67 441.441H103.987V493.92ZM84.5582 493.92V462.348C82.5168 465.445 80.6513 468.261 78.9619 470.795C77.3428 473.259 75.7238 475.723 74.1047 478.187C72.3449 480.721 70.6555 483.22 69.0364 485.683C67.4878 488.147 65.6927 490.893 63.6513 493.92H84.5582Z" fill="white"/>
<path d="M138.587 309.23H114.787V354.12H138.587V309.23Z" fill="#98CA51"/>
<path d="M267.609 312.52H243.809V354.86H267.609V312.52Z" fill="#98CA51"/>
<path d="M264.287 362.22L120.947 348.74V303.66H265.807L264.287 362.22Z" fill="#98CA51"/>
<path d="M266.749 310.23C269.609 308.29 272.369 306.2 275.199 304.21C276.959 302.97 278.699 301.72 280.349 300.34C284.059 297.24 287.399 293.7 290.139 289.74C297.239 279.5 299.369 267.15 297.179 255.06C296.669 252.24 295.949 249.46 295.069 246.74C295.069 246.74 291.589 229.33 264.719 207.05C265.719 203.82 266.259 200.41 266.259 196.87C266.259 177.41 250.049 161.64 230.049 161.64C212.939 161.64 198.619 173.19 194.829 188.7C194.219 188.58 191.229 188.6 190.039 188.62C188.839 188.61 185.849 188.58 185.249 188.7C181.459 173.18 167.139 161.64 150.029 161.64C130.029 161.64 113.819 177.41 113.819 196.87C113.819 200.41 114.359 203.83 115.359 207.05C88.4785 229.32 85.0085 246.74 85.0085 246.74C84.1285 249.47 83.4085 252.25 82.8985 255.06C80.7085 267.15 82.8385 279.5 89.9385 289.74C92.6785 293.69 96.0185 297.23 99.7285 300.34C103.269 303.28 107.129 305.86 111.179 308.1C112.699 308.94 114.749 309.93 115.349 310.49" fill="#98CA51"/>
<path d="M115.348 313.99C114.518 313.99 113.688 313.7 113.018 313.11C112.678 312.86 111.548 312.27 110.868 311.9C110.398 311.65 109.918 311.4 109.488 311.16C105.128 308.75 101.098 306.02 97.4978 303.03C93.3878 299.59 89.8778 295.79 87.0678 291.73C79.7278 281.14 77.0278 267.89 79.4578 254.43C79.9678 251.62 80.6978 248.72 81.6278 245.81C82.1478 243.56 86.7278 226.82 111.388 205.81C110.678 202.88 110.318 199.88 110.318 196.86C110.318 175.51 128.128 158.13 150.028 158.13C167.508 158.13 182.668 169.08 187.858 185.1C188.468 185.1 189.198 185.1 190.078 185.11C190.918 185.11 191.618 185.11 192.218 185.1C197.418 169.09 212.578 158.13 230.048 158.13C251.938 158.13 269.758 175.5 269.758 196.86C269.758 199.88 269.398 202.88 268.688 205.81C293.348 226.83 297.928 243.57 298.448 245.81C299.378 248.72 300.108 251.62 300.618 254.43C303.058 267.89 300.358 281.14 293.008 291.73C290.198 295.79 286.688 299.59 282.588 303.02C280.928 304.41 279.238 305.64 277.208 307.07C276.088 307.86 274.978 308.66 273.878 309.46C272.208 310.67 270.478 311.93 268.718 313.12C267.118 314.2 264.938 313.78 263.858 312.18C262.778 310.58 263.198 308.4 264.798 307.32C266.468 306.19 268.148 304.97 269.778 303.79C270.918 302.97 272.048 302.14 273.198 301.34C275.088 300.01 276.648 298.88 278.118 297.64C281.738 294.61 284.818 291.28 287.278 287.74C293.558 278.68 295.858 267.29 293.748 255.67C293.288 253.11 292.618 250.46 291.758 247.79L291.658 247.4C291.628 247.26 287.868 230.74 262.508 209.72L260.708 208.23L261.398 205.99C262.318 203.02 262.788 199.95 262.788 196.84C262.788 179.34 248.118 165.11 230.078 165.11C214.848 165.11 201.768 175.14 198.258 189.5L197.468 192.75L194.278 192.12C193.908 192.09 192.548 192.05 190.108 192.09C187.588 192.06 186.228 192.09 185.858 192.12L182.668 192.75L181.878 189.5C178.378 175.14 165.288 165.11 150.058 165.11C132.028 165.11 117.348 179.34 117.348 196.84C117.348 199.94 117.818 203.02 118.738 205.99L119.428 208.23L117.628 209.72C92.2678 230.74 88.5078 247.25 88.4678 247.42L88.3678 247.79C87.5078 250.46 86.8378 253.11 86.3778 255.66C84.2778 267.28 86.5678 278.67 92.8478 287.73C95.3078 291.27 98.3878 294.61 102.008 297.64C105.258 300.34 108.928 302.83 112.898 305.02C113.298 305.24 113.728 305.47 114.168 305.7C115.918 306.63 117.028 307.23 117.768 307.93C119.178 309.25 119.248 311.47 117.918 312.88C117.228 313.61 116.298 313.98 115.368 313.98L115.348 313.99ZM112.948 313.04C112.948 313.04 112.968 313.06 112.988 313.08C112.978 313.07 112.958 313.06 112.948 313.04ZM194.158 192.13C194.158 192.13 194.158 192.13 194.168 192.13H194.158ZM185.918 192.13H185.908C185.908 192.13 185.908 192.13 185.918 192.13Z" fill="black"/>
<path d="M117.159 344.74C115.679 364.46 117.729 384.42 117.729 384.42L111.809 391.01C108.549 394.64 110.689 400.44 115.519 401.08C139.959 404.28 191.059 393.46 191.059 393.46C191.059 393.46 243.939 404.66 267.839 400.9C272.129 400.23 273.939 395.05 271.049 391.83L264.399 384.42C264.399 384.42 264.799 369.01 264.509 355.48V346.78" fill="#98CA51"/>
<g style="mix-blend-mode:multiply" opacity="0.6">
<path d="M210.898 190.11C210.388 184.98 207.018 180.16 203.168 176.89C197.868 172.4 192.328 174.31 187.228 178.09C183.518 180.84 175.468 186.32 178.498 191.9C181.018 196.55 184.688 200.19 188.558 203.71C191.338 206.24 194.258 208.93 198.288 207.61C203.958 205.75 209.658 199.6 210.758 193.78C210.988 192.55 211.028 191.32 210.908 190.1L210.898 190.11Z" fill="#B2B6B5"/>
</g>
<path d="M207.508 186.55C206.998 181.42 203.628 176.6 199.778 173.33C194.478 168.84 188.938 170.75 183.838 174.53C180.118 177.28 172.078 182.76 175.108 188.35C177.628 193 181.298 196.64 185.168 200.16C187.948 202.69 190.868 205.38 194.898 204.06C200.568 202.2 206.268 196.05 207.358 190.23C207.588 189 207.628 187.77 207.508 186.55Z" fill="#908882"/>
<path d="M192.799 204.7C189.719 204.7 187.329 202.52 185.019 200.42L184.969 200.37C181.459 197.18 177.499 193.37 174.849 188.48C171.859 182.97 179.139 177.62 183.049 174.75L183.669 174.3C187.179 171.7 190.289 170.44 193.179 170.44C195.589 170.44 197.869 171.34 199.969 173.12C204.409 176.89 207.339 181.9 207.799 186.53C207.929 187.81 207.879 189.07 207.649 190.29C206.559 196.11 200.879 202.42 194.989 204.34C194.259 204.58 193.519 204.7 192.809 204.7H192.799ZM193.169 171.02C190.399 171.02 187.399 172.25 183.999 174.77L183.379 175.22C179.609 177.99 172.599 183.14 175.349 188.21C177.949 193.02 181.879 196.79 185.349 199.95L185.399 200C187.629 202.03 189.929 204.13 192.789 204.13C193.439 204.13 194.119 204.02 194.789 203.8C200.499 201.93 205.999 195.83 207.059 190.19C207.279 189.03 207.329 187.82 207.209 186.59C206.759 182.1 203.909 177.23 199.579 173.56C197.589 171.87 195.439 171.02 193.169 171.02Z" fill="#626262"/>
<path d="M192.798 205.7C189.328 205.7 186.678 203.29 184.348 201.17C180.728 197.87 176.688 193.99 173.968 188.97C170.568 182.69 178.298 177.01 182.448 173.96L183.058 173.51C186.738 170.78 190.048 169.45 193.168 169.45C195.818 169.45 198.318 170.43 200.598 172.36C205.238 176.29 208.298 181.55 208.778 186.44C208.918 187.81 208.858 189.17 208.608 190.48C207.458 196.62 201.478 203.27 195.278 205.3C194.438 205.57 193.608 205.71 192.788 205.71L192.798 205.7ZM193.168 172.02C190.618 172.02 187.818 173.18 184.598 175.57L183.978 176.03C180.458 178.62 173.908 183.44 176.238 187.74C178.768 192.41 182.618 196.11 186.028 199.21C188.168 201.16 190.328 203.12 192.798 203.12C193.348 203.12 193.918 203.03 194.488 202.84C199.888 201.08 205.088 195.31 206.088 190C206.288 188.93 206.338 187.82 206.218 186.69C205.798 182.45 203.078 177.83 198.938 174.33C197.138 172.8 195.198 172.03 193.168 172.03V172.02Z" fill="#0F0F0F"/>
<g style="mix-blend-mode:multiply" opacity="0.4">
<path d="M207.508 186.55C206.998 181.42 203.628 176.6 199.778 173.33C194.478 168.84 188.938 170.75 183.838 174.53C180.118 177.28 172.078 182.76 175.108 188.35C177.628 193 181.298 196.64 185.168 200.16C187.948 202.69 190.868 205.38 194.898 204.06C200.568 202.2 206.268 196.05 207.358 190.23C207.588 189 207.628 187.77 207.508 186.55ZM195.878 191.02C195.688 193.54 195.418 199.15 192.088 199.71C189.588 200.13 186.788 197.45 185.138 195.93C182.448 193.47 179.468 191.06 177.488 187.96C176.658 186.65 176.018 185.41 176.508 183.86C176.918 182.56 178.188 181.51 179.178 180.65C181.058 179.03 182.958 177.4 184.998 175.99C186.948 174.18 189.198 172.3 191.888 172.48C194.488 172.65 195.028 175.95 195.348 177.98C196.018 182.25 196.208 186.72 195.878 191.03V191.02Z" fill="#908882"/>
</g>
<g style="mix-blend-mode:multiply" opacity="0.4">
<path d="M176.568 186.2C176.368 185.62 176.278 185.03 176.378 184.38C175.788 184.2 175.208 184.06 174.738 184.01C174.418 184.99 174.348 185.99 174.588 187C175.248 186.73 175.908 186.46 176.568 186.2Z" fill="#908882"/>
</g>
<g style="mix-blend-mode:multiply" opacity="0.4">
<path d="M192.718 199.53C192.518 199.61 192.308 199.68 192.088 199.71C191.838 199.75 191.588 199.76 191.328 199.74C191.448 201.29 191.638 202.83 191.958 204.34C192.868 204.47 193.848 204.4 194.888 204.06C194.988 204.03 195.088 203.98 195.188 203.95C194.288 202.52 193.438 201.05 192.718 199.53Z" fill="#908882"/>
</g>
<g style="mix-blend-mode:multiply" opacity="0.4">
<path d="M195.869 182.49C196.089 185.33 196.099 188.21 195.879 191.02C195.769 192.39 195.639 194.69 195.009 196.59C196.829 195.67 198.879 195.05 200.599 194.23C202.929 193.12 205.109 191.75 207.319 190.41C207.329 190.35 207.349 190.29 207.359 190.24C207.589 189.01 207.629 187.78 207.509 186.56C206.999 181.43 203.629 176.61 199.779 173.34C198.029 171.85 196.249 171.07 194.459 170.82C195.109 174.34 195.999 177.75 195.899 181.42C195.899 181.78 195.869 182.14 195.859 182.49H195.869Z" fill="#908882"/>
</g>
<g style="mix-blend-mode:screen" opacity="0.4">
<path d="M194.178 173.97C194.888 175.15 195.158 176.77 195.348 177.97C196.018 182.24 196.208 186.71 195.878 191.02C195.688 193.54 195.418 199.15 192.088 199.71C191.998 199.73 191.908 199.73 191.818 199.73C192.808 199.95 193.798 199.89 194.668 199.32C197.458 197.52 197.628 193.37 197.768 190.41C197.928 186.89 198.098 183.37 197.438 179.87C196.968 177.39 196.368 174.99 194.178 173.96V173.97Z" fill="white"/>
</g>
<g style="mix-blend-mode:multiply" opacity="0.4">
<path d="M182.848 180.72C182.618 180.54 182.368 180.59 182.148 180.72C181.888 180.8 181.678 181.03 181.548 181.28C181.358 181.67 181.208 182.4 181.708 182.61C181.958 182.71 182.358 182.5 182.528 182.33C182.798 182.05 182.998 181.77 183.078 181.38C183.118 181.17 183.028 180.85 182.858 180.71L182.848 180.72Z" fill="#908882"/>
</g>
<g style="mix-blend-mode:multiply" opacity="0.4">
<path d="M184.088 183.29C184.088 183.29 184.028 183.25 184.008 183.23C183.668 182.99 183.038 183.68 183.268 184.01C183.288 184.04 183.308 184.07 183.328 184.1C183.668 184.58 184.498 183.58 184.098 183.3L184.088 183.29Z" fill="#908882"/>
</g>
<g style="mix-blend-mode:multiply" opacity="0.4">
<path d="M187.237 188.76C187.237 188.76 187.197 188.72 187.157 188.7C187.077 188.64 186.917 188.81 186.967 188.89C186.937 188.94 186.937 188.99 186.997 189C187.027 189 187.057 189 187.097 189C187.187 189 187.317 188.83 187.237 188.76Z" fill="#908882"/>
</g>
<g style="mix-blend-mode:multiply" opacity="0.4">
<path d="M201.857 190.98C201.857 190.98 201.807 190.98 201.777 190.99C201.767 190.99 201.747 191 201.737 191.01C201.727 191.01 201.717 191.02 201.697 191.04C201.697 191.04 201.697 191.04 201.687 191.04C201.667 191.05 201.657 191.08 201.637 191.1C201.637 191.1 201.637 191.12 201.627 191.13C201.627 191.15 201.607 191.17 201.607 191.19C201.607 191.19 201.607 191.2 201.607 191.21C201.607 191.24 201.607 191.27 201.657 191.29H201.677C201.677 191.29 201.737 191.29 201.767 191.26C201.897 191.24 202.037 190.97 201.857 190.97V190.98Z" fill="#908882"/>
</g>
<g style="mix-blend-mode:multiply" opacity="0.4">
<path d="M202.837 184.81C202.857 184.63 202.827 184.46 202.737 184.34C202.687 184.28 202.637 184.27 202.557 184.29C202.467 184.32 202.397 184.37 202.327 184.43C202.337 184.35 202.257 184.31 202.167 184.4C202.017 184.55 201.957 184.8 201.957 185C201.957 185.19 202.017 185.54 202.277 185.53C202.557 185.52 202.747 185.25 202.807 184.95C202.827 184.9 202.837 184.85 202.827 184.81H202.837Z" fill="#908882"/>
</g>
<g style="mix-blend-mode:multiply" opacity="0.4">
<path d="M203.988 188.75C203.928 188.59 203.728 188.81 203.688 188.89C203.468 189.12 203.638 189.39 203.878 189.12C203.978 189.01 204.048 188.89 203.988 188.74V188.75Z" fill="#908882"/>
</g>
<g style="mix-blend-mode:multiply" opacity="0.4">
<path d="M203.299 194.21C203.149 194.17 203.009 194.21 202.879 194.33C202.609 194.31 202.459 194.57 202.379 194.78C202.289 195.01 202.219 195.36 202.429 195.53C202.679 195.75 203.049 195.47 203.219 195.28C203.269 195.23 203.279 195.21 203.269 195.22C203.309 195.18 203.339 195.14 203.369 195.09C203.439 194.98 203.469 194.86 203.499 194.73C203.549 194.54 203.509 194.28 203.299 194.21Z" fill="#908882"/>
</g>
<g style="mix-blend-mode:multiply" opacity="0.4">
<path d="M196.808 200.55C196.808 200.55 196.768 200.57 196.738 200.58C196.678 200.6 196.508 200.78 196.618 200.84C196.628 200.84 196.648 200.86 196.658 200.86C196.888 200.99 197.028 200.46 196.798 200.55H196.808Z" fill="#908882"/>
</g>
<g style="mix-blend-mode:multiply" opacity="0.4">
<path d="M187.478 200.01C187.458 199.86 187.298 199.91 187.198 200.03C187.198 200.03 187.178 200.01 187.168 200.01C187.058 199.94 186.908 200.14 186.948 200.24C187.038 200.47 187.168 200.75 187.448 200.58C187.548 200.52 187.628 200.4 187.638 200.29C187.658 200.14 187.488 200.13 187.478 200.02V200.01Z" fill="#908882"/>
</g>
<g style="mix-blend-mode:multiply" opacity="0.4">
<path d="M179.098 190.98C179.098 190.98 179.098 190.94 179.068 190.92C178.998 190.76 178.868 190.64 178.708 190.6C178.528 190.56 178.348 190.8 178.358 190.97C178.358 191.06 178.398 191.13 178.438 191.19C178.438 191.44 178.588 191.7 178.828 191.76C178.938 191.78 179.038 191.69 179.088 191.6C179.178 191.43 179.178 191.19 179.098 190.98Z" fill="#908882"/>
</g>
<g style="mix-blend-mode:multiply" opacity="0.4">
<path d="M185.899 193.16C185.899 193.16 185.869 193.2 185.859 193.22C185.819 193.22 185.769 193.22 185.729 193.22C185.469 193.3 185.409 193.6 185.439 193.84C185.479 194.13 185.729 194.38 185.999 194.47C186.319 194.58 186.629 194.28 186.819 194.06C187.339 193.48 186.459 192.5 185.889 193.15L185.899 193.16Z" fill="#908882"/>
</g>
<g style="mix-blend-mode:multiply" opacity="0.4">
<path d="M193.177 177.82C192.987 177.82 192.847 177.93 192.747 178.08C192.727 178.08 192.707 178.08 192.697 178.1C192.417 178.23 192.257 178.74 192.487 178.98C193.317 179.82 193.797 177.83 193.177 177.83V177.82Z" fill="#908882"/>
</g>
<g style="mix-blend-mode:multiply" opacity="0.4">
<path d="M183.288 175.65C183.208 175.69 183.138 175.74 183.078 175.79C182.908 175.83 182.768 176.04 182.718 176.19C182.708 176.23 182.698 176.3 182.738 176.33C182.988 176.53 183.518 175.99 183.458 175.73C183.438 175.65 183.368 175.61 183.288 175.65Z" fill="#908882"/>
</g>
<g style="mix-blend-mode:multiply" opacity="0.4">
<path d="M179.037 185.94C179.037 185.94 178.917 185.92 178.867 185.94C178.857 185.92 178.847 185.9 178.837 185.88C178.817 185.85 178.787 185.83 178.747 185.84C178.417 185.91 178.407 186.32 178.597 186.53C178.797 186.75 179.267 186.17 179.027 185.94H179.037Z" fill="#908882"/>
</g>
<g style="mix-blend-mode:multiply" opacity="0.4">
<path d="M199.658 180.39C199.608 180.33 199.538 180.36 199.478 180.41C199.468 180.41 199.448 180.41 199.428 180.41C199.198 180.53 199.078 181.05 199.348 181.18C199.508 181.25 199.638 181.1 199.718 180.97C199.838 180.78 199.788 180.54 199.648 180.37L199.658 180.39Z" fill="#908882"/>
</g>
<g style="mix-blend-mode:multiply" opacity="0.4">
<path d="M200.828 178C200.828 178 200.788 177.97 200.768 177.95C200.708 177.83 200.488 178.02 200.518 178.13C200.538 178.22 200.548 178.24 200.638 178.27C200.748 178.31 200.948 178.06 200.828 177.99V178Z" fill="#908882"/>
</g>
<g style="mix-blend-mode:multiply" opacity="0.4">
<path d="M196.298 172.77C196.298 172.77 196.298 172.71 196.268 172.69C196.228 172.67 196.208 172.63 196.198 172.59C196.198 172.59 196.188 172.57 196.178 172.57C196.108 172.49 196.008 172.61 195.958 172.71C195.958 172.68 195.948 172.65 195.958 172.63C195.978 172.58 195.908 172.6 195.898 172.63C195.838 172.76 196.028 173.25 196.208 173.19C196.388 173.13 196.368 172.94 196.308 172.78L196.298 172.77Z" fill="#908882"/>
</g>
<g style="mix-blend-mode:multiply" opacity="0.4">
<path d="M205.298 183.12C205.298 183.12 205.278 183.1 205.268 183.09C205.328 182.92 205.148 182.9 205.038 182.99C204.968 183.05 204.838 183.32 205.038 183.31C205.078 183.31 205.118 183.32 205.148 183.34C205.238 183.37 205.358 183.2 205.298 183.13V183.12Z" fill="#908882"/>
</g>
<g style="mix-blend-mode:multiply" opacity="0.4">
<path d="M199.259 190.63C199.229 190.69 199.199 190.75 199.169 190.81C199.139 190.85 199.089 190.91 199.119 190.96C199.119 190.96 199.119 190.96 199.119 190.97C199.139 191.01 199.199 191.01 199.239 190.98C199.369 190.88 199.449 190.81 199.499 190.64C199.569 190.43 199.319 190.49 199.259 190.62V190.63Z" fill="#908882"/>
</g>
<g style="mix-blend-mode:multiply" opacity="0.4">
<path d="M198.348 197.38C198.348 197.38 198.348 197.33 198.328 197.32C198.028 197.11 197.828 197.86 198.238 197.64C198.298 197.61 198.398 197.46 198.348 197.38Z" fill="#908882"/>
</g>
<path d="M232.698 396.13C240.488 387.72 245.228 376.74 245.228 364.71C245.228 338.29 222.468 316.88 194.398 316.88C166.328 316.88 143.568 338.3 143.568 364.71C143.568 376.49 148.108 387.28 155.618 395.61C174.798 393.26 191.948 389.75 191.948 389.75C191.948 389.75 211.828 393.82 232.718 396.13H232.698Z" fill="white"/>
<path d="M176.469 243.24C176.149 244.04 176.319 244.99 176.389 245.87C176.519 247.69 176.669 249.52 176.849 251.34C177.369 256.74 177.899 262.32 179.069 267.62C179.999 271.85 181.909 276.19 185.329 279C189.249 282.21 194.799 282.7 199.199 280.16C204.049 277.36 207.069 271.71 208.889 266.6C211.749 258.54 212.259 249.87 212.509 241.4C212.589 238.65 209.059 238.82 207.149 238.78C203.579 238.72 200.009 237.9 196.819 236.28C195.199 235.45 192.709 233.32 190.819 234.34C190.159 234.7 189.609 235.24 189.049 235.75C186.409 238.16 183.249 240.01 179.849 241.13C178.859 241.46 177.669 241.75 176.919 242.53C176.709 242.74 176.569 242.98 176.479 243.23L176.469 243.24Z" fill="#FF743E"/>
<path d="M174.058 242.58C173.588 243.96 173.848 245.45 173.958 246.87C174.068 248.28 174.188 249.69 174.318 251.1C174.578 253.79 174.838 256.48 175.168 259.17C175.808 264.38 176.508 269.71 178.798 274.5C180.908 278.9 184.628 282.61 189.458 283.83C191.858 284.44 194.408 284.44 196.818 283.83C199.228 283.22 201.368 281.93 203.248 280.32C206.758 277.31 209.028 273.06 210.718 268.82C212.658 263.95 213.648 258.78 214.248 253.59C214.548 250.97 214.728 248.33 214.848 245.7C214.908 244.39 214.958 243.07 214.998 241.76C215.038 240.45 214.608 241.17 213.688 240.16C212.338 238.67 210.818 238.55 208.908 238.49C208.008 238.46 206.598 236.3 205.698 236.23C205.398 236.21 205.108 236.18 204.808 236.15C204.738 236.15 204.268 236.08 204.588 236.13C204.908 236.18 204.438 236.11 204.368 236.1C203.708 236 203.048 235.87 202.398 235.71C201.818 235.57 201.248 235.41 200.678 235.22C200.398 235.13 200.118 235.03 199.838 234.93C199.698 234.88 199.558 234.83 199.418 234.77C199.318 234.73 199.208 234.69 199.108 234.65C199.328 234.74 199.358 234.76 199.188 234.68C198.258 234.24 197.378 233.76 196.498 233.22C194.348 231.92 191.748 230.89 189.378 232.31C188.248 232.99 187.338 234 186.328 234.84C186.218 234.93 186.108 235.02 185.998 235.11C185.478 235.54 186.258 234.93 185.918 235.17C185.688 235.33 185.468 235.5 185.238 235.66C184.748 236 184.248 236.33 183.738 236.64C183.228 236.95 182.708 237.24 182.178 237.51C181.928 237.64 181.678 237.76 181.418 237.88C181.288 237.94 181.168 238 181.038 238.06C180.828 238.15 180.628 238.24 180.958 238.1C179.918 238.53 178.838 238.82 177.798 239.22C176.388 239.76 174.918 243.47 174.318 242.01C173.798 240.74 173.928 244.75 175.218 245.43C176.308 246.01 178.068 245.81 178.638 244.53C178.698 244.4 178.748 244.29 178.818 244.17C178.748 244.28 178.528 244.43 178.818 244.21C178.378 244.54 178.868 244.19 179.058 244.09C179.138 244.05 179.228 244.01 179.308 243.97C179.618 243.81 178.888 244.11 179.228 244.01C179.488 243.93 179.748 243.83 180.018 243.74C181.198 243.36 182.348 242.92 183.478 242.42C185.648 241.46 187.608 240.18 189.468 238.72C189.878 238.39 190.288 238.05 190.678 237.7C190.888 237.52 191.088 237.32 191.288 237.14C191.388 237.05 191.498 236.96 191.598 236.87C191.938 236.56 191.418 236.96 191.658 236.82C191.748 236.77 191.838 236.71 191.918 236.65C192.378 236.32 191.848 236.73 191.788 236.67C191.758 236.64 192.068 236.61 192.088 236.58C191.998 236.77 191.518 236.58 191.878 236.62C191.918 236.62 192.188 236.63 192.188 236.62C192.148 236.67 191.558 236.47 191.998 236.6C192.208 236.66 192.428 236.72 192.638 236.79C193.068 236.94 192.548 236.79 192.518 236.74C192.548 236.78 192.768 236.86 192.838 236.89C193.048 237 193.258 237.11 193.468 237.23C193.868 237.46 194.258 237.71 194.658 237.95C195.658 238.56 196.718 239.03 197.798 239.48C200.118 240.42 202.558 240.95 205.048 241.2C206.008 241.3 206.958 241.32 207.918 241.33C208.238 241.33 208.568 241.34 208.888 241.36C209.068 241.37 209.248 241.39 209.428 241.4C209.618 241.41 209.818 241.52 209.168 241.36C209.278 241.39 209.388 241.39 209.498 241.42C209.648 241.45 209.798 241.48 209.938 241.52C210.018 241.54 210.098 241.57 210.178 241.59C210.538 241.68 209.958 241.5 209.928 241.47C210.018 241.55 210.228 241.64 210.348 241.7C210.478 241.76 210.778 242.07 210.118 241.52C210.178 241.57 210.228 241.62 210.278 241.68C209.768 241.08 210.018 241.3 210.088 241.45C210.258 241.79 209.988 241.17 209.988 241.17C209.988 241.2 210.058 241.39 210.058 241.41C210.118 241.73 209.968 241.28 210.028 241.14C209.968 241.29 210.028 241.61 210.028 241.78C210.018 242.13 210.008 242.47 209.998 242.82C209.918 245.3 209.798 247.78 209.598 250.25C209.498 251.45 209.388 252.65 209.248 253.84C209.208 254.15 209.168 254.46 209.138 254.76C209.088 255.16 209.188 254.38 209.138 254.79C209.118 254.91 209.108 255.02 209.088 255.14C208.998 255.79 208.898 256.44 208.778 257.09C208.368 259.49 207.818 261.87 207.098 264.2C206.768 265.26 206.408 266.31 205.998 267.34C205.908 267.57 205.818 267.8 205.718 268.03C205.608 268.29 205.758 268.21 205.748 267.95C205.748 268.01 205.658 268.15 205.638 268.21C205.418 268.7 205.198 269.19 204.958 269.68C204.508 270.6 204.018 271.5 203.478 272.37C203.228 272.78 202.958 273.18 202.688 273.57C202.558 273.75 202.428 273.93 202.298 274.11C202.028 274.48 202.298 274.12 202.338 274.06C202.258 274.19 202.138 274.31 202.038 274.43C201.398 275.21 200.708 275.94 199.958 276.61C199.798 276.76 199.628 276.89 199.458 277.04C199.098 277.35 199.488 277.04 199.528 277C199.468 277.07 199.308 277.16 199.228 277.22C198.798 277.53 198.348 277.82 197.888 278.08C197.688 278.19 197.488 278.3 197.278 278.4C197.138 278.47 196.488 278.87 196.988 278.54C196.598 278.8 195.968 278.9 195.518 279.02C195.268 279.08 195.018 279.14 194.768 279.19C194.718 279.19 194.388 279.25 194.388 279.25C194.388 279.23 195.018 279.19 194.488 279.24C193.978 279.29 193.478 279.32 192.968 279.31C192.718 279.31 192.458 279.29 192.208 279.27C192.078 279.27 191.458 279.17 191.788 279.23C192.148 279.3 191.738 279.22 191.648 279.2C191.528 279.18 191.398 279.15 191.278 279.13C190.998 279.07 190.718 279 190.448 278.92C190.208 278.85 189.958 278.77 189.718 278.69C189.618 278.66 188.998 278.4 189.308 278.54C189.618 278.68 188.998 278.39 188.908 278.35C188.618 278.21 188.338 278.05 188.058 277.88C187.868 277.76 187.668 277.64 187.488 277.51C187.378 277.44 187.278 277.36 187.168 277.28C186.868 277.08 187.478 277.55 187.208 277.31C186.808 276.97 186.408 276.63 186.038 276.25C185.688 275.9 185.368 275.53 185.058 275.15C184.768 274.8 185.038 275.12 185.088 275.19C185.008 275.08 184.928 274.98 184.858 274.87C184.688 274.63 184.518 274.38 184.358 274.14C183.798 273.28 183.338 272.37 182.908 271.44C182.708 271.01 182.888 271.42 182.928 271.49C182.868 271.38 182.828 271.24 182.778 271.12C182.678 270.87 182.588 270.63 182.498 270.38C182.318 269.88 182.158 269.38 182.008 268.87C181.338 266.57 180.938 264.19 180.578 261.83C180.538 261.55 180.498 261.28 180.458 261C180.438 260.84 180.408 260.68 180.388 260.53C180.388 260.46 180.308 259.97 180.348 260.27C180.388 260.57 180.318 260.07 180.318 260.01C180.298 259.89 180.288 259.77 180.268 259.65C180.218 259.25 180.168 258.86 180.118 258.46C179.968 257.23 179.838 256 179.718 254.78C179.458 252.23 179.208 249.68 179.018 247.13C178.968 246.49 178.918 245.85 178.868 245.21C178.838 244.91 178.838 244.61 178.828 244.31C178.828 244.26 178.858 243.9 178.828 244.21C178.778 244.58 178.928 243.93 178.928 243.91C179.348 242.67 178.448 241.12 177.178 240.83C175.788 240.51 174.548 241.25 174.098 242.58H174.058Z" fill="black"/>
<path d="M171.047 225.18C174.134 225.18 176.637 222.677 176.637 219.59C176.637 216.503 174.134 214 171.047 214C167.96 214 165.457 216.503 165.457 219.59C165.457 222.677 167.96 225.18 171.047 225.18Z" fill="black"/>
<path d="M215.418 225.18C218.505 225.18 221.008 222.677 221.008 219.59C221.008 216.503 218.505 214 215.418 214C212.331 214 209.828 216.503 209.828 219.59C209.828 222.677 212.331 225.18 215.418 225.18Z" fill="black"/>
<path d="M226.957 239.45C226.697 238.09 225.387 237.21 224.037 237.46C223.867 237.5 206.517 240.62 194.937 230.6C194.567 230.28 194.127 230.09 193.667 230.02V229.99C193.597 229.99 193.527 229.99 193.457 230C193.387 230 193.317 229.98 193.247 229.99V230.02C192.797 230.09 192.347 230.28 191.977 230.6C180.397 240.62 163.057 237.5 162.877 237.46C161.527 237.2 160.217 238.09 159.957 239.45C159.697 240.81 160.587 242.12 161.947 242.37C162.197 242.42 164.157 242.78 167.157 242.92C173.267 243.21 183.647 242.58 192.467 236.53C193.067 236.11 193.857 236.11 194.457 236.53C203.277 242.58 213.657 243.21 219.767 242.92C222.767 242.78 224.727 242.42 224.977 242.37C226.337 242.11 227.227 240.8 226.967 239.45H226.957Z" fill="black"/>
<path d="M116.228 311.54C112.518 313.76 108.998 316.3 105.728 319.13C99.738 324.3 94.368 330.84 93.158 338.66C91.948 346.47 96.228 355.51 103.908 357.39C102.248 358.53 100.668 359.88 99.728 361.67C98.788 363.46 98.598 365.72 99.648 367.44C100.578 368.97 102.328 369.82 104.068 370.22C107.358 370.97 110.938 370.31 113.748 368.44" fill="#98CA51"/>
<path d="M114.969 309.39C110.689 311.96 106.619 314.95 102.909 318.3C99.6586 321.23 96.6786 324.56 94.4086 328.32C92.1586 332.06 90.6086 336.35 90.4586 340.74C90.3286 344.59 91.3186 348.54 93.2386 351.88C95.4186 355.68 98.9486 358.72 103.239 359.8C103.039 358.28 102.839 356.75 102.639 355.23C100.789 356.51 99.0686 357.96 97.8686 359.88C96.6086 361.9 96.1086 364.44 96.6786 366.77C97.8586 371.51 103.379 373.32 107.749 372.98C110.319 372.78 112.829 372.01 114.999 370.59C116.089 369.88 116.649 368.34 115.899 367.17C115.199 366.08 113.649 365.51 112.479 366.27C112.019 366.57 111.539 366.85 111.049 367.09C110.929 367.15 110.799 367.21 110.679 367.26C110.959 367.14 110.969 367.14 110.709 367.24C110.449 367.33 110.189 367.43 109.929 367.51C109.399 367.68 108.869 367.78 108.329 367.9C108.039 367.95 108.059 367.95 108.379 367.9C108.239 367.92 108.109 367.93 107.969 367.94C107.699 367.97 107.419 367.98 107.149 367.99C106.599 368.01 106.049 367.98 105.499 367.93C104.819 367.87 106.009 368.04 105.349 367.9C105.079 367.85 104.819 367.8 104.559 367.73C104.299 367.66 104.059 367.6 103.819 367.52C103.699 367.48 103.579 367.44 103.449 367.39C103.189 367.29 103.209 367.3 103.509 367.42C103.289 367.38 103.019 367.18 102.829 367.06C102.719 366.99 101.989 366.6 102.549 366.91C102.339 366.8 102.179 366.55 101.999 366.39C101.819 366.18 101.829 366.2 102.029 366.46C101.949 366.36 101.879 366.25 101.819 366.14C101.749 366.03 101.689 365.92 101.629 365.8C101.509 365.55 101.519 365.57 101.659 365.87C101.589 365.81 101.429 365.22 101.459 365.13C101.499 365.48 101.499 365.51 101.469 365.22C101.459 365.09 101.449 364.96 101.449 364.83C101.449 364.63 101.459 364.44 101.469 364.25C101.499 363.96 101.489 363.99 101.459 364.33C101.479 364.2 101.509 364.07 101.539 363.95C101.599 363.69 101.689 363.45 101.759 363.2C101.859 362.94 101.849 362.95 101.729 363.25C101.779 363.13 101.839 363.01 101.899 362.9C102.019 362.66 102.159 362.43 102.309 362.21C102.379 362.1 102.459 361.99 102.539 361.88C102.349 362.12 102.339 362.13 102.519 361.91C102.689 361.71 102.869 361.5 103.049 361.31C103.419 360.92 103.819 360.56 104.239 360.22C104.339 360.13 104.449 360.05 104.559 359.97C104.319 360.15 104.309 360.16 104.539 359.99C104.759 359.84 104.979 359.68 105.199 359.52C106.039 358.94 106.529 358.08 106.389 357.03C106.259 356.08 105.559 355.19 104.599 354.95C104.199 354.85 103.809 354.73 103.419 354.6C103.359 354.58 102.889 354.4 102.889 354.4C102.889 354.38 103.469 354.67 103.039 354.46C102.939 354.41 102.849 354.37 102.749 354.32C102.559 354.23 100.639 353.17 100.699 353.06C100.699 353.05 101.119 353.4 100.829 353.16C100.749 353.09 100.659 353.02 100.579 352.96C100.439 352.84 100.299 352.71 100.159 352.59C99.8586 352.32 99.5786 352.03 99.2986 351.73C99.1486 351.57 99.0086 351.41 98.8686 351.24C98.7986 351.15 98.4086 350.71 98.6586 350.99C98.9186 351.29 98.5186 350.8 98.4686 350.72C98.3286 350.52 98.1886 350.32 98.0586 350.11C97.6086 349.41 97.2086 348.69 96.8686 347.93C96.8386 347.85 96.7986 347.78 96.7686 347.7C96.5786 347.28 96.7986 347.81 96.8286 347.84C96.7186 347.74 96.6686 347.44 96.6186 347.3C96.4586 346.88 96.3186 346.46 96.1886 346.03C95.9486 345.22 95.7686 344.4 95.6286 343.57C95.5286 342.93 95.6686 343.94 95.6186 343.48C95.5986 343.26 95.5686 343.03 95.5486 342.81C95.5186 342.39 95.4986 341.97 95.4886 341.55C95.4786 341.13 95.4886 340.71 95.5186 340.3C95.5286 340.11 95.5486 339.91 95.5586 339.72C95.5586 339.64 95.5786 339.55 95.5786 339.47C95.5786 339.42 95.6486 338.87 95.5986 339.31C95.5486 339.75 95.6486 339.03 95.6686 338.92C95.7186 338.66 95.7686 338.4 95.8186 338.14C95.9186 337.66 96.0386 337.18 96.1686 336.7C96.2986 336.22 96.4486 335.76 96.6086 335.29C96.6886 335.07 96.7586 334.86 96.8486 334.64C96.8986 334.5 97.1686 333.65 96.9986 334.23C97.2586 333.32 97.8486 332.4 98.3186 331.58C98.8086 330.71 99.3386 329.87 99.8986 329.06C100.169 328.68 100.439 328.3 100.719 327.93C100.799 327.82 100.879 327.72 100.959 327.61C100.909 327.68 100.649 328 100.939 327.64C101.109 327.43 101.279 327.22 101.449 327.02C102.729 325.47 104.129 324.01 105.599 322.63C106.459 321.82 107.339 321.04 108.239 320.29C108.739 319.87 109.249 319.45 109.759 319.04C109.999 318.85 110.239 318.66 110.489 318.47C110.799 318.22 110.219 318.67 110.529 318.44C110.679 318.32 110.839 318.21 110.989 318.09C113.089 316.51 115.269 315.05 117.519 313.7C118.639 313.03 119.149 311.42 118.419 310.28C117.689 309.14 116.199 308.66 114.999 309.38L114.969 309.39Z" fill="black"/>
<path d="M265.809 310.8C269.519 313.02 273.039 315.56 276.309 318.39C282.299 323.56 287.669 330.1 288.879 337.92C290.089 345.73 285.809 354.77 278.129 356.65C279.789 357.79 281.369 359.14 282.309 360.93C283.249 362.71 283.439 364.98 282.389 366.7C281.459 368.23 279.709 369.08 277.969 369.48C274.679 370.23 271.099 369.57 268.289 367.7" fill="#98CA51"/>
<path d="M264.548 312.96C266.538 314.15 268.468 315.43 270.338 316.8C270.588 316.98 270.838 317.17 271.078 317.35C271.168 317.42 271.268 317.49 271.358 317.56C271.408 317.6 271.788 317.89 271.568 317.72C271.368 317.56 271.668 317.8 271.678 317.81C271.798 317.91 271.918 318 272.038 318.1C272.278 318.29 272.518 318.48 272.758 318.68C273.638 319.4 274.508 320.13 275.358 320.89C276.858 322.23 278.298 323.65 279.628 325.15C279.938 325.5 280.248 325.86 280.548 326.22C280.698 326.4 280.848 326.58 280.988 326.77C281.068 326.87 281.158 326.98 281.238 327.08C280.898 326.66 281.208 327.04 281.278 327.13C281.878 327.93 282.448 328.75 282.978 329.59C283.508 330.43 283.988 331.29 284.428 332.18C284.638 332.6 284.918 333.06 285.048 333.52C284.908 333.05 285.048 333.54 285.128 333.74C285.228 333.98 285.318 334.23 285.398 334.48C285.738 335.44 286.018 336.42 286.228 337.42C286.298 337.75 286.558 338.43 286.468 338.76C286.468 338.73 286.398 338.13 286.438 338.59C286.438 338.67 286.458 338.76 286.468 338.84C286.488 339.09 286.508 339.34 286.528 339.59C286.578 340.43 286.568 341.27 286.498 342.1C286.478 342.3 286.468 342.49 286.438 342.69C286.368 343.28 286.508 342.32 286.438 342.78C286.368 343.24 286.288 343.66 286.188 344.1C286.008 344.92 285.768 345.73 285.478 346.51C285.408 346.69 285.338 346.87 285.268 347.06C285.148 347.38 285.468 346.62 285.328 346.92C285.298 347 285.258 347.07 285.228 347.15C285.048 347.55 284.848 347.95 284.638 348.34C284.418 348.75 284.168 349.15 283.918 349.54C283.798 349.72 283.678 349.9 283.548 350.08C283.488 350.17 283.418 350.25 283.358 350.34C283.178 350.59 283.688 349.94 283.398 350.28C282.808 350.98 282.188 351.65 281.488 352.25C281.428 352.3 281.368 352.35 281.298 352.4C280.888 352.75 281.368 352.36 281.358 352.36C281.358 352.37 280.898 352.69 280.838 352.73C280.458 352.98 280.068 353.22 279.668 353.43C279.458 353.54 279.238 353.64 279.018 353.75C278.768 353.87 278.968 353.71 279.018 353.75C279.218 353.67 279.218 353.67 279.018 353.75L278.868 353.81C278.408 353.98 277.938 354.13 277.458 354.25C276.498 354.49 275.798 355.38 275.668 356.33C275.528 357.37 276.018 358.24 276.858 358.82C277.078 358.97 277.298 359.13 277.518 359.29C277.738 359.46 277.738 359.45 277.498 359.27C277.608 359.35 277.708 359.44 277.818 359.52C278.228 359.86 278.628 360.23 279.008 360.61C279.198 360.8 279.368 361.01 279.538 361.21C279.718 361.43 279.708 361.42 279.518 361.18C279.598 361.29 279.668 361.4 279.748 361.51C279.898 361.73 280.028 361.96 280.158 362.2C280.218 362.32 280.278 362.43 280.328 362.55C280.208 362.25 280.198 362.23 280.298 362.5C280.378 362.75 280.458 363 280.518 363.25C280.548 363.38 280.578 363.51 280.598 363.63C280.558 363.29 280.558 363.26 280.588 363.55C280.598 363.75 280.608 363.94 280.608 364.13C280.608 364.26 280.608 364.39 280.588 364.52C280.558 364.81 280.568 364.78 280.598 364.43C280.628 364.52 280.468 365.11 280.398 365.17C280.538 364.87 280.548 364.85 280.428 365.1C280.368 365.22 280.308 365.33 280.238 365.44C280.168 365.55 280.098 365.65 280.028 365.76C280.228 365.51 280.238 365.48 280.058 365.69C279.878 365.85 279.718 366.09 279.508 366.21C280.078 365.9 279.338 366.3 279.228 366.36C279.038 366.47 278.758 366.68 278.548 366.72C278.848 366.6 278.868 366.59 278.608 366.69C278.488 366.74 278.368 366.78 278.238 366.82C277.998 366.9 277.748 366.97 277.498 367.03C277.238 367.1 276.968 367.14 276.708 367.2C276.178 367.31 277.148 367.18 276.558 367.23C276.008 367.27 275.458 367.31 274.908 367.29C274.628 367.29 274.358 367.27 274.088 367.24C273.948 367.23 273.818 367.21 273.678 367.2C273.998 367.24 274.018 367.24 273.728 367.2C273.188 367.08 272.648 366.98 272.128 366.81C271.868 366.73 271.608 366.63 271.348 366.54C271.088 366.43 271.088 366.44 271.378 366.56C271.248 366.5 271.128 366.45 271.008 366.39C270.508 366.15 270.038 365.87 269.578 365.57C268.478 364.85 266.768 365.31 266.158 366.47C265.498 367.72 265.888 369.13 267.058 369.89C270.708 372.28 275.728 373.08 279.868 371.56C282.158 370.72 284.078 369.29 285.048 367C286.018 364.69 285.668 362.07 284.578 359.87C283.468 357.61 281.448 355.93 279.418 354.52C279.218 356.04 279.018 357.57 278.818 359.09C286.678 357.11 291.288 349.07 291.598 341.36C291.948 332.52 286.458 324.52 280.328 318.67C276.328 314.86 271.828 311.52 267.098 308.67C265.978 308 264.298 308.38 263.678 309.57C263.058 310.76 263.378 312.27 264.578 312.99L264.548 312.96Z" fill="black"/>
<path d="M126.188 404.68C122.168 404.68 118.428 404.49 115.128 404.06C111.788 403.62 108.988 401.39 107.818 398.23C106.648 395.06 107.318 391.53 109.578 389.02L114.618 383.4C114.188 378.57 112.888 361.6 114.168 344.52C114.288 342.87 115.738 341.63 117.388 341.75C119.038 341.87 120.278 343.31 120.158 344.97C118.718 364.18 120.698 383.93 120.718 384.12L120.858 385.44L114.058 393.02C113.278 393.88 113.058 395.05 113.468 396.14C113.658 396.66 114.288 397.89 115.938 398.11C139.588 401.21 189.968 390.63 190.468 390.53L191.088 390.4L191.708 390.53C192.228 390.64 244.328 401.57 267.398 397.95C268.698 397.75 269.178 396.76 269.328 396.34C269.478 395.92 269.728 394.83 268.838 393.84L261.398 385.54L261.428 384.35C261.428 384.2 261.828 368.86 261.538 355.55V346.78C261.538 345.12 262.878 343.78 264.538 343.78C266.198 343.78 267.538 345.12 267.538 346.78V355.48C267.778 366.71 267.538 379.4 267.458 383.3L273.308 389.82C275.388 392.14 276.028 395.4 274.988 398.34C273.948 401.26 271.398 403.38 268.338 403.86C245.298 407.48 197.408 397.83 191.088 396.52C185.768 397.62 150.828 404.67 126.208 404.67L126.188 404.68Z" fill="black"/>
</g>
<defs>
<clipPath id="clip0_873_905">
<rect width="380.54" height="573" fill="white" transform="translate(0.488281)"/>
</clipPath>
</defs>
</svg>
