<svg width="382" height="573" viewBox="0 0 382 573" fill="none" xmlns="http://www.w3.org/2000/svg">
<g clip-path="url(#clip0_873_1261)">
<path d="M358.926 0H22.9263C10.6269 0 0.65625 9.97062 0.65625 22.27V550.73C0.65625 563.029 10.6269 573 22.9263 573H358.926C371.226 573 381.196 563.029 381.196 550.73V22.27C381.196 9.97062 371.226 0 358.926 0Z" fill="#FFBA35"/>
<path d="M319.887 95.66C338.664 95.66 353.887 80.4377 353.887 61.66C353.887 42.8823 338.664 27.66 319.887 27.66C301.109 27.66 285.887 42.8823 285.887 61.66C285.887 80.4377 301.109 95.66 319.887 95.66Z" fill="white"/>
<path d="M319.155 64.3069C317.734 64.3069 316.648 64.8084 315.896 65.8113C315.143 66.7864 314.767 67.9705 314.767 69.3635C314.767 70.7565 315.116 71.9405 315.812 72.9156C316.536 73.8629 317.651 74.3365 319.155 74.3365H320.827C322.303 74.3365 323.404 73.849 324.128 72.8739C324.853 71.8988 325.215 70.7286 325.215 69.3635C325.215 68.0541 324.839 66.884 324.087 65.8531C323.334 64.8223 322.248 64.3069 320.827 64.3069H319.155ZM324.588 53.7758C324.588 52.4107 324.24 51.3102 323.543 50.4744C322.847 49.6108 321.579 49.1789 319.74 49.1789C318.487 49.1789 317.456 49.6247 316.648 50.5162C315.84 51.4077 315.436 52.4943 315.436 53.7758C315.436 54.3887 315.52 54.9738 315.687 55.531C315.882 56.0882 316.146 56.5897 316.481 57.0354C316.815 57.5369 317.233 57.927 317.734 58.2056C318.236 58.4842 318.807 58.6374 319.448 58.6653H319.991C321.217 58.6095 322.29 58.1081 323.209 57.1608C324.128 56.1857 324.588 55.0574 324.588 53.7758ZM319.072 43.9552C320.186 43.9273 321.356 43.983 322.582 44.1223C323.808 44.2616 325.006 44.5263 326.176 44.9163C327.318 45.3621 328.363 45.9472 329.31 46.6715C330.285 47.368 331.065 48.2595 331.651 49.3461C332.236 50.6555 332.528 52.0485 332.528 53.5251C332.528 54.8345 332.291 56.13 331.818 57.4116C331.372 58.6931 330.689 59.8632 329.77 60.9219C331.079 61.702 332.068 62.8582 332.737 64.3905C333.406 65.9228 333.74 67.4551 333.74 68.9874C333.74 70.6311 333.42 72.1216 332.779 73.4589C332.138 74.7683 331.288 75.8688 330.23 76.7603C329.143 77.6797 327.889 78.3901 326.469 78.8916C325.076 79.3931 323.585 79.6438 321.997 79.6438H317.985C316.425 79.5603 314.935 79.2677 313.514 78.7663C312.093 78.2648 310.839 77.5683 309.753 76.6768C308.666 75.7852 307.802 74.7126 307.162 73.4589C306.549 72.1774 306.242 70.7426 306.242 69.1545C306.242 67.5944 306.563 66.0342 307.203 64.4741C307.844 62.9139 308.861 61.7299 310.254 60.9219C309.474 60.114 308.805 59.0971 308.248 57.8712C307.719 56.6454 307.454 55.4056 307.454 54.1519C307.454 52.5639 307.761 51.157 308.373 49.9311C308.986 48.7053 309.808 47.6606 310.839 46.7969C311.898 45.9611 313.124 45.3064 314.517 44.8328C315.937 44.3313 317.456 44.0388 319.072 43.9552Z" fill="#FFBA35"/>
<path d="M77.6527 489.907C74.0626 489.907 71.3173 491.174 69.4167 493.708C67.5161 496.172 66.5658 499.164 66.5658 502.683C66.5658 506.203 67.4457 509.195 69.2055 511.659C71.0357 514.052 73.8515 515.249 77.6527 515.249H81.8763C85.6071 515.249 88.3877 514.017 90.2179 511.553C92.0481 509.089 92.9633 506.133 92.9633 502.683C92.9633 499.375 92.0129 496.418 90.1123 493.814C88.2117 491.209 85.4664 489.907 81.8763 489.907H77.6527ZM91.3794 463.298C91.3794 459.849 90.4995 457.069 88.7397 454.957C86.9798 452.775 83.7769 451.684 79.131 451.684C75.9633 451.684 73.3587 452.81 71.3173 455.062C69.2759 457.315 68.2552 460.06 68.2552 463.298C68.2552 464.847 68.4664 466.325 68.8887 467.733C69.3815 469.141 70.0502 470.408 70.8949 471.534C71.7397 472.802 72.7956 473.787 74.0626 474.491C75.3297 475.195 76.7728 475.582 78.3918 475.652H79.7645C82.8618 475.512 85.572 474.245 87.8949 471.851C90.2179 469.387 91.3794 466.537 91.3794 463.298ZM77.4415 438.485C80.2573 438.414 83.2138 438.555 86.3111 438.907C89.4084 439.259 92.4353 439.928 95.3918 440.913C98.2779 442.04 100.918 443.518 103.311 445.348C105.775 447.108 107.746 449.361 109.224 452.106C110.702 455.414 111.441 458.934 111.441 462.665C111.441 465.973 110.843 469.247 109.646 472.485C108.52 475.723 106.796 478.679 104.473 481.354C107.781 483.325 110.28 486.247 111.969 490.118C113.659 493.99 114.504 497.862 114.504 501.733C114.504 505.886 113.694 509.652 112.075 513.031C110.456 516.34 108.309 519.12 105.634 521.373C102.889 523.696 99.721 525.491 96.131 526.758C92.6113 528.025 88.8452 528.659 84.8328 528.659H74.6962C70.7542 528.447 66.9881 527.708 63.3981 526.441C59.808 525.174 56.6403 523.414 53.895 521.162C51.1496 518.909 48.9674 516.199 47.3484 513.031C45.7997 509.793 45.0254 506.168 45.0254 502.156C45.0254 498.214 45.8349 494.271 47.454 490.329C49.073 486.387 51.6424 483.396 55.162 481.354C53.191 479.313 51.5016 476.744 50.0937 473.646C48.7562 470.549 48.0875 467.416 48.0875 464.249C48.0875 460.236 48.8618 456.681 50.4105 453.584C51.9591 450.487 54.0357 447.847 56.6403 445.665C59.3152 443.553 62.4125 441.899 65.9322 440.702C69.5223 439.435 73.3587 438.696 77.4415 438.485Z" fill="white"/>
<path d="M136.626 309.23H112.826V354.12H136.626V309.23Z" fill="#98CA51"/>
<path d="M265.638 312.52H241.838V354.86H265.638V312.52Z" fill="#98CA51"/>
<path d="M262.317 362.22L118.977 348.74V303.66H263.847L262.317 362.22Z" fill="#98CA51"/>
<path d="M264.778 310.23C267.638 308.29 270.398 306.2 273.228 304.21C274.988 302.97 276.728 301.72 278.378 300.34C282.088 297.24 285.428 293.7 288.168 289.74C295.268 279.5 297.398 267.15 295.208 255.06C294.698 252.24 293.978 249.46 293.098 246.74C293.098 246.74 289.618 229.33 262.748 207.05C263.748 203.82 264.288 200.41 264.288 196.87C264.288 177.41 248.078 161.64 228.078 161.64C210.968 161.64 196.648 173.19 192.858 188.7C192.248 188.58 189.258 188.6 188.068 188.62C186.868 188.61 183.878 188.58 183.278 188.7C179.488 173.18 165.168 161.64 148.058 161.64C128.058 161.64 111.848 177.41 111.848 196.87C111.848 200.41 112.388 203.83 113.388 207.05C86.5078 229.32 83.0378 246.74 83.0378 246.74C82.1578 249.47 81.4378 252.25 80.9278 255.06C78.7378 267.15 80.8678 279.5 87.9678 289.74C90.7078 293.69 94.0478 297.23 97.7578 300.34C101.298 303.28 105.158 305.86 109.208 308.1C110.728 308.94 112.778 309.93 113.378 310.49" fill="#98CA51"/>
<path d="M113.377 313.99C112.547 313.99 111.717 313.7 111.047 313.11C110.707 312.86 109.577 312.27 108.897 311.9C108.427 311.65 107.947 311.4 107.517 311.16C103.157 308.75 99.1271 306.02 95.5271 303.03C91.4171 299.59 87.9071 295.79 85.0971 291.73C77.7571 281.14 75.0571 267.89 77.4871 254.43C77.9971 251.62 78.7271 248.72 79.6571 245.81C80.1771 243.56 84.7571 226.82 109.417 205.81C108.707 202.88 108.347 199.88 108.347 196.86C108.347 175.51 126.157 158.13 148.057 158.13C165.537 158.13 180.697 169.08 185.887 185.1C186.497 185.1 187.227 185.1 188.107 185.11C188.947 185.11 189.647 185.11 190.247 185.1C195.447 169.09 210.607 158.13 228.077 158.13C249.967 158.13 267.787 175.5 267.787 196.86C267.787 199.88 267.427 202.88 266.717 205.81C291.377 226.83 295.957 243.57 296.477 245.81C297.407 248.72 298.137 251.62 298.647 254.43C301.087 267.89 298.387 281.14 291.037 291.73C288.227 295.79 284.717 299.59 280.617 303.02C278.957 304.41 277.267 305.64 275.237 307.07C274.117 307.86 273.007 308.66 271.907 309.46C270.237 310.67 268.507 311.93 266.747 313.12C265.147 314.2 262.967 313.78 261.887 312.18C260.807 310.58 261.227 308.4 262.827 307.32C264.497 306.19 266.177 304.97 267.807 303.79C268.947 302.97 270.077 302.14 271.227 301.34C273.117 300.01 274.677 298.88 276.147 297.64C279.767 294.61 282.847 291.28 285.307 287.74C291.587 278.68 293.887 267.29 291.777 255.67C291.317 253.11 290.647 250.46 289.787 247.79L289.687 247.4C289.657 247.26 285.897 230.74 260.537 209.72L258.737 208.23L259.427 205.99C260.347 203.02 260.817 199.95 260.817 196.84C260.817 179.34 246.147 165.11 228.107 165.11C212.877 165.11 199.797 175.14 196.287 189.5L195.497 192.75L192.307 192.12C191.937 192.09 190.577 192.05 188.137 192.09C185.617 192.06 184.257 192.09 183.887 192.12L180.697 192.75L179.907 189.5C176.407 175.14 163.317 165.11 148.087 165.11C130.057 165.11 115.377 179.34 115.377 196.84C115.377 199.94 115.847 203.02 116.767 205.99L117.457 208.23L115.657 209.72C90.2971 230.74 86.5371 247.25 86.4971 247.42L86.3971 247.79C85.5371 250.46 84.8671 253.11 84.4071 255.66C82.3071 267.28 84.5971 278.67 90.8771 287.73C93.3371 291.27 96.4171 294.61 100.037 297.64C103.287 300.34 106.957 302.83 110.927 305.02C111.327 305.24 111.757 305.47 112.197 305.7C113.947 306.63 115.057 307.23 115.797 307.93C117.207 309.25 117.277 311.47 115.947 312.88C115.257 313.61 114.327 313.98 113.397 313.98L113.377 313.99ZM110.977 313.04C110.977 313.04 110.997 313.06 111.017 313.08C111.007 313.07 110.987 313.06 110.977 313.04ZM192.187 192.13C192.187 192.13 192.187 192.13 192.197 192.13H192.187ZM183.947 192.13H183.937C183.937 192.13 183.937 192.13 183.947 192.13Z" fill="black"/>
<path d="M115.188 344.74C113.708 364.46 115.758 384.42 115.758 384.42L109.838 391.01C106.578 394.64 108.718 400.44 113.548 401.08C137.988 404.28 189.088 393.46 189.088 393.46C189.088 393.46 241.968 404.66 265.868 400.9C270.158 400.23 271.968 395.05 269.078 391.83L262.428 384.42C262.428 384.42 262.828 369.01 262.538 355.48V346.78" fill="#98CA51"/>
<g style="mix-blend-mode:multiply" opacity="0.6">
<path d="M208.927 190.11C208.417 184.98 205.047 180.16 201.197 176.89C195.897 172.4 190.357 174.31 185.257 178.09C181.547 180.84 173.497 186.32 176.527 191.9C179.047 196.55 182.717 200.19 186.587 203.71C189.367 206.24 192.287 208.93 196.317 207.61C201.987 205.75 207.687 199.6 208.787 193.78C209.017 192.55 209.057 191.32 208.937 190.1L208.927 190.11Z" fill="#B2B6B5"/>
</g>
<path d="M205.537 186.55C205.027 181.42 201.657 176.6 197.807 173.33C192.507 168.84 186.967 170.75 181.867 174.53C178.147 177.28 170.107 182.76 173.137 188.35C175.657 193 179.327 196.64 183.197 200.16C185.977 202.69 188.897 205.38 192.927 204.06C198.597 202.2 204.297 196.05 205.387 190.23C205.617 189 205.657 187.77 205.537 186.55Z" fill="#908882"/>
<path d="M190.838 204.7C187.758 204.7 185.368 202.52 183.058 200.42L183.008 200.37C179.498 197.18 175.538 193.37 172.888 188.48C169.898 182.97 177.178 177.62 181.088 174.75L181.708 174.3C185.218 171.7 188.328 170.44 191.218 170.44C193.628 170.44 195.908 171.34 198.008 173.12C202.448 176.89 205.378 181.9 205.838 186.53C205.968 187.81 205.918 189.07 205.688 190.29C204.598 196.11 198.918 202.42 193.028 204.34C192.298 204.58 191.558 204.7 190.848 204.7H190.838ZM191.208 171.02C188.438 171.02 185.438 172.25 182.038 174.77L181.418 175.22C177.648 177.99 170.638 183.14 173.388 188.21C175.988 193.02 179.918 196.79 183.388 199.95L183.438 200C185.668 202.03 187.968 204.13 190.828 204.13C191.478 204.13 192.158 204.02 192.828 203.8C198.538 201.93 204.038 195.83 205.098 190.19C205.318 189.03 205.368 187.82 205.248 186.59C204.798 182.1 201.948 177.23 197.618 173.56C195.628 171.87 193.478 171.02 191.208 171.02Z" fill="#626262"/>
<path d="M190.837 205.7C187.367 205.7 184.717 203.29 182.387 201.17C178.767 197.87 174.727 193.99 172.007 188.97C168.607 182.69 176.337 177.01 180.487 173.96L181.097 173.51C184.777 170.78 188.087 169.45 191.207 169.45C193.857 169.45 196.357 170.43 198.637 172.36C203.277 176.29 206.337 181.55 206.817 186.44C206.957 187.81 206.897 189.17 206.647 190.48C205.497 196.62 199.517 203.27 193.317 205.3C192.477 205.57 191.647 205.71 190.827 205.71L190.837 205.7ZM191.207 172.02C188.657 172.02 185.857 173.18 182.637 175.57L182.017 176.03C178.497 178.62 171.947 183.44 174.277 187.74C176.807 192.41 180.657 196.11 184.067 199.21C186.207 201.16 188.367 203.12 190.837 203.12C191.387 203.12 191.957 203.03 192.527 202.84C197.927 201.08 203.127 195.31 204.127 190C204.327 188.93 204.377 187.82 204.257 186.69C203.837 182.45 201.117 177.83 196.977 174.33C195.177 172.8 193.237 172.03 191.207 172.03V172.02Z" fill="#0F0F0F"/>
<g style="mix-blend-mode:multiply" opacity="0.4">
<path d="M205.537 186.55C205.027 181.42 201.657 176.6 197.807 173.33C192.507 168.84 186.967 170.75 181.867 174.53C178.147 177.28 170.107 182.76 173.137 188.35C175.657 193 179.327 196.64 183.197 200.16C185.977 202.69 188.897 205.38 192.927 204.06C198.597 202.2 204.297 196.05 205.387 190.23C205.617 189 205.657 187.77 205.537 186.55ZM193.907 191.02C193.717 193.54 193.447 199.15 190.117 199.71C187.617 200.13 184.817 197.45 183.167 195.93C180.477 193.47 177.497 191.06 175.517 187.96C174.687 186.65 174.047 185.41 174.537 183.86C174.947 182.56 176.217 181.51 177.207 180.65C179.087 179.03 180.987 177.4 183.027 175.99C184.977 174.18 187.227 172.3 189.917 172.48C192.517 172.65 193.057 175.95 193.377 177.98C194.047 182.25 194.237 186.72 193.907 191.03V191.02Z" fill="#908882"/>
</g>
<g style="mix-blend-mode:multiply" opacity="0.4">
<path d="M174.598 186.2C174.398 185.62 174.308 185.03 174.408 184.38C173.818 184.2 173.238 184.06 172.768 184.01C172.448 184.99 172.378 185.99 172.618 187C173.278 186.73 173.938 186.46 174.598 186.2Z" fill="#908882"/>
</g>
<g style="mix-blend-mode:multiply" opacity="0.4">
<path d="M190.757 199.53C190.557 199.61 190.347 199.68 190.127 199.71C189.877 199.75 189.627 199.76 189.367 199.74C189.487 201.29 189.677 202.83 189.997 204.34C190.907 204.47 191.887 204.4 192.927 204.06C193.027 204.03 193.127 203.98 193.227 203.95C192.327 202.52 191.477 201.05 190.757 199.53Z" fill="#908882"/>
</g>
<g style="mix-blend-mode:multiply" opacity="0.4">
<path d="M193.898 182.49C194.118 185.33 194.128 188.21 193.908 191.02C193.798 192.39 193.668 194.69 193.038 196.59C194.858 195.67 196.908 195.05 198.628 194.23C200.958 193.12 203.138 191.75 205.348 190.41C205.358 190.35 205.378 190.29 205.388 190.24C205.618 189.01 205.658 187.78 205.538 186.56C205.028 181.43 201.658 176.61 197.808 173.34C196.058 171.85 194.278 171.07 192.488 170.82C193.138 174.34 194.028 177.75 193.928 181.42C193.928 181.78 193.898 182.14 193.888 182.49H193.898Z" fill="#908882"/>
</g>
<g style="mix-blend-mode:screen" opacity="0.4">
<path d="M192.208 173.97C192.918 175.15 193.188 176.77 193.378 177.97C194.048 182.24 194.238 186.71 193.908 191.02C193.718 193.54 193.448 199.15 190.118 199.71C190.028 199.73 189.938 199.73 189.848 199.73C190.838 199.95 191.828 199.89 192.698 199.32C195.488 197.52 195.658 193.37 195.798 190.41C195.958 186.89 196.128 183.37 195.468 179.87C194.998 177.39 194.398 174.99 192.208 173.96V173.97Z" fill="white"/>
</g>
<g style="mix-blend-mode:multiply" opacity="0.4">
<path d="M180.877 180.72C180.647 180.54 180.397 180.59 180.177 180.72C179.917 180.8 179.707 181.03 179.577 181.28C179.387 181.67 179.237 182.4 179.737 182.61C179.987 182.71 180.387 182.5 180.557 182.33C180.827 182.05 181.027 181.77 181.107 181.38C181.147 181.17 181.057 180.85 180.887 180.71L180.877 180.72Z" fill="#908882"/>
</g>
<g style="mix-blend-mode:multiply" opacity="0.4">
<path d="M182.117 183.29C182.117 183.29 182.057 183.25 182.037 183.23C181.697 182.99 181.067 183.68 181.297 184.01C181.317 184.04 181.337 184.07 181.357 184.1C181.697 184.58 182.527 183.58 182.127 183.3L182.117 183.29Z" fill="#908882"/>
</g>
<g style="mix-blend-mode:multiply" opacity="0.4">
<path d="M185.266 188.76C185.266 188.76 185.226 188.72 185.186 188.7C185.106 188.64 184.946 188.81 184.996 188.89C184.966 188.94 184.966 188.99 185.026 189C185.056 189 185.086 189 185.126 189C185.216 189 185.346 188.83 185.266 188.76Z" fill="#908882"/>
</g>
<g style="mix-blend-mode:multiply" opacity="0.4">
<path d="M199.887 190.98C199.887 190.98 199.837 190.98 199.807 190.99C199.797 190.99 199.777 191 199.767 191.01C199.757 191.01 199.747 191.02 199.727 191.04C199.727 191.04 199.727 191.04 199.717 191.04C199.697 191.05 199.687 191.08 199.667 191.1C199.667 191.1 199.667 191.12 199.657 191.13C199.657 191.15 199.637 191.17 199.637 191.19C199.637 191.19 199.637 191.2 199.637 191.21C199.637 191.24 199.637 191.27 199.687 191.29H199.707C199.707 191.29 199.767 191.29 199.797 191.26C199.927 191.24 200.067 190.97 199.887 190.97V190.98Z" fill="#908882"/>
</g>
<g style="mix-blend-mode:multiply" opacity="0.4">
<path d="M200.878 184.81C200.898 184.63 200.868 184.46 200.778 184.34C200.728 184.28 200.678 184.27 200.598 184.29C200.508 184.32 200.438 184.37 200.368 184.43C200.378 184.35 200.298 184.31 200.208 184.4C200.058 184.55 199.998 184.8 199.998 185C199.998 185.19 200.058 185.54 200.318 185.53C200.598 185.52 200.788 185.25 200.848 184.95C200.868 184.9 200.878 184.85 200.868 184.81H200.878Z" fill="#908882"/>
</g>
<g style="mix-blend-mode:multiply" opacity="0.4">
<path d="M202.017 188.75C201.957 188.59 201.757 188.81 201.717 188.89C201.497 189.12 201.667 189.39 201.907 189.12C202.007 189.01 202.077 188.89 202.017 188.74V188.75Z" fill="#908882"/>
</g>
<g style="mix-blend-mode:multiply" opacity="0.4">
<path d="M201.338 194.21C201.188 194.17 201.048 194.21 200.918 194.33C200.648 194.31 200.498 194.57 200.418 194.78C200.328 195.01 200.258 195.36 200.468 195.53C200.718 195.75 201.088 195.47 201.258 195.28C201.308 195.23 201.318 195.21 201.308 195.22C201.348 195.18 201.378 195.14 201.408 195.09C201.478 194.98 201.508 194.86 201.538 194.73C201.588 194.54 201.548 194.28 201.338 194.21Z" fill="#908882"/>
</g>
<g style="mix-blend-mode:multiply" opacity="0.4">
<path d="M194.838 200.55C194.838 200.55 194.798 200.57 194.768 200.58C194.708 200.6 194.538 200.78 194.648 200.84C194.658 200.84 194.678 200.86 194.688 200.86C194.918 200.99 195.058 200.46 194.828 200.55H194.838Z" fill="#908882"/>
</g>
<g style="mix-blend-mode:multiply" opacity="0.4">
<path d="M185.517 200.01C185.497 199.86 185.337 199.91 185.237 200.03C185.237 200.03 185.217 200.01 185.207 200.01C185.097 199.94 184.947 200.14 184.987 200.24C185.077 200.47 185.207 200.75 185.487 200.58C185.587 200.52 185.667 200.4 185.677 200.29C185.697 200.14 185.527 200.13 185.517 200.02V200.01Z" fill="#908882"/>
</g>
<g style="mix-blend-mode:multiply" opacity="0.4">
<path d="M177.127 190.98C177.127 190.98 177.127 190.94 177.097 190.92C177.027 190.76 176.897 190.64 176.737 190.6C176.557 190.56 176.377 190.8 176.387 190.97C176.387 191.06 176.427 191.13 176.467 191.19C176.467 191.44 176.617 191.7 176.857 191.76C176.967 191.78 177.067 191.69 177.117 191.6C177.207 191.43 177.207 191.19 177.127 190.98Z" fill="#908882"/>
</g>
<g style="mix-blend-mode:multiply" opacity="0.4">
<path d="M183.928 193.16C183.928 193.16 183.898 193.2 183.888 193.22C183.848 193.22 183.798 193.22 183.758 193.22C183.498 193.3 183.438 193.6 183.468 193.84C183.508 194.13 183.758 194.38 184.028 194.47C184.348 194.58 184.658 194.28 184.848 194.06C185.368 193.48 184.488 192.5 183.918 193.15L183.928 193.16Z" fill="#908882"/>
</g>
<g style="mix-blend-mode:multiply" opacity="0.4">
<path d="M191.206 177.82C191.016 177.82 190.876 177.93 190.776 178.08C190.756 178.08 190.736 178.08 190.726 178.1C190.446 178.23 190.286 178.74 190.516 178.98C191.346 179.82 191.826 177.83 191.206 177.83V177.82Z" fill="#908882"/>
</g>
<g style="mix-blend-mode:multiply" opacity="0.4">
<path d="M181.317 175.65C181.237 175.69 181.167 175.74 181.107 175.79C180.937 175.83 180.797 176.04 180.747 176.19C180.737 176.23 180.727 176.3 180.767 176.33C181.017 176.53 181.547 175.99 181.487 175.73C181.467 175.65 181.397 175.61 181.317 175.65Z" fill="#908882"/>
</g>
<g style="mix-blend-mode:multiply" opacity="0.4">
<path d="M177.067 185.94C177.067 185.94 176.947 185.92 176.897 185.94C176.887 185.92 176.877 185.9 176.867 185.88C176.847 185.85 176.817 185.83 176.777 185.84C176.447 185.91 176.437 186.32 176.627 186.53C176.827 186.75 177.297 186.17 177.057 185.94H177.067Z" fill="#908882"/>
</g>
<g style="mix-blend-mode:multiply" opacity="0.4">
<path d="M197.687 180.39C197.637 180.33 197.567 180.36 197.507 180.41C197.497 180.41 197.477 180.41 197.457 180.41C197.227 180.53 197.107 181.05 197.377 181.18C197.537 181.25 197.667 181.1 197.747 180.97C197.867 180.78 197.817 180.54 197.677 180.37L197.687 180.39Z" fill="#908882"/>
</g>
<g style="mix-blend-mode:multiply" opacity="0.4">
<path d="M198.858 178C198.858 178 198.818 177.97 198.798 177.95C198.738 177.83 198.518 178.02 198.548 178.13C198.568 178.22 198.578 178.24 198.668 178.27C198.778 178.31 198.978 178.06 198.858 177.99V178Z" fill="#908882"/>
</g>
<g style="mix-blend-mode:multiply" opacity="0.4">
<path d="M194.327 172.77C194.327 172.77 194.327 172.71 194.297 172.69C194.257 172.67 194.237 172.63 194.227 172.59C194.227 172.59 194.217 172.57 194.207 172.57C194.137 172.49 194.037 172.61 193.987 172.71C193.987 172.68 193.977 172.65 193.987 172.63C194.007 172.58 193.937 172.6 193.927 172.63C193.867 172.76 194.057 173.25 194.237 173.19C194.417 173.13 194.397 172.94 194.337 172.78L194.327 172.77Z" fill="#908882"/>
</g>
<g style="mix-blend-mode:multiply" opacity="0.4">
<path d="M203.328 183.12C203.328 183.12 203.308 183.1 203.298 183.09C203.358 182.92 203.178 182.9 203.068 182.99C202.998 183.05 202.868 183.32 203.068 183.31C203.108 183.31 203.148 183.32 203.178 183.34C203.268 183.37 203.388 183.2 203.328 183.13V183.12Z" fill="#908882"/>
</g>
<g style="mix-blend-mode:multiply" opacity="0.4">
<path d="M197.288 190.63C197.258 190.69 197.228 190.75 197.198 190.81C197.168 190.85 197.118 190.91 197.148 190.96C197.148 190.96 197.148 190.96 197.148 190.97C197.168 191.01 197.228 191.01 197.268 190.98C197.398 190.88 197.478 190.81 197.528 190.64C197.598 190.43 197.348 190.49 197.288 190.62V190.63Z" fill="#908882"/>
</g>
<g style="mix-blend-mode:multiply" opacity="0.4">
<path d="M196.377 197.38C196.377 197.38 196.377 197.33 196.357 197.32C196.057 197.11 195.857 197.86 196.267 197.64C196.327 197.61 196.427 197.46 196.377 197.38Z" fill="#908882"/>
</g>
<path d="M230.728 396.13C238.518 387.72 243.258 376.74 243.258 364.71C243.258 338.29 220.498 316.88 192.428 316.88C164.358 316.88 141.598 338.3 141.598 364.71C141.598 376.49 146.138 387.28 153.648 395.61C172.828 393.26 189.978 389.75 189.978 389.75C189.978 389.75 209.858 393.82 230.748 396.13H230.728Z" fill="white"/>
<path d="M174.508 243.24C174.188 244.04 174.358 244.99 174.428 245.87C174.558 247.69 174.708 249.52 174.888 251.34C175.408 256.74 175.938 262.32 177.108 267.62C178.038 271.85 179.948 276.19 183.368 279C187.288 282.21 192.838 282.7 197.238 280.16C202.088 277.36 205.108 271.71 206.928 266.6C209.788 258.54 210.298 249.87 210.548 241.4C210.628 238.65 207.098 238.82 205.188 238.78C201.618 238.72 198.048 237.9 194.858 236.28C193.238 235.45 190.748 233.32 188.858 234.34C188.198 234.7 187.648 235.24 187.088 235.75C184.448 238.16 181.288 240.01 177.888 241.13C176.898 241.46 175.708 241.75 174.958 242.53C174.748 242.74 174.608 242.98 174.518 243.23L174.508 243.24Z" fill="#FF743E"/>
<path d="M172.098 242.58C171.628 243.96 171.888 245.45 171.998 246.87C172.108 248.28 172.228 249.69 172.358 251.1C172.618 253.79 172.878 256.48 173.208 259.17C173.848 264.38 174.548 269.71 176.838 274.5C178.948 278.9 182.668 282.61 187.498 283.83C189.898 284.44 192.448 284.44 194.858 283.83C197.268 283.22 199.408 281.93 201.288 280.32C204.798 277.31 207.068 273.06 208.758 268.82C210.698 263.95 211.688 258.78 212.288 253.59C212.588 250.97 212.768 248.33 212.888 245.7C212.948 244.39 212.998 243.07 213.038 241.76C213.078 240.45 212.648 241.17 211.728 240.16C210.378 238.67 208.858 238.55 206.948 238.49C206.048 238.46 204.638 236.3 203.738 236.23C203.438 236.21 203.148 236.18 202.848 236.15C202.778 236.15 202.308 236.08 202.628 236.13C202.948 236.18 202.478 236.11 202.408 236.1C201.748 236 201.088 235.87 200.438 235.71C199.858 235.57 199.288 235.41 198.718 235.22C198.438 235.13 198.158 235.03 197.878 234.93C197.738 234.88 197.598 234.83 197.458 234.77C197.358 234.73 197.248 234.69 197.148 234.65C197.368 234.74 197.398 234.76 197.228 234.68C196.298 234.24 195.418 233.76 194.538 233.22C192.388 231.92 189.788 230.89 187.418 232.31C186.288 232.99 185.378 234 184.368 234.84C184.258 234.93 184.148 235.02 184.038 235.11C183.518 235.54 184.298 234.93 183.958 235.17C183.728 235.33 183.508 235.5 183.278 235.66C182.788 236 182.288 236.33 181.778 236.64C181.268 236.95 180.748 237.24 180.218 237.51C179.968 237.64 179.718 237.76 179.458 237.88C179.328 237.94 179.208 238 179.078 238.06C178.868 238.15 178.668 238.24 178.998 238.1C177.958 238.53 176.878 238.82 175.838 239.22C174.428 239.76 172.958 243.47 172.358 242.01C171.838 240.74 171.968 244.75 173.258 245.43C174.348 246.01 176.108 245.81 176.678 244.53C176.738 244.4 176.788 244.29 176.858 244.17C176.788 244.28 176.568 244.43 176.858 244.21C176.418 244.54 176.908 244.19 177.098 244.09C177.178 244.05 177.268 244.01 177.348 243.97C177.658 243.81 176.928 244.11 177.268 244.01C177.528 243.93 177.788 243.83 178.058 243.74C179.238 243.36 180.388 242.92 181.518 242.42C183.688 241.46 185.648 240.18 187.508 238.72C187.918 238.39 188.328 238.05 188.718 237.7C188.928 237.52 189.128 237.32 189.328 237.14C189.428 237.05 189.538 236.96 189.638 236.87C189.978 236.56 189.458 236.96 189.698 236.82C189.788 236.77 189.878 236.71 189.958 236.65C190.418 236.32 189.888 236.73 189.828 236.67C189.798 236.64 190.108 236.61 190.128 236.58C190.038 236.77 189.558 236.58 189.918 236.62C189.958 236.62 190.228 236.63 190.228 236.62C190.188 236.67 189.598 236.47 190.038 236.6C190.248 236.66 190.468 236.72 190.678 236.79C191.108 236.94 190.588 236.79 190.558 236.74C190.588 236.78 190.808 236.86 190.878 236.89C191.088 237 191.298 237.11 191.508 237.23C191.908 237.46 192.298 237.71 192.698 237.95C193.698 238.56 194.758 239.03 195.838 239.48C198.158 240.42 200.598 240.95 203.088 241.2C204.048 241.3 204.998 241.32 205.958 241.33C206.278 241.33 206.608 241.34 206.928 241.36C207.108 241.37 207.288 241.39 207.468 241.4C207.658 241.41 207.858 241.52 207.208 241.36C207.318 241.39 207.428 241.39 207.538 241.42C207.688 241.45 207.838 241.48 207.978 241.52C208.058 241.54 208.138 241.57 208.218 241.59C208.578 241.68 207.998 241.5 207.968 241.47C208.058 241.55 208.268 241.64 208.388 241.7C208.518 241.76 208.818 242.07 208.158 241.52C208.218 241.57 208.268 241.62 208.318 241.68C207.808 241.08 208.058 241.3 208.128 241.45C208.298 241.79 208.028 241.17 208.028 241.17C208.028 241.2 208.098 241.39 208.098 241.41C208.158 241.73 208.008 241.28 208.068 241.14C208.008 241.29 208.068 241.61 208.068 241.78C208.058 242.13 208.048 242.47 208.038 242.82C207.958 245.3 207.838 247.78 207.638 250.25C207.538 251.45 207.428 252.65 207.288 253.84C207.248 254.15 207.208 254.46 207.178 254.76C207.128 255.16 207.228 254.38 207.178 254.79C207.158 254.91 207.148 255.02 207.128 255.14C207.038 255.79 206.938 256.44 206.818 257.09C206.408 259.49 205.858 261.87 205.138 264.2C204.808 265.26 204.448 266.31 204.038 267.34C203.948 267.57 203.858 267.8 203.758 268.03C203.648 268.29 203.798 268.21 203.788 267.95C203.788 268.01 203.698 268.15 203.678 268.21C203.458 268.7 203.238 269.19 202.998 269.68C202.548 270.6 202.058 271.5 201.518 272.37C201.268 272.78 200.998 273.18 200.728 273.57C200.598 273.75 200.468 273.93 200.338 274.11C200.068 274.48 200.338 274.12 200.378 274.06C200.298 274.19 200.178 274.31 200.078 274.43C199.438 275.21 198.748 275.94 197.998 276.61C197.838 276.76 197.668 276.89 197.498 277.04C197.138 277.35 197.528 277.04 197.568 277C197.508 277.07 197.348 277.16 197.268 277.22C196.838 277.53 196.388 277.82 195.928 278.08C195.728 278.19 195.528 278.3 195.318 278.4C195.178 278.47 194.528 278.87 195.028 278.54C194.638 278.8 194.008 278.9 193.558 279.02C193.308 279.08 193.058 279.14 192.808 279.19C192.758 279.19 192.428 279.25 192.428 279.25C192.428 279.23 193.058 279.19 192.528 279.24C192.018 279.29 191.518 279.32 191.008 279.31C190.758 279.31 190.498 279.29 190.248 279.27C190.118 279.27 189.498 279.17 189.828 279.23C190.188 279.3 189.778 279.22 189.688 279.2C189.568 279.18 189.438 279.15 189.318 279.13C189.038 279.07 188.758 279 188.488 278.92C188.248 278.85 187.998 278.77 187.758 278.69C187.658 278.66 187.038 278.4 187.348 278.54C187.658 278.68 187.038 278.39 186.948 278.35C186.658 278.21 186.378 278.05 186.098 277.88C185.908 277.76 185.708 277.64 185.528 277.51C185.418 277.44 185.318 277.36 185.208 277.28C184.908 277.08 185.518 277.55 185.248 277.31C184.848 276.97 184.448 276.63 184.078 276.25C183.728 275.9 183.408 275.53 183.098 275.15C182.808 274.8 183.078 275.12 183.128 275.19C183.048 275.08 182.968 274.98 182.898 274.87C182.728 274.63 182.558 274.38 182.398 274.14C181.838 273.28 181.378 272.37 180.948 271.44C180.748 271.01 180.928 271.42 180.968 271.49C180.908 271.38 180.868 271.24 180.818 271.12C180.718 270.87 180.628 270.63 180.538 270.38C180.358 269.88 180.198 269.38 180.048 268.87C179.378 266.57 178.978 264.19 178.618 261.83C178.578 261.55 178.538 261.28 178.498 261C178.478 260.84 178.448 260.68 178.428 260.53C178.428 260.46 178.348 259.97 178.388 260.27C178.428 260.57 178.358 260.07 178.358 260.01C178.338 259.89 178.328 259.77 178.308 259.65C178.258 259.25 178.208 258.86 178.158 258.46C178.008 257.23 177.878 256 177.758 254.78C177.498 252.23 177.248 249.68 177.058 247.13C177.008 246.49 176.958 245.85 176.908 245.21C176.878 244.91 176.878 244.61 176.868 244.31C176.868 244.26 176.898 243.9 176.868 244.21C176.818 244.58 176.968 243.93 176.968 243.91C177.388 242.67 176.488 241.12 175.218 240.83C173.828 240.51 172.588 241.25 172.138 242.58H172.098Z" fill="black"/>
<path d="M169.076 225.18C172.164 225.18 174.666 222.677 174.666 219.59C174.666 216.503 172.164 214 169.076 214C165.989 214 163.486 216.503 163.486 219.59C163.486 222.677 165.989 225.18 169.076 225.18Z" fill="black"/>
<path d="M213.447 225.18C216.535 225.18 219.037 222.677 219.037 219.59C219.037 216.503 216.535 214 213.447 214C210.36 214 207.857 216.503 207.857 219.59C207.857 222.677 210.36 225.18 213.447 225.18Z" fill="black"/>
<path d="M224.996 239.45C224.736 238.09 223.426 237.21 222.076 237.46C221.906 237.5 204.556 240.62 192.976 230.6C192.606 230.28 192.166 230.09 191.706 230.02V229.99C191.636 229.99 191.566 229.99 191.496 230C191.426 230 191.356 229.98 191.286 229.99V230.02C190.836 230.09 190.386 230.28 190.016 230.6C178.436 240.62 161.096 237.5 160.916 237.46C159.566 237.2 158.256 238.09 157.996 239.45C157.736 240.81 158.626 242.12 159.986 242.37C160.236 242.42 162.196 242.78 165.196 242.92C171.306 243.21 181.686 242.58 190.506 236.53C191.106 236.11 191.896 236.11 192.496 236.53C201.316 242.58 211.696 243.21 217.806 242.92C220.806 242.78 222.766 242.42 223.016 242.37C224.376 242.11 225.266 240.8 225.006 239.45H224.996Z" fill="black"/>
<path d="M114.267 311.54C110.557 313.76 107.037 316.3 103.767 319.13C97.777 324.3 92.407 330.84 91.197 338.66C89.987 346.47 94.267 355.51 101.947 357.39C100.287 358.53 98.707 359.88 97.767 361.67C96.827 363.46 96.637 365.72 97.687 367.44C98.617 368.97 100.367 369.82 102.107 370.22C105.397 370.97 108.977 370.31 111.787 368.44" fill="#98CA51"/>
<path d="M112.998 309.39C108.718 311.96 104.648 314.95 100.938 318.3C97.6879 321.23 94.7079 324.56 92.4379 328.32C90.1879 332.06 88.6379 336.35 88.4879 340.74C88.3579 344.59 89.3479 348.54 91.2679 351.88C93.4479 355.68 96.9779 358.72 101.268 359.8C101.068 358.28 100.868 356.75 100.668 355.23C98.8179 356.51 97.0979 357.96 95.8979 359.88C94.6379 361.9 94.1379 364.44 94.7079 366.77C95.8879 371.51 101.408 373.32 105.778 372.98C108.348 372.78 110.858 372.01 113.028 370.59C114.118 369.88 114.678 368.34 113.928 367.17C113.228 366.08 111.678 365.51 110.508 366.27C110.048 366.57 109.568 366.85 109.078 367.09C108.958 367.15 108.828 367.21 108.708 367.26C108.988 367.14 108.998 367.14 108.738 367.24C108.478 367.33 108.218 367.43 107.958 367.51C107.428 367.68 106.898 367.78 106.358 367.9C106.068 367.95 106.088 367.95 106.408 367.9C106.268 367.92 106.138 367.93 105.998 367.94C105.728 367.97 105.448 367.98 105.178 367.99C104.628 368.01 104.078 367.98 103.528 367.93C102.848 367.87 104.038 368.04 103.378 367.9C103.108 367.85 102.848 367.8 102.588 367.73C102.328 367.66 102.088 367.6 101.848 367.52C101.728 367.48 101.608 367.44 101.478 367.39C101.218 367.29 101.238 367.3 101.538 367.42C101.318 367.38 101.048 367.18 100.858 367.06C100.748 366.99 100.018 366.6 100.578 366.91C100.368 366.8 100.208 366.55 100.028 366.39C99.8479 366.18 99.8579 366.2 100.058 366.46C99.9779 366.36 99.9079 366.25 99.8479 366.14C99.7779 366.03 99.7179 365.92 99.6579 365.8C99.5379 365.55 99.5479 365.57 99.6879 365.87C99.6179 365.81 99.4579 365.22 99.4879 365.13C99.5279 365.48 99.5279 365.51 99.4979 365.22C99.4879 365.09 99.4779 364.96 99.4779 364.83C99.4779 364.63 99.4879 364.44 99.4979 364.25C99.5279 363.96 99.5179 363.99 99.4879 364.33C99.5079 364.2 99.5379 364.07 99.5679 363.95C99.6279 363.69 99.7179 363.45 99.7879 363.2C99.8879 362.94 99.8779 362.95 99.7579 363.25C99.8079 363.13 99.8679 363.01 99.9279 362.9C100.048 362.66 100.188 362.43 100.338 362.21C100.408 362.1 100.488 361.99 100.568 361.88C100.378 362.12 100.368 362.13 100.548 361.91C100.718 361.71 100.898 361.5 101.078 361.31C101.448 360.92 101.848 360.56 102.268 360.22C102.368 360.13 102.478 360.05 102.588 359.97C102.348 360.15 102.338 360.16 102.568 359.99C102.788 359.84 103.008 359.68 103.228 359.52C104.068 358.94 104.558 358.08 104.418 357.03C104.288 356.08 103.588 355.19 102.628 354.95C102.228 354.85 101.838 354.73 101.448 354.6C101.388 354.58 100.918 354.4 100.918 354.4C100.918 354.38 101.498 354.67 101.068 354.46C100.968 354.41 100.878 354.37 100.778 354.32C100.588 354.23 98.6679 353.17 98.7279 353.06C98.7279 353.05 99.1479 353.4 98.8579 353.16C98.7779 353.09 98.6879 353.02 98.6079 352.96C98.4679 352.84 98.3279 352.71 98.1879 352.59C97.8879 352.32 97.6079 352.03 97.3279 351.73C97.1779 351.57 97.0379 351.41 96.8979 351.24C96.8279 351.15 96.4379 350.71 96.6879 350.99C96.9479 351.29 96.5479 350.8 96.4979 350.72C96.3579 350.52 96.2179 350.32 96.0879 350.11C95.6379 349.41 95.2379 348.69 94.8979 347.93C94.8679 347.85 94.8279 347.78 94.7979 347.7C94.6079 347.28 94.8279 347.81 94.8579 347.84C94.7479 347.74 94.6979 347.44 94.6479 347.3C94.4879 346.88 94.3479 346.46 94.2179 346.03C93.9779 345.22 93.7979 344.4 93.6579 343.57C93.5579 342.93 93.6979 343.94 93.6479 343.48C93.6279 343.26 93.5979 343.03 93.5779 342.81C93.5479 342.39 93.5279 341.97 93.5179 341.55C93.5079 341.13 93.5179 340.71 93.5479 340.3C93.5579 340.11 93.5779 339.91 93.5879 339.72C93.5879 339.64 93.6079 339.55 93.6079 339.47C93.6079 339.42 93.6779 338.87 93.6279 339.31C93.5779 339.75 93.6779 339.03 93.6979 338.92C93.7479 338.66 93.7979 338.4 93.8479 338.14C93.9479 337.66 94.0679 337.18 94.1979 336.7C94.3279 336.22 94.4779 335.76 94.6379 335.29C94.7179 335.07 94.7879 334.86 94.8779 334.64C94.9279 334.5 95.1979 333.65 95.0279 334.23C95.2879 333.32 95.8779 332.4 96.3479 331.58C96.8379 330.71 97.3679 329.87 97.9279 329.06C98.1979 328.68 98.4679 328.3 98.7479 327.93C98.8279 327.82 98.9079 327.72 98.9879 327.61C98.9379 327.68 98.6779 328 98.9679 327.64C99.1379 327.43 99.3079 327.22 99.4779 327.02C100.758 325.47 102.158 324.01 103.628 322.63C104.488 321.82 105.368 321.04 106.268 320.29C106.768 319.87 107.278 319.45 107.788 319.04C108.028 318.85 108.268 318.66 108.518 318.47C108.828 318.22 108.248 318.67 108.558 318.44C108.708 318.32 108.868 318.21 109.018 318.09C111.118 316.51 113.298 315.05 115.548 313.7C116.668 313.03 117.178 311.42 116.448 310.28C115.718 309.14 114.228 308.66 113.028 309.38L112.998 309.39Z" fill="black"/>
<path d="M263.848 310.8C267.558 313.02 271.078 315.56 274.348 318.39C280.338 323.56 285.708 330.1 286.918 337.92C288.128 345.73 283.848 354.77 276.168 356.65C277.828 357.79 279.408 359.14 280.348 360.93C281.288 362.71 281.478 364.98 280.428 366.7C279.498 368.23 277.748 369.08 276.008 369.48C272.718 370.23 269.138 369.57 266.328 367.7" fill="#98CA51"/>
<path d="M262.577 312.96C264.567 314.15 266.497 315.43 268.367 316.8C268.617 316.98 268.867 317.17 269.107 317.35C269.197 317.42 269.297 317.49 269.387 317.56C269.437 317.6 269.817 317.89 269.597 317.72C269.397 317.56 269.697 317.8 269.707 317.81C269.827 317.91 269.947 318 270.067 318.1C270.307 318.29 270.547 318.48 270.787 318.68C271.667 319.4 272.537 320.13 273.387 320.89C274.887 322.23 276.327 323.65 277.657 325.15C277.967 325.5 278.277 325.86 278.577 326.22C278.727 326.4 278.877 326.58 279.017 326.77C279.097 326.87 279.187 326.98 279.267 327.08C278.927 326.66 279.237 327.04 279.307 327.13C279.907 327.93 280.477 328.75 281.007 329.59C281.537 330.43 282.017 331.29 282.457 332.18C282.667 332.6 282.947 333.06 283.077 333.52C282.937 333.05 283.077 333.54 283.157 333.74C283.257 333.98 283.347 334.23 283.427 334.48C283.767 335.44 284.047 336.42 284.257 337.42C284.327 337.75 284.587 338.43 284.497 338.76C284.497 338.73 284.427 338.13 284.467 338.59C284.467 338.67 284.487 338.76 284.497 338.84C284.517 339.09 284.537 339.34 284.557 339.59C284.607 340.43 284.597 341.27 284.527 342.1C284.507 342.3 284.497 342.49 284.467 342.69C284.397 343.28 284.537 342.32 284.467 342.78C284.397 343.24 284.317 343.66 284.217 344.1C284.037 344.92 283.797 345.73 283.507 346.51C283.437 346.69 283.367 346.87 283.297 347.06C283.177 347.38 283.497 346.62 283.357 346.92C283.327 347 283.287 347.07 283.257 347.15C283.077 347.55 282.877 347.95 282.667 348.34C282.447 348.75 282.197 349.15 281.947 349.54C281.827 349.72 281.707 349.9 281.577 350.08C281.517 350.17 281.447 350.25 281.387 350.34C281.207 350.59 281.717 349.94 281.427 350.28C280.837 350.98 280.217 351.65 279.517 352.25C279.457 352.3 279.397 352.35 279.327 352.4C278.917 352.75 279.397 352.36 279.387 352.36C279.387 352.37 278.927 352.69 278.867 352.73C278.487 352.98 278.097 353.22 277.697 353.43C277.487 353.54 277.267 353.64 277.047 353.75C276.797 353.87 276.997 353.71 277.047 353.75C277.247 353.67 277.247 353.67 277.047 353.75L276.897 353.81C276.437 353.98 275.967 354.13 275.487 354.25C274.527 354.49 273.827 355.38 273.697 356.33C273.557 357.37 274.047 358.24 274.887 358.82C275.107 358.97 275.327 359.13 275.547 359.29C275.767 359.46 275.767 359.45 275.527 359.27C275.637 359.35 275.737 359.44 275.847 359.52C276.257 359.86 276.657 360.23 277.037 360.61C277.227 360.8 277.397 361.01 277.567 361.21C277.747 361.43 277.737 361.42 277.547 361.18C277.627 361.29 277.697 361.4 277.777 361.51C277.927 361.73 278.057 361.96 278.187 362.2C278.247 362.32 278.307 362.43 278.357 362.55C278.237 362.25 278.227 362.23 278.327 362.5C278.407 362.75 278.487 363 278.547 363.25C278.577 363.38 278.607 363.51 278.627 363.63C278.587 363.29 278.587 363.26 278.617 363.55C278.627 363.75 278.637 363.94 278.637 364.13C278.637 364.26 278.637 364.39 278.617 364.52C278.587 364.81 278.597 364.78 278.627 364.43C278.657 364.52 278.497 365.11 278.427 365.17C278.567 364.87 278.577 364.85 278.457 365.1C278.397 365.22 278.337 365.33 278.267 365.44C278.197 365.55 278.127 365.65 278.057 365.76C278.257 365.51 278.267 365.48 278.087 365.69C277.907 365.85 277.747 366.09 277.537 366.21C278.107 365.9 277.367 366.3 277.257 366.36C277.067 366.47 276.787 366.68 276.577 366.72C276.877 366.6 276.897 366.59 276.637 366.69C276.517 366.74 276.397 366.78 276.267 366.82C276.027 366.9 275.777 366.97 275.527 367.03C275.267 367.1 274.997 367.14 274.737 367.2C274.207 367.31 275.177 367.18 274.587 367.23C274.037 367.27 273.487 367.31 272.937 367.29C272.657 367.29 272.387 367.27 272.117 367.24C271.977 367.23 271.847 367.21 271.707 367.2C272.027 367.24 272.047 367.24 271.757 367.2C271.217 367.08 270.677 366.98 270.157 366.81C269.897 366.73 269.637 366.63 269.377 366.54C269.117 366.43 269.117 366.44 269.407 366.56C269.277 366.5 269.157 366.45 269.037 366.39C268.537 366.15 268.067 365.87 267.607 365.57C266.507 364.85 264.797 365.31 264.187 366.47C263.527 367.72 263.917 369.13 265.087 369.89C268.737 372.28 273.757 373.08 277.897 371.56C280.187 370.72 282.107 369.29 283.077 367C284.047 364.71 283.697 362.07 282.607 359.87C281.497 357.61 279.477 355.93 277.447 354.52C277.247 356.04 277.047 357.57 276.847 359.09C284.707 357.11 289.317 349.07 289.627 341.36C289.977 332.52 284.487 324.52 278.357 318.67C274.357 314.86 269.857 311.52 265.127 308.67C264.007 308 262.327 308.38 261.707 309.57C261.087 310.76 261.407 312.27 262.607 312.99L262.577 312.96Z" fill="black"/>
<path d="M124.218 404.68C120.198 404.68 116.458 404.49 113.158 404.06C109.818 403.62 107.018 401.39 105.848 398.23C104.678 395.06 105.348 391.53 107.608 389.02L112.648 383.4C112.218 378.57 110.918 361.6 112.198 344.52C112.318 342.87 113.768 341.63 115.418 341.75C117.068 341.87 118.308 343.31 118.188 344.97C116.748 364.18 118.728 383.93 118.748 384.12L118.888 385.44L112.088 393.02C111.308 393.88 111.088 395.05 111.498 396.14C111.688 396.66 112.318 397.89 113.968 398.11C137.618 401.21 187.998 390.63 188.498 390.53L189.118 390.4L189.738 390.53C190.258 390.64 242.358 401.57 265.428 397.95C266.728 397.75 267.208 396.76 267.358 396.34C267.508 395.92 267.758 394.83 266.868 393.84L259.428 385.54L259.458 384.35C259.458 384.2 259.858 368.86 259.568 355.55V346.78C259.568 345.12 260.908 343.78 262.568 343.78C264.228 343.78 265.568 345.12 265.568 346.78V355.48C265.808 366.71 265.568 379.4 265.488 383.3L271.338 389.82C273.418 392.14 274.058 395.4 273.018 398.34C271.978 401.26 269.428 403.38 266.368 403.86C243.328 407.48 195.438 397.83 189.118 396.52C183.798 397.62 148.858 404.67 124.238 404.67L124.218 404.68Z" fill="black"/>
</g>
<defs>
<clipPath id="clip0_873_1261">
<rect width="380.54" height="573" fill="white" transform="translate(0.65625)"/>
</clipPath>
</defs>
</svg>
