<svg width="381" height="573" viewBox="0 0 381 573" fill="none" xmlns="http://www.w3.org/2000/svg">
<g clip-path="url(#clip0_873_996)">
<path d="M358.301 0H22.3013C10.0019 0 0.03125 9.97062 0.03125 22.27V550.73C0.03125 563.029 10.0019 573 22.3013 573H358.301C370.601 573 380.571 563.029 380.571 550.73V22.27C380.571 9.97062 370.601 0 358.301 0Z" fill="white"/>
<path d="M319.262 95.66C338.039 95.66 353.262 80.4377 353.262 61.66C353.262 42.8823 338.039 27.66 319.262 27.66C300.484 27.66 285.262 42.8823 285.262 61.66C285.262 80.4377 300.484 95.66 319.262 95.66Z" fill="#FFBA35"/>
<path d="M319.33 56.7011C320.918 56.7011 322.478 56.8961 324.011 57.2862C325.543 57.6484 326.908 58.2334 328.106 59.0414C329.332 59.905 330.321 61.0055 331.073 62.3428C331.825 63.6522 332.174 65.2541 332.118 67.1486C332.09 68.8202 331.797 70.3525 331.24 71.7455C330.683 73.1107 329.903 74.2947 328.9 75.2977C327.869 76.3006 326.615 77.0947 325.139 77.6797C323.662 78.2369 321.977 78.5155 320.082 78.5155H307.629C307.768 77.819 307.88 77.0529 307.963 76.2171C308.075 75.3534 308.325 74.6151 308.715 74.0022C308.938 73.64 309.147 73.3475 309.342 73.1246C309.537 72.9017 309.816 72.7206 310.178 72.5813C310.54 72.4142 310.986 72.3027 311.515 72.247C312.073 72.1634 312.783 72.1216 313.647 72.1216H317.533C319.65 72.0102 321.113 71.5505 321.921 70.7426C322.729 69.9346 323.133 68.7645 323.133 67.2322C323.133 65.7278 322.562 64.5855 321.42 63.8054C320.277 63.0253 318.982 62.6771 317.533 62.7607H308.506V45.0417H330.53V51.3938H317.282V56.7011H319.33Z" fill="white"/>
<path d="M73.7136 470.69C77.7261 470.69 81.6681 471.182 85.5397 472.168C89.4114 473.083 92.8606 474.561 95.8875 476.603C98.9848 478.785 101.484 481.565 103.384 484.944C105.285 488.253 106.165 492.3 106.024 497.087C105.954 501.311 105.215 505.182 103.807 508.702C102.399 512.151 100.428 515.143 97.8937 517.677C95.2892 520.211 92.1215 522.218 88.3906 523.696C84.6598 525.104 80.401 525.808 75.6143 525.808H44.1484C44.5004 524.048 44.782 522.112 44.9932 520C45.2747 517.818 45.9083 515.953 46.8938 514.404C47.4569 513.489 47.9849 512.75 48.4776 512.187C48.9704 511.623 49.6743 511.166 50.5894 510.814C51.5045 510.392 52.6308 510.11 53.9683 509.969C55.3762 509.758 57.1712 509.652 59.3534 509.652H69.1733C74.5232 509.371 78.2188 508.209 80.2602 506.168C82.3016 504.127 83.3223 501.17 83.3223 497.298C83.3223 493.497 81.8793 490.611 78.9931 488.64C76.107 486.669 72.8337 485.789 69.1733 486H46.3658V441.23H102.012V457.28H68.5397V470.69H73.7136Z" fill="#FFBA35"/>
<path d="M262.541 361.72L119.191 348.24V303.16H264.061L262.541 361.72Z" fill="#98CA51"/>
<path d="M118.892 312.02C115.662 310.75 112.502 309.29 109.432 307.6C105.382 305.36 101.522 302.78 97.9824 299.84C94.2724 296.74 90.9324 293.2 88.1924 289.24C81.0924 279 78.9624 266.65 81.1524 254.56C81.6624 251.74 82.3824 248.96 83.2624 246.24C83.2624 246.24 86.7424 228.83 113.612 206.55C112.612 203.32 112.072 199.91 112.072 196.37C112.072 176.91 128.282 161.14 148.282 161.14C165.392 161.14 179.712 172.69 183.502 188.2C184.112 188.08 187.102 188.1 188.292 188.12C189.492 188.11 192.482 188.08 193.082 188.2C196.872 172.68 211.192 161.14 228.302 161.14C248.302 161.14 264.512 176.91 264.512 196.37C264.512 199.91 263.972 203.33 262.972 206.55C289.852 228.82 293.322 246.24 293.322 246.24C294.202 248.97 294.922 251.75 295.432 254.56C297.622 266.65 295.492 279 288.392 289.24C285.652 293.19 282.312 296.73 278.602 299.84C276.952 301.22 275.212 302.48 273.452 303.71C270.622 305.7 267.862 307.79 265.002 309.73L260.322 312.02" fill="#98CA51"/>
<path d="M118.892 315.52C118.462 315.52 118.032 315.44 117.612 315.28C114.052 313.88 110.832 312.37 107.742 310.66C103.382 308.25 99.3517 305.52 95.7517 302.53C91.6417 299.09 88.1317 295.29 85.3217 291.23C77.9817 280.64 75.2817 267.39 77.7117 253.93C78.2217 251.12 78.9517 248.22 79.8817 245.31C80.4017 243.06 84.9917 226.32 109.642 205.31C108.932 202.38 108.572 199.38 108.572 196.36C108.572 175 126.382 157.63 148.282 157.63C165.762 157.63 180.922 168.58 186.112 184.6C186.722 184.6 187.452 184.6 188.332 184.61C189.172 184.61 189.872 184.59 190.472 184.6C195.672 168.58 210.832 157.63 228.302 157.63C250.192 157.63 268.012 175 268.012 196.36C268.012 199.38 267.652 202.38 266.942 205.31C291.602 226.33 296.182 243.07 296.702 245.31C297.632 248.22 298.362 251.12 298.872 253.93C301.312 267.39 298.612 280.64 291.262 291.23C288.452 295.29 284.942 299.09 280.842 302.52C279.192 303.9 277.492 305.14 275.462 306.57C274.352 307.35 273.242 308.15 272.142 308.95C270.462 310.17 268.732 311.42 266.962 312.62L266.542 312.86L261.862 315.15C260.122 316 258.032 315.28 257.182 313.55C256.332 311.81 257.052 309.72 258.782 308.87L263.242 306.69C264.852 305.6 266.462 304.42 268.032 303.29C269.162 302.47 270.292 301.65 271.442 300.85C273.332 299.52 274.892 298.38 276.362 297.15C279.982 294.12 283.062 290.79 285.522 287.25C291.802 278.19 294.102 266.8 291.992 255.18C291.532 252.62 290.862 249.97 290.002 247.3L289.902 246.91C289.872 246.77 286.112 230.25 260.752 209.23L258.952 207.74L259.642 205.5C260.562 202.53 261.032 199.46 261.032 196.35C261.032 178.85 246.362 164.62 228.322 164.62C213.092 164.62 200.012 174.65 196.502 189.01L195.712 192.26L192.522 191.63C192.152 191.6 190.792 191.56 188.352 191.6C185.832 191.57 184.472 191.6 184.102 191.63L180.912 192.26L180.122 189.01C176.622 174.65 163.532 164.62 148.302 164.62C130.272 164.62 115.592 178.85 115.592 196.35C115.592 199.45 116.062 202.53 116.982 205.5L117.672 207.74L115.872 209.23C90.5117 230.25 86.7517 246.76 86.7117 246.93L86.6117 247.3C85.7517 249.97 85.0817 252.62 84.6217 255.17C82.5217 266.79 84.8117 278.18 91.0917 287.24C93.5517 290.78 96.6317 294.12 100.252 297.15C103.502 299.85 107.172 302.34 111.142 304.53C113.962 306.09 116.922 307.47 120.202 308.76C122.002 309.47 122.882 311.5 122.172 313.3C121.632 314.68 120.312 315.52 118.912 315.52H118.892ZM192.412 191.63C192.412 191.63 192.412 191.63 192.422 191.63H192.412ZM184.172 191.63H184.162C184.162 191.63 184.162 191.63 184.172 191.63Z" fill="black"/>
<path d="M115.411 344.24C113.931 363.96 115.981 383.92 115.981 383.92L110.061 390.51C106.801 394.14 108.941 399.94 113.771 400.58C138.211 403.78 189.311 392.96 189.311 392.96C189.311 392.96 242.191 404.16 266.091 400.4C270.381 399.73 272.191 394.55 269.301 391.33L262.651 383.92C262.651 383.92 263.051 368.51 262.761 354.98V346.28" fill="#98CA51"/>
<path d="M124.421 404.68C120.381 404.68 116.621 404.49 113.311 404.06C109.791 403.6 106.831 401.24 105.591 397.9C104.351 394.56 105.061 390.83 107.441 388.18L112.331 382.73C111.881 377.61 110.631 360.85 111.901 343.98C112.041 342.05 113.721 340.6 115.651 340.75C117.581 340.89 119.021 342.57 118.881 344.5C117.441 363.67 119.421 383.37 119.441 383.56L119.601 385.1L112.651 392.85C111.711 393.89 111.991 395.02 112.151 395.46C112.311 395.89 112.831 396.93 114.211 397.11C137.771 400.21 188.071 389.64 188.571 389.53L189.291 389.38L190.021 389.53C190.541 389.64 242.551 400.55 265.531 396.94C266.561 396.78 266.951 395.99 267.071 395.66C267.191 395.32 267.391 394.46 266.681 393.66L259.101 385.22L259.141 383.83C259.141 383.68 259.541 368.35 259.251 355.06V346.28C259.251 344.35 260.821 342.78 262.751 342.78C264.681 342.78 266.251 344.35 266.251 346.28V354.98C266.491 366.02 266.261 378.5 266.171 382.61L271.891 388.99C274.091 391.45 274.771 394.9 273.671 398.01C272.571 401.11 269.871 403.35 266.621 403.86C243.621 407.48 196.021 397.93 189.291 396.53C183.631 397.7 148.931 404.67 124.401 404.67L124.421 404.68Z" fill="black"/>
<g style="mix-blend-mode:multiply" opacity="0.6">
<path d="M209.152 189.61C208.642 184.48 205.272 179.66 201.422 176.39C196.122 171.9 190.582 173.81 185.482 177.59C181.772 180.34 173.722 185.82 176.752 191.4C179.272 196.05 182.942 199.69 186.812 203.21C189.592 205.74 192.512 208.43 196.542 207.11C202.212 205.25 207.912 199.1 209.012 193.28C209.242 192.05 209.282 190.82 209.162 189.6L209.152 189.61Z" fill="#B2B6B5"/>
</g>
<path d="M205.762 186.05C205.252 180.92 201.882 176.1 198.032 172.83C192.732 168.34 187.192 170.25 182.092 174.03C178.372 176.78 170.332 182.26 173.362 187.85C175.882 192.5 179.552 196.14 183.422 199.66C186.202 202.19 189.122 204.88 193.152 203.56C198.822 201.7 204.522 195.55 205.612 189.73C205.842 188.5 205.882 187.27 205.762 186.05Z" fill="#908882"/>
<path d="M191.053 204.2C187.973 204.2 185.583 202.02 183.273 199.92L183.223 199.87C179.713 196.68 175.753 192.87 173.103 187.98C170.113 182.47 177.393 177.12 181.303 174.25L181.923 173.8C185.433 171.2 188.543 169.94 191.433 169.94C193.843 169.94 196.123 170.84 198.223 172.62C202.663 176.39 205.593 181.4 206.053 186.03C206.183 187.31 206.133 188.57 205.903 189.79C204.813 195.61 199.133 201.92 193.243 203.84C192.513 204.08 191.773 204.2 191.063 204.2H191.053ZM191.423 170.52C188.653 170.52 185.653 171.75 182.253 174.27L181.633 174.72C177.863 177.49 170.853 182.64 173.603 187.71C176.203 192.52 180.133 196.29 183.603 199.45L183.653 199.5C185.883 201.53 188.183 203.63 191.043 203.63C191.693 203.63 192.373 203.52 193.043 203.3C198.753 201.43 204.253 195.33 205.313 189.69C205.533 188.53 205.583 187.32 205.463 186.09C205.013 181.6 202.163 176.73 197.833 173.06C195.843 171.37 193.693 170.52 191.423 170.52Z" fill="#626262"/>
<path d="M191.052 205.2C187.582 205.2 184.932 202.79 182.602 200.67C178.982 197.37 174.942 193.49 172.222 188.47C168.822 182.19 176.552 176.51 180.702 173.46L181.312 173.01C184.992 170.28 188.302 168.95 191.422 168.95C194.072 168.95 196.572 169.93 198.852 171.86C203.492 175.79 206.552 181.05 207.032 185.94C207.172 187.31 207.112 188.67 206.862 189.98C205.712 196.12 199.732 202.77 193.532 204.8C192.702 205.07 191.862 205.21 191.042 205.21L191.052 205.2ZM191.422 171.52C188.872 171.52 186.072 172.68 182.852 175.07L182.232 175.53C178.712 178.12 172.162 182.94 174.492 187.24C177.022 191.91 180.872 195.61 184.282 198.71C186.422 200.66 188.582 202.62 191.052 202.62C191.602 202.62 192.172 202.53 192.742 202.34C198.142 200.58 203.342 194.81 204.342 189.5C204.542 188.43 204.592 187.32 204.472 186.19C204.052 181.95 201.332 177.33 197.192 173.83C195.392 172.3 193.452 171.53 191.422 171.53V171.52Z" fill="#0F0F0F"/>
<g style="mix-blend-mode:multiply" opacity="0.4">
<path d="M205.762 186.05C205.252 180.92 201.882 176.1 198.032 172.83C192.732 168.34 187.192 170.25 182.092 174.03C178.372 176.78 170.332 182.26 173.362 187.85C175.882 192.5 179.552 196.14 183.422 199.66C186.202 202.19 189.122 204.88 193.152 203.56C198.822 201.7 204.522 195.55 205.612 189.73C205.842 188.5 205.882 187.27 205.762 186.05ZM194.132 190.52C193.942 193.04 193.672 198.65 190.342 199.21C187.842 199.63 185.042 196.95 183.392 195.43C180.702 192.97 177.722 190.56 175.742 187.46C174.912 186.15 174.272 184.91 174.762 183.36C175.172 182.06 176.442 181.01 177.432 180.15C179.312 178.53 181.212 176.9 183.252 175.49C185.202 173.68 187.452 171.8 190.142 171.98C192.742 172.15 193.282 175.45 193.602 177.48C194.272 181.75 194.462 186.22 194.132 190.53V190.52Z" fill="#908882"/>
</g>
<g style="mix-blend-mode:multiply" opacity="0.4">
<path d="M174.822 185.7C174.622 185.12 174.532 184.53 174.632 183.88C174.042 183.7 173.462 183.56 172.992 183.51C172.672 184.49 172.602 185.49 172.842 186.5C173.502 186.23 174.162 185.96 174.822 185.7Z" fill="#908882"/>
</g>
<g style="mix-blend-mode:multiply" opacity="0.4">
<path d="M190.972 199.03C190.772 199.11 190.562 199.18 190.342 199.21C190.092 199.25 189.842 199.26 189.582 199.24C189.702 200.79 189.892 202.33 190.212 203.84C191.122 203.97 192.102 203.9 193.142 203.56C193.242 203.53 193.342 203.48 193.442 203.45C192.542 202.02 191.692 200.55 190.972 199.03Z" fill="#908882"/>
</g>
<g style="mix-blend-mode:multiply" opacity="0.4">
<path d="M194.113 181.99C194.333 184.83 194.343 187.71 194.123 190.52C194.013 191.89 193.883 194.19 193.253 196.09C195.073 195.17 197.123 194.55 198.843 193.73C201.173 192.62 203.353 191.25 205.563 189.91C205.573 189.85 205.593 189.79 205.603 189.74C205.833 188.51 205.873 187.28 205.753 186.06C205.243 180.93 201.873 176.11 198.023 172.84C196.273 171.35 194.493 170.57 192.703 170.32C193.353 173.84 194.243 177.25 194.143 180.92C194.143 181.28 194.113 181.64 194.103 181.99H194.113Z" fill="#908882"/>
</g>
<g style="mix-blend-mode:screen" opacity="0.4">
<path d="M192.432 173.47C193.142 174.65 193.412 176.27 193.602 177.47C194.272 181.74 194.462 186.21 194.132 190.52C193.942 193.04 193.672 198.65 190.342 199.21C190.252 199.23 190.162 199.23 190.072 199.23C191.062 199.45 192.052 199.39 192.922 198.82C195.712 197.02 195.882 192.87 196.022 189.91C196.182 186.39 196.352 182.87 195.692 179.37C195.222 176.89 194.622 174.49 192.432 173.46V173.47Z" fill="white"/>
</g>
<g style="mix-blend-mode:multiply" opacity="0.4">
<path d="M181.092 180.22C180.862 180.04 180.612 180.09 180.392 180.22C180.132 180.3 179.922 180.53 179.792 180.78C179.602 181.17 179.452 181.9 179.952 182.11C180.202 182.21 180.602 182 180.772 181.83C181.042 181.55 181.242 181.27 181.322 180.88C181.362 180.67 181.272 180.35 181.102 180.21L181.092 180.22Z" fill="#908882"/>
</g>
<g style="mix-blend-mode:multiply" opacity="0.4">
<path d="M182.332 182.79C182.332 182.79 182.272 182.75 182.252 182.73C181.912 182.49 181.282 183.18 181.512 183.51C181.532 183.54 181.552 183.57 181.572 183.6C181.912 184.08 182.742 183.08 182.342 182.8L182.332 182.79Z" fill="#908882"/>
</g>
<g style="mix-blend-mode:multiply" opacity="0.4">
<path d="M185.491 188.27C185.491 188.27 185.451 188.23 185.411 188.21C185.331 188.15 185.171 188.32 185.221 188.4C185.191 188.45 185.191 188.5 185.251 188.51C185.281 188.51 185.311 188.51 185.351 188.51C185.441 188.51 185.571 188.34 185.491 188.27Z" fill="#908882"/>
</g>
<g style="mix-blend-mode:multiply" opacity="0.4">
<path d="M200.102 190.48C200.102 190.48 200.052 190.48 200.022 190.49C200.012 190.49 199.992 190.5 199.982 190.51C199.972 190.51 199.962 190.52 199.942 190.54C199.942 190.54 199.942 190.54 199.932 190.54C199.912 190.55 199.902 190.58 199.882 190.6C199.882 190.6 199.882 190.62 199.872 190.63C199.872 190.65 199.852 190.67 199.852 190.69C199.852 190.69 199.852 190.7 199.852 190.71C199.852 190.74 199.852 190.77 199.902 190.79H199.922C199.922 190.79 199.982 190.79 200.012 190.76C200.142 190.74 200.282 190.47 200.102 190.47V190.48Z" fill="#908882"/>
</g>
<g style="mix-blend-mode:multiply" opacity="0.4">
<path d="M201.091 184.31C201.111 184.13 201.081 183.96 200.991 183.84C200.941 183.78 200.891 183.77 200.811 183.79C200.721 183.82 200.651 183.87 200.581 183.93C200.591 183.85 200.511 183.81 200.421 183.9C200.271 184.05 200.211 184.3 200.211 184.5C200.211 184.69 200.271 185.04 200.531 185.03C200.811 185.02 201.001 184.75 201.061 184.45C201.081 184.4 201.091 184.35 201.081 184.31H201.091Z" fill="#908882"/>
</g>
<g style="mix-blend-mode:multiply" opacity="0.4">
<path d="M202.242 188.25C202.182 188.09 201.982 188.31 201.942 188.39C201.722 188.62 201.892 188.89 202.132 188.62C202.232 188.51 202.302 188.39 202.242 188.24V188.25Z" fill="#908882"/>
</g>
<g style="mix-blend-mode:multiply" opacity="0.4">
<path d="M201.553 193.71C201.403 193.67 201.263 193.71 201.133 193.83C200.863 193.81 200.713 194.07 200.633 194.28C200.543 194.51 200.473 194.86 200.683 195.03C200.933 195.25 201.303 194.97 201.473 194.78C201.523 194.73 201.533 194.71 201.523 194.72C201.563 194.68 201.593 194.64 201.623 194.59C201.693 194.48 201.723 194.36 201.753 194.23C201.803 194.04 201.763 193.78 201.553 193.71Z" fill="#908882"/>
</g>
<g style="mix-blend-mode:multiply" opacity="0.4">
<path d="M195.062 200.05C195.062 200.05 195.022 200.07 194.992 200.08C194.932 200.1 194.762 200.28 194.872 200.34C194.882 200.34 194.902 200.36 194.912 200.36C195.142 200.49 195.282 199.96 195.052 200.05H195.062Z" fill="#908882"/>
</g>
<g style="mix-blend-mode:multiply" opacity="0.4">
<path d="M185.732 199.51C185.712 199.36 185.552 199.41 185.452 199.53C185.452 199.53 185.432 199.51 185.422 199.51C185.312 199.44 185.162 199.64 185.202 199.74C185.292 199.97 185.422 200.25 185.702 200.08C185.802 200.02 185.882 199.9 185.892 199.79C185.912 199.64 185.742 199.63 185.732 199.52V199.51Z" fill="#908882"/>
</g>
<g style="mix-blend-mode:multiply" opacity="0.4">
<path d="M177.352 190.48C177.352 190.48 177.352 190.44 177.322 190.42C177.252 190.26 177.122 190.14 176.962 190.1C176.782 190.06 176.602 190.3 176.612 190.47C176.612 190.56 176.652 190.63 176.692 190.69C176.692 190.94 176.842 191.2 177.082 191.26C177.192 191.28 177.292 191.19 177.342 191.1C177.432 190.93 177.432 190.69 177.352 190.48Z" fill="#908882"/>
</g>
<g style="mix-blend-mode:multiply" opacity="0.4">
<path d="M184.153 192.66C184.153 192.66 184.123 192.7 184.113 192.72C184.073 192.72 184.023 192.72 183.983 192.72C183.723 192.8 183.663 193.1 183.693 193.34C183.733 193.63 183.983 193.88 184.253 193.97C184.573 194.08 184.883 193.78 185.073 193.56C185.593 192.98 184.713 192 184.143 192.65L184.153 192.66Z" fill="#908882"/>
</g>
<g style="mix-blend-mode:multiply" opacity="0.4">
<path d="M191.431 177.33C191.241 177.33 191.101 177.44 191.001 177.59C190.981 177.59 190.961 177.59 190.951 177.61C190.671 177.74 190.511 178.25 190.741 178.49C191.571 179.33 192.051 177.34 191.431 177.34V177.33Z" fill="#908882"/>
</g>
<g style="mix-blend-mode:multiply" opacity="0.4">
<path d="M181.542 175.15C181.462 175.19 181.392 175.24 181.332 175.29C181.162 175.33 181.022 175.54 180.972 175.69C180.962 175.73 180.952 175.8 180.992 175.83C181.242 176.03 181.772 175.49 181.712 175.23C181.692 175.15 181.622 175.11 181.542 175.15Z" fill="#908882"/>
</g>
<g style="mix-blend-mode:multiply" opacity="0.4">
<path d="M177.281 185.44C177.281 185.44 177.161 185.42 177.111 185.44C177.101 185.42 177.091 185.4 177.081 185.38C177.061 185.35 177.031 185.33 176.991 185.34C176.661 185.41 176.651 185.82 176.841 186.03C177.041 186.25 177.511 185.67 177.271 185.44H177.281Z" fill="#908882"/>
</g>
<g style="mix-blend-mode:multiply" opacity="0.4">
<path d="M197.912 179.89C197.862 179.83 197.792 179.86 197.732 179.91C197.722 179.91 197.702 179.91 197.682 179.91C197.452 180.03 197.332 180.55 197.602 180.68C197.762 180.75 197.892 180.6 197.972 180.47C198.092 180.28 198.042 180.04 197.902 179.87L197.912 179.89Z" fill="#908882"/>
</g>
<g style="mix-blend-mode:multiply" opacity="0.4">
<path d="M199.073 177.51C199.073 177.51 199.033 177.48 199.013 177.46C198.953 177.34 198.733 177.53 198.763 177.64C198.783 177.73 198.793 177.75 198.883 177.78C198.993 177.82 199.193 177.57 199.073 177.5V177.51Z" fill="#908882"/>
</g>
<g style="mix-blend-mode:multiply" opacity="0.4">
<path d="M194.552 172.27C194.552 172.27 194.552 172.21 194.522 172.19C194.482 172.17 194.462 172.13 194.452 172.09C194.452 172.09 194.442 172.07 194.432 172.07C194.362 171.99 194.262 172.11 194.212 172.21C194.212 172.18 194.202 172.15 194.212 172.13C194.232 172.08 194.162 172.1 194.152 172.13C194.092 172.26 194.282 172.75 194.462 172.69C194.642 172.63 194.622 172.44 194.562 172.28L194.552 172.27Z" fill="#908882"/>
</g>
<g style="mix-blend-mode:multiply" opacity="0.4">
<path d="M203.542 182.62C203.542 182.62 203.522 182.6 203.512 182.59C203.572 182.42 203.392 182.4 203.282 182.49C203.212 182.55 203.082 182.82 203.282 182.81C203.322 182.81 203.362 182.82 203.392 182.84C203.482 182.87 203.602 182.7 203.542 182.63V182.62Z" fill="#908882"/>
</g>
<g style="mix-blend-mode:multiply" opacity="0.4">
<path d="M197.513 190.13C197.483 190.19 197.453 190.25 197.423 190.31C197.393 190.35 197.343 190.41 197.373 190.46C197.373 190.46 197.373 190.46 197.373 190.47C197.393 190.51 197.453 190.51 197.493 190.48C197.623 190.38 197.703 190.31 197.753 190.14C197.823 189.93 197.573 189.99 197.513 190.12V190.13Z" fill="#908882"/>
</g>
<g style="mix-blend-mode:multiply" opacity="0.4">
<path d="M196.592 196.88C196.592 196.88 196.592 196.83 196.572 196.82C196.272 196.61 196.072 197.36 196.482 197.14C196.542 197.11 196.642 196.96 196.592 196.88Z" fill="#908882"/>
</g>
<path d="M230.943 395.64C238.733 387.23 243.473 376.25 243.473 364.22C243.473 337.8 220.713 316.39 192.643 316.39C164.573 316.39 141.812 337.81 141.812 364.22C141.812 376 146.353 386.79 153.863 395.12C173.043 392.77 190.193 389.26 190.193 389.26C190.193 389.26 210.072 393.33 230.962 395.64H230.943Z" fill="white"/>
<path d="M119.982 312.35C112.692 315.94 106.332 321.41 101.682 328.08C98.6421 332.43 96.3521 337.26 94.3821 342.19C93.7021 343.89 93.0421 345.65 91.8621 347.05C90.4321 348.76 88.3521 349.84 87.0121 351.62C85.6721 353.4 85.5321 356.48 87.5521 357.41C89.0121 358.08 90.6921 357.26 92.0821 356.45C92.0121 358.8 93.5221 361.12 95.7021 362C97.8821 362.88 100.582 362.27 102.172 360.54C101.652 362.42 103.112 364.38 104.922 365.11C106.732 365.84 108.752 365.67 110.682 365.48C111.212 365.43 111.762 365.37 112.202 365.08C112.792 364.69 113.062 363.97 113.302 363.29C115.432 357.14 117.552 350.99 119.682 344.84" fill="#98CA51"/>
<path d="M118.462 309.76C110.232 313.84 103.202 320.2 98.1921 327.89C95.4421 332.12 93.3421 336.72 91.4721 341.4C91.3621 341.66 91.2621 341.93 91.1621 342.19C91.1121 342.32 91.0521 342.45 91.0021 342.58C90.9721 342.65 90.8321 342.99 90.9921 342.61C91.1521 342.21 90.9721 342.64 90.9321 342.74C90.8721 342.87 90.8121 343 90.7521 343.13C90.6121 343.42 90.4721 343.7 90.3221 343.98C90.1821 344.23 90.0421 344.47 89.8921 344.7C89.8121 344.82 89.7321 344.93 89.6521 345.05C89.6121 345.11 89.4221 345.42 89.6321 345.08C89.8421 344.74 89.6121 345.08 89.5321 345.17C89.4421 345.27 89.3521 345.37 89.2521 345.46C89.0421 345.68 88.8221 345.89 88.5921 346.09C86.9421 347.57 84.9421 348.83 83.9421 350.89C82.6921 353.45 82.5821 356.61 84.5421 358.86C85.5821 360.05 87.2521 360.72 88.8221 360.67C90.5421 360.61 92.1121 359.9 93.5821 359.06C92.0821 358.2 90.5721 357.33 89.0721 356.47C89.0321 360.06 91.2521 363.38 94.5421 364.76C97.8321 366.14 101.842 365.26 104.282 362.68L99.2721 359.76C98.5321 362.81 100.112 365.81 102.742 367.39C105.182 368.85 108.152 368.77 110.872 368.48C111.812 368.38 112.692 368.26 113.532 367.79C114.312 367.36 114.972 366.67 115.422 365.9C116.112 364.72 116.462 363.29 116.912 362.01C117.802 359.44 118.692 356.87 119.582 354.3C120.582 351.42 121.572 348.54 122.572 345.66C123.082 344.18 121.982 342.31 120.472 341.97C118.802 341.59 117.332 342.48 116.782 344.07C115.262 348.47 113.742 352.87 112.222 357.27C111.842 358.36 111.472 359.45 111.092 360.54C110.902 361.08 110.712 361.63 110.522 362.17C110.442 362.4 110.362 362.63 110.282 362.86C110.112 363.33 110.492 362.26 110.252 362.88C110.122 363.22 110.692 362.47 110.412 362.7C110.162 362.9 110.712 362.5 110.692 362.52C110.332 362.75 110.712 362.38 110.872 362.46C110.842 362.45 110.622 362.52 110.582 362.53C110.282 362.63 110.862 362.49 110.882 362.49C110.762 362.48 110.592 362.52 110.462 362.53C110.162 362.56 109.862 362.59 109.562 362.61C109.072 362.65 108.582 362.67 108.092 362.67C107.832 362.67 107.572 362.67 107.302 362.65C107.192 362.65 107.082 362.63 106.972 362.62C106.592 362.6 107.562 362.75 107.002 362.62C106.712 362.55 106.432 362.47 106.142 362.4C106.052 362.38 105.722 362.22 106.102 362.4C106.542 362.61 105.992 362.33 105.942 362.31C105.862 362.27 105.782 362.22 105.702 362.17C105.432 362 105.452 361.82 105.782 362.26C105.662 362.1 105.452 361.97 105.312 361.81C105.232 361.73 104.962 361.4 105.252 361.76C105.542 362.12 105.282 361.78 105.222 361.69C105.162 361.59 105.112 361.47 105.042 361.37C104.862 361.08 105.202 361.92 105.142 361.59C105.122 361.48 105.082 361.36 105.042 361.25C104.922 360.95 105.052 361.85 105.072 361.53C105.072 361.45 105.072 361.35 105.072 361.27C105.042 360.67 104.922 361.96 105.072 361.36C105.372 360.11 104.882 358.6 103.692 357.97C102.502 357.34 100.992 357.45 100.052 358.44C99.9721 358.53 99.8821 358.61 99.8021 358.7C99.7221 358.78 99.3021 359.11 99.6921 358.82C100.062 358.54 99.7121 358.8 99.6321 358.85C99.5321 358.92 99.4321 358.98 99.3221 359.04C99.2121 359.1 99.0121 359.17 98.9221 359.25C99.0021 359.17 99.5321 359.02 99.1421 359.16C98.9121 359.24 98.6821 359.31 98.4521 359.37C98.3021 359.41 98.1521 359.43 98.0121 359.46C97.6421 359.54 98.6421 359.43 98.2721 359.42C98.0321 359.42 97.7921 359.44 97.5521 359.43C97.0521 359.41 97.5021 359.41 97.7221 359.48C97.6121 359.45 97.4821 359.44 97.3721 359.41C97.2621 359.38 97.1421 359.35 97.0221 359.32C96.9021 359.29 96.4221 359.08 96.8721 359.29C97.3221 359.5 96.6221 359.16 96.5021 359.08C96.4021 359.02 96.3021 358.95 96.2021 358.89C95.8921 358.71 96.6921 359.33 96.3121 358.98C96.1321 358.82 95.9621 358.66 95.7921 358.48C95.7121 358.39 95.6421 358.29 95.5521 358.21C96.0421 358.67 95.7921 358.52 95.6521 358.31C95.5221 358.11 95.4021 357.9 95.2921 357.68C95.0621 357.23 95.3321 357.61 95.3421 357.82C95.3421 357.71 95.2621 357.58 95.2221 357.48C95.1521 357.25 95.1321 357 95.0521 356.78C95.2721 357.41 95.1021 357.25 95.0921 356.95C95.0921 356.8 95.0921 356.65 95.0921 356.5C95.1221 354.2 92.5321 352.79 90.5821 353.91C90.3621 354.03 90.1521 354.16 89.9321 354.27C89.8221 354.33 89.3221 354.49 89.2521 354.6C89.3821 354.37 89.7421 354.44 89.3721 354.54C89.2321 354.58 89.1021 354.63 88.9721 354.66C88.8721 354.69 88.7721 354.7 88.6721 354.73C88.3121 354.83 89.3121 354.71 88.7621 354.7C88.2121 354.69 89.4321 354.81 88.6721 354.67C88.3521 354.61 88.9521 354.76 88.9721 354.8C88.9721 354.8 88.7621 354.66 88.7321 354.65C88.7621 354.65 89.3121 355.16 89.0221 354.85C88.9421 354.76 88.8021 354.57 89.0721 354.95C89.4621 355.49 88.9221 354.76 88.9521 354.67C88.9921 354.56 89.1221 355.39 89.1321 355.06C89.1321 355 89.0921 354.91 89.0721 354.86C89.0721 354.86 88.9921 354.6 89.0121 354.58C89.0421 354.54 89.0621 355.44 89.0721 354.94C89.0721 354.77 89.0721 354.59 89.0721 354.42C89.0721 353.79 88.9121 355.09 89.0721 354.46C89.1121 354.28 89.1521 354.11 89.2121 353.94C89.2421 353.86 89.3021 353.73 89.3121 353.65C89.3121 353.64 89.0121 354.26 89.1621 354.01C89.2521 353.86 89.3221 353.69 89.4121 353.54C89.4321 353.5 89.5621 353.35 89.5721 353.29C89.5221 353.51 89.1521 353.8 89.5121 353.38C90.8121 351.86 92.6021 350.86 93.9121 349.36C95.5621 347.47 96.4521 345.22 97.3721 342.91C97.5721 342.41 97.7321 341.79 98.0221 341.33C98.0221 341.35 97.8021 341.84 97.9421 341.52C97.9821 341.42 98.0321 341.31 98.0721 341.21C98.2021 340.9 98.3421 340.58 98.4821 340.27C98.9221 339.26 99.3921 338.27 99.8721 337.28C100.872 335.24 101.972 333.24 103.192 331.33C103.762 330.44 104.362 329.56 104.982 328.71C105.122 328.52 105.272 328.33 105.412 328.13C105.722 327.71 105.362 328.19 105.312 328.25C105.392 328.14 105.482 328.03 105.562 327.93C105.882 327.53 106.202 327.13 106.532 326.74C107.832 325.2 109.232 323.74 110.712 322.37C111.562 321.58 112.442 320.82 113.352 320.1C113.512 319.97 114.222 319.5 113.552 319.94C113.782 319.79 113.992 319.61 114.212 319.45C114.682 319.1 115.152 318.77 115.632 318.44C117.522 317.15 119.502 315.99 121.552 314.97C122.962 314.27 123.462 312.16 122.632 310.87C121.702 309.43 120.032 309.05 118.532 309.79L118.462 309.76Z" fill="black"/>
<path d="M257.863 312.35C265.153 315.94 271.513 321.41 276.163 328.08C279.203 332.43 281.493 337.26 283.463 342.19C284.143 343.89 284.803 345.65 285.983 347.05C287.413 348.76 289.493 349.84 290.833 351.62C292.173 353.4 292.313 356.48 290.293 357.41C288.833 358.08 287.153 357.26 285.763 356.45C285.833 358.8 284.323 361.12 282.143 362C279.963 362.88 277.263 362.27 275.673 360.54C276.193 362.42 274.733 364.38 272.923 365.11C271.113 365.84 269.093 365.67 267.163 365.48C266.633 365.43 266.083 365.37 265.643 365.08C265.053 364.69 264.783 363.97 264.543 363.29C262.413 357.14 260.293 350.99 258.163 344.84" fill="#98CA51"/>
<path d="M256.352 314.94C258.192 315.85 259.972 316.87 261.682 318C262.512 318.55 263.312 319.12 264.102 319.72C264.702 320.17 263.802 319.48 264.222 319.81C264.412 319.96 264.592 320.11 264.782 320.26C265.202 320.6 265.622 320.96 266.042 321.31C267.562 322.63 269.002 324.04 270.352 325.54C271.042 326.3 271.702 327.09 272.332 327.89C272.392 327.97 272.462 328.05 272.522 328.13C272.772 328.45 272.182 327.68 272.432 328.01C272.572 328.2 272.722 328.39 272.862 328.58C273.172 329 273.472 329.43 273.772 329.86C275.042 331.7 276.172 333.63 277.212 335.61C277.742 336.62 278.242 337.64 278.722 338.67C278.942 339.15 279.162 339.64 279.382 340.12C279.502 340.4 279.622 340.68 279.742 340.95C279.792 341.05 279.832 341.16 279.872 341.26C279.952 341.44 280.222 341.82 279.872 341.28C280.142 341.7 280.292 342.29 280.472 342.75C280.672 343.25 280.862 343.75 281.072 344.24C281.552 345.39 282.022 346.55 282.692 347.6C283.362 348.65 284.142 349.56 285.052 350.36C285.792 351.01 286.572 351.6 287.312 352.25C287.742 352.63 288.122 353.04 288.512 353.47C288.742 353.72 288.322 353.22 288.322 353.22C288.342 353.3 288.482 353.46 288.522 353.54C288.572 353.63 288.622 353.72 288.672 353.81C288.822 354.09 288.672 354.2 288.582 353.58C288.612 353.77 288.722 353.98 288.772 354.17C288.792 354.24 288.802 354.32 288.822 354.4C288.952 354.89 288.772 354.3 288.792 354.13C288.772 354.32 288.822 354.54 288.812 354.73C288.812 354.73 288.812 355 288.792 355.02C288.822 354.99 288.972 354.18 288.822 354.72C288.802 354.79 288.782 354.86 288.772 354.93C288.682 355.39 289.082 354.4 288.902 354.67C288.822 354.79 288.482 355.34 288.812 354.88C289.102 354.48 288.922 354.74 288.812 354.83C288.592 355.02 289.492 354.43 289.032 354.66C288.932 354.71 288.722 354.79 289.102 354.66C289.692 354.44 288.912 354.71 288.912 354.69C288.902 354.63 289.552 354.69 289.212 354.64C288.572 354.55 289.252 354.78 289.302 354.7C289.262 354.77 288.602 354.52 288.492 354.49C287.962 354.33 288.542 354.54 288.612 354.55C288.452 354.52 288.272 354.39 288.122 354.32C287.832 354.17 287.552 354.02 287.272 353.86C285.322 352.74 282.732 354.15 282.762 356.45C282.762 356.57 282.762 356.69 282.762 356.81C282.762 356.93 282.702 357.48 282.762 356.95C282.822 356.42 282.692 357.19 282.652 357.34C282.612 357.47 282.522 357.64 282.512 357.77C282.512 357.66 282.792 357.18 282.602 357.55C282.492 357.76 282.382 357.98 282.252 358.18C282.192 358.28 281.862 358.7 282.172 358.32C282.462 357.96 282.182 358.29 282.122 358.37C281.962 358.55 281.792 358.72 281.612 358.88C281.242 359.21 281.522 358.87 281.722 358.8C281.622 358.83 281.512 358.94 281.422 359C281.322 359.06 281.212 359.12 281.112 359.18C281.012 359.23 280.522 359.47 280.982 359.25C281.402 359.05 281.022 359.22 280.912 359.25C280.802 359.29 280.682 359.32 280.562 359.35C280.442 359.38 280.322 359.4 280.212 359.42C279.842 359.5 280.922 359.38 280.382 359.39C280.142 359.39 279.902 359.39 279.662 359.39C279.252 359.39 279.802 359.41 279.922 359.44C279.782 359.4 279.622 359.39 279.482 359.36C279.242 359.31 279.012 359.24 278.792 359.16C278.312 358.99 278.772 359.08 278.922 359.22C278.842 359.15 278.692 359.11 278.602 359.06C278.392 358.94 278.202 358.78 277.992 358.67C278.562 358.96 278.312 358.93 278.112 358.74C278.002 358.64 277.892 358.53 277.792 358.42C276.912 357.49 275.242 357.25 274.152 357.95C273.002 358.69 272.452 360 272.772 361.34C272.772 360.67 272.902 361.86 272.772 361.34C272.772 361.42 272.742 361.53 272.762 361.6C272.742 361.51 272.932 360.87 272.782 361.32C272.752 361.4 272.722 361.49 272.702 361.57C272.642 361.86 272.822 361.28 272.842 361.27C272.742 361.38 272.532 361.74 272.472 361.89C272.622 361.47 272.812 361.5 272.602 361.71C272.542 361.78 272.472 361.85 272.412 361.91C272.352 361.97 272.272 362.04 272.212 362.1C271.852 362.45 272.312 362 272.382 361.98C272.202 362.03 271.992 362.23 271.832 362.32C271.762 362.36 271.652 362.39 271.582 362.44C271.732 362.32 272.112 362.25 271.712 362.36C271.462 362.43 271.212 362.5 270.962 362.56C270.852 362.58 270.372 362.65 270.812 362.6C271.252 362.55 270.842 362.6 270.772 362.6C270.212 362.63 269.652 362.65 269.082 362.62C268.592 362.6 268.102 362.56 267.612 362.51C267.462 362.5 267.312 362.48 267.162 362.47C266.722 362.42 267.072 362.47 267.162 362.47C267.722 362.54 267.162 362.47 267.162 362.46C266.912 362.38 266.902 362.39 267.142 362.49C267.342 362.59 267.372 362.6 267.232 362.52C266.932 362.35 267.492 362.73 267.482 362.72C267.112 362.42 267.632 362.82 267.632 362.91C267.632 362.87 267.532 362.71 267.502 362.68C267.332 362.43 267.612 362.98 267.622 362.99C267.482 362.46 267.252 361.95 267.072 361.43C266.692 360.34 266.322 359.25 265.942 358.16C265.172 355.94 264.412 353.72 263.642 351.5C262.782 349.01 261.922 346.52 261.062 344.03C260.552 342.55 258.982 341.41 257.372 341.93C255.902 342.4 254.732 344.03 255.272 345.62C257.052 350.76 258.822 355.9 260.602 361.03C261.562 363.8 262.242 367.46 265.572 368.24C266.852 368.54 268.322 368.61 269.642 368.62C271.302 368.63 272.912 368.35 274.442 367.68C277.452 366.34 279.352 362.97 278.562 359.72L273.552 362.64C275.992 365.22 280.022 366.1 283.292 364.72C286.562 363.34 288.802 360.02 288.762 356.43C287.262 357.29 285.752 358.16 284.252 359.02C285.392 359.67 286.612 360.29 287.912 360.5C289.752 360.8 291.452 360.41 292.902 359.21C294.782 357.64 295.132 354.84 294.562 352.58C293.972 350.24 292.292 348.57 290.482 347.1C290.062 346.76 289.642 346.42 289.242 346.06C289.062 345.9 288.892 345.74 288.722 345.58C288.612 345.47 288.112 345.07 288.102 344.91C288.102 344.93 288.512 345.5 288.182 345.02C288.102 344.9 288.022 344.79 287.942 344.67C287.792 344.44 287.642 344.19 287.512 343.95C287.262 343.49 286.902 342.94 286.772 342.43C286.792 342.5 287.032 343.06 286.832 342.56C286.782 342.43 286.722 342.3 286.672 342.17C286.562 341.91 286.462 341.64 286.362 341.38C286.132 340.82 285.912 340.25 285.672 339.69C285.132 338.4 284.582 337.12 283.992 335.85C282.972 333.65 281.862 331.49 280.602 329.41C278.192 325.42 275.252 321.71 271.872 318.5C268.172 314.99 263.942 312 259.372 309.74C257.972 309.04 256.062 309.32 255.272 310.82C254.552 312.18 254.842 314.18 256.352 314.92V314.94Z" fill="black"/>
<path d="M169.301 227.64C172.388 227.64 174.891 225.137 174.891 222.05C174.891 218.963 172.388 216.46 169.301 216.46C166.214 216.46 163.711 218.963 163.711 222.05C163.711 225.137 166.214 227.64 169.301 227.64Z" fill="black"/>
<path d="M213.662 227.64C216.75 227.64 219.252 225.137 219.252 222.05C219.252 218.963 216.75 216.46 213.662 216.46C210.575 216.46 208.072 218.963 208.072 222.05C208.072 225.137 210.575 227.64 213.662 227.64Z" fill="black"/>
<path d="M225.211 244.91C224.951 243.55 223.641 242.67 222.291 242.92C222.121 242.96 204.771 246.08 193.191 236.06C192.821 235.74 192.381 235.55 191.921 235.48V235.45C191.851 235.45 191.781 235.45 191.711 235.46C191.641 235.46 191.571 235.44 191.501 235.45V235.48C191.051 235.55 190.601 235.74 190.231 236.06C178.651 246.08 161.311 242.96 161.131 242.92C159.781 242.66 158.471 243.55 158.211 244.91C157.951 246.27 158.841 247.58 160.201 247.83C160.451 247.88 162.411 248.24 165.411 248.38C171.521 248.67 181.901 248.04 190.721 241.99C191.321 241.57 192.111 241.57 192.711 241.99C201.531 248.04 211.911 248.67 218.021 248.38C221.021 248.24 222.981 247.88 223.231 247.83C224.591 247.57 225.481 246.26 225.221 244.91H225.211Z" fill="black"/>
</g>
<defs>
<clipPath id="clip0_873_996">
<rect width="380.54" height="573" fill="white" transform="translate(0.03125)"/>
</clipPath>
</defs>
</svg>
