<svg width="381" height="573" viewBox="0 0 381 573" fill="none" xmlns="http://www.w3.org/2000/svg">
<g clip-path="url(#clip0_873_1174)">
<path d="M358.385 0H22.3852C10.0859 0 0.115234 9.97062 0.115234 22.27V550.73C0.115234 563.029 10.0859 573 22.3852 573H358.385C370.685 573 380.655 563.029 380.655 550.73V22.27C380.655 9.97062 370.685 0 358.385 0Z" fill="white"/>
<path d="M319.346 95.66C338.123 95.66 353.346 80.4377 353.346 61.66C353.346 42.8823 338.123 27.66 319.346 27.66C300.568 27.66 285.346 42.8823 285.346 61.66C285.346 80.4377 300.568 95.66 319.346 95.66Z" fill="#FFBA35"/>
<path d="M333.325 46.1517C333.325 46.6532 333.325 47.2243 333.325 47.8651C333.325 48.478 333.311 49.1049 333.283 49.7457C333.199 50.3864 333.102 51.0272 332.99 51.668C332.907 52.2809 332.754 52.7824 332.531 53.1724L319.868 78.7479C319.645 79.1658 319.381 79.4166 319.074 79.5001C318.768 79.5837 318.252 79.6255 317.528 79.6255L310.382 79.5419L323.922 52.462H308V46.1517H333.325Z" fill="white"/>
<path d="M107.482 441.23C107.482 442.497 107.482 443.94 107.482 445.559C107.482 447.108 107.446 448.692 107.376 450.311C107.165 451.93 106.919 453.549 106.637 455.168C106.426 456.717 106.039 457.984 105.475 458.969L73.4817 523.59C72.9186 524.646 72.2498 525.28 71.4755 525.491C70.7012 525.702 69.3989 525.808 67.5687 525.808L49.5128 525.597L83.7239 457.174H43.4941V441.23H107.482Z" fill="#FFBA35"/>
<path d="M265.266 361.72L121.926 348.24V303.16H266.786L265.266 361.72Z" fill="#98CA51"/>
<path d="M121.627 312.02C118.397 310.75 115.237 309.29 112.167 307.6C108.117 305.36 104.257 302.78 100.717 299.84C97.0068 296.74 93.6668 293.2 90.9268 289.24C83.8268 279 81.6968 266.65 83.8868 254.56C84.3968 251.74 85.1168 248.96 85.9968 246.24C85.9968 246.24 89.4768 228.83 116.347 206.55C115.347 203.32 114.807 199.91 114.807 196.37C114.807 176.91 131.017 161.14 151.017 161.14C168.127 161.14 182.447 172.69 186.237 188.2C186.847 188.08 189.837 188.1 191.027 188.12C192.227 188.11 195.217 188.08 195.817 188.2C199.607 172.68 213.927 161.14 231.037 161.14C251.037 161.14 267.247 176.91 267.247 196.37C267.247 199.91 266.707 203.33 265.707 206.55C292.587 228.82 296.057 246.24 296.057 246.24C296.937 248.97 297.657 251.75 298.167 254.56C300.357 266.65 298.227 279 291.127 289.24C288.387 293.19 285.047 296.73 281.337 299.84C279.687 301.22 277.947 302.48 276.187 303.71C273.357 305.7 270.597 307.79 267.737 309.73L263.057 312.02" fill="#98CA51"/>
<path d="M121.626 315.52C121.196 315.52 120.766 315.44 120.346 315.28C116.786 313.88 113.566 312.37 110.476 310.66C106.116 308.25 102.086 305.52 98.4861 302.53C94.3761 299.09 90.8661 295.29 88.0561 291.23C80.7161 280.64 78.0161 267.39 80.4461 253.93C80.9561 251.12 81.6861 248.22 82.6161 245.31C83.1361 243.06 87.7261 226.32 112.376 205.31C111.666 202.38 111.306 199.38 111.306 196.36C111.306 175 129.116 157.63 151.016 157.63C168.496 157.63 183.656 168.58 188.846 184.6C189.456 184.6 190.186 184.6 191.066 184.61C191.906 184.61 192.606 184.59 193.206 184.6C198.406 168.58 213.566 157.63 231.036 157.63C252.926 157.63 270.746 175 270.746 196.36C270.746 199.38 270.386 202.38 269.676 205.31C294.336 226.33 298.916 243.07 299.436 245.31C300.366 248.22 301.096 251.12 301.606 253.93C304.046 267.39 301.346 280.64 293.996 291.23C291.186 295.29 287.676 299.09 283.576 302.52C281.926 303.9 280.226 305.14 278.196 306.57C277.086 307.35 275.976 308.15 274.876 308.95C273.196 310.17 271.466 311.42 269.696 312.62L269.276 312.86L264.596 315.15C262.856 316 260.766 315.28 259.916 313.55C259.066 311.81 259.786 309.72 261.516 308.87L265.976 306.69C267.586 305.6 269.196 304.42 270.766 303.29C271.896 302.47 273.026 301.65 274.176 300.85C276.066 299.52 277.626 298.38 279.096 297.15C282.716 294.12 285.796 290.79 288.256 287.25C294.536 278.19 296.836 266.8 294.726 255.18C294.266 252.62 293.596 249.97 292.736 247.3L292.636 246.91C292.606 246.77 288.846 230.25 263.486 209.23L261.686 207.74L262.376 205.5C263.296 202.53 263.766 199.46 263.766 196.35C263.766 178.85 249.096 164.62 231.056 164.62C215.826 164.62 202.746 174.65 199.236 189.01L198.446 192.26L195.256 191.63C194.886 191.6 193.526 191.56 191.086 191.6C188.566 191.57 187.206 191.6 186.836 191.63L183.646 192.26L182.856 189.01C179.356 174.65 166.266 164.62 151.036 164.62C133.006 164.62 118.326 178.85 118.326 196.35C118.326 199.45 118.796 202.53 119.716 205.5L120.406 207.74L118.606 209.23C93.2461 230.25 89.4861 246.76 89.4461 246.93L89.3461 247.3C88.4861 249.97 87.8161 252.62 87.3561 255.17C85.2561 266.79 87.5461 278.18 93.8261 287.24C96.2861 290.78 99.3661 294.12 102.986 297.15C106.236 299.85 109.906 302.34 113.876 304.53C116.696 306.09 119.656 307.47 122.936 308.76C124.736 309.47 125.616 311.5 124.906 313.3C124.366 314.68 123.046 315.52 121.646 315.52H121.626ZM195.146 191.63C195.146 191.63 195.146 191.63 195.156 191.63H195.146ZM186.906 191.63H186.896C186.896 191.63 186.896 191.63 186.906 191.63Z" fill="black"/>
<path d="M118.135 344.24C116.655 363.96 118.705 383.92 118.705 383.92L112.785 390.51C109.525 394.14 111.665 399.94 116.495 400.58C140.935 403.78 192.035 392.96 192.035 392.96C192.035 392.96 244.915 404.16 268.815 400.4C273.105 399.73 274.915 394.55 272.025 391.33L265.375 383.92C265.375 383.92 265.775 368.51 265.485 354.98V346.28" fill="#98CA51"/>
<path d="M127.155 404.68C123.115 404.68 119.355 404.49 116.045 404.06C112.525 403.6 109.565 401.24 108.325 397.9C107.085 394.56 107.795 390.83 110.175 388.18L115.065 382.73C114.615 377.61 113.365 360.85 114.635 343.98C114.775 342.05 116.455 340.6 118.385 340.75C120.315 340.89 121.755 342.57 121.615 344.5C120.175 363.67 122.155 383.37 122.175 383.56L122.335 385.1L115.385 392.85C114.445 393.89 114.725 395.02 114.885 395.46C115.045 395.89 115.565 396.93 116.945 397.11C140.505 400.21 190.805 389.64 191.305 389.53L192.025 389.38L192.755 389.53C193.275 389.64 245.285 400.55 268.265 396.94C269.295 396.78 269.685 395.99 269.805 395.66C269.925 395.32 270.125 394.46 269.415 393.66L261.835 385.22L261.875 383.83C261.875 383.68 262.275 368.35 261.985 355.06V346.28C261.985 344.35 263.555 342.78 265.485 342.78C267.415 342.78 268.985 344.35 268.985 346.28V354.98C269.225 366.02 268.995 378.5 268.905 382.61L274.625 388.99C276.825 391.45 277.505 394.9 276.405 398.01C275.305 401.11 272.605 403.35 269.355 403.86C246.355 407.48 198.755 397.93 192.025 396.53C186.365 397.7 151.665 404.67 127.135 404.67L127.155 404.68Z" fill="black"/>
<g style="mix-blend-mode:multiply" opacity="0.6">
<path d="M211.876 189.61C211.366 184.48 207.996 179.66 204.146 176.39C198.846 171.9 193.306 173.81 188.206 177.59C184.496 180.34 176.446 185.82 179.476 191.4C181.996 196.05 185.666 199.69 189.536 203.21C192.316 205.74 195.236 208.43 199.266 207.11C204.936 205.25 210.636 199.1 211.736 193.28C211.966 192.05 212.006 190.82 211.886 189.6L211.876 189.61Z" fill="#B2B6B5"/>
</g>
<path d="M208.486 186.05C207.976 180.92 204.606 176.1 200.756 172.83C195.456 168.34 189.916 170.25 184.816 174.03C181.096 176.78 173.056 182.26 176.086 187.85C178.606 192.5 182.276 196.14 186.146 199.66C188.926 202.19 191.846 204.88 195.876 203.56C201.546 201.7 207.246 195.55 208.336 189.73C208.566 188.5 208.606 187.27 208.486 186.05Z" fill="#908882"/>
<path d="M193.787 204.2C190.707 204.2 188.317 202.02 186.007 199.92L185.957 199.87C182.447 196.68 178.487 192.87 175.837 187.98C172.847 182.47 180.127 177.12 184.037 174.25L184.657 173.8C188.167 171.2 191.277 169.94 194.167 169.94C196.577 169.94 198.857 170.84 200.957 172.62C205.397 176.39 208.327 181.4 208.787 186.03C208.917 187.31 208.867 188.57 208.637 189.79C207.547 195.61 201.867 201.92 195.977 203.84C195.247 204.08 194.507 204.2 193.797 204.2H193.787ZM194.157 170.52C191.387 170.52 188.387 171.75 184.987 174.27L184.367 174.72C180.597 177.49 173.587 182.64 176.337 187.71C178.937 192.52 182.867 196.29 186.337 199.45L186.387 199.5C188.617 201.53 190.917 203.63 193.777 203.63C194.427 203.63 195.107 203.52 195.777 203.3C201.487 201.43 206.987 195.33 208.047 189.69C208.267 188.53 208.317 187.32 208.197 186.09C207.747 181.6 204.897 176.73 200.567 173.06C198.577 171.37 196.427 170.52 194.157 170.52Z" fill="#626262"/>
<path d="M193.787 205.2C190.317 205.2 187.667 202.79 185.337 200.67C181.717 197.37 177.677 193.49 174.957 188.47C171.557 182.19 179.287 176.51 183.437 173.46L184.047 173.01C187.727 170.28 191.037 168.95 194.157 168.95C196.807 168.95 199.307 169.93 201.587 171.86C206.227 175.79 209.287 181.05 209.767 185.94C209.907 187.31 209.847 188.67 209.597 189.98C208.447 196.12 202.467 202.77 196.267 204.8C195.437 205.07 194.597 205.21 193.777 205.21L193.787 205.2ZM194.157 171.52C191.607 171.52 188.807 172.68 185.587 175.07L184.967 175.53C181.447 178.12 174.897 182.94 177.227 187.24C179.757 191.91 183.607 195.61 187.017 198.71C189.157 200.66 191.317 202.62 193.787 202.62C194.337 202.62 194.907 202.53 195.477 202.34C200.877 200.58 206.077 194.81 207.077 189.5C207.277 188.43 207.327 187.32 207.207 186.19C206.787 181.95 204.067 177.33 199.927 173.83C198.127 172.3 196.187 171.53 194.157 171.53V171.52Z" fill="#0F0F0F"/>
<g style="mix-blend-mode:multiply" opacity="0.4">
<path d="M208.486 186.05C207.976 180.92 204.606 176.1 200.756 172.83C195.456 168.34 189.916 170.25 184.816 174.03C181.096 176.78 173.056 182.26 176.086 187.85C178.606 192.5 182.276 196.14 186.146 199.66C188.926 202.19 191.846 204.88 195.876 203.56C201.546 201.7 207.246 195.55 208.336 189.73C208.566 188.5 208.606 187.27 208.486 186.05ZM196.856 190.52C196.666 193.04 196.396 198.65 193.066 199.21C190.566 199.63 187.766 196.95 186.116 195.43C183.426 192.97 180.446 190.56 178.466 187.46C177.636 186.15 176.996 184.91 177.486 183.36C177.896 182.06 179.166 181.01 180.156 180.15C182.036 178.53 183.936 176.9 185.976 175.49C187.926 173.68 190.176 171.8 192.866 171.98C195.466 172.15 196.006 175.45 196.326 177.48C196.996 181.75 197.186 186.22 196.856 190.53V190.52Z" fill="#908882"/>
</g>
<g style="mix-blend-mode:multiply" opacity="0.4">
<path d="M177.547 185.7C177.347 185.12 177.257 184.53 177.357 183.88C176.767 183.7 176.187 183.56 175.717 183.51C175.397 184.49 175.327 185.49 175.567 186.5C176.227 186.23 176.887 185.96 177.547 185.7Z" fill="#908882"/>
</g>
<g style="mix-blend-mode:multiply" opacity="0.4">
<path d="M193.697 199.03C193.497 199.11 193.287 199.18 193.067 199.21C192.817 199.25 192.567 199.26 192.307 199.24C192.427 200.79 192.617 202.33 192.937 203.84C193.847 203.97 194.827 203.9 195.867 203.56C195.967 203.53 196.067 203.48 196.167 203.45C195.267 202.02 194.417 200.55 193.697 199.03Z" fill="#908882"/>
</g>
<g style="mix-blend-mode:multiply" opacity="0.4">
<path d="M196.847 181.99C197.067 184.83 197.077 187.71 196.857 190.52C196.747 191.89 196.617 194.19 195.987 196.09C197.807 195.17 199.857 194.55 201.577 193.73C203.907 192.62 206.087 191.25 208.297 189.91C208.307 189.85 208.327 189.79 208.337 189.74C208.567 188.51 208.607 187.28 208.487 186.06C207.977 180.93 204.607 176.11 200.757 172.84C199.007 171.35 197.227 170.57 195.438 170.32C196.087 173.84 196.977 177.25 196.877 180.92C196.877 181.28 196.847 181.64 196.837 181.99H196.847Z" fill="#908882"/>
</g>
<g style="mix-blend-mode:screen" opacity="0.4">
<path d="M195.157 173.47C195.867 174.65 196.137 176.27 196.327 177.47C196.997 181.74 197.187 186.21 196.857 190.52C196.667 193.04 196.397 198.65 193.067 199.21C192.977 199.23 192.887 199.23 192.797 199.23C193.787 199.45 194.777 199.39 195.647 198.82C198.437 197.02 198.607 192.87 198.747 189.91C198.907 186.39 199.077 182.87 198.417 179.37C197.947 176.89 197.347 174.49 195.157 173.46V173.47Z" fill="white"/>
</g>
<g style="mix-blend-mode:multiply" opacity="0.4">
<path d="M183.826 180.22C183.596 180.04 183.346 180.09 183.126 180.22C182.866 180.3 182.656 180.53 182.526 180.78C182.336 181.17 182.186 181.9 182.686 182.11C182.936 182.21 183.336 182 183.506 181.83C183.776 181.55 183.976 181.27 184.056 180.88C184.096 180.67 184.006 180.35 183.836 180.21L183.826 180.22Z" fill="#908882"/>
</g>
<g style="mix-blend-mode:multiply" opacity="0.4">
<path d="M185.067 182.79C185.067 182.79 185.007 182.75 184.987 182.73C184.647 182.49 184.017 183.18 184.247 183.51C184.267 183.54 184.287 183.57 184.307 183.6C184.647 184.08 185.477 183.08 185.077 182.8L185.067 182.79Z" fill="#908882"/>
</g>
<g style="mix-blend-mode:multiply" opacity="0.4">
<path d="M188.215 188.27C188.215 188.27 188.175 188.23 188.135 188.21C188.055 188.15 187.895 188.32 187.945 188.4C187.915 188.45 187.915 188.5 187.975 188.51C188.005 188.51 188.035 188.51 188.075 188.51C188.165 188.51 188.295 188.34 188.215 188.27Z" fill="#908882"/>
</g>
<g style="mix-blend-mode:multiply" opacity="0.4">
<path d="M202.836 190.48C202.836 190.48 202.786 190.48 202.756 190.49C202.746 190.49 202.726 190.5 202.716 190.51C202.706 190.51 202.696 190.52 202.676 190.54C202.676 190.54 202.676 190.54 202.666 190.54C202.646 190.55 202.636 190.58 202.616 190.6C202.616 190.6 202.616 190.62 202.606 190.63C202.606 190.65 202.586 190.67 202.586 190.69C202.586 190.69 202.586 190.7 202.586 190.71C202.586 190.74 202.586 190.77 202.636 190.79H202.656C202.656 190.79 202.716 190.79 202.746 190.76C202.876 190.74 203.016 190.47 202.836 190.47V190.48Z" fill="#908882"/>
</g>
<g style="mix-blend-mode:multiply" opacity="0.4">
<path d="M203.827 184.31C203.847 184.13 203.817 183.96 203.727 183.84C203.677 183.78 203.627 183.77 203.547 183.79C203.457 183.82 203.387 183.87 203.317 183.93C203.327 183.85 203.247 183.81 203.157 183.9C203.007 184.05 202.947 184.3 202.947 184.5C202.947 184.69 203.007 185.04 203.267 185.03C203.547 185.02 203.737 184.75 203.797 184.45C203.817 184.4 203.827 184.35 203.817 184.31H203.827Z" fill="#908882"/>
</g>
<g style="mix-blend-mode:multiply" opacity="0.4">
<path d="M204.966 188.25C204.906 188.09 204.706 188.31 204.666 188.39C204.446 188.62 204.616 188.89 204.856 188.62C204.956 188.51 205.026 188.39 204.966 188.24V188.25Z" fill="#908882"/>
</g>
<g style="mix-blend-mode:multiply" opacity="0.4">
<path d="M204.287 193.71C204.137 193.67 203.997 193.71 203.867 193.83C203.597 193.81 203.447 194.07 203.367 194.28C203.277 194.51 203.207 194.86 203.417 195.03C203.667 195.25 204.037 194.97 204.207 194.78C204.257 194.73 204.267 194.71 204.257 194.72C204.297 194.68 204.327 194.64 204.357 194.59C204.427 194.48 204.457 194.36 204.487 194.23C204.537 194.04 204.497 193.78 204.287 193.71Z" fill="#908882"/>
</g>
<g style="mix-blend-mode:multiply" opacity="0.4">
<path d="M197.787 200.05C197.787 200.05 197.747 200.07 197.717 200.08C197.657 200.1 197.487 200.28 197.597 200.34C197.607 200.34 197.627 200.36 197.637 200.36C197.867 200.49 198.007 199.96 197.777 200.05H197.787Z" fill="#908882"/>
</g>
<g style="mix-blend-mode:multiply" opacity="0.4">
<path d="M188.457 199.51C188.437 199.36 188.277 199.41 188.177 199.53C188.177 199.53 188.157 199.51 188.147 199.51C188.037 199.44 187.887 199.64 187.927 199.74C188.017 199.97 188.147 200.25 188.427 200.08C188.527 200.02 188.607 199.9 188.617 199.79C188.637 199.64 188.467 199.63 188.457 199.52V199.51Z" fill="#908882"/>
</g>
<g style="mix-blend-mode:multiply" opacity="0.4">
<path d="M180.076 190.48C180.076 190.48 180.076 190.44 180.046 190.42C179.976 190.26 179.846 190.14 179.686 190.1C179.506 190.06 179.326 190.3 179.336 190.47C179.336 190.56 179.376 190.63 179.416 190.69C179.416 190.94 179.566 191.2 179.806 191.26C179.916 191.28 180.016 191.19 180.066 191.1C180.156 190.93 180.156 190.69 180.076 190.48Z" fill="#908882"/>
</g>
<g style="mix-blend-mode:multiply" opacity="0.4">
<path d="M186.877 192.66C186.877 192.66 186.847 192.7 186.837 192.72C186.797 192.72 186.747 192.72 186.707 192.72C186.447 192.8 186.387 193.1 186.417 193.34C186.457 193.63 186.707 193.88 186.977 193.97C187.297 194.08 187.607 193.78 187.797 193.56C188.317 192.98 187.437 192 186.867 192.65L186.877 192.66Z" fill="#908882"/>
</g>
<g style="mix-blend-mode:multiply" opacity="0.4">
<path d="M194.155 177.33C193.965 177.33 193.825 177.44 193.725 177.59C193.705 177.59 193.685 177.59 193.675 177.61C193.395 177.74 193.235 178.25 193.465 178.49C194.295 179.33 194.775 177.34 194.155 177.34V177.33Z" fill="#908882"/>
</g>
<g style="mix-blend-mode:multiply" opacity="0.4">
<path d="M184.266 175.15C184.186 175.19 184.116 175.24 184.056 175.29C183.886 175.33 183.746 175.54 183.696 175.69C183.686 175.73 183.676 175.8 183.716 175.83C183.966 176.03 184.496 175.49 184.436 175.23C184.416 175.15 184.346 175.11 184.266 175.15Z" fill="#908882"/>
</g>
<g style="mix-blend-mode:multiply" opacity="0.4">
<path d="M180.016 185.44C180.016 185.44 179.896 185.42 179.846 185.44C179.836 185.42 179.826 185.4 179.816 185.38C179.796 185.35 179.766 185.33 179.726 185.34C179.396 185.41 179.386 185.82 179.576 186.03C179.776 186.25 180.246 185.67 180.006 185.44H180.016Z" fill="#908882"/>
</g>
<g style="mix-blend-mode:multiply" opacity="0.4">
<path d="M200.637 179.89C200.587 179.83 200.517 179.86 200.457 179.91C200.447 179.91 200.427 179.91 200.407 179.91C200.177 180.03 200.057 180.55 200.327 180.68C200.487 180.75 200.617 180.6 200.697 180.47C200.817 180.28 200.767 180.04 200.627 179.87L200.637 179.89Z" fill="#908882"/>
</g>
<g style="mix-blend-mode:multiply" opacity="0.4">
<path d="M201.807 177.51C201.807 177.51 201.767 177.48 201.747 177.46C201.687 177.34 201.467 177.53 201.497 177.64C201.517 177.73 201.527 177.75 201.617 177.78C201.727 177.82 201.927 177.57 201.807 177.5V177.51Z" fill="#908882"/>
</g>
<g style="mix-blend-mode:multiply" opacity="0.4">
<path d="M197.277 172.27C197.277 172.27 197.277 172.21 197.247 172.19C197.207 172.17 197.187 172.13 197.177 172.09C197.177 172.09 197.167 172.07 197.157 172.07C197.087 171.99 196.987 172.11 196.937 172.21C196.937 172.18 196.927 172.15 196.937 172.13C196.957 172.08 196.887 172.1 196.877 172.13C196.817 172.26 197.007 172.75 197.187 172.69C197.367 172.63 197.347 172.44 197.287 172.28L197.277 172.27Z" fill="#908882"/>
</g>
<g style="mix-blend-mode:multiply" opacity="0.4">
<path d="M206.277 182.62C206.277 182.62 206.257 182.6 206.247 182.59C206.307 182.42 206.127 182.4 206.017 182.49C205.947 182.55 205.817 182.82 206.017 182.81C206.057 182.81 206.097 182.82 206.127 182.84C206.217 182.87 206.337 182.7 206.277 182.63V182.62Z" fill="#908882"/>
</g>
<g style="mix-blend-mode:multiply" opacity="0.4">
<path d="M200.237 190.13C200.207 190.19 200.177 190.25 200.147 190.31C200.117 190.35 200.067 190.41 200.097 190.46C200.097 190.46 200.097 190.46 200.097 190.47C200.117 190.51 200.177 190.51 200.217 190.48C200.347 190.38 200.427 190.31 200.477 190.14C200.547 189.93 200.297 189.99 200.237 190.12V190.13Z" fill="#908882"/>
</g>
<g style="mix-blend-mode:multiply" opacity="0.4">
<path d="M199.326 196.88C199.326 196.88 199.326 196.83 199.306 196.82C199.006 196.61 198.806 197.36 199.216 197.14C199.276 197.11 199.376 196.96 199.326 196.88Z" fill="#908882"/>
</g>
<path d="M233.677 395.64C241.467 387.23 246.207 376.25 246.207 364.22C246.207 337.8 223.447 316.39 195.377 316.39C167.307 316.39 144.547 337.81 144.547 364.22C144.547 376 149.087 386.79 156.597 395.12C175.777 392.77 192.927 389.26 192.927 389.26C192.927 389.26 212.807 393.33 233.697 395.64H233.677Z" fill="white"/>
<path d="M122.707 312.35C115.417 315.94 109.057 321.41 104.407 328.08C101.367 332.43 99.0767 337.26 97.1067 342.19C96.4267 343.89 95.7667 345.65 94.5867 347.05C93.1567 348.76 91.0767 349.84 89.7367 351.62C88.3967 353.4 88.2567 356.48 90.2767 357.41C91.7367 358.08 93.4167 357.26 94.8067 356.45C94.7367 358.8 96.2467 361.12 98.4267 362C100.607 362.88 103.307 362.27 104.897 360.54C104.377 362.42 105.837 364.38 107.647 365.11C109.457 365.84 111.477 365.67 113.407 365.48C113.937 365.43 114.487 365.37 114.927 365.08C115.517 364.69 115.787 363.97 116.027 363.29C118.157 357.14 120.277 350.99 122.407 344.84" fill="#98CA51"/>
<path d="M121.196 309.76C112.966 313.84 105.936 320.2 100.926 327.89C98.1764 332.12 96.0764 336.72 94.2064 341.4C94.0964 341.66 93.9964 341.93 93.8964 342.19C93.8464 342.32 93.7864 342.45 93.7364 342.58C93.7064 342.65 93.5664 342.99 93.7264 342.61C93.8864 342.21 93.7064 342.64 93.6664 342.74C93.6064 342.87 93.5464 343 93.4864 343.13C93.3464 343.42 93.2064 343.7 93.0564 343.98C92.9164 344.23 92.7764 344.47 92.6264 344.7C92.5464 344.82 92.4664 344.93 92.3864 345.05C92.3464 345.11 92.1564 345.42 92.3664 345.08C92.5764 344.74 92.3464 345.08 92.2664 345.17C92.1764 345.27 92.0864 345.37 91.9864 345.46C91.7764 345.68 91.5564 345.89 91.3264 346.09C89.6764 347.57 87.6764 348.83 86.6764 350.89C85.4264 353.45 85.3164 356.61 87.2764 358.86C88.3164 360.05 89.9864 360.72 91.5564 360.67C93.2764 360.61 94.8464 359.9 96.3164 359.06C94.8164 358.2 93.3064 357.33 91.8064 356.47C91.7664 360.06 93.9864 363.38 97.2764 364.76C100.566 366.14 104.576 365.26 107.016 362.68L102.006 359.76C101.266 362.81 102.846 365.81 105.476 367.39C107.916 368.85 110.886 368.77 113.606 368.48C114.546 368.38 115.426 368.26 116.266 367.79C117.046 367.36 117.706 366.67 118.156 365.9C118.846 364.72 119.196 363.29 119.646 362.01C120.536 359.44 121.426 356.87 122.316 354.3C123.316 351.42 124.306 348.54 125.306 345.66C125.816 344.18 124.716 342.31 123.206 341.97C121.536 341.59 120.066 342.48 119.516 344.07C117.996 348.47 116.476 352.87 114.956 357.27C114.576 358.36 114.206 359.45 113.826 360.54C113.636 361.08 113.446 361.63 113.256 362.17C113.176 362.4 113.096 362.63 113.016 362.86C112.846 363.33 113.226 362.26 112.986 362.88C112.856 363.22 113.426 362.47 113.146 362.7C112.896 362.9 113.446 362.5 113.426 362.52C113.066 362.75 113.446 362.38 113.606 362.46C113.576 362.45 113.356 362.52 113.316 362.53C113.016 362.63 113.596 362.49 113.616 362.49C113.496 362.48 113.326 362.52 113.196 362.53C112.896 362.56 112.596 362.59 112.296 362.61C111.806 362.65 111.316 362.67 110.826 362.67C110.566 362.67 110.306 362.67 110.036 362.65C109.926 362.65 109.816 362.63 109.706 362.62C109.326 362.6 110.296 362.75 109.736 362.62C109.446 362.55 109.166 362.47 108.876 362.4C108.786 362.38 108.456 362.22 108.836 362.4C109.276 362.61 108.726 362.33 108.676 362.31C108.596 362.27 108.516 362.22 108.436 362.17C108.166 362 108.186 361.82 108.516 362.26C108.396 362.1 108.186 361.97 108.046 361.81C107.966 361.73 107.696 361.4 107.986 361.76C108.276 362.12 108.016 361.78 107.956 361.69C107.896 361.59 107.846 361.47 107.776 361.37C107.596 361.08 107.936 361.92 107.876 361.59C107.856 361.48 107.816 361.36 107.776 361.25C107.656 360.95 107.786 361.85 107.806 361.53C107.806 361.45 107.806 361.35 107.806 361.27C107.776 360.67 107.656 361.96 107.806 361.36C108.106 360.11 107.616 358.6 106.426 357.97C105.236 357.34 103.726 357.45 102.786 358.44C102.706 358.53 102.616 358.61 102.536 358.7C102.456 358.78 102.036 359.11 102.426 358.82C102.796 358.54 102.446 358.8 102.366 358.85C102.266 358.92 102.166 358.98 102.056 359.04C101.946 359.1 101.746 359.17 101.656 359.25C101.736 359.17 102.266 359.02 101.876 359.16C101.646 359.24 101.416 359.31 101.186 359.37C101.036 359.41 100.886 359.43 100.746 359.46C100.376 359.54 101.376 359.43 101.006 359.42C100.766 359.42 100.526 359.44 100.286 359.43C99.7864 359.41 100.236 359.41 100.456 359.48C100.346 359.45 100.216 359.44 100.106 359.41C99.9964 359.38 99.8764 359.35 99.7564 359.32C99.6364 359.29 99.1564 359.08 99.6064 359.29C100.056 359.5 99.3564 359.16 99.2364 359.08C99.1364 359.02 99.0364 358.95 98.9364 358.89C98.6264 358.71 99.4264 359.33 99.0464 358.98C98.8664 358.82 98.6964 358.66 98.5264 358.48C98.4464 358.39 98.3764 358.29 98.2864 358.21C98.7764 358.67 98.5264 358.52 98.3864 358.31C98.2564 358.11 98.1364 357.9 98.0264 357.68C97.7964 357.23 98.0664 357.61 98.0764 357.82C98.0764 357.71 97.9964 357.58 97.9564 357.48C97.8864 357.25 97.8664 357 97.7864 356.78C98.0064 357.41 97.8364 357.25 97.8264 356.95C97.8264 356.8 97.8264 356.65 97.8264 356.5C97.8564 354.2 95.2664 352.79 93.3164 353.91C93.0964 354.03 92.8864 354.16 92.6664 354.27C92.5564 354.33 92.0564 354.49 91.9864 354.6C92.1164 354.37 92.4764 354.44 92.1064 354.54C91.9664 354.58 91.8364 354.63 91.7064 354.66C91.6064 354.69 91.5064 354.7 91.4064 354.73C91.0464 354.83 92.0464 354.71 91.4964 354.7C90.9464 354.69 92.1664 354.81 91.4064 354.67C91.0864 354.61 91.6864 354.76 91.7064 354.8C91.7064 354.8 91.4964 354.66 91.4664 354.65C91.4964 354.65 92.0464 355.16 91.7564 354.85C91.6764 354.76 91.5364 354.57 91.8064 354.95C92.1964 355.49 91.6564 354.76 91.6864 354.67C91.7264 354.56 91.8564 355.39 91.8664 355.06C91.8664 355 91.8264 354.91 91.8064 354.86C91.8064 354.86 91.7264 354.6 91.7464 354.58C91.7764 354.54 91.7964 355.44 91.8064 354.94C91.8064 354.77 91.8064 354.59 91.8064 354.42C91.8064 353.79 91.6464 355.09 91.8064 354.46C91.8464 354.28 91.8864 354.11 91.9464 353.94C91.9764 353.86 92.0364 353.73 92.0464 353.65C92.0464 353.64 91.7464 354.26 91.8964 354.01C91.9864 353.86 92.0564 353.69 92.1464 353.54C92.1664 353.5 92.2964 353.35 92.3064 353.29C92.2564 353.51 91.8864 353.8 92.2464 353.38C93.5464 351.86 95.3364 350.86 96.6464 349.36C98.2964 347.47 99.1864 345.22 100.106 342.91C100.306 342.41 100.466 341.79 100.756 341.33C100.756 341.35 100.536 341.84 100.676 341.52C100.716 341.42 100.766 341.31 100.806 341.21C100.936 340.9 101.076 340.58 101.216 340.27C101.656 339.26 102.126 338.27 102.606 337.28C103.606 335.24 104.706 333.24 105.926 331.33C106.496 330.44 107.096 329.56 107.716 328.71C107.856 328.52 108.006 328.33 108.146 328.13C108.456 327.71 108.096 328.19 108.046 328.25C108.126 328.14 108.216 328.03 108.296 327.93C108.616 327.53 108.936 327.13 109.266 326.74C110.566 325.2 111.966 323.74 113.446 322.37C114.296 321.58 115.176 320.82 116.086 320.1C116.246 319.97 116.956 319.5 116.286 319.94C116.516 319.79 116.726 319.61 116.946 319.45C117.416 319.1 117.886 318.77 118.366 318.44C120.256 317.15 122.236 315.99 124.286 314.97C125.696 314.27 126.196 312.16 125.366 310.87C124.436 309.43 122.766 309.05 121.266 309.79L121.196 309.76Z" fill="black"/>
<path d="M260.598 312.35C267.888 315.94 274.248 321.41 278.898 328.08C281.938 332.43 284.228 337.26 286.198 342.19C286.878 343.89 287.538 345.65 288.718 347.05C290.148 348.76 292.228 349.84 293.568 351.62C294.908 353.4 295.048 356.48 293.028 357.41C291.568 358.08 289.888 357.26 288.498 356.45C288.568 358.8 287.058 361.12 284.878 362C282.698 362.88 279.998 362.27 278.408 360.54C278.928 362.42 277.468 364.38 275.658 365.11C273.848 365.84 271.828 365.67 269.898 365.48C269.368 365.43 268.818 365.37 268.378 365.08C267.788 364.69 267.518 363.97 267.278 363.29C265.148 357.14 263.028 350.99 260.898 344.84" fill="#98CA51"/>
<path d="M259.077 314.94C260.917 315.85 262.697 316.87 264.407 318C265.237 318.55 266.037 319.12 266.827 319.72C267.427 320.17 266.527 319.48 266.947 319.81C267.137 319.96 267.317 320.11 267.507 320.26C267.927 320.6 268.347 320.96 268.767 321.31C270.287 322.63 271.727 324.04 273.077 325.54C273.767 326.3 274.427 327.09 275.057 327.89C275.117 327.97 275.187 328.05 275.247 328.13C275.497 328.45 274.907 327.68 275.157 328.01C275.297 328.2 275.447 328.39 275.587 328.58C275.897 329 276.197 329.43 276.497 329.86C277.767 331.7 278.897 333.63 279.937 335.61C280.467 336.62 280.967 337.64 281.447 338.67C281.667 339.15 281.887 339.64 282.107 340.12C282.227 340.4 282.347 340.68 282.467 340.95C282.517 341.05 282.557 341.16 282.597 341.26C282.677 341.44 282.947 341.82 282.597 341.28C282.867 341.7 283.017 342.29 283.197 342.75C283.397 343.25 283.587 343.75 283.797 344.24C284.277 345.39 284.747 346.55 285.417 347.6C286.087 348.65 286.867 349.56 287.777 350.36C288.517 351.01 289.297 351.6 290.037 352.25C290.467 352.63 290.847 353.04 291.237 353.47C291.467 353.72 291.047 353.22 291.047 353.22C291.067 353.3 291.207 353.46 291.247 353.54C291.297 353.63 291.347 353.72 291.397 353.81C291.547 354.09 291.397 354.2 291.307 353.58C291.337 353.77 291.447 353.98 291.497 354.17C291.517 354.24 291.527 354.32 291.547 354.4C291.677 354.89 291.497 354.3 291.517 354.13C291.497 354.32 291.547 354.54 291.537 354.73C291.537 354.73 291.537 355 291.517 355.02C291.547 354.99 291.697 354.18 291.547 354.72C291.527 354.79 291.507 354.86 291.497 354.93C291.407 355.39 291.807 354.4 291.627 354.67C291.547 354.79 291.207 355.34 291.537 354.88C291.827 354.48 291.647 354.74 291.537 354.83C291.317 355.02 292.217 354.43 291.757 354.66C291.657 354.71 291.447 354.79 291.827 354.66C292.417 354.44 291.637 354.71 291.637 354.69C291.627 354.63 292.277 354.69 291.937 354.64C291.297 354.55 291.977 354.78 292.027 354.7C291.987 354.77 291.327 354.52 291.217 354.49C290.687 354.33 291.267 354.54 291.337 354.55C291.177 354.52 290.997 354.39 290.847 354.32C290.557 354.17 290.277 354.02 289.997 353.86C288.047 352.74 285.457 354.15 285.487 356.45C285.487 356.57 285.487 356.69 285.487 356.81C285.487 356.93 285.427 357.48 285.487 356.95C285.547 356.42 285.417 357.19 285.377 357.34C285.337 357.47 285.247 357.64 285.237 357.77C285.237 357.66 285.517 357.18 285.327 357.55C285.217 357.76 285.107 357.98 284.977 358.18C284.917 358.28 284.587 358.7 284.897 358.32C285.187 357.96 284.907 358.29 284.847 358.37C284.687 358.55 284.517 358.72 284.337 358.88C283.967 359.21 284.247 358.87 284.447 358.8C284.347 358.83 284.237 358.94 284.147 359C284.047 359.06 283.937 359.12 283.837 359.18C283.737 359.23 283.247 359.47 283.707 359.25C284.127 359.05 283.747 359.22 283.637 359.25C283.527 359.29 283.407 359.32 283.287 359.35C283.167 359.38 283.047 359.4 282.937 359.42C282.567 359.5 283.647 359.38 283.107 359.39C282.867 359.39 282.627 359.39 282.387 359.39C281.977 359.39 282.527 359.41 282.647 359.44C282.507 359.4 282.347 359.39 282.207 359.36C281.967 359.31 281.737 359.24 281.517 359.16C281.037 358.99 281.497 359.08 281.647 359.22C281.567 359.15 281.417 359.11 281.327 359.06C281.117 358.94 280.927 358.78 280.717 358.67C281.287 358.96 281.037 358.93 280.837 358.74C280.727 358.64 280.617 358.53 280.517 358.42C279.637 357.49 277.967 357.25 276.877 357.95C275.727 358.69 275.177 360 275.497 361.34C275.497 360.67 275.627 361.86 275.497 361.34C275.497 361.42 275.467 361.53 275.487 361.6C275.467 361.51 275.657 360.87 275.507 361.32C275.477 361.4 275.447 361.49 275.427 361.57C275.367 361.86 275.547 361.28 275.567 361.27C275.467 361.38 275.257 361.74 275.197 361.89C275.347 361.47 275.537 361.5 275.327 361.71C275.267 361.78 275.197 361.85 275.137 361.91C275.077 361.97 274.997 362.04 274.937 362.1C274.577 362.45 275.037 362 275.107 361.98C274.927 362.03 274.717 362.23 274.557 362.32C274.487 362.36 274.377 362.39 274.307 362.44C274.457 362.32 274.837 362.25 274.437 362.36C274.187 362.43 273.937 362.5 273.687 362.56C273.577 362.58 273.097 362.65 273.537 362.6C273.977 362.55 273.567 362.6 273.497 362.6C272.937 362.63 272.377 362.65 271.807 362.62C271.317 362.6 270.827 362.56 270.337 362.51C270.187 362.5 270.037 362.48 269.887 362.47C269.447 362.42 269.797 362.47 269.887 362.47C270.447 362.54 269.887 362.47 269.887 362.46C269.637 362.38 269.627 362.39 269.867 362.49C270.067 362.59 270.097 362.6 269.957 362.52C269.657 362.35 270.217 362.73 270.207 362.72C269.837 362.42 270.357 362.82 270.357 362.91C270.357 362.87 270.257 362.71 270.227 362.68C270.057 362.43 270.337 362.98 270.347 362.99C270.207 362.46 269.977 361.95 269.797 361.43C269.417 360.34 269.047 359.25 268.667 358.16C267.897 355.94 267.137 353.72 266.367 351.5C265.507 349.01 264.647 346.52 263.787 344.03C263.277 342.55 261.707 341.41 260.097 341.93C258.627 342.4 257.457 344.03 257.997 345.62C259.777 350.76 261.547 355.9 263.327 361.03C264.287 363.8 264.967 367.46 268.297 368.24C269.577 368.54 271.047 368.61 272.367 368.62C274.027 368.63 275.637 368.35 277.167 367.68C280.177 366.34 282.077 362.97 281.287 359.72L276.277 362.64C278.717 365.22 282.747 366.1 286.017 364.72C289.287 363.34 291.527 360.02 291.487 356.43C289.987 357.29 288.477 358.16 286.977 359.02C288.117 359.67 289.337 360.29 290.637 360.5C292.477 360.8 294.177 360.41 295.627 359.21C297.507 357.64 297.857 354.84 297.287 352.58C296.697 350.24 295.017 348.57 293.207 347.1C292.787 346.76 292.367 346.42 291.967 346.06C291.787 345.9 291.617 345.74 291.447 345.58C291.337 345.47 290.837 345.07 290.827 344.91C290.827 344.93 291.237 345.5 290.907 345.02C290.827 344.9 290.747 344.79 290.667 344.67C290.517 344.44 290.367 344.19 290.237 343.95C289.987 343.49 289.627 342.94 289.497 342.43C289.517 342.5 289.757 343.06 289.557 342.56C289.507 342.43 289.447 342.3 289.397 342.17C289.287 341.91 289.187 341.64 289.087 341.38C288.857 340.82 288.637 340.25 288.397 339.69C287.857 338.4 287.307 337.12 286.717 335.85C285.697 333.65 284.587 331.49 283.327 329.41C280.917 325.42 277.977 321.71 274.597 318.5C270.897 314.99 266.667 312 262.097 309.74C260.697 309.04 258.787 309.32 257.997 310.82C257.277 312.18 257.567 314.18 259.077 314.92V314.94Z" fill="black"/>
<path d="M172.026 227.64C175.113 227.64 177.616 225.137 177.616 222.05C177.616 218.963 175.113 216.46 172.026 216.46C168.938 216.46 166.436 218.963 166.436 222.05C166.436 225.137 168.938 227.64 172.026 227.64Z" fill="black"/>
<path d="M216.397 227.64C219.484 227.64 221.987 225.137 221.987 222.05C221.987 218.963 219.484 216.46 216.397 216.46C213.309 216.46 210.807 218.963 210.807 222.05C210.807 225.137 213.309 227.64 216.397 227.64Z" fill="black"/>
<path d="M227.936 244.91C227.676 243.55 226.366 242.67 225.016 242.92C224.846 242.96 207.496 246.08 195.916 236.06C195.546 235.74 195.106 235.55 194.646 235.48V235.45C194.576 235.45 194.506 235.45 194.436 235.46C194.366 235.46 194.296 235.44 194.226 235.45V235.48C193.776 235.55 193.326 235.74 192.956 236.06C181.376 246.08 164.036 242.96 163.856 242.92C162.506 242.66 161.196 243.55 160.936 244.91C160.676 246.27 161.566 247.58 162.926 247.83C163.176 247.88 165.136 248.24 168.136 248.38C174.246 248.67 184.626 248.04 193.446 241.99C194.046 241.57 194.836 241.57 195.436 241.99C204.256 248.04 214.636 248.67 220.746 248.38C223.746 248.24 225.706 247.88 225.956 247.83C227.316 247.57 228.206 246.26 227.946 244.91H227.936Z" fill="black"/>
</g>
<defs>
<clipPath id="clip0_873_1174">
<rect width="380.54" height="573" fill="white" transform="translate(0.115234)"/>
</clipPath>
</defs>
</svg>
