<svg width="382" height="573" viewBox="0 0 382 573" fill="none" xmlns="http://www.w3.org/2000/svg">
<g clip-path="url(#clip0_873_1957)">
<path d="M358.842 0H22.8423C10.5429 0 0.572266 9.97062 0.572266 22.27V550.73C0.572266 563.029 10.5429 573 22.8423 573H358.842C371.142 573 381.112 563.029 381.112 550.73V22.27C381.112 9.97062 371.142 0 358.842 0Z" fill="#98CA51"/>
<path d="M319.803 95.66C338.58 95.66 353.803 80.4377 353.803 61.66C353.803 42.8823 338.58 27.66 319.803 27.66C301.025 27.66 285.803 42.8823 285.803 61.66C285.803 80.4377 301.025 95.66 319.803 95.66Z" fill="white"/>
<path d="M319.535 56.1996C321.29 56.1996 322.934 56.4086 324.466 56.8265C326.026 57.2444 327.364 57.8991 328.478 58.7906C329.565 59.6821 330.414 60.8244 331.027 62.2174C331.64 63.5825 331.905 65.2124 331.821 67.1068C331.738 69.3635 331.473 71.2858 331.027 72.8739C330.582 74.434 329.871 75.6599 328.896 76.5514C327.893 77.415 326.5 78.0419 324.717 78.4319C322.934 78.7941 321.039 78.9752 319.034 78.9752C315.077 78.9752 312.069 78.0976 310.007 76.3424C307.945 74.5594 306.873 71.6619 306.789 67.6501V55.6146C306.873 51.9371 308.001 49.2346 310.174 47.5073C312.375 45.7521 315.245 44.8188 318.783 44.7074L328.645 44.7492C328.617 46.2815 328.478 47.4795 328.227 48.3431C328.004 49.1789 327.67 49.7918 327.224 50.1819C326.779 50.6276 326.249 50.8923 325.636 50.9759C325.023 51.0595 324.341 51.1013 323.589 51.1013H319.702C318.727 51.157 317.919 51.3659 317.278 51.7281C316.665 52.0903 316.178 52.5361 315.816 53.0654C315.454 53.5669 315.203 54.138 315.063 54.7788C314.924 55.3917 314.855 55.9628 314.855 56.4922V56.8683C315.412 56.6733 316.094 56.52 316.902 56.4086C317.71 56.2693 318.588 56.1996 319.535 56.1996ZM314.855 68.5695C314.855 69.0988 314.896 69.6421 314.98 70.1993C315.091 70.7286 315.286 71.2162 315.565 71.6619C315.844 72.1356 316.248 72.5117 316.777 72.7903C317.306 73.0689 318.003 73.2082 318.866 73.2082C320.761 73.2082 322.14 72.8321 323.004 72.0798C323.867 71.2998 324.299 69.9486 324.299 68.0262C324.299 65.9924 323.825 64.5855 322.878 63.8054C321.959 63.0254 320.287 62.6353 317.863 62.6353C317.39 62.6353 316.874 62.7189 316.317 62.8861C315.788 63.0254 315.3 63.2064 314.855 63.4293V68.5695Z" fill="#98CA51"/>
<path d="M69.0625 546.34C87.8402 546.34 103.062 531.118 103.062 512.34C103.062 493.562 87.8402 478.34 69.0625 478.34C50.2848 478.34 35.0625 493.562 35.0625 512.34C35.0625 531.118 50.2848 546.34 69.0625 546.34Z" fill="#98CA51"/>
<path d="M80.2069 469.423C84.6417 469.423 88.7949 469.951 92.6665 471.006C96.6086 472.062 99.9874 473.717 102.803 475.969C105.549 478.222 107.695 481.108 109.244 484.628C110.793 488.077 111.462 492.195 111.25 496.982C111.039 502.683 110.37 507.541 109.244 511.553C108.118 515.495 106.323 518.592 103.859 520.845C101.325 523.027 97.8052 524.611 93.3001 525.597C88.7949 526.512 84.0081 526.969 78.9398 526.969C68.944 526.969 61.3415 524.752 56.1324 520.317C50.9233 515.812 48.2131 508.491 48.002 498.354V467.944C48.2131 458.652 51.0641 451.824 56.5547 447.46C62.1158 443.025 69.3663 440.667 78.3063 440.385L103.226 440.491C103.155 444.363 102.803 447.39 102.17 449.572C101.606 451.684 100.762 453.232 99.6355 454.218C98.5092 455.344 97.1717 456.013 95.623 456.224C94.0744 456.435 92.3498 456.541 90.4491 456.541H80.6293C78.1655 456.681 76.1241 457.209 74.505 458.125C72.9564 459.04 71.7245 460.166 70.8094 461.503C69.8943 462.77 69.2607 464.214 68.9088 465.833C68.5568 467.381 68.3808 468.824 68.3808 470.162V471.112C69.7887 470.619 71.5133 470.232 73.5547 469.951C75.5961 469.599 77.8135 469.423 80.2069 469.423ZM68.3808 500.677C68.3808 502.015 68.4864 503.387 68.6976 504.795C68.9792 506.133 69.4719 507.365 70.1759 508.491C70.8798 509.688 71.9005 510.638 73.238 511.342C74.5754 512.046 76.3353 512.398 78.5175 512.398C83.3042 512.398 86.7887 511.447 88.9709 509.547C91.1531 507.576 92.2442 504.162 92.2442 499.305C92.2442 494.166 91.0475 490.611 88.6541 488.64C86.3311 486.669 82.1075 485.683 75.9833 485.683C74.7866 485.683 73.4843 485.895 72.0765 486.317C70.739 486.669 69.5071 487.127 68.3808 487.69V500.677Z" fill="white"/>
<path d="M263.832 362.59L120.492 349.11V304.03H265.362L263.832 362.59Z" fill="#D6AF43"/>
<path d="M120.193 312.89C116.963 311.62 113.803 310.16 110.733 308.47C106.683 306.23 102.823 303.65 99.2832 300.71C95.5732 297.61 92.2332 294.07 89.4932 290.11C82.3932 279.87 80.2632 267.52 82.4532 255.43C82.9632 252.61 83.6832 249.83 84.5632 247.11C84.5632 247.11 88.0432 229.7 114.913 207.42C113.913 204.19 113.373 200.78 113.373 197.24C113.373 177.78 129.583 162.01 149.583 162.01C166.693 162.01 181.013 173.56 184.803 189.07C185.413 188.95 188.403 188.97 189.593 188.99C190.793 188.98 193.783 188.95 194.383 189.07C198.173 173.55 212.493 162.01 229.603 162.01C249.603 162.01 265.813 177.78 265.813 197.24C265.813 200.78 265.273 204.2 264.273 207.42C291.153 229.69 294.623 247.11 294.623 247.11C295.503 249.84 296.223 252.62 296.733 255.43C298.923 267.52 296.793 279.87 289.693 290.11C286.953 294.06 283.613 297.6 279.903 300.71C278.253 302.09 276.513 303.35 274.753 304.58C271.923 306.57 269.163 308.66 266.303 310.6L261.623 312.89" fill="#D6AF43"/>
<path d="M120.192 316.39C119.762 316.39 119.332 316.31 118.912 316.14C115.352 314.74 112.132 313.23 109.042 311.53C104.682 309.12 100.642 306.38 97.0525 303.4C92.9425 299.97 89.4425 296.17 86.6225 292.11C79.2825 281.52 76.5825 268.27 79.0125 254.81C79.5225 252 80.2525 249.1 81.1825 246.19C81.7025 243.94 86.2825 227.2 110.942 206.19C110.232 203.26 109.872 200.26 109.872 197.24C109.872 175.89 127.682 158.51 149.582 158.51C167.062 158.51 182.222 169.46 187.412 185.48C188.022 185.48 188.752 185.48 189.632 185.49C190.472 185.49 191.182 185.49 191.772 185.48C196.972 169.46 212.132 158.51 229.602 158.51C251.492 158.51 269.312 175.88 269.312 197.24C269.312 200.26 268.952 203.26 268.242 206.19C292.902 227.21 297.482 243.95 298.002 246.19C298.932 249.1 299.662 252 300.172 254.81C302.612 268.27 299.912 281.52 292.562 292.11C289.752 296.17 286.242 299.97 282.142 303.4C280.492 304.78 278.802 306.02 276.762 307.45C275.642 308.24 274.532 309.04 273.422 309.85C271.752 311.06 270.022 312.32 268.262 313.51L267.842 313.75L263.162 316.04C261.422 316.89 259.332 316.17 258.482 314.44C257.632 312.7 258.352 310.61 260.082 309.76L264.542 307.58C266.142 306.49 267.752 305.32 269.312 304.19C270.452 303.36 271.592 302.54 272.732 301.73C274.622 300.4 276.192 299.26 277.652 298.04C281.272 295.01 284.352 291.68 286.812 288.13C293.092 279.07 295.392 267.68 293.282 256.06C292.822 253.5 292.152 250.85 291.292 248.19L291.192 247.8C291.162 247.66 287.402 231.14 262.042 210.12L260.242 208.63L260.932 206.39C261.852 203.42 262.322 200.35 262.322 197.24C262.322 179.74 247.652 165.51 229.612 165.51C214.382 165.51 201.302 175.54 197.792 189.9L197.002 193.15L193.812 192.52C193.472 192.49 192.272 192.45 189.642 192.48C186.942 192.45 185.732 192.48 185.392 192.52L182.202 193.15L181.412 189.9C177.902 175.54 164.822 165.51 149.592 165.51C131.562 165.51 116.882 179.74 116.882 197.24C116.882 200.34 117.352 203.42 118.272 206.39L118.962 208.63L117.162 210.12C91.8025 231.14 88.0425 247.65 88.0025 247.82L87.9025 248.19C87.0425 250.86 86.3725 253.51 85.9125 256.06C83.8125 267.68 86.1025 279.07 92.3825 288.13C94.8425 291.67 97.9225 295.01 101.542 298.03C104.792 300.73 108.462 303.21 112.442 305.41C115.262 306.97 118.222 308.35 121.502 309.64C123.302 310.35 124.182 312.38 123.472 314.18C122.932 315.56 121.612 316.4 120.212 316.4L120.192 316.39Z" fill="black"/>
<path d="M116.702 345.11C115.222 364.83 117.272 384.79 117.272 384.79L111.352 391.38C108.092 395.01 110.232 400.81 115.062 401.45C139.502 404.65 190.602 393.83 190.602 393.83C190.602 393.83 243.482 405.03 267.382 401.27C271.672 400.6 273.482 395.42 270.592 392.2L263.942 384.79C263.942 384.79 264.342 369.38 264.052 355.85V347.15" fill="#D6AF43"/>
<path d="M125.722 405.55C121.682 405.55 117.922 405.36 114.612 404.93C111.092 404.47 108.132 402.11 106.892 398.77C105.652 395.43 106.362 391.7 108.742 389.05L113.632 383.6C113.182 378.48 111.932 361.72 113.202 344.85C113.342 342.92 115.022 341.48 116.952 341.62C118.882 341.76 120.322 343.44 120.182 345.37C118.742 364.54 120.722 384.24 120.742 384.43L120.902 385.97L113.952 393.72C113.012 394.76 113.292 395.89 113.452 396.33C113.612 396.76 114.132 397.8 115.512 397.98C139.082 401.07 189.372 390.51 189.872 390.4L190.602 390.25L191.332 390.4C191.852 390.51 243.862 401.42 266.842 397.81C267.872 397.65 268.262 396.86 268.382 396.53C268.502 396.19 268.702 395.33 267.992 394.53L260.412 386.09L260.452 384.7C260.452 384.55 260.852 369.22 260.562 355.93V347.15C260.562 345.22 262.132 343.65 264.062 343.65C265.992 343.65 267.562 345.22 267.562 347.15V355.85C267.802 366.89 267.572 379.37 267.482 383.48L273.202 389.86C275.402 392.31 276.082 395.77 274.982 398.88C273.882 401.98 271.182 404.22 267.942 404.73C244.942 408.35 197.342 398.8 190.612 397.4C184.952 398.57 150.252 405.54 125.722 405.54V405.55Z" fill="black"/>
<path d="M232.243 396.51C240.033 388.1 244.773 377.12 244.773 365.09C244.773 338.67 222.013 317.26 193.943 317.26C165.873 317.26 143.113 338.68 143.113 365.09C143.113 376.87 147.653 387.66 155.163 395.99C174.343 393.64 191.493 390.13 191.493 390.13C191.493 390.13 211.373 394.2 232.263 396.51H232.243Z" fill="white"/>
<path d="M251.812 186.67C251.812 186.67 248.402 175.91 251.572 165.05C251.622 164.87 251.862 164.82 251.992 164.96L253.532 166.75C253.532 166.75 256.602 137.08 284.442 120.64C284.442 120.64 294.042 124.64 292.352 134.34C290.672 144.04 268.702 172.03 261.962 177.83C261.962 177.83 262.932 177.95 265.252 177.48C265.462 177.44 265.622 177.68 265.492 177.85C264.332 179.39 260.202 184.14 251.812 186.65V186.67Z" fill="#EF6600"/>
<path d="M249.852 190.39L248.962 187.58C248.812 187.1 245.312 175.81 248.702 164.21C249.042 163.07 249.972 162.2 251.132 161.95C251.202 161.94 251.272 161.92 251.332 161.91C253.392 152.63 260.402 131.35 282.912 118.06L284.202 117.3L285.592 117.88C289.672 119.58 296.962 125.32 295.302 134.86C293.742 143.82 277.302 165.82 268.032 175.98C268.032 175.98 268.032 175.99 268.042 176C268.762 177.15 268.702 178.59 267.892 179.67C266.342 181.73 261.752 186.83 252.672 189.54L249.842 190.39H249.852ZM253.422 171.25C252.942 175.83 253.462 180.03 253.962 182.72C255.652 182.01 257.082 181.22 258.282 180.42L254.842 180.01L260.012 175.56C266.982 169.56 287.952 142.2 289.402 133.83C290.332 128.47 286.612 125.37 284.552 124.09C259.622 139.73 256.552 166.78 256.522 167.06L255.802 174.01L253.432 171.24L253.422 171.25Z" fill="#0F0F0F"/>
<path d="M292.323 129.84C291.013 123.4 284.443 120.66 284.443 120.66C282.503 121.8 280.693 123.01 278.983 124.27C278.943 124.4 274.463 139 292.323 129.84Z" fill="#3FC9B1"/>
<path d="M282.942 135.85C280.952 135.85 279.322 135.31 278.032 134.22C274.072 130.9 275.742 124.62 276.112 123.39L276.402 122.44L277.202 121.85C279.052 120.49 280.972 119.21 282.912 118.07L284.202 117.31L285.592 117.89C285.922 118.03 293.642 121.34 295.252 129.24L295.712 131.47L293.692 132.51C289.352 134.74 285.782 135.85 282.952 135.85H282.942ZM281.632 126.05C281.352 127.52 281.382 129.19 281.882 129.62C281.892 129.63 283.232 130.65 288.602 128.29C287.522 126.25 285.732 124.87 284.532 124.11C283.552 124.73 282.582 125.38 281.632 126.05Z" fill="#0F0F0F"/>
<path d="M276.56 137.76L264.41 139.39C263.57 140.62 262.78 141.89 262.03 143.18C261.64 143.85 261.26 144.52 260.89 145.2C260.52 145.88 260.07 146.52 259.82 147.21C260.07 147.29 260.44 147.2 260.71 147.18L262.3 147.06C263.7 146.96 265.1 146.85 266.5 146.75C267.95 146.64 269.4 146.53 270.85 146.42L276.65 160.79C278.32 158.59 279.98 156.32 281.57 154.06L276.56 137.77V137.76Z" fill="#FFB727"/>
<path d="M275.841 166.81L268.891 149.57L260.931 150.17C260.461 150.23 259.711 150.33 258.881 150.06L255.961 149.1L256.991 146.21C257.261 145.44 257.661 144.78 257.971 144.24C258.071 144.08 258.161 143.91 258.251 143.76C258.631 143.06 259.031 142.37 259.431 141.68C260.281 140.22 261.101 138.93 261.931 137.71L262.681 136.61L278.681 134.46L284.871 154.58L284.031 155.78C282.471 158 280.791 160.3 279.041 162.6L275.851 166.81H275.841ZM272.811 143.26L277.421 154.7C277.701 154.31 277.981 153.92 278.261 153.53L274.431 141.08L266.141 142.19C265.801 142.72 265.461 143.27 265.111 143.84L272.811 143.26Z" fill="#0F0F0F"/>
<path d="M249.352 194.8C249.352 194.8 249.422 194.49 249.552 193.91C249.682 193.33 249.872 192.48 250.162 191.42C250.452 190.35 250.802 189.05 251.242 187.58C251.462 186.84 251.702 186.06 251.952 185.23C252.202 184.4 252.512 183.55 252.812 182.64C253.392 180.83 254.122 178.91 254.882 176.86C255.262 175.84 255.702 174.81 256.122 173.74C256.552 172.68 256.972 171.59 257.462 170.5C258.432 168.33 259.382 166.05 260.512 163.81C261.062 162.68 261.612 161.55 262.172 160.41C262.762 159.29 263.362 158.16 263.952 157.03C265.122 154.76 266.432 152.57 267.692 150.39C268.012 149.85 268.322 149.3 268.632 148.77C268.942 148.23 269.302 147.72 269.622 147.19C270.292 146.15 270.952 145.12 271.602 144.11C272.852 142.07 274.262 140.2 275.532 138.39C276.172 137.49 276.782 136.61 277.402 135.78C278.052 134.96 278.672 134.17 279.272 133.41C280.472 131.9 281.552 130.49 282.582 129.3C283.622 128.12 284.532 127.09 285.282 126.24C286.022 125.39 286.632 124.74 287.032 124.28C287.442 123.83 287.652 123.59 287.652 123.59C287.652 123.59 287.462 123.85 287.092 124.33C286.722 124.81 286.202 125.52 285.512 126.4C284.822 127.29 283.992 128.37 283.032 129.6C282.542 130.21 282.092 130.91 281.582 131.62C281.072 132.33 280.542 133.08 279.982 133.86C279.422 134.64 278.842 135.45 278.242 136.29C277.672 137.15 277.082 138.04 276.472 138.95C275.272 140.79 273.952 142.68 272.742 144.73C271.502 146.77 270.172 148.84 268.962 151.03C268.342 152.11 267.712 153.21 267.092 154.3C266.312 155.62 265.672 157.01 264.902 158.34C264.392 159.32 263.872 160.29 263.362 161.27C262.852 162.31 262.342 163.34 261.832 164.37C260.702 166.59 259.692 168.82 258.682 170.97C258.162 172.04 257.732 173.12 257.262 174.16C256.812 175.21 256.342 176.22 255.922 177.22C255.112 179.23 254.292 181.12 253.622 182.89C252.922 184.65 252.312 186.28 251.782 187.72C251.242 189.16 250.812 190.43 250.452 191.48C250.102 192.53 249.832 193.35 249.642 193.92C249.462 194.49 249.372 194.79 249.372 194.79L249.352 194.8Z" fill="#603913"/>
<path d="M252.212 195.7L246.422 194.16L246.622 193.27C246.762 192.66 246.962 191.77 247.262 190.65C247.572 189.49 247.932 188.19 248.362 186.72L249.072 184.36C249.242 183.79 249.442 183.22 249.642 182.63L249.952 181.7C250.462 180.12 251.072 178.46 251.722 176.71L252.052 175.82C252.312 175.13 252.582 174.45 252.862 173.75L253.582 171.96C253.942 171.07 254.302 170.16 254.712 169.26C254.962 168.69 255.222 168.11 255.482 167.52C256.202 165.87 256.952 164.17 257.812 162.46L259.452 159.1L261.272 155.63C262.272 153.69 263.382 151.78 264.452 149.94L266.012 147.25C266.232 146.87 266.482 146.48 266.722 146.1C266.832 145.93 266.942 145.76 267.052 145.58L269.042 142.47C269.992 140.92 271.022 139.47 272.032 138.07C272.372 137.59 272.712 137.12 273.042 136.65L273.742 135.67C274.152 135.09 274.562 134.52 274.962 133.97L277.702 130.49C278.592 129.36 279.442 128.29 280.262 127.33L282.992 124.24C283.512 123.65 283.962 123.15 284.332 122.74L285.382 121.57L290.002 125.39L289.012 126.69C288.692 127.12 288.292 127.64 287.832 128.24L285.352 131.43C285.052 131.81 284.792 132.18 284.532 132.56C284.352 132.82 284.162 133.09 283.962 133.36L280.662 137.98L278.922 140.6C278.582 141.12 278.222 141.66 277.852 142.22C276.982 143.52 276.092 144.87 275.272 146.26C274.912 146.86 274.552 147.44 274.192 148.03C273.302 149.48 272.372 150.97 271.542 152.49L269.652 155.8C269.252 156.47 268.912 157.13 268.542 157.83C268.202 158.49 267.852 159.15 267.482 159.8L265.482 163.68L264.472 165.71C263.572 167.49 262.742 169.27 261.942 170.99L261.352 172.25C261.042 172.9 260.772 173.52 260.512 174.13C260.332 174.56 260.142 174.99 259.952 175.4L259.482 176.46C259.192 177.1 258.912 177.74 258.652 178.37C258.352 179.11 258.052 179.85 257.752 180.57C257.262 181.74 256.802 182.87 256.392 183.95C255.682 185.74 255.082 187.34 254.552 188.77C254.032 190.18 253.602 191.43 253.252 192.45L252.192 195.68L252.212 195.7Z" fill="#0F0F0F"/>
<path d="M252.241 186.23C251.991 185.42 249.011 175.22 252.111 165.03C252.131 164.98 252.191 164.96 252.231 165.01L253.821 166.87C253.821 166.87 253.931 166.9 253.941 166.84C254.211 164.63 258.021 137.57 283.871 122.29C283.891 122.28 283.911 122.28 283.931 122.29C284.501 122.54 293.151 126.47 291.571 135.56C289.951 144.91 268.881 171.8 262.221 177.63C262.181 177.67 262.201 177.73 262.261 177.74C262.621 177.75 263.661 177.74 265.581 177.34C265.691 177.32 265.781 177.43 265.711 177.52C264.881 178.68 260.921 183.69 252.331 186.28C252.301 186.28 252.271 186.28 252.261 186.25L252.241 186.23Z" fill="#EF6600"/>
<path d="M254.841 179.08C252.621 173.46 252.221 167 252.161 165.32C252.161 165.24 252.051 165.24 252.031 165.31C249.071 175.41 252.001 185.43 252.241 186.23C252.241 186.26 252.281 186.27 252.311 186.26C260.951 183.66 264.901 178.62 265.711 177.49C265.751 177.43 265.681 177.37 265.621 177.41C260.591 180.35 255.341 179.23 254.891 179.13C254.871 179.13 254.851 179.11 254.851 179.09L254.841 179.08Z" fill="#FFB300"/>
<path d="M291.521 131.11C290.271 125.15 284.381 122.47 283.921 122.27C283.901 122.27 283.881 122.27 283.861 122.27C281.991 123.37 280.251 124.54 278.611 125.75C278.611 125.75 278.601 125.75 278.601 125.77C278.491 126.14 274.391 139.94 291.481 131.19C291.511 131.18 291.521 131.14 291.521 131.11Z" fill="#3FC9B1"/>
<path d="M264.87 149.85L272.61 165.81C272.61 165.81 272.69 165.86 272.72 165.82C274.29 163.85 275.91 161.76 277.5 159.62C277.51 159.6 277.52 159.58 277.51 159.56L272.7 143.92C272.7 143.92 272.66 143.87 272.63 143.87L261.4 145.38" fill="#3FC9B1"/>
<path d="M276.191 138.86L264.491 140.43C264.491 140.43 264.451 140.44 264.441 140.46C262.681 143.03 261.181 145.61 259.951 148.06L270.661 147.24C270.661 147.24 270.721 147.25 270.731 147.28L276.291 161.06C276.291 161.06 276.371 161.12 276.401 161.08C277.991 158.98 279.571 156.82 281.081 154.67C281.091 154.65 281.101 154.63 281.081 154.61L276.251 138.9C276.251 138.9 276.211 138.85 276.181 138.85L276.191 138.86Z" fill="#FFB727"/>
<path d="M249.861 194.16C249.861 194.16 249.931 193.86 250.051 193.3C250.171 192.74 250.361 191.92 250.641 190.88C250.921 189.84 251.261 188.59 251.691 187.15C251.911 186.43 252.131 185.67 252.381 184.87C252.621 184.07 252.921 183.24 253.211 182.36C253.781 180.61 254.481 178.74 255.221 176.76C255.591 175.77 256.011 174.77 256.421 173.73C256.841 172.7 257.251 171.64 257.721 170.59C258.661 168.48 259.581 166.27 260.671 164.1C261.201 163.01 261.741 161.91 262.271 160.8C262.841 159.71 263.421 158.62 264.001 157.52C265.131 155.32 266.401 153.19 267.631 151.08C267.941 150.55 268.241 150.03 268.541 149.51C268.841 148.99 269.191 148.49 269.501 147.98C270.151 146.97 270.791 145.97 271.421 144.99C272.631 143.01 274.001 141.2 275.231 139.45C275.851 138.58 276.441 137.72 277.041 136.91C277.671 136.12 278.271 135.35 278.851 134.61C280.021 133.14 281.061 131.78 282.061 130.62C283.071 129.47 283.951 128.48 284.681 127.65C285.401 126.83 285.991 126.19 286.381 125.75C286.771 125.31 286.981 125.08 286.981 125.08C286.981 125.08 286.791 125.33 286.441 125.79C286.081 126.25 285.571 126.94 284.901 127.8C284.231 128.66 283.421 129.71 282.491 130.9C282.011 131.49 281.581 132.17 281.081 132.86C280.591 133.55 280.071 134.28 279.531 135.03C278.991 135.78 278.431 136.57 277.841 137.39C277.291 138.22 276.721 139.08 276.131 139.97C274.971 141.75 273.691 143.59 272.511 145.58C271.311 147.56 270.021 149.57 268.851 151.69C268.251 152.74 267.641 153.8 267.031 154.87C266.301 156.1 265.701 157.39 265.001 158.63L263.971 160.51C263.291 161.89 262.611 163.26 261.931 164.63C260.841 166.79 259.851 168.95 258.881 171.03C258.381 172.07 257.961 173.12 257.511 174.12C257.071 175.13 256.621 176.12 256.211 177.09C255.421 179.04 254.631 180.87 253.981 182.59C253.301 184.3 252.711 185.88 252.191 187.28C251.671 188.68 251.251 189.91 250.901 190.93C250.561 191.95 250.301 192.75 250.121 193.29C249.951 193.84 249.861 194.13 249.861 194.13V194.16Z" fill="#603913"/>
<path d="M263.302 147.81L259.962 148.06C259.062 149.89 258.252 151.75 257.512 153.62L266.432 153.12L266.552 151.04" fill="#3FC9B1"/>
<path d="M155.822 234.87C162.942 234.1 170.002 232.92 176.972 231.29C178.752 230.87 179.982 228.73 179.412 226.98C178.812 225.12 177.022 224.09 175.102 224.54C169.862 225.77 164.562 226.75 159.222 227.47L160.152 227.34C158.702 227.53 157.262 227.71 155.812 227.86C154.862 227.96 154.042 228.18 153.342 228.89C152.732 229.5 152.282 230.49 152.312 231.36C152.392 233.09 153.862 235.07 155.812 234.86L155.822 234.87Z" fill="black"/>
<path d="M229.602 227.87C228.152 227.71 226.702 227.54 225.262 227.35L226.192 227.48C220.852 226.76 215.562 225.78 210.312 224.55C208.532 224.13 206.442 225.1 206.002 226.99C205.592 228.78 206.542 230.85 208.442 231.3C215.412 232.93 222.482 234.11 229.592 234.88C230.432 234.97 231.502 234.42 232.062 233.85C232.672 233.24 233.122 232.25 233.092 231.38C233.062 230.51 232.752 229.54 232.062 228.91C231.342 228.24 230.562 227.99 229.592 227.88L229.602 227.87Z" fill="black"/>
<path d="M114.362 217.19C112.192 217.19 110.092 216.49 108.372 215.18C106.302 213.6 104.992 211.23 104.772 208.69C104.402 204.43 104.282 197.72 105.772 189.94C106.552 185.89 109.942 182.86 114.212 182.42C127.522 181.03 197.402 174.5 265.902 182.37C270.462 182.89 274.022 186.47 274.372 190.89C274.992 198.76 274.562 204.62 273.092 208.31C271.692 211.83 268.202 214.13 264.212 214.16C251.342 214.26 137.782 215.19 115.242 217.16C114.942 217.19 114.652 217.2 114.352 217.2L114.362 217.19ZM116.352 193.26C115.492 198.34 115.432 202.81 115.612 206.09C140.292 204.23 240.472 203.34 263.182 203.16C263.582 201.31 263.812 198.01 263.502 193.16C198.062 185.81 131.552 191.71 116.352 193.26Z" fill="black"/>
<mask id="mask0_873_1957" style="mask-type:luminance" maskUnits="userSpaceOnUse" x="110" y="183" width="160" height="29">
<path d="M114.642 187.59C129.292 186.06 197.722 179.74 265.432 187.53C267.302 187.75 268.742 189.14 268.872 190.86C269.202 194.95 269.502 202.27 267.932 206.07C267.362 207.44 265.902 208.33 264.292 208.34C248.982 208.46 136.772 209.39 114.572 211.38C112.372 211.58 110.442 210.09 110.262 208.08C109.922 204.24 109.762 197.91 111.192 190.54C111.492 188.98 112.902 187.78 114.632 187.6L114.642 187.59Z" fill="white"/>
</mask>
<g mask="url(#mask0_873_1957)">
<path d="M213.751 176.37H169.361L180.461 193.89L191.561 211.42L202.651 193.89L213.751 176.37Z" fill="#63D3B3"/>
<path d="M258.142 176.37H213.752L224.852 193.89L235.952 211.42L247.042 193.89L258.142 176.37Z" fill="#63D3B3"/>
<path d="M169.361 176.37H124.971L136.061 193.89L147.161 211.42L158.261 193.89L169.361 176.37Z" fill="#63D3B3"/>
<path d="M124.971 176.37L113.871 193.89L102.771 211.42H124.971H147.161L136.061 193.89L124.971 176.37Z" fill="#EF6600"/>
<path d="M169.362 176.37L158.262 193.89L147.162 211.42H169.362H191.562L180.462 193.89L169.362 176.37Z" fill="#EF6600"/>
<path d="M213.751 176.37L202.651 193.89L191.561 211.42H213.751H235.951L224.851 193.89L213.751 176.37Z" fill="#EF6600"/>
<path d="M269.241 193.89L258.141 176.37L247.041 193.89L235.951 211.42H258.141H280.271V211.31L269.241 193.89Z" fill="#EF6600"/>
<path d="M129.041 199.16C129.041 201.36 127.081 203.15 124.671 203.15C122.261 203.15 120.301 201.37 120.301 199.16C120.301 196.95 122.261 195.17 124.671 195.17C127.081 195.17 129.041 196.96 129.041 199.16Z" fill="#F8C054"/>
<path d="M173.732 199.16C173.732 201.36 171.772 203.15 169.362 203.15C166.952 203.15 164.992 201.37 164.992 199.16C164.992 196.95 166.952 195.17 169.362 195.17C171.772 195.17 173.732 196.96 173.732 199.16Z" fill="#F8C054"/>
<path d="M218.431 199.16C218.431 201.36 216.471 203.15 214.061 203.15C211.651 203.15 209.691 201.37 209.691 199.16C209.691 196.95 211.651 195.17 214.061 195.17C216.471 195.17 218.431 196.96 218.431 199.16Z" fill="#F8C054"/>
<path d="M263.121 199.16C263.121 201.36 261.161 203.15 258.751 203.15C256.341 203.15 254.381 201.37 254.381 199.16C254.381 196.95 256.341 195.17 258.751 195.17C261.161 195.17 263.121 196.96 263.121 199.16Z" fill="#F8C054"/>
<path d="M156.531 183.48H137.791L142.481 190.88L147.161 198.27L151.851 190.88L156.531 183.48Z" fill="#EF6600"/>
<path d="M200.921 183.48H182.191L186.871 190.88L191.551 198.27L196.241 190.88L200.921 183.48Z" fill="#EF6600"/>
<path d="M245.312 183.48H226.582L231.262 190.88L235.942 198.27L240.632 190.88L245.312 183.48Z" fill="#EF6600"/>
<path d="M270.971 183.48H280.271V176.37H258.141L269.241 193.89L280.271 211.31V198.17L275.651 190.88L270.971 183.48Z" fill="#63D3B3"/>
<path d="M102.771 176.37V183.48H112.141L107.451 190.88L102.771 198.27V211.42L113.871 193.89L124.971 176.37H102.771Z" fill="#63D3B3"/>
<path d="M112.141 183.48H102.771V198.27L107.451 190.88L112.141 183.48Z" fill="#F96C41"/>
</g>
<path d="M168.452 251.14C168.512 252.97 169.632 254.65 171.142 255.69C172.642 256.74 174.442 257.26 176.222 257.69C187.242 260.38 198.892 260.46 209.922 257.8C212.922 257.08 216.012 256.07 218.112 253.82C220.212 251.57 220.902 247.73 218.842 245.44C217.532 243.99 215.442 243.47 213.492 243.59C211.542 243.71 209.682 244.38 207.812 244.97C198.162 248 187.542 248.84 177.982 245.53C177.982 245.53 168.192 243.47 168.442 251.13L168.452 251.14Z" fill="white"/>
<path d="M165.952 251.14C166.102 253.92 167.572 256.2 169.802 257.8C171.802 259.24 174.342 259.84 176.712 260.38C181.762 261.52 186.952 262.16 192.132 262.25C197.392 262.34 202.662 261.85 207.822 260.83C212.402 259.93 217.532 258.7 220.532 254.81C223.492 250.98 223.392 244.8 218.792 242.26C213.992 239.61 208.782 242.24 203.992 243.48C202.782 243.79 201.562 244.07 200.332 244.3C199.772 244.41 199.212 244.51 198.652 244.6C198.352 244.65 198.052 244.69 197.752 244.74C197.682 244.75 197.202 244.81 197.522 244.77C197.842 244.73 197.162 244.81 197.182 244.81C194.782 245.1 192.362 245.22 189.942 245.15C188.702 245.11 187.462 245.03 186.232 244.89C186.072 244.87 185.412 244.78 185.892 244.85C185.592 244.81 185.302 244.76 185.002 244.72C184.372 244.62 183.742 244.5 183.122 244.37C181.912 244.11 180.712 243.8 179.522 243.42C179.172 243.31 178.842 243.17 178.482 243.1C173.842 242.17 167.662 243.17 166.252 248.46C166.022 249.32 165.932 250.25 165.962 251.14C165.992 252.45 167.092 253.7 168.462 253.64C169.792 253.58 170.992 252.54 170.962 251.14C170.962 250.8 170.972 250.47 170.992 250.13C171.012 249.75 170.872 250.77 170.992 250.15C171.022 249.99 171.062 249.83 171.112 249.67C171.152 249.54 171.202 249.41 171.242 249.28C171.322 249 170.982 249.82 171.122 249.57C171.152 249.52 171.172 249.47 171.192 249.42C171.262 249.29 171.322 249.17 171.402 249.05C171.432 249.01 171.462 248.96 171.492 248.92C171.702 248.58 171.382 249.08 171.312 249.14C171.482 248.99 171.632 248.79 171.792 248.63C172.172 248.25 171.422 248.87 171.672 248.71C171.782 248.64 171.892 248.56 172.002 248.49C172.202 248.37 172.412 248.28 172.612 248.17C172.882 248.02 171.952 248.41 172.472 248.23C172.602 248.19 172.722 248.14 172.842 248.1C173.062 248.03 173.282 247.97 173.512 247.93C173.642 247.9 173.772 247.88 173.902 247.85C173.952 247.85 174.002 247.84 174.042 247.83C174.442 247.75 173.772 247.87 173.712 247.87C174.182 247.85 174.642 247.78 175.112 247.78C175.532 247.78 175.942 247.79 176.352 247.82C176.512 247.83 176.682 247.85 176.842 247.86C176.922 247.86 177.012 247.88 177.092 247.89C177.522 247.94 176.392 247.79 176.702 247.84C177.442 247.96 178.102 248.21 178.832 248.43C181.142 249.12 183.502 249.55 185.882 249.84C190.542 250.41 195.232 250.16 199.862 249.43C202.072 249.08 204.262 248.6 206.422 248C208.652 247.38 210.832 246.52 213.122 246.13C213.512 246.06 212.752 246.13 213.152 246.13C213.272 246.13 213.382 246.11 213.502 246.1C213.752 246.08 214.012 246.08 214.262 246.09C214.482 246.09 214.702 246.12 214.932 246.13C215.232 246.15 214.742 246.12 214.742 246.1C214.742 246.1 215.162 246.18 215.212 246.19C215.432 246.24 215.642 246.3 215.852 246.37C215.952 246.4 216.112 246.44 216.202 246.5C216.142 246.46 215.722 246.25 216.112 246.48C216.302 246.59 216.482 246.71 216.672 246.81C216.942 246.95 216.512 246.7 216.542 246.69C216.592 246.69 216.842 246.95 216.892 247C216.982 247.09 217.052 247.18 217.142 247.27C217.332 247.45 217.022 247.13 217.022 247.1C217.022 247.2 217.312 247.58 217.372 247.68C217.592 248.06 217.222 247.2 217.412 247.78C217.482 247.99 217.522 248.21 217.582 248.43C217.672 248.76 217.542 247.92 217.562 248.27C217.562 248.35 217.582 248.44 217.582 248.52C217.592 248.75 217.592 248.98 217.582 249.21C217.582 249.3 217.562 249.38 217.562 249.47C217.562 249.82 217.662 248.98 217.582 249.32C217.532 249.55 217.492 249.78 217.432 250.01C217.382 250.21 217.312 250.4 217.252 250.6C217.112 251.04 217.292 250.55 217.302 250.5C217.282 250.59 217.192 250.74 217.152 250.82C217.072 250.98 216.992 251.14 216.902 251.29C216.842 251.39 216.782 251.49 216.712 251.59C216.672 251.66 216.392 252.09 216.602 251.77C216.782 251.49 216.432 251.96 216.352 252.05C216.192 252.22 216.022 252.38 215.852 252.54C215.682 252.7 215.502 252.84 215.322 252.99C215.772 252.62 215.052 253.16 214.942 253.23C214.552 253.48 214.142 253.71 213.732 253.92C213.522 254.02 213.312 254.12 213.092 254.22C213.622 253.96 212.792 254.34 212.662 254.38C211.712 254.73 210.732 255.01 209.752 255.26C207.492 255.83 205.192 256.27 202.882 256.6C202.762 256.62 202.652 256.63 202.532 256.65C202.982 256.58 202.582 256.65 202.492 256.65C202.222 256.68 201.942 256.72 201.672 256.75C201.042 256.82 200.422 256.89 199.792 256.94C198.612 257.05 197.432 257.12 196.252 257.17C193.932 257.26 191.602 257.24 189.282 257.11C188.102 257.04 186.922 256.95 185.752 256.82C185.162 256.76 184.582 256.69 183.992 256.61C183.692 256.57 184.022 256.61 184.072 256.62C183.912 256.6 183.762 256.58 183.602 256.55C183.292 256.5 182.982 256.46 182.672 256.41C180.382 256.05 178.092 255.59 175.852 254.98C175.342 254.84 174.832 254.69 174.332 254.51C174.172 254.45 173.592 254.21 174.042 254.41C173.782 254.3 173.532 254.18 173.282 254.04C173.032 253.9 172.792 253.76 172.562 253.61C172.482 253.55 172.392 253.49 172.312 253.44C172.022 253.25 172.612 253.73 172.372 253.48C172.212 253.32 172.042 253.18 171.882 253.02C171.792 252.93 171.712 252.83 171.622 252.74C171.362 252.46 171.592 252.79 171.662 252.8C171.572 252.79 171.302 252.24 171.262 252.16C171.222 252.08 171.182 251.99 171.132 251.91C170.952 251.61 171.262 252.32 171.162 251.99C171.102 251.78 171.042 251.57 170.972 251.36C170.932 251.24 170.782 250.91 170.972 251.47C170.942 251.37 170.952 251.19 170.942 251.09C170.872 249.79 169.842 248.53 168.442 248.59C167.152 248.65 165.872 249.69 165.942 251.09L165.952 251.14Z" fill="black"/>
<path d="M179.983 248.25C179.963 249.61 179.863 250.96 179.683 252.31L179.773 251.65C179.653 252.49 179.513 253.33 179.333 254.16C179.193 254.82 179.233 255.49 179.583 256.09C179.883 256.61 180.483 257.1 181.073 257.24C181.713 257.39 182.433 257.35 183.003 256.99C183.533 256.65 184.013 256.13 184.153 255.5C184.653 253.13 184.943 250.7 184.983 248.27C185.003 246.96 183.813 245.71 182.483 245.77C181.153 245.83 180.003 246.87 179.983 248.27V248.25Z" fill="black"/>
<path d="M193.112 250.23C193.222 250.65 193.302 251.08 193.362 251.51L193.272 250.85C193.582 253.29 193.332 255.75 193.922 258.16C194.232 259.43 195.732 260.31 197.002 259.91C198.322 259.48 199.082 258.2 198.752 256.83C198.662 256.45 198.592 256.08 198.532 255.69L198.622 256.35C198.292 253.87 198.572 251.35 197.942 248.9C197.612 247.63 196.142 246.74 194.862 247.15C193.582 247.56 192.762 248.87 193.112 250.23Z" fill="black"/>
<path d="M204.733 248.03C205.653 250.6 206.503 253.19 207.273 255.81C207.643 257.06 209.053 257.98 210.353 257.56C211.653 257.14 212.493 255.83 212.103 254.48C211.333 251.86 210.483 249.27 209.563 246.7C209.343 246.08 209.003 245.55 208.413 245.21C207.873 244.9 207.083 244.76 206.483 244.96C205.273 245.35 204.263 246.72 204.733 248.04V248.03Z" fill="black"/>
<path d="M259.164 313.22C266.454 316.81 272.814 322.28 277.464 328.95C280.504 333.3 282.794 338.13 284.764 343.06C285.444 344.76 286.104 346.52 287.284 347.92C288.714 349.63 290.794 350.71 292.134 352.49C293.474 354.27 293.614 357.35 291.594 358.28C290.134 358.95 288.454 358.13 287.064 357.32C287.134 359.67 285.624 361.99 283.444 362.87C281.264 363.75 278.564 363.14 276.974 361.41C277.494 363.29 276.034 365.25 274.224 365.98C272.414 366.71 270.394 366.54 268.464 366.35C267.934 366.3 267.384 366.24 266.944 365.95C266.354 365.56 266.084 364.84 265.844 364.16C263.714 358.01 261.594 351.86 259.464 345.71" fill="#D6AF43"/>
<path d="M257.643 315.81C259.483 316.72 261.263 317.74 262.973 318.87C263.803 319.42 264.603 319.99 265.393 320.59C265.993 321.04 265.093 320.35 265.513 320.68C265.703 320.83 265.883 320.98 266.073 321.13C266.493 321.47 266.913 321.83 267.333 322.18C268.853 323.5 270.293 324.91 271.643 326.41C272.333 327.17 272.993 327.96 273.623 328.76C273.683 328.84 273.753 328.92 273.813 329C274.063 329.32 273.473 328.55 273.723 328.88C273.863 329.07 274.013 329.26 274.153 329.45C274.463 329.87 274.763 330.3 275.063 330.73C276.333 332.57 277.463 334.5 278.503 336.48C279.033 337.49 279.533 338.51 280.013 339.54C280.233 340.02 280.453 340.51 280.673 340.99C280.793 341.27 280.913 341.55 281.033 341.82C281.083 341.92 281.123 342.03 281.163 342.13C281.243 342.31 281.513 342.69 281.163 342.15C281.433 342.57 281.583 343.16 281.763 343.62C281.963 344.12 282.153 344.62 282.363 345.11C282.843 346.26 283.313 347.42 283.983 348.47C284.643 349.49 285.433 350.43 286.343 351.23C287.083 351.88 287.863 352.47 288.603 353.12C289.033 353.5 289.413 353.91 289.803 354.34C290.033 354.59 289.613 354.09 289.613 354.09C289.633 354.17 289.773 354.33 289.813 354.41C289.863 354.5 289.913 354.59 289.963 354.68C290.113 354.96 289.963 355.07 289.873 354.45C289.903 354.64 290.013 354.85 290.063 355.04C290.083 355.11 290.093 355.19 290.113 355.27C290.243 355.76 290.063 355.17 290.083 355C290.063 355.19 290.113 355.41 290.103 355.6C290.103 355.6 290.103 355.87 290.083 355.89C290.113 355.86 290.263 355.05 290.113 355.59C290.093 355.66 290.073 355.73 290.063 355.8C289.973 356.26 290.373 355.27 290.193 355.54C290.113 355.66 289.773 356.21 290.103 355.75C290.393 355.35 290.213 355.61 290.103 355.7C289.883 355.89 290.783 355.3 290.323 355.53C290.223 355.58 290.013 355.66 290.393 355.53C290.983 355.31 290.203 355.58 290.203 355.56C290.193 355.5 290.843 355.56 290.503 355.51C289.863 355.42 290.543 355.65 290.593 355.57C290.553 355.64 289.893 355.39 289.783 355.36C289.253 355.2 289.833 355.41 289.903 355.42C289.743 355.39 289.563 355.26 289.413 355.19C289.123 355.04 288.843 354.89 288.563 354.73C286.613 353.61 284.023 355.02 284.053 357.32C284.053 357.44 284.053 357.56 284.053 357.68C284.053 357.8 283.993 358.35 284.053 357.82C284.113 357.29 283.983 358.06 283.943 358.21C283.903 358.34 283.813 358.51 283.803 358.64C283.803 358.53 284.083 358.05 283.893 358.42C283.783 358.63 283.673 358.85 283.543 359.05C283.483 359.15 283.153 359.57 283.463 359.19C283.753 358.83 283.473 359.16 283.413 359.24C283.253 359.42 283.083 359.59 282.903 359.75C282.533 360.08 282.813 359.74 283.013 359.67C282.913 359.7 282.803 359.81 282.713 359.87C282.613 359.93 282.503 359.99 282.403 360.05C282.303 360.1 281.813 360.34 282.273 360.12C282.693 359.92 282.313 360.09 282.203 360.12C282.093 360.16 281.973 360.19 281.853 360.22C281.733 360.25 281.613 360.27 281.503 360.29C281.133 360.37 282.213 360.25 281.673 360.26C281.433 360.26 281.193 360.26 280.953 360.26C280.543 360.26 281.093 360.28 281.213 360.31C281.073 360.27 280.913 360.26 280.773 360.23C280.533 360.18 280.303 360.11 280.083 360.03C279.603 359.86 280.063 359.95 280.213 360.09C280.133 360.02 279.983 359.98 279.893 359.93C279.683 359.81 279.493 359.65 279.283 359.54C279.853 359.83 279.603 359.8 279.403 359.61C279.293 359.51 279.183 359.4 279.083 359.29C278.203 358.36 276.533 358.12 275.443 358.82C274.293 359.56 273.743 360.87 274.063 362.21C274.063 361.54 274.193 362.73 274.063 362.21C274.063 362.29 274.033 362.4 274.053 362.47C274.033 362.38 274.223 361.74 274.073 362.19C274.043 362.27 274.013 362.36 273.993 362.44C273.933 362.73 274.113 362.15 274.133 362.14C274.033 362.25 273.823 362.61 273.763 362.76C273.913 362.34 274.103 362.37 273.893 362.58C273.833 362.65 273.763 362.72 273.703 362.78C273.643 362.84 273.563 362.91 273.503 362.97C273.143 363.32 273.603 362.87 273.673 362.85C273.493 362.9 273.283 363.1 273.123 363.19C273.053 363.23 272.943 363.26 272.873 363.31C273.023 363.19 273.403 363.12 273.003 363.23C272.753 363.3 272.503 363.37 272.253 363.43C272.143 363.45 271.663 363.52 272.103 363.47C272.543 363.42 272.133 363.47 272.063 363.47C271.503 363.5 270.943 363.52 270.373 363.49C269.883 363.47 269.393 363.43 268.903 363.38C268.753 363.37 268.603 363.35 268.453 363.34C268.013 363.29 268.363 363.34 268.453 363.34C269.013 363.41 268.453 363.34 268.453 363.33C268.203 363.25 268.193 363.26 268.433 363.36C268.633 363.46 268.663 363.47 268.523 363.39C268.223 363.22 268.783 363.6 268.773 363.59C268.403 363.29 268.923 363.69 268.923 363.78C268.923 363.74 268.823 363.58 268.793 363.55C268.623 363.3 268.903 363.85 268.913 363.86C268.773 363.33 268.543 362.82 268.363 362.3C267.983 361.21 267.613 360.12 267.233 359.03C266.463 356.81 265.703 354.59 264.933 352.37C264.073 349.88 263.213 347.39 262.353 344.9C261.843 343.42 260.273 342.28 258.663 342.8C257.193 343.27 256.023 344.9 256.563 346.49C258.343 351.63 260.113 356.77 261.893 361.9C262.853 364.67 263.533 368.33 266.863 369.11C268.143 369.41 269.613 369.48 270.933 369.49C272.593 369.5 274.203 369.22 275.733 368.55C278.743 367.21 280.643 363.84 279.853 360.59C278.183 361.56 276.513 362.54 274.843 363.51C277.283 366.09 281.313 366.97 284.583 365.59C287.873 364.2 290.093 360.89 290.053 357.3C288.553 358.16 287.043 359.03 285.543 359.89C286.683 360.54 287.903 361.16 289.203 361.37C291.043 361.67 292.743 361.28 294.193 360.08C296.073 358.51 296.423 355.71 295.853 353.45C295.263 351.11 293.583 349.44 291.773 347.97C291.353 347.63 290.933 347.29 290.533 346.93C290.353 346.77 290.183 346.61 290.013 346.45C289.903 346.34 289.403 345.94 289.393 345.78C289.393 345.8 289.803 346.37 289.473 345.89C289.393 345.77 289.313 345.66 289.233 345.54C289.083 345.31 288.933 345.06 288.803 344.82C288.553 344.36 288.193 343.81 288.063 343.3C288.083 343.37 288.323 343.93 288.123 343.43C288.073 343.3 288.013 343.17 287.963 343.04C287.853 342.78 287.753 342.51 287.653 342.25C287.423 341.69 287.203 341.12 286.963 340.56C286.423 339.27 285.873 337.99 285.283 336.72C284.263 334.52 283.153 332.36 281.893 330.28C279.483 326.29 276.543 322.58 273.163 319.37C269.463 315.86 265.233 312.87 260.663 310.61C259.263 309.91 257.353 310.19 256.563 311.69C255.843 313.05 256.133 315.05 257.643 315.79V315.81Z" fill="black"/>
<path d="M199.962 388.21C199.312 388.21 198.662 388.06 198.092 387.77L186.392 381.97C186.392 381.97 186.332 381.95 186.292 381.95C186.262 381.95 186.222 381.95 186.172 381.98L178.792 386.75C178.112 387.19 177.322 387.42 176.502 387.42C175.682 387.42 174.872 387.18 174.182 386.72L166.962 381.95C166.962 381.95 166.872 381.92 166.842 381.92C166.812 381.92 166.772 381.92 166.722 381.95L160.632 385.93C159.942 386.38 159.152 386.62 158.322 386.62C157.212 386.62 156.172 386.2 155.382 385.43L151.562 381.71C151.562 381.71 151.462 381.65 151.412 381.65C151.362 381.65 151.322 381.65 151.272 381.7L147.182 385.39C146.412 386.09 145.412 386.47 144.362 386.47C143.312 386.47 142.352 386.1 141.582 385.42L136.782 381.19C136.782 381.19 136.682 381.14 136.642 381.14C136.602 381.14 136.552 381.14 136.512 381.18L132.692 384.28C131.942 384.88 131.002 385.22 130.042 385.22C129.252 385.22 128.482 385 127.812 384.59L122.422 381.24C122.422 381.24 122.332 381.21 122.312 381.21C122.292 381.21 122.242 381.21 122.202 381.24L117.082 384.28C116.422 384.67 115.682 384.88 114.932 384.88C113.652 384.88 112.412 384.27 111.612 383.26C110.832 382.26 110.562 380.98 110.862 379.75L116.062 358.55C116.522 356.68 118.192 355.38 120.122 355.38C120.252 355.38 120.382 355.38 120.512 355.4C129.372 356.22 160.962 358.9 195.752 358.9C221.352 358.9 242.802 357.44 259.512 354.57C259.752 354.53 260.002 354.51 260.232 354.51C262.322 354.51 264.102 356.05 264.382 358.1L267.312 379.53C267.472 380.73 267.132 381.89 266.342 382.79C265.542 383.71 264.382 384.24 263.162 384.24C262.392 384.24 261.632 384.02 260.972 383.62L253.362 378.97C253.362 378.97 253.292 378.94 253.252 378.94C253.222 378.94 253.142 378.94 253.092 379.02L248.792 384.91C248.002 385.99 246.742 386.63 245.402 386.63C244.302 386.63 243.262 386.21 242.472 385.44L237.312 380.44C237.312 380.44 237.202 380.38 237.162 380.38C237.112 380.38 237.072 380.39 237.032 380.42L227.872 387.32C227.152 387.87 226.252 388.17 225.342 388.17C224.642 388.17 223.942 387.99 223.322 387.66L211.362 381.15C211.362 381.15 211.292 381.12 211.262 381.12C211.232 381.12 211.182 381.12 211.142 381.16L202.442 387.43C201.722 387.95 200.872 388.22 199.982 388.22L199.962 388.21Z" fill="#7F4F08"/>
<path d="M260.242 356.51C261.322 356.51 262.262 357.28 262.412 358.37L265.342 379.8C265.532 381.17 264.412 382.24 263.172 382.24C262.792 382.24 262.392 382.14 262.022 381.91L254.412 377.26C254.052 377.04 253.652 376.94 253.262 376.94C252.582 376.94 251.912 377.25 251.482 377.84L247.182 383.73C246.752 384.32 246.082 384.63 245.402 384.63C244.852 384.63 244.292 384.43 243.862 384.01L238.702 379.01C238.282 378.6 237.722 378.39 237.162 378.39C236.692 378.39 236.222 378.54 235.832 378.83L226.672 385.73C226.282 386.02 225.812 386.17 225.342 386.17C224.982 386.17 224.612 386.08 224.282 385.9L212.322 379.39C211.992 379.21 211.622 379.12 211.262 379.12C210.802 379.12 210.352 379.26 209.972 379.54L201.272 385.81C200.892 386.09 200.432 386.23 199.982 386.23C199.642 386.23 199.312 386.15 198.992 386L187.292 380.2C186.982 380.05 186.642 379.97 186.302 379.97C185.882 379.97 185.462 380.09 185.102 380.32L177.722 385.09C177.352 385.33 176.942 385.44 176.522 385.44C176.102 385.44 175.672 385.32 175.302 385.07L168.082 380.3C167.712 380.06 167.292 379.93 166.862 379.93C166.432 379.93 166.022 380.05 165.652 380.29L159.562 384.27C159.192 384.51 158.772 384.63 158.352 384.63C157.792 384.63 157.232 384.42 156.812 384.01L153.002 380.29C152.572 379.88 152.022 379.67 151.462 379.67C150.902 379.67 150.402 379.86 149.982 380.24L145.892 383.93C145.472 384.31 144.942 384.5 144.412 384.5C143.882 384.5 143.372 384.32 142.952 383.95L138.152 379.72C137.742 379.35 137.212 379.17 136.692 379.17C136.202 379.17 135.702 379.33 135.302 379.66L131.482 382.76C131.082 383.09 130.582 383.25 130.092 383.25C129.692 383.25 129.282 383.14 128.922 382.92L123.532 379.57C123.172 379.35 122.772 379.24 122.362 379.24C121.952 379.24 121.582 379.34 121.232 379.55L116.112 382.59C115.742 382.81 115.362 382.91 114.982 382.91C113.662 382.91 112.502 381.7 112.852 380.25L118.052 359.05C118.292 358.08 119.172 357.4 120.172 357.4C120.242 357.4 120.312 357.4 120.382 357.4C128.352 358.14 160.562 360.91 195.802 360.91C217.702 360.91 240.762 359.84 259.902 356.55C260.032 356.53 260.162 356.52 260.282 356.52M260.282 352.52C259.932 352.52 259.572 352.55 259.222 352.61C242.622 355.46 221.282 356.91 195.802 356.91C161.092 356.91 129.582 354.24 120.752 353.42C120.562 353.4 120.362 353.39 120.172 353.39C117.312 353.39 114.842 355.32 114.172 358.08L108.972 379.28C108.522 381.12 108.932 383.02 110.092 384.5C111.262 385.99 113.092 386.89 114.982 386.89C116.092 386.89 117.192 386.59 118.152 386.01L122.342 383.52L126.812 386.3C127.802 386.91 128.932 387.24 130.092 387.24C131.512 387.24 132.902 386.75 134.002 385.85L136.652 383.7L140.322 386.93C141.452 387.93 142.912 388.48 144.422 388.48C145.932 388.48 147.442 387.91 148.582 386.88L151.422 384.32L154.032 386.86C155.202 387.99 156.732 388.62 158.362 388.62C159.572 388.62 160.752 388.27 161.762 387.61L166.872 384.27L173.112 388.39C174.132 389.06 175.312 389.42 176.532 389.42C177.752 389.42 178.902 389.08 179.912 388.42L186.432 384.2L197.222 389.55C198.072 389.97 199.032 390.2 199.982 390.2C201.292 390.2 202.552 389.79 203.612 389.03L211.402 383.42L222.382 389.4C223.292 389.89 224.322 390.16 225.352 390.16C226.692 390.16 228.022 389.72 229.092 388.91L237.032 382.93L241.092 386.87C242.252 388 243.792 388.62 245.412 388.62C247.392 388.62 249.262 387.67 250.422 386.08L253.742 381.53L259.952 385.32C260.932 385.92 262.052 386.24 263.192 386.24C264.992 386.24 266.702 385.46 267.882 384.11C269.042 382.78 269.572 381.02 269.332 379.26L266.402 357.83C265.992 354.8 263.352 352.51 260.272 352.51L260.282 352.52Z" fill="#0F0F0F"/>
<path d="M112.752 369.58C139.712 369.85 166.512 363.85 191.682 354.19C216.852 344.53 240.502 331.24 263.172 316.63C264.322 315.89 265.512 315.09 266.122 313.87C266.732 312.65 266.442 310.88 265.192 310.33C264.482 310.02 263.672 310.16 262.912 310.31C215.902 319.77 171.732 341.9 124.072 347.19L117.352 347.89L112.762 369.57L112.752 369.58Z" fill="#3F2E05"/>
<path d="M112.752 371.08C124.102 371.18 135.452 370.19 146.642 368.29C157.832 366.39 168.832 363.6 179.602 360.07C190.262 356.58 200.682 352.39 210.862 347.68C220.992 342.99 230.882 337.78 240.562 332.22C245.362 329.46 250.112 326.61 254.822 323.69C257.192 322.22 259.562 320.73 261.912 319.23C264.012 317.89 266.712 316.58 267.652 314.1C268.482 311.9 267.402 309.1 264.912 308.71C263.532 308.5 262.082 308.95 260.732 309.23C259.382 309.51 258.082 309.79 256.762 310.09C251.392 311.29 246.052 312.64 240.742 314.1C230.102 317.02 219.582 320.36 209.082 323.76C198.632 327.15 188.202 330.61 177.692 333.79C167.182 336.97 156.582 339.88 145.832 342.14C137.302 343.94 128.702 345.21 120.032 346.12L117.342 346.4C116.712 346.47 116.042 346.82 115.892 347.5C114.552 353.82 113.212 360.15 111.872 366.47C111.682 367.37 111.492 368.28 111.302 369.18C110.902 371.06 113.792 371.87 114.192 369.98C115.532 363.66 116.872 357.33 118.212 351.01C118.402 350.11 118.592 349.2 118.782 348.3L117.332 349.4C124.112 348.69 130.862 347.93 137.582 346.77C148.162 344.94 158.612 342.39 168.942 339.47C179.322 336.54 189.602 333.24 199.852 329.91C210.132 326.57 220.392 323.18 230.742 320.09C241.072 317 251.492 314.2 262.052 312.02C262.642 311.9 263.252 311.73 263.862 311.67C264.182 311.64 264.572 311.67 264.682 311.78C265.122 312.24 264.892 313.11 264.502 313.63C263.852 314.51 262.822 315.07 261.922 315.65C260.812 316.37 259.692 317.08 258.572 317.79C253.932 320.73 249.262 323.61 244.532 326.41C235.132 331.98 225.542 337.25 215.722 342.05C205.912 346.84 195.872 351.17 185.602 354.85C175.162 358.59 164.472 361.68 153.602 363.93C142.802 366.18 131.822 367.58 120.792 367.97C118.112 368.07 115.422 368.1 112.742 368.07C110.812 368.05 110.812 371.05 112.742 371.07L112.752 371.08Z" fill="black"/>
<path d="M121.273 313.22C113.983 316.81 107.623 322.28 102.973 328.95C99.9331 333.3 97.6431 338.13 95.6731 343.06C94.9931 344.76 94.3331 346.52 93.1531 347.92C91.7231 349.63 89.6431 350.71 88.3031 352.49C86.9631 354.27 86.8231 357.35 88.8431 358.28C90.3031 358.95 91.9831 358.13 93.3731 357.32C93.3031 359.67 94.8131 361.99 96.9931 362.87C99.1731 363.75 101.873 363.14 103.463 361.41C102.943 363.29 104.403 365.25 106.213 365.98C108.013 366.71 110.043 366.54 111.973 366.35C112.503 366.3 113.053 366.24 113.493 365.95C114.083 365.56 114.353 364.84 114.593 364.16C116.723 358.01 118.843 351.86 120.973 345.71" fill="#D6AF43"/>
<path d="M119.763 310.63C111.533 314.71 104.503 321.07 99.4928 328.76C96.7428 332.99 94.6428 337.59 92.7728 342.27C92.6628 342.53 92.5628 342.8 92.4628 343.06C92.4128 343.19 92.3529 343.32 92.3029 343.45C92.2729 343.52 92.1328 343.86 92.2928 343.48C92.4528 343.08 92.2729 343.51 92.2329 343.61C92.1729 343.74 92.1129 343.87 92.0529 344C91.9129 344.29 91.7729 344.57 91.6229 344.85C91.4829 345.1 91.3429 345.34 91.1929 345.57C91.1129 345.69 91.0328 345.8 90.9528 345.92C90.9128 345.98 90.7228 346.29 90.9328 345.95C91.1428 345.61 90.9129 345.95 90.8328 346.04C90.7429 346.14 90.6529 346.24 90.5529 346.33C90.3429 346.55 90.1228 346.76 89.8928 346.96C88.2428 348.44 86.2428 349.7 85.2428 351.76C83.9928 354.32 83.8828 357.48 85.8428 359.73C86.8828 360.92 88.5529 361.59 90.1229 361.54C91.8429 361.48 93.4128 360.77 94.8828 359.93C93.3828 359.07 91.8729 358.2 90.3729 357.34C90.3329 360.93 92.5528 364.25 95.8428 365.63C99.1228 367.01 103.143 366.13 105.583 363.55C103.913 362.58 102.243 361.6 100.573 360.63C99.8328 363.68 101.413 366.68 104.043 368.26C106.483 369.72 109.453 369.64 112.173 369.35C113.113 369.25 113.993 369.13 114.833 368.66C115.613 368.23 116.273 367.54 116.723 366.77C117.413 365.59 117.763 364.16 118.213 362.88C119.103 360.31 119.993 357.74 120.883 355.17C121.883 352.29 122.873 349.41 123.873 346.53C124.383 345.05 123.283 343.18 121.773 342.84C120.103 342.46 118.633 343.35 118.083 344.94C116.563 349.34 115.043 353.74 113.523 358.14C113.143 359.23 112.773 360.32 112.393 361.41C112.203 361.95 112.013 362.5 111.823 363.04C111.743 363.27 111.663 363.5 111.583 363.73C111.413 364.2 111.793 363.13 111.553 363.75C111.423 364.09 111.993 363.34 111.713 363.57C111.463 363.77 112.013 363.37 111.993 363.39C111.633 363.62 112.013 363.25 112.173 363.33C112.143 363.32 111.923 363.39 111.883 363.4C111.583 363.5 112.163 363.36 112.183 363.36C112.063 363.35 111.893 363.39 111.763 363.4C111.463 363.43 111.163 363.46 110.863 363.48C110.373 363.52 109.883 363.54 109.393 363.54C109.133 363.54 108.873 363.54 108.603 363.52C108.493 363.52 108.383 363.5 108.273 363.49C107.893 363.47 108.863 363.62 108.303 363.49C108.013 363.42 107.733 363.34 107.443 363.27C107.353 363.25 107.023 363.09 107.403 363.27C107.843 363.48 107.293 363.2 107.243 363.18C107.163 363.14 107.083 363.09 107.003 363.04C106.733 362.87 106.753 362.69 107.083 363.13C106.963 362.97 106.753 362.84 106.613 362.68C106.533 362.6 106.263 362.27 106.553 362.63C106.843 362.99 106.583 362.65 106.523 362.56C106.463 362.46 106.413 362.34 106.343 362.24C106.163 361.95 106.503 362.79 106.443 362.46C106.423 362.35 106.383 362.23 106.343 362.12C106.223 361.82 106.353 362.72 106.373 362.4C106.373 362.32 106.373 362.22 106.373 362.14C106.343 361.54 106.223 362.83 106.373 362.23C106.673 360.98 106.183 359.47 104.993 358.84C103.803 358.21 102.293 358.32 101.353 359.31C101.273 359.4 101.183 359.48 101.103 359.57C101.023 359.65 100.603 359.98 100.993 359.69C101.363 359.41 101.013 359.67 100.933 359.72C100.833 359.79 100.733 359.85 100.623 359.91C100.513 359.97 100.313 360.04 100.223 360.12C100.303 360.04 100.833 359.89 100.443 360.03C100.213 360.11 99.9828 360.18 99.7528 360.24C99.6028 360.28 99.4528 360.3 99.3128 360.33C98.9428 360.41 99.9428 360.3 99.5728 360.29C99.3328 360.29 99.0928 360.31 98.8528 360.3C98.3528 360.28 98.8028 360.28 99.0228 360.35C98.9128 360.32 98.7828 360.31 98.6728 360.28C98.5628 360.25 98.4428 360.22 98.3228 360.19C98.2028 360.16 97.7228 359.95 98.1728 360.16C98.6228 360.37 97.9228 360.03 97.8028 359.95C97.7029 359.89 97.6028 359.82 97.5028 359.76C97.1928 359.58 97.9928 360.2 97.6128 359.85C97.4328 359.69 97.2628 359.53 97.0928 359.35C97.0128 359.26 96.9428 359.16 96.8528 359.08C97.3428 359.54 97.0928 359.39 96.9528 359.18C96.8228 358.98 96.7028 358.77 96.5928 358.55C96.3628 358.1 96.6328 358.48 96.6428 358.69C96.6428 358.58 96.5628 358.45 96.5228 358.35C96.4528 358.12 96.4328 357.87 96.3528 357.65C96.5728 358.28 96.4028 358.12 96.3928 357.82C96.3928 357.67 96.3928 357.52 96.3928 357.37C96.4228 355.07 93.8328 353.66 91.8828 354.78C91.6628 354.9 91.4529 355.03 91.2329 355.14C91.1229 355.2 90.6229 355.36 90.5529 355.47C90.6829 355.24 91.0428 355.31 90.6728 355.41C90.5328 355.45 90.4028 355.5 90.2728 355.53C90.1728 355.56 90.0728 355.57 89.9728 355.6C89.6128 355.7 90.6128 355.58 90.0628 355.57C89.5128 355.56 90.7328 355.68 89.9728 355.54C89.6528 355.48 90.2528 355.63 90.2728 355.67C90.2728 355.67 90.0628 355.53 90.0328 355.52C90.0628 355.52 90.6128 356.03 90.3228 355.72C90.2428 355.63 90.1029 355.44 90.3729 355.82C90.7629 356.36 90.2228 355.63 90.2528 355.54C90.2928 355.43 90.4228 356.26 90.4328 355.93C90.4328 355.87 90.3929 355.78 90.3729 355.73C90.3729 355.73 90.2928 355.47 90.3128 355.45C90.3428 355.41 90.3629 356.31 90.3729 355.81C90.3729 355.64 90.3729 355.46 90.3729 355.29C90.3729 354.66 90.2129 355.96 90.3729 355.33C90.4129 355.15 90.4529 354.98 90.5129 354.81C90.5429 354.73 90.6028 354.6 90.6128 354.52C90.6128 354.51 90.3128 355.13 90.4628 354.88C90.5528 354.73 90.6228 354.56 90.7128 354.41C90.7328 354.37 90.8629 354.22 90.8729 354.16C90.8229 354.38 90.4528 354.67 90.8128 354.25C92.1128 352.73 93.9028 351.73 95.2128 350.23C96.8628 348.34 97.7528 346.09 98.6728 343.78C98.8728 343.28 99.0328 342.66 99.3228 342.2C99.3228 342.22 99.1028 342.71 99.2428 342.39C99.2828 342.29 99.3328 342.18 99.3728 342.08C99.5028 341.77 99.6428 341.45 99.7828 341.14C100.223 340.13 100.693 339.14 101.173 338.15C102.173 336.11 103.273 334.11 104.493 332.2C105.063 331.31 105.663 330.43 106.283 329.58C106.423 329.39 106.573 329.2 106.713 329C107.023 328.58 106.663 329.06 106.613 329.12C106.693 329.01 106.783 328.9 106.863 328.8C107.183 328.4 107.503 328 107.833 327.61C109.133 326.07 110.533 324.61 112.013 323.24C112.863 322.45 113.743 321.69 114.653 320.97C114.813 320.84 115.523 320.37 114.853 320.81C115.083 320.66 115.293 320.48 115.513 320.32C115.983 319.97 116.453 319.64 116.933 319.31C118.823 318.02 120.803 316.86 122.853 315.84C124.263 315.14 124.763 313.03 123.933 311.74C123.003 310.3 121.333 309.92 119.833 310.66L119.763 310.63Z" fill="black"/>
</g>
<defs>
<clipPath id="clip0_873_1957">
<rect width="380.54" height="573" fill="white" transform="translate(0.572266)"/>
</clipPath>
</defs>
</svg>
