<svg width="382" height="573" viewBox="0 0 382 573" fill="none" xmlns="http://www.w3.org/2000/svg">
<g clip-path="url(#clip0_873_818)">
<path d="M359.219 0H23.2192C10.9198 0 0.949219 9.97062 0.949219 22.27V550.73C0.949219 563.029 10.9198 573 23.2192 573H359.219C371.519 573 381.489 563.029 381.489 550.73V22.27C381.489 9.97062 371.519 0 359.219 0Z" fill="white"/>
<path d="M320.18 95.66C338.957 95.66 354.18 80.4377 354.18 61.66C354.18 42.8823 338.957 27.66 320.18 27.66C301.402 27.66 286.18 42.8823 286.18 61.66C286.18 80.4377 301.402 95.66 320.18 95.66Z" fill="#FFBA35"/>
<path d="M334.972 54.5698C334.972 55.74 334.68 56.8822 334.095 57.9966C333.51 59.111 332.771 60.0722 331.88 60.8801C332.576 61.2423 333.189 61.702 333.718 62.2592C334.276 62.8164 334.763 63.4433 335.181 64.1398C335.543 64.8641 335.822 65.6303 336.017 66.4382C336.212 67.2183 336.309 67.9705 336.309 68.6949C336.282 70.5893 335.933 72.1495 335.265 73.3753C334.624 74.5733 333.746 75.5345 332.632 76.2589C331.49 77.0389 330.152 77.5961 328.62 77.9305C327.088 78.2369 325.458 78.4319 323.731 78.5155H310.65C310.678 78.3762 310.72 78.209 310.776 78.014C310.831 77.819 310.887 77.624 310.943 77.429C311.054 76.9275 311.194 76.3842 311.361 75.7992C311.528 75.1862 311.751 74.6151 312.029 74.0858C312.308 73.5564 312.656 73.1246 313.074 72.7903C313.492 72.4281 314.049 72.2749 314.746 72.3306H321.85C322.602 72.3306 323.341 72.2749 324.065 72.1634C324.817 72.052 325.472 71.857 326.029 71.5784C326.586 71.2998 327.032 70.9097 327.366 70.4083C327.729 69.9068 327.91 69.2242 327.91 68.3605C327.91 66.7168 327.352 65.6442 326.238 65.1427C325.124 64.6412 323.661 64.3905 321.85 64.3905H313.534V58.4563H321.349C322.853 58.4563 324.079 58.2056 325.026 57.7041C325.973 57.1748 326.447 56.2136 326.447 54.8206C326.447 54.0405 326.266 53.4276 325.904 52.9818C325.569 52.5082 325.124 52.1321 324.566 51.8535C324.009 51.6028 323.368 51.4356 322.644 51.352C321.92 51.2406 321.181 51.157 320.429 51.1013H315.498C314.829 51.1013 314.244 50.9898 313.743 50.767C313.241 50.5162 312.893 50.2237 312.698 49.8894C312.252 49.2764 311.946 48.5242 311.779 47.6327C311.612 46.7133 311.43 45.8915 311.235 45.1671L323.313 44.9999C324.984 45.0835 326.433 45.2228 327.659 45.4178C328.913 45.585 330.138 46.0865 331.336 46.9223C332.507 47.7859 333.412 48.8585 334.053 50.1401C334.721 51.3938 335.028 52.8704 334.972 54.5698Z" fill="white"/>
<path d="M107.365 465.305C107.365 468.261 106.626 471.147 105.148 473.963C103.67 476.779 101.804 479.207 99.5518 481.249C101.312 482.164 102.86 483.325 104.198 484.733C105.606 486.141 106.838 487.725 107.893 489.485C108.809 491.315 109.512 493.251 110.005 495.292C110.498 497.263 110.744 499.164 110.744 500.994C110.674 505.781 109.794 509.723 108.105 512.82C106.486 515.847 104.268 518.276 101.452 520.106C98.5663 522.077 95.1874 523.485 91.3158 524.329C87.4442 525.104 83.3262 525.597 78.9618 525.808H45.9121C45.9825 525.456 46.0881 525.033 46.2289 524.541C46.3697 524.048 46.5105 523.555 46.6512 523.062C46.9328 521.795 47.2848 520.423 47.7071 518.944C48.1295 517.396 48.6926 515.953 49.3966 514.615C50.1005 513.278 50.9804 512.187 52.0363 511.342C53.0922 510.427 54.5001 510.04 56.2599 510.18H74.2102C76.1109 510.18 77.9763 510.04 79.8065 509.758C81.7071 509.476 83.3614 508.984 84.7692 508.28C86.1771 507.576 87.3034 506.59 88.1481 505.323C89.0632 504.056 89.5208 502.332 89.5208 500.149C89.5208 495.996 88.1129 493.286 85.2972 492.019C82.4814 490.752 78.7858 490.118 74.2102 490.118H53.1978V475.124H72.9431C76.7444 475.124 79.8417 474.491 82.2351 473.224C84.6284 471.886 85.8251 469.458 85.8251 465.938C85.8251 463.967 85.3676 462.418 84.4525 461.292C83.6077 460.096 82.4814 459.145 81.0736 458.441C79.6657 457.808 78.0467 457.385 76.2164 457.174C74.3862 456.893 72.5208 456.681 70.6202 456.541H58.1606C56.4711 456.541 54.9929 456.259 53.7258 455.696C52.4587 455.062 51.5788 454.323 51.086 453.479C49.9597 451.93 49.1854 450.029 48.763 447.777C48.3407 445.454 47.8831 443.377 47.3904 441.547L77.9059 441.125C82.1295 441.336 85.7899 441.688 88.8872 442.18C92.0549 442.603 95.1522 443.87 98.1792 445.982C101.136 448.164 103.423 450.874 105.043 454.112C106.732 457.28 107.506 461.011 107.365 465.305Z" fill="#FFBA35"/>
<path d="M263.168 361.72L119.828 348.24V303.16H264.688L263.168 361.72Z" fill="#98CA51"/>
<path d="M119.519 312.02C116.289 310.75 113.129 309.29 110.059 307.6C106.009 305.36 102.149 302.78 98.6094 299.84C94.8994 296.74 91.5594 293.2 88.8194 289.24C81.7194 279 79.5894 266.65 81.7794 254.56C82.2894 251.74 83.0094 248.96 83.8894 246.24C83.8894 246.24 87.3694 228.83 114.239 206.55C113.239 203.32 112.699 199.91 112.699 196.37C112.699 176.91 128.909 161.14 148.909 161.14C166.019 161.14 180.339 172.69 184.129 188.2C184.739 188.08 187.729 188.1 188.919 188.12C190.119 188.11 193.109 188.08 193.709 188.2C197.499 172.68 211.819 161.14 228.929 161.14C248.929 161.14 265.139 176.91 265.139 196.37C265.139 199.91 264.599 203.33 263.599 206.55C290.479 228.82 293.949 246.24 293.949 246.24C294.829 248.97 295.549 251.75 296.059 254.56C298.249 266.65 296.119 279 289.019 289.24C286.279 293.19 282.939 296.73 279.229 299.84C277.579 301.22 275.839 302.48 274.079 303.71C271.249 305.7 268.489 307.79 265.629 309.73L260.949 312.02" fill="#98CA51"/>
<path d="M119.519 315.52C119.089 315.52 118.659 315.44 118.239 315.28C114.679 313.88 111.459 312.37 108.369 310.66C104.009 308.25 99.9787 305.52 96.3787 302.53C92.2687 299.09 88.7587 295.29 85.9487 291.23C78.6087 280.64 75.9087 267.39 78.3387 253.93C78.8487 251.12 79.5787 248.22 80.5087 245.31C81.0287 243.06 85.6187 226.32 110.269 205.31C109.559 202.38 109.199 199.38 109.199 196.36C109.199 175 127.009 157.63 148.909 157.63C166.389 157.63 181.549 168.58 186.739 184.6C187.349 184.6 188.079 184.6 188.959 184.61C189.799 184.61 190.499 184.59 191.099 184.6C196.299 168.58 211.459 157.63 228.929 157.63C250.819 157.63 268.639 175 268.639 196.36C268.639 199.38 268.279 202.38 267.569 205.31C292.229 226.33 296.809 243.07 297.329 245.31C298.259 248.22 298.989 251.12 299.499 253.93C301.939 267.39 299.239 280.64 291.889 291.23C289.079 295.29 285.569 299.09 281.469 302.52C279.819 303.9 278.119 305.14 276.089 306.57C274.979 307.35 273.869 308.15 272.769 308.95C271.089 310.17 269.359 311.42 267.589 312.62L267.169 312.86L262.489 315.15C260.749 316 258.659 315.28 257.809 313.55C256.959 311.81 257.679 309.72 259.409 308.87L263.869 306.69C265.479 305.6 267.089 304.42 268.659 303.29C269.789 302.47 270.919 301.65 272.069 300.85C273.959 299.52 275.519 298.38 276.989 297.15C280.609 294.12 283.689 290.79 286.149 287.25C292.429 278.19 294.729 266.8 292.619 255.18C292.159 252.62 291.489 249.97 290.629 247.3L290.529 246.91C290.499 246.77 286.739 230.25 261.379 209.23L259.579 207.74L260.269 205.5C261.189 202.53 261.659 199.46 261.659 196.35C261.659 178.85 246.989 164.62 228.949 164.62C213.719 164.62 200.639 174.65 197.129 189.01L196.339 192.26L193.149 191.63C192.779 191.6 191.419 191.56 188.979 191.6C186.459 191.57 185.099 191.6 184.729 191.63L181.539 192.26L180.749 189.01C177.249 174.65 164.159 164.62 148.929 164.62C130.899 164.62 116.219 178.85 116.219 196.35C116.219 199.45 116.689 202.53 117.609 205.5L118.299 207.74L116.499 209.23C91.1387 230.25 87.3787 246.76 87.3387 246.93L87.2387 247.3C86.3787 249.97 85.7087 252.62 85.2487 255.17C83.1487 266.79 85.4387 278.18 91.7187 287.24C94.1787 290.78 97.2587 294.12 100.879 297.15C104.129 299.85 107.799 302.34 111.769 304.53C114.589 306.09 117.549 307.47 120.829 308.76C122.629 309.47 123.509 311.5 122.799 313.3C122.259 314.68 120.939 315.52 119.539 315.52H119.519ZM193.039 191.63C193.039 191.63 193.039 191.63 193.049 191.63H193.039ZM184.799 191.63H184.789C184.789 191.63 184.789 191.63 184.799 191.63Z" fill="black"/>
<path d="M116.04 344.24C114.56 363.96 116.61 383.92 116.61 383.92L110.69 390.51C107.43 394.14 109.57 399.94 114.4 400.58C138.84 403.78 189.94 392.96 189.94 392.96C189.94 392.96 242.82 404.16 266.72 400.4C271.01 399.73 272.82 394.55 269.93 391.33L263.28 383.92C263.28 383.92 263.68 368.51 263.39 354.98V346.28" fill="#98CA51"/>
<path d="M125.06 404.68C121.02 404.68 117.26 404.49 113.95 404.06C110.43 403.6 107.47 401.24 106.23 397.9C104.99 394.56 105.7 390.83 108.08 388.18L112.97 382.73C112.52 377.61 111.27 360.85 112.54 343.98C112.68 342.05 114.36 340.6 116.29 340.75C118.22 340.89 119.66 342.57 119.52 344.5C118.08 363.67 120.06 383.37 120.08 383.56L120.24 385.1L113.29 392.85C112.35 393.89 112.63 395.02 112.79 395.46C112.95 395.89 113.47 396.93 114.85 397.11C138.41 400.21 188.71 389.64 189.21 389.53L189.93 389.38L190.66 389.53C191.18 389.64 243.19 400.55 266.17 396.94C267.2 396.78 267.59 395.99 267.71 395.66C267.83 395.32 268.03 394.46 267.32 393.66L259.74 385.22L259.78 383.83C259.78 383.68 260.18 368.35 259.89 355.06V346.28C259.89 344.35 261.46 342.78 263.39 342.78C265.32 342.78 266.89 344.35 266.89 346.28V354.98C267.13 366.02 266.9 378.5 266.81 382.61L272.53 388.99C274.73 391.45 275.41 394.9 274.31 398.01C273.21 401.11 270.51 403.35 267.26 403.86C244.26 407.48 196.66 397.93 189.93 396.53C184.27 397.7 149.57 404.67 125.04 404.67L125.06 404.68Z" fill="black"/>
<g style="mix-blend-mode:multiply" opacity="0.6">
<path d="M209.779 189.61C209.269 184.48 205.899 179.66 202.049 176.39C196.749 171.9 191.209 173.81 186.109 177.59C182.399 180.34 174.349 185.82 177.379 191.4C179.899 196.05 183.569 199.69 187.439 203.21C190.219 205.74 193.139 208.43 197.169 207.11C202.839 205.25 208.539 199.1 209.639 193.28C209.869 192.05 209.909 190.82 209.789 189.6L209.779 189.61Z" fill="#B2B6B5"/>
</g>
<path d="M206.389 186.05C205.879 180.92 202.509 176.1 198.659 172.83C193.359 168.34 187.819 170.25 182.719 174.03C178.999 176.78 170.959 182.26 173.989 187.85C176.509 192.5 180.179 196.14 184.049 199.66C186.829 202.19 189.749 204.88 193.779 203.56C199.449 201.7 205.149 195.55 206.239 189.73C206.469 188.5 206.509 187.27 206.389 186.05Z" fill="#908882"/>
<path d="M191.68 204.2C188.6 204.2 186.21 202.02 183.9 199.92L183.85 199.87C180.34 196.68 176.38 192.87 173.73 187.98C170.74 182.47 178.02 177.12 181.93 174.25L182.55 173.8C186.06 171.2 189.17 169.94 192.06 169.94C194.47 169.94 196.75 170.84 198.85 172.62C203.29 176.39 206.22 181.4 206.68 186.03C206.81 187.31 206.76 188.57 206.53 189.79C205.44 195.61 199.76 201.92 193.87 203.84C193.14 204.08 192.4 204.2 191.69 204.2H191.68ZM192.05 170.52C189.28 170.52 186.28 171.75 182.88 174.27L182.26 174.72C178.49 177.49 171.48 182.64 174.23 187.71C176.83 192.52 180.76 196.29 184.23 199.45L184.28 199.5C186.51 201.53 188.81 203.63 191.67 203.63C192.32 203.63 193 203.52 193.67 203.3C199.38 201.43 204.88 195.33 205.94 189.69C206.16 188.53 206.21 187.32 206.09 186.09C205.64 181.6 202.79 176.73 198.46 173.06C196.47 171.37 194.32 170.52 192.05 170.52Z" fill="#626262"/>
<path d="M191.679 205.2C188.209 205.2 185.559 202.79 183.229 200.67C179.609 197.37 175.569 193.49 172.849 188.47C169.449 182.19 177.179 176.51 181.329 173.46L181.939 173.01C185.619 170.28 188.929 168.95 192.049 168.95C194.699 168.95 197.199 169.93 199.479 171.86C204.119 175.79 207.179 181.05 207.659 185.94C207.799 187.31 207.739 188.67 207.489 189.98C206.339 196.12 200.359 202.77 194.159 204.8C193.329 205.07 192.489 205.21 191.669 205.21L191.679 205.2ZM192.049 171.52C189.499 171.52 186.699 172.68 183.479 175.07L182.859 175.53C179.339 178.12 172.789 182.94 175.119 187.24C177.649 191.91 181.499 195.61 184.909 198.71C187.049 200.66 189.209 202.62 191.679 202.62C192.229 202.62 192.799 202.53 193.369 202.34C198.769 200.58 203.969 194.81 204.969 189.5C205.169 188.43 205.219 187.32 205.099 186.19C204.679 181.95 201.959 177.33 197.819 173.83C196.019 172.3 194.079 171.53 192.049 171.53V171.52Z" fill="#0F0F0F"/>
<g style="mix-blend-mode:multiply" opacity="0.4">
<path d="M206.389 186.05C205.879 180.92 202.509 176.1 198.659 172.83C193.359 168.34 187.819 170.25 182.719 174.03C178.999 176.78 170.959 182.26 173.989 187.85C176.509 192.5 180.179 196.14 184.049 199.66C186.829 202.19 189.749 204.88 193.779 203.56C199.449 201.7 205.149 195.55 206.239 189.73C206.469 188.5 206.509 187.27 206.389 186.05ZM194.759 190.52C194.569 193.04 194.299 198.65 190.969 199.21C188.469 199.63 185.669 196.95 184.019 195.43C181.329 192.97 178.349 190.56 176.369 187.46C175.539 186.15 174.899 184.91 175.389 183.36C175.799 182.06 177.069 181.01 178.059 180.15C179.939 178.53 181.839 176.9 183.879 175.49C185.829 173.68 188.079 171.8 190.769 171.98C193.369 172.15 193.909 175.45 194.229 177.48C194.899 181.75 195.089 186.22 194.759 190.53V190.52Z" fill="#908882"/>
</g>
<g style="mix-blend-mode:multiply" opacity="0.4">
<path d="M175.449 185.7C175.249 185.12 175.159 184.53 175.259 183.88C174.669 183.7 174.089 183.56 173.619 183.51C173.299 184.49 173.229 185.49 173.469 186.5C174.129 186.23 174.789 185.96 175.449 185.7Z" fill="#908882"/>
</g>
<g style="mix-blend-mode:multiply" opacity="0.4">
<path d="M191.599 199.03C191.399 199.11 191.189 199.18 190.969 199.21C190.719 199.25 190.469 199.26 190.209 199.24C190.329 200.79 190.519 202.33 190.839 203.84C191.749 203.97 192.729 203.9 193.769 203.56C193.869 203.53 193.969 203.48 194.069 203.45C193.169 202.02 192.319 200.55 191.599 199.03Z" fill="#908882"/>
</g>
<g style="mix-blend-mode:multiply" opacity="0.4">
<path d="M194.75 181.99C194.97 184.83 194.98 187.71 194.76 190.52C194.65 191.89 194.52 194.19 193.89 196.09C195.71 195.17 197.76 194.55 199.48 193.73C201.81 192.62 203.99 191.25 206.2 189.91C206.21 189.85 206.23 189.79 206.24 189.74C206.47 188.51 206.51 187.28 206.39 186.06C205.88 180.93 202.51 176.11 198.66 172.84C196.91 171.35 195.13 170.57 193.34 170.32C193.99 173.84 194.88 177.25 194.78 180.92C194.78 181.28 194.75 181.64 194.74 181.99H194.75Z" fill="#908882"/>
</g>
<g style="mix-blend-mode:screen" opacity="0.4">
<path d="M193.059 173.47C193.769 174.65 194.039 176.27 194.229 177.47C194.899 181.74 195.089 186.21 194.759 190.52C194.569 193.04 194.299 198.65 190.969 199.21C190.879 199.23 190.789 199.23 190.699 199.23C191.689 199.45 192.679 199.39 193.549 198.82C196.339 197.02 196.509 192.87 196.649 189.91C196.809 186.39 196.979 182.87 196.319 179.37C195.849 176.89 195.249 174.49 193.059 173.46V173.47Z" fill="white"/>
</g>
<g style="mix-blend-mode:multiply" opacity="0.4">
<path d="M181.729 180.22C181.499 180.04 181.249 180.09 181.029 180.22C180.769 180.3 180.559 180.53 180.429 180.78C180.239 181.17 180.089 181.9 180.589 182.11C180.839 182.21 181.239 182 181.409 181.83C181.679 181.55 181.879 181.27 181.959 180.88C181.999 180.67 181.909 180.35 181.739 180.21L181.729 180.22Z" fill="#908882"/>
</g>
<g style="mix-blend-mode:multiply" opacity="0.4">
<path d="M182.969 182.79C182.969 182.79 182.909 182.75 182.889 182.73C182.549 182.49 181.919 183.18 182.149 183.51C182.169 183.54 182.189 183.57 182.209 183.6C182.549 184.08 183.379 183.08 182.979 182.8L182.969 182.79Z" fill="#908882"/>
</g>
<g style="mix-blend-mode:multiply" opacity="0.4">
<path d="M186.118 188.27C186.118 188.27 186.078 188.23 186.038 188.21C185.958 188.15 185.798 188.32 185.848 188.4C185.818 188.45 185.818 188.5 185.878 188.51C185.908 188.51 185.938 188.51 185.978 188.51C186.068 188.51 186.198 188.34 186.118 188.27Z" fill="#908882"/>
</g>
<g style="mix-blend-mode:multiply" opacity="0.4">
<path d="M200.738 190.48C200.738 190.48 200.688 190.48 200.658 190.49C200.648 190.49 200.628 190.5 200.618 190.51C200.608 190.51 200.598 190.52 200.578 190.54C200.578 190.54 200.578 190.54 200.568 190.54C200.548 190.55 200.538 190.58 200.518 190.6C200.518 190.6 200.518 190.62 200.508 190.63C200.508 190.65 200.488 190.67 200.488 190.69C200.488 190.69 200.488 190.7 200.488 190.71C200.488 190.74 200.488 190.77 200.538 190.79H200.558C200.558 190.79 200.618 190.79 200.648 190.76C200.778 190.74 200.918 190.47 200.738 190.47V190.48Z" fill="#908882"/>
</g>
<g style="mix-blend-mode:multiply" opacity="0.4">
<path d="M201.718 184.31C201.738 184.13 201.708 183.96 201.618 183.84C201.568 183.78 201.518 183.77 201.438 183.79C201.348 183.82 201.278 183.87 201.208 183.93C201.218 183.85 201.138 183.81 201.048 183.9C200.898 184.05 200.838 184.3 200.838 184.5C200.838 184.69 200.898 185.04 201.158 185.03C201.438 185.02 201.628 184.75 201.688 184.45C201.708 184.4 201.718 184.35 201.708 184.31H201.718Z" fill="#908882"/>
</g>
<g style="mix-blend-mode:multiply" opacity="0.4">
<path d="M202.869 188.25C202.809 188.09 202.609 188.31 202.569 188.39C202.349 188.62 202.519 188.89 202.759 188.62C202.859 188.51 202.929 188.39 202.869 188.24V188.25Z" fill="#908882"/>
</g>
<g style="mix-blend-mode:multiply" opacity="0.4">
<path d="M202.179 193.71C202.029 193.67 201.889 193.71 201.759 193.83C201.489 193.81 201.339 194.07 201.259 194.28C201.169 194.51 201.1 194.86 201.31 195.03C201.56 195.25 201.929 194.97 202.099 194.78C202.149 194.73 202.159 194.71 202.149 194.72C202.189 194.68 202.22 194.64 202.25 194.59C202.32 194.48 202.349 194.36 202.379 194.23C202.429 194.04 202.389 193.78 202.179 193.71Z" fill="#908882"/>
</g>
<g style="mix-blend-mode:multiply" opacity="0.4">
<path d="M195.689 200.05C195.689 200.05 195.649 200.07 195.619 200.08C195.559 200.1 195.389 200.28 195.499 200.34C195.509 200.34 195.529 200.36 195.539 200.36C195.769 200.49 195.909 199.96 195.679 200.05H195.689Z" fill="#908882"/>
</g>
<g style="mix-blend-mode:multiply" opacity="0.4">
<path d="M186.359 199.51C186.339 199.36 186.179 199.41 186.079 199.53C186.079 199.53 186.059 199.51 186.049 199.51C185.939 199.44 185.789 199.64 185.829 199.74C185.919 199.97 186.049 200.25 186.329 200.08C186.429 200.02 186.509 199.9 186.519 199.79C186.539 199.64 186.369 199.63 186.359 199.52V199.51Z" fill="#908882"/>
</g>
<g style="mix-blend-mode:multiply" opacity="0.4">
<path d="M177.979 190.48C177.979 190.48 177.979 190.44 177.949 190.42C177.879 190.26 177.749 190.14 177.589 190.1C177.409 190.06 177.229 190.3 177.239 190.47C177.239 190.56 177.279 190.63 177.319 190.69C177.319 190.94 177.469 191.2 177.709 191.26C177.819 191.28 177.919 191.19 177.969 191.1C178.059 190.93 178.059 190.69 177.979 190.48Z" fill="#908882"/>
</g>
<g style="mix-blend-mode:multiply" opacity="0.4">
<path d="M184.78 192.66C184.78 192.66 184.75 192.7 184.74 192.72C184.7 192.72 184.65 192.72 184.61 192.72C184.35 192.8 184.29 193.1 184.32 193.34C184.36 193.63 184.61 193.88 184.88 193.97C185.2 194.08 185.51 193.78 185.7 193.56C186.22 192.98 185.34 192 184.77 192.65L184.78 192.66Z" fill="#908882"/>
</g>
<g style="mix-blend-mode:multiply" opacity="0.4">
<path d="M192.058 177.33C191.868 177.33 191.728 177.44 191.628 177.59C191.608 177.59 191.588 177.59 191.578 177.61C191.298 177.74 191.138 178.25 191.368 178.49C192.198 179.33 192.678 177.34 192.058 177.34V177.33Z" fill="#908882"/>
</g>
<g style="mix-blend-mode:multiply" opacity="0.4">
<path d="M182.169 175.15C182.089 175.19 182.019 175.24 181.959 175.29C181.789 175.33 181.649 175.54 181.599 175.69C181.589 175.73 181.579 175.8 181.619 175.83C181.869 176.03 182.399 175.49 182.339 175.23C182.319 175.15 182.249 175.11 182.169 175.15Z" fill="#908882"/>
</g>
<g style="mix-blend-mode:multiply" opacity="0.4">
<path d="M177.918 185.44C177.918 185.44 177.798 185.42 177.748 185.44C177.738 185.42 177.728 185.4 177.718 185.38C177.698 185.35 177.668 185.33 177.628 185.34C177.298 185.41 177.288 185.82 177.478 186.03C177.678 186.25 178.148 185.67 177.908 185.44H177.918Z" fill="#908882"/>
</g>
<g style="mix-blend-mode:multiply" opacity="0.4">
<path d="M198.539 179.89C198.489 179.83 198.419 179.86 198.359 179.91C198.349 179.91 198.329 179.91 198.309 179.91C198.079 180.03 197.959 180.55 198.229 180.68C198.389 180.75 198.519 180.6 198.599 180.47C198.719 180.28 198.669 180.04 198.529 179.87L198.539 179.89Z" fill="#908882"/>
</g>
<g style="mix-blend-mode:multiply" opacity="0.4">
<path d="M199.7 177.51C199.7 177.51 199.66 177.48 199.64 177.46C199.58 177.34 199.36 177.53 199.39 177.64C199.41 177.73 199.42 177.75 199.51 177.78C199.62 177.82 199.82 177.57 199.7 177.5V177.51Z" fill="#908882"/>
</g>
<g style="mix-blend-mode:multiply" opacity="0.4">
<path d="M195.179 172.27C195.179 172.27 195.179 172.21 195.149 172.19C195.109 172.17 195.089 172.13 195.079 172.09C195.079 172.09 195.069 172.07 195.059 172.07C194.989 171.99 194.889 172.11 194.839 172.21C194.839 172.18 194.829 172.15 194.839 172.13C194.859 172.08 194.789 172.1 194.779 172.13C194.719 172.26 194.909 172.75 195.089 172.69C195.269 172.63 195.249 172.44 195.189 172.28L195.179 172.27Z" fill="#908882"/>
</g>
<g style="mix-blend-mode:multiply" opacity="0.4">
<path d="M204.179 182.62C204.179 182.62 204.159 182.6 204.149 182.59C204.209 182.42 204.029 182.4 203.919 182.49C203.849 182.55 203.719 182.82 203.919 182.81C203.959 182.81 203.999 182.82 204.029 182.84C204.119 182.87 204.239 182.7 204.179 182.63V182.62Z" fill="#908882"/>
</g>
<g style="mix-blend-mode:multiply" opacity="0.4">
<path d="M198.139 190.13C198.109 190.19 198.079 190.25 198.049 190.31C198.019 190.35 197.969 190.41 197.999 190.46C197.999 190.46 197.999 190.46 197.999 190.47C198.019 190.51 198.079 190.51 198.119 190.48C198.249 190.38 198.329 190.31 198.379 190.14C198.449 189.93 198.199 189.99 198.139 190.12V190.13Z" fill="#908882"/>
</g>
<g style="mix-blend-mode:multiply" opacity="0.4">
<path d="M197.229 196.88C197.229 196.88 197.229 196.83 197.209 196.82C196.909 196.61 196.709 197.36 197.119 197.14C197.179 197.11 197.279 196.96 197.229 196.88Z" fill="#908882"/>
</g>
<path d="M231.569 395.64C239.359 387.23 244.099 376.25 244.099 364.22C244.099 337.8 221.339 316.39 193.269 316.39C165.199 316.39 142.439 337.81 142.439 364.22C142.439 376 146.979 386.79 154.489 395.12C173.669 392.77 190.819 389.26 190.819 389.26C190.819 389.26 210.699 393.33 231.589 395.64H231.569Z" fill="white"/>
<path d="M120.609 312.35C113.319 315.94 106.959 321.41 102.309 328.08C99.269 332.43 96.979 337.26 95.009 342.19C94.329 343.89 93.669 345.65 92.489 347.05C91.059 348.76 88.979 349.84 87.639 351.62C86.299 353.4 86.159 356.48 88.179 357.41C89.639 358.08 91.319 357.26 92.709 356.45C92.639 358.8 94.149 361.12 96.329 362C98.509 362.88 101.209 362.27 102.799 360.54C102.279 362.42 103.739 364.38 105.549 365.11C107.359 365.84 109.379 365.67 111.309 365.48C111.839 365.43 112.389 365.37 112.829 365.08C113.419 364.69 113.689 363.97 113.929 363.29C116.059 357.14 118.179 350.99 120.309 344.84" fill="#98CA51"/>
<path d="M119.089 309.76C110.859 313.84 103.829 320.2 98.819 327.89C96.069 332.12 93.969 336.72 92.099 341.4C91.989 341.66 91.889 341.93 91.789 342.19C91.739 342.32 91.679 342.45 91.629 342.58C91.599 342.65 91.459 342.99 91.619 342.61C91.779 342.21 91.599 342.64 91.559 342.74C91.499 342.87 91.439 343 91.379 343.13C91.239 343.42 91.099 343.7 90.949 343.98C90.809 344.23 90.669 344.47 90.519 344.7C90.439 344.82 90.359 344.93 90.279 345.05C90.239 345.11 90.049 345.42 90.259 345.08C90.469 344.74 90.239 345.08 90.159 345.17C90.069 345.27 89.979 345.37 89.879 345.46C89.669 345.68 89.449 345.89 89.219 346.09C87.569 347.57 85.569 348.83 84.569 350.89C83.319 353.45 83.209 356.61 85.169 358.86C86.209 360.05 87.879 360.72 89.449 360.67C91.169 360.61 92.739 359.9 94.209 359.06C92.709 358.2 91.199 357.33 89.699 356.47C89.659 360.06 91.879 363.38 95.169 364.76C98.459 366.14 102.469 365.26 104.909 362.68L99.899 359.76C99.159 362.81 100.739 365.81 103.369 367.39C105.809 368.85 108.779 368.77 111.499 368.48C112.439 368.38 113.319 368.26 114.159 367.79C114.939 367.36 115.599 366.67 116.049 365.9C116.739 364.72 117.089 363.29 117.539 362.01C118.429 359.44 119.319 356.87 120.209 354.3C121.209 351.42 122.199 348.54 123.199 345.66C123.709 344.18 122.609 342.31 121.099 341.97C119.429 341.59 117.959 342.48 117.409 344.07C115.889 348.47 114.369 352.87 112.849 357.27C112.469 358.36 112.099 359.45 111.719 360.54C111.529 361.08 111.339 361.63 111.149 362.17C111.069 362.4 110.989 362.63 110.909 362.86C110.739 363.33 111.119 362.26 110.879 362.88C110.749 363.22 111.319 362.47 111.039 362.7C110.789 362.9 111.339 362.5 111.319 362.52C110.959 362.75 111.339 362.38 111.499 362.46C111.469 362.45 111.249 362.52 111.209 362.53C110.909 362.63 111.489 362.49 111.509 362.49C111.389 362.48 111.219 362.52 111.089 362.53C110.789 362.56 110.489 362.59 110.189 362.61C109.699 362.65 109.209 362.67 108.719 362.67C108.459 362.67 108.199 362.67 107.929 362.65C107.819 362.65 107.709 362.63 107.599 362.62C107.219 362.6 108.189 362.75 107.629 362.62C107.339 362.55 107.059 362.47 106.769 362.4C106.679 362.38 106.349 362.22 106.729 362.4C107.169 362.61 106.619 362.33 106.569 362.31C106.489 362.27 106.409 362.22 106.329 362.17C106.059 362 106.079 361.82 106.409 362.26C106.289 362.1 106.079 361.97 105.939 361.81C105.859 361.73 105.589 361.4 105.879 361.76C106.169 362.12 105.909 361.78 105.849 361.69C105.789 361.59 105.739 361.47 105.669 361.37C105.489 361.08 105.829 361.92 105.769 361.59C105.749 361.48 105.709 361.36 105.669 361.25C105.549 360.95 105.679 361.85 105.699 361.53C105.699 361.45 105.699 361.35 105.699 361.27C105.669 360.67 105.549 361.96 105.699 361.36C105.999 360.11 105.509 358.6 104.319 357.97C103.129 357.34 101.619 357.45 100.679 358.44C100.599 358.53 100.509 358.61 100.429 358.7C100.349 358.78 99.929 359.11 100.319 358.82C100.689 358.54 100.339 358.8 100.259 358.85C100.159 358.92 100.059 358.98 99.949 359.04C99.839 359.1 99.639 359.17 99.549 359.25C99.629 359.17 100.159 359.02 99.769 359.16C99.539 359.24 99.309 359.31 99.079 359.37C98.929 359.41 98.779 359.43 98.639 359.46C98.269 359.54 99.269 359.43 98.899 359.42C98.659 359.42 98.419 359.44 98.179 359.43C97.679 359.41 98.129 359.41 98.349 359.48C98.239 359.45 98.109 359.44 97.999 359.41C97.889 359.38 97.769 359.35 97.649 359.32C97.529 359.29 97.049 359.08 97.499 359.29C97.949 359.5 97.249 359.16 97.129 359.08C97.029 359.02 96.929 358.95 96.829 358.89C96.519 358.71 97.319 359.33 96.939 358.98C96.759 358.82 96.589 358.66 96.419 358.48C96.339 358.39 96.269 358.29 96.179 358.21C96.669 358.67 96.419 358.52 96.279 358.31C96.149 358.11 96.029 357.9 95.919 357.68C95.689 357.23 95.959 357.61 95.969 357.82C95.969 357.71 95.889 357.58 95.849 357.48C95.779 357.25 95.759 357 95.679 356.78C95.899 357.41 95.729 357.25 95.719 356.95C95.719 356.8 95.719 356.65 95.719 356.5C95.749 354.2 93.159 352.79 91.209 353.91C90.989 354.03 90.779 354.16 90.559 354.27C90.449 354.33 89.949 354.49 89.879 354.6C90.009 354.37 90.369 354.44 89.999 354.54C89.859 354.58 89.729 354.63 89.599 354.66C89.499 354.69 89.399 354.7 89.299 354.73C88.939 354.83 89.939 354.71 89.389 354.7C88.839 354.69 90.059 354.81 89.299 354.67C88.979 354.61 89.579 354.76 89.599 354.8C89.599 354.8 89.389 354.66 89.359 354.65C89.389 354.65 89.939 355.16 89.649 354.85C89.569 354.76 89.429 354.57 89.699 354.95C90.089 355.49 89.549 354.76 89.579 354.67C89.619 354.56 89.749 355.39 89.759 355.06C89.759 355 89.719 354.91 89.699 354.86C89.699 354.86 89.619 354.6 89.639 354.58C89.669 354.54 89.689 355.44 89.699 354.94C89.699 354.77 89.699 354.59 89.699 354.42C89.699 353.79 89.539 355.09 89.699 354.46C89.739 354.28 89.779 354.11 89.839 353.94C89.869 353.86 89.929 353.73 89.939 353.65C89.939 353.64 89.639 354.26 89.789 354.01C89.879 353.86 89.949 353.69 90.039 353.54C90.059 353.5 90.189 353.35 90.199 353.29C90.149 353.51 89.779 353.8 90.139 353.38C91.439 351.86 93.229 350.86 94.539 349.36C96.189 347.47 97.079 345.22 97.999 342.91C98.199 342.41 98.359 341.79 98.649 341.33C98.649 341.35 98.429 341.84 98.569 341.52C98.609 341.42 98.659 341.31 98.699 341.21C98.829 340.9 98.969 340.58 99.109 340.27C99.549 339.26 100.019 338.27 100.499 337.28C101.499 335.24 102.599 333.24 103.819 331.33C104.389 330.44 104.989 329.56 105.609 328.71C105.749 328.52 105.899 328.33 106.039 328.13C106.349 327.71 105.989 328.19 105.939 328.25C106.019 328.14 106.109 328.03 106.189 327.93C106.509 327.53 106.829 327.13 107.159 326.74C108.459 325.2 109.859 323.74 111.339 322.37C112.189 321.58 113.069 320.82 113.979 320.1C114.139 319.97 114.849 319.5 114.179 319.94C114.409 319.79 114.619 319.61 114.839 319.45C115.309 319.1 115.779 318.77 116.259 318.44C118.149 317.15 120.129 315.99 122.179 314.97C123.589 314.27 124.089 312.16 123.259 310.87C122.329 309.43 120.659 309.05 119.159 309.79L119.089 309.76Z" fill="black"/>
<path d="M258.49 312.35C265.78 315.94 272.14 321.41 276.79 328.08C279.83 332.43 282.12 337.26 284.09 342.19C284.77 343.89 285.43 345.65 286.61 347.05C288.04 348.76 290.12 349.84 291.46 351.62C292.8 353.4 292.94 356.48 290.92 357.41C289.46 358.08 287.78 357.26 286.39 356.45C286.46 358.8 284.95 361.12 282.77 362C280.59 362.88 277.89 362.27 276.3 360.54C276.82 362.42 275.36 364.38 273.55 365.11C271.74 365.84 269.72 365.67 267.79 365.48C267.26 365.43 266.71 365.37 266.27 365.08C265.68 364.69 265.41 363.97 265.17 363.29C263.04 357.14 260.92 350.99 258.79 344.84" fill="#98CA51"/>
<path d="M256.979 314.94C258.819 315.85 260.599 316.87 262.309 318C263.139 318.55 263.939 319.12 264.729 319.72C265.329 320.17 264.429 319.48 264.849 319.81C265.039 319.96 265.219 320.11 265.409 320.26C265.829 320.6 266.249 320.96 266.669 321.31C268.189 322.63 269.629 324.04 270.979 325.54C271.669 326.3 272.329 327.09 272.959 327.89C273.019 327.97 273.089 328.05 273.149 328.13C273.399 328.45 272.809 327.68 273.059 328.01C273.199 328.2 273.349 328.39 273.489 328.58C273.799 329 274.099 329.43 274.399 329.86C275.669 331.7 276.799 333.63 277.839 335.61C278.369 336.62 278.869 337.64 279.349 338.67C279.569 339.15 279.789 339.64 280.009 340.12C280.129 340.4 280.249 340.68 280.369 340.95C280.419 341.05 280.459 341.16 280.499 341.26C280.579 341.44 280.849 341.82 280.499 341.28C280.769 341.7 280.919 342.29 281.099 342.75C281.299 343.25 281.489 343.75 281.699 344.24C282.179 345.39 282.649 346.55 283.319 347.6C283.989 348.65 284.769 349.56 285.679 350.36C286.419 351.01 287.199 351.6 287.939 352.25C288.369 352.63 288.749 353.04 289.139 353.47C289.369 353.72 288.949 353.22 288.949 353.22C288.969 353.3 289.109 353.46 289.149 353.54C289.199 353.63 289.249 353.72 289.299 353.81C289.449 354.09 289.299 354.2 289.209 353.58C289.239 353.77 289.349 353.98 289.399 354.17C289.419 354.24 289.429 354.32 289.449 354.4C289.579 354.89 289.399 354.3 289.419 354.13C289.399 354.32 289.449 354.54 289.439 354.73C289.439 354.73 289.439 355 289.419 355.02C289.449 354.99 289.599 354.18 289.449 354.72C289.429 354.79 289.409 354.86 289.399 354.93C289.309 355.39 289.709 354.4 289.529 354.67C289.449 354.79 289.109 355.34 289.439 354.88C289.729 354.48 289.549 354.74 289.439 354.83C289.219 355.02 290.119 354.43 289.659 354.66C289.559 354.71 289.349 354.79 289.729 354.66C290.319 354.44 289.539 354.71 289.539 354.69C289.529 354.63 290.179 354.69 289.839 354.64C289.199 354.55 289.879 354.78 289.929 354.7C289.889 354.77 289.229 354.52 289.119 354.49C288.589 354.33 289.169 354.54 289.239 354.55C289.079 354.52 288.899 354.39 288.749 354.32C288.459 354.17 288.179 354.02 287.899 353.86C285.949 352.74 283.359 354.15 283.389 356.45C283.389 356.57 283.389 356.69 283.389 356.81C283.389 356.93 283.329 357.48 283.389 356.95C283.449 356.42 283.319 357.19 283.279 357.34C283.239 357.47 283.149 357.64 283.139 357.77C283.139 357.66 283.419 357.18 283.229 357.55C283.119 357.76 283.009 357.98 282.879 358.18C282.819 358.28 282.489 358.7 282.799 358.32C283.089 357.96 282.809 358.29 282.749 358.37C282.589 358.55 282.419 358.72 282.239 358.88C281.869 359.21 282.149 358.87 282.349 358.8C282.249 358.83 282.139 358.94 282.049 359C281.949 359.06 281.839 359.12 281.739 359.18C281.639 359.23 281.149 359.47 281.609 359.25C282.029 359.05 281.649 359.22 281.539 359.25C281.429 359.29 281.309 359.32 281.189 359.35C281.069 359.38 280.949 359.4 280.839 359.42C280.469 359.5 281.549 359.38 281.009 359.39C280.769 359.39 280.529 359.39 280.289 359.39C279.879 359.39 280.429 359.41 280.549 359.44C280.409 359.4 280.249 359.39 280.109 359.36C279.869 359.31 279.639 359.24 279.419 359.16C278.939 358.99 279.399 359.08 279.549 359.22C279.469 359.15 279.319 359.11 279.229 359.06C279.019 358.94 278.829 358.78 278.619 358.67C279.189 358.96 278.939 358.93 278.739 358.74C278.629 358.64 278.519 358.53 278.419 358.42C277.539 357.49 275.869 357.25 274.779 357.95C273.629 358.69 273.079 360 273.399 361.34C273.399 360.67 273.529 361.86 273.399 361.34C273.399 361.42 273.369 361.53 273.389 361.6C273.369 361.51 273.559 360.87 273.409 361.32C273.379 361.4 273.349 361.49 273.329 361.57C273.269 361.86 273.449 361.28 273.469 361.27C273.369 361.38 273.159 361.74 273.099 361.89C273.249 361.47 273.439 361.5 273.229 361.71C273.169 361.78 273.099 361.85 273.039 361.91C272.979 361.97 272.899 362.04 272.839 362.1C272.479 362.45 272.939 362 273.009 361.98C272.829 362.03 272.619 362.23 272.459 362.32C272.389 362.36 272.279 362.39 272.209 362.44C272.359 362.32 272.739 362.25 272.339 362.36C272.089 362.43 271.839 362.5 271.589 362.56C271.479 362.58 270.999 362.65 271.439 362.6C271.879 362.55 271.469 362.6 271.399 362.6C270.839 362.63 270.279 362.65 269.709 362.62C269.219 362.6 268.729 362.56 268.239 362.51C268.089 362.5 267.939 362.48 267.789 362.47C267.349 362.42 267.699 362.47 267.789 362.47C268.349 362.54 267.789 362.47 267.789 362.46C267.539 362.38 267.529 362.39 267.769 362.49C267.969 362.59 267.999 362.6 267.859 362.52C267.559 362.35 268.119 362.73 268.109 362.72C267.739 362.42 268.259 362.82 268.259 362.91C268.259 362.87 268.159 362.71 268.129 362.68C267.959 362.43 268.239 362.98 268.249 362.99C268.109 362.46 267.879 361.95 267.699 361.43C267.319 360.34 266.949 359.25 266.569 358.16C265.799 355.94 265.039 353.72 264.269 351.5C263.409 349.01 262.549 346.52 261.689 344.03C261.179 342.55 259.609 341.41 257.999 341.93C256.529 342.4 255.359 344.03 255.899 345.62C257.679 350.76 259.449 355.9 261.229 361.03C262.189 363.8 262.869 367.46 266.199 368.24C267.479 368.54 268.949 368.61 270.269 368.62C271.929 368.63 273.539 368.35 275.069 367.68C278.079 366.34 279.979 362.97 279.189 359.72L274.179 362.64C276.619 365.22 280.649 366.1 283.919 364.72C287.189 363.34 289.429 360.02 289.389 356.43C287.889 357.29 286.379 358.16 284.879 359.02C286.019 359.67 287.239 360.29 288.539 360.5C290.379 360.8 292.079 360.41 293.529 359.21C295.409 357.64 295.759 354.84 295.189 352.58C294.599 350.24 292.919 348.57 291.109 347.1C290.689 346.76 290.269 346.42 289.869 346.06C289.689 345.9 289.519 345.74 289.349 345.58C289.239 345.47 288.739 345.07 288.729 344.91C288.729 344.93 289.139 345.5 288.809 345.02C288.729 344.9 288.649 344.79 288.569 344.67C288.419 344.44 288.269 344.19 288.139 343.95C287.889 343.49 287.529 342.94 287.399 342.43C287.419 342.5 287.659 343.06 287.459 342.56C287.409 342.43 287.349 342.3 287.299 342.17C287.189 341.91 287.089 341.64 286.989 341.38C286.759 340.82 286.539 340.25 286.299 339.69C285.759 338.4 285.209 337.12 284.619 335.85C283.599 333.65 282.489 331.49 281.229 329.41C278.819 325.42 275.879 321.71 272.499 318.5C268.799 314.99 264.569 312 259.999 309.74C258.599 309.04 256.689 309.32 255.899 310.82C255.179 312.18 255.469 314.18 256.979 314.92V314.94Z" fill="black"/>
<path d="M169.928 227.64C173.015 227.64 175.518 225.137 175.518 222.05C175.518 218.963 173.015 216.46 169.928 216.46C166.841 216.46 164.338 218.963 164.338 222.05C164.338 225.137 166.841 227.64 169.928 227.64Z" fill="black"/>
<path d="M214.299 227.64C217.386 227.64 219.889 225.137 219.889 222.05C219.889 218.963 217.386 216.46 214.299 216.46C211.212 216.46 208.709 218.963 208.709 222.05C208.709 225.137 211.212 227.64 214.299 227.64Z" fill="black"/>
<path d="M225.838 244.91C225.578 243.55 224.268 242.67 222.918 242.92C222.748 242.96 205.398 246.08 193.818 236.06C193.448 235.74 193.008 235.55 192.548 235.48V235.45C192.478 235.45 192.408 235.45 192.338 235.46C192.268 235.46 192.198 235.44 192.128 235.45V235.48C191.678 235.55 191.228 235.74 190.858 236.06C179.278 246.08 161.938 242.96 161.758 242.92C160.408 242.66 159.098 243.55 158.838 244.91C158.578 246.27 159.468 247.58 160.828 247.83C161.078 247.88 163.038 248.24 166.038 248.38C172.148 248.67 182.528 248.04 191.348 241.99C191.948 241.57 192.738 241.57 193.338 241.99C202.158 248.04 212.538 248.67 218.648 248.38C221.648 248.24 223.608 247.88 223.858 247.83C225.218 247.57 226.108 246.26 225.848 244.91H225.838Z" fill="black"/>
</g>
<defs>
<clipPath id="clip0_873_818">
<rect width="380.54" height="573" fill="white" transform="translate(0.949219)"/>
</clipPath>
</defs>
</svg>
