<svg width="381" height="573" viewBox="0 0 381 573" fill="none" xmlns="http://www.w3.org/2000/svg">
<g clip-path="url(#clip0_873_1532)">
<path d="M358.678 0H22.6782C10.3788 0 0.408203 9.97062 0.408203 22.27V550.73C0.408203 563.029 10.3788 573 22.6782 573H358.678C370.978 573 380.948 563.029 380.948 550.73V22.27C380.948 9.97062 370.978 0 358.678 0Z" fill="#98CA51"/>
<path d="M319.639 95.66C338.416 95.66 353.639 80.4377 353.639 61.66C353.639 42.8823 338.416 27.66 319.639 27.66C300.861 27.66 285.639 42.8823 285.639 61.66C285.639 80.4377 300.861 95.66 319.639 95.66Z" fill="white"/>
<path d="M321.068 67.6501C320.538 68.0123 320.023 68.4302 319.522 68.9038C319.02 69.3496 318.588 69.7953 318.226 70.2411C317.808 70.6869 317.46 71.1187 317.181 71.5366C316.903 71.9266 316.722 72.2749 316.638 72.5813H332.476V78.5155H307.82V74.0022C307.848 73.445 307.946 72.846 308.113 72.2052C308.28 71.648 308.503 71.0351 308.781 70.3665C309.088 69.6978 309.534 68.9735 310.119 68.1934C310.342 67.8869 310.62 67.4969 310.955 67.0233C311.317 66.5497 311.846 65.9785 312.543 65.3099C313.183 64.6412 314.047 63.8612 315.134 62.9696C316.22 62.0503 317.655 60.9916 319.438 59.7936C319.522 59.7379 319.619 59.6682 319.73 59.5847C319.87 59.5011 319.967 59.4454 320.023 59.4175H319.981C320.761 58.8882 321.514 58.331 322.238 57.7459C322.962 57.133 323.324 56.3529 323.324 55.4057C323.324 53.7898 322.711 52.7032 321.486 52.146C320.288 51.5888 318.797 51.3102 317.014 51.3102L313.295 51.4774C312.654 51.4774 312.125 51.3938 311.707 51.2267C311.289 51.0316 310.955 50.7948 310.704 50.5162C310.425 50.2376 310.216 49.9451 310.077 49.6386C309.938 49.3322 309.84 49.0814 309.784 48.8864L308.823 45.1671L319.605 44.8746C321.444 44.8746 323.129 45.0557 324.662 45.4178C326.222 45.7522 327.573 46.3233 328.715 47.1312C329.83 47.9392 330.707 48.9839 331.348 50.2655C332.017 51.547 332.351 53.1629 332.351 55.1131C332.351 56.5618 331.947 57.9131 331.139 59.1668C330.331 60.4205 329.342 61.507 328.172 62.4264C327.03 63.3179 325.874 64.1816 324.703 65.0174C323.561 65.8532 322.349 66.7307 321.068 67.6501Z" fill="#98CA51"/>
<path d="M68.8984 546.34C87.6761 546.34 102.898 531.118 102.898 512.34C102.898 493.562 87.6761 478.34 68.8984 478.34C50.1208 478.34 34.8984 493.562 34.8984 512.34C34.8984 531.118 50.1208 546.34 68.8984 546.34Z" fill="#98CA51"/>
<path d="M79.8314 498.354C78.4939 499.269 77.1917 500.325 75.9246 501.522C74.6575 502.648 73.5664 503.775 72.6513 504.901C71.5954 506.027 70.7155 507.118 70.0115 508.174C69.3076 509.16 68.85 510.04 68.6389 510.814H108.657V525.808H46.3594V514.404C46.4298 512.996 46.6761 511.483 47.0985 509.864C47.5209 508.456 48.084 506.907 48.7879 505.218C49.5623 503.528 50.6886 501.698 52.1668 499.727C52.73 498.953 53.4339 497.967 54.2786 496.77C55.1937 495.574 56.5312 494.131 58.291 492.441C59.9101 490.752 62.0923 488.781 64.8376 486.528C67.583 484.205 71.2082 481.53 75.7134 478.503C75.9246 478.363 76.1709 478.187 76.4525 477.975C76.8045 477.764 77.0509 477.623 77.1917 477.553H77.0861C79.0571 476.216 80.9577 474.808 82.7879 473.329C84.6182 471.781 85.5333 469.81 85.5333 467.416C85.5333 463.334 83.9846 460.588 80.8873 459.18C77.8604 457.773 74.0943 457.069 69.5892 457.069L60.1917 457.491C58.5726 457.491 57.2351 457.28 56.1792 456.857C55.1233 456.365 54.2786 455.766 53.6451 455.062C52.9412 454.358 52.4132 453.619 52.0612 452.845C51.7093 452.071 51.4629 451.437 51.3221 450.944L48.8935 441.547L76.1358 440.808C80.7817 440.808 85.0405 441.265 88.9121 442.18C92.8542 443.025 96.2682 444.468 99.1544 446.51C101.97 448.551 104.187 451.191 105.807 454.429C107.496 457.667 108.341 461.75 108.341 466.677C108.341 470.338 107.32 473.752 105.279 476.92C103.237 480.087 100.738 482.833 97.7817 485.156C94.8956 487.408 91.9743 489.59 89.0177 491.702C86.1316 493.814 83.0695 496.031 79.8314 498.354Z" fill="white"/>
<path d="M264.207 362.59L120.857 349.11V304.03H265.727L264.207 362.59Z" fill="#D6AF43"/>
<path d="M120.558 312.89C117.328 311.62 114.168 310.16 111.098 308.47C107.048 306.23 103.188 303.65 99.6485 300.71C95.9385 297.61 92.5985 294.07 89.8585 290.11C82.7585 279.87 80.6285 267.52 82.8185 255.43C83.3285 252.61 84.0485 249.83 84.9285 247.11C84.9285 247.11 88.4085 229.7 115.278 207.42C114.278 204.19 113.738 200.78 113.738 197.24C113.738 177.78 129.948 162.01 149.948 162.01C167.058 162.01 181.378 173.56 185.168 189.07C185.778 188.95 188.768 188.97 189.958 188.99C191.158 188.98 194.148 188.95 194.748 189.07C198.538 173.55 212.858 162.01 229.968 162.01C249.968 162.01 266.178 177.78 266.178 197.24C266.178 200.78 265.638 204.2 264.638 207.42C291.518 229.69 294.988 247.11 294.988 247.11C295.868 249.84 296.588 252.62 297.098 255.43C299.288 267.52 297.158 279.87 290.058 290.11C287.318 294.06 283.978 297.6 280.268 300.71C278.618 302.09 276.878 303.35 275.118 304.58C272.288 306.57 269.528 308.66 266.668 310.6L261.988 312.89" fill="#D6AF43"/>
<path d="M120.558 316.39C120.128 316.39 119.698 316.31 119.278 316.14C115.718 314.74 112.498 313.23 109.408 311.53C105.048 309.12 101.008 306.38 97.4177 303.4C93.3077 299.97 89.8077 296.17 86.9877 292.11C79.6477 281.52 76.9477 268.27 79.3777 254.81C79.8877 252 80.6177 249.1 81.5477 246.19C82.0677 243.94 86.6477 227.2 111.308 206.19C110.598 203.26 110.238 200.26 110.238 197.24C110.238 175.89 128.048 158.51 149.948 158.51C167.428 158.51 182.588 169.46 187.778 185.48C188.388 185.48 189.118 185.48 189.998 185.49C190.838 185.49 191.548 185.49 192.138 185.48C197.338 169.46 212.498 158.51 229.968 158.51C251.858 158.51 269.678 175.88 269.678 197.24C269.678 200.26 269.318 203.26 268.608 206.19C293.268 227.21 297.848 243.95 298.368 246.19C299.298 249.1 300.028 252 300.538 254.81C302.978 268.27 300.278 281.52 292.928 292.11C290.118 296.17 286.608 299.97 282.508 303.4C280.858 304.78 279.168 306.02 277.128 307.45C276.008 308.24 274.898 309.04 273.788 309.85C272.118 311.06 270.388 312.32 268.628 313.51L268.208 313.75L263.528 316.04C261.788 316.89 259.698 316.17 258.848 314.44C257.998 312.7 258.718 310.61 260.448 309.76L264.908 307.58C266.508 306.49 268.118 305.32 269.678 304.19C270.818 303.36 271.958 302.54 273.098 301.73C274.988 300.4 276.558 299.26 278.018 298.04C281.638 295.01 284.718 291.68 287.178 288.13C293.458 279.07 295.758 267.68 293.648 256.06C293.188 253.5 292.518 250.85 291.658 248.19L291.558 247.8C291.528 247.66 287.768 231.14 262.408 210.12L260.608 208.63L261.298 206.39C262.218 203.42 262.688 200.35 262.688 197.24C262.688 179.74 248.018 165.51 229.978 165.51C214.748 165.51 201.668 175.54 198.158 189.9L197.368 193.15L194.178 192.52C193.838 192.49 192.638 192.45 190.008 192.48C187.308 192.45 186.098 192.48 185.758 192.52L182.568 193.15L181.778 189.9C178.268 175.54 165.188 165.51 149.958 165.51C131.928 165.51 117.248 179.74 117.248 197.24C117.248 200.34 117.718 203.42 118.638 206.39L119.328 208.63L117.528 210.12C92.1677 231.14 88.4077 247.65 88.3677 247.82L88.2677 248.19C87.4077 250.86 86.7377 253.51 86.2777 256.06C84.1777 267.68 86.4677 279.07 92.7477 288.13C95.2077 291.67 98.2877 295.01 101.908 298.03C105.158 300.73 108.828 303.21 112.808 305.41C115.628 306.97 118.588 308.35 121.868 309.64C123.668 310.35 124.548 312.38 123.838 314.18C123.298 315.56 121.978 316.4 120.578 316.4L120.558 316.39Z" fill="black"/>
<path d="M117.067 345.11C115.587 364.83 117.637 384.79 117.637 384.79L111.717 391.38C108.457 395.01 110.597 400.81 115.427 401.45C139.867 404.65 190.967 393.83 190.967 393.83C190.967 393.83 243.847 405.03 267.747 401.27C272.037 400.6 273.847 395.42 270.957 392.2L264.307 384.79C264.307 384.79 264.707 369.38 264.417 355.85V347.15" fill="#D6AF43"/>
<path d="M126.087 405.55C122.047 405.55 118.287 405.36 114.977 404.93C111.457 404.47 108.497 402.11 107.257 398.77C106.017 395.43 106.727 391.7 109.107 389.05L113.997 383.6C113.547 378.48 112.297 361.72 113.567 344.85C113.707 342.92 115.387 341.48 117.317 341.62C119.247 341.76 120.687 343.44 120.547 345.37C119.107 364.54 121.087 384.24 121.107 384.43L121.267 385.97L114.317 393.72C113.377 394.76 113.657 395.89 113.817 396.33C113.977 396.76 114.497 397.8 115.877 397.98C139.447 401.07 189.737 390.51 190.237 390.4L190.967 390.25L191.697 390.4C192.217 390.51 244.227 401.42 267.207 397.81C268.237 397.65 268.627 396.86 268.747 396.53C268.867 396.19 269.067 395.33 268.357 394.53L260.777 386.09L260.817 384.7C260.817 384.55 261.217 369.22 260.927 355.93V347.15C260.927 345.22 262.497 343.65 264.427 343.65C266.357 343.65 267.927 345.22 267.927 347.15V355.85C268.167 366.89 267.937 379.37 267.847 383.48L273.567 389.86C275.767 392.31 276.447 395.77 275.347 398.88C274.247 401.98 271.547 404.22 268.307 404.73C245.307 408.35 197.707 398.8 190.977 397.4C185.317 398.57 150.617 405.54 126.087 405.54V405.55Z" fill="black"/>
<path d="M232.609 396.51C240.399 388.1 245.139 377.12 245.139 365.09C245.139 338.67 222.379 317.26 194.309 317.26C166.239 317.26 143.479 338.68 143.479 365.09C143.479 376.87 148.019 387.66 155.529 395.99C174.709 393.64 191.859 390.13 191.859 390.13C191.859 390.13 211.739 394.2 232.629 396.51H232.609Z" fill="white"/>
<path d="M252.187 186.67C252.187 186.67 248.777 175.91 251.947 165.05C251.997 164.87 252.237 164.82 252.367 164.96L253.907 166.75C253.907 166.75 256.977 137.08 284.817 120.64C284.817 120.64 294.417 124.64 292.727 134.34C291.047 144.04 269.077 172.03 262.337 177.83C262.337 177.83 263.307 177.95 265.627 177.48C265.837 177.44 265.997 177.68 265.867 177.85C264.707 179.39 260.577 184.14 252.187 186.65V186.67Z" fill="#EF6600"/>
<path d="M250.217 190.39L249.327 187.58C249.177 187.1 245.677 175.81 249.067 164.21C249.407 163.07 250.337 162.2 251.497 161.95C251.567 161.94 251.637 161.92 251.697 161.91C253.757 152.63 260.767 131.35 283.277 118.06L284.567 117.3L285.957 117.88C290.037 119.58 297.327 125.32 295.667 134.86C294.107 143.82 277.667 165.82 268.397 175.98C268.397 175.98 268.397 175.99 268.407 176C269.127 177.15 269.067 178.59 268.257 179.67C266.707 181.73 262.117 186.83 253.037 189.54L250.207 190.39H250.217ZM253.787 171.25C253.307 175.83 253.827 180.03 254.327 182.72C256.017 182.01 257.447 181.22 258.647 180.42L255.207 180.01L260.377 175.56C267.347 169.56 288.317 142.2 289.767 133.83C290.697 128.47 286.977 125.37 284.917 124.09C259.987 139.73 256.917 166.78 256.887 167.06L256.167 174.01L253.797 171.24L253.787 171.25Z" fill="#0F0F0F"/>
<path d="M292.689 129.84C291.379 123.4 284.809 120.66 284.809 120.66C282.869 121.8 281.059 123.01 279.349 124.27C279.309 124.4 274.829 139 292.689 129.84Z" fill="#3FC9B1"/>
<path d="M283.308 135.85C281.318 135.85 279.688 135.31 278.398 134.22C274.438 130.9 276.108 124.62 276.478 123.39L276.768 122.44L277.568 121.85C279.418 120.49 281.338 119.21 283.278 118.07L284.568 117.31L285.958 117.89C286.288 118.03 294.008 121.34 295.618 129.24L296.078 131.47L294.058 132.51C289.718 134.74 286.148 135.85 283.318 135.85H283.308ZM281.998 126.05C281.718 127.52 281.748 129.19 282.248 129.62C282.258 129.63 283.598 130.65 288.968 128.29C287.888 126.25 286.098 124.87 284.898 124.11C283.918 124.73 282.948 125.38 281.998 126.05Z" fill="#0F0F0F"/>
<path d="M276.926 137.76L264.776 139.39C263.936 140.62 263.146 141.89 262.396 143.18C262.006 143.85 261.626 144.52 261.256 145.2C260.886 145.88 260.436 146.52 260.186 147.21C260.436 147.29 260.806 147.2 261.076 147.18L262.666 147.06C264.066 146.96 265.466 146.85 266.866 146.75C268.316 146.64 269.766 146.53 271.216 146.42L277.016 160.79C278.686 158.59 280.346 156.32 281.936 154.06L276.926 137.77V137.76Z" fill="#FFB727"/>
<path d="M276.206 166.81L269.256 149.57L261.296 150.17C260.826 150.23 260.076 150.33 259.246 150.06L256.326 149.1L257.356 146.21C257.626 145.44 258.026 144.78 258.336 144.24C258.436 144.08 258.526 143.91 258.616 143.76C258.996 143.06 259.396 142.37 259.796 141.68C260.646 140.22 261.466 138.93 262.296 137.71L263.046 136.61L279.046 134.46L285.236 154.58L284.396 155.78C282.836 158 281.156 160.3 279.406 162.6L276.216 166.81H276.206ZM273.176 143.26L277.786 154.7C278.066 154.31 278.346 153.92 278.626 153.53L274.796 141.08L266.506 142.19C266.166 142.72 265.826 143.27 265.476 143.84L273.176 143.26Z" fill="#0F0F0F"/>
<path d="M249.717 194.8C249.717 194.8 249.787 194.49 249.917 193.91C250.047 193.33 250.237 192.48 250.527 191.42C250.817 190.35 251.167 189.05 251.607 187.58C251.827 186.84 252.067 186.06 252.317 185.23C252.567 184.4 252.877 183.55 253.177 182.64C253.757 180.83 254.487 178.91 255.247 176.86C255.627 175.84 256.067 174.81 256.487 173.74C256.917 172.68 257.337 171.59 257.827 170.5C258.797 168.33 259.747 166.05 260.877 163.81C261.427 162.68 261.977 161.55 262.537 160.41C263.127 159.29 263.727 158.16 264.317 157.03C265.487 154.76 266.797 152.57 268.057 150.39C268.377 149.85 268.687 149.3 268.997 148.77C269.307 148.23 269.667 147.72 269.987 147.19C270.657 146.15 271.317 145.12 271.967 144.11C273.217 142.07 274.627 140.2 275.897 138.39C276.537 137.49 277.147 136.61 277.767 135.78C278.417 134.96 279.037 134.17 279.637 133.41C280.837 131.9 281.917 130.49 282.947 129.3C283.987 128.12 284.897 127.09 285.647 126.24C286.387 125.39 286.997 124.74 287.397 124.28C287.807 123.83 288.017 123.59 288.017 123.59C288.017 123.59 287.827 123.85 287.457 124.33C287.087 124.81 286.567 125.52 285.877 126.4C285.187 127.29 284.357 128.37 283.397 129.6C282.907 130.21 282.457 130.91 281.947 131.62C281.437 132.33 280.907 133.08 280.347 133.86C279.787 134.64 279.207 135.45 278.607 136.29C278.037 137.15 277.447 138.04 276.837 138.95C275.637 140.79 274.317 142.68 273.107 144.73C271.867 146.77 270.537 148.84 269.327 151.03C268.707 152.11 268.077 153.21 267.457 154.3C266.677 155.62 266.037 157.01 265.267 158.34C264.757 159.32 264.237 160.29 263.727 161.27C263.217 162.31 262.707 163.34 262.197 164.37C261.067 166.59 260.057 168.82 259.047 170.97C258.527 172.04 258.097 173.12 257.627 174.16C257.177 175.21 256.707 176.22 256.287 177.22C255.477 179.23 254.657 181.12 253.987 182.89C253.287 184.65 252.677 186.28 252.147 187.72C251.607 189.16 251.177 190.43 250.817 191.48C250.467 192.53 250.197 193.35 250.007 193.92C249.827 194.49 249.737 194.79 249.737 194.79L249.717 194.8Z" fill="#603913"/>
<path d="M252.577 195.7L246.787 194.16L246.987 193.27C247.127 192.66 247.327 191.77 247.627 190.65C247.937 189.49 248.297 188.19 248.727 186.72L249.437 184.36C249.607 183.79 249.807 183.22 250.007 182.63L250.317 181.7C250.827 180.12 251.437 178.46 252.087 176.71L252.417 175.82C252.677 175.13 252.947 174.45 253.227 173.75L253.947 171.96C254.307 171.07 254.667 170.16 255.077 169.26C255.327 168.69 255.587 168.11 255.847 167.52C256.567 165.87 257.317 164.17 258.177 162.46L259.817 159.1L261.637 155.63C262.637 153.69 263.747 151.78 264.817 149.94L266.377 147.25C266.597 146.87 266.847 146.48 267.087 146.1C267.197 145.93 267.307 145.76 267.417 145.58L269.407 142.47C270.357 140.92 271.387 139.47 272.397 138.07C272.737 137.59 273.077 137.12 273.407 136.65L274.107 135.67C274.517 135.09 274.927 134.52 275.327 133.97L278.067 130.49C278.957 129.36 279.807 128.29 280.627 127.33L283.357 124.24C283.877 123.65 284.327 123.15 284.697 122.74L285.747 121.57L290.367 125.39L289.377 126.69C289.057 127.12 288.657 127.64 288.197 128.24L285.717 131.43C285.417 131.81 285.157 132.18 284.897 132.56C284.717 132.82 284.527 133.09 284.327 133.36L281.027 137.98L279.287 140.6C278.947 141.12 278.587 141.66 278.217 142.22C277.347 143.52 276.457 144.87 275.637 146.26C275.277 146.86 274.917 147.44 274.557 148.03C273.667 149.48 272.737 150.97 271.907 152.49L270.017 155.8C269.617 156.47 269.277 157.13 268.907 157.83C268.567 158.49 268.217 159.15 267.847 159.8L265.847 163.68L264.837 165.71C263.937 167.49 263.107 169.27 262.307 170.99L261.717 172.25C261.407 172.9 261.137 173.52 260.877 174.13C260.697 174.56 260.507 174.99 260.317 175.4L259.847 176.46C259.557 177.1 259.277 177.74 259.017 178.37C258.717 179.11 258.417 179.85 258.117 180.57C257.627 181.74 257.167 182.87 256.757 183.95C256.047 185.74 255.447 187.34 254.917 188.77C254.397 190.18 253.967 191.43 253.617 192.45L252.557 195.68L252.577 195.7Z" fill="#0F0F0F"/>
<path d="M252.606 186.23C252.356 185.42 249.376 175.22 252.476 165.03C252.496 164.98 252.556 164.96 252.596 165.01L254.186 166.87C254.186 166.87 254.296 166.9 254.306 166.84C254.576 164.63 258.386 137.57 284.236 122.29C284.256 122.28 284.276 122.28 284.296 122.29C284.866 122.54 293.516 126.47 291.936 135.56C290.316 144.91 269.246 171.8 262.586 177.63C262.546 177.67 262.566 177.73 262.626 177.74C262.986 177.75 264.026 177.74 265.946 177.34C266.056 177.32 266.146 177.43 266.076 177.52C265.246 178.68 261.286 183.69 252.696 186.28C252.666 186.28 252.636 186.28 252.626 186.25L252.606 186.23Z" fill="#EF6600"/>
<path d="M255.207 179.08C252.987 173.46 252.587 167 252.527 165.32C252.527 165.24 252.417 165.24 252.397 165.31C249.437 175.41 252.367 185.43 252.607 186.23C252.607 186.26 252.647 186.27 252.677 186.26C261.317 183.66 265.267 178.62 266.077 177.49C266.117 177.43 266.047 177.37 265.987 177.41C260.957 180.35 255.707 179.23 255.257 179.13C255.237 179.13 255.217 179.11 255.217 179.09L255.207 179.08Z" fill="#FFB300"/>
<path d="M291.887 131.11C290.637 125.15 284.747 122.47 284.287 122.27C284.267 122.27 284.247 122.27 284.227 122.27C282.357 123.37 280.617 124.54 278.977 125.75C278.977 125.75 278.967 125.75 278.967 125.77C278.857 126.14 274.757 139.94 291.847 131.19C291.877 131.18 291.887 131.14 291.887 131.11Z" fill="#3FC9B1"/>
<path d="M265.236 149.85L272.976 165.81C272.976 165.81 273.056 165.86 273.086 165.82C274.656 163.85 276.276 161.76 277.866 159.62C277.876 159.6 277.886 159.58 277.876 159.56L273.066 143.92C273.066 143.92 273.026 143.87 272.996 143.87L261.766 145.38" fill="#3FC9B1"/>
<path d="M276.556 138.86L264.856 140.43C264.856 140.43 264.816 140.44 264.806 140.46C263.046 143.03 261.546 145.61 260.316 148.06L271.026 147.24C271.026 147.24 271.086 147.25 271.096 147.28L276.656 161.06C276.656 161.06 276.736 161.12 276.766 161.08C278.356 158.98 279.936 156.82 281.446 154.67C281.456 154.65 281.466 154.63 281.446 154.61L276.616 138.9C276.616 138.9 276.576 138.85 276.546 138.85L276.556 138.86Z" fill="#FFB727"/>
<path d="M250.227 194.16C250.227 194.16 250.297 193.86 250.417 193.3C250.537 192.74 250.727 191.92 251.007 190.88C251.287 189.84 251.627 188.59 252.057 187.15C252.277 186.43 252.497 185.67 252.747 184.87C252.987 184.07 253.287 183.24 253.577 182.36C254.147 180.61 254.847 178.74 255.587 176.76C255.957 175.77 256.377 174.77 256.787 173.73C257.207 172.7 257.617 171.64 258.087 170.59C259.027 168.48 259.947 166.27 261.037 164.1C261.567 163.01 262.107 161.91 262.637 160.8C263.207 159.71 263.787 158.62 264.367 157.52C265.497 155.32 266.767 153.19 267.997 151.08C268.307 150.55 268.607 150.03 268.907 149.51C269.207 148.99 269.557 148.49 269.867 147.98C270.517 146.97 271.157 145.97 271.787 144.99C272.997 143.01 274.367 141.2 275.597 139.45C276.217 138.58 276.807 137.72 277.407 136.91C278.037 136.12 278.637 135.35 279.217 134.61C280.387 133.14 281.427 131.78 282.427 130.62C283.437 129.47 284.317 128.48 285.047 127.65C285.767 126.83 286.357 126.19 286.747 125.75C287.137 125.31 287.347 125.08 287.347 125.08C287.347 125.08 287.157 125.33 286.807 125.79C286.447 126.25 285.937 126.94 285.267 127.8C284.597 128.66 283.787 129.71 282.857 130.9C282.377 131.49 281.947 132.17 281.447 132.86C280.957 133.55 280.437 134.28 279.897 135.03C279.357 135.78 278.797 136.57 278.207 137.39C277.657 138.22 277.087 139.08 276.497 139.97C275.337 141.75 274.057 143.59 272.877 145.58C271.677 147.56 270.387 149.57 269.217 151.69C268.617 152.74 268.007 153.8 267.397 154.87C266.667 156.1 266.067 157.39 265.367 158.63L264.337 160.51C263.657 161.89 262.977 163.26 262.297 164.63C261.207 166.79 260.217 168.95 259.247 171.03C258.747 172.07 258.327 173.12 257.877 174.12C257.437 175.13 256.987 176.12 256.577 177.09C255.787 179.04 254.997 180.87 254.347 182.59C253.667 184.3 253.077 185.88 252.557 187.28C252.037 188.68 251.617 189.91 251.267 190.93C250.927 191.95 250.667 192.75 250.487 193.29C250.317 193.84 250.227 194.13 250.227 194.13V194.16Z" fill="#603913"/>
<path d="M263.667 147.81L260.327 148.06C259.427 149.89 258.617 151.75 257.877 153.62L266.797 153.12L266.917 151.04" fill="#3FC9B1"/>
<path d="M156.197 234.87C163.317 234.1 170.377 232.92 177.347 231.29C179.127 230.87 180.357 228.73 179.787 226.98C179.187 225.12 177.397 224.09 175.477 224.54C170.237 225.77 164.937 226.75 159.597 227.47L160.527 227.34C159.077 227.53 157.637 227.71 156.187 227.86C155.237 227.96 154.417 228.18 153.717 228.89C153.107 229.5 152.657 230.49 152.687 231.36C152.767 233.09 154.237 235.07 156.187 234.86L156.197 234.87Z" fill="black"/>
<path d="M229.968 227.87C228.518 227.71 227.068 227.54 225.628 227.35L226.558 227.48C221.218 226.76 215.928 225.78 210.678 224.55C208.898 224.13 206.808 225.1 206.368 226.99C205.958 228.78 206.908 230.85 208.808 231.3C215.778 232.93 222.848 234.11 229.958 234.88C230.798 234.97 231.868 234.42 232.428 233.85C233.038 233.24 233.488 232.25 233.458 231.38C233.428 230.51 233.118 229.54 232.428 228.91C231.708 228.24 230.928 227.99 229.958 227.88L229.968 227.87Z" fill="black"/>
<path d="M114.728 217.19C112.558 217.19 110.458 216.49 108.738 215.18C106.668 213.6 105.358 211.23 105.138 208.69C104.768 204.43 104.648 197.72 106.138 189.94C106.918 185.89 110.308 182.86 114.578 182.42C127.888 181.03 197.768 174.5 266.268 182.37C270.828 182.89 274.388 186.47 274.738 190.89C275.358 198.76 274.928 204.62 273.458 208.31C272.058 211.83 268.568 214.13 264.578 214.16C251.708 214.26 138.148 215.19 115.608 217.16C115.308 217.19 115.018 217.2 114.718 217.2L114.728 217.19ZM116.718 193.26C115.858 198.34 115.798 202.81 115.978 206.09C140.658 204.23 240.838 203.34 263.548 203.16C263.948 201.31 264.178 198.01 263.868 193.16C198.428 185.81 131.918 191.71 116.718 193.26Z" fill="black"/>
<mask id="mask0_873_1532" style="mask-type:luminance" maskUnits="userSpaceOnUse" x="110" y="183" width="160" height="29">
<path d="M115.007 187.59C129.657 186.06 198.087 179.74 265.797 187.53C267.667 187.75 269.107 189.14 269.237 190.86C269.567 194.95 269.867 202.27 268.297 206.07C267.727 207.44 266.267 208.33 264.657 208.34C249.347 208.46 137.137 209.39 114.937 211.38C112.737 211.58 110.807 210.09 110.627 208.08C110.287 204.24 110.127 197.91 111.557 190.54C111.857 188.98 113.267 187.78 114.997 187.6L115.007 187.59Z" fill="white"/>
</mask>
<g mask="url(#mask0_873_1532)">
<path d="M214.117 176.37H169.727L180.827 193.89L191.927 211.42L203.017 193.89L214.117 176.37Z" fill="#63D3B3"/>
<path d="M258.507 176.37H214.117L225.217 193.89L236.317 211.42L247.407 193.89L258.507 176.37Z" fill="#63D3B3"/>
<path d="M169.726 176.37H125.336L136.436 193.89L147.526 211.42L158.626 193.89L169.726 176.37Z" fill="#63D3B3"/>
<path d="M125.337 176.37L114.237 193.89L103.137 211.42H125.337H147.527L136.437 193.89L125.337 176.37Z" fill="#EF6600"/>
<path d="M169.727 176.37L158.627 193.89L147.527 211.42H169.727H191.927L180.827 193.89L169.727 176.37Z" fill="#EF6600"/>
<path d="M214.116 176.37L203.016 193.89L191.926 211.42H214.116H236.316L225.216 193.89L214.116 176.37Z" fill="#EF6600"/>
<path d="M269.606 193.89L258.506 176.37L247.406 193.89L236.316 211.42H258.506H280.636V211.31L269.606 193.89Z" fill="#EF6600"/>
<path d="M129.406 199.16C129.406 201.36 127.446 203.15 125.036 203.15C122.626 203.15 120.666 201.37 120.666 199.16C120.666 196.95 122.626 195.17 125.036 195.17C127.446 195.17 129.406 196.96 129.406 199.16Z" fill="#F8C054"/>
<path d="M174.097 199.16C174.097 201.36 172.137 203.15 169.727 203.15C167.317 203.15 165.357 201.37 165.357 199.16C165.357 196.95 167.317 195.17 169.727 195.17C172.137 195.17 174.097 196.96 174.097 199.16Z" fill="#F8C054"/>
<path d="M218.797 199.16C218.797 201.36 216.837 203.15 214.427 203.15C212.017 203.15 210.057 201.37 210.057 199.16C210.057 196.95 212.017 195.17 214.427 195.17C216.837 195.17 218.797 196.96 218.797 199.16Z" fill="#F8C054"/>
<path d="M263.486 199.16C263.486 201.36 261.526 203.15 259.116 203.15C256.706 203.15 254.746 201.37 254.746 199.16C254.746 196.95 256.706 195.17 259.116 195.17C261.526 195.17 263.486 196.96 263.486 199.16Z" fill="#F8C054"/>
<path d="M156.896 183.48H138.166L142.846 190.88L147.526 198.27L152.216 190.88L156.896 183.48Z" fill="#EF6600"/>
<path d="M201.287 183.48H182.557L187.237 190.88L191.917 198.27L196.607 190.88L201.287 183.48Z" fill="#EF6600"/>
<path d="M245.677 183.48H226.947L231.627 190.88L236.307 198.27L240.997 190.88L245.677 183.48Z" fill="#EF6600"/>
<path d="M271.336 183.48H280.636V176.37H258.506L269.606 193.89L280.636 211.31V198.17L276.016 190.88L271.336 183.48Z" fill="#63D3B3"/>
<path d="M103.137 176.37V183.48H112.507L107.827 190.88L103.137 198.27V211.42L114.237 193.89L125.337 176.37H103.137Z" fill="#63D3B3"/>
<path d="M112.507 183.48H103.137V198.27L107.827 190.88L112.507 183.48Z" fill="#F96C41"/>
</g>
<path d="M168.817 251.14C168.877 252.97 169.997 254.65 171.507 255.69C173.007 256.74 174.807 257.26 176.587 257.69C187.607 260.38 199.257 260.46 210.287 257.8C213.287 257.08 216.377 256.07 218.477 253.82C220.577 251.57 221.267 247.73 219.207 245.44C217.897 243.99 215.807 243.47 213.857 243.59C211.907 243.71 210.047 244.38 208.177 244.97C198.527 248 187.907 248.84 178.347 245.53C178.347 245.53 168.557 243.47 168.807 251.13L168.817 251.14Z" fill="white"/>
<path d="M166.317 251.14C166.467 253.92 167.937 256.2 170.167 257.8C172.167 259.24 174.707 259.84 177.077 260.38C182.127 261.52 187.317 262.16 192.497 262.25C197.757 262.34 203.027 261.85 208.187 260.83C212.767 259.93 217.897 258.7 220.897 254.81C223.857 250.98 223.757 244.8 219.157 242.26C214.357 239.61 209.147 242.24 204.357 243.48C203.147 243.79 201.927 244.07 200.697 244.3C200.137 244.41 199.577 244.51 199.017 244.6C198.717 244.65 198.417 244.69 198.117 244.74C198.047 244.75 197.567 244.81 197.887 244.77C198.207 244.73 197.527 244.81 197.547 244.81C195.147 245.1 192.727 245.22 190.307 245.15C189.067 245.11 187.827 245.03 186.597 244.89C186.437 244.87 185.777 244.78 186.257 244.85C185.957 244.81 185.667 244.76 185.367 244.72C184.737 244.62 184.107 244.5 183.487 244.37C182.277 244.11 181.077 243.8 179.887 243.42C179.537 243.31 179.207 243.17 178.847 243.1C174.207 242.17 168.027 243.17 166.617 248.46C166.387 249.32 166.297 250.25 166.327 251.14C166.357 252.45 167.457 253.7 168.827 253.64C170.157 253.58 171.357 252.54 171.327 251.14C171.327 250.8 171.337 250.47 171.357 250.13C171.377 249.75 171.237 250.77 171.357 250.15C171.387 249.99 171.427 249.83 171.477 249.67C171.517 249.54 171.567 249.41 171.607 249.28C171.687 249 171.347 249.82 171.487 249.57C171.517 249.52 171.537 249.47 171.557 249.42C171.627 249.29 171.687 249.17 171.767 249.05C171.797 249.01 171.827 248.96 171.857 248.92C172.067 248.58 171.747 249.08 171.677 249.14C171.847 248.99 171.997 248.79 172.157 248.63C172.537 248.25 171.787 248.87 172.037 248.71C172.147 248.64 172.257 248.56 172.367 248.49C172.567 248.37 172.777 248.28 172.977 248.17C173.247 248.02 172.317 248.41 172.837 248.23C172.967 248.19 173.087 248.14 173.207 248.1C173.427 248.03 173.647 247.97 173.877 247.93C174.007 247.9 174.137 247.88 174.267 247.85C174.317 247.85 174.367 247.84 174.407 247.83C174.807 247.75 174.137 247.87 174.077 247.87C174.547 247.85 175.007 247.78 175.477 247.78C175.897 247.78 176.307 247.79 176.717 247.82C176.877 247.83 177.047 247.85 177.207 247.86C177.287 247.86 177.377 247.88 177.457 247.89C177.887 247.94 176.757 247.79 177.067 247.84C177.807 247.96 178.467 248.21 179.197 248.43C181.507 249.12 183.867 249.55 186.247 249.84C190.907 250.41 195.597 250.16 200.227 249.43C202.437 249.08 204.627 248.6 206.787 248C209.017 247.38 211.197 246.52 213.487 246.13C213.877 246.06 213.117 246.13 213.517 246.13C213.637 246.13 213.747 246.11 213.867 246.1C214.117 246.08 214.377 246.08 214.627 246.09C214.847 246.09 215.067 246.12 215.297 246.13C215.597 246.15 215.107 246.12 215.107 246.1C215.107 246.1 215.527 246.18 215.577 246.19C215.797 246.24 216.007 246.3 216.217 246.37C216.317 246.4 216.477 246.44 216.567 246.5C216.507 246.46 216.087 246.25 216.477 246.48C216.667 246.59 216.847 246.71 217.037 246.81C217.307 246.95 216.877 246.7 216.907 246.69C216.957 246.69 217.207 246.95 217.257 247C217.347 247.09 217.417 247.18 217.507 247.27C217.697 247.45 217.387 247.13 217.387 247.1C217.387 247.2 217.677 247.58 217.737 247.68C217.957 248.06 217.587 247.2 217.777 247.78C217.847 247.99 217.887 248.21 217.947 248.43C218.037 248.76 217.907 247.92 217.927 248.27C217.927 248.35 217.947 248.44 217.947 248.52C217.957 248.75 217.957 248.98 217.947 249.21C217.947 249.3 217.927 249.38 217.927 249.47C217.927 249.82 218.027 248.98 217.947 249.32C217.897 249.55 217.857 249.78 217.797 250.01C217.747 250.21 217.677 250.4 217.617 250.6C217.477 251.04 217.657 250.55 217.667 250.5C217.647 250.59 217.557 250.74 217.517 250.82C217.437 250.98 217.357 251.14 217.267 251.29C217.207 251.39 217.147 251.49 217.077 251.59C217.037 251.66 216.757 252.09 216.967 251.77C217.147 251.49 216.797 251.96 216.717 252.05C216.557 252.22 216.387 252.38 216.217 252.54C216.047 252.7 215.867 252.84 215.687 252.99C216.137 252.62 215.417 253.16 215.307 253.23C214.917 253.48 214.507 253.71 214.097 253.92C213.887 254.02 213.677 254.12 213.457 254.22C213.987 253.96 213.157 254.34 213.027 254.38C212.077 254.73 211.097 255.01 210.117 255.26C207.857 255.83 205.557 256.27 203.247 256.6C203.127 256.62 203.017 256.63 202.897 256.65C203.347 256.58 202.947 256.65 202.857 256.65C202.587 256.68 202.307 256.72 202.037 256.75C201.407 256.82 200.787 256.89 200.157 256.94C198.977 257.05 197.797 257.12 196.617 257.17C194.297 257.26 191.967 257.24 189.647 257.11C188.467 257.04 187.287 256.95 186.117 256.82C185.527 256.76 184.947 256.69 184.357 256.61C184.057 256.57 184.387 256.61 184.437 256.62C184.277 256.6 184.127 256.58 183.967 256.55C183.657 256.5 183.347 256.46 183.037 256.41C180.747 256.05 178.457 255.59 176.217 254.98C175.707 254.84 175.197 254.69 174.697 254.51C174.537 254.45 173.957 254.21 174.407 254.41C174.147 254.3 173.897 254.18 173.647 254.04C173.397 253.9 173.157 253.76 172.927 253.61C172.847 253.55 172.757 253.49 172.677 253.44C172.387 253.25 172.977 253.73 172.737 253.48C172.577 253.32 172.407 253.18 172.247 253.02C172.157 252.93 172.077 252.83 171.987 252.74C171.727 252.46 171.957 252.79 172.027 252.8C171.937 252.79 171.667 252.24 171.627 252.16C171.587 252.08 171.547 251.99 171.497 251.91C171.317 251.61 171.627 252.32 171.527 251.99C171.467 251.78 171.407 251.57 171.337 251.36C171.297 251.24 171.147 250.91 171.337 251.47C171.307 251.37 171.317 251.19 171.307 251.09C171.237 249.79 170.207 248.53 168.807 248.59C167.517 248.65 166.237 249.69 166.307 251.09L166.317 251.14Z" fill="black"/>
<path d="M180.358 248.25C180.338 249.61 180.238 250.96 180.058 252.31L180.148 251.65C180.028 252.49 179.888 253.33 179.708 254.16C179.568 254.82 179.608 255.49 179.958 256.09C180.258 256.61 180.858 257.1 181.448 257.24C182.088 257.39 182.808 257.35 183.378 256.99C183.908 256.65 184.388 256.13 184.528 255.5C185.028 253.13 185.318 250.7 185.358 248.27C185.378 246.96 184.188 245.71 182.858 245.77C181.528 245.83 180.378 246.87 180.358 248.27V248.25Z" fill="black"/>
<path d="M193.478 250.23C193.588 250.65 193.668 251.08 193.728 251.51L193.638 250.85C193.948 253.29 193.698 255.75 194.288 258.16C194.598 259.43 196.098 260.31 197.368 259.91C198.688 259.48 199.448 258.2 199.118 256.83C199.028 256.45 198.958 256.08 198.898 255.69L198.988 256.35C198.658 253.87 198.938 251.35 198.308 248.9C197.978 247.63 196.508 246.74 195.228 247.15C193.948 247.56 193.128 248.87 193.478 250.23Z" fill="black"/>
<path d="M205.108 248.03C206.028 250.6 206.878 253.19 207.648 255.81C208.018 257.06 209.428 257.98 210.728 257.56C212.028 257.14 212.868 255.83 212.478 254.48C211.708 251.86 210.858 249.27 209.938 246.7C209.718 246.08 209.378 245.55 208.788 245.21C208.248 244.9 207.458 244.76 206.858 244.96C205.648 245.35 204.638 246.72 205.108 248.04V248.03Z" fill="black"/>
<path d="M259.529 313.22C266.819 316.81 273.179 322.28 277.829 328.95C280.869 333.3 283.159 338.13 285.129 343.06C285.809 344.76 286.469 346.52 287.649 347.92C289.079 349.63 291.159 350.71 292.499 352.49C293.839 354.27 293.979 357.35 291.959 358.28C290.499 358.95 288.819 358.13 287.429 357.32C287.499 359.67 285.989 361.99 283.809 362.87C281.629 363.75 278.929 363.14 277.339 361.41C277.859 363.29 276.399 365.25 274.589 365.98C272.779 366.71 270.759 366.54 268.829 366.35C268.299 366.3 267.749 366.24 267.309 365.95C266.719 365.56 266.449 364.84 266.209 364.16C264.079 358.01 261.959 351.86 259.829 345.71" fill="#D6AF43"/>
<path d="M258.009 315.81C259.849 316.72 261.629 317.74 263.339 318.87C264.169 319.42 264.969 319.99 265.759 320.59C266.359 321.04 265.459 320.35 265.879 320.68C266.069 320.83 266.249 320.98 266.439 321.13C266.859 321.47 267.279 321.83 267.699 322.18C269.219 323.5 270.659 324.91 272.009 326.41C272.699 327.17 273.359 327.96 273.989 328.76C274.049 328.84 274.119 328.92 274.179 329C274.429 329.32 273.839 328.55 274.089 328.88C274.229 329.07 274.379 329.26 274.519 329.45C274.829 329.87 275.129 330.3 275.429 330.73C276.699 332.57 277.829 334.5 278.869 336.48C279.399 337.49 279.899 338.51 280.379 339.54C280.599 340.02 280.819 340.51 281.039 340.99C281.159 341.27 281.279 341.55 281.399 341.82C281.449 341.92 281.489 342.03 281.529 342.13C281.609 342.31 281.879 342.69 281.529 342.15C281.799 342.57 281.949 343.16 282.129 343.62C282.329 344.12 282.519 344.62 282.729 345.11C283.209 346.26 283.679 347.42 284.349 348.47C285.009 349.49 285.799 350.43 286.709 351.23C287.449 351.88 288.229 352.47 288.969 353.12C289.399 353.5 289.779 353.91 290.169 354.34C290.399 354.59 289.979 354.09 289.979 354.09C289.999 354.17 290.139 354.33 290.179 354.41C290.229 354.5 290.279 354.59 290.329 354.68C290.479 354.96 290.329 355.07 290.239 354.45C290.269 354.64 290.379 354.85 290.429 355.04C290.449 355.11 290.459 355.19 290.479 355.27C290.609 355.76 290.429 355.17 290.449 355C290.429 355.19 290.479 355.41 290.469 355.6C290.469 355.6 290.469 355.87 290.449 355.89C290.479 355.86 290.629 355.05 290.479 355.59C290.459 355.66 290.439 355.73 290.429 355.8C290.339 356.26 290.739 355.27 290.559 355.54C290.479 355.66 290.139 356.21 290.469 355.75C290.759 355.35 290.579 355.61 290.469 355.7C290.249 355.89 291.149 355.3 290.689 355.53C290.589 355.58 290.379 355.66 290.759 355.53C291.349 355.31 290.569 355.58 290.569 355.56C290.559 355.5 291.209 355.56 290.869 355.51C290.229 355.42 290.909 355.65 290.959 355.57C290.919 355.64 290.259 355.39 290.149 355.36C289.619 355.2 290.199 355.41 290.269 355.42C290.109 355.39 289.929 355.26 289.779 355.19C289.489 355.04 289.209 354.89 288.929 354.73C286.979 353.61 284.389 355.02 284.419 357.32C284.419 357.44 284.419 357.56 284.419 357.68C284.419 357.8 284.359 358.35 284.419 357.82C284.479 357.29 284.349 358.06 284.309 358.21C284.269 358.34 284.179 358.51 284.169 358.64C284.169 358.53 284.449 358.05 284.259 358.42C284.149 358.63 284.039 358.85 283.909 359.05C283.849 359.15 283.519 359.57 283.829 359.19C284.119 358.83 283.839 359.16 283.779 359.24C283.619 359.42 283.449 359.59 283.269 359.75C282.899 360.08 283.179 359.74 283.379 359.67C283.279 359.7 283.169 359.81 283.079 359.87C282.979 359.93 282.869 359.99 282.769 360.05C282.669 360.1 282.179 360.34 282.639 360.12C283.059 359.92 282.679 360.09 282.569 360.12C282.459 360.16 282.339 360.19 282.219 360.22C282.099 360.25 281.979 360.27 281.869 360.29C281.499 360.37 282.579 360.25 282.039 360.26C281.799 360.26 281.559 360.26 281.319 360.26C280.909 360.26 281.459 360.28 281.579 360.31C281.439 360.27 281.279 360.26 281.139 360.23C280.899 360.18 280.669 360.11 280.449 360.03C279.969 359.86 280.429 359.95 280.579 360.09C280.499 360.02 280.349 359.98 280.259 359.93C280.049 359.81 279.859 359.65 279.649 359.54C280.219 359.83 279.969 359.8 279.769 359.61C279.659 359.51 279.549 359.4 279.449 359.29C278.569 358.36 276.899 358.12 275.809 358.82C274.659 359.56 274.109 360.87 274.429 362.21C274.429 361.54 274.559 362.73 274.429 362.21C274.429 362.29 274.399 362.4 274.419 362.47C274.399 362.38 274.589 361.74 274.439 362.19C274.409 362.27 274.379 362.36 274.359 362.44C274.299 362.73 274.479 362.15 274.499 362.14C274.399 362.25 274.189 362.61 274.129 362.76C274.279 362.34 274.469 362.37 274.259 362.58C274.199 362.65 274.129 362.72 274.069 362.78C274.009 362.84 273.929 362.91 273.869 362.97C273.509 363.32 273.969 362.87 274.039 362.85C273.859 362.9 273.649 363.1 273.489 363.19C273.419 363.23 273.309 363.26 273.239 363.31C273.389 363.19 273.769 363.12 273.369 363.23C273.119 363.3 272.869 363.37 272.619 363.43C272.509 363.45 272.029 363.52 272.469 363.47C272.909 363.42 272.499 363.47 272.429 363.47C271.869 363.5 271.309 363.52 270.739 363.49C270.249 363.47 269.759 363.43 269.269 363.38C269.119 363.37 268.969 363.35 268.819 363.34C268.379 363.29 268.729 363.34 268.819 363.34C269.379 363.41 268.819 363.34 268.819 363.33C268.569 363.25 268.559 363.26 268.799 363.36C268.999 363.46 269.029 363.47 268.889 363.39C268.589 363.22 269.149 363.6 269.139 363.59C268.769 363.29 269.289 363.69 269.289 363.78C269.289 363.74 269.189 363.58 269.159 363.55C268.989 363.3 269.269 363.85 269.279 363.86C269.139 363.33 268.909 362.82 268.729 362.3C268.349 361.21 267.979 360.12 267.599 359.03C266.829 356.81 266.069 354.59 265.299 352.37C264.439 349.88 263.579 347.39 262.719 344.9C262.209 343.42 260.639 342.28 259.029 342.8C257.559 343.27 256.389 344.9 256.929 346.49C258.709 351.63 260.479 356.77 262.259 361.9C263.219 364.67 263.899 368.33 267.229 369.11C268.509 369.41 269.979 369.48 271.299 369.49C272.959 369.5 274.569 369.22 276.099 368.55C279.109 367.21 281.009 363.84 280.219 360.59C278.549 361.56 276.879 362.54 275.209 363.51C277.649 366.09 281.679 366.97 284.949 365.59C288.239 364.2 290.459 360.89 290.419 357.3C288.919 358.16 287.409 359.03 285.909 359.89C287.049 360.54 288.269 361.16 289.569 361.37C291.409 361.67 293.109 361.28 294.559 360.08C296.439 358.51 296.789 355.71 296.219 353.45C295.629 351.11 293.949 349.44 292.139 347.97C291.719 347.63 291.299 347.29 290.899 346.93C290.719 346.77 290.549 346.61 290.379 346.45C290.269 346.34 289.769 345.94 289.759 345.78C289.759 345.8 290.169 346.37 289.839 345.89C289.759 345.77 289.679 345.66 289.599 345.54C289.449 345.31 289.299 345.06 289.169 344.82C288.919 344.36 288.559 343.81 288.429 343.3C288.449 343.37 288.689 343.93 288.489 343.43C288.439 343.3 288.379 343.17 288.329 343.04C288.219 342.78 288.119 342.51 288.019 342.25C287.789 341.69 287.569 341.12 287.329 340.56C286.789 339.27 286.239 337.99 285.649 336.72C284.629 334.52 283.519 332.36 282.259 330.28C279.849 326.29 276.909 322.58 273.529 319.37C269.829 315.86 265.599 312.87 261.029 310.61C259.629 309.91 257.719 310.19 256.929 311.69C256.209 313.05 256.499 315.05 258.009 315.79V315.81Z" fill="black"/>
<path d="M200.327 388.21C199.677 388.21 199.027 388.06 198.457 387.77L186.757 381.97C186.757 381.97 186.697 381.95 186.657 381.95C186.627 381.95 186.587 381.95 186.537 381.98L179.157 386.75C178.477 387.19 177.687 387.42 176.867 387.42C176.047 387.42 175.237 387.18 174.547 386.72L167.327 381.95C167.327 381.95 167.237 381.92 167.207 381.92C167.177 381.92 167.137 381.92 167.087 381.95L160.997 385.93C160.307 386.38 159.517 386.62 158.687 386.62C157.577 386.62 156.537 386.2 155.747 385.43L151.927 381.71C151.927 381.71 151.827 381.65 151.777 381.65C151.727 381.65 151.687 381.65 151.637 381.7L147.547 385.39C146.777 386.09 145.777 386.47 144.727 386.47C143.677 386.47 142.717 386.1 141.947 385.42L137.147 381.19C137.147 381.19 137.047 381.14 137.007 381.14C136.967 381.14 136.917 381.14 136.877 381.18L133.057 384.28C132.307 384.88 131.367 385.22 130.407 385.22C129.617 385.22 128.847 385 128.177 384.59L122.787 381.24C122.787 381.24 122.697 381.21 122.677 381.21C122.657 381.21 122.607 381.21 122.567 381.24L117.447 384.28C116.787 384.67 116.047 384.88 115.297 384.88C114.017 384.88 112.777 384.27 111.977 383.26C111.197 382.26 110.927 380.98 111.227 379.75L116.427 358.55C116.887 356.68 118.557 355.38 120.487 355.38C120.617 355.38 120.747 355.38 120.877 355.4C129.737 356.22 161.327 358.9 196.117 358.9C221.717 358.9 243.167 357.44 259.877 354.57C260.117 354.53 260.367 354.51 260.597 354.51C262.687 354.51 264.467 356.05 264.747 358.1L267.677 379.53C267.837 380.73 267.497 381.89 266.707 382.79C265.907 383.71 264.747 384.24 263.527 384.24C262.757 384.24 261.997 384.02 261.337 383.62L253.727 378.97C253.727 378.97 253.657 378.94 253.617 378.94C253.587 378.94 253.507 378.94 253.457 379.02L249.157 384.91C248.367 385.99 247.107 386.63 245.767 386.63C244.667 386.63 243.627 386.21 242.837 385.44L237.677 380.44C237.677 380.44 237.567 380.38 237.527 380.38C237.477 380.38 237.437 380.39 237.397 380.42L228.237 387.32C227.517 387.87 226.617 388.17 225.707 388.17C225.007 388.17 224.307 387.99 223.687 387.66L211.727 381.15C211.727 381.15 211.657 381.12 211.627 381.12C211.597 381.12 211.547 381.12 211.507 381.16L202.807 387.43C202.087 387.95 201.237 388.22 200.347 388.22L200.327 388.21Z" fill="#7F4F08"/>
<path d="M260.607 356.51C261.687 356.51 262.627 357.28 262.777 358.37L265.707 379.8C265.897 381.17 264.777 382.24 263.537 382.24C263.157 382.24 262.757 382.14 262.387 381.91L254.777 377.26C254.417 377.04 254.017 376.94 253.627 376.94C252.947 376.94 252.277 377.25 251.847 377.84L247.547 383.73C247.117 384.32 246.447 384.63 245.767 384.63C245.217 384.63 244.657 384.43 244.227 384.01L239.067 379.01C238.647 378.6 238.087 378.39 237.527 378.39C237.057 378.39 236.587 378.54 236.197 378.83L227.037 385.73C226.647 386.02 226.177 386.17 225.707 386.17C225.347 386.17 224.977 386.08 224.647 385.9L212.687 379.39C212.357 379.21 211.987 379.12 211.627 379.12C211.167 379.12 210.717 379.26 210.337 379.54L201.637 385.81C201.257 386.09 200.797 386.23 200.347 386.23C200.007 386.23 199.677 386.15 199.357 386L187.657 380.2C187.347 380.05 187.007 379.97 186.667 379.97C186.247 379.97 185.827 380.09 185.467 380.32L178.087 385.09C177.717 385.33 177.307 385.44 176.887 385.44C176.467 385.44 176.037 385.32 175.667 385.07L168.447 380.3C168.077 380.06 167.657 379.93 167.227 379.93C166.797 379.93 166.387 380.05 166.017 380.29L159.927 384.27C159.557 384.51 159.137 384.63 158.717 384.63C158.157 384.63 157.597 384.42 157.177 384.01L153.367 380.29C152.937 379.88 152.387 379.67 151.827 379.67C151.267 379.67 150.767 379.86 150.347 380.24L146.257 383.93C145.837 384.31 145.307 384.5 144.777 384.5C144.247 384.5 143.737 384.32 143.317 383.95L138.517 379.72C138.107 379.35 137.577 379.17 137.057 379.17C136.567 379.17 136.067 379.33 135.667 379.66L131.847 382.76C131.447 383.09 130.947 383.25 130.457 383.25C130.057 383.25 129.647 383.14 129.287 382.92L123.897 379.57C123.537 379.35 123.137 379.24 122.727 379.24C122.317 379.24 121.947 379.34 121.597 379.55L116.477 382.59C116.107 382.81 115.727 382.91 115.347 382.91C114.027 382.91 112.867 381.7 113.217 380.25L118.417 359.05C118.657 358.08 119.537 357.4 120.537 357.4C120.607 357.4 120.677 357.4 120.747 357.4C128.717 358.14 160.927 360.91 196.167 360.91C218.067 360.91 241.127 359.84 260.267 356.55C260.397 356.53 260.527 356.52 260.647 356.52M260.647 352.52C260.297 352.52 259.937 352.55 259.587 352.61C242.987 355.46 221.647 356.91 196.167 356.91C161.457 356.91 129.947 354.24 121.117 353.42C120.927 353.4 120.727 353.39 120.537 353.39C117.677 353.39 115.207 355.32 114.537 358.08L109.337 379.28C108.887 381.12 109.297 383.02 110.457 384.5C111.627 385.99 113.457 386.89 115.347 386.89C116.457 386.89 117.557 386.59 118.517 386.01L122.707 383.52L127.177 386.3C128.167 386.91 129.297 387.24 130.457 387.24C131.877 387.24 133.267 386.75 134.367 385.85L137.017 383.7L140.687 386.93C141.817 387.93 143.277 388.48 144.787 388.48C146.297 388.48 147.807 387.91 148.947 386.88L151.787 384.32L154.397 386.86C155.567 387.99 157.097 388.62 158.727 388.62C159.937 388.62 161.117 388.27 162.127 387.61L167.237 384.27L173.477 388.39C174.497 389.06 175.677 389.42 176.897 389.42C178.117 389.42 179.267 389.08 180.277 388.42L186.797 384.2L197.587 389.55C198.437 389.97 199.397 390.2 200.347 390.2C201.657 390.2 202.917 389.79 203.977 389.03L211.767 383.42L222.747 389.4C223.657 389.89 224.687 390.16 225.717 390.16C227.057 390.16 228.387 389.72 229.457 388.91L237.397 382.93L241.457 386.87C242.617 388 244.157 388.62 245.777 388.62C247.757 388.62 249.627 387.67 250.787 386.08L254.107 381.53L260.317 385.32C261.297 385.92 262.417 386.24 263.557 386.24C265.357 386.24 267.067 385.46 268.247 384.11C269.407 382.78 269.937 381.02 269.697 379.26L266.767 357.83C266.357 354.8 263.717 352.51 260.637 352.51L260.647 352.52Z" fill="#0F0F0F"/>
<path d="M113.117 369.58C140.077 369.85 166.877 363.85 192.047 354.19C217.217 344.53 240.867 331.24 263.537 316.63C264.687 315.89 265.877 315.09 266.487 313.87C267.097 312.65 266.807 310.88 265.557 310.33C264.847 310.02 264.037 310.16 263.277 310.31C216.267 319.77 172.097 341.9 124.437 347.19L117.717 347.89L113.127 369.57L113.117 369.58Z" fill="#3F2E05"/>
<path d="M113.117 371.08C124.467 371.18 135.817 370.19 147.007 368.29C158.197 366.39 169.197 363.6 179.967 360.07C190.627 356.58 201.047 352.39 211.227 347.68C221.357 342.99 231.247 337.78 240.927 332.22C245.727 329.46 250.477 326.61 255.187 323.69C257.557 322.22 259.927 320.73 262.277 319.23C264.377 317.89 267.077 316.58 268.017 314.1C268.847 311.9 267.767 309.1 265.277 308.71C263.897 308.5 262.447 308.95 261.097 309.23C259.747 309.51 258.447 309.79 257.127 310.09C251.757 311.29 246.417 312.64 241.107 314.1C230.467 317.02 219.947 320.36 209.447 323.76C198.997 327.15 188.567 330.61 178.057 333.79C167.547 336.97 156.947 339.88 146.197 342.14C137.667 343.94 129.067 345.21 120.397 346.12L117.707 346.4C117.077 346.47 116.407 346.82 116.257 347.5C114.917 353.82 113.577 360.15 112.237 366.47C112.047 367.37 111.857 368.28 111.667 369.18C111.267 371.06 114.157 371.87 114.557 369.98C115.897 363.66 117.237 357.33 118.577 351.01C118.767 350.11 118.957 349.2 119.147 348.3L117.697 349.4C124.477 348.69 131.227 347.93 137.947 346.77C148.527 344.94 158.977 342.39 169.307 339.47C179.687 336.54 189.967 333.24 200.217 329.91C210.497 326.57 220.757 323.18 231.107 320.09C241.437 317 251.857 314.2 262.417 312.02C263.007 311.9 263.617 311.73 264.227 311.67C264.547 311.64 264.937 311.67 265.047 311.78C265.487 312.24 265.257 313.11 264.867 313.63C264.217 314.51 263.187 315.07 262.287 315.65C261.177 316.37 260.057 317.08 258.937 317.79C254.297 320.73 249.627 323.61 244.897 326.41C235.497 331.98 225.907 337.25 216.087 342.05C206.277 346.84 196.237 351.17 185.967 354.85C175.527 358.59 164.837 361.68 153.967 363.93C143.167 366.18 132.187 367.58 121.157 367.97C118.477 368.07 115.787 368.1 113.107 368.07C111.177 368.05 111.177 371.05 113.107 371.07L113.117 371.08Z" fill="black"/>
<path d="M121.638 313.22C114.348 316.81 107.988 322.28 103.338 328.95C100.298 333.3 98.0083 338.13 96.0383 343.06C95.3583 344.76 94.6983 346.52 93.5183 347.92C92.0883 349.63 90.0083 350.71 88.6683 352.49C87.3283 354.27 87.1883 357.35 89.2083 358.28C90.6683 358.95 92.3483 358.13 93.7383 357.32C93.6683 359.67 95.1783 361.99 97.3583 362.87C99.5383 363.75 102.238 363.14 103.828 361.41C103.308 363.29 104.768 365.25 106.578 365.98C108.378 366.71 110.408 366.54 112.338 366.35C112.868 366.3 113.418 366.24 113.858 365.95C114.448 365.56 114.718 364.84 114.958 364.16C117.088 358.01 119.208 351.86 121.338 345.71" fill="#D6AF43"/>
<path d="M120.128 310.63C111.898 314.71 104.868 321.07 99.8581 328.76C97.1081 332.99 95.0081 337.59 93.1381 342.27C93.0281 342.53 92.9281 342.8 92.8281 343.06C92.7781 343.19 92.7181 343.32 92.6681 343.45C92.6381 343.52 92.4981 343.86 92.6581 343.48C92.8181 343.08 92.6381 343.51 92.5981 343.61C92.5381 343.74 92.4781 343.87 92.4181 344C92.2781 344.29 92.1381 344.57 91.9881 344.85C91.8481 345.1 91.7081 345.34 91.5581 345.57C91.4781 345.69 91.3981 345.8 91.3181 345.92C91.2781 345.98 91.0881 346.29 91.2981 345.95C91.5081 345.61 91.2781 345.95 91.1981 346.04C91.1081 346.14 91.0181 346.24 90.9181 346.33C90.7081 346.55 90.4881 346.76 90.2581 346.96C88.6081 348.44 86.6081 349.7 85.6081 351.76C84.3581 354.32 84.2481 357.48 86.2081 359.73C87.2481 360.92 88.9181 361.59 90.4881 361.54C92.2081 361.48 93.7781 360.77 95.2481 359.93C93.7481 359.07 92.2381 358.2 90.7381 357.34C90.6981 360.93 92.9181 364.25 96.2081 365.63C99.4881 367.01 103.508 366.13 105.948 363.55C104.278 362.58 102.608 361.6 100.938 360.63C100.198 363.68 101.778 366.68 104.408 368.26C106.848 369.72 109.818 369.64 112.538 369.35C113.478 369.25 114.358 369.13 115.198 368.66C115.978 368.23 116.638 367.54 117.088 366.77C117.778 365.59 118.128 364.16 118.578 362.88C119.468 360.31 120.358 357.74 121.248 355.17C122.248 352.29 123.238 349.41 124.238 346.53C124.748 345.05 123.648 343.18 122.138 342.84C120.468 342.46 118.998 343.35 118.448 344.94C116.928 349.34 115.408 353.74 113.888 358.14C113.508 359.23 113.138 360.32 112.758 361.41C112.568 361.95 112.378 362.5 112.188 363.04C112.108 363.27 112.028 363.5 111.948 363.73C111.778 364.2 112.158 363.13 111.918 363.75C111.788 364.09 112.358 363.34 112.078 363.57C111.828 363.77 112.378 363.37 112.358 363.39C111.998 363.62 112.378 363.25 112.538 363.33C112.508 363.32 112.288 363.39 112.248 363.4C111.948 363.5 112.528 363.36 112.548 363.36C112.428 363.35 112.258 363.39 112.128 363.4C111.828 363.43 111.528 363.46 111.228 363.48C110.738 363.52 110.248 363.54 109.758 363.54C109.498 363.54 109.238 363.54 108.968 363.52C108.858 363.52 108.748 363.5 108.638 363.49C108.258 363.47 109.228 363.62 108.668 363.49C108.378 363.42 108.098 363.34 107.808 363.27C107.718 363.25 107.388 363.09 107.768 363.27C108.208 363.48 107.658 363.2 107.608 363.18C107.528 363.14 107.448 363.09 107.368 363.04C107.098 362.87 107.118 362.69 107.448 363.13C107.328 362.97 107.118 362.84 106.978 362.68C106.898 362.6 106.628 362.27 106.918 362.63C107.208 362.99 106.948 362.65 106.888 362.56C106.828 362.46 106.778 362.34 106.708 362.24C106.528 361.95 106.868 362.79 106.808 362.46C106.788 362.35 106.748 362.23 106.708 362.12C106.588 361.82 106.718 362.72 106.738 362.4C106.738 362.32 106.738 362.22 106.738 362.14C106.708 361.54 106.588 362.83 106.738 362.23C107.038 360.98 106.548 359.47 105.358 358.84C104.168 358.21 102.658 358.32 101.718 359.31C101.638 359.4 101.548 359.48 101.468 359.57C101.388 359.65 100.968 359.98 101.358 359.69C101.728 359.41 101.378 359.67 101.298 359.72C101.198 359.79 101.098 359.85 100.988 359.91C100.878 359.97 100.678 360.04 100.588 360.12C100.668 360.04 101.198 359.89 100.808 360.03C100.578 360.11 100.348 360.18 100.118 360.24C99.9681 360.28 99.8181 360.3 99.6781 360.33C99.3081 360.41 100.308 360.3 99.9381 360.29C99.6981 360.29 99.4581 360.31 99.2181 360.3C98.7181 360.28 99.1681 360.28 99.3881 360.35C99.2781 360.32 99.1481 360.31 99.0381 360.28C98.9281 360.25 98.8081 360.22 98.6881 360.19C98.5681 360.16 98.0881 359.95 98.5381 360.16C98.9881 360.37 98.2881 360.03 98.1681 359.95C98.0681 359.89 97.9681 359.82 97.8681 359.76C97.5581 359.58 98.3581 360.2 97.9781 359.85C97.7981 359.69 97.6281 359.53 97.4581 359.35C97.3781 359.26 97.3081 359.16 97.2181 359.08C97.7081 359.54 97.4581 359.39 97.3181 359.18C97.1881 358.98 97.0681 358.77 96.9581 358.55C96.7281 358.1 96.9981 358.48 97.0081 358.69C97.0081 358.58 96.9281 358.45 96.8881 358.35C96.8181 358.12 96.7981 357.87 96.7181 357.65C96.9381 358.28 96.7681 358.12 96.7581 357.82C96.7581 357.67 96.7581 357.52 96.7581 357.37C96.7881 355.07 94.1981 353.66 92.2481 354.78C92.0281 354.9 91.8181 355.03 91.5981 355.14C91.4881 355.2 90.9881 355.36 90.9181 355.47C91.0481 355.24 91.4081 355.31 91.0381 355.41C90.8981 355.45 90.7681 355.5 90.6381 355.53C90.5381 355.56 90.4381 355.57 90.3381 355.6C89.9781 355.7 90.9781 355.58 90.4281 355.57C89.8781 355.56 91.0981 355.68 90.3381 355.54C90.0181 355.48 90.6181 355.63 90.6381 355.67C90.6381 355.67 90.4281 355.53 90.3981 355.52C90.4281 355.52 90.9781 356.03 90.6881 355.72C90.6081 355.63 90.4681 355.44 90.7381 355.82C91.1281 356.36 90.5881 355.63 90.6181 355.54C90.6581 355.43 90.7881 356.26 90.7981 355.93C90.7981 355.87 90.7581 355.78 90.7381 355.73C90.7381 355.73 90.6581 355.47 90.6781 355.45C90.7081 355.41 90.7281 356.31 90.7381 355.81C90.7381 355.64 90.7381 355.46 90.7381 355.29C90.7381 354.66 90.5781 355.96 90.7381 355.33C90.7781 355.15 90.8181 354.98 90.8781 354.81C90.9081 354.73 90.9681 354.6 90.9781 354.52C90.9781 354.51 90.6781 355.13 90.8281 354.88C90.9181 354.73 90.9881 354.56 91.0781 354.41C91.0981 354.37 91.2281 354.22 91.2381 354.16C91.1881 354.38 90.8181 354.67 91.1781 354.25C92.4781 352.73 94.2681 351.73 95.5781 350.23C97.2281 348.34 98.1181 346.09 99.0381 343.78C99.2381 343.28 99.3981 342.66 99.6881 342.2C99.6881 342.22 99.4681 342.71 99.6081 342.39C99.6481 342.29 99.6981 342.18 99.7381 342.08C99.8681 341.77 100.008 341.45 100.148 341.14C100.588 340.13 101.058 339.14 101.538 338.15C102.538 336.11 103.638 334.11 104.858 332.2C105.428 331.31 106.028 330.43 106.648 329.58C106.788 329.39 106.938 329.2 107.078 329C107.388 328.58 107.028 329.06 106.978 329.12C107.058 329.01 107.148 328.9 107.228 328.8C107.548 328.4 107.868 328 108.198 327.61C109.498 326.07 110.898 324.61 112.378 323.24C113.228 322.45 114.108 321.69 115.018 320.97C115.178 320.84 115.888 320.37 115.218 320.81C115.448 320.66 115.658 320.48 115.878 320.32C116.348 319.97 116.818 319.64 117.298 319.31C119.188 318.02 121.168 316.86 123.218 315.84C124.628 315.14 125.128 313.03 124.298 311.74C123.368 310.3 121.698 309.92 120.198 310.66L120.128 310.63Z" fill="black"/>
</g>
<defs>
<clipPath id="clip0_873_1532">
<rect width="380.54" height="573" fill="white" transform="translate(0.408203)"/>
</clipPath>
</defs>
</svg>
