<svg width="381" height="573" viewBox="0 0 381 573" fill="none" xmlns="http://www.w3.org/2000/svg">
<g clip-path="url(#clip0_873_1874)">
<path d="M358.299 0H22.2993C9.99992 0 0.0292969 9.97062 0.0292969 22.27V550.73C0.0292969 563.029 9.99992 573 22.2993 573H358.299C370.599 573 380.569 563.029 380.569 550.73V22.27C380.569 9.97062 370.599 0 358.299 0Z" fill="white"/>
<path d="M319.26 95.66C338.037 95.66 353.26 80.4377 353.26 61.66C353.26 42.8823 338.037 27.66 319.26 27.66C300.482 27.66 285.26 42.8823 285.26 61.66C285.26 80.4377 300.482 95.66 319.26 95.66Z" fill="#98CA51"/>
<path d="M319.328 56.7012C320.916 56.7012 322.476 56.8962 324.009 57.2862C325.541 57.6484 326.906 58.2335 328.104 59.0414C329.33 59.9051 330.319 61.0055 331.071 62.3428C331.823 63.6522 332.172 65.2542 332.116 67.1487C332.088 68.8203 331.796 70.3526 331.238 71.7456C330.681 73.1107 329.901 74.2947 328.898 75.2977C327.867 76.3007 326.614 77.0947 325.137 77.6797C323.66 78.2369 321.975 78.5155 320.08 78.5155H307.627C307.766 77.819 307.878 77.0529 307.961 76.2171C308.073 75.3534 308.323 74.6151 308.713 74.0022C308.936 73.64 309.145 73.3475 309.34 73.1246C309.535 72.9017 309.814 72.7207 310.176 72.5814C310.538 72.4142 310.984 72.3028 311.513 72.247C312.071 72.1635 312.781 72.1217 313.645 72.1217H317.531C319.649 72.0102 321.111 71.5505 321.919 70.7426C322.727 69.9347 323.131 68.7645 323.131 67.2322C323.131 65.7278 322.56 64.5855 321.418 63.8055C320.275 63.0254 318.98 62.6771 317.531 62.7607H308.505V45.0417H330.528V51.3938H317.28V56.7012H319.328Z" fill="white"/>
<path d="M73.7117 470.69C77.7241 470.69 81.6661 471.182 85.5378 472.168C89.4094 473.083 92.8587 474.561 95.8856 476.603C98.9829 478.785 101.482 481.565 103.382 484.944C105.283 488.253 106.163 492.3 106.022 497.087C105.952 501.311 105.213 505.182 103.805 508.702C102.397 512.151 100.426 515.143 97.8918 517.677C95.2872 520.211 92.1195 522.218 88.3887 523.696C84.6578 525.104 80.3991 525.808 75.6123 525.808H44.1465C44.4985 524.048 44.78 522.112 44.9912 520C45.2728 517.818 45.9063 515.953 46.8918 514.404C47.455 513.489 47.9829 512.75 48.4757 512.187C48.9684 511.623 49.6724 511.166 50.5875 510.814C51.5026 510.392 52.6289 510.11 53.9664 509.969C55.3742 509.758 57.1693 509.652 59.3514 509.652H69.1713C74.5212 509.371 78.2169 508.209 80.2583 506.168C82.2997 504.127 83.3204 501.17 83.3204 497.298C83.3204 493.497 81.8773 490.611 78.9912 488.64C76.1051 486.669 72.8318 485.789 69.1713 486H46.3639V441.23H102.01V457.28H68.5378V470.69H73.7117Z" fill="#98CA51"/>
<path d="M262.429 386.31H114.169C109.939 357.19 107.399 322.27 116.689 304.48L264.059 302C269.939 329.04 268.529 357.29 262.429 386.31Z" fill="#D6AF43"/>
<path d="M189.309 391.81C189.309 391.81 138.199 402.64 113.769 399.43C110.679 399.03 108.369 396.26 108.499 393.15C108.659 389.17 113.359 386.42 116.249 384.28C110.799 372.46 104.489 360.41 104.479 347.39C104.459 334.43 110.699 322.38 116.779 310.93" fill="#D6AF43"/>
<path d="M188.379 388.43C186.279 388.88 184.159 389.28 182.049 389.69C176.819 390.69 171.569 391.61 166.299 392.45C162.509 393.05 158.719 393.62 154.919 394.13L155.849 394C150.019 394.78 144.159 395.45 138.299 395.91C132.789 396.35 127.259 396.62 121.729 396.49C119.069 396.43 116.409 396.27 113.769 395.93L114.699 396.06C114.379 396.01 114.069 395.95 113.769 395.86C113.639 395.82 113.499 395.75 113.359 395.72C114.129 395.87 113.939 395.98 113.579 395.8C113.329 395.67 113.099 395.52 112.859 395.36C112.329 395.02 113.479 395.93 113.039 395.49C112.939 395.39 112.839 395.3 112.739 395.2C112.639 395.1 112.549 395 112.459 394.89C112.079 394.47 112.869 395.48 112.649 395.14C112.479 394.88 112.309 394.63 112.169 394.35C112.099 394.22 111.889 393.73 112.139 394.31C112.389 394.89 112.189 394.4 112.139 394.25C112.039 393.92 111.969 393.59 111.919 393.25L112.049 394.18C111.989 393.67 111.979 393.17 112.049 392.66L111.919 393.59C111.949 393.38 111.989 393.18 112.039 392.97C112.079 392.8 112.379 392.02 112.109 392.64C111.839 393.26 112.159 392.56 112.239 392.41C112.349 392.2 112.479 391.99 112.609 391.79C112.669 391.7 112.739 391.61 112.799 391.52C113.059 391.13 112.569 391.8 112.549 391.84C112.619 391.64 112.899 391.42 113.039 391.27C113.369 390.91 113.719 390.57 114.079 390.25C114.439 389.93 114.779 389.65 115.149 389.35C115.599 388.99 114.589 389.78 114.919 389.52C115.009 389.45 115.099 389.38 115.199 389.31C115.379 389.17 115.569 389.04 115.749 388.9C116.499 388.35 117.269 387.82 118.019 387.27C118.769 386.72 119.419 386.1 119.629 385.18C119.839 384.26 119.689 383.38 119.279 382.48C117.479 378.58 115.619 374.7 113.899 370.76C113.689 370.28 113.479 369.79 113.269 369.3C113.299 369.37 113.589 370.07 113.359 369.51C113.319 369.41 113.269 369.3 113.229 369.2C113.109 368.92 112.999 368.64 112.889 368.36C112.479 367.35 112.079 366.34 111.709 365.31C110.969 363.32 110.299 361.3 109.739 359.25C109.099 356.93 108.599 354.58 108.269 352.19L108.399 353.12C107.879 349.28 107.879 345.41 108.389 341.56L108.259 342.49C108.839 338.29 109.979 334.19 111.449 330.21C111.819 329.22 112.199 328.25 112.599 327.27C112.659 327.13 112.719 326.99 112.769 326.85C112.769 326.84 112.479 327.52 112.639 327.17C112.749 326.93 112.849 326.68 112.949 326.44C113.159 325.96 113.379 325.47 113.589 324.99C114.479 323.03 115.419 321.09 116.399 319.16C117.509 316.97 118.649 314.81 119.799 312.64C120.659 311.02 120.259 308.76 118.539 307.85C116.919 306.99 114.669 307.38 113.749 309.11C108.859 318.33 103.819 327.85 101.879 338.21C101.369 340.92 101.039 343.68 100.979 346.44C100.919 349.2 101.189 352.04 101.609 354.81C102.379 359.85 103.949 364.74 105.829 369.47C108.059 375.08 110.689 380.51 113.219 385.99L114.479 381.2C110.419 384.21 105.639 387.11 105.039 392.62C104.739 395.39 105.939 398.38 107.969 400.27C109.109 401.34 110.479 402.15 111.989 402.57C113.039 402.87 114.179 402.93 115.259 403.05C122.369 403.79 129.589 403.49 136.709 402.98C144.869 402.39 152.999 401.39 161.099 400.22C167.659 399.27 174.209 398.19 180.729 396.98C183.849 396.4 187.019 395.89 190.109 395.15C190.149 395.14 190.199 395.13 190.239 395.12C192.029 394.74 193.239 392.54 192.679 390.81C192.069 388.92 190.299 387.96 188.369 388.37L188.379 388.43Z" fill="black"/>
<path d="M189.309 391.81C189.309 391.81 240.419 402.64 264.849 399.43C267.939 399.03 270.249 396.26 270.119 393.15C269.959 389.17 265.259 386.42 262.369 384.28C267.819 372.46 274.129 360.41 274.139 347.39C274.159 334.43 267.919 322.38 261.839 310.93" fill="#D6AF43"/>
<path d="M188.379 395.18C190.929 395.72 193.479 396.21 196.039 396.69C202.279 397.86 208.529 398.93 214.809 399.87C222.859 401.08 230.939 402.12 239.049 402.81C246.349 403.42 253.719 403.82 261.039 403.31C261.829 403.25 262.629 403.19 263.419 403.1C264.539 402.98 265.719 402.92 266.799 402.58C269.809 401.63 272.039 399.37 273.119 396.44C274.089 393.82 273.639 390.75 272.149 388.42C270.659 386.09 268.669 384.54 266.549 382.99C265.749 382.41 264.939 381.84 264.139 381.26C264.559 382.86 264.979 384.45 265.399 386.05C269.769 376.57 274.709 367.06 276.689 356.73C277.209 354.03 277.559 351.27 277.639 348.52C277.719 345.71 277.469 342.92 277.059 340.14C276.309 335.09 274.739 330.19 272.789 325.48C270.479 319.89 267.709 314.52 264.879 309.18C264.019 307.56 261.639 306.93 260.089 307.92C258.439 308.98 257.909 310.98 258.829 312.71C260.849 316.51 262.859 320.32 264.659 324.23C265.099 325.19 265.529 326.16 265.949 327.13C266.029 327.31 266.189 327.75 265.859 326.92C265.899 327.02 265.949 327.13 265.989 327.23C266.089 327.47 266.189 327.72 266.289 327.96C266.489 328.45 266.679 328.94 266.869 329.43C267.629 331.42 268.319 333.43 268.889 335.48C269.539 337.8 270.049 340.16 270.379 342.54L270.249 341.61C270.759 345.46 270.749 349.32 270.239 353.17L270.369 352.24C269.789 356.44 268.659 360.53 267.229 364.51C266.859 365.53 266.479 366.55 266.079 367.56C265.889 368.05 265.689 368.54 265.489 369.03C265.439 369.16 265.139 369.67 265.189 369.76C265.189 369.76 265.469 369.09 265.319 369.45C265.249 369.62 265.169 369.8 265.099 369.97C264.249 371.95 263.359 373.91 262.459 375.87C261.429 378.09 260.389 380.3 259.359 382.52C258.969 383.36 258.709 384.29 259.009 385.22C259.309 386.14 259.849 386.74 260.619 387.31C261.349 387.85 262.089 388.36 262.819 388.89C262.999 389.02 263.189 389.16 263.369 389.3C263.459 389.37 263.549 389.44 263.649 389.51C264.169 389.9 263.119 389.09 263.419 389.33C263.799 389.64 264.189 389.95 264.549 390.28C264.889 390.59 265.219 390.9 265.529 391.24C265.699 391.42 265.859 391.62 266.029 391.81C266.299 392.11 265.569 391.16 265.789 391.49C265.849 391.58 265.919 391.67 265.979 391.76C266.109 391.96 266.699 392.69 266.639 392.95C266.639 392.95 266.329 392.08 266.459 392.55C266.499 392.68 266.539 392.8 266.579 392.92C266.639 393.15 266.689 393.38 266.719 393.61L266.589 392.68C266.649 393.19 266.639 393.69 266.589 394.2L266.719 393.27C266.669 393.58 266.609 393.88 266.519 394.18C266.479 394.31 266.409 394.45 266.389 394.58C266.529 393.83 266.659 393.98 266.469 394.36C266.339 394.61 266.189 394.84 266.039 395.08C265.719 395.61 266.609 394.45 266.179 394.9C266.079 395 265.989 395.11 265.899 395.21C265.809 395.31 265.699 395.4 265.599 395.5C265.189 395.88 266.189 395.09 265.849 395.32C265.589 395.49 265.339 395.66 265.059 395.81C264.929 395.88 264.439 396.09 265.019 395.85C265.599 395.61 265.099 395.81 264.959 395.85C264.629 395.95 264.289 396.02 263.939 396.08L264.869 395.95C259.939 396.59 254.929 396.63 249.969 396.47C244.189 396.29 238.409 395.82 232.659 395.21C229.369 394.86 226.079 394.46 222.789 394.02L223.719 394.15C217.309 393.29 210.909 392.28 204.529 391.17C200.469 390.46 196.409 389.71 192.369 388.89C191.659 388.75 190.959 388.61 190.259 388.46C188.469 388.08 186.389 388.99 185.949 390.9C185.549 392.66 186.479 394.8 188.389 395.21L188.379 395.18Z" fill="black"/>
<path d="M116.629 310.07C115.339 309.56 116.329 309.83 115.059 309.26C113.149 308.4 111.269 307.47 109.419 306.45C105.369 304.21 101.509 301.63 97.9688 298.69C94.2588 295.59 90.9188 292.05 88.1788 288.09C81.0788 277.85 78.9488 265.5 81.1388 253.41C81.6488 250.59 82.3688 247.81 83.2488 245.09C83.2488 245.09 86.7288 227.68 113.599 205.4C112.599 202.17 112.059 198.76 112.059 195.22C112.059 175.76 128.269 159.99 148.269 159.99C165.379 159.99 179.699 171.54 183.489 187.05C184.099 186.93 187.089 186.95 188.279 186.97C189.479 186.96 192.469 186.93 193.069 187.05C196.859 171.53 211.179 159.99 228.289 159.99C248.289 159.99 264.499 175.76 264.499 195.22C264.499 198.76 263.959 202.18 262.959 205.4C289.839 227.67 293.309 245.09 293.309 245.09C294.189 247.82 294.909 250.6 295.419 253.41C297.609 265.5 295.479 277.85 288.379 288.09C285.639 292.04 282.299 295.58 278.589 298.69C276.939 300.07 275.199 301.33 273.439 302.56C270.609 304.55 267.849 306.64 264.989 308.58L261.269 310.39" fill="#D6AF43"/>
<path d="M261.28 313.89C259.98 313.89 258.74 313.17 258.13 311.92C257.28 310.18 258.01 308.09 259.75 307.24L263.24 305.54C264.84 304.45 266.46 303.28 268.03 302.14C269.16 301.32 270.29 300.5 271.43 299.7C273.32 298.37 274.88 297.23 276.35 296C279.97 292.97 283.05 289.64 285.51 286.1C291.79 277.04 294.09 265.65 291.98 254.03C291.52 251.47 290.85 248.82 289.99 246.15L289.889 245.76C289.859 245.62 286.1 229.1 260.74 208.08L258.94 206.59L259.63 204.35C260.55 201.38 261.02 198.31 261.02 195.2C261.02 177.7 246.35 163.47 228.31 163.47C213.08 163.47 200 173.5 196.49 187.86L195.7 191.11L192.51 190.48C192.14 190.45 190.78 190.41 188.34 190.45C185.82 190.42 184.46 190.45 184.09 190.48L180.9 191.11L180.11 187.86C176.61 173.5 163.52 163.47 148.29 163.47C130.26 163.47 115.58 177.7 115.58 195.2C115.58 198.3 116.05 201.38 116.97 204.35L117.66 206.59L115.86 208.08C90.4995 229.1 86.7395 245.61 86.6995 245.78L86.5995 246.15C85.7395 248.82 85.0695 251.47 84.6095 254.02C82.5095 265.64 84.7995 277.03 91.0795 286.09C93.5395 289.63 96.6195 292.97 100.24 296C103.49 298.7 107.16 301.19 111.13 303.38C112.84 304.32 114.65 305.23 116.51 306.06C117.03 306.3 117.44 306.5 117.8 306.76C117.84 306.77 117.88 306.79 117.93 306.81C119.73 307.52 120.61 309.55 119.9 311.35C119.19 313.15 117.16 314.03 115.36 313.32C114.75 313.08 114.25 312.87 113.77 312.5C113.73 312.48 113.69 312.46 113.64 312.44C111.6 311.52 109.62 310.54 107.75 309.5C103.39 307.09 99.3595 304.36 95.7595 301.37C91.6495 297.93 88.1395 294.13 85.3295 290.07C77.9895 279.48 75.2895 266.23 77.7195 252.77C78.2295 249.96 78.9595 247.06 79.8895 244.15C80.4095 241.9 84.9895 225.16 109.65 204.15C108.94 201.22 108.58 198.22 108.58 195.2C108.58 173.85 126.39 156.47 148.29 156.47C165.77 156.47 180.93 167.42 186.12 183.44C186.73 183.44 187.46 183.44 188.34 183.45C189.18 183.44 189.88 183.44 190.48 183.44C195.68 167.43 210.84 156.47 228.31 156.47C250.2 156.47 268.02 173.84 268.02 195.2C268.02 198.22 267.66 201.22 266.95 204.15C291.61 225.17 296.189 241.91 296.71 244.15C297.64 247.06 298.37 249.96 298.88 252.77C301.32 266.23 298.62 279.48 291.27 290.07C288.46 294.13 284.95 297.93 280.85 301.36C279.2 302.74 277.5 303.98 275.47 305.41C274.36 306.19 273.25 306.99 272.15 307.79C270.47 309.01 268.74 310.26 266.97 311.46L266.54 311.71L262.82 313.52C262.33 313.76 261.81 313.87 261.29 313.87L261.28 313.89ZM192.41 190.48C192.41 190.48 192.41 190.48 192.42 190.48H192.41ZM184.17 190.48H184.16C184.16 190.48 184.16 190.48 184.17 190.48Z" fill="black"/>
<path d="M250.519 184.65C250.519 184.65 247.109 173.89 250.279 163.03C250.329 162.85 250.569 162.8 250.699 162.94L252.239 164.73C252.239 164.73 255.309 135.06 283.149 118.62C283.149 118.62 292.749 122.62 291.059 132.32C289.379 142.02 267.409 170.01 260.669 175.81C260.669 175.81 261.639 175.93 263.959 175.46C264.169 175.42 264.329 175.66 264.199 175.83C263.039 177.37 258.909 182.12 250.519 184.63V184.65Z" fill="#EF6600"/>
<path d="M248.549 188.37L247.659 185.56C247.509 185.09 244.009 173.79 247.399 162.19C247.739 161.05 248.669 160.18 249.839 159.93C249.909 159.92 249.969 159.9 250.039 159.89C252.099 150.61 259.109 129.33 281.619 116.04L282.909 115.28L284.299 115.86C288.379 117.56 295.669 123.3 294.009 132.84C292.449 141.8 276.009 163.8 266.739 173.96C266.739 173.96 266.739 173.97 266.749 173.98C267.469 175.13 267.409 176.57 266.599 177.65C265.049 179.71 260.459 184.81 251.379 187.52L248.549 188.36V188.37ZM252.119 169.23C251.639 173.82 252.149 178.02 252.659 180.71C254.349 180 255.779 179.21 256.979 178.41L253.539 178L258.709 173.55C265.679 167.55 286.649 140.19 288.099 131.82C289.029 126.46 285.309 123.36 283.249 122.08C258.419 137.67 255.249 164.78 255.219 165.05L254.479 171.97L252.129 169.22L252.119 169.23ZM248.409 164.9C248.409 164.9 248.409 164.9 248.409 164.91V164.9Z" fill="#0F0F0F"/>
<path d="M291.019 127.81C289.709 121.37 283.139 118.63 283.139 118.63C281.199 119.77 279.389 120.98 277.679 122.24C277.639 122.37 273.159 136.97 291.019 127.81Z" fill="#3FC9B1"/>
<path d="M281.639 133.82C279.649 133.82 278.019 133.28 276.729 132.19C272.759 128.87 274.439 122.59 274.809 121.36L275.099 120.41L275.899 119.82C277.749 118.46 279.669 117.19 281.609 116.04L282.909 115.28L284.299 115.86C284.629 116 292.349 119.31 293.959 127.21L294.419 129.44L292.399 130.48C288.049 132.71 284.489 133.82 281.649 133.82H281.639ZM280.329 124.03C280.049 125.5 280.079 127.17 280.579 127.59C280.589 127.6 281.929 128.62 287.299 126.26C286.219 124.22 284.439 122.84 283.229 122.08C282.249 122.7 281.279 123.35 280.329 124.02V124.03Z" fill="#0F0F0F"/>
<path d="M275.258 135.74L263.108 137.37C262.268 138.6 261.478 139.87 260.728 141.16C260.338 141.83 259.958 142.5 259.588 143.18C259.218 143.86 258.768 144.5 258.518 145.19C258.768 145.27 259.138 145.18 259.408 145.16L260.998 145.04C262.398 144.94 263.798 144.83 265.198 144.73C266.598 144.63 268.098 144.51 269.548 144.4L275.348 158.77C277.018 156.57 278.678 154.3 280.268 152.04L275.258 135.75V135.74Z" fill="#FFB727"/>
<path d="M274.548 164.79L267.598 147.55L259.628 148.15C259.168 148.21 258.418 148.31 257.588 148.04L254.658 147.09L255.688 144.19C255.958 143.42 256.358 142.76 256.668 142.22C256.768 142.06 256.858 141.9 256.948 141.74C257.328 141.04 257.728 140.35 258.128 139.66C258.978 138.21 259.788 136.91 260.628 135.69L261.378 134.59L277.378 132.44L283.568 152.56L282.728 153.76C281.178 155.97 279.498 158.27 277.738 160.58L274.538 164.79H274.548ZM271.518 141.24L276.128 152.68C276.408 152.29 276.688 151.9 276.968 151.51L273.138 139.06L264.848 140.17C264.508 140.7 264.168 141.25 263.818 141.82L271.518 141.24Z" fill="#0F0F0F"/>
<path d="M248.049 192.78C248.049 192.78 248.119 192.47 248.249 191.89C248.379 191.31 248.569 190.46 248.859 189.4C249.149 188.33 249.499 187.03 249.939 185.56C250.159 184.82 250.399 184.04 250.649 183.21C250.899 182.38 251.209 181.53 251.509 180.62C252.089 178.81 252.819 176.89 253.579 174.84C253.959 173.82 254.399 172.79 254.819 171.72C255.249 170.66 255.669 169.57 256.159 168.48C257.129 166.31 258.079 164.03 259.209 161.79C259.759 160.66 260.309 159.53 260.869 158.39C261.459 157.27 262.059 156.14 262.649 155.01C263.819 152.74 265.129 150.55 266.389 148.37C266.709 147.83 267.019 147.28 267.329 146.75C267.639 146.21 267.999 145.7 268.319 145.17C268.989 144.13 269.649 143.1 270.299 142.09C271.549 140.05 272.959 138.18 274.229 136.37C274.869 135.47 275.479 134.59 276.099 133.76C276.749 132.94 277.369 132.15 277.969 131.39C279.169 129.88 280.249 128.47 281.279 127.28C282.319 126.1 283.229 125.07 283.979 124.22C284.719 123.37 285.329 122.72 285.729 122.26C286.139 121.81 286.349 121.57 286.349 121.57C286.349 121.57 286.159 121.83 285.789 122.31C285.419 122.79 284.899 123.5 284.209 124.38C283.519 125.27 282.689 126.35 281.729 127.58C281.239 128.19 280.789 128.89 280.279 129.6C279.769 130.31 279.239 131.06 278.679 131.84C278.119 132.62 277.539 133.43 276.939 134.27C276.369 135.13 275.779 136.02 275.169 136.93C273.969 138.77 272.649 140.66 271.439 142.71C270.199 144.75 268.869 146.82 267.659 149.01C267.039 150.09 266.409 151.19 265.789 152.28C265.009 153.6 264.369 154.99 263.599 156.32C263.089 157.3 262.569 158.27 262.059 159.25C261.549 160.29 261.039 161.32 260.529 162.35C259.399 164.57 258.389 166.8 257.379 168.95C256.859 170.02 256.429 171.1 255.959 172.14C255.509 173.19 255.039 174.2 254.619 175.2C253.809 177.21 252.989 179.1 252.319 180.87C251.619 182.63 251.009 184.26 250.479 185.7C249.939 187.14 249.509 188.41 249.149 189.46C248.799 190.51 248.529 191.33 248.339 191.9C248.159 192.47 248.069 192.77 248.069 192.77L248.049 192.78Z" fill="#603913"/>
<path d="M250.909 193.68L245.119 192.13L245.309 191.25C245.449 190.64 245.649 189.75 245.949 188.63C246.259 187.49 246.609 186.18 247.049 184.7L247.759 182.34C247.929 181.77 248.129 181.2 248.329 180.61L248.639 179.68C249.149 178.1 249.759 176.46 250.409 174.72L250.749 173.8C251.009 173.11 251.279 172.43 251.559 171.73L252.279 169.94C252.639 169.05 252.999 168.14 253.409 167.24C253.659 166.67 253.919 166.08 254.179 165.49C254.899 163.85 255.649 162.15 256.499 160.45L258.139 157.09L259.959 153.62C260.959 151.68 262.059 149.79 263.129 147.95L264.699 145.25C264.919 144.87 265.159 144.49 265.409 144.12C265.519 143.95 265.639 143.77 265.749 143.59L267.739 140.48C268.679 138.94 269.719 137.49 270.719 136.09C271.059 135.61 271.399 135.13 271.729 134.66L272.429 133.67C272.839 133.09 273.239 132.52 273.649 131.97L276.389 128.49C277.279 127.36 278.129 126.29 278.949 125.32L281.679 122.23C282.189 121.65 282.629 121.16 282.999 120.75L284.069 119.56L288.689 123.38L287.719 124.66C287.389 125.09 286.989 125.62 286.519 126.23L284.039 129.42C283.739 129.8 283.479 130.17 283.219 130.55C283.039 130.81 282.849 131.08 282.659 131.35L279.359 135.97L277.619 138.59C277.279 139.11 276.919 139.66 276.549 140.21C275.689 141.51 274.789 142.85 273.969 144.24C273.609 144.84 273.249 145.42 272.889 146C271.999 147.45 271.069 148.95 270.239 150.46L268.349 153.77C267.949 154.44 267.609 155.1 267.249 155.8C266.909 156.46 266.559 157.12 266.189 157.77L264.429 161.15L263.179 163.68C262.279 165.45 261.449 167.23 260.659 168.95L260.069 170.22C259.749 170.87 259.489 171.49 259.219 172.11C259.039 172.54 258.849 172.96 258.659 173.38L258.189 174.46C257.909 175.1 257.629 175.73 257.369 176.35C257.069 177.09 256.769 177.83 256.469 178.55C255.979 179.72 255.509 180.85 255.109 181.94C254.399 183.73 253.799 185.33 253.269 186.76C252.749 188.17 252.319 189.42 251.969 190.44L250.909 193.68Z" fill="#0F0F0F"/>
<path d="M250.938 184.2C250.688 183.39 247.708 173.19 250.808 163C250.828 162.95 250.888 162.93 250.928 162.98L252.518 164.84C252.518 164.84 252.628 164.87 252.638 164.81C252.908 162.6 256.718 135.54 282.568 120.26C282.588 120.25 282.608 120.25 282.628 120.26C283.198 120.51 291.848 124.44 290.268 133.53C288.648 142.88 267.578 169.77 260.918 175.6C260.878 175.64 260.898 175.7 260.958 175.71C261.318 175.72 262.358 175.71 264.278 175.31C264.388 175.29 264.478 175.4 264.408 175.49C263.578 176.65 259.618 181.66 251.028 184.25C250.998 184.25 250.968 184.25 250.958 184.22L250.938 184.2Z" fill="#EF6600"/>
<path d="M253.548 177.06C251.328 171.44 250.928 164.98 250.868 163.3C250.868 163.22 250.758 163.22 250.738 163.29C247.778 173.39 250.708 183.41 250.948 184.21C250.948 184.24 250.988 184.25 251.018 184.24C259.658 181.64 263.608 176.6 264.418 175.47C264.458 175.41 264.388 175.35 264.328 175.39C259.298 178.33 254.048 177.21 253.598 177.11C253.578 177.11 253.558 177.09 253.558 177.07L253.548 177.06Z" fill="#FFB300"/>
<path d="M290.219 129.09C288.969 123.13 283.079 120.45 282.619 120.25C282.599 120.25 282.579 120.25 282.559 120.25C280.689 121.35 278.949 122.52 277.309 123.73C277.309 123.73 277.299 123.73 277.299 123.75C277.189 124.12 273.089 137.92 290.179 129.17C290.209 129.16 290.219 129.12 290.219 129.09Z" fill="#3FC9B1"/>
<path d="M263.568 147.82L271.308 163.78C271.308 163.78 271.388 163.83 271.418 163.79C272.988 161.82 274.608 159.73 276.198 157.59C276.208 157.57 276.218 157.55 276.208 157.53L271.398 141.89C271.398 141.89 271.358 141.84 271.328 141.84L260.098 143.35" fill="#3FC9B1"/>
<path d="M274.898 136.83L263.198 138.4C263.198 138.4 263.158 138.41 263.148 138.43C261.388 141 259.888 143.58 258.658 146.03L269.368 145.21C269.368 145.21 269.428 145.22 269.438 145.25L274.998 159.03C274.998 159.03 275.078 159.09 275.108 159.05C276.698 156.95 278.278 154.79 279.788 152.64C279.798 152.62 279.808 152.6 279.788 152.58L274.958 136.87C274.958 136.87 274.918 136.82 274.888 136.82L274.898 136.83Z" fill="#FFB727"/>
<path d="M248.568 192.13C248.568 192.13 248.638 191.83 248.758 191.27C248.878 190.71 249.068 189.89 249.348 188.85C249.628 187.81 249.968 186.56 250.398 185.12C250.618 184.4 250.838 183.64 251.088 182.84C251.328 182.04 251.628 181.21 251.918 180.33C252.488 178.58 253.188 176.71 253.928 174.73C254.298 173.74 254.718 172.74 255.128 171.7C255.548 170.67 255.958 169.61 256.428 168.56C257.368 166.45 258.288 164.24 259.378 162.07C259.908 160.98 260.448 159.88 260.978 158.77C261.548 157.68 262.128 156.59 262.708 155.49C263.838 153.29 265.108 151.16 266.338 149.05C266.648 148.52 266.948 148 267.248 147.48C267.548 146.96 267.898 146.46 268.208 145.95C268.858 144.94 269.498 143.94 270.128 142.96C271.338 140.98 272.708 139.17 273.938 137.42C274.558 136.55 275.148 135.69 275.748 134.88C276.378 134.09 276.978 133.32 277.558 132.58C278.728 131.11 279.768 129.75 280.768 128.59C281.778 127.44 282.658 126.45 283.388 125.62C284.108 124.8 284.698 124.16 285.088 123.72C285.478 123.28 285.688 123.05 285.688 123.05C285.688 123.05 285.498 123.3 285.148 123.76C284.788 124.22 284.278 124.91 283.608 125.77C282.938 126.63 282.128 127.68 281.198 128.87C280.718 129.46 280.288 130.14 279.788 130.83C279.298 131.52 278.778 132.25 278.238 133C277.698 133.75 277.138 134.54 276.548 135.36C275.998 136.19 275.428 137.05 274.838 137.94C273.678 139.72 272.398 141.56 271.218 143.55C270.018 145.53 268.728 147.54 267.558 149.66C266.958 150.71 266.348 151.77 265.738 152.84C265.008 154.07 264.408 155.36 263.708 156.6C263.368 157.23 263.018 157.86 262.678 158.48C261.998 159.86 261.318 161.23 260.638 162.6C259.548 164.76 258.558 166.92 257.588 169C257.088 170.04 256.668 171.09 256.218 172.09C255.778 173.1 255.328 174.09 254.918 175.06C254.128 177.01 253.338 178.84 252.688 180.56C252.008 182.27 251.418 183.85 250.898 185.25C250.378 186.65 249.958 187.88 249.608 188.9C249.268 189.92 249.008 190.72 248.828 191.26C248.658 191.81 248.568 192.1 248.568 192.1V192.13Z" fill="#603913"/>
<path d="M261.999 145.79L258.659 146.04C257.759 147.87 256.949 149.73 256.209 151.6L265.129 151.1L265.249 149.02" fill="#3FC9B1"/>
<path d="M112.349 215.17C110.179 215.17 108.079 214.47 106.359 213.16C104.289 211.58 102.979 209.21 102.759 206.67C102.389 202.41 102.269 195.7 103.759 187.92C104.539 183.87 107.929 180.84 112.199 180.4C125.509 179.01 195.409 172.49 263.889 180.35C268.449 180.87 272.009 184.45 272.359 188.87C272.979 196.74 272.549 202.6 271.079 206.29C269.679 209.81 266.199 212.11 262.209 212.14C249.329 212.24 135.779 213.17 113.239 215.14C112.939 215.17 112.649 215.18 112.349 215.18V215.17ZM114.339 191.24C113.479 196.32 113.419 200.79 113.599 204.07C138.279 202.21 238.469 201.32 261.169 201.15C261.569 199.3 261.799 196 261.489 191.15C196.069 183.8 129.539 189.7 114.339 191.25V191.24Z" fill="black"/>
<mask id="mask0_873_1874" style="mask-type:luminance" maskUnits="userSpaceOnUse" x="108" y="181" width="160" height="29">
<path d="M112.618 185.57C127.268 184.04 195.698 177.72 263.408 185.51C265.278 185.73 266.718 187.12 266.848 188.84C267.178 192.93 267.478 200.25 265.908 204.05C265.338 205.42 263.878 206.31 262.268 206.32C246.958 206.44 134.748 207.37 112.548 209.36C110.348 209.56 108.418 208.07 108.238 206.06C107.898 202.22 107.738 195.89 109.168 188.52C109.468 186.96 110.878 185.76 112.608 185.58L112.618 185.57Z" fill="white"/>
</mask>
<g mask="url(#mask0_873_1874)">
<path d="M211.738 174.34H167.348L178.448 191.87L189.548 209.4L200.638 191.87L211.738 174.34Z" fill="#63D3B3"/>
<path d="M256.128 174.34H211.738L222.838 191.87L233.928 209.4L245.028 191.87L256.128 174.34Z" fill="#63D3B3"/>
<path d="M167.347 174.34H122.957L134.047 191.87L145.147 209.4L156.247 191.87L167.347 174.34Z" fill="#63D3B3"/>
<path d="M122.958 174.34L111.858 191.87L100.758 209.4H122.958H145.148L134.048 191.87L122.958 174.34Z" fill="#EF6600"/>
<path d="M167.348 174.34L156.248 191.87L145.148 209.4H167.348H189.548L178.448 191.87L167.348 174.34Z" fill="#EF6600"/>
<path d="M211.737 174.34L200.637 191.87L189.547 209.4H211.737H233.927L222.837 191.87L211.737 174.34Z" fill="#EF6600"/>
<path d="M267.228 191.87L256.128 174.34L245.028 191.87L233.928 209.4H256.128H278.258V209.29L267.228 191.87Z" fill="#EF6600"/>
<path d="M127.017 197.13C127.017 199.33 125.057 201.12 122.647 201.12C120.237 201.12 118.277 199.34 118.277 197.13C118.277 194.92 120.237 193.14 122.647 193.14C125.057 193.14 127.017 194.93 127.017 197.13Z" fill="#F8C054"/>
<path d="M171.719 197.13C171.719 199.33 169.759 201.12 167.349 201.12C164.939 201.12 162.979 199.34 162.979 197.13C162.979 194.92 164.939 193.14 167.349 193.14C169.759 193.14 171.719 194.93 171.719 197.13Z" fill="#F8C054"/>
<path d="M216.418 197.13C216.418 199.33 214.458 201.12 212.048 201.12C209.638 201.12 207.678 199.34 207.678 197.13C207.678 194.92 209.638 193.14 212.048 193.14C214.458 193.14 216.418 194.93 216.418 197.13Z" fill="#F8C054"/>
<path d="M261.107 197.13C261.107 199.33 259.147 201.12 256.737 201.12C254.327 201.12 252.367 199.34 252.367 197.13C252.367 194.92 254.327 193.14 256.737 193.14C259.147 193.14 261.107 194.93 261.107 197.13Z" fill="#F8C054"/>
<path d="M154.517 181.45H135.777L140.467 188.85L145.147 196.25L149.827 188.85L154.517 181.45Z" fill="#EF6600"/>
<path d="M198.908 181.45H180.168L184.858 188.85L189.538 196.25L194.228 188.85L198.908 181.45Z" fill="#EF6600"/>
<path d="M243.299 181.45H224.559L229.249 188.85L233.929 196.25L238.619 188.85L243.299 181.45Z" fill="#EF6600"/>
<path d="M268.957 181.45H278.257V174.34H256.127L267.227 191.87L278.257 209.29V196.14L273.637 188.85L268.957 181.45Z" fill="#63D3B3"/>
<path d="M100.758 174.34V181.45H110.128L105.438 188.85L100.758 196.25V209.4L111.858 191.87L122.958 174.34H100.758Z" fill="#63D3B3"/>
<path d="M110.128 181.45H100.758V196.25L105.438 188.85L110.128 181.45Z" fill="#F96C41"/>
</g>
<path d="M154.529 232.85C161.649 232.08 168.709 230.9 175.679 229.27C177.459 228.85 178.689 226.71 178.119 224.96C177.519 223.1 175.729 222.07 173.809 222.52C168.569 223.75 163.269 224.73 157.929 225.45L158.859 225.32C157.409 225.51 155.969 225.69 154.519 225.84C153.569 225.94 152.749 226.16 152.049 226.87C151.439 227.48 150.989 228.47 151.019 229.34C151.099 231.07 152.569 233.05 154.519 232.84L154.529 232.85Z" fill="black"/>
<path d="M228.3 225.85C226.85 225.69 225.4 225.52 223.96 225.33L224.89 225.46C219.55 224.74 214.26 223.76 209.01 222.53C207.23 222.11 205.14 223.08 204.7 224.97C204.29 226.76 205.24 228.83 207.14 229.28C214.11 230.91 221.18 232.09 228.29 232.86C229.13 232.95 230.2 232.4 230.76 231.83C231.37 231.22 231.82 230.23 231.79 229.36C231.76 228.49 231.45 227.52 230.76 226.89C230.04 226.22 229.26 225.97 228.29 225.86L228.3 225.85Z" fill="black"/>
<path d="M220.829 342.1C217.789 341 214.579 340.51 211.449 339.7C205.119 338.04 199.149 334.98 194.109 330.81C192.889 329.8 191.689 328.71 190.229 328.07C185.639 326.05 180.469 329.15 176.739 332.49C174.119 334.84 171.669 337.39 169.229 339.94C165.959 343.35 162.689 346.77 159.699 350.42C154.529 356.74 150.169 363.93 148.429 371.91C146.759 379.56 147.769 388.02 152.219 394.43C171.729 392 189.369 388.26 189.369 388.26C189.369 388.26 217.679 394.26 242.229 396C242.489 395.52 242.519 394.93 242.529 394.37C242.659 384.27 242.759 373.97 239.809 364.31C236.859 354.65 230.309 345.54 220.809 342.1H220.829Z" fill="white"/>
<path d="M179.17 251.64C187.01 253.84 195.62 253.47 203.22 250.56C205.46 249.7 207.62 248.67 209.67 247.42C210.78 246.74 211.31 245.15 210.57 244C209.83 242.85 208.34 242.37 207.15 243.1C206.35 243.59 205.54 244.05 204.71 244.47C204.31 244.67 203.91 244.87 203.5 245.06C203.28 245.16 203.06 245.26 202.84 245.36C202.74 245.4 202.65 245.44 202.55 245.48C202.87 245.34 202.7 245.42 202.48 245.51C200.75 246.21 198.96 246.77 197.14 247.19C196.23 247.4 195.31 247.58 194.39 247.72C194.26 247.74 194.11 247.78 193.98 247.78C194 247.78 194.43 247.73 194.13 247.76C193.92 247.78 193.72 247.81 193.51 247.83C192.99 247.89 192.48 247.93 191.96 247.97C190.1 248.1 188.22 248.08 186.36 247.92C186.08 247.9 185.81 247.87 185.53 247.84C185.43 247.83 185.32 247.82 185.22 247.8C185.16 247.8 184.71 247.74 185.04 247.78C185.37 247.82 185.01 247.78 184.96 247.77C184.79 247.74 184.62 247.72 184.45 247.69C184.21 247.65 183.97 247.61 183.73 247.57C182.64 247.37 181.56 247.12 180.5 246.82C179.24 246.47 177.72 247.25 177.42 248.57C177.12 249.9 177.82 251.27 179.17 251.65V251.64Z" fill="black"/>
<path d="M154.63 346.96L164.49 350.11L163.77 354.85L152.52 353.7L154.63 346.96Z" fill="#D6AF43"/>
<path d="M231.819 346.98L242.089 348.33L242.219 353.12L230.949 353.99L231.819 346.98Z" fill="#D6AF43"/>
<path d="M228.251 320.09C216.101 319.24 203.681 320.38 192.221 323.39C188.231 324.44 183.991 325.97 182.431 328.8C180.861 331.65 182.551 334.88 184.781 337.5C193.731 347.94 216.911 357.24 233.661 354.65" fill="#D6AF43"/>
<path d="M228.25 317.59C219.11 316.96 209.92 317.45 200.89 318.98C196.75 319.68 192.54 320.52 188.56 321.88C184.9 323.13 180.59 325.2 179.55 329.32C178.51 333.44 181.28 337.55 184.08 340.45C186.23 342.68 188.72 344.59 191.3 346.3C197.15 350.17 203.75 353.03 210.48 354.98C217.23 356.94 224.46 358.09 231.49 357.43C232.44 357.34 233.38 357.22 234.32 357.07C235.62 356.87 236.45 355.17 236.07 353.99C235.61 352.58 234.38 352.03 232.99 352.24C232.89 352.26 232.24 352.35 232.66 352.29C233.08 352.23 232.51 352.31 232.41 352.32C232.02 352.37 231.62 352.41 231.23 352.44C230.46 352.51 229.68 352.55 228.91 352.57C227.28 352.62 225.65 352.57 224.03 352.45C223.21 352.39 222.4 352.31 221.58 352.21C221.4 352.19 221.21 352.16 221.03 352.14C220.57 352.08 221.48 352.2 220.87 352.12C220.44 352.06 220.01 351.99 219.59 351.92C217.92 351.64 216.27 351.3 214.63 350.9C211.3 350.08 208.03 349.02 204.85 347.74C204.65 347.66 204.45 347.58 204.25 347.49C204.17 347.46 203.64 347.23 203.95 347.36C204.26 347.49 203.68 347.24 203.57 347.19C203.37 347.1 203.18 347.02 202.98 346.93C202.23 346.59 201.48 346.25 200.74 345.88C199.27 345.16 197.83 344.4 196.43 343.57C195.12 342.8 193.84 341.98 192.59 341.11C192.3 340.91 192.02 340.7 191.74 340.49C191.59 340.38 191.44 340.27 191.29 340.15C190.84 339.81 191.56 340.36 191.23 340.11C190.67 339.66 190.11 339.21 189.57 338.74C188.6 337.89 187.67 336.99 186.81 336.02C186.55 335.73 186.31 335.43 186.06 335.13C185.88 334.91 186.1 335.18 186.12 335.21C186.06 335.12 185.99 335.04 185.93 334.95C185.76 334.72 185.6 334.48 185.45 334.25C185.21 333.87 184.98 333.48 184.78 333.07C184.74 332.98 184.7 332.88 184.65 332.79C184.48 332.46 184.78 333.18 184.67 332.83C184.6 332.61 184.52 332.4 184.45 332.18C184.38 331.96 184.35 331.74 184.3 331.52C184.23 331.23 184.34 331.71 184.32 331.72C184.33 331.72 184.3 331.46 184.3 331.44C184.29 331.22 184.3 331.01 184.3 330.79C184.3 330.69 184.39 330.46 184.3 330.75C184.2 331.09 184.33 330.69 184.35 330.62C184.38 330.5 184.43 330.38 184.46 330.25C184.52 329.96 184.39 330.39 184.39 330.39C184.39 330.25 184.57 330.02 184.65 329.9C184.7 329.81 184.76 329.72 184.82 329.63C184.96 329.39 184.88 329.64 184.81 329.63C184.62 329.85 184.79 329.63 184.81 329.63C184.88 329.55 184.95 329.47 185.02 329.39C185.25 329.14 185.71 328.88 185.87 328.6C185.87 328.61 185.48 328.88 185.71 328.73C185.78 328.68 185.85 328.63 185.92 328.58C186.12 328.44 186.31 328.31 186.52 328.19C186.86 327.98 187.21 327.79 187.57 327.61C187.74 327.52 187.91 327.44 188.08 327.36C188.17 327.32 188.26 327.28 188.34 327.24C188.91 326.98 188.03 327.36 188.37 327.23C192.07 325.8 195.99 324.94 199.88 324.19C200.92 323.99 201.96 323.81 203 323.64C203.5 323.56 204.01 323.48 204.51 323.41C204.74 323.38 204.98 323.34 205.21 323.31C205.37 323.29 205.52 323.27 205.68 323.25C205.42 323.29 205.51 323.27 205.72 323.25C207.83 322.98 209.95 322.76 212.08 322.61C216.39 322.3 220.71 322.23 225.03 322.4C226.1 322.44 227.17 322.5 228.23 322.58C229.54 322.67 230.79 321.37 230.73 320.08C230.67 318.65 229.63 317.68 228.23 317.58L228.25 317.59Z" fill="black"/>
<path d="M154.26 318.74C161.86 316.47 169.76 315.16 177.63 314.18C182.9 313.53 188.45 313.05 193.4 315.33C198.35 317.6 202.35 323.54 200.93 329.04C200.24 331.75 198.4 333.89 196.53 335.81C186.26 346.31 172.92 353.27 158.8 355.48" fill="#D6AF43"/>
<path d="M154.92 321.15C158.77 320.01 162.68 319.1 166.62 318.37C168.52 318.02 170.42 317.7 172.33 317.41C173.28 317.27 174.24 317.13 175.19 317C175.98 316.89 174.69 317.06 175.48 316.96C175.72 316.93 175.96 316.9 176.2 316.87C176.75 316.8 177.3 316.73 177.85 316.66C179.62 316.44 181.4 316.25 183.18 316.18C184.07 316.14 184.96 316.14 185.85 316.18C186.29 316.2 186.74 316.23 187.18 316.27C187.4 316.29 187.62 316.32 187.84 316.34C188.13 316.38 188.13 316.38 187.84 316.34C187.99 316.36 188.13 316.38 188.28 316.41C189.15 316.56 190.02 316.76 190.86 317.03C191.29 317.17 191.71 317.32 192.12 317.49C191.7 317.32 192.07 317.47 192.14 317.51C192.35 317.61 192.56 317.71 192.77 317.82C193.39 318.15 194.05 318.52 194.58 318.98C194.09 318.55 194.55 318.97 194.64 319.05C194.78 319.17 194.92 319.29 195.05 319.41C195.37 319.7 195.67 320 195.96 320.32C196.2 320.59 196.48 320.86 196.68 321.16C196.33 320.63 196.66 321.16 196.73 321.25C196.84 321.4 196.94 321.55 197.04 321.71C197.24 322.02 197.43 322.33 197.6 322.66C197.69 322.82 197.77 322.98 197.85 323.15C197.9 323.26 197.96 323.37 198.01 323.48C198.12 323.73 198.11 323.7 197.97 323.38C197.92 323.52 198.23 324.1 198.28 324.23C198.39 324.57 198.48 324.92 198.56 325.27C198.6 325.45 198.63 325.62 198.66 325.8C198.78 326.4 198.63 325.23 198.66 325.85C198.68 326.27 198.71 326.68 198.7 327.1C198.7 327.28 198.68 327.46 198.67 327.64C198.64 328.25 198.79 327.09 198.67 327.69C198.59 328.07 198.52 328.44 198.4 328.8C198.34 329 198.27 329.19 198.2 329.39C197.99 330.03 198.44 328.95 198.13 329.55C197.91 329.98 197.7 330.4 197.45 330.8C197.23 331.15 197 331.48 196.76 331.81C196.38 332.35 196.98 331.56 196.71 331.87C196.6 332 196.5 332.13 196.39 332.26C195.82 332.94 195.22 333.58 194.6 334.21C193.39 335.44 192.13 336.63 190.83 337.76C190.21 338.3 189.58 338.84 188.94 339.36C188.67 339.58 188.41 339.79 188.14 340C187.98 340.13 187.82 340.25 187.65 340.38C188.12 340.01 187.42 340.55 187.34 340.61C184.67 342.62 181.85 344.43 178.91 346.03C177.24 346.94 175.53 347.78 173.8 348.54C173.61 348.62 173.43 348.7 173.24 348.78C172.98 348.89 172.99 348.89 173.28 348.77C173.16 348.82 173.03 348.87 172.9 348.93C172.46 349.11 172.02 349.29 171.58 349.46C170.76 349.78 169.93 350.08 169.1 350.36C165.52 351.58 161.85 352.49 158.11 353.08C156.81 353.28 155.98 354.97 156.36 356.16C156.82 357.57 158.05 358.13 159.44 357.91C166.47 356.8 173.28 354.52 179.63 351.31C186.04 348.07 191.96 343.79 197.1 338.78C199.77 336.17 202.54 333.23 203.39 329.47C204.19 325.93 203.32 322.21 201.35 319.19C199.38 316.17 196.39 313.77 192.9 312.47C189.18 311.09 185.07 311 181.16 311.33C177 311.68 172.84 312.3 168.72 312.97C164.64 313.64 160.58 314.46 156.58 315.51C155.57 315.78 154.57 316.06 153.57 316.35C152.32 316.72 151.4 318.12 151.82 319.43C152.23 320.7 153.55 321.57 154.9 321.18L154.92 321.15Z" fill="black"/>
<path d="M199.599 384.57C198.939 384.57 198.279 384.43 197.679 384.17L184.339 378.37C184.239 378.33 184.129 378.31 184.009 378.31C183.869 378.31 183.729 378.34 183.619 378.4L175.209 383.17C174.499 383.57 173.689 383.79 172.849 383.79C172.009 383.79 171.169 383.57 170.459 383.16L162.229 378.39C162.119 378.33 161.989 378.29 161.839 378.29C161.689 378.29 161.559 378.32 161.449 378.38L154.509 382.36C153.799 382.77 152.979 382.98 152.129 382.98C150.989 382.98 149.909 382.59 149.069 381.88L144.719 378.16C144.619 378.07 144.439 378.02 144.259 378.02C144.079 378.02 143.919 378.07 143.809 378.15L139.149 381.84C138.339 382.48 137.299 382.84 136.219 382.84C135.139 382.84 134.139 382.5 133.329 381.87L127.859 377.64C127.749 377.56 127.589 377.51 127.419 377.51C127.249 377.51 127.099 377.55 126.989 377.63L122.639 380.73C121.859 381.29 120.879 381.59 119.889 381.59C119.079 381.59 118.289 381.39 117.599 381.01L111.449 377.66C111.349 377.6 111.209 377.57 111.069 377.57C110.929 377.57 110.809 377.6 110.699 377.65L104.859 380.69C104.179 381.05 103.409 381.23 102.649 381.23C101.179 381.23 99.7993 380.56 98.9493 379.45C98.1993 378.46 97.9593 377.22 98.2893 376.04L104.209 354.84C104.719 353.01 106.509 351.73 108.549 351.73C108.679 351.73 108.809 351.73 108.949 351.75C119.049 352.57 155.089 355.25 194.759 355.25C223.969 355.25 248.449 353.79 267.529 350.91C267.779 350.87 268.019 350.85 268.269 350.85C270.529 350.85 272.399 352.34 272.719 354.4L276.049 375.83C276.229 376.97 275.899 378.1 275.139 378.99C274.289 379.98 272.969 380.57 271.599 380.57C270.809 380.57 270.029 380.37 269.339 380L260.659 375.35C260.549 375.29 260.429 375.26 260.289 375.26C260.049 375.26 259.869 375.35 259.799 375.44L254.889 381.33C254.029 382.36 252.739 382.95 251.329 382.95C250.199 382.95 249.109 382.56 248.279 381.85L242.399 376.85C242.289 376.76 242.119 376.71 241.939 376.71C241.779 376.71 241.629 376.75 241.529 376.82L231.079 383.72C230.309 384.23 229.409 384.49 228.459 384.49C227.739 384.49 227.019 384.33 226.389 384.03L212.759 377.52C212.659 377.47 212.539 377.45 212.409 377.45C212.259 377.45 212.109 377.49 211.999 377.56L202.079 383.83C201.329 384.3 200.449 384.56 199.539 384.56L199.599 384.57Z" fill="#7F4F08"/>
<path d="M268.319 352.87C269.549 352.87 270.619 353.64 270.789 354.73L274.119 376.16C274.329 377.53 273.059 378.6 271.639 378.6C271.199 378.6 270.749 378.5 270.329 378.27L261.649 373.62C261.239 373.4 260.789 373.3 260.329 373.3C259.549 373.3 258.789 373.61 258.299 374.2L253.389 380.09C252.899 380.68 252.129 380.99 251.359 380.99C250.729 380.99 250.099 380.79 249.609 380.37L243.729 375.37C243.249 374.96 242.609 374.75 241.979 374.75C241.449 374.75 240.909 374.9 240.459 375.19L230.009 382.09C229.569 382.38 229.029 382.53 228.489 382.53C228.079 382.53 227.659 382.44 227.279 382.26L213.649 375.75C213.269 375.57 212.859 375.48 212.439 375.48C211.919 375.48 211.399 375.62 210.959 375.9L201.039 382.17C200.599 382.45 200.089 382.59 199.559 382.59C199.179 382.59 198.789 382.51 198.439 382.36L185.099 376.56C184.749 376.41 184.359 376.33 183.979 376.33C183.499 376.33 183.019 376.45 182.609 376.68L174.199 381.45C173.779 381.69 173.309 381.8 172.829 381.8C172.349 381.8 171.859 381.68 171.439 381.43L163.209 376.66C162.789 376.42 162.299 376.29 161.819 376.29C161.339 376.29 160.859 376.41 160.439 376.65L153.499 380.63C153.079 380.87 152.599 380.99 152.119 380.99C151.479 380.99 150.839 380.78 150.359 380.37L146.009 376.65C145.529 376.24 144.889 376.03 144.249 376.03C143.609 376.03 143.039 376.22 142.559 376.6L137.899 380.29C137.419 380.67 136.819 380.86 136.209 380.86C135.599 380.86 135.019 380.68 134.549 380.31L129.069 376.08C128.599 375.71 127.999 375.53 127.409 375.53C126.849 375.53 126.279 375.69 125.819 376.02L121.469 379.12C121.009 379.45 120.449 379.61 119.879 379.61C119.419 379.61 118.959 379.5 118.549 379.28L112.399 375.93C111.989 375.71 111.529 375.6 111.069 375.6C110.609 375.6 110.179 375.7 109.779 375.91L103.939 378.95C103.519 379.17 103.079 379.27 102.649 379.27C101.149 379.27 99.8187 378.06 100.219 376.61L106.139 355.41C106.409 354.44 107.419 353.76 108.559 353.76C108.639 353.76 108.719 353.76 108.799 353.76C117.889 354.5 154.609 357.27 194.779 357.27C219.739 357.27 246.039 356.2 267.849 352.91C267.999 352.89 268.139 352.88 268.289 352.88M268.289 348.88C267.939 348.88 267.599 348.91 267.249 348.96C248.269 351.82 223.879 353.27 194.769 353.27C155.159 353.27 119.199 350.6 109.119 349.78C108.929 349.76 108.749 349.76 108.559 349.76C105.619 349.76 103.039 351.64 102.289 354.33L96.3687 375.53C95.8687 377.32 96.2287 379.2 97.3587 380.69C98.5787 382.3 100.559 383.26 102.649 383.26C103.739 383.26 104.819 382.99 105.789 382.49L111.059 379.75L116.639 382.79C117.629 383.33 118.749 383.61 119.889 383.61C121.289 383.61 122.679 383.17 123.799 382.38L127.389 379.82L132.119 383.47C133.269 384.36 134.729 384.85 136.229 384.85C137.729 384.85 139.229 384.34 140.399 383.42L144.229 380.39L147.769 383.41C148.959 384.43 150.509 384.99 152.119 384.99C153.309 384.99 154.469 384.68 155.489 384.1L161.819 380.47L169.439 384.89C170.459 385.48 171.639 385.79 172.839 385.79C174.039 385.79 175.179 385.49 176.179 384.92L184.059 380.45L196.859 386.02C197.719 386.39 198.629 386.58 199.579 386.58C200.869 386.58 202.119 386.22 203.189 385.55L212.529 379.65L225.569 385.88C226.469 386.31 227.489 386.54 228.499 386.54C229.839 386.54 231.129 386.16 232.219 385.43L241.879 379.05L247.019 383.42C248.209 384.43 249.759 384.99 251.359 384.99C253.369 384.99 255.229 384.14 256.459 382.65L260.639 377.63L268.419 381.8C269.399 382.33 270.509 382.6 271.619 382.6C273.559 382.6 275.459 381.75 276.679 380.32C277.809 379 278.309 377.26 278.049 375.55L274.719 354.12C274.249 351.08 271.539 348.88 268.299 348.88H268.289Z" fill="#0F0F0F"/>
</g>
<defs>
<clipPath id="clip0_873_1874">
<rect width="380.54" height="573" fill="white" transform="translate(0.0292969)"/>
</clipPath>
</defs>
</svg>
