<svg width="382" height="573" viewBox="0 0 382 573" fill="none" xmlns="http://www.w3.org/2000/svg">
<g clip-path="url(#clip0_873_1786)">
<path d="M358.76 0H22.7602C10.4609 0 0.490234 9.97062 0.490234 22.27V550.73C0.490234 563.029 10.4609 573 22.7602 573H358.76C371.06 573 381.03 563.029 381.03 550.73V22.27C381.03 9.97062 371.06 0 358.76 0Z" fill="#98CA51"/>
<path d="M319.721 95.66C338.498 95.66 353.721 80.4377 353.721 61.66C353.721 42.8823 338.498 27.66 319.721 27.66C300.943 27.66 285.721 42.8823 285.721 61.66C285.721 80.4377 300.943 95.66 319.721 95.66Z" fill="white"/>
<path d="M327.709 65.8949H332.849V71.7037H327.709V78.5155H320.019V71.7037H304.014V65.9367L316.551 47.4238C316.913 46.8944 317.205 46.4765 317.428 46.1701C317.679 45.8636 317.958 45.6268 318.264 45.4596C318.543 45.3203 318.863 45.2367 319.225 45.2089C319.615 45.1532 320.159 45.1253 320.855 45.1253H327.709V65.8949ZM320.019 65.8949V53.3997C319.211 54.6256 318.473 55.74 317.804 56.7429C317.164 57.718 316.523 58.6931 315.882 59.6682C315.186 60.6712 314.517 61.6602 313.876 62.6353C313.263 63.6104 312.553 64.697 311.745 65.8949H320.019Z" fill="#98CA51"/>
<path d="M68.9805 546.34C87.7581 546.34 102.98 531.118 102.98 512.34C102.98 493.562 87.7581 478.34 68.9805 478.34C50.2028 478.34 34.9805 493.562 34.9805 512.34C34.9805 531.118 50.2028 546.34 68.9805 546.34Z" fill="#98CA51"/>
<path d="M103.989 493.92H116.976V508.597H103.989V525.808H84.5601V508.597H44.1191V494.025L75.7961 447.249C76.7113 445.911 77.4504 444.855 78.0135 444.081C78.6471 443.307 79.351 442.708 80.1253 442.286C80.8293 441.934 81.6388 441.723 82.5539 441.652C83.5394 441.512 84.9121 441.441 86.6719 441.441H103.989V493.92ZM84.5601 493.92V462.348C82.5187 465.445 80.6533 468.261 78.9638 470.795C77.3448 473.259 75.7257 475.723 74.1067 478.187C72.3469 480.721 70.6574 483.22 69.0384 485.683C67.4897 488.147 65.6947 490.893 63.6533 493.92H84.5601Z" fill="white"/>
<path d="M263.75 362.59L120.41 349.11V304.03H265.28L263.75 362.59Z" fill="#D6AF43"/>
<path d="M120.111 312.89C116.881 311.62 113.721 310.16 110.651 308.47C106.601 306.23 102.741 303.65 99.2012 300.71C95.4912 297.61 92.1512 294.07 89.4112 290.11C82.3112 279.87 80.1812 267.52 82.3712 255.43C82.8812 252.61 83.6012 249.83 84.4812 247.11C84.4812 247.11 87.9612 229.7 114.831 207.42C113.831 204.19 113.291 200.78 113.291 197.24C113.291 177.78 129.501 162.01 149.501 162.01C166.611 162.01 180.931 173.56 184.721 189.07C185.331 188.95 188.321 188.97 189.511 188.99C190.711 188.98 193.701 188.95 194.301 189.07C198.091 173.55 212.411 162.01 229.521 162.01C249.521 162.01 265.731 177.78 265.731 197.24C265.731 200.78 265.191 204.2 264.191 207.42C291.071 229.69 294.541 247.11 294.541 247.11C295.421 249.84 296.141 252.62 296.651 255.43C298.841 267.52 296.711 279.87 289.611 290.11C286.871 294.06 283.531 297.6 279.821 300.71C278.171 302.09 276.431 303.35 274.671 304.58C271.841 306.57 269.081 308.66 266.221 310.6L261.541 312.89" fill="#D6AF43"/>
<path d="M120.11 316.39C119.68 316.39 119.25 316.31 118.83 316.14C115.27 314.74 112.05 313.23 108.96 311.53C104.6 309.12 100.56 306.38 96.9705 303.4C92.8605 299.97 89.3605 296.17 86.5405 292.11C79.2005 281.52 76.5005 268.27 78.9305 254.81C79.4405 252 80.1705 249.1 81.1005 246.19C81.6205 243.94 86.2005 227.2 110.86 206.19C110.15 203.26 109.79 200.26 109.79 197.24C109.79 175.89 127.6 158.51 149.5 158.51C166.98 158.51 182.14 169.46 187.33 185.48C187.94 185.48 188.67 185.48 189.55 185.49C190.39 185.49 191.1 185.49 191.69 185.48C196.89 169.46 212.05 158.51 229.52 158.51C251.41 158.51 269.23 175.88 269.23 197.24C269.23 200.26 268.87 203.26 268.16 206.19C292.82 227.21 297.4 243.95 297.92 246.19C298.85 249.1 299.58 252 300.09 254.81C302.53 268.27 299.83 281.52 292.48 292.11C289.67 296.17 286.16 299.97 282.06 303.4C280.41 304.78 278.72 306.02 276.68 307.45C275.56 308.24 274.45 309.04 273.34 309.85C271.67 311.06 269.94 312.32 268.18 313.51L267.76 313.75L263.08 316.04C261.34 316.89 259.25 316.17 258.4 314.44C257.55 312.7 258.27 310.61 260 309.76L264.46 307.58C266.06 306.49 267.67 305.32 269.23 304.19C270.37 303.36 271.51 302.54 272.65 301.73C274.54 300.4 276.11 299.26 277.57 298.04C281.19 295.01 284.27 291.68 286.73 288.13C293.01 279.07 295.31 267.68 293.2 256.06C292.74 253.5 292.07 250.85 291.21 248.19L291.11 247.8C291.08 247.66 287.32 231.14 261.96 210.12L260.16 208.63L260.85 206.39C261.77 203.42 262.24 200.35 262.24 197.24C262.24 179.74 247.57 165.51 229.53 165.51C214.3 165.51 201.22 175.54 197.71 189.9L196.92 193.15L193.73 192.52C193.39 192.49 192.19 192.45 189.56 192.48C186.86 192.45 185.65 192.48 185.31 192.52L182.12 193.15L181.33 189.9C177.82 175.54 164.74 165.51 149.51 165.51C131.48 165.51 116.8 179.74 116.8 197.24C116.8 200.34 117.27 203.42 118.19 206.39L118.88 208.63L117.08 210.12C91.7205 231.14 87.9605 247.65 87.9205 247.82L87.8205 248.19C86.9605 250.86 86.2905 253.51 85.8305 256.06C83.7305 267.68 86.0205 279.07 92.3005 288.13C94.7605 291.67 97.8405 295.01 101.46 298.03C104.71 300.73 108.38 303.21 112.36 305.41C115.18 306.97 118.14 308.35 121.42 309.64C123.22 310.35 124.1 312.38 123.39 314.18C122.85 315.56 121.53 316.4 120.13 316.4L120.11 316.39Z" fill="black"/>
<path d="M116.62 345.11C115.14 364.83 117.19 384.79 117.19 384.79L111.27 391.38C108.01 395.01 110.15 400.81 114.98 401.45C139.42 404.65 190.52 393.83 190.52 393.83C190.52 393.83 243.4 405.03 267.3 401.27C271.59 400.6 273.4 395.42 270.51 392.2L263.86 384.79C263.86 384.79 264.26 369.38 263.97 355.85V347.15" fill="#D6AF43"/>
<path d="M125.64 405.55C121.6 405.55 117.84 405.36 114.53 404.93C111.01 404.47 108.05 402.11 106.81 398.77C105.57 395.43 106.28 391.7 108.66 389.05L113.55 383.6C113.1 378.48 111.85 361.72 113.12 344.85C113.26 342.92 114.94 341.48 116.87 341.62C118.8 341.76 120.24 343.44 120.1 345.37C118.66 364.54 120.64 384.24 120.66 384.43L120.82 385.97L113.87 393.72C112.93 394.76 113.21 395.89 113.37 396.33C113.53 396.76 114.05 397.8 115.43 397.98C139 401.07 189.29 390.51 189.79 390.4L190.52 390.25L191.25 390.4C191.77 390.51 243.78 401.42 266.76 397.81C267.79 397.65 268.18 396.86 268.3 396.53C268.42 396.19 268.62 395.33 267.91 394.53L260.33 386.09L260.37 384.7C260.37 384.55 260.77 369.22 260.48 355.93V347.15C260.48 345.22 262.05 343.65 263.98 343.65C265.91 343.65 267.48 345.22 267.48 347.15V355.85C267.72 366.89 267.49 379.37 267.4 383.48L273.12 389.86C275.32 392.31 276 395.77 274.9 398.88C273.8 401.98 271.1 404.22 267.86 404.73C244.86 408.35 197.26 398.8 190.53 397.4C184.87 398.57 150.17 405.54 125.64 405.54V405.55Z" fill="black"/>
<path d="M232.161 396.51C239.951 388.1 244.691 377.12 244.691 365.09C244.691 338.67 221.931 317.26 193.861 317.26C165.791 317.26 143.031 338.68 143.031 365.09C143.031 376.87 147.571 387.66 155.081 395.99C174.261 393.64 191.411 390.13 191.411 390.13C191.411 390.13 211.291 394.2 232.181 396.51H232.161Z" fill="white"/>
<path d="M251.73 186.67C251.73 186.67 248.32 175.91 251.49 165.05C251.54 164.87 251.78 164.82 251.91 164.96L253.45 166.75C253.45 166.75 256.52 137.08 284.36 120.64C284.36 120.64 293.96 124.64 292.27 134.34C290.59 144.04 268.62 172.03 261.88 177.83C261.88 177.83 262.85 177.95 265.17 177.48C265.38 177.44 265.54 177.68 265.41 177.85C264.25 179.39 260.12 184.14 251.73 186.65V186.67Z" fill="#EF6600"/>
<path d="M249.77 190.39L248.88 187.58C248.73 187.1 245.23 175.81 248.62 164.21C248.96 163.07 249.89 162.2 251.05 161.95C251.12 161.94 251.19 161.92 251.25 161.91C253.31 152.63 260.32 131.35 282.83 118.06L284.12 117.3L285.51 117.88C289.59 119.58 296.88 125.32 295.22 134.86C293.66 143.82 277.22 165.82 267.95 175.98C267.95 175.98 267.95 175.99 267.96 176C268.68 177.15 268.62 178.59 267.81 179.67C266.26 181.73 261.67 186.83 252.59 189.54L249.76 190.39H249.77ZM253.34 171.25C252.86 175.83 253.38 180.03 253.88 182.72C255.57 182.01 257 181.22 258.2 180.42L254.76 180.01L259.93 175.56C266.9 169.56 287.87 142.2 289.32 133.83C290.25 128.47 286.53 125.37 284.47 124.09C259.54 139.73 256.47 166.78 256.44 167.06L255.72 174.01L253.35 171.24L253.34 171.25Z" fill="#0F0F0F"/>
<path d="M292.241 129.84C290.931 123.4 284.361 120.66 284.361 120.66C282.421 121.8 280.611 123.01 278.901 124.27C278.861 124.4 274.381 139 292.241 129.84Z" fill="#3FC9B1"/>
<path d="M282.86 135.85C280.87 135.85 279.24 135.31 277.95 134.22C273.99 130.9 275.66 124.62 276.03 123.39L276.32 122.44L277.12 121.85C278.97 120.49 280.89 119.21 282.83 118.07L284.12 117.31L285.51 117.89C285.84 118.03 293.56 121.34 295.17 129.24L295.63 131.47L293.61 132.51C289.27 134.74 285.7 135.85 282.87 135.85H282.86ZM281.55 126.05C281.27 127.52 281.3 129.19 281.8 129.62C281.81 129.63 283.15 130.65 288.52 128.29C287.44 126.25 285.65 124.87 284.45 124.11C283.47 124.73 282.5 125.38 281.55 126.05Z" fill="#0F0F0F"/>
<path d="M276.478 137.76L264.328 139.39C263.488 140.62 262.698 141.89 261.948 143.18C261.558 143.85 261.178 144.52 260.808 145.2C260.438 145.88 259.988 146.52 259.738 147.21C259.988 147.29 260.358 147.2 260.628 147.18L262.218 147.06C263.618 146.96 265.018 146.85 266.418 146.75C267.868 146.64 269.318 146.53 270.768 146.42L276.568 160.79C278.238 158.59 279.898 156.32 281.488 154.06L276.478 137.77V137.76Z" fill="#FFB727"/>
<path d="M275.759 166.81L268.809 149.57L260.849 150.17C260.379 150.23 259.629 150.33 258.799 150.06L255.879 149.1L256.909 146.21C257.179 145.44 257.579 144.78 257.889 144.24C257.989 144.08 258.079 143.91 258.169 143.76C258.549 143.06 258.949 142.37 259.349 141.68C260.199 140.22 261.019 138.93 261.849 137.71L262.599 136.61L278.599 134.46L284.789 154.58L283.949 155.78C282.389 158 280.709 160.3 278.959 162.6L275.769 166.81H275.759ZM272.729 143.26L277.339 154.7C277.619 154.31 277.899 153.92 278.179 153.53L274.349 141.08L266.059 142.19C265.719 142.72 265.379 143.27 265.029 143.84L272.729 143.26Z" fill="#0F0F0F"/>
<path d="M249.27 194.8C249.27 194.8 249.34 194.49 249.47 193.91C249.6 193.33 249.79 192.48 250.08 191.42C250.37 190.35 250.72 189.05 251.16 187.58C251.38 186.84 251.62 186.06 251.87 185.23C252.12 184.4 252.43 183.55 252.73 182.64C253.31 180.83 254.04 178.91 254.8 176.86C255.18 175.84 255.62 174.81 256.04 173.74C256.47 172.68 256.89 171.59 257.38 170.5C258.35 168.33 259.3 166.05 260.43 163.81C260.98 162.68 261.53 161.55 262.09 160.41C262.68 159.29 263.28 158.16 263.87 157.03C265.04 154.76 266.35 152.57 267.61 150.39C267.93 149.85 268.24 149.3 268.55 148.77C268.86 148.23 269.22 147.72 269.54 147.19C270.21 146.15 270.87 145.12 271.52 144.11C272.77 142.07 274.18 140.2 275.45 138.39C276.09 137.49 276.7 136.61 277.32 135.78C277.97 134.96 278.59 134.17 279.19 133.41C280.39 131.9 281.47 130.49 282.5 129.3C283.54 128.12 284.45 127.09 285.2 126.24C285.94 125.39 286.55 124.74 286.95 124.28C287.36 123.83 287.57 123.59 287.57 123.59C287.57 123.59 287.38 123.85 287.01 124.33C286.64 124.81 286.12 125.52 285.43 126.4C284.74 127.29 283.91 128.37 282.95 129.6C282.46 130.21 282.01 130.91 281.5 131.62C280.99 132.33 280.46 133.08 279.9 133.86C279.34 134.64 278.76 135.45 278.16 136.29C277.59 137.15 277 138.04 276.39 138.95C275.19 140.79 273.87 142.68 272.66 144.73C271.42 146.77 270.09 148.84 268.88 151.03C268.26 152.11 267.63 153.21 267.01 154.3C266.23 155.62 265.59 157.01 264.82 158.34C264.31 159.32 263.79 160.29 263.28 161.27C262.77 162.31 262.26 163.34 261.75 164.37C260.62 166.59 259.61 168.82 258.6 170.97C258.08 172.04 257.65 173.12 257.18 174.16C256.73 175.21 256.26 176.22 255.84 177.22C255.03 179.23 254.21 181.12 253.54 182.89C252.84 184.65 252.23 186.28 251.7 187.72C251.16 189.16 250.73 190.43 250.37 191.48C250.02 192.53 249.75 193.35 249.56 193.92C249.38 194.49 249.29 194.79 249.29 194.79L249.27 194.8Z" fill="#603913"/>
<path d="M252.13 195.7L246.34 194.16L246.54 193.27C246.68 192.66 246.88 191.77 247.18 190.65C247.49 189.49 247.85 188.19 248.28 186.72L248.99 184.36C249.16 183.79 249.36 183.22 249.56 182.63L249.87 181.7C250.38 180.12 250.99 178.46 251.64 176.71L251.97 175.82C252.23 175.13 252.5 174.45 252.78 173.75L253.5 171.96C253.86 171.07 254.22 170.16 254.63 169.26C254.88 168.69 255.14 168.11 255.4 167.52C256.12 165.87 256.87 164.17 257.73 162.46L259.37 159.1L261.19 155.63C262.19 153.69 263.3 151.78 264.37 149.94L265.93 147.25C266.15 146.87 266.4 146.48 266.64 146.1C266.75 145.93 266.86 145.76 266.97 145.58L268.96 142.47C269.91 140.92 270.94 139.47 271.95 138.07C272.29 137.59 272.63 137.12 272.96 136.65L273.66 135.67C274.07 135.09 274.48 134.52 274.88 133.97L277.62 130.49C278.51 129.36 279.36 128.29 280.18 127.33L282.91 124.24C283.43 123.65 283.88 123.15 284.25 122.74L285.3 121.57L289.92 125.39L288.93 126.69C288.61 127.12 288.21 127.64 287.75 128.24L285.27 131.43C284.97 131.81 284.71 132.18 284.45 132.56C284.27 132.82 284.08 133.09 283.88 133.36L280.58 137.98L278.84 140.6C278.5 141.12 278.14 141.66 277.77 142.22C276.9 143.52 276.01 144.87 275.19 146.26C274.83 146.86 274.47 147.44 274.11 148.03C273.22 149.48 272.29 150.97 271.46 152.49L269.57 155.8C269.17 156.47 268.83 157.13 268.46 157.83C268.12 158.49 267.77 159.15 267.4 159.8L265.4 163.68L264.39 165.71C263.49 167.49 262.66 169.27 261.86 170.99L261.27 172.25C260.96 172.9 260.69 173.52 260.43 174.13C260.25 174.56 260.06 174.99 259.87 175.4L259.4 176.46C259.11 177.1 258.83 177.74 258.57 178.37C258.27 179.11 257.97 179.85 257.67 180.57C257.18 181.74 256.72 182.87 256.31 183.95C255.6 185.74 255 187.34 254.47 188.77C253.95 190.18 253.52 191.43 253.17 192.45L252.11 195.68L252.13 195.7Z" fill="#0F0F0F"/>
<path d="M252.159 186.23C251.909 185.42 248.929 175.22 252.029 165.03C252.049 164.98 252.109 164.96 252.149 165.01L253.739 166.87C253.739 166.87 253.849 166.9 253.859 166.84C254.129 164.63 257.939 137.57 283.789 122.29C283.809 122.28 283.829 122.28 283.849 122.29C284.419 122.54 293.069 126.47 291.489 135.56C289.869 144.91 268.799 171.8 262.139 177.63C262.099 177.67 262.119 177.73 262.179 177.74C262.539 177.75 263.579 177.74 265.499 177.34C265.609 177.32 265.699 177.43 265.629 177.52C264.799 178.68 260.839 183.69 252.249 186.28C252.219 186.28 252.189 186.28 252.179 186.25L252.159 186.23Z" fill="#EF6600"/>
<path d="M254.759 179.08C252.539 173.46 252.139 167 252.079 165.32C252.079 165.24 251.969 165.24 251.949 165.31C248.989 175.41 251.919 185.43 252.159 186.23C252.159 186.26 252.199 186.27 252.229 186.26C260.869 183.66 264.819 178.62 265.629 177.49C265.669 177.43 265.599 177.37 265.539 177.41C260.509 180.35 255.259 179.23 254.809 179.13C254.789 179.13 254.769 179.11 254.769 179.09L254.759 179.08Z" fill="#FFB300"/>
<path d="M291.439 131.11C290.189 125.15 284.299 122.47 283.839 122.27C283.819 122.27 283.799 122.27 283.779 122.27C281.909 123.37 280.169 124.54 278.529 125.75C278.529 125.75 278.519 125.75 278.519 125.77C278.409 126.14 274.309 139.94 291.399 131.19C291.429 131.18 291.439 131.14 291.439 131.11Z" fill="#3FC9B1"/>
<path d="M264.788 149.85L272.528 165.81C272.528 165.81 272.608 165.86 272.638 165.82C274.208 163.85 275.828 161.76 277.418 159.62C277.428 159.6 277.438 159.58 277.428 159.56L272.618 143.92C272.618 143.92 272.578 143.87 272.548 143.87L261.318 145.38" fill="#3FC9B1"/>
<path d="M276.109 138.86L264.409 140.43C264.409 140.43 264.369 140.44 264.359 140.46C262.599 143.03 261.099 145.61 259.869 148.06L270.579 147.24C270.579 147.24 270.639 147.25 270.649 147.28L276.209 161.06C276.209 161.06 276.289 161.12 276.319 161.08C277.909 158.98 279.489 156.82 280.999 154.67C281.009 154.65 281.019 154.63 280.999 154.61L276.169 138.9C276.169 138.9 276.129 138.85 276.099 138.85L276.109 138.86Z" fill="#FFB727"/>
<path d="M249.779 194.16C249.779 194.16 249.849 193.86 249.969 193.3C250.089 192.74 250.279 191.92 250.559 190.88C250.839 189.84 251.179 188.59 251.609 187.15C251.829 186.43 252.049 185.67 252.299 184.87C252.539 184.07 252.839 183.24 253.129 182.36C253.699 180.61 254.399 178.74 255.139 176.76C255.509 175.77 255.929 174.77 256.339 173.73C256.759 172.7 257.169 171.64 257.639 170.59C258.579 168.48 259.499 166.27 260.589 164.1C261.119 163.01 261.659 161.91 262.189 160.8C262.759 159.71 263.339 158.62 263.919 157.52C265.049 155.32 266.319 153.19 267.549 151.08C267.859 150.55 268.159 150.03 268.459 149.51C268.759 148.99 269.109 148.49 269.419 147.98C270.069 146.97 270.709 145.97 271.339 144.99C272.549 143.01 273.919 141.2 275.149 139.45C275.769 138.58 276.359 137.72 276.959 136.91C277.589 136.12 278.189 135.35 278.769 134.61C279.939 133.14 280.979 131.78 281.979 130.62C282.989 129.47 283.869 128.48 284.599 127.65C285.319 126.83 285.909 126.19 286.299 125.75C286.689 125.31 286.899 125.08 286.899 125.08C286.899 125.08 286.709 125.33 286.359 125.79C285.999 126.25 285.489 126.94 284.819 127.8C284.149 128.66 283.339 129.71 282.409 130.9C281.929 131.49 281.499 132.17 280.999 132.86C280.509 133.55 279.989 134.28 279.449 135.03C278.909 135.78 278.349 136.57 277.759 137.39C277.209 138.22 276.639 139.08 276.049 139.97C274.889 141.75 273.609 143.59 272.429 145.58C271.229 147.56 269.939 149.57 268.769 151.69C268.169 152.74 267.559 153.8 266.949 154.87C266.219 156.1 265.619 157.39 264.919 158.63L263.889 160.51C263.209 161.89 262.529 163.26 261.849 164.63C260.759 166.79 259.769 168.95 258.799 171.03C258.299 172.07 257.879 173.12 257.429 174.12C256.989 175.13 256.539 176.12 256.129 177.09C255.339 179.04 254.549 180.87 253.899 182.59C253.219 184.3 252.629 185.88 252.109 187.28C251.589 188.68 251.169 189.91 250.819 190.93C250.479 191.95 250.219 192.75 250.039 193.29C249.869 193.84 249.779 194.13 249.779 194.13V194.16Z" fill="#603913"/>
<path d="M263.22 147.81L259.88 148.06C258.98 149.89 258.17 151.75 257.43 153.62L266.35 153.12L266.47 151.04" fill="#3FC9B1"/>
<path d="M155.74 234.87C162.86 234.1 169.92 232.92 176.89 231.29C178.67 230.87 179.9 228.73 179.33 226.98C178.73 225.12 176.94 224.09 175.02 224.54C169.78 225.77 164.48 226.75 159.14 227.47L160.07 227.34C158.62 227.53 157.18 227.71 155.73 227.86C154.78 227.96 153.96 228.18 153.26 228.89C152.65 229.5 152.2 230.49 152.23 231.36C152.31 233.09 153.78 235.07 155.73 234.86L155.74 234.87Z" fill="black"/>
<path d="M229.52 227.87C228.07 227.71 226.62 227.54 225.18 227.35L226.11 227.48C220.77 226.76 215.48 225.78 210.23 224.55C208.45 224.13 206.36 225.1 205.92 226.99C205.51 228.78 206.46 230.85 208.36 231.3C215.33 232.93 222.4 234.11 229.51 234.88C230.35 234.97 231.42 234.42 231.98 233.85C232.59 233.24 233.04 232.25 233.01 231.38C232.98 230.51 232.67 229.54 231.98 228.91C231.26 228.24 230.48 227.99 229.51 227.88L229.52 227.87Z" fill="black"/>
<path d="M114.28 217.19C112.11 217.19 110.01 216.49 108.29 215.18C106.22 213.6 104.91 211.23 104.69 208.69C104.32 204.43 104.2 197.72 105.69 189.94C106.47 185.89 109.86 182.86 114.13 182.42C127.44 181.03 197.32 174.5 265.82 182.37C270.38 182.89 273.94 186.47 274.29 190.89C274.91 198.76 274.48 204.62 273.01 208.31C271.61 211.83 268.12 214.13 264.13 214.16C251.26 214.26 137.7 215.19 115.16 217.16C114.86 217.19 114.57 217.2 114.27 217.2L114.28 217.19ZM116.27 193.26C115.41 198.34 115.35 202.81 115.53 206.09C140.21 204.23 240.39 203.34 263.1 203.16C263.5 201.31 263.73 198.01 263.42 193.16C197.98 185.81 131.47 191.71 116.27 193.26Z" fill="black"/>
<mask id="mask0_873_1786" style="mask-type:luminance" maskUnits="userSpaceOnUse" x="109" y="183" width="161" height="29">
<path d="M114.56 187.59C129.21 186.06 197.64 179.74 265.35 187.53C267.219 187.75 268.66 189.14 268.79 190.86C269.12 194.95 269.42 202.27 267.85 206.07C267.279 207.44 265.82 208.33 264.21 208.34C248.9 208.46 136.69 209.39 114.49 211.38C112.29 211.58 110.36 210.09 110.18 208.08C109.84 204.24 109.68 197.91 111.11 190.54C111.41 188.98 112.82 187.78 114.55 187.6L114.56 187.59Z" fill="white"/>
</mask>
<g mask="url(#mask0_873_1786)">
<path d="M213.669 176.37H169.279L180.379 193.89L191.479 211.42L202.569 193.89L213.669 176.37Z" fill="#63D3B3"/>
<path d="M258.06 176.37H213.67L224.77 193.89L235.87 211.42L246.96 193.89L258.06 176.37Z" fill="#63D3B3"/>
<path d="M169.279 176.37H124.889L135.979 193.89L147.079 211.42L158.179 193.89L169.279 176.37Z" fill="#63D3B3"/>
<path d="M124.889 176.37L113.789 193.89L102.689 211.42H124.889H147.079L135.979 193.89L124.889 176.37Z" fill="#EF6600"/>
<path d="M169.28 176.37L158.18 193.89L147.08 211.42H169.28H191.48L180.38 193.89L169.28 176.37Z" fill="#EF6600"/>
<path d="M213.669 176.37L202.569 193.89L191.479 211.42H213.669H235.869L224.769 193.89L213.669 176.37Z" fill="#EF6600"/>
<path d="M269.159 193.89L258.059 176.37L246.959 193.89L235.869 211.42H258.059H280.189V211.31L269.159 193.89Z" fill="#EF6600"/>
<path d="M128.959 199.16C128.959 201.36 126.999 203.15 124.589 203.15C122.179 203.15 120.219 201.37 120.219 199.16C120.219 196.95 122.179 195.17 124.589 195.17C126.999 195.17 128.959 196.96 128.959 199.16Z" fill="#F8C054"/>
<path d="M173.65 199.16C173.65 201.36 171.69 203.15 169.28 203.15C166.87 203.15 164.91 201.37 164.91 199.16C164.91 196.95 166.87 195.17 169.28 195.17C171.69 195.17 173.65 196.96 173.65 199.16Z" fill="#F8C054"/>
<path d="M218.349 199.16C218.349 201.36 216.389 203.15 213.979 203.15C211.569 203.15 209.609 201.37 209.609 199.16C209.609 196.95 211.569 195.17 213.979 195.17C216.389 195.17 218.349 196.96 218.349 199.16Z" fill="#F8C054"/>
<path d="M263.039 199.16C263.039 201.36 261.079 203.15 258.669 203.15C256.259 203.15 254.299 201.37 254.299 199.16C254.299 196.95 256.259 195.17 258.669 195.17C261.079 195.17 263.039 196.96 263.039 199.16Z" fill="#F8C054"/>
<path d="M156.449 183.48H137.709L142.399 190.88L147.079 198.27L151.769 190.88L156.449 183.48Z" fill="#EF6600"/>
<path d="M200.839 183.48H182.109L186.789 190.88L191.469 198.27L196.159 190.88L200.839 183.48Z" fill="#EF6600"/>
<path d="M245.23 183.48H226.5L231.18 190.88L235.86 198.27L240.55 190.88L245.23 183.48Z" fill="#EF6600"/>
<path d="M270.889 183.48H280.189V176.37H258.059L269.159 193.89L280.189 211.31V198.17L275.569 190.88L270.889 183.48Z" fill="#63D3B3"/>
<path d="M102.689 176.37V183.48H112.059L107.369 190.88L102.689 198.27V211.42L113.789 193.89L124.889 176.37H102.689Z" fill="#63D3B3"/>
<path d="M112.059 183.48H102.689V198.27L107.369 190.88L112.059 183.48Z" fill="#F96C41"/>
</g>
<path d="M168.37 251.14C168.43 252.97 169.55 254.65 171.06 255.69C172.56 256.74 174.36 257.26 176.14 257.69C187.16 260.38 198.81 260.46 209.84 257.8C212.84 257.08 215.93 256.07 218.03 253.82C220.13 251.57 220.82 247.73 218.76 245.44C217.45 243.99 215.36 243.47 213.41 243.59C211.46 243.71 209.6 244.38 207.73 244.97C198.08 248 187.46 248.84 177.9 245.53C177.9 245.53 168.11 243.47 168.36 251.13L168.37 251.14Z" fill="white"/>
<path d="M165.87 251.14C166.02 253.92 167.49 256.2 169.72 257.8C171.72 259.24 174.26 259.84 176.63 260.38C181.68 261.52 186.87 262.16 192.05 262.25C197.31 262.34 202.58 261.85 207.74 260.83C212.32 259.93 217.45 258.7 220.45 254.81C223.41 250.98 223.31 244.8 218.71 242.26C213.91 239.61 208.7 242.24 203.91 243.48C202.7 243.79 201.48 244.07 200.25 244.3C199.69 244.41 199.13 244.51 198.57 244.6C198.27 244.65 197.97 244.69 197.67 244.74C197.6 244.75 197.12 244.81 197.44 244.77C197.76 244.73 197.08 244.81 197.1 244.81C194.7 245.1 192.28 245.22 189.86 245.15C188.62 245.11 187.38 245.03 186.15 244.89C185.99 244.87 185.33 244.78 185.81 244.85C185.51 244.81 185.22 244.76 184.92 244.72C184.29 244.62 183.66 244.5 183.04 244.37C181.83 244.11 180.63 243.8 179.44 243.42C179.09 243.31 178.76 243.17 178.4 243.1C173.76 242.17 167.58 243.17 166.17 248.46C165.94 249.32 165.85 250.25 165.88 251.14C165.91 252.45 167.01 253.7 168.38 253.64C169.71 253.58 170.91 252.54 170.88 251.14C170.88 250.8 170.89 250.47 170.91 250.13C170.93 249.75 170.79 250.77 170.91 250.15C170.94 249.99 170.98 249.83 171.03 249.67C171.07 249.54 171.12 249.41 171.16 249.28C171.24 249 170.9 249.82 171.04 249.57C171.07 249.52 171.09 249.47 171.11 249.42C171.18 249.29 171.24 249.17 171.32 249.05C171.35 249.01 171.38 248.96 171.41 248.92C171.62 248.58 171.3 249.08 171.23 249.14C171.4 248.99 171.55 248.79 171.71 248.63C172.09 248.25 171.34 248.87 171.59 248.71C171.7 248.64 171.81 248.56 171.92 248.49C172.12 248.37 172.33 248.28 172.53 248.17C172.8 248.02 171.87 248.41 172.39 248.23C172.52 248.19 172.64 248.14 172.76 248.1C172.98 248.03 173.2 247.97 173.43 247.93C173.56 247.9 173.69 247.88 173.82 247.85C173.87 247.85 173.92 247.84 173.96 247.83C174.36 247.75 173.69 247.87 173.63 247.87C174.1 247.85 174.56 247.78 175.03 247.78C175.45 247.78 175.86 247.79 176.27 247.82C176.43 247.83 176.6 247.85 176.76 247.86C176.84 247.86 176.93 247.88 177.01 247.89C177.44 247.94 176.31 247.79 176.62 247.84C177.36 247.96 178.02 248.21 178.75 248.43C181.06 249.12 183.42 249.55 185.8 249.84C190.46 250.41 195.15 250.16 199.78 249.43C201.99 249.08 204.18 248.6 206.34 248C208.57 247.38 210.75 246.52 213.04 246.13C213.43 246.06 212.67 246.13 213.07 246.13C213.19 246.13 213.3 246.11 213.42 246.1C213.67 246.08 213.93 246.08 214.18 246.09C214.4 246.09 214.62 246.12 214.85 246.13C215.15 246.15 214.66 246.12 214.66 246.1C214.66 246.1 215.08 246.18 215.13 246.19C215.35 246.24 215.56 246.3 215.77 246.37C215.87 246.4 216.03 246.44 216.12 246.5C216.06 246.46 215.64 246.25 216.03 246.48C216.22 246.59 216.4 246.71 216.59 246.81C216.86 246.95 216.43 246.7 216.46 246.69C216.51 246.69 216.76 246.95 216.81 247C216.9 247.09 216.97 247.18 217.06 247.27C217.25 247.45 216.94 247.13 216.94 247.1C216.94 247.2 217.23 247.58 217.29 247.68C217.51 248.06 217.14 247.2 217.33 247.78C217.4 247.99 217.44 248.21 217.5 248.43C217.59 248.76 217.46 247.92 217.48 248.27C217.48 248.35 217.5 248.44 217.5 248.52C217.51 248.75 217.51 248.98 217.5 249.21C217.5 249.3 217.48 249.38 217.48 249.47C217.48 249.82 217.58 248.98 217.5 249.32C217.45 249.55 217.41 249.78 217.35 250.01C217.3 250.21 217.23 250.4 217.17 250.6C217.03 251.04 217.21 250.55 217.22 250.5C217.2 250.59 217.11 250.74 217.07 250.82C216.99 250.98 216.91 251.14 216.82 251.29C216.76 251.39 216.7 251.49 216.63 251.59C216.59 251.66 216.31 252.09 216.52 251.77C216.7 251.49 216.35 251.96 216.27 252.05C216.11 252.22 215.94 252.38 215.77 252.54C215.6 252.7 215.42 252.84 215.24 252.99C215.69 252.62 214.97 253.16 214.86 253.23C214.47 253.48 214.06 253.71 213.65 253.92C213.44 254.02 213.23 254.12 213.01 254.22C213.54 253.96 212.71 254.34 212.58 254.38C211.63 254.73 210.65 255.01 209.67 255.26C207.41 255.83 205.11 256.27 202.8 256.6C202.68 256.62 202.57 256.63 202.45 256.65C202.9 256.58 202.5 256.65 202.41 256.65C202.14 256.68 201.86 256.72 201.59 256.75C200.96 256.82 200.34 256.89 199.71 256.94C198.53 257.05 197.35 257.12 196.17 257.17C193.85 257.26 191.52 257.24 189.2 257.11C188.02 257.04 186.84 256.95 185.67 256.82C185.08 256.76 184.5 256.69 183.91 256.61C183.61 256.57 183.94 256.61 183.99 256.62C183.83 256.6 183.68 256.58 183.52 256.55C183.21 256.5 182.9 256.46 182.59 256.41C180.3 256.05 178.01 255.59 175.77 254.98C175.26 254.84 174.75 254.69 174.25 254.51C174.09 254.45 173.51 254.21 173.96 254.41C173.7 254.3 173.45 254.18 173.2 254.04C172.95 253.9 172.71 253.76 172.48 253.61C172.4 253.55 172.31 253.49 172.23 253.44C171.94 253.25 172.53 253.73 172.29 253.48C172.13 253.32 171.96 253.18 171.8 253.02C171.71 252.93 171.63 252.83 171.54 252.74C171.28 252.46 171.51 252.79 171.58 252.8C171.49 252.79 171.22 252.24 171.18 252.16C171.14 252.08 171.1 251.99 171.05 251.91C170.87 251.61 171.18 252.32 171.08 251.99C171.02 251.78 170.96 251.57 170.89 251.36C170.85 251.24 170.7 250.91 170.89 251.47C170.86 251.37 170.87 251.19 170.86 251.09C170.79 249.79 169.76 248.53 168.36 248.59C167.07 248.65 165.79 249.69 165.86 251.09L165.87 251.14Z" fill="black"/>
<path d="M179.901 248.25C179.881 249.61 179.781 250.96 179.601 252.31L179.691 251.65C179.571 252.49 179.431 253.33 179.251 254.16C179.111 254.82 179.151 255.49 179.501 256.09C179.801 256.61 180.401 257.1 180.991 257.24C181.631 257.39 182.351 257.35 182.921 256.99C183.451 256.65 183.931 256.13 184.071 255.5C184.571 253.13 184.861 250.7 184.901 248.27C184.921 246.96 183.731 245.71 182.401 245.77C181.071 245.83 179.921 246.87 179.901 248.27V248.25Z" fill="black"/>
<path d="M193.03 250.23C193.14 250.65 193.22 251.08 193.28 251.51L193.19 250.85C193.5 253.29 193.25 255.75 193.84 258.16C194.15 259.43 195.65 260.31 196.92 259.91C198.24 259.48 199 258.2 198.67 256.83C198.58 256.45 198.51 256.08 198.45 255.69L198.54 256.35C198.21 253.87 198.49 251.35 197.86 248.9C197.53 247.63 196.06 246.74 194.78 247.15C193.5 247.56 192.68 248.87 193.03 250.23Z" fill="black"/>
<path d="M204.651 248.03C205.571 250.6 206.421 253.19 207.191 255.81C207.561 257.06 208.971 257.98 210.271 257.56C211.571 257.14 212.411 255.83 212.021 254.48C211.251 251.86 210.401 249.27 209.481 246.7C209.261 246.08 208.921 245.55 208.331 245.21C207.791 244.9 207.001 244.76 206.401 244.96C205.191 245.35 204.181 246.72 204.651 248.04V248.03Z" fill="black"/>
<path d="M259.082 313.22C266.372 316.81 272.732 322.28 277.382 328.95C280.422 333.3 282.712 338.13 284.682 343.06C285.362 344.76 286.022 346.52 287.202 347.92C288.632 349.63 290.712 350.71 292.052 352.49C293.392 354.27 293.532 357.35 291.512 358.28C290.052 358.95 288.372 358.13 286.982 357.32C287.052 359.67 285.542 361.99 283.362 362.87C281.182 363.75 278.482 363.14 276.892 361.41C277.412 363.29 275.952 365.25 274.142 365.98C272.332 366.71 270.312 366.54 268.382 366.35C267.852 366.3 267.302 366.24 266.862 365.95C266.272 365.56 266.002 364.84 265.762 364.16C263.632 358.01 261.512 351.86 259.382 345.71" fill="#D6AF43"/>
<path d="M257.561 315.81C259.401 316.72 261.181 317.74 262.891 318.87C263.721 319.42 264.521 319.99 265.311 320.59C265.911 321.04 265.011 320.35 265.431 320.68C265.621 320.83 265.801 320.98 265.991 321.13C266.411 321.47 266.831 321.83 267.251 322.18C268.771 323.5 270.211 324.91 271.561 326.41C272.251 327.17 272.911 327.96 273.541 328.76C273.601 328.84 273.671 328.92 273.731 329C273.981 329.32 273.391 328.55 273.641 328.88C273.781 329.07 273.931 329.26 274.071 329.45C274.381 329.87 274.681 330.3 274.981 330.73C276.251 332.57 277.381 334.5 278.421 336.48C278.951 337.49 279.451 338.51 279.931 339.54C280.151 340.02 280.371 340.51 280.591 340.99C280.711 341.27 280.831 341.55 280.951 341.82C281.001 341.92 281.041 342.03 281.081 342.13C281.161 342.31 281.431 342.69 281.081 342.15C281.351 342.57 281.501 343.16 281.681 343.62C281.881 344.12 282.071 344.62 282.281 345.11C282.761 346.26 283.231 347.42 283.901 348.47C284.561 349.49 285.351 350.43 286.261 351.23C287.001 351.88 287.781 352.47 288.521 353.12C288.951 353.5 289.331 353.91 289.721 354.34C289.951 354.59 289.531 354.09 289.531 354.09C289.551 354.17 289.691 354.33 289.731 354.41C289.781 354.5 289.831 354.59 289.881 354.68C290.031 354.96 289.881 355.07 289.791 354.45C289.821 354.64 289.931 354.85 289.981 355.04C290.001 355.11 290.011 355.19 290.031 355.27C290.161 355.76 289.981 355.17 290.001 355C289.981 355.19 290.031 355.41 290.021 355.6C290.021 355.6 290.021 355.87 290.001 355.89C290.031 355.86 290.181 355.05 290.031 355.59C290.011 355.66 289.991 355.73 289.981 355.8C289.891 356.26 290.291 355.27 290.111 355.54C290.031 355.66 289.691 356.21 290.021 355.75C290.311 355.35 290.131 355.61 290.021 355.7C289.801 355.89 290.701 355.3 290.241 355.53C290.141 355.58 289.931 355.66 290.311 355.53C290.901 355.31 290.121 355.58 290.121 355.56C290.111 355.5 290.761 355.56 290.421 355.51C289.781 355.42 290.461 355.65 290.511 355.57C290.471 355.64 289.811 355.39 289.701 355.36C289.171 355.2 289.751 355.41 289.821 355.42C289.661 355.39 289.481 355.26 289.331 355.19C289.041 355.04 288.761 354.89 288.481 354.73C286.531 353.61 283.941 355.02 283.971 357.32C283.971 357.44 283.971 357.56 283.971 357.68C283.971 357.8 283.911 358.35 283.971 357.82C284.031 357.29 283.901 358.06 283.861 358.21C283.821 358.34 283.731 358.51 283.721 358.64C283.721 358.53 284.001 358.05 283.811 358.42C283.701 358.63 283.591 358.85 283.461 359.05C283.401 359.15 283.071 359.57 283.381 359.19C283.671 358.83 283.391 359.16 283.331 359.24C283.171 359.42 283.001 359.59 282.821 359.75C282.451 360.08 282.731 359.74 282.931 359.67C282.831 359.7 282.721 359.81 282.631 359.87C282.531 359.93 282.421 359.99 282.321 360.05C282.221 360.1 281.731 360.34 282.191 360.12C282.611 359.92 282.231 360.09 282.121 360.12C282.011 360.16 281.891 360.19 281.771 360.22C281.651 360.25 281.531 360.27 281.421 360.29C281.051 360.37 282.131 360.25 281.591 360.26C281.351 360.26 281.111 360.26 280.871 360.26C280.461 360.26 281.011 360.28 281.131 360.31C280.991 360.27 280.831 360.26 280.691 360.23C280.451 360.18 280.221 360.11 280.001 360.03C279.521 359.86 279.981 359.95 280.131 360.09C280.051 360.02 279.901 359.98 279.811 359.93C279.601 359.81 279.411 359.65 279.201 359.54C279.771 359.83 279.521 359.8 279.321 359.61C279.211 359.51 279.101 359.4 279.001 359.29C278.121 358.36 276.451 358.12 275.361 358.82C274.211 359.56 273.661 360.87 273.981 362.21C273.981 361.54 274.111 362.73 273.981 362.21C273.981 362.29 273.951 362.4 273.971 362.47C273.951 362.38 274.141 361.74 273.991 362.19C273.961 362.27 273.931 362.36 273.911 362.44C273.851 362.73 274.031 362.15 274.051 362.14C273.951 362.25 273.741 362.61 273.681 362.76C273.831 362.34 274.021 362.37 273.811 362.58C273.751 362.65 273.681 362.72 273.621 362.78C273.561 362.84 273.481 362.91 273.421 362.97C273.061 363.32 273.521 362.87 273.591 362.85C273.411 362.9 273.201 363.1 273.041 363.19C272.971 363.23 272.861 363.26 272.791 363.31C272.941 363.19 273.321 363.12 272.921 363.23C272.671 363.3 272.421 363.37 272.171 363.43C272.061 363.45 271.581 363.52 272.021 363.47C272.461 363.42 272.051 363.47 271.981 363.47C271.421 363.5 270.861 363.52 270.291 363.49C269.801 363.47 269.311 363.43 268.821 363.38C268.671 363.37 268.521 363.35 268.371 363.34C267.931 363.29 268.281 363.34 268.371 363.34C268.931 363.41 268.371 363.34 268.371 363.33C268.121 363.25 268.111 363.26 268.351 363.36C268.551 363.46 268.581 363.47 268.441 363.39C268.141 363.22 268.701 363.6 268.691 363.59C268.321 363.29 268.841 363.69 268.841 363.78C268.841 363.74 268.741 363.58 268.711 363.55C268.541 363.3 268.821 363.85 268.831 363.86C268.691 363.33 268.461 362.82 268.281 362.3C267.901 361.21 267.531 360.12 267.151 359.03C266.381 356.81 265.621 354.59 264.851 352.37C263.991 349.88 263.131 347.39 262.271 344.9C261.761 343.42 260.191 342.28 258.581 342.8C257.111 343.27 255.941 344.9 256.481 346.49C258.261 351.63 260.031 356.77 261.811 361.9C262.771 364.67 263.451 368.33 266.781 369.11C268.061 369.41 269.531 369.48 270.851 369.49C272.511 369.5 274.121 369.22 275.651 368.55C278.661 367.21 280.561 363.84 279.771 360.59C278.101 361.56 276.431 362.54 274.761 363.51C277.201 366.09 281.231 366.97 284.501 365.59C287.791 364.2 290.011 360.89 289.971 357.3C288.471 358.16 286.961 359.03 285.461 359.89C286.601 360.54 287.821 361.16 289.121 361.37C290.961 361.67 292.661 361.28 294.111 360.08C295.991 358.51 296.341 355.71 295.771 353.45C295.181 351.11 293.501 349.44 291.691 347.97C291.271 347.63 290.851 347.29 290.451 346.93C290.271 346.77 290.101 346.61 289.931 346.45C289.821 346.34 289.321 345.94 289.311 345.78C289.311 345.8 289.721 346.37 289.391 345.89C289.311 345.77 289.231 345.66 289.151 345.54C289.001 345.31 288.851 345.06 288.721 344.82C288.471 344.36 288.111 343.81 287.981 343.3C288.001 343.37 288.241 343.93 288.041 343.43C287.991 343.3 287.931 343.17 287.881 343.04C287.771 342.78 287.671 342.51 287.571 342.25C287.341 341.69 287.121 341.12 286.881 340.56C286.341 339.27 285.791 337.99 285.201 336.72C284.181 334.52 283.071 332.36 281.811 330.28C279.401 326.29 276.461 322.58 273.081 319.37C269.381 315.86 265.151 312.87 260.581 310.61C259.181 309.91 257.271 310.19 256.481 311.69C255.761 313.05 256.051 315.05 257.561 315.79V315.81Z" fill="black"/>
<path d="M199.88 388.21C199.23 388.21 198.58 388.06 198.01 387.77L186.31 381.97C186.31 381.97 186.25 381.95 186.21 381.95C186.18 381.95 186.14 381.95 186.09 381.98L178.71 386.75C178.03 387.19 177.24 387.42 176.42 387.42C175.6 387.42 174.79 387.18 174.1 386.72L166.88 381.95C166.88 381.95 166.79 381.92 166.76 381.92C166.73 381.92 166.69 381.92 166.64 381.95L160.55 385.93C159.86 386.38 159.07 386.62 158.24 386.62C157.13 386.62 156.09 386.2 155.3 385.43L151.48 381.71C151.48 381.71 151.38 381.65 151.33 381.65C151.28 381.65 151.24 381.65 151.19 381.7L147.1 385.39C146.33 386.09 145.33 386.47 144.28 386.47C143.23 386.47 142.27 386.1 141.5 385.42L136.7 381.19C136.7 381.19 136.6 381.14 136.56 381.14C136.52 381.14 136.47 381.14 136.43 381.18L132.61 384.28C131.86 384.88 130.92 385.22 129.96 385.22C129.17 385.22 128.4 385 127.73 384.59L122.34 381.24C122.34 381.24 122.25 381.21 122.23 381.21C122.21 381.21 122.16 381.21 122.12 381.24L117 384.28C116.34 384.67 115.6 384.88 114.85 384.88C113.57 384.88 112.33 384.27 111.53 383.26C110.75 382.26 110.48 380.98 110.78 379.75L115.98 358.55C116.44 356.68 118.11 355.38 120.04 355.38C120.17 355.38 120.3 355.38 120.43 355.4C129.29 356.22 160.88 358.9 195.67 358.9C221.27 358.9 242.72 357.44 259.43 354.57C259.67 354.53 259.92 354.51 260.15 354.51C262.24 354.51 264.02 356.05 264.3 358.1L267.23 379.53C267.39 380.73 267.05 381.89 266.26 382.79C265.46 383.71 264.3 384.24 263.08 384.24C262.31 384.24 261.55 384.02 260.89 383.62L253.28 378.97C253.28 378.97 253.21 378.94 253.17 378.94C253.14 378.94 253.06 378.94 253.01 379.02L248.71 384.91C247.92 385.99 246.66 386.63 245.32 386.63C244.22 386.63 243.18 386.21 242.39 385.44L237.23 380.44C237.23 380.44 237.12 380.38 237.08 380.38C237.03 380.38 236.99 380.39 236.95 380.42L227.79 387.32C227.07 387.87 226.17 388.17 225.26 388.17C224.56 388.17 223.86 387.99 223.24 387.66L211.28 381.15C211.28 381.15 211.21 381.12 211.18 381.12C211.15 381.12 211.1 381.12 211.06 381.16L202.36 387.43C201.64 387.95 200.79 388.22 199.9 388.22L199.88 388.21Z" fill="#7F4F08"/>
<path d="M260.16 356.51C261.24 356.51 262.18 357.28 262.33 358.37L265.26 379.8C265.45 381.17 264.33 382.24 263.09 382.24C262.71 382.24 262.31 382.14 261.94 381.91L254.33 377.26C253.97 377.04 253.57 376.94 253.18 376.94C252.5 376.94 251.83 377.25 251.4 377.84L247.1 383.73C246.67 384.32 246 384.63 245.32 384.63C244.77 384.63 244.21 384.43 243.78 384.01L238.62 379.01C238.2 378.6 237.64 378.39 237.08 378.39C236.61 378.39 236.14 378.54 235.75 378.83L226.59 385.73C226.2 386.02 225.73 386.17 225.26 386.17C224.9 386.17 224.53 386.08 224.2 385.9L212.24 379.39C211.91 379.21 211.54 379.12 211.18 379.12C210.72 379.12 210.27 379.26 209.89 379.54L201.19 385.81C200.81 386.09 200.35 386.23 199.9 386.23C199.56 386.23 199.23 386.15 198.91 386L187.21 380.2C186.9 380.05 186.56 379.97 186.22 379.97C185.8 379.97 185.38 380.09 185.02 380.32L177.64 385.09C177.27 385.33 176.86 385.44 176.44 385.44C176.02 385.44 175.59 385.32 175.22 385.07L168 380.3C167.63 380.06 167.21 379.93 166.78 379.93C166.35 379.93 165.94 380.05 165.57 380.29L159.48 384.27C159.11 384.51 158.69 384.63 158.27 384.63C157.71 384.63 157.15 384.42 156.73 384.01L152.92 380.29C152.49 379.88 151.94 379.67 151.38 379.67C150.82 379.67 150.32 379.86 149.9 380.24L145.81 383.93C145.39 384.31 144.86 384.5 144.33 384.5C143.8 384.5 143.29 384.32 142.87 383.95L138.07 379.72C137.66 379.35 137.13 379.17 136.61 379.17C136.12 379.17 135.62 379.33 135.22 379.66L131.4 382.76C131 383.09 130.5 383.25 130.01 383.25C129.61 383.25 129.2 383.14 128.84 382.92L123.45 379.57C123.09 379.35 122.69 379.24 122.28 379.24C121.87 379.24 121.5 379.34 121.15 379.55L116.03 382.59C115.66 382.81 115.28 382.91 114.9 382.91C113.58 382.91 112.42 381.7 112.77 380.25L117.97 359.05C118.21 358.08 119.09 357.4 120.09 357.4C120.16 357.4 120.23 357.4 120.3 357.4C128.27 358.14 160.48 360.91 195.72 360.91C217.62 360.91 240.68 359.84 259.82 356.55C259.95 356.53 260.08 356.52 260.2 356.52M260.2 352.52C259.85 352.52 259.49 352.55 259.14 352.61C242.54 355.46 221.2 356.91 195.72 356.91C161.01 356.91 129.5 354.24 120.67 353.42C120.48 353.4 120.28 353.39 120.09 353.39C117.23 353.39 114.76 355.32 114.09 358.08L108.89 379.28C108.44 381.12 108.85 383.02 110.01 384.5C111.18 385.99 113.01 386.89 114.9 386.89C116.01 386.89 117.11 386.59 118.07 386.01L122.26 383.52L126.73 386.3C127.72 386.91 128.85 387.24 130.01 387.24C131.43 387.24 132.82 386.75 133.92 385.85L136.57 383.7L140.24 386.93C141.37 387.93 142.83 388.48 144.34 388.48C145.85 388.48 147.36 387.91 148.5 386.88L151.34 384.32L153.95 386.86C155.12 387.99 156.65 388.62 158.28 388.62C159.49 388.62 160.67 388.27 161.68 387.61L166.79 384.27L173.03 388.39C174.05 389.06 175.23 389.42 176.45 389.42C177.67 389.42 178.82 389.08 179.83 388.42L186.35 384.2L197.14 389.55C197.99 389.97 198.95 390.2 199.9 390.2C201.21 390.2 202.47 389.79 203.53 389.03L211.32 383.42L222.3 389.4C223.21 389.89 224.24 390.16 225.27 390.16C226.61 390.16 227.94 389.72 229.01 388.91L236.95 382.93L241.01 386.87C242.17 388 243.71 388.62 245.33 388.62C247.31 388.62 249.18 387.67 250.34 386.08L253.66 381.53L259.87 385.32C260.85 385.92 261.97 386.24 263.11 386.24C264.91 386.24 266.62 385.46 267.8 384.11C268.96 382.78 269.49 381.02 269.25 379.26L266.32 357.83C265.91 354.8 263.27 352.51 260.19 352.51L260.2 352.52Z" fill="#0F0F0F"/>
<path d="M112.67 369.58C139.63 369.85 166.43 363.85 191.6 354.19C216.77 344.53 240.42 331.24 263.09 316.63C264.24 315.89 265.43 315.09 266.04 313.87C266.65 312.65 266.36 310.88 265.11 310.33C264.4 310.02 263.59 310.16 262.83 310.31C215.82 319.77 171.65 341.9 123.99 347.19L117.27 347.89L112.68 369.57L112.67 369.58Z" fill="#3F2E05"/>
<path d="M112.67 371.08C124.02 371.18 135.37 370.19 146.56 368.29C157.75 366.39 168.75 363.6 179.52 360.07C190.18 356.58 200.6 352.39 210.78 347.68C220.91 342.99 230.8 337.78 240.48 332.22C245.28 329.46 250.03 326.61 254.74 323.69C257.11 322.22 259.48 320.73 261.83 319.23C263.93 317.89 266.63 316.58 267.57 314.1C268.4 311.9 267.32 309.1 264.83 308.71C263.45 308.5 262 308.95 260.65 309.23C259.3 309.51 258 309.79 256.68 310.09C251.31 311.29 245.97 312.64 240.66 314.1C230.02 317.02 219.5 320.36 209 323.76C198.55 327.15 188.12 330.61 177.61 333.79C167.1 336.97 156.5 339.88 145.75 342.14C137.22 343.94 128.62 345.21 119.95 346.12L117.26 346.4C116.63 346.47 115.96 346.82 115.81 347.5C114.47 353.82 113.13 360.15 111.79 366.47C111.6 367.37 111.41 368.28 111.22 369.18C110.82 371.06 113.71 371.87 114.11 369.98C115.45 363.66 116.79 357.33 118.13 351.01C118.32 350.11 118.51 349.2 118.7 348.3L117.25 349.4C124.03 348.69 130.78 347.93 137.5 346.77C148.08 344.94 158.53 342.39 168.86 339.47C179.24 336.54 189.52 333.24 199.77 329.91C210.05 326.57 220.31 323.18 230.66 320.09C240.99 317 251.41 314.2 261.97 312.02C262.56 311.9 263.17 311.73 263.78 311.67C264.1 311.64 264.49 311.67 264.6 311.78C265.04 312.24 264.81 313.11 264.42 313.63C263.77 314.51 262.74 315.07 261.84 315.65C260.73 316.37 259.61 317.08 258.49 317.79C253.85 320.73 249.18 323.61 244.45 326.41C235.05 331.98 225.46 337.25 215.64 342.05C205.83 346.84 195.79 351.17 185.52 354.85C175.08 358.59 164.39 361.68 153.52 363.93C142.72 366.18 131.74 367.58 120.71 367.97C118.03 368.07 115.34 368.1 112.66 368.07C110.73 368.05 110.73 371.05 112.66 371.07L112.67 371.08Z" fill="black"/>
<path d="M121.191 313.22C113.901 316.81 107.541 322.28 102.891 328.95C99.8511 333.3 97.5611 338.13 95.5911 343.06C94.9111 344.76 94.2511 346.52 93.0711 347.92C91.6411 349.63 89.5611 350.71 88.2211 352.49C86.8811 354.27 86.741 357.35 88.761 358.28C90.221 358.95 91.9011 358.13 93.2911 357.32C93.2211 359.67 94.731 361.99 96.911 362.87C99.0911 363.75 101.791 363.14 103.381 361.41C102.861 363.29 104.321 365.25 106.131 365.98C107.931 366.71 109.961 366.54 111.891 366.35C112.421 366.3 112.971 366.24 113.411 365.95C114.001 365.56 114.271 364.84 114.511 364.16C116.641 358.01 118.761 351.86 120.891 345.71" fill="#D6AF43"/>
<path d="M119.681 310.63C111.451 314.71 104.421 321.07 99.4108 328.76C96.6608 332.99 94.5608 337.59 92.6908 342.27C92.5808 342.53 92.4808 342.8 92.3808 343.06C92.3308 343.19 92.2708 343.32 92.2208 343.45C92.1908 343.52 92.0508 343.86 92.2108 343.48C92.3708 343.08 92.1908 343.51 92.1508 343.61C92.0908 343.74 92.0308 343.87 91.9708 344C91.8308 344.29 91.6908 344.57 91.5408 344.85C91.4008 345.1 91.2608 345.34 91.1108 345.57C91.0308 345.69 90.9508 345.8 90.8708 345.92C90.8308 345.98 90.6408 346.29 90.8508 345.95C91.0608 345.61 90.8308 345.95 90.7508 346.04C90.6608 346.14 90.5708 346.24 90.4708 346.33C90.2608 346.55 90.0408 346.76 89.8108 346.96C88.1608 348.44 86.1608 349.7 85.1608 351.76C83.9108 354.32 83.8008 357.48 85.7608 359.73C86.8008 360.92 88.4708 361.59 90.0408 361.54C91.7608 361.48 93.3308 360.77 94.8008 359.93C93.3008 359.07 91.7908 358.2 90.2908 357.34C90.2508 360.93 92.4708 364.25 95.7608 365.63C99.0408 367.01 103.061 366.13 105.501 363.55C103.831 362.58 102.161 361.6 100.491 360.63C99.7508 363.68 101.331 366.68 103.961 368.26C106.401 369.72 109.371 369.64 112.091 369.35C113.031 369.25 113.911 369.13 114.751 368.66C115.531 368.23 116.191 367.54 116.641 366.77C117.331 365.59 117.681 364.16 118.131 362.88C119.021 360.31 119.911 357.74 120.801 355.17C121.801 352.29 122.791 349.41 123.791 346.53C124.301 345.05 123.201 343.18 121.691 342.84C120.021 342.46 118.551 343.35 118.001 344.94C116.481 349.34 114.961 353.74 113.441 358.14C113.061 359.23 112.691 360.32 112.311 361.41C112.121 361.95 111.931 362.5 111.741 363.04C111.661 363.27 111.581 363.5 111.501 363.73C111.331 364.2 111.711 363.13 111.471 363.75C111.341 364.09 111.911 363.34 111.631 363.57C111.381 363.77 111.931 363.37 111.911 363.39C111.551 363.62 111.931 363.25 112.091 363.33C112.061 363.32 111.841 363.39 111.801 363.4C111.501 363.5 112.081 363.36 112.101 363.36C111.981 363.35 111.811 363.39 111.681 363.4C111.381 363.43 111.081 363.46 110.781 363.48C110.291 363.52 109.801 363.54 109.311 363.54C109.051 363.54 108.791 363.54 108.521 363.52C108.411 363.52 108.301 363.5 108.191 363.49C107.811 363.47 108.781 363.62 108.221 363.49C107.931 363.42 107.651 363.34 107.361 363.27C107.271 363.25 106.941 363.09 107.321 363.27C107.761 363.48 107.211 363.2 107.161 363.18C107.081 363.14 107.001 363.09 106.921 363.04C106.651 362.87 106.671 362.69 107.001 363.13C106.881 362.97 106.671 362.84 106.531 362.68C106.451 362.6 106.181 362.27 106.471 362.63C106.761 362.99 106.501 362.65 106.441 362.56C106.381 362.46 106.331 362.34 106.261 362.24C106.081 361.95 106.421 362.79 106.361 362.46C106.341 362.35 106.301 362.23 106.261 362.12C106.141 361.82 106.271 362.72 106.291 362.4C106.291 362.32 106.291 362.22 106.291 362.14C106.261 361.54 106.141 362.83 106.291 362.23C106.591 360.98 106.101 359.47 104.911 358.84C103.721 358.21 102.211 358.32 101.271 359.31C101.191 359.4 101.101 359.48 101.021 359.57C100.941 359.65 100.521 359.98 100.911 359.69C101.281 359.41 100.931 359.67 100.851 359.72C100.751 359.79 100.651 359.85 100.541 359.91C100.431 359.97 100.231 360.04 100.141 360.12C100.221 360.04 100.751 359.89 100.361 360.03C100.131 360.11 99.9008 360.18 99.6708 360.24C99.5208 360.28 99.3708 360.3 99.2308 360.33C98.8608 360.41 99.8608 360.3 99.4908 360.29C99.2508 360.29 99.0108 360.31 98.7708 360.3C98.2708 360.28 98.7208 360.28 98.9408 360.35C98.8308 360.32 98.7008 360.31 98.5908 360.28C98.4808 360.25 98.3608 360.22 98.2408 360.19C98.1208 360.16 97.6408 359.95 98.0908 360.16C98.5408 360.37 97.8408 360.03 97.7208 359.95C97.6208 359.89 97.5208 359.82 97.4208 359.76C97.1108 359.58 97.9108 360.2 97.5308 359.85C97.3508 359.69 97.1808 359.53 97.0108 359.35C96.9308 359.26 96.8608 359.16 96.7708 359.08C97.2608 359.54 97.0108 359.39 96.8708 359.18C96.7408 358.98 96.6208 358.77 96.5108 358.55C96.2808 358.1 96.5508 358.48 96.5608 358.69C96.5608 358.58 96.4808 358.45 96.4408 358.35C96.3708 358.12 96.3508 357.87 96.2708 357.65C96.4908 358.28 96.3208 358.12 96.3108 357.82C96.3108 357.67 96.3108 357.52 96.3108 357.37C96.3408 355.07 93.7508 353.66 91.8008 354.78C91.5808 354.9 91.3708 355.03 91.1508 355.14C91.0408 355.2 90.5408 355.36 90.4708 355.47C90.6008 355.24 90.9608 355.31 90.5908 355.41C90.4508 355.45 90.3208 355.5 90.1908 355.53C90.0908 355.56 89.9908 355.57 89.8908 355.6C89.5308 355.7 90.5308 355.58 89.9808 355.57C89.4308 355.56 90.6508 355.68 89.8908 355.54C89.5708 355.48 90.1708 355.63 90.1908 355.67C90.1908 355.67 89.9808 355.53 89.9508 355.52C89.9808 355.52 90.5308 356.03 90.2408 355.72C90.1608 355.63 90.0208 355.44 90.2908 355.82C90.6808 356.36 90.1408 355.63 90.1708 355.54C90.2108 355.43 90.3408 356.26 90.3508 355.93C90.3508 355.87 90.3108 355.78 90.2908 355.73C90.2908 355.73 90.2108 355.47 90.2308 355.45C90.2608 355.41 90.2808 356.31 90.2908 355.81C90.2908 355.64 90.2908 355.46 90.2908 355.29C90.2908 354.66 90.1308 355.96 90.2908 355.33C90.3308 355.15 90.3708 354.98 90.4308 354.81C90.4608 354.73 90.5208 354.6 90.5308 354.52C90.5308 354.51 90.2308 355.13 90.3808 354.88C90.4708 354.73 90.5408 354.56 90.6308 354.41C90.6508 354.37 90.7808 354.22 90.7908 354.16C90.7408 354.38 90.3708 354.67 90.7308 354.25C92.0308 352.73 93.8208 351.73 95.1308 350.23C96.7808 348.34 97.6708 346.09 98.5908 343.78C98.7908 343.28 98.9508 342.66 99.2408 342.2C99.2408 342.22 99.0208 342.71 99.1608 342.39C99.2008 342.29 99.2508 342.18 99.2908 342.08C99.4208 341.77 99.5608 341.45 99.7008 341.14C100.141 340.13 100.611 339.14 101.091 338.15C102.091 336.11 103.191 334.11 104.411 332.2C104.981 331.31 105.581 330.43 106.201 329.58C106.341 329.39 106.491 329.2 106.631 329C106.941 328.58 106.581 329.06 106.531 329.12C106.611 329.01 106.701 328.9 106.781 328.8C107.101 328.4 107.421 328 107.751 327.61C109.051 326.07 110.451 324.61 111.931 323.24C112.781 322.45 113.661 321.69 114.571 320.97C114.731 320.84 115.441 320.37 114.771 320.81C115.001 320.66 115.211 320.48 115.431 320.32C115.901 319.97 116.371 319.64 116.851 319.31C118.741 318.02 120.721 316.86 122.771 315.84C124.181 315.14 124.681 313.03 123.851 311.74C122.921 310.3 121.251 309.92 119.751 310.66L119.681 310.63Z" fill="black"/>
</g>
<defs>
<clipPath id="clip0_873_1786">
<rect width="380.54" height="573" fill="white" transform="translate(0.490234)"/>
</clipPath>
</defs>
</svg>
