<svg width="381" height="573" viewBox="0 0 381 573" fill="none" xmlns="http://www.w3.org/2000/svg">
<g clip-path="url(#clip0_873_1352)">
<path d="M358.469 0H22.4692C10.1698 0 0.199219 9.97062 0.199219 22.27V550.73C0.199219 563.029 10.1698 573 22.4692 573H358.469C370.769 573 380.739 563.029 380.739 550.73V22.27C380.739 9.97062 370.769 0 358.469 0Z" fill="white"/>
<path d="M319.43 95.66C338.207 95.66 353.43 80.4377 353.43 61.66C353.43 42.8823 338.207 27.66 319.43 27.66C300.652 27.66 285.43 42.8823 285.43 61.66C285.43 80.4377 300.652 95.66 319.43 95.66Z" fill="#FFBA35"/>
<path d="M311.177 65.4169C310.258 64.5811 309.561 63.4667 309.087 62.0737C308.614 60.6807 308.377 58.828 308.377 56.5156C308.377 52.7267 309.31 49.871 311.177 47.9487C313.071 46.0263 316.164 45.0652 320.454 45.0652C322.321 45.0652 324.062 45.2881 325.678 45.7338C327.294 46.1517 328.687 46.7925 329.857 47.6562C330.971 48.6034 331.863 49.8014 332.532 51.2501C333.2 52.6988 333.535 54.454 333.535 56.5156V68.7601C333.507 70.5431 333.158 72.1172 332.49 73.4824C331.849 74.8475 330.971 76.0037 329.857 76.9509C328.687 77.926 327.308 78.6504 325.72 79.124C324.132 79.5976 322.391 79.8345 320.496 79.8345H310.675C310.675 78.9151 310.731 78.0932 310.843 77.3688C310.982 76.6445 311.233 76.0176 311.595 75.4883C311.929 75.0147 312.403 74.6525 313.016 74.4018C313.656 74.1232 314.492 73.9839 315.523 73.9839H319.66C320.663 73.8446 321.513 73.5938 322.209 73.2316C322.906 72.8416 323.463 72.368 323.881 71.8108C324.299 71.2257 324.605 70.571 324.8 69.8466C324.995 69.0944 325.121 68.2865 325.177 67.4228C324.48 67.6178 323.658 67.7711 322.711 67.8825C321.764 67.994 320.886 68.0497 320.078 68.0497C318.156 68.0497 316.415 67.8407 314.854 67.4228C313.322 66.9771 312.096 66.3084 311.177 65.4169ZM325.177 55.5127C325.177 54.3147 324.87 53.2699 324.257 52.3784C323.644 51.459 322.516 50.9994 320.872 50.9994C319.256 50.9994 318.017 51.4033 317.153 52.2113C316.317 53.0192 315.899 54.3983 315.899 56.3485C315.899 57.9086 316.108 59.0509 316.526 59.7753C316.972 60.4718 317.752 61.0707 318.866 61.5722C319.869 61.7951 320.803 61.9065 321.666 61.9065C322.335 61.9065 322.934 61.8508 323.463 61.7394C323.992 61.6279 324.564 61.4608 325.177 61.2379V55.5127Z" fill="white"/>
<path d="M51.3909 489.907C49.068 487.795 47.3081 484.98 46.1114 481.46C44.9147 477.94 44.3164 473.259 44.3164 467.416C44.3164 457.843 46.6746 450.628 51.3909 445.771C56.1777 440.913 63.9913 438.485 74.8319 438.485C79.5483 438.485 83.9479 439.048 88.0307 440.174C92.1135 441.23 95.6331 442.849 98.5897 445.031C101.405 447.425 103.658 450.452 105.347 454.112C107.037 457.773 107.882 462.207 107.882 467.416V498.354C107.811 502.86 106.931 506.837 105.242 510.286C103.623 513.735 101.405 516.657 98.5897 519.05C95.6331 521.514 92.1487 523.344 88.1363 524.541C84.1238 525.737 79.7243 526.336 74.9375 526.336H50.1239C50.1239 524.013 50.2646 521.936 50.5462 520.106C50.8982 518.276 51.5317 516.692 52.4468 515.354C53.2916 514.158 54.4882 513.243 56.0369 512.609C57.6559 511.905 59.7677 511.553 62.3723 511.553H72.8257C75.3599 511.201 77.5069 510.568 79.2667 509.652C81.0265 508.667 82.4344 507.47 83.4903 506.062C84.5462 504.584 85.3205 502.93 85.8133 501.1C86.306 499.199 86.6228 497.158 86.7636 494.975C85.0038 495.468 82.9272 495.855 80.5338 496.137C78.1404 496.419 75.923 496.559 73.8816 496.559C69.0245 496.559 64.6249 496.031 60.6829 494.975C56.8112 493.849 53.7139 492.16 51.3909 489.907ZM86.7636 464.882C86.7636 461.855 85.9893 459.216 84.4406 456.963C82.892 454.64 80.041 453.479 75.8878 453.479C71.805 453.479 68.6725 454.499 66.4903 456.541C64.3785 458.582 63.3226 462.067 63.3226 466.994C63.3226 470.936 63.8506 473.822 64.9065 475.652C66.0327 477.412 68.0038 478.926 70.8195 480.193C73.3537 480.756 75.7118 481.038 77.894 481.038C79.5835 481.038 81.0969 480.897 82.4344 480.615C83.7719 480.334 85.2149 479.911 86.7636 479.348V464.882Z" fill="#FFBA35"/>
<path d="M262.709 361.72L119.359 348.24V303.16H264.229L262.709 361.72Z" fill="#98CA51"/>
<path d="M119.06 312.02C115.83 310.75 112.67 309.29 109.6 307.6C105.55 305.36 101.69 302.78 98.1504 299.84C94.4404 296.74 91.1004 293.2 88.3604 289.24C81.2604 279 79.1304 266.65 81.3204 254.56C81.8304 251.74 82.5504 248.96 83.4304 246.24C83.4304 246.24 86.9104 228.83 113.78 206.55C112.78 203.32 112.24 199.91 112.24 196.37C112.24 176.91 128.45 161.14 148.45 161.14C165.56 161.14 179.88 172.69 183.67 188.2C184.28 188.08 187.27 188.1 188.46 188.12C189.66 188.11 192.65 188.08 193.25 188.2C197.04 172.68 211.36 161.14 228.47 161.14C248.47 161.14 264.68 176.91 264.68 196.37C264.68 199.91 264.14 203.33 263.14 206.55C290.02 228.82 293.49 246.24 293.49 246.24C294.37 248.97 295.09 251.75 295.6 254.56C297.79 266.65 295.66 279 288.56 289.24C285.82 293.19 282.48 296.73 278.77 299.84C277.12 301.22 275.38 302.48 273.62 303.71C270.79 305.7 268.03 307.79 265.17 309.73L260.49 312.02" fill="#98CA51"/>
<path d="M119.06 315.52C118.63 315.52 118.2 315.44 117.78 315.28C114.22 313.88 111 312.37 107.91 310.66C103.55 308.25 99.5197 305.52 95.9197 302.53C91.8097 299.09 88.2997 295.29 85.4897 291.23C78.1497 280.64 75.4497 267.39 77.8797 253.93C78.3897 251.12 79.1197 248.22 80.0497 245.31C80.5697 243.06 85.1597 226.32 109.81 205.31C109.1 202.38 108.74 199.38 108.74 196.36C108.74 175 126.55 157.63 148.45 157.63C165.93 157.63 181.09 168.58 186.28 184.6C186.89 184.6 187.62 184.6 188.5 184.61C189.34 184.61 190.04 184.59 190.64 184.6C195.84 168.58 211 157.63 228.47 157.63C250.36 157.63 268.18 175 268.18 196.36C268.18 199.38 267.82 202.38 267.11 205.31C291.77 226.33 296.35 243.07 296.87 245.31C297.8 248.22 298.53 251.12 299.04 253.93C301.48 267.39 298.78 280.64 291.43 291.23C288.62 295.29 285.11 299.09 281.01 302.52C279.36 303.9 277.66 305.14 275.63 306.57C274.52 307.35 273.41 308.15 272.31 308.95C270.63 310.17 268.9 311.42 267.13 312.62L266.71 312.86L262.03 315.15C260.29 316 258.2 315.28 257.35 313.55C256.5 311.81 257.22 309.72 258.95 308.87L263.41 306.69C265.02 305.6 266.63 304.42 268.2 303.29C269.33 302.47 270.46 301.65 271.61 300.85C273.5 299.52 275.06 298.38 276.53 297.15C280.15 294.12 283.23 290.79 285.69 287.25C291.97 278.19 294.27 266.8 292.16 255.18C291.7 252.62 291.03 249.97 290.17 247.3L290.07 246.91C290.04 246.77 286.28 230.25 260.92 209.23L259.12 207.74L259.81 205.5C260.73 202.53 261.2 199.46 261.2 196.35C261.2 178.85 246.53 164.62 228.49 164.62C213.26 164.62 200.18 174.65 196.67 189.01L195.88 192.26L192.69 191.63C192.32 191.6 190.96 191.56 188.52 191.6C186 191.57 184.64 191.6 184.27 191.63L181.08 192.26L180.29 189.01C176.79 174.65 163.7 164.62 148.47 164.62C130.44 164.62 115.76 178.85 115.76 196.35C115.76 199.45 116.23 202.53 117.15 205.5L117.84 207.74L116.04 209.23C90.6797 230.25 86.9197 246.76 86.8797 246.93L86.7797 247.3C85.9197 249.97 85.2497 252.62 84.7897 255.17C82.6897 266.79 84.9797 278.18 91.2597 287.24C93.7197 290.78 96.7997 294.12 100.42 297.15C103.67 299.85 107.34 302.34 111.31 304.53C114.13 306.09 117.09 307.47 120.37 308.76C122.17 309.47 123.05 311.5 122.34 313.3C121.8 314.68 120.48 315.52 119.08 315.52H119.06ZM192.58 191.63C192.58 191.63 192.58 191.63 192.59 191.63H192.58ZM184.34 191.63H184.33C184.33 191.63 184.33 191.63 184.34 191.63Z" fill="black"/>
<path d="M115.579 344.24C114.099 363.96 116.149 383.92 116.149 383.92L110.229 390.51C106.969 394.14 109.109 399.94 113.939 400.58C138.379 403.78 189.479 392.96 189.479 392.96C189.479 392.96 242.359 404.16 266.259 400.4C270.549 399.73 272.359 394.55 269.469 391.33L262.819 383.92C262.819 383.92 263.219 368.51 262.929 354.98V346.28" fill="#98CA51"/>
<path d="M124.589 404.68C120.549 404.68 116.789 404.49 113.479 404.06C109.959 403.6 106.999 401.24 105.759 397.9C104.519 394.56 105.229 390.83 107.609 388.18L112.499 382.73C112.049 377.61 110.799 360.85 112.069 343.98C112.209 342.05 113.889 340.6 115.819 340.75C117.749 340.89 119.189 342.57 119.049 344.5C117.609 363.67 119.589 383.37 119.609 383.56L119.769 385.1L112.819 392.85C111.879 393.89 112.159 395.02 112.319 395.46C112.479 395.89 112.999 396.93 114.379 397.11C137.939 400.21 188.239 389.64 188.739 389.53L189.459 389.38L190.189 389.53C190.709 389.64 242.719 400.55 265.699 396.94C266.729 396.78 267.119 395.99 267.239 395.66C267.359 395.32 267.559 394.46 266.849 393.66L259.269 385.22L259.309 383.83C259.309 383.68 259.709 368.35 259.419 355.06V346.28C259.419 344.35 260.989 342.78 262.919 342.78C264.849 342.78 266.419 344.35 266.419 346.28V354.98C266.659 366.02 266.429 378.5 266.339 382.61L272.059 388.99C274.259 391.45 274.939 394.9 273.839 398.01C272.739 401.11 270.039 403.35 266.789 403.86C243.789 407.48 196.189 397.93 189.459 396.53C183.799 397.7 149.099 404.67 124.569 404.67L124.589 404.68Z" fill="black"/>
<g style="mix-blend-mode:multiply" opacity="0.6">
<path d="M209.32 189.61C208.81 184.48 205.44 179.66 201.59 176.39C196.29 171.9 190.75 173.81 185.65 177.59C181.94 180.34 173.89 185.82 176.92 191.4C179.44 196.05 183.11 199.69 186.98 203.21C189.76 205.74 192.68 208.43 196.71 207.11C202.38 205.25 208.08 199.1 209.18 193.28C209.41 192.05 209.45 190.82 209.33 189.6L209.32 189.61Z" fill="#B2B6B5"/>
</g>
<path d="M205.93 186.05C205.42 180.92 202.05 176.1 198.2 172.83C192.9 168.34 187.36 170.25 182.26 174.03C178.54 176.78 170.5 182.26 173.53 187.85C176.05 192.5 179.72 196.14 183.59 199.66C186.37 202.19 189.29 204.88 193.32 203.56C198.99 201.7 204.69 195.55 205.78 189.73C206.01 188.5 206.05 187.27 205.93 186.05Z" fill="#908882"/>
<path d="M191.221 204.2C188.141 204.2 185.751 202.02 183.441 199.92L183.391 199.87C179.881 196.68 175.921 192.87 173.271 187.98C170.281 182.47 177.561 177.12 181.471 174.25L182.091 173.8C185.601 171.2 188.711 169.94 191.601 169.94C194.011 169.94 196.291 170.84 198.391 172.62C202.831 176.39 205.761 181.4 206.221 186.03C206.351 187.31 206.301 188.57 206.071 189.79C204.981 195.61 199.301 201.92 193.411 203.84C192.681 204.08 191.941 204.2 191.231 204.2H191.221ZM191.591 170.52C188.821 170.52 185.821 171.75 182.421 174.27L181.801 174.72C178.031 177.49 171.021 182.64 173.771 187.71C176.371 192.52 180.301 196.29 183.771 199.45L183.821 199.5C186.051 201.53 188.351 203.63 191.211 203.63C191.861 203.63 192.541 203.52 193.211 203.3C198.921 201.43 204.421 195.33 205.481 189.69C205.701 188.53 205.751 187.32 205.631 186.09C205.181 181.6 202.331 176.73 198.001 173.06C196.011 171.37 193.861 170.52 191.591 170.52Z" fill="#626262"/>
<path d="M191.22 205.2C187.75 205.2 185.1 202.79 182.77 200.67C179.15 197.37 175.11 193.49 172.39 188.47C168.99 182.19 176.72 176.51 180.87 173.46L181.48 173.01C185.16 170.28 188.47 168.95 191.59 168.95C194.24 168.95 196.74 169.93 199.02 171.86C203.66 175.79 206.72 181.05 207.2 185.94C207.34 187.31 207.28 188.67 207.03 189.98C205.88 196.12 199.9 202.77 193.7 204.8C192.87 205.07 192.03 205.21 191.21 205.21L191.22 205.2ZM191.59 171.52C189.04 171.52 186.24 172.68 183.02 175.07L182.4 175.53C178.88 178.12 172.33 182.94 174.66 187.24C177.19 191.91 181.04 195.61 184.45 198.71C186.59 200.66 188.75 202.62 191.22 202.62C191.77 202.62 192.34 202.53 192.91 202.34C198.31 200.58 203.51 194.81 204.51 189.5C204.71 188.43 204.76 187.32 204.64 186.19C204.22 181.95 201.5 177.33 197.36 173.83C195.56 172.3 193.62 171.53 191.59 171.53V171.52Z" fill="#0F0F0F"/>
<g style="mix-blend-mode:multiply" opacity="0.4">
<path d="M205.93 186.05C205.42 180.92 202.05 176.1 198.2 172.83C192.9 168.34 187.36 170.25 182.26 174.03C178.54 176.78 170.5 182.26 173.53 187.85C176.05 192.5 179.72 196.14 183.59 199.66C186.37 202.19 189.29 204.88 193.32 203.56C198.99 201.7 204.69 195.55 205.78 189.73C206.01 188.5 206.05 187.27 205.93 186.05ZM194.3 190.52C194.11 193.04 193.84 198.65 190.51 199.21C188.01 199.63 185.21 196.95 183.56 195.43C180.87 192.97 177.89 190.56 175.91 187.46C175.08 186.15 174.44 184.91 174.93 183.36C175.34 182.06 176.61 181.01 177.6 180.15C179.48 178.53 181.38 176.9 183.42 175.49C185.37 173.68 187.62 171.8 190.31 171.98C192.91 172.15 193.45 175.45 193.77 177.48C194.44 181.75 194.63 186.22 194.3 190.53V190.52Z" fill="#908882"/>
</g>
<g style="mix-blend-mode:multiply" opacity="0.4">
<path d="M174.99 185.7C174.79 185.12 174.7 184.53 174.8 183.88C174.21 183.7 173.63 183.56 173.16 183.51C172.84 184.49 172.77 185.49 173.01 186.5C173.67 186.23 174.33 185.96 174.99 185.7Z" fill="#908882"/>
</g>
<g style="mix-blend-mode:multiply" opacity="0.4">
<path d="M191.14 199.03C190.94 199.11 190.73 199.18 190.51 199.21C190.26 199.25 190.01 199.26 189.75 199.24C189.87 200.79 190.06 202.33 190.38 203.84C191.29 203.97 192.27 203.9 193.31 203.56C193.41 203.53 193.51 203.48 193.61 203.45C192.71 202.02 191.86 200.55 191.14 199.03Z" fill="#908882"/>
</g>
<g style="mix-blend-mode:multiply" opacity="0.4">
<path d="M194.281 181.99C194.501 184.83 194.511 187.71 194.291 190.52C194.181 191.89 194.051 194.19 193.421 196.09C195.241 195.17 197.291 194.55 199.011 193.73C201.341 192.62 203.521 191.25 205.731 189.91C205.741 189.85 205.761 189.79 205.771 189.74C206.001 188.51 206.041 187.28 205.921 186.06C205.411 180.93 202.041 176.11 198.191 172.84C196.441 171.35 194.661 170.57 192.871 170.32C193.521 173.84 194.411 177.25 194.311 180.92C194.311 181.28 194.281 181.64 194.271 181.99H194.281Z" fill="#908882"/>
</g>
<g style="mix-blend-mode:screen" opacity="0.4">
<path d="M192.6 173.47C193.31 174.65 193.58 176.27 193.77 177.47C194.44 181.74 194.63 186.21 194.3 190.52C194.11 193.04 193.84 198.65 190.51 199.21C190.42 199.23 190.33 199.23 190.24 199.23C191.23 199.45 192.22 199.39 193.09 198.82C195.88 197.02 196.05 192.87 196.19 189.91C196.35 186.39 196.52 182.87 195.86 179.37C195.39 176.89 194.79 174.49 192.6 173.46V173.47Z" fill="white"/>
</g>
<g style="mix-blend-mode:multiply" opacity="0.4">
<path d="M181.26 180.22C181.03 180.04 180.78 180.09 180.56 180.22C180.3 180.3 180.09 180.53 179.96 180.78C179.77 181.17 179.62 181.9 180.12 182.11C180.37 182.21 180.77 182 180.94 181.83C181.21 181.55 181.41 181.27 181.49 180.88C181.53 180.67 181.44 180.35 181.27 180.21L181.26 180.22Z" fill="#908882"/>
</g>
<g style="mix-blend-mode:multiply" opacity="0.4">
<path d="M182.5 182.79C182.5 182.79 182.44 182.75 182.42 182.73C182.08 182.49 181.45 183.18 181.68 183.51C181.7 183.54 181.72 183.57 181.74 183.6C182.08 184.08 182.91 183.08 182.51 182.8L182.5 182.79Z" fill="#908882"/>
</g>
<g style="mix-blend-mode:multiply" opacity="0.4">
<path d="M185.659 188.27C185.659 188.27 185.619 188.23 185.579 188.21C185.499 188.15 185.339 188.32 185.389 188.4C185.359 188.45 185.359 188.5 185.419 188.51C185.449 188.51 185.479 188.51 185.519 188.51C185.609 188.51 185.739 188.34 185.659 188.27Z" fill="#908882"/>
</g>
<g style="mix-blend-mode:multiply" opacity="0.4">
<path d="M200.27 190.48C200.27 190.48 200.22 190.48 200.19 190.49C200.18 190.49 200.16 190.5 200.15 190.51C200.14 190.51 200.13 190.52 200.11 190.54C200.11 190.54 200.11 190.54 200.1 190.54C200.08 190.55 200.07 190.58 200.05 190.6C200.05 190.6 200.05 190.62 200.04 190.63C200.04 190.65 200.02 190.67 200.02 190.69C200.02 190.69 200.02 190.7 200.02 190.71C200.02 190.74 200.02 190.77 200.07 190.79H200.09C200.09 190.79 200.15 190.79 200.18 190.76C200.31 190.74 200.45 190.47 200.27 190.47V190.48Z" fill="#908882"/>
</g>
<g style="mix-blend-mode:multiply" opacity="0.4">
<path d="M201.259 184.31C201.279 184.13 201.249 183.96 201.159 183.84C201.109 183.78 201.059 183.77 200.979 183.79C200.889 183.82 200.819 183.87 200.749 183.93C200.759 183.85 200.679 183.81 200.589 183.9C200.439 184.05 200.379 184.3 200.379 184.5C200.379 184.69 200.439 185.04 200.699 185.03C200.979 185.02 201.169 184.75 201.229 184.45C201.249 184.4 201.259 184.35 201.249 184.31H201.259Z" fill="#908882"/>
</g>
<g style="mix-blend-mode:multiply" opacity="0.4">
<path d="M202.41 188.25C202.35 188.09 202.15 188.31 202.11 188.39C201.89 188.62 202.06 188.89 202.3 188.62C202.4 188.51 202.47 188.39 202.41 188.24V188.25Z" fill="#908882"/>
</g>
<g style="mix-blend-mode:multiply" opacity="0.4">
<path d="M201.721 193.71C201.571 193.67 201.431 193.71 201.301 193.83C201.031 193.81 200.881 194.07 200.801 194.28C200.711 194.51 200.641 194.86 200.851 195.03C201.101 195.25 201.471 194.97 201.641 194.78C201.691 194.73 201.701 194.71 201.691 194.72C201.731 194.68 201.761 194.64 201.791 194.59C201.861 194.48 201.891 194.36 201.921 194.23C201.971 194.04 201.931 193.78 201.721 193.71Z" fill="#908882"/>
</g>
<g style="mix-blend-mode:multiply" opacity="0.4">
<path d="M195.23 200.05C195.23 200.05 195.19 200.07 195.16 200.08C195.1 200.1 194.93 200.28 195.04 200.34C195.05 200.34 195.07 200.36 195.08 200.36C195.31 200.49 195.45 199.96 195.22 200.05H195.23Z" fill="#908882"/>
</g>
<g style="mix-blend-mode:multiply" opacity="0.4">
<path d="M185.9 199.51C185.88 199.36 185.72 199.41 185.62 199.53C185.62 199.53 185.6 199.51 185.59 199.51C185.48 199.44 185.33 199.64 185.37 199.74C185.46 199.97 185.59 200.25 185.87 200.08C185.97 200.02 186.05 199.9 186.06 199.79C186.08 199.64 185.91 199.63 185.9 199.52V199.51Z" fill="#908882"/>
</g>
<g style="mix-blend-mode:multiply" opacity="0.4">
<path d="M177.52 190.48C177.52 190.48 177.52 190.44 177.49 190.42C177.42 190.26 177.29 190.14 177.13 190.1C176.95 190.06 176.77 190.3 176.78 190.47C176.78 190.56 176.82 190.63 176.86 190.69C176.86 190.94 177.01 191.2 177.25 191.26C177.36 191.28 177.46 191.19 177.51 191.1C177.6 190.93 177.6 190.69 177.52 190.48Z" fill="#908882"/>
</g>
<g style="mix-blend-mode:multiply" opacity="0.4">
<path d="M184.321 192.66C184.321 192.66 184.291 192.7 184.281 192.72C184.241 192.72 184.191 192.72 184.151 192.72C183.891 192.8 183.831 193.1 183.861 193.34C183.901 193.63 184.151 193.88 184.421 193.97C184.741 194.08 185.051 193.78 185.241 193.56C185.761 192.98 184.881 192 184.311 192.65L184.321 192.66Z" fill="#908882"/>
</g>
<g style="mix-blend-mode:multiply" opacity="0.4">
<path d="M191.599 177.33C191.409 177.33 191.269 177.44 191.169 177.59C191.149 177.59 191.129 177.59 191.119 177.61C190.839 177.74 190.679 178.25 190.909 178.49C191.739 179.33 192.219 177.34 191.599 177.34V177.33Z" fill="#908882"/>
</g>
<g style="mix-blend-mode:multiply" opacity="0.4">
<path d="M181.71 175.15C181.63 175.19 181.56 175.24 181.5 175.29C181.33 175.33 181.19 175.54 181.14 175.69C181.13 175.73 181.12 175.8 181.16 175.83C181.41 176.03 181.94 175.49 181.88 175.23C181.86 175.15 181.79 175.11 181.71 175.15Z" fill="#908882"/>
</g>
<g style="mix-blend-mode:multiply" opacity="0.4">
<path d="M177.449 185.44C177.449 185.44 177.329 185.42 177.279 185.44C177.269 185.42 177.259 185.4 177.249 185.38C177.229 185.35 177.199 185.33 177.159 185.34C176.829 185.41 176.819 185.82 177.009 186.03C177.209 186.25 177.679 185.67 177.439 185.44H177.449Z" fill="#908882"/>
</g>
<g style="mix-blend-mode:multiply" opacity="0.4">
<path d="M198.08 179.89C198.03 179.83 197.96 179.86 197.9 179.91C197.89 179.91 197.87 179.91 197.85 179.91C197.62 180.03 197.5 180.55 197.77 180.68C197.93 180.75 198.06 180.6 198.14 180.47C198.26 180.28 198.21 180.04 198.07 179.87L198.08 179.89Z" fill="#908882"/>
</g>
<g style="mix-blend-mode:multiply" opacity="0.4">
<path d="M199.241 177.51C199.241 177.51 199.201 177.48 199.181 177.46C199.121 177.34 198.901 177.53 198.931 177.64C198.951 177.73 198.961 177.75 199.051 177.78C199.161 177.82 199.361 177.57 199.241 177.5V177.51Z" fill="#908882"/>
</g>
<g style="mix-blend-mode:multiply" opacity="0.4">
<path d="M194.72 172.27C194.72 172.27 194.72 172.21 194.69 172.19C194.65 172.17 194.63 172.13 194.62 172.09C194.62 172.09 194.61 172.07 194.6 172.07C194.53 171.99 194.43 172.11 194.38 172.21C194.38 172.18 194.37 172.15 194.38 172.13C194.4 172.08 194.33 172.1 194.32 172.13C194.26 172.26 194.45 172.75 194.63 172.69C194.81 172.63 194.79 172.44 194.73 172.28L194.72 172.27Z" fill="#908882"/>
</g>
<g style="mix-blend-mode:multiply" opacity="0.4">
<path d="M203.71 182.62C203.71 182.62 203.69 182.6 203.68 182.59C203.74 182.42 203.56 182.4 203.45 182.49C203.38 182.55 203.25 182.82 203.45 182.81C203.49 182.81 203.53 182.82 203.56 182.84C203.65 182.87 203.77 182.7 203.71 182.63V182.62Z" fill="#908882"/>
</g>
<g style="mix-blend-mode:multiply" opacity="0.4">
<path d="M197.68 190.13C197.65 190.19 197.621 190.25 197.591 190.31C197.561 190.35 197.511 190.41 197.541 190.46C197.541 190.46 197.541 190.46 197.541 190.47C197.561 190.51 197.621 190.51 197.661 190.48C197.791 190.38 197.871 190.31 197.921 190.14C197.991 189.93 197.74 189.99 197.68 190.12V190.13Z" fill="#908882"/>
</g>
<g style="mix-blend-mode:multiply" opacity="0.4">
<path d="M196.76 196.88C196.76 196.88 196.76 196.83 196.74 196.82C196.44 196.61 196.24 197.36 196.65 197.14C196.71 197.11 196.81 196.96 196.76 196.88Z" fill="#908882"/>
</g>
<path d="M231.11 395.64C238.9 387.23 243.64 376.25 243.64 364.22C243.64 337.8 220.88 316.39 192.81 316.39C164.74 316.39 141.98 337.81 141.98 364.22C141.98 376 146.52 386.79 154.03 395.12C173.21 392.77 190.36 389.26 190.36 389.26C190.36 389.26 210.24 393.33 231.13 395.64H231.11Z" fill="white"/>
<path d="M120.15 312.35C112.86 315.94 106.5 321.41 101.85 328.08C98.81 332.43 96.52 337.26 94.55 342.19C93.87 343.89 93.21 345.65 92.03 347.05C90.6 348.76 88.52 349.84 87.18 351.62C85.84 353.4 85.7 356.48 87.72 357.41C89.18 358.08 90.86 357.26 92.25 356.45C92.18 358.8 93.69 361.12 95.87 362C98.05 362.88 100.75 362.27 102.34 360.54C101.82 362.42 103.28 364.38 105.09 365.11C106.9 365.84 108.92 365.67 110.85 365.48C111.38 365.43 111.93 365.37 112.37 365.08C112.96 364.69 113.23 363.97 113.47 363.29C115.6 357.14 117.72 350.99 119.85 344.84" fill="#98CA51"/>
<path d="M118.63 309.76C110.4 313.84 103.37 320.2 98.36 327.89C95.61 332.12 93.51 336.72 91.64 341.4C91.53 341.66 91.43 341.93 91.33 342.19C91.28 342.32 91.22 342.45 91.17 342.58C91.14 342.65 91 342.99 91.16 342.61C91.32 342.21 91.14 342.64 91.1 342.74C91.04 342.87 90.98 343 90.92 343.13C90.78 343.42 90.64 343.7 90.49 343.98C90.35 344.23 90.21 344.47 90.06 344.7C89.98 344.82 89.9 344.93 89.82 345.05C89.78 345.11 89.59 345.42 89.8 345.08C90.01 344.74 89.78 345.08 89.7 345.17C89.61 345.27 89.52 345.37 89.42 345.46C89.21 345.68 88.99 345.89 88.76 346.09C87.11 347.57 85.11 348.83 84.11 350.89C82.86 353.45 82.75 356.61 84.71 358.86C85.75 360.05 87.42 360.72 88.99 360.67C90.71 360.61 92.28 359.9 93.75 359.06C92.25 358.2 90.74 357.33 89.24 356.47C89.2 360.06 91.42 363.38 94.71 364.76C98 366.14 102.01 365.26 104.45 362.68L99.44 359.76C98.7 362.81 100.28 365.81 102.91 367.39C105.35 368.85 108.32 368.77 111.04 368.48C111.98 368.38 112.86 368.26 113.7 367.79C114.48 367.36 115.14 366.67 115.59 365.9C116.28 364.72 116.63 363.29 117.08 362.01C117.97 359.44 118.86 356.87 119.75 354.3C120.75 351.42 121.74 348.54 122.74 345.66C123.25 344.18 122.15 342.31 120.64 341.97C118.97 341.59 117.5 342.48 116.95 344.07C115.43 348.47 113.91 352.87 112.39 357.27C112.01 358.36 111.64 359.45 111.26 360.54C111.07 361.08 110.88 361.63 110.69 362.17C110.61 362.4 110.53 362.63 110.45 362.86C110.28 363.33 110.66 362.26 110.42 362.88C110.29 363.22 110.86 362.47 110.58 362.7C110.33 362.9 110.88 362.5 110.86 362.52C110.5 362.75 110.88 362.38 111.04 362.46C111.01 362.45 110.79 362.52 110.75 362.53C110.45 362.63 111.03 362.49 111.05 362.49C110.93 362.48 110.76 362.52 110.63 362.53C110.33 362.56 110.03 362.59 109.73 362.61C109.24 362.65 108.75 362.67 108.26 362.67C108 362.67 107.74 362.67 107.47 362.65C107.36 362.65 107.25 362.63 107.14 362.62C106.76 362.6 107.73 362.75 107.17 362.62C106.88 362.55 106.6 362.47 106.31 362.4C106.22 362.38 105.89 362.22 106.27 362.4C106.71 362.61 106.16 362.33 106.11 362.31C106.03 362.27 105.95 362.22 105.87 362.17C105.6 362 105.62 361.82 105.95 362.26C105.83 362.1 105.62 361.97 105.48 361.81C105.4 361.73 105.13 361.4 105.42 361.76C105.71 362.12 105.45 361.78 105.39 361.69C105.33 361.59 105.28 361.47 105.21 361.37C105.03 361.08 105.37 361.92 105.31 361.59C105.29 361.48 105.25 361.36 105.21 361.25C105.09 360.95 105.22 361.85 105.24 361.53C105.24 361.45 105.24 361.35 105.24 361.27C105.21 360.67 105.09 361.96 105.24 361.36C105.54 360.11 105.05 358.6 103.86 357.97C102.67 357.34 101.16 357.45 100.22 358.44C100.14 358.53 100.05 358.61 99.97 358.7C99.89 358.78 99.47 359.11 99.86 358.82C100.23 358.54 99.88 358.8 99.8 358.85C99.7 358.92 99.6 358.98 99.49 359.04C99.38 359.1 99.18 359.17 99.09 359.25C99.17 359.17 99.7 359.02 99.31 359.16C99.08 359.24 98.85 359.31 98.62 359.37C98.47 359.41 98.32 359.43 98.18 359.46C97.81 359.54 98.81 359.43 98.44 359.42C98.2 359.42 97.96 359.44 97.72 359.43C97.22 359.41 97.67 359.41 97.89 359.48C97.78 359.45 97.65 359.44 97.54 359.41C97.43 359.38 97.31 359.35 97.19 359.32C97.07 359.29 96.59 359.08 97.04 359.29C97.49 359.5 96.79 359.16 96.67 359.08C96.57 359.02 96.47 358.95 96.37 358.89C96.06 358.71 96.86 359.33 96.48 358.98C96.3 358.82 96.13 358.66 95.96 358.48C95.88 358.39 95.81 358.29 95.72 358.21C96.21 358.67 95.96 358.52 95.82 358.31C95.69 358.11 95.57 357.9 95.46 357.68C95.23 357.23 95.5 357.61 95.51 357.82C95.51 357.71 95.43 357.58 95.39 357.48C95.32 357.25 95.3 357 95.22 356.78C95.44 357.41 95.27 357.25 95.26 356.95C95.26 356.8 95.26 356.65 95.26 356.5C95.29 354.2 92.7 352.79 90.75 353.91C90.53 354.03 90.32 354.16 90.1 354.27C89.99 354.33 89.49 354.49 89.42 354.6C89.55 354.37 89.91 354.44 89.54 354.54C89.4 354.58 89.27 354.63 89.14 354.66C89.04 354.69 88.94 354.7 88.84 354.73C88.48 354.83 89.48 354.71 88.93 354.7C88.38 354.69 89.6 354.81 88.84 354.67C88.52 354.61 89.12 354.76 89.14 354.8C89.14 354.8 88.93 354.66 88.9 354.65C88.93 354.65 89.48 355.16 89.19 354.85C89.11 354.76 88.97 354.57 89.24 354.95C89.63 355.49 89.09 354.76 89.12 354.67C89.16 354.56 89.29 355.39 89.3 355.06C89.3 355 89.26 354.91 89.24 354.86C89.24 354.86 89.16 354.6 89.18 354.58C89.21 354.54 89.23 355.44 89.24 354.94C89.24 354.77 89.24 354.59 89.24 354.42C89.24 353.79 89.08 355.09 89.24 354.46C89.28 354.28 89.32 354.11 89.38 353.94C89.41 353.86 89.47 353.73 89.48 353.65C89.48 353.64 89.18 354.26 89.33 354.01C89.42 353.86 89.49 353.69 89.58 353.54C89.6 353.5 89.73 353.35 89.74 353.29C89.69 353.51 89.32 353.8 89.68 353.38C90.98 351.86 92.77 350.86 94.08 349.36C95.73 347.47 96.62 345.22 97.54 342.91C97.74 342.41 97.9 341.79 98.19 341.33C98.19 341.35 97.97 341.84 98.11 341.52C98.15 341.42 98.2 341.31 98.24 341.21C98.37 340.9 98.51 340.58 98.65 340.27C99.09 339.26 99.56 338.27 100.04 337.28C101.04 335.24 102.14 333.24 103.36 331.33C103.93 330.44 104.53 329.56 105.15 328.71C105.29 328.52 105.44 328.33 105.58 328.13C105.89 327.71 105.53 328.19 105.48 328.25C105.56 328.14 105.65 328.03 105.73 327.93C106.05 327.53 106.37 327.13 106.7 326.74C108 325.2 109.4 323.74 110.88 322.37C111.73 321.58 112.61 320.82 113.52 320.1C113.68 319.97 114.39 319.5 113.72 319.94C113.95 319.79 114.16 319.61 114.38 319.45C114.85 319.1 115.32 318.77 115.8 318.44C117.69 317.15 119.67 315.99 121.72 314.97C123.13 314.27 123.63 312.16 122.8 310.87C121.87 309.43 120.2 309.05 118.7 309.79L118.63 309.76Z" fill="black"/>
<path d="M258.031 312.35C265.321 315.94 271.681 321.41 276.331 328.08C279.371 332.43 281.661 337.26 283.631 342.19C284.311 343.89 284.971 345.65 286.151 347.05C287.581 348.76 289.661 349.84 291.001 351.62C292.341 353.4 292.481 356.48 290.461 357.41C289.001 358.08 287.321 357.26 285.931 356.45C286.001 358.8 284.491 361.12 282.311 362C280.131 362.88 277.431 362.27 275.841 360.54C276.361 362.42 274.901 364.38 273.091 365.11C271.281 365.84 269.261 365.67 267.331 365.48C266.801 365.43 266.251 365.37 265.811 365.08C265.221 364.69 264.951 363.97 264.711 363.29C262.581 357.14 260.461 350.99 258.331 344.84" fill="#98CA51"/>
<path d="M256.52 314.94C258.36 315.85 260.14 316.87 261.85 318C262.68 318.55 263.48 319.12 264.27 319.72C264.87 320.17 263.97 319.48 264.39 319.81C264.58 319.96 264.76 320.11 264.95 320.26C265.37 320.6 265.79 320.96 266.21 321.31C267.73 322.63 269.17 324.04 270.52 325.54C271.21 326.3 271.87 327.09 272.5 327.89C272.56 327.97 272.63 328.05 272.69 328.13C272.94 328.45 272.35 327.68 272.6 328.01C272.74 328.2 272.89 328.39 273.03 328.58C273.34 329 273.64 329.43 273.94 329.86C275.21 331.7 276.34 333.63 277.38 335.61C277.91 336.62 278.41 337.64 278.89 338.67C279.11 339.15 279.33 339.64 279.55 340.12C279.67 340.4 279.79 340.68 279.91 340.95C279.96 341.05 280 341.16 280.04 341.26C280.12 341.44 280.39 341.82 280.04 341.28C280.31 341.7 280.46 342.29 280.64 342.75C280.84 343.25 281.03 343.75 281.24 344.24C281.72 345.39 282.19 346.55 282.86 347.6C283.53 348.65 284.31 349.56 285.22 350.36C285.96 351.01 286.74 351.6 287.48 352.25C287.91 352.63 288.29 353.04 288.68 353.47C288.91 353.72 288.49 353.22 288.49 353.22C288.51 353.3 288.65 353.46 288.69 353.54C288.74 353.63 288.79 353.72 288.84 353.81C288.99 354.09 288.84 354.2 288.75 353.58C288.78 353.77 288.89 353.98 288.94 354.17C288.96 354.24 288.97 354.32 288.99 354.4C289.12 354.89 288.94 354.3 288.96 354.13C288.94 354.32 288.99 354.54 288.98 354.73C288.98 354.73 288.98 355 288.96 355.02C288.99 354.99 289.14 354.18 288.99 354.72C288.97 354.79 288.95 354.86 288.94 354.93C288.85 355.39 289.25 354.4 289.07 354.67C288.99 354.79 288.65 355.34 288.98 354.88C289.27 354.48 289.09 354.74 288.98 354.83C288.76 355.02 289.66 354.43 289.2 354.66C289.1 354.71 288.89 354.79 289.27 354.66C289.86 354.44 289.08 354.71 289.08 354.69C289.07 354.63 289.72 354.69 289.38 354.64C288.74 354.55 289.42 354.78 289.47 354.7C289.43 354.77 288.77 354.52 288.66 354.49C288.13 354.33 288.71 354.54 288.78 354.55C288.62 354.52 288.44 354.39 288.29 354.32C288 354.17 287.72 354.02 287.44 353.86C285.49 352.74 282.9 354.15 282.93 356.45C282.93 356.57 282.93 356.69 282.93 356.81C282.93 356.93 282.87 357.48 282.93 356.95C282.99 356.42 282.86 357.19 282.82 357.34C282.78 357.47 282.69 357.64 282.68 357.77C282.68 357.66 282.96 357.18 282.77 357.55C282.66 357.76 282.55 357.98 282.42 358.18C282.36 358.28 282.03 358.7 282.34 358.32C282.63 357.96 282.35 358.29 282.29 358.37C282.13 358.55 281.96 358.72 281.78 358.88C281.41 359.21 281.69 358.87 281.89 358.8C281.79 358.83 281.68 358.94 281.59 359C281.49 359.06 281.38 359.12 281.28 359.18C281.18 359.23 280.69 359.47 281.15 359.25C281.57 359.05 281.19 359.22 281.08 359.25C280.97 359.29 280.85 359.32 280.73 359.35C280.61 359.38 280.49 359.4 280.38 359.42C280.01 359.5 281.09 359.38 280.55 359.39C280.31 359.39 280.07 359.39 279.83 359.39C279.42 359.39 279.97 359.41 280.09 359.44C279.95 359.4 279.79 359.39 279.65 359.36C279.41 359.31 279.18 359.24 278.96 359.16C278.48 358.99 278.94 359.08 279.09 359.22C279.01 359.15 278.86 359.11 278.77 359.06C278.56 358.94 278.37 358.78 278.16 358.67C278.73 358.96 278.48 358.93 278.28 358.74C278.17 358.64 278.06 358.53 277.96 358.42C277.08 357.49 275.41 357.25 274.32 357.95C273.17 358.69 272.62 360 272.94 361.34C272.94 360.67 273.07 361.86 272.94 361.34C272.94 361.42 272.91 361.53 272.93 361.6C272.91 361.51 273.1 360.87 272.95 361.32C272.92 361.4 272.89 361.49 272.87 361.57C272.81 361.86 272.99 361.28 273.01 361.27C272.91 361.38 272.7 361.74 272.64 361.89C272.79 361.47 272.98 361.5 272.77 361.71C272.71 361.78 272.64 361.85 272.58 361.91C272.52 361.97 272.44 362.04 272.38 362.1C272.02 362.45 272.48 362 272.55 361.98C272.37 362.03 272.16 362.23 272 362.32C271.93 362.36 271.82 362.39 271.75 362.44C271.9 362.32 272.28 362.25 271.88 362.36C271.63 362.43 271.38 362.5 271.13 362.56C271.02 362.58 270.54 362.65 270.98 362.6C271.42 362.55 271.01 362.6 270.94 362.6C270.38 362.63 269.82 362.65 269.25 362.62C268.76 362.6 268.27 362.56 267.78 362.51C267.63 362.5 267.48 362.48 267.33 362.47C266.89 362.42 267.24 362.47 267.33 362.47C267.89 362.54 267.33 362.47 267.33 362.46C267.08 362.38 267.07 362.39 267.31 362.49C267.51 362.59 267.54 362.6 267.4 362.52C267.1 362.35 267.66 362.73 267.65 362.72C267.28 362.42 267.8 362.82 267.8 362.91C267.8 362.87 267.7 362.71 267.67 362.68C267.5 362.43 267.78 362.98 267.79 362.99C267.65 362.46 267.42 361.95 267.24 361.43C266.86 360.34 266.49 359.25 266.11 358.16C265.34 355.94 264.58 353.72 263.81 351.5C262.95 349.01 262.09 346.52 261.23 344.03C260.72 342.55 259.15 341.41 257.54 341.93C256.07 342.4 254.9 344.03 255.44 345.62C257.22 350.76 258.99 355.9 260.77 361.03C261.73 363.8 262.41 367.46 265.74 368.24C267.02 368.54 268.49 368.61 269.81 368.62C271.47 368.63 273.08 368.35 274.61 367.68C277.62 366.34 279.52 362.97 278.73 359.72L273.72 362.64C276.16 365.22 280.19 366.1 283.46 364.72C286.73 363.34 288.97 360.02 288.93 356.43C287.43 357.29 285.92 358.16 284.42 359.02C285.56 359.67 286.78 360.29 288.08 360.5C289.92 360.8 291.62 360.41 293.07 359.21C294.95 357.64 295.3 354.84 294.73 352.58C294.14 350.24 292.46 348.57 290.65 347.1C290.23 346.76 289.81 346.42 289.41 346.06C289.23 345.9 289.06 345.74 288.89 345.58C288.78 345.47 288.28 345.07 288.27 344.91C288.27 344.93 288.68 345.5 288.35 345.02C288.27 344.9 288.19 344.79 288.11 344.67C287.96 344.44 287.81 344.19 287.68 343.95C287.43 343.49 287.07 342.94 286.94 342.43C286.96 342.5 287.2 343.06 287 342.56C286.95 342.43 286.89 342.3 286.84 342.17C286.73 341.91 286.63 341.64 286.53 341.38C286.3 340.82 286.08 340.25 285.84 339.69C285.3 338.4 284.75 337.12 284.16 335.85C283.14 333.65 282.03 331.49 280.77 329.41C278.36 325.42 275.42 321.71 272.04 318.5C268.34 314.99 264.11 312 259.54 309.74C258.14 309.04 256.23 309.32 255.44 310.82C254.72 312.18 255.01 314.18 256.52 314.92V314.94Z" fill="black"/>
<path d="M169.469 227.64C172.556 227.64 175.059 225.137 175.059 222.05C175.059 218.963 172.556 216.46 169.469 216.46C166.382 216.46 163.879 218.963 163.879 222.05C163.879 225.137 166.382 227.64 169.469 227.64Z" fill="black"/>
<path d="M213.83 227.64C216.918 227.64 219.42 225.137 219.42 222.05C219.42 218.963 216.918 216.46 213.83 216.46C210.743 216.46 208.24 218.963 208.24 222.05C208.24 225.137 210.743 227.64 213.83 227.64Z" fill="black"/>
<path d="M225.379 244.91C225.119 243.55 223.809 242.67 222.459 242.92C222.289 242.96 204.939 246.08 193.359 236.06C192.989 235.74 192.549 235.55 192.089 235.48V235.45C192.019 235.45 191.949 235.45 191.879 235.46C191.809 235.46 191.739 235.44 191.669 235.45V235.48C191.219 235.55 190.769 235.74 190.399 236.06C178.819 246.08 161.479 242.96 161.299 242.92C159.949 242.66 158.639 243.55 158.379 244.91C158.119 246.27 159.009 247.58 160.369 247.83C160.619 247.88 162.579 248.24 165.579 248.38C171.689 248.67 182.069 248.04 190.889 241.99C191.489 241.57 192.279 241.57 192.879 241.99C201.699 248.04 212.079 248.67 218.189 248.38C221.189 248.24 223.149 247.88 223.399 247.83C224.759 247.57 225.649 246.26 225.389 244.91H225.379Z" fill="black"/>
</g>
<defs>
<clipPath id="clip0_873_1352">
<rect width="380.54" height="573" fill="white" transform="translate(0.199219)"/>
</clipPath>
</defs>
</svg>
