<svg width="382" height="573" viewBox="0 0 382 573" fill="none" xmlns="http://www.w3.org/2000/svg">
<g clip-path="url(#clip0_873_2299)">
<path d="M359.01 0H23.0102C10.7109 0 0.740234 9.97062 0.740234 22.27V550.73C0.740234 563.029 10.7109 573 23.0102 573H359.01C371.31 573 381.28 563.029 381.28 550.73V22.27C381.28 9.97062 371.31 0 359.01 0Z" fill="#98CA51"/>
<path d="M319.971 95.66C338.748 95.66 353.971 80.4377 353.971 61.66C353.971 42.8823 338.748 27.66 319.971 27.66C301.193 27.66 285.971 42.8823 285.971 61.66C285.971 80.4377 301.193 95.66 319.971 95.66Z" fill="white"/>
<path d="M324.52 62.5654C324.52 63.3882 324.581 64.3562 324.702 65.4694C324.823 66.5584 325.065 67.6111 325.428 68.6275C325.767 69.6923 326.214 70.5877 326.771 71.3137C327.352 72.0155 328.09 72.3664 328.985 72.3664C329.905 72.3664 330.655 72.0034 331.236 71.2774C331.817 70.5272 332.276 69.6439 332.615 68.6275C332.93 67.6111 333.148 66.5463 333.269 65.4331C333.414 64.2957 333.486 63.3398 333.486 62.5654C333.486 61.8394 333.414 60.9682 333.269 59.9518C333.123 58.9354 332.869 57.9311 332.506 56.9389C332.167 55.9951 331.708 55.1844 331.127 54.5068C330.546 53.805 329.832 53.4299 328.985 53.3815C328.09 53.3331 327.352 53.6356 326.771 54.289C326.19 54.9424 325.742 55.741 325.428 56.6848C325.065 57.6528 324.823 58.6813 324.702 59.7703C324.581 60.8593 324.52 61.791 324.52 62.5654ZM329.058 78.4285C326.977 78.4285 325.186 77.9687 323.685 77.0491C322.185 76.1295 320.939 74.9316 319.946 73.4554C318.93 72.0034 318.168 70.3336 317.66 68.446C317.176 66.5342 316.934 64.5982 316.934 62.638C316.934 60.7746 317.163 58.9475 317.623 57.1567C318.107 55.3417 318.845 53.7082 319.838 52.2562C320.83 50.8284 322.088 49.6789 323.613 48.8077C325.137 47.9123 326.952 47.4646 329.058 47.4646C331.091 47.4646 332.845 47.9002 334.321 48.7714C335.822 49.6184 337.08 50.7437 338.096 52.1473C339.089 53.5993 339.827 55.2328 340.311 57.0478C340.795 58.8386 341.037 60.702 341.037 62.638C341.037 64.4288 340.807 66.268 340.347 68.1556C339.911 70.019 339.222 71.7009 338.278 73.2013C337.286 74.7501 336.027 76.0085 334.503 76.9765C332.978 77.9445 331.163 78.4285 329.058 78.4285Z" fill="#98CA51"/>
<path d="M312.767 48.3721V77.4847H305.798V56.9026H301.188V53.3815C301.962 53.0185 302.664 52.6434 303.293 52.2562C303.85 51.9174 304.382 51.506 304.89 51.022C305.423 50.538 305.834 50.0056 306.124 49.4248C306.294 48.965 306.608 48.6867 307.068 48.5899C307.528 48.4689 308.109 48.3963 308.811 48.3721H312.767Z" fill="#98CA51"/>
<path d="M69.2305 546.34C88.0081 546.34 103.23 531.118 103.23 512.34C103.23 493.562 88.0081 478.34 69.2305 478.34C50.4528 478.34 35.2305 493.562 35.2305 512.34C35.2305 531.118 50.4528 546.34 69.2305 546.34Z" fill="#98CA51"/>
<path d="M102.83 487.151C102.83 489.18 102.98 491.566 103.278 494.311C103.576 496.996 104.173 499.591 105.068 502.097C105.903 504.723 107.007 506.93 108.38 508.72C109.812 510.451 111.631 511.316 113.839 511.316C116.106 511.316 117.956 510.421 119.388 508.631C120.82 506.781 121.954 504.603 122.789 502.097C123.565 499.591 124.102 496.966 124.4 494.221C124.758 491.417 124.937 489.06 124.937 487.151C124.937 485.361 124.758 483.213 124.4 480.707C124.042 478.201 123.416 475.725 122.521 473.278C121.685 470.951 120.551 468.953 119.119 467.282C117.688 465.552 115.927 464.627 113.839 464.507C111.631 464.388 109.812 465.134 108.38 466.745C106.948 468.356 105.844 470.325 105.068 472.652C104.173 475.039 103.576 477.574 103.278 480.259C102.98 482.944 102.83 485.242 102.83 487.151ZM114.018 526.262C108.887 526.262 104.471 525.129 100.772 522.861C97.0727 520.594 93.9998 517.641 91.5535 514.001C89.0475 510.421 87.168 506.304 85.915 501.65C84.7217 496.936 84.125 492.163 84.125 487.33C84.125 482.736 84.6918 478.231 85.8255 473.815C87.0188 469.34 88.8387 465.313 91.285 461.733C93.7313 458.213 96.834 455.378 100.593 453.23C104.352 451.023 108.827 449.919 114.018 449.919C119.03 449.919 123.356 450.993 126.995 453.141C130.695 455.229 133.798 458.004 136.304 461.464C138.75 465.044 140.57 469.072 141.763 473.547C142.956 477.962 143.553 482.557 143.553 487.33C143.553 491.745 142.986 496.28 141.853 500.934C140.778 505.528 139.078 509.675 136.751 513.374C134.305 517.193 131.202 520.296 127.443 522.682C123.684 525.069 119.209 526.262 114.018 526.262Z" fill="white"/>
<path d="M73.8532 452.156V523.935H56.6692V473.189H45.3027V464.507C47.2121 463.612 48.9424 462.688 50.4937 461.733C51.8661 460.898 53.1787 459.883 54.4317 458.69C55.7444 457.497 56.7587 456.184 57.4747 454.752C57.8924 453.618 58.6681 452.932 59.8017 452.693C60.9354 452.395 62.3674 452.216 64.0977 452.156H73.8532Z" fill="white"/>
<path d="M262.51 362.44L119.17 348.96V303.88H264.03L262.51 362.44Z" fill="#D6AF43"/>
<path d="M118.871 312.74C115.641 311.47 112.481 310.01 109.411 308.32C105.361 306.08 101.501 303.5 97.961 300.56C94.251 297.46 90.911 293.92 88.171 289.96C81.071 279.72 78.941 267.37 81.131 255.28C81.641 252.46 82.361 249.68 83.241 246.96C83.241 246.96 86.721 229.55 113.591 207.27C112.591 204.04 112.051 200.63 112.051 197.09C112.051 177.63 128.261 161.86 148.261 161.86C165.371 161.86 179.691 173.41 183.481 188.92C184.091 188.8 187.081 188.82 188.271 188.84C189.471 188.83 192.461 188.8 193.061 188.92C196.851 173.4 211.171 161.86 228.281 161.86C248.281 161.86 264.491 177.63 264.491 197.09C264.491 200.63 263.951 204.05 262.951 207.27C289.831 229.54 293.301 246.96 293.301 246.96C294.181 249.69 294.901 252.47 295.411 255.28C297.601 267.37 295.471 279.72 288.371 289.96C285.631 293.91 282.291 297.45 278.581 300.56C276.931 301.94 275.191 303.2 273.431 304.43C270.601 306.42 267.841 308.51 264.981 310.45L260.301 312.74" fill="#D6AF43"/>
<path d="M118.87 316.24C118.44 316.24 118.01 316.16 117.59 316C114.03 314.6 110.81 313.09 107.72 311.38C103.36 308.97 99.3302 306.24 95.7302 303.25C91.6202 299.81 88.1102 296.01 85.3002 291.95C77.9602 281.36 75.2602 268.11 77.6902 254.65C78.2002 251.84 78.9302 248.94 79.8602 246.03C80.3802 243.78 84.9602 227.04 109.62 206.03C108.91 203.1 108.55 200.1 108.55 197.08C108.55 175.72 126.36 158.35 148.26 158.35C165.74 158.35 180.9 169.3 186.09 185.32C186.7 185.32 187.43 185.32 188.31 185.33C189.15 185.32 189.85 185.32 190.45 185.32C195.65 169.3 210.81 158.35 228.28 158.35C250.17 158.35 267.99 175.72 267.99 197.08C267.99 200.1 267.63 203.1 266.92 206.03C291.58 227.05 296.16 243.79 296.68 246.03C297.61 248.94 298.34 251.84 298.85 254.65C301.29 268.11 298.59 281.36 291.24 291.95C288.43 296.01 284.92 299.81 280.82 303.24C278.99 304.77 277.08 306.13 275.44 307.29C274.32 308.08 273.21 308.88 272.11 309.68C270.44 310.89 268.71 312.15 266.94 313.34L266.52 313.58L261.84 315.87C260.1 316.72 258.01 316 257.16 314.27C256.31 312.53 257.03 310.44 258.76 309.59L263.22 307.41C264.82 306.32 266.44 305.15 268 304.02C269.14 303.2 270.27 302.37 271.42 301.57C273.32 300.24 274.88 299.1 276.34 297.87C279.96 294.84 283.04 291.51 285.5 287.97C291.78 278.91 294.08 267.52 291.97 255.9C291.51 253.34 290.84 250.69 289.98 248.02L289.88 247.63C289.85 247.49 286.09 230.97 260.73 209.95L258.93 208.46L259.62 206.22C260.54 203.25 261.01 200.18 261.01 197.07C261.01 179.57 246.34 165.34 228.3 165.34C213.07 165.34 199.99 175.37 196.48 189.73L195.69 192.98L192.5 192.35C192.13 192.32 190.77 192.28 188.33 192.32C185.81 192.29 184.45 192.32 184.08 192.35L180.89 192.98L180.1 189.73C176.6 175.37 163.51 165.34 148.28 165.34C130.25 165.34 115.57 179.57 115.57 197.07C115.57 200.17 116.04 203.25 116.96 206.22L117.65 208.46L115.85 209.95C90.4902 230.97 86.7302 247.48 86.6902 247.65L86.5902 248.02C85.7302 250.69 85.0602 253.34 84.6002 255.89C82.5002 267.51 84.7902 278.9 91.0702 287.96C93.5302 291.5 96.6102 294.84 100.23 297.87C103.48 300.57 107.15 303.06 111.12 305.25C113.94 306.81 116.9 308.19 120.18 309.48C121.98 310.19 122.86 312.22 122.15 314.02C121.61 315.4 120.29 316.24 118.89 316.24H118.87ZM192.39 192.35C192.39 192.35 192.39 192.35 192.4 192.35H192.39ZM184.15 192.35H184.14C184.14 192.35 184.14 192.35 184.15 192.35Z" fill="black"/>
<path d="M115.381 344.96C113.901 364.68 115.951 384.64 115.951 384.64L110.031 391.23C106.771 394.86 108.911 400.66 113.741 401.3C138.181 404.5 189.281 393.68 189.281 393.68C189.281 393.68 242.161 404.88 266.061 401.12C270.351 400.45 272.161 395.27 269.271 392.05L262.621 384.64C262.621 384.64 263.021 369.23 262.731 355.7V347" fill="#D6AF43"/>
<path d="M124.401 405.4C120.361 405.4 116.611 405.21 113.301 404.78C109.771 404.32 106.821 401.96 105.581 398.62C104.341 395.28 105.051 391.55 107.431 388.9L112.321 383.45C111.871 378.33 110.621 361.57 111.891 344.7C112.031 342.77 113.711 341.32 115.641 341.47C117.571 341.61 119.011 343.29 118.871 345.22C117.431 364.39 119.411 384.09 119.431 384.28L119.591 385.82L112.641 393.57C111.701 394.61 111.981 395.74 112.141 396.18C112.301 396.61 112.821 397.65 114.201 397.83C137.771 400.93 188.061 390.36 188.561 390.25L189.291 390.1L190.021 390.25C190.541 390.36 242.551 401.28 265.531 397.66C266.561 397.5 266.951 396.71 267.071 396.38C267.191 396.04 267.391 395.18 266.681 394.38L259.101 385.94L259.141 384.55C259.141 384.4 259.541 369.07 259.251 355.78V347C259.251 345.07 260.821 343.5 262.751 343.5C264.681 343.5 266.251 345.07 266.251 347V355.7C266.491 366.74 266.261 379.22 266.171 383.33L271.891 389.71C274.091 392.16 274.771 395.62 273.671 398.73C272.571 401.83 269.871 404.07 266.631 404.58C243.631 408.2 196.031 398.65 189.301 397.25C183.641 398.42 148.941 405.39 124.411 405.39L124.401 405.4Z" fill="black"/>
<path d="M230.921 396.36C238.711 387.95 243.451 376.97 243.451 364.94C243.451 338.52 220.691 317.11 192.621 317.11C164.551 317.11 141.791 338.53 141.791 364.94C141.791 376.72 146.331 387.51 153.841 395.84C173.021 393.49 190.171 389.98 190.171 389.98C190.171 389.98 210.051 394.05 230.941 396.36H230.921Z" fill="white"/>
<path d="M250.49 186.52C250.49 186.52 247.08 175.76 250.25 164.9C250.3 164.72 250.54 164.67 250.67 164.81L252.21 166.6C252.21 166.6 255.28 136.93 283.12 120.49C283.12 120.49 292.72 124.49 291.03 134.19C289.35 143.89 267.38 171.88 260.64 177.68C260.64 177.68 261.61 177.8 263.93 177.33C264.14 177.29 264.3 177.53 264.17 177.7C263.01 179.24 258.88 183.99 250.49 186.5V186.52Z" fill="#EF6600"/>
<path d="M248.52 190.24L247.63 187.43C247.48 186.95 243.98 175.66 247.37 164.06C247.7 162.92 248.63 162.06 249.8 161.8C249.87 161.79 249.94 161.77 250.01 161.76C252.07 152.48 259.08 131.2 281.59 117.91L282.88 117.15L284.27 117.73C288.35 119.43 295.64 125.17 293.98 134.71C292.42 143.67 275.98 165.67 266.71 175.83C266.71 175.83 266.71 175.84 266.72 175.85C267.44 176.99 267.39 178.43 266.57 179.52C265.01 181.59 260.42 186.69 251.34 189.4L248.51 190.25L248.52 190.24ZM252.09 171.09C251.6 175.69 252.12 179.89 252.63 182.57C254.32 181.86 255.75 181.06 256.95 180.27L253.51 179.86L258.68 175.41C265.65 169.41 286.62 142.05 288.07 133.68C289 128.32 285.28 125.22 283.22 123.94C258.39 139.53 255.22 166.64 255.19 166.91L254.45 173.83L252.09 171.08V171.09Z" fill="#0F0F0F"/>
<path d="M290.991 129.69C289.681 123.25 283.111 120.51 283.111 120.51C281.171 121.65 279.361 122.86 277.651 124.12C277.611 124.25 273.131 138.85 290.991 129.69Z" fill="#3FC9B1"/>
<path d="M281.62 135.7C279.63 135.7 278 135.16 276.7 134.07C272.64 130.67 274.56 123.99 274.79 123.24L275.08 122.3L275.88 121.71C277.73 120.35 279.65 119.07 281.59 117.93L282.88 117.17L284.27 117.75C284.6 117.89 292.32 121.2 293.93 129.1L294.39 131.33L292.37 132.37C288.02 134.6 284.46 135.71 281.62 135.71V135.7ZM280.31 125.91C280.03 127.38 280.06 129.05 280.56 129.47C280.57 129.48 281.91 130.5 287.28 128.14C286.2 126.09 284.41 124.71 283.21 123.96C282.23 124.58 281.26 125.23 280.3 125.9L280.31 125.91Z" fill="#0F0F0F"/>
<path d="M275.228 137.61L263.078 139.24C262.238 140.47 261.448 141.74 260.698 143.03C260.308 143.7 259.928 144.37 259.558 145.05C259.208 145.69 258.738 146.37 258.488 147.06C258.738 147.14 259.108 147.05 259.378 147.03L260.968 146.91C262.368 146.81 263.768 146.7 265.168 146.6C266.618 146.49 268.068 146.38 269.518 146.27L275.318 160.64C276.988 158.44 278.648 156.17 280.238 153.91L275.228 137.62V137.61Z" fill="#FFB727"/>
<path d="M274.519 166.66L267.569 149.42L259.609 150.02C259.139 150.08 258.389 150.18 257.569 149.91L254.639 148.96L255.669 146.06C255.939 145.29 256.339 144.63 256.649 144.09C256.749 143.93 256.839 143.77 256.929 143.61C257.309 142.91 257.709 142.22 258.109 141.53C258.949 140.09 259.769 138.79 260.609 137.56L261.359 136.46L277.359 134.31L283.549 154.43L282.709 155.63C281.159 157.84 279.479 160.14 277.719 162.45L274.529 166.66H274.519ZM271.489 143.11L276.099 154.55C276.379 154.16 276.659 153.77 276.939 153.38L273.109 140.93L264.819 142.04C264.479 142.57 264.139 143.12 263.789 143.69L271.489 143.11Z" fill="#0F0F0F"/>
<path d="M248.029 194.65C248.029 194.65 248.099 194.34 248.229 193.76C248.359 193.18 248.549 192.33 248.839 191.27C249.129 190.2 249.479 188.9 249.919 187.43C250.139 186.69 250.379 185.91 250.629 185.08C250.879 184.25 251.189 183.4 251.489 182.49C252.069 180.68 252.799 178.76 253.559 176.71C253.939 175.69 254.379 174.66 254.799 173.59C255.229 172.53 255.649 171.44 256.139 170.35C257.109 168.18 258.059 165.9 259.189 163.66C259.739 162.53 260.289 161.4 260.849 160.26C261.439 159.14 262.039 158.01 262.629 156.88C263.799 154.61 265.109 152.42 266.369 150.24C266.689 149.7 266.999 149.15 267.309 148.62C267.619 148.08 267.979 147.57 268.299 147.04C268.969 146 269.629 144.97 270.279 143.96C271.529 141.92 272.939 140.05 274.209 138.24C274.849 137.34 275.459 136.46 276.079 135.63C276.729 134.81 277.349 134.02 277.949 133.26C279.149 131.75 280.229 130.34 281.259 129.15C282.299 127.97 283.209 126.94 283.959 126.09C284.699 125.24 285.309 124.59 285.709 124.13C286.119 123.68 286.329 123.44 286.329 123.44C286.329 123.44 286.139 123.7 285.769 124.18C285.399 124.66 284.879 125.37 284.189 126.25C283.499 127.14 282.669 128.22 281.709 129.45C281.219 130.06 280.769 130.76 280.259 131.47C279.749 132.18 279.219 132.93 278.659 133.71C278.099 134.49 277.519 135.3 276.919 136.14C276.349 137 275.759 137.89 275.149 138.8C273.949 140.64 272.629 142.53 271.419 144.58C270.179 146.62 268.849 148.69 267.639 150.88C267.019 151.96 266.389 153.06 265.769 154.15C264.989 155.47 264.349 156.86 263.579 158.19C263.069 159.17 262.549 160.14 262.039 161.12C261.529 162.16 261.019 163.19 260.509 164.22C259.379 166.44 258.369 168.67 257.359 170.82C256.839 171.89 256.409 172.97 255.939 174.01C255.489 175.06 255.019 176.07 254.599 177.07C253.789 179.08 252.969 180.97 252.299 182.74C251.599 184.5 250.989 186.13 250.459 187.57C249.919 189.01 249.489 190.28 249.129 191.33C248.779 192.38 248.509 193.2 248.319 193.77C248.139 194.34 248.049 194.64 248.049 194.64L248.029 194.65Z" fill="#603913"/>
<path d="M250.89 195.55L245.1 194L245.29 193.12C245.43 192.51 245.63 191.62 245.93 190.5C246.24 189.34 246.6 188.04 247.03 186.57L247.74 184.21C247.91 183.65 248.1 183.08 248.3 182.49L248.62 181.55C249.13 179.97 249.74 178.32 250.39 176.58L250.73 175.67C250.99 174.98 251.26 174.3 251.54 173.61L252.25 171.83C252.61 170.93 252.98 170.02 253.39 169.11C253.64 168.54 253.9 167.96 254.16 167.36C254.88 165.71 255.63 164.01 256.49 162.31L258.13 158.95L259.95 155.48C260.95 153.54 262.06 151.64 263.13 149.8L264.7 147.1C264.92 146.72 265.17 146.33 265.41 145.95C265.52 145.78 265.63 145.61 265.74 145.43L267.73 142.32C268.68 140.77 269.71 139.32 270.72 137.92C271.06 137.44 271.4 136.97 271.73 136.5L272.42 135.53C272.83 134.94 273.24 134.37 273.65 133.81L276.38 130.34C277.28 129.2 278.12 128.13 278.95 127.16L281.68 124.07C282.2 123.48 282.65 122.98 283.02 122.57L284.08 121.4L288.7 125.22L287.74 126.49C287.41 126.92 287.01 127.45 286.53 128.07L284.05 131.26C283.75 131.64 283.49 132.01 283.23 132.39C283.05 132.65 282.86 132.92 282.66 133.19L279.36 137.81L277.62 140.43C277.28 140.95 276.92 141.5 276.55 142.05C275.69 143.35 274.79 144.7 273.97 146.08C273.61 146.68 273.25 147.25 272.9 147.83C272.01 149.28 271.08 150.78 270.24 152.3L268.35 155.61C267.95 156.28 267.61 156.94 267.25 157.64C266.91 158.3 266.56 158.96 266.19 159.61L264.14 163.58L263.18 165.52C262.28 167.29 261.45 169.07 260.65 170.8L260.06 172.07C259.74 172.72 259.48 173.34 259.21 173.96C259.03 174.39 258.84 174.81 258.65 175.23L258.18 176.31C257.9 176.95 257.62 177.58 257.36 178.2C257.06 178.93 256.76 179.67 256.46 180.4C255.97 181.58 255.5 182.7 255.09 183.79C254.38 185.58 253.78 187.18 253.25 188.61C252.73 190.02 252.3 191.27 251.95 192.29L250.89 195.53V195.55Z" fill="#0F0F0F"/>
<path d="M250.918 186.08C250.668 185.27 247.688 175.07 250.788 164.88C250.808 164.83 250.868 164.81 250.908 164.86L252.498 166.72C252.498 166.72 252.608 166.75 252.618 166.69C252.888 164.48 256.698 137.42 282.548 122.14C282.568 122.13 282.588 122.13 282.608 122.14C283.178 122.39 291.828 126.32 290.248 135.41C288.628 144.76 267.558 171.65 260.898 177.48C260.858 177.52 260.878 177.58 260.938 177.59C261.298 177.6 262.338 177.59 264.258 177.19C264.368 177.17 264.458 177.28 264.388 177.37C263.558 178.53 259.598 183.54 251.008 186.13C250.978 186.13 250.948 186.13 250.938 186.1L250.918 186.08Z" fill="#EF6600"/>
<path d="M253.519 178.93C251.299 173.31 250.899 166.85 250.839 165.17C250.839 165.09 250.729 165.09 250.709 165.16C247.749 175.26 250.679 185.28 250.919 186.08C250.919 186.11 250.959 186.12 250.989 186.11C259.629 183.51 263.579 178.47 264.389 177.34C264.429 177.28 264.359 177.22 264.299 177.26C259.269 180.2 254.019 179.08 253.569 178.98C253.549 178.98 253.529 178.96 253.529 178.94L253.519 178.93Z" fill="#FFB300"/>
<path d="M290.199 130.96C288.949 125 283.059 122.32 282.599 122.12C282.579 122.12 282.559 122.12 282.539 122.12C280.669 123.22 278.929 124.39 277.289 125.6C277.289 125.6 277.279 125.6 277.279 125.62C277.169 125.99 273.069 139.79 290.159 131.04C290.189 131.03 290.199 130.99 290.199 130.96Z" fill="#3FC9B1"/>
<path d="M263.548 149.7L271.288 165.66C271.288 165.66 271.368 165.71 271.398 165.67C272.968 163.7 274.588 161.61 276.178 159.47C276.188 159.45 276.198 159.43 276.188 159.41L271.378 143.77C271.378 143.77 271.338 143.72 271.308 143.72L260.078 145.23" fill="#3FC9B1"/>
<path d="M274.869 138.71L263.169 140.28C263.169 140.28 263.129 140.29 263.119 140.31C261.359 142.88 259.859 145.46 258.629 147.91L269.339 147.09C269.339 147.09 269.399 147.1 269.409 147.13L274.969 160.91C274.969 160.91 275.049 160.97 275.079 160.93C276.669 158.83 278.249 156.67 279.759 154.52C279.769 154.5 279.779 154.48 279.759 154.46L274.929 138.75C274.929 138.75 274.889 138.7 274.859 138.7L274.869 138.71Z" fill="#FFB727"/>
<path d="M248.539 194.01C248.539 194.01 248.609 193.71 248.729 193.15C248.849 192.59 249.039 191.77 249.319 190.73C249.599 189.69 249.939 188.44 250.369 187C250.589 186.28 250.809 185.52 251.059 184.72C251.299 183.92 251.599 183.09 251.889 182.21C252.459 180.46 253.159 178.59 253.899 176.61C254.269 175.62 254.689 174.62 255.099 173.58C255.519 172.55 255.929 171.49 256.399 170.44C257.339 168.33 258.259 166.12 259.349 163.95C259.879 162.86 260.419 161.76 260.949 160.65C261.519 159.56 262.099 158.47 262.679 157.37C263.809 155.17 265.079 153.04 266.309 150.93C266.619 150.4 266.919 149.88 267.219 149.36C267.519 148.84 267.869 148.34 268.179 147.83C268.829 146.82 269.469 145.82 270.099 144.84C271.309 142.86 272.679 141.05 273.909 139.3C274.529 138.43 275.119 137.57 275.719 136.76C276.349 135.97 276.949 135.2 277.529 134.46C278.699 132.99 279.739 131.63 280.739 130.47C281.749 129.32 282.629 128.33 283.359 127.5C284.079 126.68 284.669 126.04 285.059 125.6C285.449 125.16 285.659 124.93 285.659 124.93C285.659 124.93 285.469 125.18 285.119 125.64C284.759 126.1 284.249 126.79 283.579 127.65C282.909 128.51 282.099 129.56 281.169 130.75C280.689 131.34 280.259 132.02 279.759 132.71C279.269 133.4 278.749 134.13 278.209 134.88C277.669 135.63 277.109 136.42 276.519 137.24C275.969 138.07 275.399 138.93 274.809 139.82C273.649 141.6 272.369 143.44 271.189 145.43C269.989 147.41 268.699 149.42 267.529 151.54C266.929 152.59 266.319 153.65 265.709 154.72C264.979 155.95 264.379 157.24 263.679 158.48C263.339 159.11 262.989 159.74 262.649 160.36C261.969 161.74 261.289 163.11 260.609 164.48C259.519 166.64 258.529 168.8 257.559 170.88C257.059 171.92 256.639 172.97 256.189 173.97C255.749 174.98 255.299 175.97 254.889 176.94C254.099 178.89 253.309 180.72 252.659 182.44C251.979 184.15 251.389 185.73 250.869 187.13C250.349 188.53 249.929 189.76 249.579 190.78C249.239 191.8 248.979 192.6 248.799 193.14C248.629 193.69 248.539 193.98 248.539 193.98V194.01Z" fill="#603913"/>
<path d="M261.979 147.66L258.639 147.91C257.739 149.74 256.929 151.6 256.189 153.47L265.109 152.97L265.229 150.89" fill="#3FC9B1"/>
<path d="M154.5 234.72C161.62 233.95 168.68 232.77 175.65 231.14C177.43 230.72 178.66 228.58 178.09 226.83C177.49 224.97 175.7 223.94 173.78 224.39C168.54 225.62 163.24 226.6 157.9 227.32L158.83 227.19C157.38 227.38 155.94 227.56 154.49 227.71C153.54 227.81 152.72 228.03 152.02 228.74C151.41 229.35 150.96 230.34 150.99 231.21C151.07 232.94 152.54 234.92 154.49 234.71L154.5 234.72Z" fill="black"/>
<path d="M228.28 227.72C226.83 227.56 225.38 227.39 223.94 227.2L224.87 227.33C219.53 226.61 214.24 225.63 208.99 224.4C207.21 223.98 205.12 224.95 204.68 226.84C204.27 228.63 205.22 230.7 207.12 231.15C214.09 232.78 221.16 233.96 228.27 234.73C229.11 234.82 230.18 234.27 230.74 233.7C231.35 233.09 231.8 232.1 231.77 231.23C231.74 230.36 231.43 229.39 230.74 228.76C230.02 228.09 229.24 227.84 228.27 227.73L228.28 227.72Z" fill="black"/>
<path d="M201.291 387.36C200.641 387.36 199.981 387.22 199.391 386.95L186.831 381.14C186.771 381.11 186.691 381.09 186.611 381.09C186.511 381.09 186.421 381.11 186.351 381.16L178.431 385.93C177.731 386.35 176.931 386.57 176.111 386.57C175.291 386.57 174.461 386.34 173.751 385.91L165.991 381.14C165.921 381.1 165.821 381.07 165.731 381.07C165.641 381.07 165.541 381.09 165.471 381.14L158.931 385.12C158.231 385.55 157.421 385.77 156.591 385.77C155.471 385.77 154.401 385.36 153.591 384.63L149.491 380.92C149.421 380.86 149.301 380.82 149.181 380.82C149.061 380.82 148.951 380.86 148.881 380.92L144.491 384.61C143.701 385.28 142.671 385.65 141.611 385.65C140.551 385.65 139.561 385.29 138.771 384.65L133.611 380.42C133.541 380.36 133.431 380.32 133.311 380.32C133.201 380.32 133.091 380.35 133.021 380.41L128.921 383.51C128.151 384.09 127.201 384.41 126.221 384.41C125.421 384.41 124.641 384.2 123.961 383.81L118.171 380.46C118.101 380.42 118.011 380.4 117.921 380.4C117.831 380.4 117.741 380.42 117.671 380.46L112.171 383.5C111.501 383.87 110.751 384.07 109.991 384.07C108.611 384.07 107.301 383.43 106.471 382.36C105.711 381.37 105.451 380.11 105.771 378.9L111.351 357.7C111.841 355.85 113.571 354.56 115.561 354.56C115.691 354.56 115.821 354.56 115.951 354.58C125.461 355.4 159.401 358.08 196.751 358.08C224.251 358.08 247.291 356.62 265.251 353.75C265.501 353.71 265.741 353.69 265.981 353.69C268.141 353.69 269.991 355.22 270.291 357.26L273.431 378.69C273.601 379.86 273.271 381 272.491 381.9C271.671 382.85 270.411 383.42 269.121 383.42C268.341 383.42 267.571 383.22 266.901 382.83L258.731 378.18C258.641 378.13 258.541 378.12 258.481 378.12C258.341 378.12 258.201 378.17 258.141 378.25L253.521 384.14C252.691 385.2 251.421 385.8 250.041 385.8C248.921 385.8 247.861 385.4 247.051 384.66L241.511 379.66C241.441 379.6 241.321 379.56 241.201 379.56C241.091 379.56 240.991 379.59 240.921 379.64L231.081 386.54C230.331 387.07 229.441 387.34 228.501 387.34C227.791 387.34 227.081 387.17 226.461 386.85L213.621 380.34C213.551 380.3 213.471 380.29 213.391 380.29C213.291 380.29 213.191 380.32 213.111 380.37L203.771 386.64C203.031 387.13 202.171 387.39 201.271 387.39L201.291 387.36Z" fill="#7F4F08"/>
<path d="M266.01 355.67C267.17 355.67 268.18 356.44 268.34 357.53L271.48 378.96C271.68 380.33 270.48 381.4 269.15 381.4C268.74 381.4 268.31 381.3 267.91 381.07L259.74 376.42C259.35 376.2 258.93 376.1 258.5 376.1C257.77 376.1 257.05 376.41 256.59 377L251.97 382.89C251.51 383.48 250.79 383.79 250.06 383.79C249.47 383.79 248.87 383.59 248.41 383.17L242.87 378.17C242.42 377.76 241.82 377.55 241.22 377.55C240.72 377.55 240.22 377.7 239.79 377.99L229.95 384.89C229.53 385.18 229.03 385.33 228.52 385.33C228.13 385.33 227.74 385.24 227.38 385.06L214.54 378.55C214.18 378.37 213.79 378.28 213.4 378.28C212.91 378.28 212.42 378.42 212.01 378.7L202.67 384.97C202.26 385.25 201.77 385.39 201.28 385.39C200.92 385.39 200.56 385.31 200.22 385.16L187.66 379.36C187.33 379.21 186.96 379.13 186.6 379.13C186.15 379.13 185.7 379.25 185.31 379.48L177.39 384.25C177 384.49 176.55 384.6 176.1 384.6C175.65 384.6 175.19 384.48 174.79 384.23L167.04 379.46C166.64 379.22 166.19 379.09 165.73 379.09C165.27 379.09 164.82 379.21 164.43 379.45L157.89 383.43C157.49 383.67 157.04 383.79 156.59 383.79C155.99 383.79 155.39 383.58 154.94 383.17L150.84 379.45C150.38 379.04 149.79 378.83 149.19 378.83C148.59 378.83 148.05 379.02 147.6 379.4L143.21 383.09C142.76 383.47 142.19 383.66 141.62 383.66C141.05 383.66 140.5 383.48 140.05 383.11L134.89 378.88C134.44 378.52 133.88 378.33 133.32 378.33C132.79 378.33 132.26 378.49 131.82 378.82L127.72 381.92C127.29 382.25 126.76 382.41 126.22 382.41C125.79 382.41 125.35 382.3 124.96 382.08L119.17 378.73C118.79 378.51 118.35 378.4 117.91 378.4C117.47 378.4 117.07 378.5 116.7 378.71L111.2 381.75C110.8 381.97 110.39 382.07 109.99 382.07C108.58 382.07 107.32 380.86 107.71 379.41L113.29 358.21C113.55 357.24 114.49 356.56 115.57 356.56C115.64 356.56 115.72 356.56 115.79 356.56C124.35 357.3 158.93 360.07 196.76 360.07C220.27 360.07 245.03 359 265.58 355.71C265.72 355.69 265.86 355.68 265.99 355.68M265.99 351.68C265.64 351.68 265.29 351.71 264.94 351.76C247.08 354.62 224.14 356.07 196.75 356.07C159.46 356.07 125.61 353.4 116.12 352.58C115.93 352.56 115.74 352.56 115.55 352.56C112.65 352.56 110.12 354.46 109.41 357.19L103.83 378.39C103.35 380.2 103.74 382.09 104.88 383.58C106.08 385.14 107.99 386.07 109.98 386.07C111.08 386.07 112.16 385.79 113.13 385.25L117.89 382.62L122.95 385.55C123.94 386.12 125.06 386.42 126.21 386.42C127.62 386.42 129.01 385.96 130.12 385.12L133.27 382.74L137.5 386.21C138.64 387.15 140.1 387.67 141.6 387.67C143.1 387.67 144.61 387.14 145.76 386.17L149.13 383.34L152.23 386.15C153.41 387.22 154.95 387.81 156.57 387.81C157.77 387.81 158.94 387.48 159.95 386.87L165.71 383.37L172.68 387.66C173.7 388.29 174.88 388.62 176.09 388.62C177.3 388.62 178.44 388.3 179.45 387.69L186.69 383.33L198.54 388.81C199.39 389.2 200.34 389.41 201.28 389.41C202.58 389.41 203.83 389.03 204.9 388.32L213.5 382.54L225.56 388.66C226.47 389.12 227.48 389.36 228.51 389.36C229.86 389.36 231.15 388.96 232.24 388.19L241.09 381.98L245.72 386.16C246.9 387.23 248.44 387.81 250.05 387.81C252.05 387.81 253.9 386.93 255.11 385.38L258.88 380.57L265.92 384.58C266.9 385.14 268.01 385.43 269.13 385.43C271.02 385.43 272.8 384.62 274.01 383.22C275.16 381.89 275.67 380.14 275.42 378.42L272.28 356.99C271.84 353.98 269.14 351.71 265.99 351.71V351.68Z" fill="#0F0F0F"/>
<path d="M113.04 217.04C110.86 217.04 108.76 216.34 107.05 215.03C104.98 213.45 103.67 211.08 103.45 208.54C103.08 204.28 102.96 197.57 104.45 189.79C105.23 185.74 108.62 182.71 112.89 182.27C126.2 180.88 196.09 174.36 264.58 182.21C269.14 182.73 272.7 186.32 273.05 190.73C273.67 198.6 273.24 204.46 271.77 208.15C270.37 211.67 266.89 213.97 262.9 214C250.02 214.1 136.47 215.03 113.93 217C113.63 217.03 113.34 217.04 113.05 217.04H113.04ZM115.03 193.11C114.17 198.19 114.11 202.66 114.29 205.94C138.96 204.08 239.15 203.19 261.86 203.01C262.26 201.16 262.49 197.86 262.18 193.01C196.76 185.66 130.23 191.56 115.03 193.11Z" fill="black"/>
<mask id="mask0_873_2299" style="mask-type:luminance" maskUnits="userSpaceOnUse" x="108" y="183" width="160" height="29">
<path d="M113.31 187.44C127.96 185.91 196.39 179.59 264.1 187.38C265.969 187.6 267.41 188.99 267.54 190.71C267.87 194.8 268.17 202.12 266.6 205.92C266.029 207.29 264.57 208.18 262.96 208.19C247.65 208.31 135.44 209.24 113.24 211.23C111.04 211.43 109.11 209.94 108.93 207.93C108.59 204.09 108.43 197.76 109.86 190.39C110.16 188.83 111.57 187.63 113.3 187.45L113.31 187.44Z" fill="white"/>
</mask>
<g mask="url(#mask0_873_2299)">
<path d="M212.429 176.22H168.039L179.129 193.74L190.229 211.27L201.329 193.74L212.429 176.22Z" fill="#63D3B3"/>
<path d="M256.82 176.22H212.43L223.53 193.74L234.62 211.27L245.72 193.74L256.82 176.22Z" fill="#63D3B3"/>
<path d="M168.039 176.22H123.639L134.739 193.74L145.839 211.27L156.939 193.74L168.039 176.22Z" fill="#63D3B3"/>
<path d="M123.639 176.22L112.549 193.74L101.449 211.27H123.639H145.839L134.739 193.74L123.639 176.22Z" fill="#EF6600"/>
<path d="M168.04 176.22L156.94 193.74L145.84 211.27H168.04H190.23L179.13 193.74L168.04 176.22Z" fill="#EF6600"/>
<path d="M212.429 176.22L201.329 193.74L190.229 211.27H212.429H234.619L223.529 193.74L212.429 176.22Z" fill="#EF6600"/>
<path d="M267.919 193.74L256.819 176.22L245.719 193.74L234.619 211.27H256.819H278.949V211.16L267.919 193.74Z" fill="#EF6600"/>
<path d="M127.709 199.01C127.709 201.21 125.749 203 123.339 203C120.929 203 118.969 201.22 118.969 199.01C118.969 196.8 120.929 195.02 123.339 195.02C125.749 195.02 127.709 196.81 127.709 199.01Z" fill="#F8C054"/>
<path d="M172.41 199.01C172.41 201.21 170.45 203 168.04 203C165.63 203 163.67 201.22 163.67 199.01C163.67 196.8 165.63 195.02 168.04 195.02C170.45 195.02 172.41 196.81 172.41 199.01Z" fill="#F8C054"/>
<path d="M217.109 199.01C217.109 201.21 215.149 203 212.739 203C210.329 203 208.369 201.22 208.369 199.01C208.369 196.8 210.329 195.02 212.739 195.02C215.149 195.02 217.109 196.81 217.109 199.01Z" fill="#F8C054"/>
<path d="M261.799 199.01C261.799 201.21 259.839 203 257.429 203C255.019 203 253.059 201.22 253.059 199.01C253.059 196.8 255.019 195.02 257.429 195.02C259.839 195.02 261.799 196.81 261.799 199.01Z" fill="#F8C054"/>
<path d="M155.209 183.33H136.469L141.159 190.73L145.839 198.12L150.519 190.73L155.209 183.33Z" fill="#EF6600"/>
<path d="M199.599 183.33H180.859L185.549 190.73L190.229 198.12L194.919 190.73L199.599 183.33Z" fill="#EF6600"/>
<path d="M243.99 183.33H225.25L229.94 190.73L234.62 198.12L239.31 190.73L243.99 183.33Z" fill="#EF6600"/>
<path d="M269.638 183.33H278.948V176.22H256.818L267.918 193.74L278.948 211.16V198.02L274.328 190.73L269.638 183.33Z" fill="#63D3B3"/>
<path d="M101.449 176.22V183.33H110.819L106.129 190.73L101.449 198.12V211.27L112.549 193.74L123.639 176.22H101.449Z" fill="#63D3B3"/>
<path d="M110.819 183.33H101.449V198.12L106.129 190.73L110.819 183.33Z" fill="#F96C41"/>
</g>
<path d="M226.44 250.91C226.18 249.55 224.87 248.67 223.52 248.92C223.35 248.96 206 252.08 194.42 242.06C194.05 241.74 193.61 241.55 193.15 241.48V241.45C193.08 241.45 193.01 241.45 192.94 241.46C192.87 241.46 192.8 241.44 192.73 241.45V241.48C192.28 241.55 191.83 241.74 191.46 242.06C179.88 252.08 162.54 248.96 162.36 248.92C161.01 248.66 159.7 249.55 159.44 250.91C159.18 252.27 160.07 253.58 161.43 253.83C161.68 253.88 163.64 254.24 166.64 254.38C172.75 254.67 183.13 254.04 191.95 247.99C192.55 247.57 193.34 247.57 193.94 247.99C202.76 254.04 213.14 254.67 219.25 254.38C222.25 254.24 224.21 253.88 224.46 253.83C225.82 253.57 226.71 252.26 226.45 250.91H226.44Z" fill="black"/>
<path d="M321.291 243.26H296.361C290.164 243.26 285.141 248.283 285.141 254.48V303.67C285.141 309.867 290.164 314.89 296.361 314.89H321.291C327.487 314.89 332.511 309.867 332.511 303.67V254.48C332.511 248.283 327.487 243.26 321.291 243.26Z" fill="#98CA51"/>
<path d="M321.291 317.89H296.361C288.521 317.89 282.141 311.51 282.141 303.67V254.48C282.141 246.64 288.521 240.26 296.361 240.26H321.291C329.131 240.26 335.511 246.64 335.511 254.48V303.67C335.511 311.51 329.131 317.89 321.291 317.89ZM296.361 246.26C291.831 246.26 288.141 249.95 288.141 254.48V303.67C288.141 308.2 291.831 311.89 296.361 311.89H321.291C325.821 311.89 329.511 308.2 329.511 303.67V254.48C329.511 249.95 325.821 246.26 321.291 246.26H296.361Z" fill="black"/>
<path d="M258.991 317.13C272.831 309.46 282.841 293.94 298.001 290.15C298.531 290.02 299.101 289.91 299.591 290.15C300.001 290.36 300.271 290.78 300.471 291.21C302.121 294.73 299.861 298.89 297.441 301.85C299.661 300.62 302.091 299.4 304.541 299.86C306.991 300.32 309.151 303.3 308.021 305.69C306.901 308.05 303.431 308.43 302.681 310.95C304.991 310.78 307.371 310.62 309.561 311.45C311.751 312.27 313.701 314.35 313.761 316.84C313.831 319.91 311.221 322.17 308.861 323.88C293.181 335.25 275.361 345.73 256.541 344.02" fill="#D6AF43"/>
<path d="M260.251 319.29C267.241 315.4 273.081 309.8 279.061 304.57C280.531 303.29 282.011 302.02 283.531 300.8C283.891 300.51 284.251 300.23 284.611 299.95C284.891 299.73 284.261 300.22 284.541 300.01C284.641 299.94 284.731 299.86 284.831 299.79C285.051 299.62 285.271 299.46 285.491 299.3C286.241 298.74 287.001 298.2 287.781 297.68C289.341 296.63 290.951 295.67 292.621 294.82C293.041 294.61 293.471 294.4 293.901 294.21C294.091 294.12 294.281 294.04 294.471 293.96C294.791 293.82 294.041 294.13 294.361 294C294.501 293.94 294.631 293.89 294.771 293.83C295.651 293.48 296.551 293.17 297.451 292.9C297.951 292.75 298.461 292.65 298.961 292.5C299.321 292.39 298.541 292.54 298.901 292.52C299.091 292.52 299.031 292.52 298.731 292.5L298.091 292.12C298.361 292.32 298.131 292.04 298.041 292.01C298.131 292.04 298.221 292.33 298.261 292.4C298.431 292.68 298.141 292.01 298.241 292.34C298.291 292.5 298.351 292.65 298.391 292.81C298.421 292.93 298.451 293.06 298.481 293.19C298.591 293.62 298.461 293.1 298.481 293.09C298.521 293.09 298.521 293.97 298.521 294.05C298.521 294.15 298.521 294.24 298.501 294.34C298.461 294.85 298.591 294.43 298.511 294.35C298.581 294.42 298.351 295.14 298.321 295.22C298.241 295.51 298.151 295.8 298.051 296.08C298.001 296.21 297.951 296.33 297.911 296.46C298.031 296.13 297.981 296.3 297.881 296.52C297.751 296.8 297.611 297.08 297.461 297.36C297.181 297.88 296.871 298.38 296.541 298.88C296.371 299.14 296.191 299.39 296.011 299.64C295.931 299.75 295.851 299.86 295.771 299.97C296.031 299.63 295.801 299.93 295.661 300.09C294.871 301.07 294.651 302.32 295.461 303.37C296.231 304.36 297.581 304.62 298.691 304.01C299.231 303.71 299.781 303.41 300.341 303.14C300.421 303.1 301.271 302.72 300.801 302.91C301.081 302.79 301.371 302.69 301.661 302.59C301.951 302.49 302.241 302.41 302.531 302.35C302.651 302.32 303.301 302.24 302.751 302.29C303.041 302.26 303.341 302.25 303.641 302.25C303.791 302.25 303.941 302.26 304.091 302.28C303.821 302.24 303.801 302.25 304.031 302.28C304.131 302.3 304.241 302.33 304.341 302.37C304.591 302.46 304.551 302.44 304.201 302.29C304.221 302.26 304.731 302.57 304.781 302.6C304.851 302.64 304.921 302.69 304.991 302.74C305.141 302.85 305.081 302.8 304.821 302.6C304.911 302.59 305.241 302.99 305.311 303.06C305.391 303.14 305.461 303.23 305.531 303.31C305.311 303.02 305.281 302.99 305.441 303.21C305.471 303.26 305.801 303.76 305.771 303.79C305.631 303.44 305.611 303.39 305.711 303.65C305.751 303.75 305.781 303.86 305.811 303.96C305.841 304.06 305.861 304.17 305.881 304.27C305.841 303.9 305.831 303.81 305.841 304C305.841 304.06 305.811 304.54 305.841 304.56C305.901 304.16 305.911 304.1 305.851 304.37C305.821 304.48 305.791 304.58 305.761 304.68C305.911 304.35 305.931 304.3 305.821 304.53C305.771 304.62 305.721 304.7 305.671 304.79C305.481 305.16 306.071 304.37 305.611 304.86C305.481 305 305.331 305.14 305.191 305.26L305.081 305.35C304.881 305.51 304.931 305.47 305.231 305.23C304.931 305.3 304.501 305.73 304.231 305.9C302.491 307.01 300.961 308.21 300.291 310.25C299.811 311.72 301.111 313.53 302.701 313.41C304.041 313.31 305.401 313.22 306.741 313.32C306.731 313.32 307.461 313.39 307.071 313.34C306.681 313.29 307.411 313.4 307.401 313.4C307.691 313.46 307.981 313.52 308.271 313.61C308.411 313.65 308.551 313.71 308.701 313.75C309.381 313.94 308.391 313.58 308.721 313.75C308.991 313.88 309.251 314.01 309.511 314.17C309.641 314.25 309.761 314.34 309.891 314.42C310.111 314.56 310.091 314.43 309.811 314.36C309.991 314.41 310.211 314.72 310.341 314.85C310.421 314.94 310.501 315.03 310.591 315.12C310.401 314.81 311.001 315.53 310.591 315.12C310.751 315.38 310.921 315.62 311.061 315.89L311.101 315.97C311.221 316.22 311.201 316.19 311.061 315.87C311.101 315.9 311.171 316.2 311.171 316.21C311.201 316.33 311.231 316.45 311.261 316.56C311.391 317.05 311.261 316.45 311.261 316.44C311.311 316.51 311.331 317.31 311.261 317.37C311.261 317.37 311.391 316.74 311.281 317.24C311.241 317.41 311.211 317.59 311.151 317.76C311.121 317.87 311.081 317.98 311.041 318.1C310.891 318.56 311.041 318.01 311.091 317.99C311.001 318.02 310.761 318.61 310.711 318.7C310.641 318.81 310.161 319.58 310.531 319.01C310.371 319.26 310.131 319.49 309.931 319.71C309.571 320.09 309.181 320.45 308.781 320.8C308.571 320.98 308.351 321.16 308.131 321.33C307.721 321.66 308.201 321.28 308.201 321.28C308.201 321.28 307.781 321.59 307.761 321.6C305.631 323.16 303.461 324.68 301.271 326.15C296.801 329.16 292.191 331.99 287.381 334.43C286.211 335.02 285.031 335.6 283.831 336.14C283.271 336.4 282.701 336.64 282.141 336.89C282.021 336.94 281.571 337.13 282.041 336.93C281.911 336.99 281.771 337.04 281.641 337.1C281.311 337.24 280.971 337.37 280.641 337.5C278.251 338.44 275.811 339.27 273.321 339.93C271.921 340.3 270.511 340.63 269.081 340.9C268.351 341.04 267.621 341.15 266.891 341.26C266.781 341.28 266.401 341.33 266.931 341.26C266.721 341.29 266.511 341.31 266.301 341.34C265.951 341.38 265.601 341.42 265.251 341.45C262.361 341.73 259.451 341.75 256.561 341.49C255.251 341.37 254.001 342.72 254.061 343.99C254.131 345.44 255.161 346.37 256.561 346.49C267.981 347.5 279.201 344.09 289.321 339.04C294.411 336.5 299.271 333.52 303.991 330.34C306.291 328.79 308.591 327.21 310.811 325.53C313.031 323.85 315.181 321.86 315.991 319.09C317.001 315.64 315.361 312.25 312.581 310.21C309.801 308.17 306.071 308.18 302.721 308.43L305.131 311.59C305.261 311.18 304.831 312.07 305.131 311.58C305.201 311.47 305.471 311.15 305.201 311.42C304.891 311.73 305.301 311.31 305.371 311.24C305.471 311.14 305.751 310.97 305.801 310.85C305.801 310.85 305.371 311.16 305.581 311.02C305.641 310.98 305.701 310.93 305.761 310.89C305.901 310.79 306.051 310.69 306.191 310.6C306.481 310.41 306.781 310.22 307.081 310.03C308.661 309 310.091 307.74 310.641 305.87C311.281 303.72 310.491 301.53 309.141 299.85C307.791 298.17 305.791 297.31 303.691 297.24C301.011 297.16 298.501 298.41 296.221 299.67L299.251 303.6C300.901 301.56 302.371 299.35 303.121 296.81C303.871 294.27 303.771 291.22 302.111 289.06C300.151 286.53 296.891 287.72 294.401 288.63C292.391 289.36 290.441 290.26 288.581 291.3C281.191 295.44 275.131 301.54 268.751 307.01C267.851 307.78 266.951 308.54 266.031 309.28C265.601 309.63 265.161 309.98 264.721 310.32C264.361 310.6 264.741 310.32 264.791 310.27C264.671 310.39 264.491 310.5 264.351 310.61C264.101 310.8 263.861 310.98 263.611 311.16C261.741 312.54 259.811 313.82 257.781 314.95C256.641 315.59 256.161 317.25 256.881 318.37C257.601 319.49 259.081 319.95 260.301 319.27L260.251 319.29Z" fill="black"/>
<path d="M108.781 370.51C135.741 370.78 162.541 364.78 187.711 355.12C212.881 345.46 236.531 332.17 259.201 317.56C260.351 316.82 261.541 316.02 262.151 314.8C262.761 313.58 262.471 311.81 261.221 311.26C260.511 310.95 259.701 311.09 258.941 311.24C211.931 320.7 167.761 342.83 120.101 348.12L113.381 348.82L108.791 370.5L108.781 370.51Z" fill="#3F2E05"/>
<path d="M108.781 372.01C120.131 372.11 131.481 371.12 142.671 369.22C153.841 367.33 164.861 364.53 175.631 361C186.291 357.51 196.711 353.32 206.891 348.61C217.071 343.9 226.911 338.71 236.591 333.15C241.391 330.39 246.141 327.54 250.851 324.62C253.221 323.15 255.591 321.66 257.941 320.16C260.041 318.82 262.741 317.51 263.681 315.03C264.511 312.83 263.431 310.03 260.941 309.64C259.561 309.43 258.111 309.88 256.761 310.16C255.411 310.44 254.111 310.72 252.791 311.02C247.421 312.22 242.081 313.57 236.771 315.03C226.131 317.95 215.611 321.29 205.111 324.69C194.611 328.09 184.231 331.54 173.721 334.72C163.211 337.9 152.611 340.81 141.861 343.07C133.331 344.87 124.731 346.14 116.061 347.05C115.161 347.14 114.271 347.24 113.371 347.33C112.741 347.4 112.071 347.75 111.921 348.43C110.581 354.75 109.241 361.08 107.901 367.4C107.711 368.3 107.521 369.21 107.331 370.11C106.931 371.99 109.821 372.8 110.221 370.91C111.561 364.59 112.901 358.26 114.241 351.94C114.431 351.04 114.621 350.13 114.811 349.23L113.361 350.33C120.141 349.62 126.891 348.86 133.611 347.7C144.191 345.87 154.641 343.32 164.971 340.4C175.351 337.47 185.631 334.17 195.881 330.84C206.161 327.5 216.421 324.11 226.771 321.02C237.101 317.93 247.521 315.13 258.081 312.95C258.671 312.83 259.281 312.66 259.891 312.6C260.211 312.57 260.601 312.6 260.711 312.71C261.151 313.17 260.921 314.04 260.531 314.56C259.881 315.44 258.851 316 257.951 316.58C256.841 317.3 255.721 318.01 254.601 318.72C249.961 321.66 245.291 324.54 240.561 327.34C231.161 332.91 221.571 338.18 211.751 342.98C201.941 347.77 191.901 352.1 181.631 355.78C171.361 359.46 160.501 362.61 149.631 364.86C138.761 367.11 127.851 368.51 116.821 368.9C114.141 369 111.451 369.03 108.771 369C106.841 368.98 106.841 371.98 108.771 372L108.781 372.01Z" fill="black"/>
<path d="M119.951 313.07C112.661 316.66 106.301 322.13 101.651 328.8C98.6108 333.15 96.3208 337.98 94.3508 342.91C93.6708 344.61 93.0108 346.37 91.8308 347.77C90.4008 349.48 88.3208 350.56 86.9808 352.34C85.6408 354.12 85.5008 357.2 87.5208 358.13C88.9808 358.8 90.6608 357.98 92.0508 357.17C91.9808 359.52 93.4908 361.84 95.6708 362.72C97.8508 363.6 100.551 362.99 102.141 361.26C101.621 363.14 103.081 365.1 104.891 365.83C106.701 366.56 108.721 366.39 110.651 366.2C111.181 366.15 111.731 366.09 112.171 365.8C112.761 365.41 113.031 364.69 113.271 364.01C115.401 357.86 117.521 351.71 119.651 345.56" fill="#D6AF43"/>
<path d="M118.441 310.48C110.211 314.56 103.181 320.92 98.1706 328.61C95.4206 332.84 93.3206 337.44 91.4506 342.12C91.3406 342.38 91.2406 342.65 91.1406 342.91C91.0906 343.04 91.0306 343.17 90.9806 343.3C90.9506 343.37 90.8106 343.71 90.9706 343.33C91.1306 342.93 90.9506 343.36 90.9106 343.46C90.8506 343.59 90.7906 343.72 90.7306 343.85C90.5906 344.14 90.4506 344.42 90.3006 344.7C90.1606 344.95 90.0206 345.19 89.8706 345.42C89.7906 345.54 89.7106 345.65 89.6306 345.77C89.5906 345.83 89.4006 346.14 89.6106 345.8C89.8206 345.46 89.5906 345.8 89.5106 345.89C89.4206 345.99 89.3306 346.09 89.2306 346.18C89.0206 346.4 88.8006 346.61 88.5706 346.81C86.9206 348.29 84.9206 349.55 83.9206 351.61C82.6706 354.17 82.5606 357.33 84.5206 359.58C85.5606 360.77 87.2306 361.44 88.8006 361.39C90.5206 361.33 92.0906 360.62 93.5606 359.78C92.0606 358.92 90.5506 358.05 89.0506 357.19C89.0106 360.78 91.2306 364.1 94.5206 365.48C97.8006 366.86 101.821 365.98 104.261 363.4C102.591 362.43 100.921 361.45 99.2506 360.48C98.5106 363.53 100.091 366.53 102.721 368.11C105.161 369.57 108.131 369.49 110.851 369.2C111.791 369.1 112.671 368.98 113.511 368.51C114.291 368.08 114.951 367.39 115.401 366.62C116.091 365.44 116.441 364.01 116.891 362.73C117.781 360.16 118.671 357.59 119.561 355.02C120.561 352.14 121.551 349.26 122.551 346.38C123.061 344.9 121.961 343.03 120.451 342.69C118.781 342.31 117.311 343.2 116.761 344.79C115.241 349.19 113.721 353.59 112.201 357.99C111.821 359.08 111.451 360.17 111.071 361.26C110.881 361.8 110.691 362.35 110.501 362.89C110.421 363.12 110.341 363.35 110.261 363.58C110.091 364.05 110.471 362.98 110.231 363.6C110.101 363.94 110.671 363.19 110.391 363.42C110.141 363.62 110.691 363.22 110.671 363.24C110.311 363.47 110.691 363.1 110.851 363.18C110.821 363.17 110.601 363.24 110.561 363.25C110.261 363.35 110.841 363.21 110.861 363.21C110.741 363.2 110.571 363.24 110.441 363.25C110.141 363.28 109.841 363.31 109.541 363.33C109.051 363.37 108.561 363.39 108.071 363.39C107.811 363.39 107.551 363.39 107.281 363.37C107.171 363.37 107.061 363.35 106.951 363.34C106.571 363.32 107.541 363.47 106.981 363.34C106.691 363.27 106.411 363.19 106.121 363.12C106.031 363.1 105.701 362.94 106.081 363.12C106.521 363.33 105.971 363.05 105.921 363.03C105.841 362.99 105.761 362.94 105.681 362.89C105.411 362.72 105.431 362.54 105.761 362.98C105.641 362.82 105.431 362.69 105.291 362.53C105.211 362.45 104.941 362.12 105.231 362.48C105.521 362.84 105.261 362.5 105.201 362.41C105.141 362.31 105.091 362.19 105.021 362.09C104.841 361.8 105.181 362.64 105.121 362.31C105.101 362.2 105.061 362.08 105.021 361.97C104.901 361.67 105.031 362.57 105.051 362.25C105.051 362.17 105.051 362.07 105.051 361.99C105.021 361.39 104.901 362.68 105.051 362.08C105.351 360.83 104.861 359.32 103.671 358.69C102.481 358.06 100.971 358.17 100.031 359.16C99.9506 359.25 99.8606 359.33 99.7806 359.42C99.7006 359.5 99.2806 359.83 99.6706 359.54C100.041 359.26 99.6906 359.52 99.6106 359.57C99.5106 359.64 99.4106 359.7 99.3006 359.76C99.1906 359.82 98.9906 359.89 98.9006 359.97C98.9806 359.89 99.5106 359.74 99.1206 359.88C98.8906 359.96 98.6606 360.03 98.4306 360.09C98.2806 360.13 98.1306 360.15 97.9906 360.18C97.6206 360.26 98.6206 360.15 98.2506 360.14C98.0106 360.14 97.7706 360.16 97.5306 360.15C97.0306 360.13 97.4806 360.13 97.7006 360.2C97.5906 360.17 97.4606 360.16 97.3506 360.13C97.2406 360.1 97.1206 360.07 97.0006 360.04C96.8806 360.01 96.4006 359.8 96.8506 360.01C97.3006 360.22 96.6006 359.88 96.4806 359.8C96.3806 359.74 96.2806 359.67 96.1806 359.61C95.8706 359.43 96.6706 360.05 96.2906 359.7C96.1106 359.54 95.9406 359.38 95.7706 359.2C95.6906 359.11 95.6206 359.01 95.5306 358.93C96.0206 359.39 95.7706 359.24 95.6306 359.03C95.5006 358.83 95.3806 358.62 95.2706 358.4C95.0406 357.95 95.3106 358.33 95.3206 358.54C95.3206 358.43 95.2406 358.3 95.2006 358.2C95.1306 357.97 95.1106 357.72 95.0306 357.5C95.2506 358.13 95.0806 357.97 95.0706 357.67C95.0706 357.52 95.0706 357.37 95.0706 357.22C95.1006 354.92 92.5106 353.51 90.5606 354.63C90.3406 354.75 90.1306 354.88 89.9106 354.99C89.8006 355.05 89.3006 355.21 89.2306 355.32C89.3606 355.09 89.7206 355.16 89.3506 355.26C89.2106 355.3 89.0806 355.35 88.9506 355.38C88.8506 355.41 88.7506 355.42 88.6506 355.45C88.2906 355.55 89.2906 355.43 88.7406 355.42C88.1906 355.41 89.4106 355.53 88.6506 355.39C88.3306 355.33 88.9306 355.48 88.9506 355.52C88.9506 355.52 88.7406 355.38 88.7106 355.37C88.7406 355.37 89.2906 355.88 89.0006 355.57C88.9206 355.48 88.7806 355.29 89.0506 355.67C89.4406 356.21 88.9006 355.48 88.9306 355.39C88.9706 355.28 89.1006 356.11 89.1106 355.78C89.1106 355.72 89.0706 355.63 89.0506 355.58C89.0506 355.58 88.9706 355.32 88.9906 355.3C89.0206 355.26 89.0406 356.16 89.0506 355.66C89.0506 355.49 89.0506 355.31 89.0506 355.14C89.0506 354.51 88.8906 355.81 89.0506 355.18C89.0906 355 89.1306 354.83 89.1906 354.66C89.2206 354.58 89.2806 354.45 89.2906 354.37C89.2906 354.36 88.9906 354.98 89.1406 354.73C89.2306 354.58 89.3006 354.41 89.3906 354.26C89.4106 354.22 89.5406 354.07 89.5506 354.01C89.5006 354.23 89.1306 354.52 89.4906 354.1C90.7906 352.58 92.5806 351.58 93.8906 350.08C95.5406 348.19 96.4306 345.94 97.3506 343.63C97.5506 343.13 97.7106 342.51 98.0006 342.05C98.0006 342.07 97.7806 342.56 97.9206 342.24C97.9606 342.14 98.0106 342.03 98.0506 341.93C98.1806 341.62 98.3206 341.3 98.4606 340.99C98.9006 339.98 99.3706 338.99 99.8506 338C100.851 335.96 101.951 333.96 103.171 332.05C103.741 331.16 104.341 330.28 104.961 329.43C105.101 329.24 105.251 329.05 105.391 328.85C105.701 328.43 105.341 328.91 105.291 328.97C105.371 328.86 105.461 328.75 105.541 328.65C105.861 328.25 106.181 327.85 106.511 327.46C107.811 325.92 109.211 324.46 110.691 323.09C111.541 322.3 112.421 321.54 113.331 320.82C113.491 320.69 114.201 320.22 113.531 320.66C113.761 320.51 113.971 320.33 114.191 320.17C114.661 319.82 115.131 319.49 115.611 319.16C117.501 317.87 119.481 316.71 121.531 315.69C122.941 314.99 123.441 312.88 122.611 311.59C121.681 310.15 120.011 309.77 118.511 310.51L118.441 310.48Z" fill="black"/>
</g>
<defs>
<clipPath id="clip0_873_2299">
<rect width="380.54" height="573" fill="white" transform="translate(0.740234)"/>
</clipPath>
</defs>
</svg>
