<svg width="382" height="573" viewBox="0 0 382 573" fill="none" xmlns="http://www.w3.org/2000/svg">
<g clip-path="url(#clip0_873_1620)">
<path d="M359.137 0H23.1372C10.8378 0 0.867188 9.97062 0.867188 22.27V550.73C0.867188 563.029 10.8378 573 23.1372 573H359.137C371.437 573 381.407 563.029 381.407 550.73V22.27C381.407 9.97062 371.437 0 359.137 0Z" fill="white"/>
<path d="M320.098 95.66C338.875 95.66 354.098 80.4377 354.098 61.66C354.098 42.8823 338.875 27.66 320.098 27.66C301.32 27.66 286.098 42.8823 286.098 61.66C286.098 80.4377 301.32 95.66 320.098 95.66Z" fill="#98CA51"/>
<path d="M324.987 44.9999V78.5155H316.964V54.8206H311.656V50.767C312.548 50.3491 313.356 49.9172 314.08 49.4715C314.721 49.0814 315.334 48.6078 315.919 48.0506C316.532 47.4934 317.005 46.8805 317.34 46.2118C317.535 45.6825 317.897 45.3621 318.426 45.2507C318.956 45.1114 319.624 45.0278 320.432 44.9999H324.987Z" fill="white"/>
<path d="M83.2477 441.125V525.808H62.9744V465.938H49.5645V455.696C51.817 454.64 53.8584 453.549 55.6887 452.423C57.3077 451.437 58.8564 450.24 60.3346 448.833C61.8833 447.425 63.08 445.876 63.9247 444.187C64.4174 442.849 65.3326 442.04 66.67 441.758C68.0075 441.406 69.6969 441.195 71.7384 441.125H83.2477Z" fill="#98CA51"/>
<path d="M263.267 386.31H115.007C110.777 357.19 108.237 322.27 117.527 304.48L264.897 302C270.777 329.04 269.367 357.29 263.267 386.31Z" fill="#D6AF43"/>
<path d="M190.146 391.81C190.146 391.81 139.036 402.64 114.606 399.43C111.516 399.03 109.206 396.26 109.336 393.15C109.496 389.17 114.196 386.42 117.086 384.28C111.636 372.46 105.326 360.41 105.316 347.39C105.296 334.43 111.536 322.38 117.616 310.93" fill="#D6AF43"/>
<path d="M189.217 388.43C187.117 388.88 184.997 389.28 182.887 389.69C177.657 390.69 172.407 391.61 167.137 392.45C163.347 393.05 159.557 393.62 155.757 394.13L156.687 394C150.857 394.78 144.997 395.45 139.137 395.91C133.627 396.35 128.097 396.62 122.567 396.49C119.907 396.43 117.247 396.27 114.607 395.93L115.537 396.06C115.217 396.01 114.907 395.95 114.607 395.86C114.477 395.82 114.337 395.75 114.197 395.72C114.967 395.87 114.777 395.98 114.417 395.8C114.167 395.67 113.937 395.52 113.697 395.36C113.167 395.02 114.317 395.93 113.877 395.49C113.777 395.39 113.677 395.3 113.577 395.2C113.477 395.1 113.387 395 113.297 394.89C112.917 394.47 113.707 395.48 113.487 395.14C113.317 394.88 113.147 394.63 113.007 394.35C112.937 394.22 112.727 393.73 112.977 394.31C113.227 394.89 113.027 394.4 112.977 394.25C112.877 393.92 112.807 393.59 112.757 393.25L112.887 394.18C112.827 393.67 112.817 393.17 112.887 392.66L112.757 393.59C112.787 393.38 112.827 393.18 112.877 392.97C112.917 392.8 113.217 392.02 112.947 392.64C112.677 393.26 112.997 392.56 113.077 392.41C113.187 392.2 113.317 391.99 113.447 391.79C113.507 391.7 113.577 391.61 113.637 391.52C113.897 391.13 113.407 391.8 113.387 391.84C113.457 391.64 113.737 391.42 113.877 391.27C114.207 390.91 114.557 390.57 114.917 390.25C115.277 389.93 115.617 389.65 115.987 389.35C116.437 388.99 115.427 389.78 115.757 389.52C115.847 389.45 115.937 389.38 116.037 389.31C116.217 389.17 116.407 389.04 116.587 388.9C117.337 388.35 118.107 387.82 118.857 387.27C119.607 386.72 120.257 386.1 120.467 385.18C120.677 384.26 120.527 383.38 120.117 382.48C118.317 378.58 116.457 374.7 114.737 370.76C114.527 370.28 114.317 369.79 114.107 369.3C114.137 369.37 114.427 370.07 114.197 369.51C114.157 369.41 114.107 369.3 114.067 369.2C113.947 368.92 113.837 368.64 113.727 368.36C113.317 367.35 112.917 366.34 112.547 365.31C111.807 363.32 111.137 361.3 110.577 359.25C109.937 356.93 109.437 354.58 109.107 352.19L109.237 353.12C108.717 349.28 108.717 345.41 109.227 341.56L109.097 342.49C109.677 338.29 110.817 334.19 112.287 330.21C112.657 329.22 113.037 328.25 113.437 327.27C113.497 327.13 113.557 326.99 113.607 326.85C113.607 326.84 113.317 327.52 113.477 327.17C113.587 326.93 113.687 326.68 113.787 326.44C113.997 325.96 114.217 325.47 114.427 324.99C115.317 323.03 116.257 321.09 117.237 319.16C118.347 316.97 119.487 314.81 120.637 312.64C121.497 311.02 121.097 308.76 119.377 307.85C117.757 306.99 115.507 307.38 114.587 309.11C109.697 318.33 104.657 327.85 102.717 338.21C102.207 340.92 101.877 343.68 101.817 346.44C101.757 349.2 102.027 352.04 102.447 354.81C103.217 359.85 104.787 364.74 106.667 369.47C108.897 375.08 111.527 380.51 114.057 385.99L115.317 381.2C111.257 384.21 106.477 387.11 105.877 392.62C105.577 395.39 106.777 398.38 108.807 400.27C109.947 401.34 111.317 402.15 112.827 402.57C113.877 402.87 115.017 402.93 116.097 403.05C123.207 403.79 130.427 403.49 137.547 402.98C145.707 402.39 153.837 401.39 161.937 400.22C168.497 399.27 175.047 398.19 181.567 396.98C184.687 396.4 187.857 395.89 190.947 395.15C190.987 395.14 191.037 395.13 191.077 395.12C192.867 394.74 194.077 392.54 193.517 390.81C192.907 388.92 191.137 387.96 189.207 388.37L189.217 388.43Z" fill="black"/>
<path d="M190.146 391.81C190.146 391.81 241.256 402.64 265.686 399.43C268.776 399.03 271.086 396.26 270.956 393.15C270.796 389.17 266.096 386.42 263.206 384.28C268.656 372.46 274.966 360.41 274.976 347.39C274.996 334.43 268.756 322.38 262.676 310.93" fill="#D6AF43"/>
<path d="M189.217 395.18C191.767 395.72 194.317 396.21 196.877 396.69C203.117 397.86 209.367 398.93 215.647 399.87C223.697 401.08 231.777 402.12 239.887 402.81C247.187 403.42 254.557 403.82 261.877 403.31C262.667 403.25 263.467 403.19 264.257 403.1C265.377 402.98 266.557 402.92 267.637 402.58C270.647 401.63 272.877 399.37 273.957 396.44C274.927 393.82 274.477 390.75 272.987 388.42C271.497 386.09 269.507 384.54 267.387 382.99C266.587 382.41 265.777 381.84 264.977 381.26C265.397 382.86 265.817 384.45 266.237 386.05C270.607 376.57 275.547 367.06 277.527 356.73C278.047 354.03 278.397 351.27 278.477 348.52C278.557 345.71 278.307 342.92 277.897 340.14C277.147 335.09 275.577 330.19 273.627 325.48C271.317 319.89 268.547 314.52 265.717 309.18C264.857 307.56 262.477 306.93 260.927 307.92C259.277 308.98 258.747 310.98 259.667 312.71C261.687 316.51 263.697 320.32 265.497 324.23C265.937 325.19 266.367 326.16 266.787 327.13C266.867 327.31 267.027 327.75 266.697 326.92C266.737 327.02 266.787 327.13 266.827 327.23C266.927 327.47 267.027 327.72 267.127 327.96C267.327 328.45 267.517 328.94 267.707 329.43C268.467 331.42 269.157 333.43 269.727 335.48C270.377 337.8 270.887 340.16 271.217 342.54L271.087 341.61C271.597 345.46 271.587 349.32 271.077 353.17L271.207 352.24C270.627 356.44 269.497 360.53 268.067 364.51C267.697 365.53 267.317 366.55 266.917 367.56C266.727 368.05 266.527 368.54 266.327 369.03C266.277 369.16 265.977 369.67 266.027 369.76C266.027 369.76 266.307 369.09 266.157 369.45C266.087 369.62 266.007 369.8 265.937 369.97C265.087 371.95 264.197 373.91 263.297 375.87C262.267 378.09 261.227 380.3 260.197 382.52C259.807 383.36 259.547 384.29 259.847 385.22C260.147 386.14 260.687 386.74 261.457 387.31C262.187 387.85 262.927 388.36 263.657 388.89C263.837 389.02 264.027 389.16 264.207 389.3C264.297 389.37 264.387 389.44 264.487 389.51C265.007 389.9 263.957 389.09 264.257 389.33C264.637 389.64 265.027 389.95 265.387 390.28C265.727 390.59 266.057 390.9 266.367 391.24C266.537 391.42 266.697 391.62 266.867 391.81C267.137 392.11 266.407 391.16 266.627 391.49C266.687 391.58 266.757 391.67 266.817 391.76C266.947 391.96 267.537 392.69 267.477 392.95C267.477 392.95 267.167 392.08 267.297 392.55C267.337 392.68 267.377 392.8 267.417 392.92C267.477 393.15 267.527 393.38 267.557 393.61L267.427 392.68C267.487 393.19 267.477 393.69 267.427 394.2L267.557 393.27C267.507 393.58 267.447 393.88 267.357 394.18C267.317 394.31 267.247 394.45 267.227 394.58C267.367 393.83 267.497 393.98 267.307 394.36C267.177 394.61 267.027 394.84 266.877 395.08C266.557 395.61 267.447 394.45 267.017 394.9C266.917 395 266.827 395.11 266.737 395.21C266.647 395.31 266.537 395.4 266.437 395.5C266.027 395.88 267.027 395.09 266.687 395.32C266.427 395.49 266.177 395.66 265.897 395.81C265.767 395.88 265.277 396.09 265.857 395.85C266.437 395.61 265.937 395.81 265.797 395.85C265.467 395.95 265.127 396.02 264.777 396.08L265.707 395.95C260.777 396.59 255.767 396.63 250.807 396.47C245.027 396.29 239.247 395.82 233.497 395.21C230.207 394.86 226.917 394.46 223.627 394.02L224.557 394.15C218.147 393.29 211.747 392.28 205.367 391.17C201.307 390.46 197.247 389.71 193.207 388.89C192.497 388.75 191.797 388.61 191.097 388.46C189.307 388.08 187.227 388.99 186.787 390.9C186.387 392.66 187.317 394.8 189.227 395.21L189.217 395.18Z" fill="black"/>
<path d="M117.467 310.07C116.177 309.56 117.167 309.83 115.897 309.26C113.987 308.4 112.107 307.47 110.257 306.45C106.207 304.21 102.347 301.63 98.8067 298.69C95.0967 295.59 91.7567 292.05 89.0167 288.09C81.9167 277.85 79.7867 265.5 81.9767 253.41C82.4867 250.59 83.2067 247.81 84.0867 245.09C84.0867 245.09 87.5667 227.68 114.437 205.4C113.437 202.17 112.897 198.76 112.897 195.22C112.897 175.76 129.107 159.99 149.107 159.99C166.217 159.99 180.537 171.54 184.327 187.05C184.937 186.93 187.927 186.95 189.117 186.97C190.317 186.96 193.307 186.93 193.907 187.05C197.697 171.53 212.017 159.99 229.127 159.99C249.127 159.99 265.337 175.76 265.337 195.22C265.337 198.76 264.797 202.18 263.797 205.4C290.677 227.67 294.147 245.09 294.147 245.09C295.027 247.82 295.747 250.6 296.257 253.41C298.447 265.5 296.317 277.85 289.217 288.09C286.477 292.04 283.137 295.58 279.427 298.69C277.777 300.07 276.037 301.33 274.277 302.56C271.447 304.55 268.687 306.64 265.827 308.58L262.107 310.39" fill="#D6AF43"/>
<path d="M262.117 313.89C260.817 313.89 259.577 313.17 258.967 311.92C258.117 310.18 258.847 308.09 260.587 307.24L264.077 305.54C265.677 304.45 267.297 303.28 268.867 302.14C269.997 301.32 271.127 300.5 272.267 299.7C274.157 298.37 275.717 297.23 277.187 296C280.807 292.97 283.887 289.64 286.347 286.1C292.627 277.04 294.927 265.65 292.817 254.03C292.357 251.47 291.687 248.82 290.827 246.15L290.727 245.76C290.697 245.62 286.937 229.1 261.577 208.08L259.777 206.59L260.467 204.35C261.387 201.38 261.857 198.31 261.857 195.2C261.857 177.7 247.187 163.47 229.147 163.47C213.917 163.47 200.837 173.5 197.327 187.86L196.537 191.11L193.347 190.48C192.977 190.45 191.617 190.41 189.177 190.45C186.657 190.42 185.297 190.45 184.927 190.48L181.737 191.11L180.947 187.86C177.447 173.5 164.357 163.47 149.127 163.47C131.097 163.47 116.417 177.7 116.417 195.2C116.417 198.3 116.887 201.38 117.807 204.35L118.497 206.59L116.697 208.08C91.3374 229.1 87.5774 245.61 87.5374 245.78L87.4374 246.15C86.5774 248.82 85.9074 251.47 85.4474 254.02C83.3474 265.64 85.6374 277.03 91.9174 286.09C94.3774 289.63 97.4574 292.97 101.077 296C104.327 298.7 107.997 301.19 111.967 303.38C113.677 304.32 115.487 305.23 117.347 306.06C117.867 306.3 118.277 306.5 118.637 306.76C118.677 306.77 118.717 306.79 118.767 306.81C120.567 307.52 121.447 309.55 120.737 311.35C120.027 313.15 117.997 314.03 116.197 313.32C115.587 313.08 115.087 312.87 114.607 312.5C114.567 312.48 114.527 312.46 114.477 312.44C112.437 311.52 110.457 310.54 108.587 309.5C104.227 307.09 100.197 304.36 96.5974 301.37C92.4874 297.93 88.9774 294.13 86.1674 290.07C78.8274 279.48 76.1274 266.23 78.5574 252.77C79.0674 249.96 79.7974 247.06 80.7274 244.15C81.2474 241.9 85.8274 225.16 110.487 204.15C109.777 201.22 109.417 198.22 109.417 195.2C109.417 173.85 127.227 156.47 149.127 156.47C166.607 156.47 181.767 167.42 186.957 183.44C187.567 183.44 188.297 183.44 189.177 183.45C190.017 183.44 190.717 183.44 191.317 183.44C196.517 167.43 211.677 156.47 229.147 156.47C251.037 156.47 268.857 173.84 268.857 195.2C268.857 198.22 268.497 201.22 267.787 204.15C292.447 225.17 297.027 241.91 297.547 244.15C298.477 247.06 299.207 249.96 299.717 252.77C302.157 266.23 299.457 279.48 292.107 290.07C289.297 294.13 285.787 297.93 281.687 301.36C280.037 302.74 278.337 303.98 276.307 305.41C275.197 306.19 274.087 306.99 272.987 307.79C271.307 309.01 269.577 310.26 267.807 311.46L267.377 311.71L263.657 313.52C263.167 313.76 262.647 313.87 262.127 313.87L262.117 313.89ZM193.247 190.48C193.247 190.48 193.247 190.48 193.257 190.48H193.247ZM185.007 190.48H184.997C184.997 190.48 184.997 190.48 185.007 190.48Z" fill="black"/>
<path d="M251.357 184.65C251.357 184.65 247.947 173.89 251.117 163.03C251.167 162.85 251.407 162.8 251.537 162.94L253.077 164.73C253.077 164.73 256.147 135.06 283.987 118.62C283.987 118.62 293.587 122.62 291.897 132.32C290.217 142.02 268.247 170.01 261.507 175.81C261.507 175.81 262.477 175.93 264.797 175.46C265.007 175.42 265.167 175.66 265.037 175.83C263.877 177.37 259.747 182.12 251.357 184.63V184.65Z" fill="#EF6600"/>
<path d="M249.387 188.37L248.497 185.56C248.347 185.09 244.847 173.79 248.237 162.19C248.577 161.05 249.507 160.18 250.677 159.93C250.747 159.92 250.807 159.9 250.877 159.89C252.937 150.61 259.947 129.33 282.457 116.04L283.747 115.28L285.137 115.86C289.217 117.56 296.507 123.3 294.847 132.84C293.287 141.8 276.847 163.8 267.577 173.96C267.577 173.96 267.577 173.97 267.587 173.98C268.307 175.13 268.247 176.57 267.437 177.65C265.887 179.71 261.297 184.81 252.217 187.52L249.387 188.36V188.37ZM252.957 169.23C252.477 173.82 252.987 178.02 253.497 180.71C255.187 180 256.617 179.21 257.817 178.41L254.377 178L259.547 173.55C266.517 167.55 287.487 140.19 288.937 131.82C289.867 126.46 286.147 123.36 284.087 122.08C259.257 137.67 256.087 164.78 256.057 165.05L255.317 171.97L252.967 169.22L252.957 169.23ZM249.247 164.9C249.247 164.9 249.247 164.9 249.247 164.91V164.9Z" fill="#0F0F0F"/>
<path d="M291.857 127.81C290.547 121.37 283.977 118.63 283.977 118.63C282.037 119.77 280.227 120.98 278.517 122.24C278.477 122.37 273.997 136.97 291.857 127.81Z" fill="#3FC9B1"/>
<path d="M282.477 133.82C280.487 133.82 278.857 133.28 277.567 132.19C273.597 128.87 275.277 122.59 275.647 121.36L275.937 120.41L276.737 119.82C278.587 118.46 280.507 117.19 282.447 116.04L283.747 115.28L285.137 115.86C285.467 116 293.187 119.31 294.797 127.21L295.257 129.44L293.237 130.48C288.887 132.71 285.327 133.82 282.487 133.82H282.477ZM281.167 124.03C280.887 125.5 280.917 127.17 281.417 127.59C281.427 127.6 282.767 128.62 288.137 126.26C287.057 124.22 285.277 122.84 284.067 122.08C283.087 122.7 282.117 123.35 281.167 124.02V124.03Z" fill="#0F0F0F"/>
<path d="M276.095 135.74L263.945 137.37C263.105 138.6 262.315 139.87 261.565 141.16C261.175 141.83 260.795 142.5 260.425 143.18C260.055 143.86 259.605 144.5 259.355 145.19C259.605 145.27 259.975 145.18 260.245 145.16L261.835 145.04C263.235 144.94 264.635 144.83 266.035 144.73C267.435 144.63 268.935 144.51 270.385 144.4L276.185 158.77C277.855 156.57 279.515 154.3 281.105 152.04L276.095 135.75V135.74Z" fill="#FFB727"/>
<path d="M275.386 164.79L268.436 147.55L260.466 148.15C260.006 148.21 259.256 148.31 258.426 148.04L255.496 147.09L256.526 144.19C256.796 143.42 257.196 142.76 257.506 142.22C257.606 142.06 257.696 141.9 257.786 141.74C258.166 141.04 258.566 140.35 258.966 139.66C259.816 138.21 260.626 136.91 261.466 135.69L262.216 134.59L278.216 132.44L284.406 152.56L283.566 153.76C282.016 155.97 280.336 158.27 278.576 160.58L275.376 164.79H275.386ZM272.356 141.24L276.966 152.68C277.246 152.29 277.526 151.9 277.806 151.51L273.976 139.06L265.686 140.17C265.346 140.7 265.006 141.25 264.656 141.82L272.356 141.24Z" fill="#0F0F0F"/>
<path d="M248.887 192.78C248.887 192.78 248.957 192.47 249.087 191.89C249.217 191.31 249.407 190.46 249.697 189.4C249.987 188.33 250.337 187.03 250.777 185.56C250.997 184.82 251.237 184.04 251.487 183.21C251.737 182.38 252.047 181.53 252.347 180.62C252.927 178.81 253.657 176.89 254.417 174.84C254.797 173.82 255.237 172.79 255.657 171.72C256.087 170.66 256.507 169.57 256.997 168.48C257.967 166.31 258.917 164.03 260.047 161.79C260.597 160.66 261.147 159.53 261.707 158.39C262.297 157.27 262.897 156.14 263.487 155.01C264.657 152.74 265.967 150.55 267.227 148.37C267.547 147.83 267.857 147.28 268.167 146.75C268.477 146.21 268.837 145.7 269.157 145.17C269.827 144.13 270.487 143.1 271.137 142.09C272.387 140.05 273.797 138.18 275.067 136.37C275.707 135.47 276.317 134.59 276.937 133.76C277.587 132.94 278.207 132.15 278.807 131.39C280.007 129.88 281.087 128.47 282.117 127.28C283.157 126.1 284.067 125.07 284.817 124.22C285.557 123.37 286.167 122.72 286.567 122.26C286.977 121.81 287.187 121.57 287.187 121.57C287.187 121.57 286.997 121.83 286.627 122.31C286.257 122.79 285.737 123.5 285.047 124.38C284.357 125.27 283.527 126.35 282.567 127.58C282.077 128.19 281.627 128.89 281.117 129.6C280.607 130.31 280.077 131.06 279.517 131.84C278.957 132.62 278.377 133.43 277.777 134.27C277.207 135.13 276.617 136.02 276.007 136.93C274.807 138.77 273.487 140.66 272.277 142.71C271.037 144.75 269.707 146.82 268.497 149.01C267.877 150.09 267.247 151.19 266.627 152.28C265.847 153.6 265.207 154.99 264.437 156.32C263.927 157.3 263.407 158.27 262.897 159.25C262.387 160.29 261.877 161.32 261.367 162.35C260.237 164.57 259.227 166.8 258.217 168.95C257.697 170.02 257.267 171.1 256.797 172.14C256.347 173.19 255.877 174.2 255.457 175.2C254.647 177.21 253.827 179.1 253.157 180.87C252.457 182.63 251.847 184.26 251.317 185.7C250.777 187.14 250.347 188.41 249.987 189.46C249.637 190.51 249.367 191.33 249.177 191.9C248.997 192.47 248.907 192.77 248.907 192.77L248.887 192.78Z" fill="#603913"/>
<path d="M251.747 193.68L245.957 192.13L246.147 191.25C246.287 190.64 246.487 189.75 246.787 188.63C247.097 187.49 247.447 186.18 247.887 184.7L248.597 182.34C248.767 181.77 248.967 181.2 249.167 180.61L249.477 179.68C249.987 178.1 250.597 176.46 251.247 174.72L251.587 173.8C251.847 173.11 252.117 172.43 252.397 171.73L253.117 169.94C253.477 169.05 253.837 168.14 254.247 167.24C254.497 166.67 254.757 166.08 255.017 165.49C255.737 163.85 256.487 162.15 257.337 160.45L258.977 157.09L260.797 153.62C261.797 151.68 262.897 149.79 263.967 147.95L265.537 145.25C265.757 144.87 265.997 144.49 266.247 144.12C266.357 143.95 266.477 143.77 266.587 143.59L268.577 140.48C269.517 138.94 270.557 137.49 271.557 136.09C271.897 135.61 272.237 135.13 272.567 134.66L273.267 133.67C273.677 133.09 274.077 132.52 274.487 131.97L277.227 128.49C278.117 127.36 278.967 126.29 279.787 125.32L282.517 122.23C283.027 121.65 283.467 121.16 283.837 120.75L284.907 119.56L289.527 123.38L288.557 124.66C288.227 125.09 287.827 125.62 287.357 126.23L284.877 129.42C284.577 129.8 284.317 130.17 284.057 130.55C283.877 130.81 283.687 131.08 283.497 131.35L280.197 135.97L278.457 138.59C278.117 139.11 277.757 139.66 277.387 140.21C276.527 141.51 275.627 142.85 274.807 144.24C274.447 144.84 274.087 145.42 273.727 146C272.837 147.45 271.907 148.95 271.077 150.46L269.187 153.77C268.787 154.44 268.447 155.1 268.087 155.8C267.747 156.46 267.397 157.12 267.027 157.77L265.267 161.15L264.017 163.68C263.117 165.45 262.287 167.23 261.497 168.95L260.907 170.22C260.587 170.87 260.327 171.49 260.057 172.11C259.877 172.54 259.687 172.96 259.497 173.38L259.027 174.46C258.747 175.1 258.467 175.73 258.207 176.35C257.907 177.09 257.607 177.83 257.307 178.55C256.817 179.72 256.347 180.85 255.947 181.94C255.237 183.73 254.637 185.33 254.107 186.76C253.587 188.17 253.157 189.42 252.807 190.44L251.747 193.68Z" fill="#0F0F0F"/>
<path d="M251.776 184.2C251.526 183.39 248.546 173.19 251.646 163C251.666 162.95 251.726 162.93 251.766 162.98L253.356 164.84C253.356 164.84 253.466 164.87 253.476 164.81C253.746 162.6 257.556 135.54 283.406 120.26C283.426 120.25 283.446 120.25 283.466 120.26C284.036 120.51 292.686 124.44 291.106 133.53C289.486 142.88 268.416 169.77 261.756 175.6C261.716 175.64 261.736 175.7 261.796 175.71C262.156 175.72 263.196 175.71 265.116 175.31C265.226 175.29 265.316 175.4 265.246 175.49C264.416 176.65 260.456 181.66 251.866 184.25C251.836 184.25 251.806 184.25 251.796 184.22L251.776 184.2Z" fill="#EF6600"/>
<path d="M254.386 177.06C252.166 171.44 251.766 164.98 251.706 163.3C251.706 163.22 251.596 163.22 251.576 163.29C248.616 173.39 251.546 183.41 251.786 184.21C251.786 184.24 251.826 184.25 251.856 184.24C260.496 181.64 264.446 176.6 265.256 175.47C265.296 175.41 265.226 175.35 265.166 175.39C260.136 178.33 254.886 177.21 254.436 177.11C254.416 177.11 254.396 177.09 254.396 177.07L254.386 177.06Z" fill="#FFB300"/>
<path d="M291.056 129.09C289.806 123.13 283.916 120.45 283.456 120.25C283.436 120.25 283.416 120.25 283.396 120.25C281.526 121.35 279.786 122.52 278.146 123.73C278.146 123.73 278.136 123.73 278.136 123.75C278.026 124.12 273.926 137.92 291.016 129.17C291.046 129.16 291.056 129.12 291.056 129.09Z" fill="#3FC9B1"/>
<path d="M264.406 147.82L272.146 163.78C272.146 163.78 272.226 163.83 272.256 163.79C273.826 161.82 275.446 159.73 277.036 157.59C277.046 157.57 277.056 157.55 277.046 157.53L272.236 141.89C272.236 141.89 272.196 141.84 272.166 141.84L260.936 143.35" fill="#3FC9B1"/>
<path d="M275.736 136.83L264.036 138.4C264.036 138.4 263.996 138.41 263.986 138.43C262.226 141 260.726 143.58 259.496 146.03L270.206 145.21C270.206 145.21 270.266 145.22 270.276 145.25L275.836 159.03C275.836 159.03 275.916 159.09 275.946 159.05C277.536 156.95 279.116 154.79 280.626 152.64C280.636 152.62 280.646 152.6 280.626 152.58L275.796 136.87C275.796 136.87 275.756 136.82 275.726 136.82L275.736 136.83Z" fill="#FFB727"/>
<path d="M249.406 192.13C249.406 192.13 249.476 191.83 249.596 191.27C249.716 190.71 249.906 189.89 250.186 188.85C250.466 187.81 250.806 186.56 251.236 185.12C251.456 184.4 251.676 183.64 251.926 182.84C252.166 182.04 252.466 181.21 252.756 180.33C253.326 178.58 254.026 176.71 254.766 174.73C255.136 173.74 255.556 172.74 255.966 171.7C256.386 170.67 256.796 169.61 257.266 168.56C258.206 166.45 259.126 164.24 260.216 162.07C260.746 160.98 261.286 159.88 261.816 158.77C262.386 157.68 262.966 156.59 263.546 155.49C264.676 153.29 265.946 151.16 267.176 149.05C267.486 148.52 267.786 148 268.086 147.48C268.386 146.96 268.736 146.46 269.046 145.95C269.696 144.94 270.336 143.94 270.966 142.96C272.176 140.98 273.546 139.17 274.776 137.42C275.396 136.55 275.986 135.69 276.586 134.88C277.216 134.09 277.816 133.32 278.396 132.58C279.566 131.11 280.606 129.75 281.606 128.59C282.616 127.44 283.496 126.45 284.226 125.62C284.946 124.8 285.536 124.16 285.926 123.72C286.316 123.28 286.526 123.05 286.526 123.05C286.526 123.05 286.336 123.3 285.986 123.76C285.626 124.22 285.116 124.91 284.446 125.77C283.776 126.63 282.966 127.68 282.036 128.87C281.556 129.46 281.126 130.14 280.626 130.83C280.136 131.52 279.616 132.25 279.076 133C278.536 133.75 277.976 134.54 277.386 135.36C276.836 136.19 276.266 137.05 275.676 137.94C274.516 139.72 273.236 141.56 272.056 143.55C270.856 145.53 269.566 147.54 268.396 149.66C267.796 150.71 267.186 151.77 266.576 152.84C265.846 154.07 265.246 155.36 264.546 156.6C264.206 157.23 263.856 157.86 263.516 158.48C262.836 159.86 262.156 161.23 261.476 162.6C260.386 164.76 259.396 166.92 258.426 169C257.926 170.04 257.506 171.09 257.056 172.09C256.616 173.1 256.166 174.09 255.756 175.06C254.966 177.01 254.176 178.84 253.526 180.56C252.846 182.27 252.256 183.85 251.736 185.25C251.216 186.65 250.796 187.88 250.446 188.9C250.106 189.92 249.846 190.72 249.666 191.26C249.496 191.81 249.406 192.1 249.406 192.1V192.13Z" fill="#603913"/>
<path d="M262.837 145.79L259.497 146.04C258.597 147.87 257.787 149.73 257.047 151.6L265.967 151.1L266.087 149.02" fill="#3FC9B1"/>
<path d="M113.187 215.17C111.017 215.17 108.917 214.47 107.197 213.16C105.127 211.58 103.817 209.21 103.597 206.67C103.227 202.41 103.107 195.7 104.597 187.92C105.377 183.87 108.767 180.84 113.037 180.4C126.347 179.01 196.247 172.49 264.727 180.35C269.287 180.87 272.847 184.45 273.197 188.87C273.817 196.74 273.387 202.6 271.917 206.29C270.517 209.81 267.037 212.11 263.047 212.14C250.167 212.24 136.617 213.17 114.077 215.14C113.777 215.17 113.487 215.18 113.187 215.18V215.17ZM115.177 191.24C114.317 196.32 114.257 200.79 114.437 204.07C139.117 202.21 239.307 201.32 262.007 201.15C262.407 199.3 262.637 196 262.327 191.15C196.907 183.8 130.377 189.7 115.177 191.25V191.24Z" fill="black"/>
<mask id="mask0_873_1620" style="mask-type:luminance" maskUnits="userSpaceOnUse" x="108" y="181" width="160" height="29">
<path d="M113.456 185.57C128.106 184.04 196.536 177.72 264.246 185.51C266.116 185.73 267.556 187.12 267.686 188.84C268.016 192.93 268.316 200.25 266.746 204.05C266.176 205.42 264.716 206.31 263.106 206.32C247.796 206.44 135.586 207.37 113.386 209.36C111.186 209.56 109.256 208.07 109.076 206.06C108.736 202.22 108.576 195.89 110.006 188.52C110.306 186.96 111.716 185.76 113.446 185.58L113.456 185.57Z" fill="white"/>
</mask>
<g mask="url(#mask0_873_1620)">
<path d="M212.576 174.34H168.186L179.286 191.87L190.386 209.4L201.476 191.87L212.576 174.34Z" fill="#63D3B3"/>
<path d="M256.966 174.34H212.576L223.676 191.87L234.766 209.4L245.866 191.87L256.966 174.34Z" fill="#63D3B3"/>
<path d="M168.185 174.34H123.795L134.885 191.87L145.985 209.4L157.085 191.87L168.185 174.34Z" fill="#63D3B3"/>
<path d="M123.796 174.34L112.696 191.87L101.596 209.4H123.796H145.986L134.886 191.87L123.796 174.34Z" fill="#EF6600"/>
<path d="M168.186 174.34L157.086 191.87L145.986 209.4H168.186H190.386L179.286 191.87L168.186 174.34Z" fill="#EF6600"/>
<path d="M212.575 174.34L201.475 191.87L190.385 209.4H212.575H234.765L223.675 191.87L212.575 174.34Z" fill="#EF6600"/>
<path d="M268.066 191.87L256.966 174.34L245.866 191.87L234.766 209.4H256.966H279.096V209.29L268.066 191.87Z" fill="#EF6600"/>
<path d="M127.855 197.13C127.855 199.33 125.895 201.12 123.485 201.12C121.075 201.12 119.115 199.34 119.115 197.13C119.115 194.92 121.075 193.14 123.485 193.14C125.895 193.14 127.855 194.93 127.855 197.13Z" fill="#F8C054"/>
<path d="M172.556 197.13C172.556 199.33 170.596 201.12 168.186 201.12C165.776 201.12 163.816 199.34 163.816 197.13C163.816 194.92 165.776 193.14 168.186 193.14C170.596 193.14 172.556 194.93 172.556 197.13Z" fill="#F8C054"/>
<path d="M217.256 197.13C217.256 199.33 215.296 201.12 212.886 201.12C210.476 201.12 208.516 199.34 208.516 197.13C208.516 194.92 210.476 193.14 212.886 193.14C215.296 193.14 217.256 194.93 217.256 197.13Z" fill="#F8C054"/>
<path d="M261.945 197.13C261.945 199.33 259.985 201.12 257.575 201.12C255.165 201.12 253.205 199.34 253.205 197.13C253.205 194.92 255.165 193.14 257.575 193.14C259.985 193.14 261.945 194.93 261.945 197.13Z" fill="#F8C054"/>
<path d="M155.355 181.45H136.615L141.305 188.85L145.985 196.25L150.665 188.85L155.355 181.45Z" fill="#EF6600"/>
<path d="M199.746 181.45H181.006L185.696 188.85L190.376 196.25L195.066 188.85L199.746 181.45Z" fill="#EF6600"/>
<path d="M244.136 181.45H225.396L230.086 188.85L234.766 196.25L239.456 188.85L244.136 181.45Z" fill="#EF6600"/>
<path d="M269.795 181.45H279.095V174.34H256.965L268.065 191.87L279.095 209.29V196.14L274.475 188.85L269.795 181.45Z" fill="#63D3B3"/>
<path d="M101.596 174.34V181.45H110.966L106.276 188.85L101.596 196.25V209.4L112.696 191.87L123.796 174.34H101.596Z" fill="#63D3B3"/>
<path d="M110.966 181.45H101.596V196.25L106.276 188.85L110.966 181.45Z" fill="#F96C41"/>
</g>
<path d="M155.367 232.85C162.487 232.08 169.547 230.9 176.517 229.27C178.297 228.85 179.527 226.71 178.957 224.96C178.357 223.1 176.567 222.07 174.647 222.52C169.407 223.75 164.107 224.73 158.767 225.45L159.697 225.32C158.247 225.51 156.807 225.69 155.357 225.84C154.407 225.94 153.587 226.16 152.887 226.87C152.277 227.48 151.827 228.47 151.857 229.34C151.937 231.07 153.407 233.05 155.357 232.84L155.367 232.85Z" fill="black"/>
<path d="M229.138 225.85C227.688 225.69 226.238 225.52 224.798 225.33L225.728 225.46C220.388 224.74 215.098 223.76 209.848 222.53C208.068 222.11 205.978 223.08 205.538 224.97C205.128 226.76 206.078 228.83 207.978 229.28C214.948 230.91 222.018 232.09 229.128 232.86C229.968 232.95 231.038 232.4 231.598 231.83C232.208 231.22 232.658 230.23 232.628 229.36C232.598 228.49 232.288 227.52 231.598 226.89C230.878 226.22 230.098 225.97 229.128 225.86L229.138 225.85Z" fill="black"/>
<path d="M221.667 342.1C218.627 341 215.417 340.51 212.287 339.7C205.957 338.04 199.987 334.98 194.947 330.81C193.727 329.8 192.527 328.71 191.067 328.07C186.477 326.05 181.307 329.15 177.577 332.49C174.957 334.84 172.507 337.39 170.067 339.94C166.797 343.35 163.527 346.77 160.537 350.42C155.367 356.74 151.007 363.93 149.267 371.91C147.597 379.56 148.607 388.02 153.057 394.43C172.567 392 190.207 388.26 190.207 388.26C190.207 388.26 218.517 394.26 243.067 396C243.327 395.52 243.357 394.93 243.367 394.37C243.497 384.27 243.597 373.97 240.647 364.31C237.697 354.65 231.147 345.54 221.647 342.1H221.667Z" fill="white"/>
<path d="M180.008 251.64C187.848 253.84 196.458 253.47 204.058 250.56C206.298 249.7 208.458 248.67 210.508 247.42C211.618 246.74 212.148 245.15 211.408 244C210.668 242.85 209.178 242.37 207.988 243.1C207.188 243.59 206.378 244.05 205.548 244.47C205.148 244.67 204.748 244.87 204.338 245.06C204.118 245.16 203.898 245.26 203.678 245.36C203.578 245.4 203.488 245.44 203.388 245.48C203.708 245.34 203.538 245.42 203.318 245.51C201.588 246.21 199.798 246.77 197.978 247.19C197.068 247.4 196.148 247.58 195.228 247.72C195.098 247.74 194.948 247.78 194.818 247.78C194.838 247.78 195.268 247.73 194.968 247.76C194.758 247.78 194.558 247.81 194.348 247.83C193.828 247.89 193.318 247.93 192.798 247.97C190.938 248.1 189.058 248.08 187.198 247.92C186.918 247.9 186.648 247.87 186.368 247.84C186.268 247.83 186.158 247.82 186.058 247.8C185.998 247.8 185.548 247.74 185.878 247.78C186.208 247.82 185.848 247.78 185.798 247.77C185.628 247.74 185.458 247.72 185.288 247.69C185.048 247.65 184.808 247.61 184.568 247.57C183.478 247.37 182.398 247.12 181.338 246.82C180.078 246.47 178.558 247.25 178.258 248.57C177.958 249.9 178.658 251.27 180.008 251.65V251.64Z" fill="black"/>
<path d="M155.467 346.96L165.327 350.11L164.607 354.85L153.357 353.7L155.467 346.96Z" fill="#D6AF43"/>
<path d="M232.657 346.98L242.927 348.33L243.057 353.12L231.787 353.99L232.657 346.98Z" fill="#D6AF43"/>
<path d="M229.089 320.09C216.939 319.24 204.519 320.38 193.059 323.39C189.069 324.44 184.829 325.97 183.269 328.8C181.699 331.65 183.389 334.88 185.619 337.5C194.569 347.94 217.749 357.24 234.499 354.65" fill="#D6AF43"/>
<path d="M229.088 317.59C219.948 316.96 210.758 317.45 201.728 318.98C197.588 319.68 193.378 320.52 189.398 321.88C185.738 323.13 181.428 325.2 180.388 329.32C179.348 333.44 182.118 337.55 184.918 340.45C187.068 342.68 189.558 344.59 192.138 346.3C197.988 350.17 204.588 353.03 211.318 354.98C218.068 356.94 225.298 358.09 232.328 357.43C233.278 357.34 234.218 357.22 235.158 357.07C236.458 356.87 237.288 355.17 236.908 353.99C236.448 352.58 235.218 352.03 233.828 352.24C233.728 352.26 233.078 352.35 233.498 352.29C233.918 352.23 233.348 352.31 233.248 352.32C232.858 352.37 232.458 352.41 232.068 352.44C231.298 352.51 230.518 352.55 229.748 352.57C228.118 352.62 226.488 352.57 224.868 352.45C224.048 352.39 223.238 352.31 222.418 352.21C222.238 352.19 222.048 352.16 221.868 352.14C221.408 352.08 222.318 352.2 221.708 352.12C221.278 352.06 220.848 351.99 220.428 351.92C218.758 351.64 217.108 351.3 215.468 350.9C212.138 350.08 208.868 349.02 205.688 347.74C205.488 347.66 205.288 347.58 205.088 347.49C205.008 347.46 204.478 347.23 204.788 347.36C205.098 347.49 204.518 347.24 204.408 347.19C204.208 347.1 204.018 347.02 203.818 346.93C203.068 346.59 202.318 346.25 201.578 345.88C200.108 345.16 198.668 344.4 197.268 343.57C195.958 342.8 194.678 341.98 193.428 341.11C193.138 340.91 192.858 340.7 192.578 340.49C192.428 340.38 192.278 340.27 192.128 340.15C191.678 339.81 192.398 340.36 192.068 340.11C191.508 339.66 190.948 339.21 190.408 338.74C189.438 337.89 188.508 336.99 187.648 336.02C187.388 335.73 187.148 335.43 186.898 335.13C186.718 334.91 186.938 335.18 186.958 335.21C186.898 335.12 186.828 335.04 186.768 334.95C186.598 334.72 186.438 334.48 186.288 334.25C186.048 333.87 185.818 333.48 185.618 333.07C185.578 332.98 185.538 332.88 185.488 332.79C185.318 332.46 185.618 333.18 185.508 332.83C185.438 332.61 185.358 332.4 185.288 332.18C185.218 331.96 185.188 331.74 185.138 331.52C185.068 331.23 185.178 331.71 185.158 331.72C185.168 331.72 185.138 331.46 185.138 331.44C185.128 331.22 185.138 331.01 185.138 330.79C185.138 330.69 185.228 330.46 185.138 330.75C185.038 331.09 185.168 330.69 185.188 330.62C185.218 330.5 185.268 330.38 185.298 330.25C185.358 329.96 185.228 330.39 185.228 330.39C185.228 330.25 185.408 330.02 185.488 329.9C185.538 329.81 185.598 329.72 185.658 329.63C185.798 329.39 185.718 329.64 185.648 329.63C185.458 329.85 185.628 329.63 185.648 329.63C185.718 329.55 185.788 329.47 185.858 329.39C186.088 329.14 186.548 328.88 186.708 328.6C186.708 328.61 186.318 328.88 186.548 328.73C186.618 328.68 186.688 328.63 186.758 328.58C186.958 328.44 187.148 328.31 187.358 328.19C187.698 327.98 188.048 327.79 188.408 327.61C188.578 327.52 188.748 327.44 188.918 327.36C189.008 327.32 189.098 327.28 189.178 327.24C189.748 326.98 188.868 327.36 189.208 327.23C192.908 325.8 196.828 324.94 200.718 324.19C201.758 323.99 202.798 323.81 203.838 323.64C204.338 323.56 204.848 323.48 205.348 323.41C205.578 323.38 205.818 323.34 206.048 323.31C206.208 323.29 206.358 323.27 206.518 323.25C206.258 323.29 206.348 323.27 206.558 323.25C208.668 322.98 210.788 322.76 212.918 322.61C217.228 322.3 221.548 322.23 225.868 322.4C226.938 322.44 228.008 322.5 229.068 322.58C230.378 322.67 231.628 321.37 231.568 320.08C231.508 318.65 230.468 317.68 229.068 317.58L229.088 317.59Z" fill="black"/>
<path d="M155.098 318.74C162.698 316.47 170.598 315.16 178.468 314.18C183.738 313.53 189.288 313.05 194.238 315.33C199.188 317.6 203.188 323.54 201.768 329.04C201.078 331.75 199.238 333.89 197.368 335.81C187.098 346.31 173.758 353.27 159.638 355.48" fill="#D6AF43"/>
<path d="M155.758 321.15C159.608 320.01 163.518 319.1 167.458 318.37C169.358 318.02 171.258 317.7 173.168 317.41C174.118 317.27 175.078 317.13 176.028 317C176.818 316.89 175.528 317.06 176.318 316.96C176.558 316.93 176.798 316.9 177.038 316.87C177.588 316.8 178.138 316.73 178.688 316.66C180.458 316.44 182.238 316.25 184.018 316.18C184.908 316.14 185.798 316.14 186.688 316.18C187.128 316.2 187.578 316.23 188.018 316.27C188.238 316.29 188.458 316.32 188.678 316.34C188.968 316.38 188.968 316.38 188.678 316.34C188.828 316.36 188.968 316.38 189.118 316.41C189.988 316.56 190.858 316.76 191.698 317.03C192.128 317.17 192.548 317.32 192.958 317.49C192.538 317.32 192.908 317.47 192.978 317.51C193.188 317.61 193.398 317.71 193.608 317.82C194.228 318.15 194.888 318.52 195.418 318.98C194.928 318.55 195.388 318.97 195.478 319.05C195.618 319.17 195.758 319.29 195.888 319.41C196.208 319.7 196.508 320 196.798 320.32C197.038 320.59 197.318 320.86 197.518 321.16C197.168 320.63 197.498 321.16 197.568 321.25C197.678 321.4 197.778 321.55 197.878 321.71C198.078 322.02 198.268 322.33 198.438 322.66C198.528 322.82 198.608 322.98 198.688 323.15C198.738 323.26 198.798 323.37 198.848 323.48C198.958 323.73 198.948 323.7 198.808 323.38C198.758 323.52 199.068 324.1 199.118 324.23C199.228 324.57 199.318 324.92 199.398 325.27C199.438 325.45 199.468 325.62 199.498 325.8C199.618 326.4 199.468 325.23 199.498 325.85C199.518 326.27 199.548 326.68 199.538 327.1C199.538 327.28 199.518 327.46 199.508 327.64C199.478 328.25 199.628 327.09 199.508 327.69C199.428 328.07 199.358 328.44 199.238 328.8C199.178 329 199.108 329.19 199.038 329.39C198.828 330.03 199.278 328.95 198.968 329.55C198.748 329.98 198.538 330.4 198.288 330.8C198.068 331.15 197.838 331.48 197.598 331.81C197.218 332.35 197.818 331.56 197.548 331.87C197.438 332 197.338 332.13 197.228 332.26C196.658 332.94 196.058 333.58 195.438 334.21C194.228 335.44 192.968 336.63 191.668 337.76C191.048 338.3 190.418 338.84 189.778 339.36C189.508 339.58 189.248 339.79 188.978 340C188.818 340.13 188.658 340.25 188.488 340.38C188.958 340.01 188.258 340.55 188.178 340.61C185.508 342.62 182.688 344.43 179.748 346.03C178.078 346.94 176.368 347.78 174.638 348.54C174.448 348.62 174.268 348.7 174.078 348.78C173.818 348.89 173.828 348.89 174.118 348.77C173.998 348.82 173.868 348.87 173.738 348.93C173.298 349.11 172.858 349.29 172.418 349.46C171.598 349.78 170.768 350.08 169.938 350.36C166.358 351.58 162.688 352.49 158.948 353.08C157.648 353.28 156.818 354.97 157.198 356.16C157.658 357.57 158.888 358.13 160.278 357.91C167.308 356.8 174.118 354.52 180.468 351.31C186.878 348.07 192.798 343.79 197.938 338.78C200.608 336.17 203.378 333.23 204.228 329.47C205.028 325.93 204.158 322.21 202.188 319.19C200.218 316.17 197.228 313.77 193.738 312.47C190.018 311.09 185.908 311 181.998 311.33C177.838 311.68 173.678 312.3 169.558 312.97C165.478 313.64 161.418 314.46 157.418 315.51C156.408 315.78 155.408 316.06 154.408 316.35C153.158 316.72 152.238 318.12 152.658 319.43C153.068 320.7 154.388 321.57 155.738 321.18L155.758 321.15Z" fill="black"/>
<path d="M200.437 384.57C199.777 384.57 199.117 384.43 198.517 384.17L185.177 378.37C185.077 378.33 184.967 378.31 184.847 378.31C184.707 378.31 184.567 378.34 184.457 378.4L176.047 383.17C175.337 383.57 174.527 383.79 173.687 383.79C172.847 383.79 172.007 383.57 171.297 383.16L163.067 378.39C162.957 378.33 162.827 378.29 162.677 378.29C162.527 378.29 162.397 378.32 162.287 378.38L155.347 382.36C154.637 382.77 153.817 382.98 152.967 382.98C151.827 382.98 150.747 382.59 149.907 381.88L145.557 378.16C145.457 378.07 145.277 378.02 145.097 378.02C144.917 378.02 144.757 378.07 144.647 378.15L139.987 381.84C139.177 382.48 138.137 382.84 137.057 382.84C135.977 382.84 134.977 382.5 134.167 381.87L128.697 377.64C128.587 377.56 128.427 377.51 128.257 377.51C128.087 377.51 127.937 377.55 127.827 377.63L123.477 380.73C122.697 381.29 121.717 381.59 120.727 381.59C119.917 381.59 119.127 381.39 118.437 381.01L112.287 377.66C112.187 377.6 112.047 377.57 111.907 377.57C111.767 377.57 111.647 377.6 111.537 377.65L105.697 380.69C105.017 381.05 104.247 381.23 103.487 381.23C102.017 381.23 100.637 380.56 99.7872 379.45C99.0372 378.46 98.7972 377.22 99.1272 376.04L105.047 354.84C105.557 353.01 107.347 351.73 109.387 351.73C109.517 351.73 109.647 351.73 109.787 351.75C119.887 352.57 155.927 355.25 195.597 355.25C224.807 355.25 249.287 353.79 268.367 350.91C268.617 350.87 268.857 350.85 269.107 350.85C271.367 350.85 273.237 352.34 273.557 354.4L276.887 375.83C277.067 376.97 276.737 378.1 275.977 378.99C275.127 379.98 273.807 380.57 272.437 380.57C271.647 380.57 270.867 380.37 270.177 380L261.497 375.35C261.387 375.29 261.267 375.26 261.127 375.26C260.887 375.26 260.707 375.35 260.637 375.44L255.727 381.33C254.867 382.36 253.577 382.95 252.167 382.95C251.037 382.95 249.947 382.56 249.117 381.85L243.237 376.85C243.127 376.76 242.957 376.71 242.777 376.71C242.617 376.71 242.467 376.75 242.367 376.82L231.917 383.72C231.147 384.23 230.247 384.49 229.297 384.49C228.577 384.49 227.857 384.33 227.227 384.03L213.597 377.52C213.497 377.47 213.377 377.45 213.247 377.45C213.097 377.45 212.947 377.49 212.837 377.56L202.917 383.83C202.167 384.3 201.287 384.56 200.377 384.56L200.437 384.57Z" fill="#7F4F08"/>
<path d="M269.157 352.87C270.387 352.87 271.457 353.64 271.627 354.73L274.957 376.16C275.167 377.53 273.897 378.6 272.477 378.6C272.037 378.6 271.587 378.5 271.167 378.27L262.487 373.62C262.077 373.4 261.627 373.3 261.167 373.3C260.387 373.3 259.627 373.61 259.137 374.2L254.227 380.09C253.737 380.68 252.967 380.99 252.197 380.99C251.567 380.99 250.937 380.79 250.447 380.37L244.567 375.37C244.087 374.96 243.447 374.75 242.817 374.75C242.287 374.75 241.747 374.9 241.297 375.19L230.847 382.09C230.407 382.38 229.867 382.53 229.327 382.53C228.917 382.53 228.497 382.44 228.117 382.26L214.487 375.75C214.107 375.57 213.697 375.48 213.277 375.48C212.757 375.48 212.237 375.62 211.797 375.9L201.877 382.17C201.437 382.45 200.927 382.59 200.397 382.59C200.017 382.59 199.627 382.51 199.277 382.36L185.937 376.56C185.587 376.41 185.197 376.33 184.817 376.33C184.337 376.33 183.857 376.45 183.447 376.68L175.037 381.45C174.617 381.69 174.147 381.8 173.667 381.8C173.187 381.8 172.697 381.68 172.277 381.43L164.047 376.66C163.627 376.42 163.137 376.29 162.657 376.29C162.177 376.29 161.697 376.41 161.277 376.65L154.337 380.63C153.917 380.87 153.437 380.99 152.957 380.99C152.317 380.99 151.677 380.78 151.197 380.37L146.847 376.65C146.367 376.24 145.727 376.03 145.087 376.03C144.447 376.03 143.877 376.22 143.397 376.6L138.737 380.29C138.257 380.67 137.657 380.86 137.047 380.86C136.437 380.86 135.857 380.68 135.387 380.31L129.907 376.08C129.437 375.71 128.837 375.53 128.247 375.53C127.687 375.53 127.117 375.69 126.657 376.02L122.307 379.12C121.847 379.45 121.287 379.61 120.717 379.61C120.257 379.61 119.797 379.5 119.387 379.28L113.237 375.93C112.827 375.71 112.367 375.6 111.907 375.6C111.447 375.6 111.017 375.7 110.617 375.91L104.777 378.95C104.357 379.17 103.917 379.27 103.487 379.27C101.987 379.27 100.657 378.06 101.057 376.61L106.977 355.41C107.247 354.44 108.257 353.76 109.397 353.76C109.477 353.76 109.557 353.76 109.637 353.76C118.727 354.5 155.447 357.27 195.617 357.27C220.577 357.27 246.877 356.2 268.687 352.91C268.837 352.89 268.977 352.88 269.127 352.88M269.127 348.88C268.777 348.88 268.437 348.91 268.087 348.96C249.107 351.82 224.717 353.27 195.607 353.27C155.997 353.27 120.037 350.6 109.957 349.78C109.767 349.76 109.587 349.76 109.397 349.76C106.457 349.76 103.877 351.64 103.127 354.33L97.2066 375.53C96.7066 377.32 97.0666 379.2 98.1966 380.69C99.4166 382.3 101.397 383.26 103.487 383.26C104.577 383.26 105.657 382.99 106.627 382.49L111.897 379.75L117.477 382.79C118.467 383.33 119.587 383.61 120.727 383.61C122.127 383.61 123.517 383.17 124.637 382.38L128.227 379.82L132.957 383.47C134.107 384.36 135.567 384.85 137.067 384.85C138.567 384.85 140.067 384.34 141.237 383.42L145.067 380.39L148.607 383.41C149.797 384.43 151.347 384.99 152.957 384.99C154.147 384.99 155.307 384.68 156.327 384.1L162.657 380.47L170.277 384.89C171.297 385.48 172.477 385.79 173.677 385.79C174.877 385.79 176.017 385.49 177.017 384.92L184.897 380.45L197.697 386.02C198.557 386.39 199.467 386.58 200.417 386.58C201.707 386.58 202.957 386.22 204.027 385.55L213.367 379.65L226.407 385.88C227.307 386.31 228.327 386.54 229.337 386.54C230.677 386.54 231.967 386.16 233.057 385.43L242.717 379.05L247.857 383.42C249.047 384.43 250.597 384.99 252.197 384.99C254.207 384.99 256.067 384.14 257.297 382.65L261.477 377.63L269.257 381.8C270.237 382.33 271.347 382.6 272.457 382.6C274.397 382.6 276.297 381.75 277.517 380.32C278.647 379 279.147 377.26 278.887 375.55L275.557 354.12C275.087 351.08 272.377 348.88 269.137 348.88H269.127Z" fill="#0F0F0F"/>
</g>
<defs>
<clipPath id="clip0_873_1620">
<rect width="380.54" height="573" fill="white" transform="translate(0.867188)"/>
</clipPath>
</defs>
</svg>
