<svg width="382" height="573" viewBox="0 0 382 573" fill="none" xmlns="http://www.w3.org/2000/svg">
<g clip-path="url(#clip0_873_1703)">
<path d="M359.219 0H23.2192C10.9198 0 0.949219 9.97062 0.949219 22.27V550.73C0.949219 563.029 10.9198 573 23.2192 573H359.219C371.519 573 381.489 563.029 381.489 550.73V22.27C381.489 9.97062 371.519 0 359.219 0Z" fill="white"/>
<path d="M320.18 95.66C338.957 95.66 354.18 80.4377 354.18 61.66C354.18 42.8823 338.957 27.66 320.18 27.66C301.402 27.66 286.18 42.8823 286.18 61.66C286.18 80.4377 301.402 95.66 320.18 95.66Z" fill="#98CA51"/>
<path d="M334.972 54.5698C334.972 55.74 334.68 56.8822 334.095 57.9966C333.51 59.111 332.771 60.0722 331.88 60.8801C332.576 61.2423 333.189 61.702 333.718 62.2592C334.276 62.8164 334.763 63.4433 335.181 64.1398C335.543 64.8641 335.822 65.6303 336.017 66.4382C336.212 67.2183 336.309 67.9705 336.309 68.6949C336.282 70.5893 335.933 72.1495 335.265 73.3753C334.624 74.5733 333.746 75.5345 332.632 76.2589C331.49 77.0389 330.152 77.5961 328.62 77.9305C327.088 78.2369 325.458 78.4319 323.731 78.5155H310.65C310.678 78.3762 310.72 78.2091 310.776 78.014C310.831 77.819 310.887 77.624 310.943 77.429C311.054 76.9275 311.194 76.3842 311.361 75.7992C311.528 75.1862 311.751 74.6151 312.029 74.0858C312.308 73.5564 312.656 73.1246 313.074 72.7903C313.492 72.4281 314.049 72.2749 314.746 72.3306H321.85C322.602 72.3306 323.341 72.2749 324.065 72.1634C324.817 72.052 325.472 71.857 326.029 71.5784C326.586 71.2998 327.032 70.9097 327.366 70.4083C327.729 69.9068 327.91 69.2242 327.91 68.3605C327.91 66.7168 327.352 65.6442 326.238 65.1427C325.124 64.6412 323.661 64.3905 321.85 64.3905H313.534V58.4563H321.349C322.853 58.4563 324.079 58.2056 325.026 57.7041C325.973 57.1748 326.447 56.2136 326.447 54.8206C326.447 54.0405 326.266 53.4276 325.904 52.9818C325.569 52.5082 325.124 52.1321 324.566 51.8535C324.009 51.6028 323.368 51.4356 322.644 51.352C321.92 51.2406 321.181 51.157 320.429 51.1013H315.498C314.829 51.1013 314.244 50.9898 313.743 50.767C313.241 50.5162 312.893 50.2237 312.698 49.8894C312.252 49.2764 311.946 48.5242 311.779 47.6327C311.612 46.7133 311.43 45.8915 311.235 45.1671L323.313 44.9999C324.984 45.0835 326.433 45.2228 327.659 45.4178C328.913 45.585 330.138 46.0865 331.336 46.9223C332.507 47.7859 333.412 48.8585 334.053 50.1401C334.721 51.3938 335.028 52.8704 334.972 54.5698Z" fill="white"/>
<path d="M107.365 465.305C107.365 468.261 106.626 471.147 105.148 473.963C103.67 476.779 101.804 479.207 99.5518 481.249C101.312 482.164 102.86 483.325 104.198 484.733C105.606 486.141 106.838 487.725 107.893 489.485C108.809 491.315 109.512 493.251 110.005 495.292C110.498 497.263 110.744 499.164 110.744 500.994C110.674 505.781 109.794 509.723 108.105 512.82C106.486 515.847 104.268 518.276 101.452 520.106C98.5663 522.077 95.1874 523.485 91.3158 524.329C87.4442 525.104 83.3262 525.597 78.9618 525.808H45.9121C45.9825 525.456 46.0881 525.033 46.2289 524.541C46.3697 524.048 46.5105 523.555 46.6512 523.062C46.9328 521.795 47.2848 520.423 47.7071 518.944C48.1295 517.396 48.6926 515.953 49.3966 514.615C50.1005 513.278 50.9804 512.187 52.0363 511.342C53.0922 510.427 54.5001 510.04 56.2599 510.18H74.2102C76.1109 510.18 77.9763 510.04 79.8065 509.758C81.7071 509.476 83.3614 508.984 84.7692 508.28C86.1771 507.576 87.3034 506.59 88.1481 505.323C89.0632 504.056 89.5208 502.332 89.5208 500.149C89.5208 495.996 88.1129 493.286 85.2972 492.019C82.4814 490.752 78.7858 490.118 74.2102 490.118H53.1978V475.124H72.9431C76.7444 475.124 79.8417 474.491 82.2351 473.224C84.6284 471.886 85.8251 469.458 85.8251 465.938C85.8251 463.967 85.3676 462.418 84.4525 461.292C83.6077 460.096 82.4814 459.145 81.0736 458.441C79.6657 457.808 78.0467 457.385 76.2164 457.174C74.3862 456.893 72.5208 456.681 70.6202 456.541H58.1606C56.4711 456.541 54.9929 456.259 53.7258 455.696C52.4587 455.062 51.5788 454.323 51.086 453.479C49.9597 451.93 49.1854 450.029 48.763 447.777C48.3407 445.454 47.8831 443.377 47.3904 441.547L77.9059 441.125C82.1295 441.336 85.7899 441.688 88.8872 442.18C92.0549 442.603 95.1522 443.87 98.1792 445.982C101.136 448.164 103.423 450.874 105.043 454.112C106.732 457.28 107.506 461.011 107.365 465.305Z" fill="#98CA51"/>
<path d="M263.349 386.31H115.089C110.859 357.19 108.319 322.27 117.609 304.48L264.979 302C270.859 329.04 269.449 357.29 263.349 386.31Z" fill="#D6AF43"/>
<path d="M190.228 391.81C190.228 391.81 139.118 402.64 114.688 399.43C111.598 399.03 109.288 396.26 109.418 393.15C109.578 389.17 114.278 386.42 117.168 384.28C111.718 372.46 105.408 360.41 105.398 347.39C105.378 334.43 111.618 322.38 117.698 310.93" fill="#D6AF43"/>
<path d="M189.299 388.43C187.199 388.88 185.079 389.28 182.969 389.69C177.739 390.69 172.489 391.61 167.219 392.45C163.429 393.05 159.639 393.62 155.839 394.13L156.769 394C150.939 394.78 145.079 395.45 139.219 395.91C133.709 396.35 128.179 396.62 122.649 396.49C119.989 396.43 117.329 396.27 114.689 395.93L115.619 396.06C115.299 396.01 114.989 395.95 114.689 395.86C114.559 395.82 114.419 395.75 114.279 395.72C115.049 395.87 114.859 395.98 114.499 395.8C114.249 395.67 114.019 395.52 113.779 395.36C113.249 395.02 114.399 395.93 113.959 395.49C113.859 395.39 113.759 395.3 113.659 395.2C113.559 395.1 113.469 395 113.379 394.89C112.999 394.47 113.789 395.48 113.569 395.14C113.399 394.88 113.229 394.63 113.089 394.35C113.019 394.22 112.809 393.73 113.059 394.31C113.309 394.89 113.109 394.4 113.059 394.25C112.959 393.92 112.889 393.59 112.839 393.25L112.969 394.18C112.909 393.67 112.899 393.17 112.969 392.66L112.839 393.59C112.869 393.38 112.909 393.18 112.959 392.97C112.999 392.8 113.299 392.02 113.029 392.64C112.769 393.26 113.079 392.56 113.159 392.41C113.269 392.2 113.399 391.99 113.529 391.79C113.589 391.7 113.659 391.61 113.719 391.52C113.979 391.13 113.489 391.8 113.469 391.84C113.539 391.64 113.819 391.42 113.959 391.27C114.289 390.91 114.639 390.57 114.999 390.25C115.359 389.93 115.699 389.65 116.069 389.35C116.519 388.99 115.509 389.78 115.839 389.52C115.929 389.45 116.019 389.38 116.119 389.31C116.299 389.17 116.489 389.04 116.669 388.9C117.419 388.35 118.189 387.82 118.939 387.27C119.689 386.72 120.339 386.1 120.549 385.18C120.759 384.26 120.609 383.38 120.199 382.48C118.399 378.58 116.539 374.7 114.819 370.76C114.609 370.28 114.399 369.79 114.189 369.3C114.219 369.37 114.509 370.07 114.279 369.51C114.239 369.41 114.189 369.3 114.149 369.2C114.029 368.92 113.919 368.64 113.809 368.36C113.399 367.35 112.999 366.34 112.629 365.31C111.889 363.32 111.219 361.3 110.659 359.25C110.019 356.93 109.519 354.58 109.189 352.19L109.319 353.12C108.799 349.28 108.799 345.41 109.309 341.56L109.179 342.49C109.759 338.29 110.899 334.19 112.369 330.21C112.739 329.22 113.119 328.25 113.519 327.27C113.579 327.13 113.639 326.99 113.689 326.85C113.689 326.84 113.399 327.52 113.559 327.17C113.669 326.93 113.769 326.68 113.869 326.44C114.079 325.96 114.299 325.47 114.509 324.99C115.399 323.03 116.339 321.09 117.319 319.16C118.429 316.97 119.569 314.81 120.719 312.64C121.579 311.02 121.179 308.76 119.459 307.85C117.839 306.99 115.589 307.38 114.669 309.11C109.779 318.33 104.739 327.85 102.799 338.21C102.289 340.92 101.959 343.68 101.899 346.44C101.839 349.2 102.109 352.04 102.529 354.81C103.299 359.85 104.869 364.74 106.749 369.47C108.979 375.08 111.609 380.51 114.139 385.99L115.399 381.2C111.339 384.21 106.559 387.11 105.959 392.62C105.659 395.39 106.859 398.38 108.889 400.27C110.029 401.34 111.399 402.15 112.909 402.57C113.959 402.87 115.099 402.93 116.179 403.05C123.289 403.79 130.509 403.49 137.629 402.98C145.789 402.39 153.919 401.39 162.019 400.22C168.579 399.27 175.129 398.19 181.649 396.98C184.769 396.4 187.939 395.89 191.029 395.15C191.069 395.14 191.119 395.13 191.159 395.12C192.949 394.74 194.159 392.54 193.599 390.81C192.989 388.92 191.219 387.96 189.289 388.37L189.299 388.43Z" fill="black"/>
<path d="M190.229 391.81C190.229 391.81 241.339 402.64 265.769 399.43C268.859 399.03 271.169 396.26 271.039 393.15C270.879 389.17 266.179 386.42 263.289 384.28C268.739 372.46 275.049 360.41 275.059 347.39C275.078 334.43 268.839 322.38 262.759 310.93" fill="#D6AF43"/>
<path d="M189.299 395.18C191.849 395.72 194.399 396.21 196.959 396.69C203.199 397.86 209.449 398.93 215.729 399.87C223.779 401.08 231.859 402.12 239.969 402.81C247.269 403.42 254.639 403.82 261.959 403.31C262.749 403.25 263.549 403.19 264.339 403.1C265.459 402.98 266.639 402.92 267.719 402.58C270.729 401.63 272.959 399.37 274.039 396.44C275.009 393.82 274.559 390.75 273.069 388.42C271.579 386.09 269.589 384.54 267.469 382.99C266.669 382.41 265.859 381.84 265.059 381.26C265.479 382.86 265.899 384.45 266.319 386.05C270.689 376.57 275.629 367.06 277.609 356.73C278.129 354.03 278.479 351.27 278.559 348.52C278.639 345.71 278.389 342.92 277.979 340.14C277.229 335.09 275.659 330.19 273.709 325.48C271.399 319.89 268.629 314.52 265.799 309.18C264.939 307.56 262.559 306.93 261.009 307.92C259.359 308.98 258.829 310.98 259.749 312.71C261.769 316.51 263.779 320.32 265.579 324.23C266.019 325.19 266.449 326.16 266.869 327.13C266.949 327.31 267.109 327.75 266.779 326.92C266.819 327.02 266.869 327.13 266.909 327.23C267.009 327.47 267.109 327.72 267.209 327.96C267.409 328.45 267.599 328.94 267.789 329.43C268.549 331.42 269.239 333.43 269.809 335.48C270.459 337.8 270.969 340.16 271.299 342.54L271.169 341.61C271.679 345.46 271.669 349.32 271.159 353.17L271.289 352.24C270.709 356.44 269.579 360.53 268.149 364.51C267.779 365.53 267.399 366.55 266.999 367.56C266.809 368.05 266.609 368.54 266.409 369.03C266.359 369.16 266.059 369.67 266.109 369.76C266.109 369.76 266.389 369.09 266.239 369.45C266.169 369.62 266.089 369.8 266.019 369.97C265.169 371.95 264.279 373.91 263.379 375.87C262.349 378.09 261.309 380.3 260.279 382.52C259.889 383.36 259.629 384.29 259.929 385.22C260.229 386.14 260.769 386.74 261.539 387.31C262.269 387.85 263.009 388.36 263.739 388.89C263.919 389.02 264.109 389.16 264.289 389.3C264.379 389.37 264.469 389.44 264.569 389.51C265.089 389.9 264.039 389.09 264.339 389.33C264.719 389.64 265.109 389.95 265.469 390.28C265.809 390.59 266.139 390.9 266.449 391.24C266.619 391.42 266.779 391.62 266.949 391.81C267.219 392.11 266.489 391.16 266.709 391.49C266.769 391.58 266.839 391.67 266.899 391.76C267.029 391.96 267.619 392.69 267.559 392.95C267.559 392.95 267.249 392.08 267.379 392.55C267.419 392.68 267.459 392.8 267.499 392.92C267.559 393.15 267.609 393.38 267.639 393.61L267.509 392.68C267.569 393.19 267.559 393.69 267.509 394.2L267.639 393.27C267.589 393.58 267.529 393.88 267.439 394.18C267.399 394.31 267.329 394.45 267.309 394.58C267.449 393.83 267.579 393.98 267.389 394.36C267.259 394.61 267.109 394.84 266.959 395.08C266.639 395.61 267.529 394.45 267.099 394.9C266.999 395 266.909 395.11 266.819 395.21C266.729 395.31 266.619 395.4 266.519 395.5C266.109 395.88 267.109 395.09 266.769 395.32C266.509 395.49 266.259 395.66 265.979 395.81C265.849 395.88 265.359 396.09 265.939 395.85C266.519 395.61 266.019 395.81 265.879 395.85C265.549 395.95 265.209 396.02 264.859 396.08L265.789 395.95C260.859 396.59 255.849 396.63 250.889 396.47C245.109 396.29 239.329 395.82 233.579 395.21C230.289 394.86 226.999 394.46 223.709 394.02L224.639 394.15C218.229 393.29 211.829 392.28 205.449 391.17C201.389 390.46 197.329 389.71 193.289 388.89C192.579 388.75 191.879 388.61 191.179 388.46C189.389 388.08 187.309 388.99 186.869 390.9C186.469 392.66 187.399 394.8 189.309 395.21L189.299 395.18Z" fill="black"/>
<path d="M117.549 310.07C116.259 309.56 117.249 309.83 115.979 309.26C114.069 308.4 112.189 307.47 110.339 306.45C106.289 304.21 102.429 301.63 98.8887 298.69C95.1787 295.59 91.8387 292.05 89.0987 288.09C81.9987 277.85 79.8687 265.5 82.0587 253.41C82.5687 250.59 83.2887 247.81 84.1687 245.09C84.1687 245.09 87.6487 227.68 114.519 205.4C113.519 202.17 112.979 198.76 112.979 195.22C112.979 175.76 129.189 159.99 149.189 159.99C166.299 159.99 180.619 171.54 184.409 187.05C185.019 186.93 188.009 186.95 189.199 186.97C190.399 186.96 193.389 186.93 193.989 187.05C197.779 171.53 212.099 159.99 229.209 159.99C249.209 159.99 265.419 175.76 265.419 195.22C265.419 198.76 264.879 202.18 263.879 205.4C290.759 227.67 294.229 245.09 294.229 245.09C295.109 247.82 295.829 250.6 296.339 253.41C298.529 265.5 296.399 277.85 289.299 288.09C286.559 292.04 283.219 295.58 279.509 298.69C277.859 300.07 276.119 301.33 274.359 302.56C271.529 304.55 268.769 306.64 265.909 308.58L262.189 310.39" fill="#D6AF43"/>
<path d="M262.199 313.89C260.899 313.89 259.659 313.17 259.049 311.92C258.199 310.18 258.929 308.09 260.669 307.24L264.159 305.54C265.759 304.45 267.379 303.28 268.949 302.14C270.079 301.32 271.209 300.5 272.349 299.7C274.239 298.37 275.799 297.23 277.269 296C280.889 292.97 283.969 289.64 286.429 286.1C292.709 277.04 295.009 265.65 292.899 254.03C292.439 251.47 291.769 248.82 290.909 246.15L290.809 245.76C290.779 245.62 287.019 229.1 261.659 208.08L259.859 206.59L260.549 204.35C261.469 201.38 261.939 198.31 261.939 195.2C261.939 177.7 247.269 163.47 229.229 163.47C213.999 163.47 200.919 173.5 197.409 187.86L196.619 191.11L193.429 190.48C193.059 190.45 191.699 190.41 189.259 190.45C186.739 190.42 185.379 190.45 185.009 190.48L181.819 191.11L181.029 187.86C177.529 173.5 164.439 163.47 149.209 163.47C131.179 163.47 116.499 177.7 116.499 195.2C116.499 198.3 116.969 201.38 117.889 204.35L118.579 206.59L116.779 208.08C91.4194 229.1 87.6594 245.61 87.6194 245.78L87.5194 246.15C86.6594 248.82 85.9894 251.47 85.5294 254.02C83.4294 265.64 85.7194 277.03 91.9994 286.09C94.4594 289.63 97.5394 292.97 101.159 296C104.409 298.7 108.079 301.19 112.049 303.38C113.759 304.32 115.569 305.23 117.429 306.06C117.949 306.3 118.359 306.5 118.719 306.76C118.759 306.77 118.799 306.79 118.849 306.81C120.649 307.52 121.529 309.55 120.819 311.35C120.109 313.15 118.079 314.03 116.279 313.32C115.669 313.08 115.169 312.87 114.689 312.5C114.649 312.48 114.609 312.46 114.559 312.44C112.519 311.52 110.539 310.54 108.669 309.5C104.309 307.09 100.279 304.36 96.6794 301.37C92.5694 297.93 89.0594 294.13 86.2494 290.07C78.9094 279.48 76.2094 266.23 78.6394 252.77C79.1494 249.96 79.8794 247.06 80.8094 244.15C81.3294 241.9 85.9094 225.16 110.569 204.15C109.859 201.22 109.499 198.22 109.499 195.2C109.499 173.85 127.309 156.47 149.209 156.47C166.689 156.47 181.849 167.42 187.039 183.44C187.649 183.44 188.379 183.44 189.259 183.45C190.099 183.44 190.799 183.44 191.399 183.44C196.599 167.43 211.759 156.47 229.229 156.47C251.119 156.47 268.939 173.84 268.939 195.2C268.939 198.22 268.579 201.22 267.869 204.15C292.529 225.17 297.109 241.91 297.629 244.15C298.559 247.06 299.289 249.96 299.799 252.77C302.239 266.23 299.539 279.48 292.189 290.07C289.379 294.13 285.869 297.93 281.769 301.36C280.119 302.74 278.419 303.98 276.389 305.41C275.279 306.19 274.169 306.99 273.069 307.79C271.389 309.01 269.659 310.26 267.889 311.46L267.459 311.71L263.739 313.52C263.249 313.76 262.729 313.87 262.209 313.87L262.199 313.89ZM193.329 190.48C193.329 190.48 193.329 190.48 193.339 190.48H193.329ZM185.089 190.48H185.079C185.079 190.48 185.079 190.48 185.089 190.48Z" fill="black"/>
<path d="M251.439 184.65C251.439 184.65 248.029 173.89 251.199 163.03C251.249 162.85 251.489 162.8 251.619 162.94L253.159 164.73C253.159 164.73 256.229 135.06 284.069 118.62C284.069 118.62 293.669 122.62 291.979 132.32C290.299 142.02 268.329 170.01 261.589 175.81C261.589 175.81 262.559 175.93 264.879 175.46C265.089 175.42 265.249 175.66 265.119 175.83C263.959 177.37 259.829 182.12 251.439 184.63V184.65Z" fill="#EF6600"/>
<path d="M249.469 188.37L248.579 185.56C248.429 185.09 244.929 173.79 248.319 162.19C248.659 161.05 249.589 160.18 250.759 159.93C250.829 159.92 250.889 159.9 250.959 159.89C253.019 150.61 260.029 129.33 282.539 116.04L283.829 115.28L285.219 115.86C289.299 117.56 296.589 123.3 294.929 132.84C293.369 141.8 276.929 163.8 267.659 173.96C267.659 173.96 267.659 173.97 267.669 173.98C268.389 175.13 268.329 176.57 267.519 177.65C265.969 179.71 261.379 184.81 252.299 187.52L249.469 188.36V188.37ZM253.039 169.23C252.559 173.82 253.069 178.02 253.579 180.71C255.269 180 256.699 179.21 257.899 178.41L254.459 178L259.629 173.55C266.599 167.55 287.569 140.19 289.019 131.82C289.949 126.46 286.229 123.36 284.169 122.08C259.339 137.67 256.169 164.78 256.139 165.05L255.399 171.97L253.049 169.22L253.039 169.23ZM249.329 164.9C249.329 164.9 249.329 164.9 249.329 164.91V164.9Z" fill="#0F0F0F"/>
<path d="M291.939 127.81C290.629 121.37 284.059 118.63 284.059 118.63C282.119 119.77 280.309 120.98 278.599 122.24C278.559 122.37 274.079 136.97 291.939 127.81Z" fill="#3FC9B1"/>
<path d="M282.559 133.82C280.569 133.82 278.939 133.28 277.649 132.19C273.679 128.87 275.359 122.59 275.729 121.36L276.019 120.41L276.819 119.82C278.669 118.46 280.589 117.19 282.529 116.04L283.829 115.28L285.219 115.86C285.549 116 293.269 119.31 294.879 127.21L295.339 129.44L293.319 130.48C288.969 132.71 285.409 133.82 282.569 133.82H282.559ZM281.249 124.03C280.969 125.5 280.999 127.17 281.499 127.59C281.509 127.6 282.849 128.62 288.219 126.26C287.139 124.22 285.359 122.84 284.149 122.08C283.169 122.7 282.199 123.35 281.249 124.02V124.03Z" fill="#0F0F0F"/>
<path d="M276.178 135.74L264.027 137.37C263.187 138.6 262.398 139.87 261.648 141.16C261.258 141.83 260.878 142.5 260.508 143.18C260.138 143.86 259.688 144.5 259.438 145.19C259.688 145.27 260.058 145.18 260.328 145.16L261.918 145.04C263.318 144.94 264.718 144.83 266.118 144.73C267.518 144.63 269.017 144.51 270.467 144.4L276.268 158.77C277.938 156.57 279.597 154.3 281.188 152.04L276.178 135.75V135.74Z" fill="#FFB727"/>
<path d="M275.468 164.79L268.518 147.55L260.548 148.15C260.088 148.21 259.338 148.31 258.508 148.04L255.578 147.09L256.608 144.19C256.878 143.42 257.278 142.76 257.588 142.22C257.688 142.06 257.778 141.9 257.868 141.74C258.248 141.04 258.648 140.35 259.048 139.66C259.898 138.21 260.708 136.91 261.548 135.69L262.298 134.59L278.298 132.44L284.488 152.56L283.648 153.76C282.098 155.97 280.418 158.27 278.658 160.58L275.458 164.79H275.468ZM272.438 141.24L277.048 152.68C277.328 152.29 277.608 151.9 277.888 151.51L274.058 139.06L265.768 140.17C265.428 140.7 265.088 141.25 264.738 141.82L272.438 141.24Z" fill="#0F0F0F"/>
<path d="M248.969 192.78C248.969 192.78 249.039 192.47 249.169 191.89C249.299 191.31 249.489 190.46 249.779 189.4C250.069 188.33 250.419 187.03 250.859 185.56C251.079 184.82 251.319 184.04 251.569 183.21C251.819 182.38 252.129 181.53 252.429 180.62C253.009 178.81 253.739 176.89 254.499 174.84C254.879 173.82 255.319 172.79 255.739 171.72C256.169 170.66 256.589 169.57 257.079 168.48C258.049 166.31 258.999 164.03 260.129 161.79C260.679 160.66 261.229 159.53 261.789 158.39C262.379 157.27 262.979 156.14 263.569 155.01C264.739 152.74 266.049 150.55 267.309 148.37C267.629 147.83 267.939 147.28 268.249 146.75C268.559 146.21 268.919 145.7 269.239 145.17C269.909 144.13 270.569 143.1 271.219 142.09C272.469 140.05 273.879 138.18 275.149 136.37C275.789 135.47 276.399 134.59 277.019 133.76C277.669 132.94 278.289 132.15 278.889 131.39C280.089 129.88 281.169 128.47 282.199 127.28C283.239 126.1 284.149 125.07 284.899 124.22C285.639 123.37 286.249 122.72 286.649 122.26C287.059 121.81 287.269 121.57 287.269 121.57C287.269 121.57 287.079 121.83 286.709 122.31C286.339 122.79 285.819 123.5 285.129 124.38C284.439 125.27 283.609 126.35 282.649 127.58C282.159 128.19 281.709 128.89 281.199 129.6C280.689 130.31 280.159 131.06 279.599 131.84C279.039 132.62 278.459 133.43 277.859 134.27C277.289 135.13 276.699 136.02 276.089 136.93C274.889 138.77 273.569 140.66 272.359 142.71C271.119 144.75 269.789 146.82 268.579 149.01C267.959 150.09 267.329 151.19 266.709 152.28C265.929 153.6 265.289 154.99 264.519 156.32C264.009 157.3 263.489 158.27 262.979 159.25C262.469 160.29 261.959 161.32 261.449 162.35C260.319 164.57 259.309 166.8 258.299 168.95C257.779 170.02 257.349 171.1 256.879 172.14C256.429 173.19 255.959 174.2 255.539 175.2C254.729 177.21 253.909 179.1 253.239 180.87C252.539 182.63 251.929 184.26 251.399 185.7C250.859 187.14 250.429 188.41 250.069 189.46C249.719 190.51 249.449 191.33 249.259 191.9C249.079 192.47 248.989 192.77 248.989 192.77L248.969 192.78Z" fill="#603913"/>
<path d="M251.829 193.68L246.039 192.13L246.229 191.25C246.369 190.64 246.569 189.75 246.869 188.63C247.179 187.49 247.529 186.18 247.969 184.7L248.679 182.34C248.849 181.77 249.049 181.2 249.249 180.61L249.559 179.68C250.069 178.1 250.679 176.46 251.329 174.72L251.669 173.8C251.929 173.11 252.199 172.43 252.479 171.73L253.199 169.94C253.559 169.05 253.919 168.14 254.329 167.24C254.579 166.67 254.839 166.08 255.099 165.49C255.819 163.85 256.569 162.15 257.419 160.45L259.059 157.09L260.879 153.62C261.879 151.68 262.979 149.79 264.049 147.95L265.619 145.25C265.839 144.87 266.079 144.49 266.329 144.12C266.439 143.95 266.559 143.77 266.669 143.59L268.659 140.48C269.599 138.94 270.639 137.49 271.639 136.09C271.979 135.61 272.319 135.13 272.649 134.66L273.349 133.67C273.759 133.09 274.159 132.52 274.569 131.97L277.309 128.49C278.199 127.36 279.049 126.29 279.869 125.32L282.599 122.23C283.109 121.65 283.549 121.16 283.919 120.75L284.989 119.56L289.609 123.38L288.639 124.66C288.309 125.09 287.909 125.62 287.439 126.23L284.959 129.42C284.659 129.8 284.399 130.17 284.139 130.55C283.959 130.81 283.769 131.08 283.579 131.35L280.279 135.97L278.539 138.59C278.199 139.11 277.839 139.66 277.469 140.21C276.609 141.51 275.709 142.85 274.889 144.24C274.529 144.84 274.169 145.42 273.809 146C272.919 147.45 271.989 148.95 271.159 150.46L269.269 153.77C268.869 154.44 268.529 155.1 268.169 155.8C267.829 156.46 267.479 157.12 267.109 157.77L265.349 161.15L264.099 163.68C263.199 165.45 262.369 167.23 261.579 168.95L260.989 170.22C260.669 170.87 260.409 171.49 260.139 172.11C259.959 172.54 259.769 172.96 259.579 173.38L259.109 174.46C258.829 175.1 258.549 175.73 258.289 176.35C257.989 177.09 257.689 177.83 257.389 178.55C256.899 179.72 256.429 180.85 256.029 181.94C255.319 183.73 254.719 185.33 254.189 186.76C253.669 188.17 253.239 189.42 252.889 190.44L251.829 193.68Z" fill="#0F0F0F"/>
<path d="M251.858 184.2C251.608 183.39 248.628 173.19 251.728 163C251.748 162.95 251.808 162.93 251.848 162.98L253.438 164.84C253.438 164.84 253.548 164.87 253.558 164.81C253.828 162.6 257.638 135.54 283.488 120.26C283.508 120.25 283.528 120.25 283.548 120.26C284.118 120.51 292.768 124.44 291.188 133.53C289.568 142.88 268.498 169.77 261.838 175.6C261.798 175.64 261.818 175.7 261.878 175.71C262.238 175.72 263.278 175.71 265.198 175.31C265.308 175.29 265.398 175.4 265.328 175.49C264.498 176.65 260.538 181.66 251.948 184.25C251.918 184.25 251.888 184.25 251.878 184.22L251.858 184.2Z" fill="#EF6600"/>
<path d="M254.468 177.06C252.248 171.44 251.848 164.98 251.788 163.3C251.788 163.22 251.678 163.22 251.658 163.29C248.698 173.39 251.628 183.41 251.868 184.21C251.868 184.24 251.908 184.25 251.938 184.24C260.578 181.64 264.528 176.6 265.338 175.47C265.378 175.41 265.308 175.35 265.248 175.39C260.218 178.33 254.968 177.21 254.518 177.11C254.498 177.11 254.478 177.09 254.478 177.07L254.468 177.06Z" fill="#FFB300"/>
<path d="M291.138 129.09C289.888 123.13 283.998 120.45 283.538 120.25C283.518 120.25 283.498 120.25 283.478 120.25C281.608 121.35 279.868 122.52 278.228 123.73C278.228 123.73 278.218 123.73 278.218 123.75C278.108 124.12 274.008 137.92 291.098 129.17C291.128 129.16 291.138 129.12 291.138 129.09Z" fill="#3FC9B1"/>
<path d="M264.488 147.82L272.228 163.78C272.228 163.78 272.308 163.83 272.338 163.79C273.908 161.82 275.528 159.73 277.118 157.59C277.128 157.57 277.138 157.55 277.128 157.53L272.318 141.89C272.318 141.89 272.278 141.84 272.248 141.84L261.018 143.35" fill="#3FC9B1"/>
<path d="M275.818 136.83L264.118 138.4C264.118 138.4 264.078 138.41 264.068 138.43C262.308 141 260.808 143.58 259.578 146.03L270.288 145.21C270.288 145.21 270.348 145.22 270.358 145.25L275.918 159.03C275.918 159.03 275.998 159.09 276.028 159.05C277.618 156.95 279.198 154.79 280.708 152.64C280.718 152.62 280.728 152.6 280.708 152.58L275.878 136.87C275.878 136.87 275.838 136.82 275.808 136.82L275.818 136.83Z" fill="#FFB727"/>
<path d="M249.488 192.13C249.488 192.13 249.558 191.83 249.678 191.27C249.798 190.71 249.988 189.89 250.268 188.85C250.548 187.81 250.888 186.56 251.318 185.12C251.538 184.4 251.758 183.64 252.008 182.84C252.248 182.04 252.548 181.21 252.838 180.33C253.408 178.58 254.108 176.71 254.848 174.73C255.218 173.74 255.638 172.74 256.048 171.7C256.468 170.67 256.878 169.61 257.348 168.56C258.288 166.45 259.208 164.24 260.298 162.07C260.828 160.98 261.368 159.88 261.898 158.77C262.468 157.68 263.048 156.59 263.628 155.49C264.758 153.29 266.028 151.16 267.258 149.05C267.568 148.52 267.868 148 268.168 147.48C268.468 146.96 268.818 146.46 269.128 145.95C269.778 144.94 270.418 143.94 271.048 142.96C272.258 140.98 273.628 139.17 274.858 137.42C275.478 136.55 276.068 135.69 276.668 134.88C277.298 134.09 277.898 133.32 278.478 132.58C279.648 131.11 280.688 129.75 281.688 128.59C282.698 127.44 283.578 126.45 284.308 125.62C285.028 124.8 285.618 124.16 286.008 123.72C286.398 123.28 286.608 123.05 286.608 123.05C286.608 123.05 286.418 123.3 286.068 123.76C285.708 124.22 285.198 124.91 284.528 125.77C283.858 126.63 283.048 127.68 282.118 128.87C281.638 129.46 281.208 130.14 280.708 130.83C280.218 131.52 279.698 132.25 279.158 133C278.618 133.75 278.058 134.54 277.468 135.36C276.918 136.19 276.348 137.05 275.758 137.94C274.598 139.72 273.318 141.56 272.138 143.55C270.938 145.53 269.648 147.54 268.478 149.66C267.878 150.71 267.268 151.77 266.658 152.84C265.928 154.07 265.328 155.36 264.628 156.6L263.598 158.48C262.918 159.86 262.238 161.23 261.558 162.6C260.468 164.76 259.478 166.92 258.508 169C258.008 170.04 257.588 171.09 257.138 172.09C256.698 173.1 256.248 174.09 255.838 175.06C255.048 177.01 254.258 178.84 253.608 180.56C252.928 182.27 252.338 183.85 251.818 185.25C251.298 186.65 250.878 187.88 250.528 188.9C250.188 189.92 249.928 190.72 249.748 191.26C249.578 191.81 249.488 192.1 249.488 192.1V192.13Z" fill="#603913"/>
<path d="M262.919 145.79L259.579 146.04C258.679 147.87 257.869 149.73 257.129 151.6L266.049 151.1L266.169 149.02" fill="#3FC9B1"/>
<path d="M113.269 215.17C111.099 215.17 108.999 214.47 107.279 213.16C105.209 211.58 103.899 209.21 103.679 206.67C103.309 202.41 103.189 195.7 104.679 187.92C105.459 183.87 108.849 180.84 113.119 180.4C126.429 179.01 196.329 172.49 264.809 180.35C269.369 180.87 272.929 184.45 273.279 188.87C273.899 196.74 273.469 202.6 271.999 206.29C270.599 209.81 267.119 212.11 263.129 212.14C250.249 212.24 136.699 213.17 114.159 215.14C113.859 215.17 113.569 215.18 113.269 215.18V215.17ZM115.259 191.24C114.399 196.32 114.339 200.79 114.519 204.07C139.199 202.21 239.389 201.32 262.089 201.15C262.489 199.3 262.719 196 262.409 191.15C196.989 183.8 130.459 189.7 115.259 191.25V191.24Z" fill="black"/>
<mask id="mask0_873_1703" style="mask-type:luminance" maskUnits="userSpaceOnUse" x="108" y="181" width="161" height="29">
<path d="M113.538 185.57C128.188 184.04 196.618 177.72 264.328 185.51C266.198 185.73 267.638 187.12 267.768 188.84C268.098 192.93 268.398 200.25 266.828 204.05C266.258 205.42 264.798 206.31 263.188 206.32C247.878 206.44 135.668 207.37 113.468 209.36C111.268 209.56 109.338 208.07 109.158 206.06C108.818 202.22 108.658 195.89 110.088 188.52C110.388 186.96 111.798 185.76 113.528 185.58L113.538 185.57Z" fill="white"/>
</mask>
<g mask="url(#mask0_873_1703)">
<path d="M212.658 174.34H168.268L179.368 191.87L190.468 209.4L201.558 191.87L212.658 174.34Z" fill="#63D3B3"/>
<path d="M257.048 174.34H212.658L223.758 191.87L234.848 209.4L245.948 191.87L257.048 174.34Z" fill="#63D3B3"/>
<path d="M168.267 174.34H123.877L134.967 191.87L146.067 209.4L157.167 191.87L168.267 174.34Z" fill="#63D3B3"/>
<path d="M123.878 174.34L112.778 191.87L101.678 209.4H123.878H146.068L134.968 191.87L123.878 174.34Z" fill="#EF6600"/>
<path d="M168.268 174.34L157.168 191.87L146.068 209.4H168.268H190.468L179.368 191.87L168.268 174.34Z" fill="#EF6600"/>
<path d="M212.657 174.34L201.557 191.87L190.467 209.4H212.657H234.847L223.757 191.87L212.657 174.34Z" fill="#EF6600"/>
<path d="M268.148 191.87L257.048 174.34L245.948 191.87L234.848 209.4H257.048H279.178V209.29L268.148 191.87Z" fill="#EF6600"/>
<path d="M127.937 197.13C127.937 199.33 125.977 201.12 123.567 201.12C121.157 201.12 119.197 199.34 119.197 197.13C119.197 194.92 121.157 193.14 123.567 193.14C125.977 193.14 127.937 194.93 127.937 197.13Z" fill="#F8C054"/>
<path d="M172.638 197.13C172.638 199.33 170.678 201.12 168.268 201.12C165.858 201.12 163.898 199.34 163.898 197.13C163.898 194.92 165.858 193.14 168.268 193.14C170.678 193.14 172.638 194.93 172.638 197.13Z" fill="#F8C054"/>
<path d="M217.338 197.13C217.338 199.33 215.378 201.12 212.968 201.12C210.558 201.12 208.598 199.34 208.598 197.13C208.598 194.92 210.558 193.14 212.968 193.14C215.378 193.14 217.338 194.93 217.338 197.13Z" fill="#F8C054"/>
<path d="M262.027 197.13C262.027 199.33 260.067 201.12 257.657 201.12C255.247 201.12 253.287 199.34 253.287 197.13C253.287 194.92 255.247 193.14 257.657 193.14C260.067 193.14 262.027 194.93 262.027 197.13Z" fill="#F8C054"/>
<path d="M155.437 181.45H136.697L141.387 188.85L146.067 196.25L150.747 188.85L155.437 181.45Z" fill="#EF6600"/>
<path d="M199.828 181.45H181.088L185.778 188.85L190.458 196.25L195.148 188.85L199.828 181.45Z" fill="#EF6600"/>
<path d="M244.219 181.45H225.479L230.169 188.85L234.849 196.25L239.539 188.85L244.219 181.45Z" fill="#EF6600"/>
<path d="M269.877 181.45H279.177V174.34H257.047L268.147 191.87L279.177 209.29V196.14L274.557 188.85L269.877 181.45Z" fill="#63D3B3"/>
<path d="M101.678 174.34V181.45H111.048L106.358 188.85L101.678 196.25V209.4L112.778 191.87L123.878 174.34H101.678Z" fill="#63D3B3"/>
<path d="M111.048 181.45H101.678V196.25L106.358 188.85L111.048 181.45Z" fill="#F96C41"/>
</g>
<path d="M155.449 232.85C162.569 232.08 169.629 230.9 176.599 229.27C178.379 228.85 179.609 226.71 179.039 224.96C178.439 223.1 176.649 222.07 174.729 222.52C169.489 223.75 164.189 224.73 158.849 225.45L159.779 225.32C158.329 225.51 156.889 225.69 155.439 225.84C154.489 225.94 153.669 226.16 152.969 226.87C152.359 227.48 151.909 228.47 151.939 229.34C152.019 231.07 153.489 233.05 155.439 232.84L155.449 232.85Z" fill="black"/>
<path d="M229.22 225.85C227.77 225.69 226.32 225.52 224.88 225.33L225.81 225.46C220.47 224.74 215.18 223.76 209.93 222.53C208.15 222.11 206.06 223.08 205.62 224.97C205.21 226.76 206.16 228.83 208.06 229.28C215.03 230.91 222.1 232.09 229.21 232.86C230.05 232.95 231.12 232.4 231.68 231.83C232.29 231.22 232.74 230.23 232.71 229.36C232.68 228.49 232.37 227.52 231.68 226.89C230.96 226.22 230.18 225.97 229.21 225.86L229.22 225.85Z" fill="black"/>
<path d="M221.749 342.1C218.709 341 215.499 340.51 212.369 339.7C206.039 338.04 200.069 334.98 195.029 330.81C193.809 329.8 192.609 328.71 191.149 328.07C186.559 326.05 181.389 329.15 177.659 332.49C175.039 334.84 172.589 337.39 170.149 339.94C166.879 343.35 163.609 346.77 160.619 350.42C155.449 356.74 151.089 363.93 149.349 371.91C147.679 379.56 148.689 388.02 153.139 394.43C172.649 392 190.289 388.26 190.289 388.26C190.289 388.26 218.599 394.26 243.149 396C243.409 395.52 243.439 394.93 243.449 394.37C243.579 384.27 243.679 373.97 240.729 364.31C237.779 354.65 231.229 345.54 221.729 342.1H221.749Z" fill="white"/>
<path d="M180.09 251.64C187.93 253.84 196.54 253.47 204.14 250.56C206.38 249.7 208.54 248.67 210.59 247.42C211.7 246.74 212.23 245.15 211.49 244C210.75 242.85 209.26 242.37 208.07 243.1C207.27 243.59 206.46 244.05 205.63 244.47C205.23 244.67 204.83 244.87 204.42 245.06C204.2 245.16 203.98 245.26 203.76 245.36C203.66 245.4 203.57 245.44 203.47 245.48C203.79 245.34 203.62 245.42 203.4 245.51C201.67 246.21 199.88 246.77 198.06 247.19C197.15 247.4 196.23 247.58 195.31 247.72C195.18 247.74 195.03 247.78 194.9 247.78C194.92 247.78 195.35 247.73 195.05 247.76C194.84 247.78 194.64 247.81 194.43 247.83C193.91 247.89 193.4 247.93 192.88 247.97C191.02 248.1 189.14 248.08 187.28 247.92C187 247.9 186.73 247.87 186.45 247.84C186.35 247.83 186.24 247.82 186.14 247.8C186.08 247.8 185.63 247.74 185.96 247.78C186.29 247.82 185.93 247.78 185.88 247.77C185.71 247.74 185.54 247.72 185.37 247.69C185.13 247.65 184.89 247.61 184.65 247.57C183.56 247.37 182.48 247.12 181.42 246.82C180.16 246.47 178.64 247.25 178.34 248.57C178.04 249.9 178.74 251.27 180.09 251.65V251.64Z" fill="black"/>
<path d="M155.549 346.96L165.409 350.11L164.689 354.85L153.439 353.7L155.549 346.96Z" fill="#D6AF43"/>
<path d="M232.739 346.98L243.009 348.33L243.139 353.12L231.869 353.99L232.739 346.98Z" fill="#D6AF43"/>
<path d="M229.171 320.09C217.021 319.24 204.601 320.38 193.141 323.39C189.151 324.44 184.911 325.97 183.351 328.8C181.781 331.65 183.471 334.88 185.701 337.5C194.651 347.94 217.831 357.24 234.581 354.65" fill="#D6AF43"/>
<path d="M229.17 317.59C220.03 316.96 210.84 317.45 201.81 318.98C197.67 319.68 193.46 320.52 189.48 321.88C185.82 323.13 181.51 325.2 180.47 329.32C179.43 333.44 182.2 337.55 185 340.45C187.15 342.68 189.64 344.59 192.22 346.3C198.07 350.17 204.67 353.03 211.4 354.98C218.15 356.94 225.38 358.09 232.41 357.43C233.36 357.34 234.3 357.22 235.24 357.07C236.54 356.87 237.37 355.17 236.99 353.99C236.53 352.58 235.3 352.03 233.91 352.24C233.81 352.26 233.16 352.35 233.58 352.29C234 352.23 233.43 352.31 233.33 352.32C232.94 352.37 232.54 352.41 232.15 352.44C231.38 352.51 230.6 352.55 229.83 352.57C228.2 352.62 226.57 352.57 224.95 352.45C224.13 352.39 223.32 352.31 222.5 352.21C222.32 352.19 222.13 352.16 221.95 352.14C221.49 352.08 222.4 352.2 221.79 352.12C221.36 352.06 220.93 351.99 220.51 351.92C218.84 351.64 217.19 351.3 215.55 350.9C212.22 350.08 208.95 349.02 205.77 347.74C205.57 347.66 205.37 347.58 205.17 347.49C205.09 347.46 204.56 347.23 204.87 347.36C205.18 347.49 204.6 347.24 204.49 347.19C204.29 347.1 204.1 347.02 203.9 346.93C203.15 346.59 202.4 346.25 201.66 345.88C200.19 345.16 198.75 344.4 197.35 343.57C196.04 342.8 194.76 341.98 193.51 341.11C193.22 340.91 192.94 340.7 192.66 340.49C192.51 340.38 192.36 340.27 192.21 340.15C191.76 339.81 192.48 340.36 192.15 340.11C191.59 339.66 191.03 339.21 190.49 338.74C189.52 337.89 188.59 336.99 187.73 336.02C187.47 335.73 187.23 335.43 186.98 335.13C186.8 334.91 187.02 335.18 187.04 335.21C186.98 335.12 186.91 335.04 186.85 334.95C186.68 334.72 186.52 334.48 186.37 334.25C186.13 333.87 185.9 333.48 185.7 333.07C185.66 332.98 185.62 332.88 185.57 332.79C185.4 332.46 185.7 333.18 185.59 332.83C185.52 332.61 185.44 332.4 185.37 332.18C185.3 331.96 185.27 331.74 185.22 331.52C185.15 331.23 185.26 331.71 185.24 331.72C185.25 331.72 185.22 331.46 185.22 331.44C185.21 331.22 185.22 331.01 185.22 330.79C185.22 330.69 185.31 330.46 185.22 330.75C185.12 331.09 185.25 330.69 185.27 330.62C185.3 330.5 185.35 330.38 185.38 330.25C185.44 329.96 185.31 330.39 185.31 330.39C185.31 330.25 185.49 330.02 185.57 329.9C185.62 329.81 185.68 329.72 185.74 329.63C185.88 329.39 185.8 329.64 185.73 329.63C185.54 329.85 185.71 329.63 185.73 329.63C185.8 329.55 185.87 329.47 185.94 329.39C186.17 329.14 186.63 328.88 186.79 328.6C186.79 328.61 186.4 328.88 186.63 328.73C186.7 328.68 186.77 328.63 186.84 328.58C187.04 328.44 187.23 328.31 187.44 328.19C187.78 327.98 188.13 327.79 188.49 327.61C188.66 327.52 188.83 327.44 189 327.36C189.09 327.32 189.18 327.28 189.26 327.24C189.83 326.98 188.95 327.36 189.29 327.23C192.99 325.8 196.91 324.94 200.8 324.19C201.84 323.99 202.88 323.81 203.92 323.64C204.42 323.56 204.93 323.48 205.43 323.41C205.66 323.38 205.9 323.34 206.13 323.31C206.29 323.29 206.44 323.27 206.6 323.25C206.34 323.29 206.43 323.27 206.64 323.25C208.75 322.98 210.87 322.76 213 322.61C217.31 322.3 221.63 322.23 225.95 322.4C227.02 322.44 228.09 322.5 229.15 322.58C230.46 322.67 231.71 321.37 231.65 320.08C231.59 318.65 230.55 317.68 229.15 317.58L229.17 317.59Z" fill="black"/>
<path d="M155.18 318.74C162.78 316.47 170.68 315.16 178.55 314.18C183.82 313.53 189.37 313.05 194.32 315.33C199.27 317.6 203.27 323.54 201.85 329.04C201.16 331.75 199.32 333.89 197.45 335.81C187.18 346.31 173.84 353.27 159.72 355.48" fill="#D6AF43"/>
<path d="M155.84 321.15C159.69 320.01 163.6 319.1 167.54 318.37C169.44 318.02 171.34 317.7 173.25 317.41C174.2 317.27 175.16 317.13 176.11 317C176.9 316.89 175.61 317.06 176.4 316.96C176.64 316.93 176.88 316.9 177.12 316.87C177.67 316.8 178.22 316.73 178.77 316.66C180.54 316.44 182.32 316.25 184.1 316.18C184.99 316.14 185.88 316.14 186.77 316.18C187.21 316.2 187.66 316.23 188.1 316.27C188.32 316.29 188.54 316.32 188.76 316.34C189.05 316.38 189.05 316.38 188.76 316.34C188.91 316.36 189.05 316.38 189.2 316.41C190.07 316.56 190.94 316.76 191.78 317.03C192.21 317.17 192.63 317.32 193.04 317.49C192.62 317.32 192.99 317.47 193.06 317.51C193.27 317.61 193.48 317.71 193.69 317.82C194.31 318.15 194.97 318.52 195.5 318.98C195.01 318.55 195.47 318.97 195.56 319.05C195.7 319.17 195.84 319.29 195.97 319.41C196.29 319.7 196.59 320 196.88 320.32C197.12 320.59 197.4 320.86 197.6 321.16C197.25 320.63 197.58 321.16 197.65 321.25C197.76 321.4 197.86 321.55 197.96 321.71C198.16 322.02 198.35 322.33 198.52 322.66C198.61 322.82 198.69 322.98 198.77 323.15C198.82 323.26 198.88 323.37 198.93 323.48C199.04 323.73 199.03 323.7 198.89 323.38C198.84 323.52 199.15 324.1 199.2 324.23C199.31 324.57 199.4 324.92 199.48 325.27C199.52 325.45 199.55 325.62 199.58 325.8C199.7 326.4 199.55 325.23 199.58 325.85C199.6 326.27 199.63 326.68 199.62 327.1C199.62 327.28 199.6 327.46 199.59 327.64C199.56 328.25 199.71 327.09 199.59 327.69C199.51 328.07 199.44 328.44 199.32 328.8C199.26 329 199.19 329.19 199.12 329.39C198.91 330.03 199.36 328.95 199.05 329.55C198.83 329.98 198.62 330.4 198.37 330.8C198.15 331.15 197.92 331.48 197.68 331.81C197.3 332.35 197.9 331.56 197.63 331.87C197.52 332 197.42 332.13 197.31 332.26C196.74 332.94 196.14 333.58 195.52 334.21C194.31 335.44 193.05 336.63 191.75 337.76C191.13 338.3 190.5 338.84 189.86 339.36C189.59 339.58 189.33 339.79 189.06 340C188.9 340.13 188.74 340.25 188.57 340.38C189.04 340.01 188.34 340.55 188.26 340.61C185.59 342.62 182.77 344.43 179.83 346.03C178.16 346.94 176.45 347.78 174.72 348.54C174.53 348.62 174.35 348.7 174.16 348.78C173.9 348.89 173.91 348.89 174.2 348.77C174.08 348.82 173.95 348.87 173.82 348.93C173.38 349.11 172.94 349.29 172.5 349.46C171.68 349.78 170.85 350.08 170.02 350.36C166.44 351.58 162.77 352.49 159.03 353.08C157.73 353.28 156.9 354.97 157.28 356.16C157.74 357.57 158.97 358.13 160.36 357.91C167.39 356.8 174.2 354.52 180.55 351.31C186.96 348.07 192.88 343.79 198.02 338.78C200.69 336.17 203.46 333.23 204.31 329.47C205.11 325.93 204.24 322.21 202.27 319.19C200.3 316.17 197.31 313.77 193.82 312.47C190.1 311.09 185.99 311 182.08 311.33C177.92 311.68 173.76 312.3 169.64 312.97C165.56 313.64 161.5 314.46 157.5 315.51C156.49 315.78 155.49 316.06 154.49 316.35C153.24 316.72 152.32 318.12 152.74 319.43C153.15 320.7 154.47 321.57 155.82 321.18L155.84 321.15Z" fill="black"/>
<path d="M200.519 384.57C199.859 384.57 199.199 384.43 198.599 384.17L185.259 378.37C185.159 378.33 185.049 378.31 184.929 378.31C184.789 378.31 184.649 378.34 184.539 378.4L176.129 383.17C175.419 383.57 174.609 383.79 173.769 383.79C172.929 383.79 172.089 383.57 171.379 383.16L163.149 378.39C163.039 378.33 162.909 378.29 162.759 378.29C162.609 378.29 162.479 378.32 162.369 378.38L155.429 382.36C154.719 382.77 153.899 382.98 153.049 382.98C151.909 382.98 150.829 382.59 149.989 381.88L145.639 378.16C145.539 378.07 145.359 378.02 145.179 378.02C144.999 378.02 144.839 378.07 144.729 378.15L140.069 381.84C139.259 382.48 138.219 382.84 137.139 382.84C136.059 382.84 135.059 382.5 134.249 381.87L128.779 377.64C128.669 377.56 128.509 377.51 128.339 377.51C128.169 377.51 128.019 377.55 127.909 377.63L123.559 380.73C122.779 381.29 121.799 381.59 120.809 381.59C119.999 381.59 119.209 381.39 118.519 381.01L112.369 377.66C112.269 377.6 112.129 377.57 111.989 377.57C111.849 377.57 111.729 377.6 111.619 377.65L105.779 380.69C105.099 381.05 104.329 381.23 103.569 381.23C102.099 381.23 100.719 380.56 99.8692 379.45C99.1192 378.46 98.8792 377.22 99.2092 376.04L105.129 354.84C105.639 353.01 107.429 351.73 109.469 351.73C109.599 351.73 109.729 351.73 109.869 351.75C119.969 352.57 156.009 355.25 195.679 355.25C224.889 355.25 249.369 353.79 268.449 350.91C268.699 350.87 268.939 350.85 269.189 350.85C271.449 350.85 273.319 352.34 273.639 354.4L276.969 375.83C277.149 376.97 276.819 378.1 276.059 378.99C275.209 379.98 273.889 380.57 272.519 380.57C271.729 380.57 270.949 380.37 270.259 380L261.579 375.35C261.469 375.29 261.349 375.26 261.209 375.26C260.969 375.26 260.789 375.35 260.719 375.44L255.809 381.33C254.949 382.36 253.659 382.95 252.249 382.95C251.119 382.95 250.029 382.56 249.199 381.85L243.319 376.85C243.209 376.76 243.039 376.71 242.859 376.71C242.699 376.71 242.549 376.75 242.449 376.82L231.999 383.72C231.229 384.23 230.329 384.49 229.379 384.49C228.659 384.49 227.939 384.33 227.309 384.03L213.679 377.52C213.579 377.47 213.459 377.45 213.329 377.45C213.179 377.45 213.029 377.49 212.919 377.56L202.999 383.83C202.249 384.3 201.369 384.56 200.459 384.56L200.519 384.57Z" fill="#7F4F08"/>
<path d="M269.239 352.87C270.469 352.87 271.539 353.64 271.709 354.73L275.039 376.16C275.249 377.53 273.979 378.6 272.559 378.6C272.119 378.6 271.669 378.5 271.249 378.27L262.569 373.62C262.159 373.4 261.709 373.3 261.249 373.3C260.469 373.3 259.709 373.61 259.219 374.2L254.309 380.09C253.819 380.68 253.049 380.99 252.279 380.99C251.649 380.99 251.019 380.79 250.529 380.37L244.649 375.37C244.169 374.96 243.529 374.75 242.899 374.75C242.369 374.75 241.829 374.9 241.379 375.19L230.929 382.09C230.489 382.38 229.949 382.53 229.409 382.53C228.999 382.53 228.579 382.44 228.199 382.26L214.569 375.75C214.189 375.57 213.779 375.48 213.359 375.48C212.839 375.48 212.319 375.62 211.879 375.9L201.959 382.17C201.519 382.45 201.009 382.59 200.479 382.59C200.099 382.59 199.709 382.51 199.359 382.36L186.019 376.56C185.669 376.41 185.279 376.33 184.899 376.33C184.419 376.33 183.939 376.45 183.529 376.68L175.119 381.45C174.699 381.69 174.229 381.8 173.749 381.8C173.269 381.8 172.779 381.68 172.359 381.43L164.129 376.66C163.709 376.42 163.219 376.29 162.739 376.29C162.259 376.29 161.779 376.41 161.359 376.65L154.419 380.63C153.999 380.87 153.519 380.99 153.039 380.99C152.399 380.99 151.759 380.78 151.279 380.37L146.929 376.65C146.449 376.24 145.809 376.03 145.169 376.03C144.529 376.03 143.959 376.22 143.479 376.6L138.819 380.29C138.339 380.67 137.739 380.86 137.129 380.86C136.519 380.86 135.939 380.68 135.469 380.31L129.989 376.08C129.519 375.71 128.919 375.53 128.329 375.53C127.769 375.53 127.199 375.69 126.739 376.02L122.389 379.12C121.929 379.45 121.369 379.61 120.799 379.61C120.339 379.61 119.879 379.5 119.469 379.28L113.319 375.93C112.909 375.71 112.449 375.6 111.989 375.6C111.529 375.6 111.099 375.7 110.699 375.91L104.859 378.95C104.439 379.17 103.999 379.27 103.569 379.27C102.069 379.27 100.739 378.06 101.139 376.61L107.059 355.41C107.329 354.44 108.339 353.76 109.479 353.76C109.559 353.76 109.639 353.76 109.719 353.76C118.809 354.5 155.529 357.27 195.699 357.27C220.659 357.27 246.959 356.2 268.769 352.91C268.919 352.89 269.059 352.88 269.209 352.88M269.209 348.88C268.859 348.88 268.519 348.91 268.169 348.96C249.189 351.82 224.799 353.27 195.689 353.27C156.079 353.27 120.119 350.6 110.039 349.78C109.849 349.76 109.669 349.76 109.479 349.76C106.539 349.76 103.959 351.64 103.209 354.33L97.2886 375.53C96.7886 377.32 97.1486 379.2 98.2786 380.69C99.4986 382.3 101.479 383.26 103.569 383.26C104.659 383.26 105.739 382.99 106.709 382.49L111.979 379.75L117.559 382.79C118.549 383.33 119.669 383.61 120.809 383.61C122.209 383.61 123.599 383.17 124.719 382.38L128.309 379.82L133.039 383.47C134.189 384.36 135.649 384.85 137.149 384.85C138.649 384.85 140.149 384.34 141.319 383.42L145.149 380.39L148.689 383.41C149.879 384.43 151.429 384.99 153.039 384.99C154.229 384.99 155.389 384.68 156.409 384.1L162.739 380.47L170.359 384.89C171.379 385.48 172.559 385.79 173.759 385.79C174.959 385.79 176.099 385.49 177.099 384.92L184.979 380.45L197.779 386.02C198.639 386.39 199.549 386.58 200.499 386.58C201.789 386.58 203.039 386.22 204.109 385.55L213.449 379.65L226.489 385.88C227.389 386.31 228.409 386.54 229.419 386.54C230.759 386.54 232.049 386.16 233.139 385.43L242.799 379.05L247.939 383.42C249.129 384.43 250.679 384.99 252.279 384.99C254.289 384.99 256.149 384.14 257.379 382.65L261.559 377.63L269.339 381.8C270.319 382.33 271.429 382.6 272.539 382.6C274.479 382.6 276.379 381.75 277.599 380.32C278.729 379 279.229 377.26 278.969 375.55L275.639 354.12C275.169 351.08 272.459 348.88 269.219 348.88H269.209Z" fill="#0F0F0F"/>
</g>
<defs>
<clipPath id="clip0_873_1703">
<rect width="380.54" height="573" fill="white" transform="translate(0.949219)"/>
</clipPath>
</defs>
</svg>
