<svg width="381" height="573" viewBox="0 0 381 573" fill="none" xmlns="http://www.w3.org/2000/svg">
<g clip-path="url(#clip0_873_2128)">
<path d="M358.467 0H22.4673C10.1679 0 0.197266 9.97062 0.197266 22.27V550.73C0.197266 563.029 10.1679 573 22.4673 573H358.467C370.767 573 380.737 563.029 380.737 550.73V22.27C380.737 9.97062 370.767 0 358.467 0Z" fill="white"/>
<path d="M319.428 95.66C338.205 95.66 353.428 80.4377 353.428 61.66C353.428 42.8823 338.205 27.66 319.428 27.66C300.65 27.66 285.428 42.8823 285.428 61.66C285.428 80.4377 300.65 95.66 319.428 95.66Z" fill="#98CA51"/>
<path d="M311.175 65.4169C310.256 64.5811 309.559 63.4667 309.085 62.0737C308.612 60.6807 308.375 58.828 308.375 56.5156C308.375 52.7267 309.308 49.871 311.175 47.9487C313.069 46.0264 316.162 45.0652 320.452 45.0652C322.319 45.0652 324.06 45.2881 325.676 45.7338C327.292 46.1517 328.685 46.7925 329.855 47.6562C330.969 48.6034 331.861 49.8014 332.53 51.2501C333.198 52.6988 333.533 54.454 333.533 56.5156V68.7601C333.505 70.5432 333.156 72.1173 332.488 73.4824C331.847 74.8475 330.969 76.0037 329.855 76.951C328.685 77.9261 327.306 78.6504 325.718 79.124C324.13 79.5977 322.389 79.8345 320.494 79.8345H310.673C310.673 78.9151 310.729 78.0932 310.841 77.3689C310.98 76.6445 311.231 76.0176 311.593 75.4883C311.927 75.0147 312.401 74.6525 313.014 74.4018C313.654 74.1232 314.49 73.9839 315.521 73.9839H319.658C320.661 73.8446 321.511 73.5938 322.207 73.2316C322.904 72.8416 323.461 72.368 323.879 71.8108C324.297 71.2257 324.603 70.571 324.798 69.8467C324.993 69.0944 325.119 68.2865 325.175 67.4228C324.478 67.6179 323.656 67.7711 322.709 67.8825C321.762 67.994 320.884 68.0497 320.076 68.0497C318.154 68.0497 316.413 67.8407 314.852 67.4228C313.32 66.9771 312.094 66.3084 311.175 65.4169ZM325.175 55.5127C325.175 54.3147 324.868 53.27 324.255 52.3784C323.642 51.4591 322.514 50.9994 320.87 50.9994C319.254 50.9994 318.015 51.4033 317.151 52.2113C316.315 53.0192 315.897 54.3983 315.897 56.3485C315.897 57.9086 316.106 59.0509 316.524 59.7753C316.97 60.4718 317.75 61.0708 318.864 61.5722C319.867 61.7951 320.801 61.9066 321.664 61.9066C322.333 61.9066 322.932 61.8508 323.461 61.7394C323.991 61.628 324.562 61.4608 325.175 61.2379V55.5127Z" fill="white"/>
<path d="M51.389 489.907C49.066 487.795 47.3062 484.98 46.1095 481.46C44.9128 477.94 44.3145 473.259 44.3145 467.417C44.3145 457.843 46.6726 450.628 51.389 445.771C56.1757 440.913 63.9894 438.485 74.83 438.485C79.5463 438.485 83.9459 439.048 88.0287 440.174C92.1115 441.23 95.6312 442.849 98.5877 445.031C101.403 447.425 103.656 450.452 105.345 454.112C107.035 457.773 107.88 462.207 107.88 467.417V498.354C107.809 502.86 106.929 506.837 105.24 510.286C103.621 513.735 101.403 516.657 98.5877 519.05C95.6312 521.514 92.1467 523.344 88.1343 524.541C84.1219 525.737 79.7223 526.336 74.9356 526.336H50.1219C50.1219 524.013 50.2627 521.936 50.5443 520.106C50.8962 518.276 51.5298 516.692 52.4449 515.354C53.2896 514.158 54.4863 513.243 56.0349 512.609C57.654 511.905 59.7658 511.553 62.3703 511.553H72.8238C75.3579 511.201 77.5049 510.568 79.2647 509.653C81.0246 508.667 82.4324 507.47 83.4883 506.062C84.5442 504.584 85.3186 502.93 85.8113 501.1C86.3041 499.199 86.6208 497.158 86.7616 494.976C85.0018 495.468 82.9252 495.855 80.5318 496.137C78.1384 496.419 75.9211 496.559 73.8797 496.559C69.0225 496.559 64.6229 496.031 60.6809 494.976C56.8093 493.849 53.712 492.16 51.389 489.907ZM86.7616 464.882C86.7616 461.855 85.9873 459.216 84.4387 456.963C82.89 454.64 80.0391 453.479 75.8859 453.479C71.8031 453.479 68.6705 454.499 66.4884 456.541C64.3766 458.582 63.3207 462.067 63.3207 466.994C63.3207 470.936 63.8486 473.822 64.9045 475.653C66.0308 477.412 68.0018 478.926 70.8175 480.193C73.3517 480.756 75.7099 481.038 77.8921 481.038C79.5815 481.038 81.095 480.897 82.4324 480.615C83.7699 480.334 85.213 479.911 86.7616 479.348V464.882Z" fill="#98CA51"/>
<path d="M262.597 386.31H114.337C110.107 357.19 107.567 322.27 116.857 304.48L264.227 302C270.107 329.04 268.697 357.29 262.597 386.31Z" fill="#D6AF43"/>
<path d="M189.477 391.81C189.477 391.81 138.367 402.64 113.937 399.43C110.847 399.03 108.537 396.26 108.667 393.15C108.827 389.17 113.527 386.42 116.417 384.28C110.967 372.46 104.657 360.41 104.647 347.39C104.627 334.43 110.867 322.38 116.947 310.93" fill="#D6AF43"/>
<path d="M188.547 388.43C186.447 388.88 184.327 389.28 182.217 389.69C176.987 390.69 171.737 391.61 166.467 392.45C162.677 393.05 158.887 393.62 155.087 394.13L156.017 394C150.187 394.78 144.327 395.45 138.467 395.91C132.957 396.35 127.427 396.62 121.897 396.49C119.237 396.43 116.577 396.27 113.937 395.93L114.867 396.06C114.547 396.01 114.237 395.95 113.937 395.86C113.807 395.82 113.667 395.75 113.527 395.72C114.297 395.87 114.107 395.98 113.747 395.8C113.497 395.67 113.267 395.52 113.027 395.36C112.497 395.02 113.647 395.93 113.207 395.49C113.107 395.39 113.007 395.3 112.907 395.2C112.807 395.1 112.717 395 112.627 394.89C112.247 394.47 113.037 395.48 112.817 395.14C112.647 394.88 112.477 394.63 112.337 394.35C112.267 394.22 112.057 393.73 112.307 394.31C112.557 394.89 112.357 394.4 112.307 394.25C112.207 393.92 112.137 393.59 112.087 393.25L112.217 394.18C112.157 393.67 112.147 393.17 112.217 392.66L112.087 393.59C112.117 393.38 112.157 393.18 112.207 392.97C112.247 392.8 112.547 392.02 112.277 392.64C112.017 393.26 112.327 392.56 112.407 392.41C112.517 392.2 112.647 391.99 112.777 391.79C112.837 391.7 112.907 391.61 112.967 391.52C113.227 391.13 112.737 391.8 112.717 391.84C112.787 391.64 113.067 391.42 113.207 391.27C113.537 390.91 113.887 390.57 114.247 390.25C114.607 389.93 114.947 389.65 115.317 389.35C115.767 388.99 114.757 389.78 115.087 389.52C115.177 389.45 115.267 389.38 115.367 389.31C115.547 389.17 115.737 389.04 115.917 388.9C116.667 388.35 117.437 387.82 118.187 387.27C118.937 386.72 119.587 386.1 119.797 385.18C120.007 384.26 119.857 383.38 119.447 382.48C117.647 378.58 115.787 374.7 114.067 370.76C113.857 370.28 113.647 369.79 113.437 369.3C113.467 369.37 113.757 370.07 113.527 369.51C113.487 369.41 113.437 369.3 113.397 369.2C113.277 368.92 113.167 368.64 113.057 368.36C112.647 367.35 112.247 366.34 111.877 365.31C111.137 363.32 110.467 361.3 109.907 359.25C109.267 356.93 108.767 354.58 108.437 352.19L108.567 353.12C108.047 349.28 108.047 345.41 108.557 341.56L108.427 342.49C109.007 338.29 110.147 334.19 111.617 330.21C111.987 329.22 112.367 328.25 112.767 327.27C112.827 327.13 112.887 326.99 112.937 326.85C112.937 326.84 112.647 327.52 112.807 327.17C112.917 326.93 113.017 326.68 113.117 326.44C113.327 325.96 113.547 325.47 113.757 324.99C114.647 323.03 115.587 321.09 116.567 319.16C117.677 316.97 118.817 314.81 119.967 312.64C120.827 311.02 120.427 308.76 118.707 307.85C117.087 306.99 114.837 307.38 113.917 309.11C109.027 318.33 103.987 327.85 102.047 338.21C101.537 340.92 101.207 343.68 101.147 346.44C101.087 349.2 101.357 352.04 101.777 354.81C102.547 359.85 104.117 364.74 105.997 369.47C108.227 375.08 110.857 380.51 113.387 385.99L114.647 381.2C110.587 384.21 105.807 387.11 105.207 392.62C104.907 395.39 106.107 398.38 108.137 400.27C109.277 401.34 110.647 402.15 112.157 402.57C113.207 402.87 114.347 402.93 115.427 403.05C122.537 403.79 129.757 403.49 136.877 402.98C145.037 402.39 153.167 401.39 161.267 400.22C167.827 399.27 174.377 398.19 180.897 396.98C184.017 396.4 187.187 395.89 190.277 395.15C190.317 395.14 190.367 395.13 190.407 395.12C192.197 394.74 193.407 392.54 192.847 390.81C192.237 388.92 190.467 387.96 188.537 388.37L188.547 388.43Z" fill="black"/>
<path d="M189.477 391.81C189.477 391.81 240.587 402.64 265.017 399.43C268.107 399.03 270.417 396.26 270.287 393.15C270.127 389.17 265.427 386.42 262.537 384.28C267.987 372.46 274.297 360.41 274.307 347.39C274.327 334.43 268.087 322.38 262.007 310.93" fill="#D6AF43"/>
<path d="M188.547 395.18C191.097 395.72 193.647 396.21 196.207 396.69C202.447 397.86 208.697 398.93 214.977 399.87C223.027 401.08 231.107 402.12 239.217 402.81C246.517 403.42 253.887 403.82 261.207 403.31C261.997 403.25 262.797 403.19 263.587 403.1C264.707 402.98 265.887 402.92 266.967 402.58C269.977 401.63 272.207 399.37 273.287 396.44C274.257 393.82 273.807 390.75 272.317 388.42C270.827 386.09 268.837 384.54 266.717 382.99C265.917 382.41 265.107 381.84 264.307 381.26C264.727 382.86 265.147 384.45 265.567 386.05C269.937 376.57 274.877 367.06 276.857 356.73C277.377 354.03 277.727 351.27 277.807 348.52C277.887 345.71 277.637 342.92 277.227 340.14C276.477 335.09 274.907 330.19 272.957 325.48C270.647 319.89 267.877 314.52 265.047 309.18C264.187 307.56 261.807 306.93 260.257 307.92C258.607 308.98 258.077 310.98 258.997 312.71C261.017 316.51 263.027 320.32 264.827 324.23C265.267 325.19 265.697 326.16 266.117 327.13C266.197 327.31 266.357 327.75 266.027 326.92C266.067 327.02 266.117 327.13 266.157 327.23C266.257 327.47 266.357 327.72 266.457 327.96C266.657 328.45 266.847 328.94 267.037 329.43C267.797 331.42 268.487 333.43 269.057 335.48C269.707 337.8 270.217 340.16 270.547 342.54L270.417 341.61C270.927 345.46 270.917 349.32 270.407 353.17L270.537 352.24C269.957 356.44 268.827 360.53 267.397 364.51C267.027 365.53 266.647 366.55 266.247 367.56C266.057 368.05 265.857 368.54 265.657 369.03C265.607 369.16 265.307 369.67 265.357 369.76C265.357 369.76 265.637 369.09 265.487 369.45C265.417 369.62 265.337 369.8 265.267 369.97C264.417 371.95 263.527 373.91 262.627 375.87C261.597 378.09 260.557 380.3 259.527 382.52C259.137 383.36 258.877 384.29 259.177 385.22C259.477 386.14 260.017 386.74 260.787 387.31C261.517 387.85 262.257 388.36 262.987 388.89C263.167 389.02 263.357 389.16 263.537 389.3C263.627 389.37 263.717 389.44 263.817 389.51C264.337 389.9 263.287 389.09 263.587 389.33C263.967 389.64 264.357 389.95 264.717 390.28C265.057 390.59 265.387 390.9 265.697 391.24C265.867 391.42 266.027 391.62 266.197 391.81C266.467 392.11 265.737 391.16 265.957 391.49C266.017 391.58 266.087 391.67 266.147 391.76C266.277 391.96 266.867 392.69 266.807 392.95C266.807 392.95 266.497 392.08 266.627 392.55C266.667 392.68 266.707 392.8 266.747 392.92C266.807 393.15 266.857 393.38 266.887 393.61L266.757 392.68C266.817 393.19 266.807 393.69 266.757 394.2L266.887 393.27C266.837 393.58 266.777 393.88 266.687 394.18C266.647 394.31 266.577 394.45 266.557 394.58C266.697 393.83 266.827 393.98 266.637 394.36C266.507 394.61 266.357 394.84 266.207 395.08C265.887 395.61 266.777 394.45 266.347 394.9C266.247 395 266.157 395.11 266.067 395.21C265.977 395.31 265.867 395.4 265.767 395.5C265.357 395.88 266.357 395.09 266.017 395.32C265.757 395.49 265.507 395.66 265.227 395.81C265.097 395.88 264.607 396.09 265.187 395.85C265.767 395.61 265.267 395.81 265.127 395.85C264.797 395.95 264.457 396.02 264.107 396.08L265.037 395.95C260.107 396.59 255.097 396.63 250.137 396.47C244.357 396.29 238.577 395.82 232.827 395.21C229.537 394.86 226.247 394.46 222.957 394.02L223.887 394.15C217.477 393.29 211.077 392.28 204.697 391.17C200.637 390.46 196.577 389.71 192.537 388.89C191.827 388.75 191.127 388.61 190.427 388.46C188.637 388.08 186.557 388.99 186.117 390.9C185.717 392.66 186.647 394.8 188.557 395.21L188.547 395.18Z" fill="black"/>
<path d="M116.797 310.07C115.507 309.56 116.497 309.83 115.227 309.26C113.317 308.4 111.437 307.47 109.587 306.45C105.537 304.21 101.677 301.63 98.1367 298.69C94.4267 295.59 91.0867 292.05 88.3467 288.09C81.2467 277.85 79.1167 265.5 81.3067 253.41C81.8167 250.59 82.5367 247.81 83.4167 245.09C83.4167 245.09 86.8967 227.68 113.767 205.4C112.767 202.17 112.227 198.76 112.227 195.22C112.227 175.76 128.437 159.99 148.437 159.99C165.547 159.99 179.867 171.54 183.657 187.05C184.267 186.93 187.257 186.95 188.447 186.97C189.647 186.96 192.637 186.93 193.237 187.05C197.027 171.53 211.347 159.99 228.457 159.99C248.457 159.99 264.667 175.76 264.667 195.22C264.667 198.76 264.127 202.18 263.127 205.4C290.007 227.67 293.477 245.09 293.477 245.09C294.357 247.82 295.077 250.6 295.587 253.41C297.777 265.5 295.647 277.85 288.547 288.09C285.807 292.04 282.467 295.58 278.757 298.69C277.107 300.07 275.367 301.33 273.607 302.56C270.777 304.55 268.017 306.64 265.157 308.58L261.437 310.39" fill="#D6AF43"/>
<path d="M261.447 313.89C260.147 313.89 258.907 313.17 258.297 311.92C257.447 310.18 258.177 308.09 259.917 307.24L263.407 305.54C265.007 304.45 266.627 303.28 268.197 302.14C269.327 301.32 270.457 300.5 271.597 299.7C273.487 298.37 275.047 297.23 276.517 296C280.137 292.97 283.217 289.64 285.677 286.1C291.957 277.04 294.257 265.65 292.147 254.03C291.688 251.47 291.017 248.82 290.157 246.15L290.057 245.76C290.027 245.62 286.267 229.1 260.907 208.08L259.107 206.59L259.797 204.35C260.717 201.38 261.187 198.31 261.187 195.2C261.187 177.7 246.517 163.47 228.477 163.47C213.247 163.47 200.167 173.5 196.657 187.86L195.867 191.11L192.677 190.48C192.307 190.45 190.947 190.41 188.507 190.45C185.987 190.42 184.627 190.45 184.257 190.48L181.067 191.11L180.277 187.86C176.777 173.5 163.687 163.47 148.457 163.47C130.427 163.47 115.747 177.7 115.747 195.2C115.747 198.3 116.217 201.38 117.137 204.35L117.827 206.59L116.027 208.08C90.6675 229.1 86.9075 245.61 86.8675 245.78L86.7675 246.15C85.9075 248.82 85.2375 251.47 84.7775 254.02C82.6775 265.64 84.9675 277.03 91.2475 286.09C93.7075 289.63 96.7875 292.97 100.407 296C103.657 298.7 107.327 301.19 111.297 303.38C113.007 304.32 114.817 305.23 116.677 306.06C117.197 306.3 117.607 306.5 117.967 306.76C118.007 306.77 118.047 306.79 118.097 306.81C119.897 307.52 120.777 309.55 120.067 311.35C119.357 313.15 117.327 314.03 115.527 313.32C114.917 313.08 114.417 312.87 113.937 312.5C113.897 312.48 113.857 312.46 113.807 312.44C111.767 311.52 109.787 310.54 107.917 309.5C103.557 307.09 99.5275 304.36 95.9275 301.37C91.8175 297.93 88.3075 294.13 85.4975 290.07C78.1575 279.48 75.4575 266.23 77.8875 252.77C78.3975 249.96 79.1275 247.06 80.0575 244.15C80.5775 241.9 85.1575 225.16 109.817 204.15C109.107 201.22 108.747 198.22 108.747 195.2C108.747 173.85 126.557 156.47 148.457 156.47C165.937 156.47 181.097 167.42 186.287 183.44C186.897 183.44 187.627 183.44 188.507 183.45C189.347 183.44 190.047 183.44 190.647 183.44C195.847 167.43 211.007 156.47 228.477 156.47C250.367 156.47 268.187 173.84 268.187 195.2C268.187 198.22 267.827 201.22 267.117 204.15C291.777 225.17 296.357 241.91 296.877 244.15C297.807 247.06 298.537 249.96 299.047 252.77C301.487 266.23 298.787 279.48 291.437 290.07C288.627 294.13 285.117 297.93 281.017 301.36C279.367 302.74 277.667 303.98 275.637 305.41C274.527 306.19 273.417 306.99 272.317 307.79C270.637 309.01 268.907 310.26 267.137 311.46L266.707 311.71L262.987 313.52C262.497 313.76 261.977 313.87 261.457 313.87L261.447 313.89ZM192.577 190.48C192.577 190.48 192.577 190.48 192.587 190.48H192.577ZM184.337 190.48H184.327C184.327 190.48 184.327 190.48 184.337 190.48Z" fill="black"/>
<path d="M250.687 184.65C250.687 184.65 247.277 173.89 250.447 163.03C250.497 162.85 250.737 162.8 250.867 162.94L252.407 164.73C252.407 164.73 255.477 135.06 283.317 118.62C283.317 118.62 292.917 122.62 291.227 132.32C289.547 142.02 267.577 170.01 260.837 175.81C260.837 175.81 261.807 175.93 264.127 175.46C264.337 175.42 264.497 175.66 264.367 175.83C263.207 177.37 259.077 182.12 250.687 184.63V184.65Z" fill="#EF6600"/>
<path d="M248.717 188.37L247.827 185.56C247.677 185.09 244.177 173.79 247.567 162.19C247.907 161.05 248.837 160.18 250.007 159.93C250.077 159.92 250.137 159.9 250.207 159.89C252.267 150.61 259.277 129.33 281.787 116.04L283.077 115.28L284.467 115.86C288.547 117.56 295.837 123.3 294.177 132.84C292.617 141.8 276.177 163.8 266.907 173.96C266.907 173.96 266.907 173.97 266.917 173.98C267.637 175.13 267.577 176.57 266.767 177.65C265.217 179.71 260.627 184.81 251.547 187.52L248.717 188.36V188.37ZM252.287 169.23C251.807 173.82 252.317 178.02 252.827 180.71C254.517 180 255.947 179.21 257.147 178.41L253.707 178L258.877 173.55C265.847 167.55 286.817 140.19 288.267 131.82C289.197 126.46 285.477 123.36 283.417 122.08C258.587 137.67 255.417 164.78 255.387 165.05L254.647 171.97L252.297 169.22L252.287 169.23ZM248.577 164.9C248.577 164.9 248.577 164.9 248.577 164.91V164.9Z" fill="#0F0F0F"/>
<path d="M291.187 127.81C289.877 121.37 283.307 118.63 283.307 118.63C281.367 119.77 279.557 120.98 277.847 122.24C277.807 122.37 273.327 136.97 291.187 127.81Z" fill="#3FC9B1"/>
<path d="M281.807 133.82C279.817 133.82 278.187 133.28 276.897 132.19C272.927 128.87 274.607 122.59 274.977 121.36L275.267 120.41L276.067 119.82C277.917 118.46 279.837 117.19 281.777 116.04L283.077 115.28L284.467 115.86C284.797 116 292.517 119.31 294.127 127.21L294.587 129.44L292.567 130.48C288.217 132.71 284.657 133.82 281.817 133.82H281.807ZM280.497 124.03C280.217 125.5 280.247 127.17 280.747 127.59C280.757 127.6 282.097 128.62 287.467 126.26C286.387 124.22 284.607 122.84 283.397 122.08C282.417 122.7 281.447 123.35 280.497 124.02V124.03Z" fill="#0F0F0F"/>
<path d="M275.426 135.74L263.276 137.37C262.436 138.6 261.646 139.87 260.896 141.16C260.506 141.83 260.126 142.5 259.756 143.18C259.386 143.86 258.936 144.5 258.686 145.19C258.936 145.27 259.306 145.18 259.576 145.16L261.166 145.04C262.566 144.94 263.966 144.83 265.366 144.73C266.766 144.63 268.266 144.51 269.716 144.4L275.516 158.77C277.186 156.57 278.846 154.3 280.436 152.04L275.426 135.75V135.74Z" fill="#FFB727"/>
<path d="M274.716 164.79L267.766 147.55L259.796 148.15C259.336 148.21 258.586 148.31 257.756 148.04L254.826 147.09L255.856 144.19C256.126 143.42 256.526 142.76 256.836 142.22C256.936 142.06 257.026 141.9 257.116 141.74C257.496 141.04 257.896 140.35 258.296 139.66C259.146 138.21 259.956 136.91 260.796 135.69L261.546 134.59L277.546 132.44L283.736 152.56L282.896 153.76C281.346 155.97 279.666 158.27 277.906 160.58L274.706 164.79H274.716ZM271.686 141.24L276.296 152.68C276.576 152.29 276.856 151.9 277.136 151.51L273.306 139.06L265.016 140.17C264.676 140.7 264.336 141.25 263.986 141.82L271.686 141.24Z" fill="#0F0F0F"/>
<path d="M248.217 192.78C248.217 192.78 248.287 192.47 248.417 191.89C248.547 191.31 248.737 190.46 249.027 189.4C249.317 188.33 249.667 187.03 250.107 185.56C250.327 184.82 250.567 184.04 250.817 183.21C251.067 182.38 251.377 181.53 251.677 180.62C252.257 178.81 252.987 176.89 253.747 174.84C254.127 173.82 254.567 172.79 254.987 171.72C255.417 170.66 255.837 169.57 256.327 168.48C257.297 166.31 258.247 164.03 259.377 161.79C259.927 160.66 260.477 159.53 261.037 158.39C261.627 157.27 262.227 156.14 262.817 155.01C263.987 152.74 265.297 150.55 266.557 148.37C266.877 147.83 267.187 147.28 267.497 146.75C267.807 146.21 268.167 145.7 268.487 145.17C269.157 144.13 269.817 143.1 270.467 142.09C271.717 140.05 273.127 138.18 274.397 136.37C275.037 135.47 275.647 134.59 276.267 133.76C276.917 132.94 277.537 132.15 278.137 131.39C279.337 129.88 280.417 128.47 281.447 127.28C282.487 126.1 283.397 125.07 284.147 124.22C284.887 123.37 285.497 122.72 285.897 122.26C286.307 121.81 286.517 121.57 286.517 121.57C286.517 121.57 286.327 121.83 285.957 122.31C285.587 122.79 285.067 123.5 284.377 124.38C283.687 125.27 282.857 126.35 281.897 127.58C281.407 128.19 280.957 128.89 280.447 129.6C279.937 130.31 279.407 131.06 278.847 131.84C278.287 132.62 277.707 133.43 277.107 134.27C276.537 135.13 275.947 136.02 275.337 136.93C274.137 138.77 272.817 140.66 271.607 142.71C270.367 144.75 269.037 146.82 267.827 149.01C267.207 150.09 266.577 151.19 265.957 152.28C265.177 153.6 264.537 154.99 263.767 156.32C263.257 157.3 262.737 158.27 262.227 159.25C261.717 160.29 261.207 161.32 260.697 162.35C259.567 164.57 258.557 166.8 257.547 168.95C257.027 170.02 256.597 171.1 256.127 172.14C255.677 173.19 255.207 174.2 254.787 175.2C253.977 177.21 253.157 179.1 252.487 180.87C251.787 182.63 251.177 184.26 250.647 185.7C250.107 187.14 249.677 188.41 249.317 189.46C248.967 190.51 248.697 191.33 248.507 191.9C248.327 192.47 248.237 192.77 248.237 192.77L248.217 192.78Z" fill="#603913"/>
<path d="M251.077 193.68L245.287 192.13L245.477 191.25C245.617 190.64 245.817 189.75 246.117 188.63C246.427 187.49 246.777 186.18 247.217 184.7L247.927 182.34C248.097 181.77 248.297 181.2 248.497 180.61L248.807 179.68C249.317 178.1 249.927 176.46 250.577 174.72L250.917 173.8C251.177 173.11 251.447 172.43 251.727 171.73L252.447 169.94C252.807 169.05 253.167 168.14 253.577 167.24C253.827 166.67 254.087 166.08 254.347 165.49C255.067 163.85 255.817 162.15 256.667 160.45L258.307 157.09L260.127 153.62C261.127 151.68 262.227 149.79 263.297 147.95L264.867 145.25C265.087 144.87 265.327 144.49 265.577 144.12C265.687 143.95 265.807 143.77 265.917 143.59L267.907 140.48C268.847 138.94 269.887 137.49 270.887 136.09C271.227 135.61 271.567 135.13 271.897 134.66L272.597 133.67C273.007 133.09 273.407 132.52 273.817 131.97L276.557 128.49C277.447 127.36 278.297 126.29 279.117 125.32L281.847 122.23C282.357 121.65 282.797 121.16 283.167 120.75L284.237 119.56L288.857 123.38L287.887 124.66C287.557 125.09 287.157 125.62 286.687 126.23L284.207 129.42C283.907 129.8 283.647 130.17 283.387 130.55C283.207 130.81 283.017 131.08 282.827 131.35L279.527 135.97L277.787 138.59C277.447 139.11 277.087 139.66 276.717 140.21C275.857 141.51 274.957 142.85 274.137 144.24C273.777 144.84 273.417 145.42 273.057 146C272.167 147.45 271.237 148.95 270.407 150.46L268.517 153.77C268.117 154.44 267.777 155.1 267.417 155.8C267.077 156.46 266.727 157.12 266.357 157.77L264.597 161.15L263.347 163.68C262.447 165.45 261.617 167.23 260.827 168.95L260.237 170.22C259.917 170.87 259.657 171.49 259.387 172.11C259.207 172.54 259.017 172.96 258.827 173.38L258.357 174.46C258.077 175.1 257.797 175.73 257.537 176.35C257.237 177.09 256.937 177.83 256.637 178.55C256.147 179.72 255.677 180.85 255.277 181.94C254.567 183.73 253.967 185.33 253.437 186.76C252.917 188.17 252.487 189.42 252.137 190.44L251.077 193.68Z" fill="#0F0F0F"/>
<path d="M251.106 184.2C250.856 183.39 247.876 173.19 250.976 163C250.996 162.95 251.056 162.93 251.096 162.98L252.686 164.84C252.686 164.84 252.796 164.87 252.806 164.81C253.076 162.6 256.886 135.54 282.736 120.26C282.756 120.25 282.776 120.25 282.796 120.26C283.366 120.51 292.016 124.44 290.436 133.53C288.816 142.88 267.746 169.77 261.086 175.6C261.046 175.64 261.066 175.7 261.126 175.71C261.486 175.72 262.526 175.71 264.446 175.31C264.556 175.29 264.646 175.4 264.576 175.49C263.746 176.65 259.786 181.66 251.196 184.25C251.166 184.25 251.136 184.25 251.126 184.22L251.106 184.2Z" fill="#EF6600"/>
<path d="M253.716 177.06C251.496 171.44 251.096 164.98 251.036 163.3C251.036 163.22 250.926 163.22 250.906 163.29C247.946 173.39 250.876 183.41 251.116 184.21C251.116 184.24 251.156 184.25 251.186 184.24C259.826 181.64 263.776 176.6 264.586 175.47C264.626 175.41 264.556 175.35 264.496 175.39C259.466 178.33 254.216 177.21 253.766 177.11C253.746 177.11 253.726 177.09 253.726 177.07L253.716 177.06Z" fill="#FFB300"/>
<path d="M290.387 129.09C289.137 123.13 283.247 120.45 282.787 120.25C282.767 120.25 282.747 120.25 282.727 120.25C280.857 121.35 279.117 122.52 277.477 123.73C277.477 123.73 277.467 123.73 277.467 123.75C277.357 124.12 273.257 137.92 290.347 129.17C290.377 129.16 290.387 129.12 290.387 129.09Z" fill="#3FC9B1"/>
<path d="M263.736 147.82L271.476 163.78C271.476 163.78 271.556 163.83 271.586 163.79C273.156 161.82 274.776 159.73 276.366 157.59C276.376 157.57 276.386 157.55 276.376 157.53L271.566 141.89C271.566 141.89 271.526 141.84 271.496 141.84L260.266 143.35" fill="#3FC9B1"/>
<path d="M275.066 136.83L263.366 138.4C263.366 138.4 263.326 138.41 263.316 138.43C261.556 141 260.056 143.58 258.826 146.03L269.536 145.21C269.536 145.21 269.596 145.22 269.606 145.25L275.166 159.03C275.166 159.03 275.246 159.09 275.276 159.05C276.866 156.95 278.446 154.79 279.956 152.64C279.966 152.62 279.976 152.6 279.956 152.58L275.126 136.87C275.126 136.87 275.086 136.82 275.056 136.82L275.066 136.83Z" fill="#FFB727"/>
<path d="M248.736 192.13C248.736 192.13 248.806 191.83 248.926 191.27C249.046 190.71 249.236 189.89 249.516 188.85C249.796 187.81 250.136 186.56 250.566 185.12C250.786 184.4 251.006 183.64 251.256 182.84C251.496 182.04 251.796 181.21 252.086 180.33C252.656 178.58 253.356 176.71 254.096 174.73C254.466 173.74 254.886 172.74 255.296 171.7C255.716 170.67 256.126 169.61 256.596 168.56C257.536 166.45 258.456 164.24 259.546 162.07C260.076 160.98 260.616 159.88 261.146 158.77C261.716 157.68 262.296 156.59 262.876 155.49C264.006 153.29 265.276 151.16 266.506 149.05C266.816 148.52 267.116 148 267.416 147.48C267.716 146.96 268.066 146.46 268.376 145.95C269.026 144.94 269.666 143.94 270.296 142.96C271.506 140.98 272.876 139.17 274.106 137.42C274.726 136.55 275.316 135.69 275.916 134.88C276.546 134.09 277.146 133.32 277.726 132.58C278.896 131.11 279.936 129.75 280.936 128.59C281.946 127.44 282.826 126.45 283.556 125.62C284.276 124.8 284.866 124.16 285.256 123.72C285.646 123.28 285.856 123.05 285.856 123.05C285.856 123.05 285.666 123.3 285.316 123.76C284.956 124.22 284.446 124.91 283.776 125.77C283.106 126.63 282.296 127.68 281.366 128.87C280.886 129.46 280.456 130.14 279.956 130.83C279.466 131.52 278.946 132.25 278.406 133C277.866 133.75 277.306 134.54 276.716 135.36C276.166 136.19 275.596 137.05 275.006 137.94C273.846 139.72 272.566 141.56 271.386 143.55C270.186 145.53 268.896 147.54 267.726 149.66C267.126 150.71 266.516 151.77 265.906 152.84C265.176 154.07 264.576 155.36 263.876 156.6L262.846 158.48C262.166 159.86 261.486 161.23 260.806 162.6C259.716 164.76 258.726 166.92 257.756 169C257.256 170.04 256.836 171.09 256.386 172.09C255.946 173.1 255.496 174.09 255.086 175.06C254.296 177.01 253.506 178.84 252.856 180.56C252.176 182.27 251.586 183.85 251.066 185.25C250.546 186.65 250.126 187.88 249.776 188.9C249.436 189.92 249.176 190.72 248.996 191.26C248.826 191.81 248.736 192.1 248.736 192.1V192.13Z" fill="#603913"/>
<path d="M262.167 145.79L258.827 146.04C257.927 147.87 257.117 149.73 256.377 151.6L265.297 151.1L265.417 149.02" fill="#3FC9B1"/>
<path d="M112.517 215.17C110.347 215.17 108.247 214.47 106.527 213.16C104.457 211.58 103.147 209.21 102.927 206.67C102.557 202.41 102.437 195.7 103.927 187.92C104.707 183.87 108.097 180.84 112.367 180.4C125.677 179.01 195.577 172.49 264.057 180.35C268.617 180.87 272.177 184.45 272.527 188.87C273.147 196.74 272.717 202.6 271.247 206.29C269.847 209.81 266.367 212.11 262.377 212.14C249.497 212.24 135.947 213.17 113.407 215.14C113.107 215.17 112.817 215.18 112.517 215.18V215.17ZM114.507 191.24C113.647 196.32 113.587 200.79 113.767 204.07C138.447 202.21 238.637 201.32 261.337 201.15C261.737 199.3 261.967 196 261.657 191.15C196.237 183.8 129.707 189.7 114.507 191.25V191.24Z" fill="black"/>
<mask id="mask0_873_2128" style="mask-type:luminance" maskUnits="userSpaceOnUse" x="108" y="181" width="160" height="29">
<path d="M112.786 185.57C127.436 184.04 195.866 177.72 263.576 185.51C265.446 185.73 266.886 187.12 267.016 188.84C267.346 192.93 267.646 200.25 266.076 204.05C265.506 205.42 264.046 206.31 262.436 206.32C247.126 206.44 134.916 207.37 112.716 209.36C110.516 209.56 108.586 208.07 108.406 206.06C108.066 202.22 107.906 195.89 109.336 188.52C109.636 186.96 111.046 185.76 112.776 185.58L112.786 185.57Z" fill="white"/>
</mask>
<g mask="url(#mask0_873_2128)">
<path d="M211.906 174.34H167.516L178.606 191.87L189.716 209.4L200.806 191.87L211.906 174.34Z" fill="#63D3B3"/>
<path d="M256.296 174.34H211.906L223.006 191.87L234.096 209.4L245.196 191.87L256.296 174.34Z" fill="#63D3B3"/>
<path d="M167.515 174.34H123.125L134.215 191.87L145.315 209.4L156.415 191.87L167.515 174.34Z" fill="#63D3B3"/>
<path d="M123.126 174.34L112.026 191.87L100.926 209.4H123.126H145.316L134.216 191.87L123.126 174.34Z" fill="#EF6600"/>
<path d="M167.516 174.34L156.416 191.87L145.316 209.4H167.516H189.716L178.606 191.87L167.516 174.34Z" fill="#EF6600"/>
<path d="M211.905 174.34L200.805 191.87L189.715 209.4H211.905H234.095L223.005 191.87L211.905 174.34Z" fill="#EF6600"/>
<path d="M267.396 191.87L256.296 174.34L245.196 191.87L234.096 209.4H256.296H278.426V209.29L267.396 191.87Z" fill="#EF6600"/>
<path d="M127.185 197.13C127.185 199.33 125.225 201.12 122.815 201.12C120.405 201.12 118.445 199.34 118.445 197.13C118.445 194.92 120.405 193.14 122.815 193.14C125.225 193.14 127.185 194.93 127.185 197.13Z" fill="#F8C054"/>
<path d="M171.886 197.13C171.886 199.33 169.926 201.12 167.516 201.12C165.106 201.12 163.146 199.34 163.146 197.13C163.146 194.92 165.106 193.14 167.516 193.14C169.926 193.14 171.886 194.93 171.886 197.13Z" fill="#F8C054"/>
<path d="M216.586 197.13C216.586 199.33 214.626 201.12 212.216 201.12C209.806 201.12 207.846 199.34 207.846 197.13C207.846 194.92 209.806 193.14 212.216 193.14C214.626 193.14 216.586 194.93 216.586 197.13Z" fill="#F8C054"/>
<path d="M261.275 197.13C261.275 199.33 259.315 201.12 256.905 201.12C254.495 201.12 252.535 199.34 252.535 197.13C252.535 194.92 254.495 193.14 256.905 193.14C259.315 193.14 261.275 194.93 261.275 197.13Z" fill="#F8C054"/>
<path d="M154.685 181.45H135.945L140.635 188.85L145.315 196.25L149.995 188.85L154.685 181.45Z" fill="#EF6600"/>
<path d="M199.076 181.45H180.336L185.026 188.85L189.706 196.25L194.396 188.85L199.076 181.45Z" fill="#EF6600"/>
<path d="M243.467 181.45H224.727L229.417 188.85L234.097 196.25L238.787 188.85L243.467 181.45Z" fill="#EF6600"/>
<path d="M269.125 181.45H278.425V174.34H256.295L267.395 191.87L278.425 209.29V196.14L273.805 188.85L269.125 181.45Z" fill="#63D3B3"/>
<path d="M100.926 174.34V181.45H110.296L105.606 188.85L100.926 196.25V209.4L112.026 191.87L123.126 174.34H100.926Z" fill="#63D3B3"/>
<path d="M110.296 181.45H100.926V196.25L105.606 188.85L110.296 181.45Z" fill="#F96C41"/>
</g>
<path d="M154.697 232.85C161.817 232.08 168.877 230.9 175.847 229.27C177.627 228.85 178.857 226.71 178.287 224.96C177.687 223.1 175.897 222.07 173.977 222.52C168.737 223.75 163.437 224.73 158.097 225.45L159.027 225.32C157.577 225.51 156.137 225.69 154.687 225.84C153.737 225.94 152.917 226.16 152.217 226.87C151.607 227.48 151.157 228.47 151.187 229.34C151.267 231.07 152.737 233.05 154.687 232.84L154.697 232.85Z" fill="black"/>
<path d="M228.468 225.85C227.018 225.69 225.568 225.52 224.128 225.33L225.058 225.46C219.718 224.74 214.428 223.76 209.178 222.53C207.398 222.11 205.308 223.08 204.868 224.97C204.458 226.76 205.408 228.83 207.308 229.28C214.278 230.91 221.348 232.09 228.458 232.86C229.298 232.95 230.368 232.4 230.928 231.83C231.538 231.22 231.988 230.23 231.958 229.36C231.928 228.49 231.618 227.52 230.928 226.89C230.208 226.22 229.428 225.97 228.458 225.86L228.468 225.85Z" fill="black"/>
<path d="M220.997 342.1C217.957 341 214.747 340.51 211.617 339.7C205.287 338.04 199.317 334.98 194.277 330.81C193.057 329.8 191.857 328.71 190.397 328.07C185.807 326.05 180.637 329.15 176.907 332.49C174.287 334.84 171.837 337.39 169.397 339.94C166.127 343.35 162.857 346.77 159.867 350.42C154.697 356.74 150.337 363.93 148.597 371.91C146.927 379.56 147.937 388.02 152.387 394.43C171.897 392 189.537 388.26 189.537 388.26C189.537 388.26 217.847 394.26 242.397 396C242.657 395.52 242.687 394.93 242.697 394.37C242.827 384.27 242.927 373.97 239.977 364.31C237.027 354.65 230.477 345.54 220.977 342.1H220.997Z" fill="white"/>
<path d="M179.338 251.64C187.178 253.84 195.788 253.47 203.388 250.56C205.628 249.7 207.788 248.67 209.838 247.42C210.948 246.74 211.478 245.15 210.738 244C209.998 242.85 208.508 242.37 207.318 243.1C206.518 243.59 205.708 244.05 204.878 244.47C204.478 244.67 204.078 244.87 203.668 245.06C203.448 245.16 203.228 245.26 203.008 245.36C202.908 245.4 202.818 245.44 202.718 245.48C203.038 245.34 202.868 245.42 202.648 245.51C200.918 246.21 199.128 246.77 197.308 247.19C196.398 247.4 195.478 247.58 194.558 247.72C194.428 247.74 194.278 247.78 194.148 247.78C194.168 247.78 194.598 247.73 194.298 247.76C194.088 247.78 193.888 247.81 193.678 247.83C193.158 247.89 192.648 247.93 192.128 247.97C190.268 248.1 188.388 248.08 186.528 247.92C186.248 247.9 185.978 247.87 185.698 247.84C185.598 247.83 185.488 247.82 185.388 247.8C185.328 247.8 184.878 247.74 185.208 247.78C185.538 247.82 185.178 247.78 185.128 247.77C184.958 247.74 184.788 247.72 184.618 247.69C184.378 247.65 184.138 247.61 183.898 247.57C182.808 247.37 181.728 247.12 180.668 246.82C179.408 246.47 177.888 247.25 177.588 248.57C177.288 249.9 177.988 251.27 179.338 251.65V251.64Z" fill="black"/>
<path d="M154.798 346.96L164.658 350.11L163.938 354.85L152.688 353.7L154.798 346.96Z" fill="#D6AF43"/>
<path d="M231.987 346.98L242.257 348.33L242.387 353.12L231.117 353.99L231.987 346.98Z" fill="#D6AF43"/>
<path d="M228.419 320.09C216.269 319.24 203.849 320.38 192.389 323.39C188.399 324.44 184.159 325.97 182.599 328.8C181.029 331.65 182.719 334.88 184.949 337.5C193.899 347.94 217.079 357.24 233.829 354.65" fill="#D6AF43"/>
<path d="M228.418 317.59C219.278 316.96 210.088 317.45 201.058 318.98C196.918 319.68 192.708 320.52 188.728 321.88C185.068 323.13 180.758 325.2 179.718 329.32C178.678 333.44 181.448 337.55 184.248 340.45C186.398 342.68 188.888 344.59 191.468 346.3C197.318 350.17 203.918 353.03 210.648 354.98C217.398 356.94 224.628 358.09 231.658 357.43C232.608 357.34 233.548 357.22 234.488 357.07C235.788 356.87 236.618 355.17 236.238 353.99C235.778 352.58 234.548 352.03 233.158 352.24C233.058 352.26 232.408 352.35 232.828 352.29C233.248 352.23 232.678 352.31 232.578 352.32C232.188 352.37 231.788 352.41 231.398 352.44C230.628 352.51 229.848 352.55 229.078 352.57C227.448 352.62 225.818 352.57 224.198 352.45C223.378 352.39 222.568 352.31 221.748 352.21C221.568 352.19 221.378 352.16 221.198 352.14C220.738 352.08 221.648 352.2 221.038 352.12C220.608 352.06 220.178 351.99 219.758 351.92C218.088 351.64 216.438 351.3 214.798 350.9C211.468 350.08 208.198 349.02 205.018 347.74C204.818 347.66 204.618 347.58 204.418 347.49C204.338 347.46 203.808 347.23 204.118 347.36C204.428 347.49 203.848 347.24 203.738 347.19C203.538 347.1 203.348 347.02 203.148 346.93C202.398 346.59 201.648 346.25 200.908 345.88C199.438 345.16 197.998 344.4 196.598 343.57C195.288 342.8 194.008 341.98 192.758 341.11C192.468 340.91 192.188 340.7 191.908 340.49C191.758 340.38 191.608 340.27 191.458 340.15C191.008 339.81 191.728 340.36 191.398 340.11C190.838 339.66 190.278 339.21 189.738 338.74C188.768 337.89 187.838 336.99 186.978 336.02C186.718 335.73 186.478 335.43 186.228 335.13C186.048 334.91 186.268 335.18 186.288 335.21C186.228 335.12 186.158 335.04 186.098 334.95C185.928 334.72 185.768 334.48 185.618 334.25C185.378 333.87 185.148 333.48 184.948 333.07C184.908 332.98 184.868 332.88 184.818 332.79C184.648 332.46 184.948 333.18 184.838 332.83C184.768 332.61 184.688 332.4 184.618 332.18C184.548 331.96 184.518 331.74 184.468 331.52C184.398 331.23 184.508 331.71 184.488 331.72C184.498 331.72 184.468 331.46 184.468 331.44C184.458 331.22 184.468 331.01 184.468 330.79C184.468 330.69 184.558 330.46 184.468 330.75C184.368 331.09 184.498 330.69 184.518 330.62C184.548 330.5 184.598 330.38 184.628 330.25C184.688 329.96 184.558 330.39 184.558 330.39C184.558 330.25 184.738 330.02 184.818 329.9C184.868 329.81 184.928 329.72 184.988 329.63C185.128 329.39 185.048 329.64 184.978 329.63C184.788 329.85 184.958 329.63 184.978 329.63C185.048 329.55 185.118 329.47 185.188 329.39C185.418 329.14 185.878 328.88 186.038 328.6C186.038 328.61 185.648 328.88 185.878 328.73C185.948 328.68 186.018 328.63 186.088 328.58C186.288 328.44 186.478 328.31 186.688 328.19C187.028 327.98 187.378 327.79 187.738 327.61C187.908 327.52 188.078 327.44 188.248 327.36C188.338 327.32 188.428 327.28 188.508 327.24C189.078 326.98 188.198 327.36 188.538 327.23C192.238 325.8 196.158 324.94 200.048 324.19C201.088 323.99 202.128 323.81 203.168 323.64C203.668 323.56 204.178 323.48 204.678 323.41C204.908 323.38 205.148 323.34 205.378 323.31C205.538 323.29 205.688 323.27 205.848 323.25C205.588 323.29 205.678 323.27 205.888 323.25C207.998 322.98 210.118 322.76 212.248 322.61C216.558 322.3 220.878 322.23 225.198 322.4C226.268 322.44 227.338 322.5 228.398 322.58C229.708 322.67 230.958 321.37 230.898 320.08C230.838 318.65 229.798 317.68 228.398 317.58L228.418 317.59Z" fill="black"/>
<path d="M154.428 318.74C162.028 316.47 169.928 315.16 177.798 314.18C183.068 313.53 188.618 313.05 193.568 315.33C198.518 317.6 202.518 323.54 201.098 329.04C200.408 331.75 198.568 333.89 196.698 335.81C186.428 346.31 173.088 353.27 158.968 355.48" fill="#D6AF43"/>
<path d="M155.088 321.15C158.938 320.01 162.848 319.1 166.788 318.37C168.688 318.02 170.588 317.7 172.498 317.41C173.448 317.27 174.408 317.13 175.358 317C176.148 316.89 174.858 317.06 175.648 316.96C175.888 316.93 176.128 316.9 176.368 316.87C176.918 316.8 177.468 316.73 178.018 316.66C179.788 316.44 181.568 316.25 183.348 316.18C184.238 316.14 185.128 316.14 186.018 316.18C186.458 316.2 186.908 316.23 187.348 316.27C187.568 316.29 187.788 316.32 188.008 316.34C188.298 316.38 188.298 316.38 188.008 316.34C188.158 316.36 188.298 316.38 188.448 316.41C189.318 316.56 190.188 316.76 191.028 317.03C191.458 317.17 191.878 317.32 192.288 317.49C191.868 317.32 192.238 317.47 192.308 317.51C192.518 317.61 192.728 317.71 192.938 317.82C193.558 318.15 194.218 318.52 194.748 318.98C194.258 318.55 194.718 318.97 194.808 319.05C194.948 319.17 195.088 319.29 195.218 319.41C195.538 319.7 195.838 320 196.128 320.32C196.368 320.59 196.648 320.86 196.848 321.16C196.498 320.63 196.828 321.16 196.898 321.25C197.008 321.4 197.108 321.55 197.208 321.71C197.408 322.02 197.598 322.33 197.768 322.66C197.858 322.82 197.938 322.98 198.018 323.15C198.068 323.26 198.128 323.37 198.178 323.48C198.288 323.73 198.278 323.7 198.138 323.38C198.088 323.52 198.398 324.1 198.448 324.23C198.558 324.57 198.648 324.92 198.728 325.27C198.768 325.45 198.798 325.62 198.828 325.8C198.948 326.4 198.798 325.23 198.828 325.85C198.848 326.27 198.878 326.68 198.868 327.1C198.868 327.28 198.848 327.46 198.838 327.64C198.808 328.25 198.958 327.09 198.838 327.69C198.758 328.07 198.688 328.44 198.568 328.8C198.508 329 198.438 329.19 198.368 329.39C198.158 330.03 198.608 328.95 198.298 329.55C198.078 329.98 197.868 330.4 197.618 330.8C197.398 331.15 197.168 331.48 196.928 331.81C196.548 332.35 197.148 331.56 196.878 331.87C196.768 332 196.668 332.13 196.558 332.26C195.988 332.94 195.388 333.58 194.768 334.21C193.558 335.44 192.298 336.63 190.998 337.76C190.378 338.3 189.748 338.84 189.108 339.36C188.838 339.58 188.578 339.79 188.308 340C188.148 340.13 187.988 340.25 187.818 340.38C188.288 340.01 187.588 340.55 187.508 340.61C184.838 342.62 182.018 344.43 179.078 346.03C177.408 346.94 175.698 347.78 173.968 348.54C173.778 348.62 173.598 348.7 173.408 348.78C173.148 348.89 173.158 348.89 173.448 348.77C173.328 348.82 173.198 348.87 173.068 348.93C172.628 349.11 172.188 349.29 171.748 349.46C170.928 349.78 170.098 350.08 169.268 350.36C165.688 351.58 162.018 352.49 158.278 353.08C156.978 353.28 156.148 354.97 156.528 356.16C156.988 357.57 158.218 358.13 159.608 357.91C166.638 356.8 173.448 354.52 179.798 351.31C186.208 348.07 192.128 343.79 197.268 338.78C199.938 336.17 202.708 333.23 203.558 329.47C204.358 325.93 203.488 322.21 201.518 319.19C199.548 316.17 196.558 313.77 193.068 312.47C189.348 311.09 185.238 311 181.328 311.33C177.168 311.68 173.008 312.3 168.888 312.97C164.808 313.64 160.748 314.46 156.748 315.51C155.738 315.78 154.738 316.06 153.738 316.35C152.488 316.72 151.568 318.12 151.988 319.43C152.398 320.7 153.718 321.57 155.068 321.18L155.088 321.15Z" fill="black"/>
<path d="M199.767 384.57C199.107 384.57 198.447 384.43 197.847 384.17L184.507 378.37C184.407 378.33 184.297 378.31 184.177 378.31C184.037 378.31 183.897 378.34 183.787 378.4L175.377 383.17C174.667 383.57 173.857 383.79 173.017 383.79C172.177 383.79 171.337 383.57 170.627 383.16L162.397 378.39C162.287 378.33 162.157 378.29 162.007 378.29C161.857 378.29 161.727 378.32 161.617 378.38L154.677 382.36C153.967 382.77 153.147 382.98 152.297 382.98C151.157 382.98 150.077 382.59 149.237 381.88L144.887 378.16C144.787 378.07 144.607 378.02 144.427 378.02C144.247 378.02 144.087 378.07 143.977 378.15L139.317 381.84C138.507 382.48 137.467 382.84 136.387 382.84C135.307 382.84 134.307 382.5 133.497 381.87L128.027 377.64C127.917 377.56 127.757 377.51 127.587 377.51C127.417 377.51 127.267 377.55 127.157 377.63L122.807 380.73C122.027 381.29 121.047 381.59 120.057 381.59C119.247 381.59 118.457 381.39 117.767 381.01L111.617 377.66C111.517 377.6 111.377 377.57 111.237 377.57C111.097 377.57 110.977 377.6 110.867 377.65L105.027 380.69C104.347 381.05 103.577 381.23 102.817 381.23C101.347 381.23 99.9673 380.56 99.1173 379.45C98.3673 378.46 98.1273 377.22 98.4573 376.04L104.377 354.84C104.887 353.01 106.677 351.73 108.717 351.73C108.847 351.73 108.977 351.73 109.117 351.75C119.217 352.57 155.257 355.25 194.927 355.25C224.137 355.25 248.617 353.79 267.697 350.91C267.947 350.87 268.187 350.85 268.437 350.85C270.697 350.85 272.567 352.34 272.887 354.4L276.217 375.83C276.397 376.97 276.067 378.1 275.307 378.99C274.457 379.98 273.137 380.57 271.767 380.57C270.977 380.57 270.197 380.37 269.507 380L260.827 375.35C260.717 375.29 260.597 375.26 260.457 375.26C260.217 375.26 260.037 375.35 259.967 375.44L255.057 381.33C254.197 382.36 252.907 382.95 251.497 382.95C250.367 382.95 249.277 382.56 248.447 381.85L242.567 376.85C242.457 376.76 242.287 376.71 242.107 376.71C241.947 376.71 241.797 376.75 241.697 376.82L231.247 383.72C230.477 384.23 229.577 384.49 228.627 384.49C227.907 384.49 227.187 384.33 226.557 384.03L212.927 377.52C212.827 377.47 212.707 377.45 212.577 377.45C212.427 377.45 212.277 377.49 212.167 377.56L202.247 383.83C201.497 384.3 200.617 384.56 199.707 384.56L199.767 384.57Z" fill="#7F4F08"/>
<path d="M268.487 352.87C269.717 352.87 270.787 353.64 270.957 354.73L274.287 376.16C274.497 377.53 273.227 378.6 271.807 378.6C271.367 378.6 270.917 378.5 270.497 378.27L261.817 373.62C261.407 373.4 260.957 373.3 260.497 373.3C259.717 373.3 258.957 373.61 258.467 374.2L253.557 380.09C253.067 380.68 252.297 380.99 251.527 380.99C250.897 380.99 250.267 380.79 249.777 380.37L243.897 375.37C243.417 374.96 242.777 374.75 242.147 374.75C241.617 374.75 241.077 374.9 240.627 375.19L230.177 382.09C229.737 382.38 229.197 382.53 228.657 382.53C228.247 382.53 227.827 382.44 227.447 382.26L213.817 375.75C213.437 375.57 213.027 375.48 212.607 375.48C212.087 375.48 211.567 375.62 211.127 375.9L201.207 382.17C200.767 382.45 200.257 382.59 199.727 382.59C199.347 382.59 198.957 382.51 198.607 382.36L185.267 376.56C184.917 376.41 184.527 376.33 184.147 376.33C183.667 376.33 183.187 376.45 182.777 376.68L174.367 381.45C173.947 381.69 173.477 381.8 172.997 381.8C172.517 381.8 172.027 381.68 171.607 381.43L163.377 376.66C162.957 376.42 162.467 376.29 161.987 376.29C161.507 376.29 161.027 376.41 160.607 376.65L153.667 380.63C153.247 380.87 152.767 380.99 152.287 380.99C151.647 380.99 151.007 380.78 150.527 380.37L146.177 376.65C145.697 376.24 145.057 376.03 144.417 376.03C143.777 376.03 143.207 376.22 142.727 376.6L138.067 380.29C137.587 380.67 136.987 380.86 136.377 380.86C135.767 380.86 135.187 380.68 134.717 380.31L129.237 376.08C128.767 375.71 128.167 375.53 127.577 375.53C127.017 375.53 126.447 375.69 125.987 376.02L121.637 379.12C121.177 379.45 120.617 379.61 120.047 379.61C119.587 379.61 119.127 379.5 118.717 379.28L112.567 375.93C112.157 375.71 111.697 375.6 111.237 375.6C110.777 375.6 110.347 375.7 109.947 375.91L104.107 378.95C103.687 379.17 103.247 379.27 102.817 379.27C101.317 379.27 99.9867 378.06 100.387 376.61L106.307 355.41C106.577 354.44 107.587 353.76 108.727 353.76C108.807 353.76 108.887 353.76 108.967 353.76C118.057 354.5 154.777 357.27 194.947 357.27C219.907 357.27 246.207 356.2 268.017 352.91C268.167 352.89 268.307 352.88 268.457 352.88M268.457 348.88C268.107 348.88 267.767 348.91 267.417 348.96C248.437 351.82 224.047 353.27 194.937 353.27C155.327 353.27 119.367 350.6 109.287 349.78C109.097 349.76 108.917 349.76 108.727 349.76C105.787 349.76 103.207 351.64 102.457 354.33L96.5367 375.53C96.0367 377.32 96.3967 379.2 97.5267 380.69C98.7467 382.3 100.727 383.26 102.817 383.26C103.907 383.26 104.987 382.99 105.957 382.49L111.227 379.75L116.807 382.79C117.797 383.33 118.917 383.61 120.057 383.61C121.457 383.61 122.847 383.17 123.967 382.38L127.557 379.82L132.287 383.47C133.437 384.36 134.897 384.85 136.397 384.85C137.897 384.85 139.397 384.34 140.567 383.42L144.397 380.39L147.937 383.41C149.127 384.43 150.677 384.99 152.287 384.99C153.477 384.99 154.637 384.68 155.657 384.1L161.987 380.47L169.607 384.89C170.627 385.48 171.807 385.79 173.007 385.79C174.207 385.79 175.347 385.49 176.347 384.92L184.227 380.45L197.027 386.02C197.887 386.39 198.797 386.58 199.747 386.58C201.037 386.58 202.287 386.22 203.357 385.55L212.697 379.65L225.737 385.88C226.637 386.31 227.657 386.54 228.667 386.54C230.007 386.54 231.297 386.16 232.387 385.43L242.047 379.05L247.187 383.42C248.377 384.43 249.927 384.99 251.527 384.99C253.537 384.99 255.397 384.14 256.627 382.65L260.807 377.63L268.587 381.8C269.567 382.33 270.677 382.6 271.787 382.6C273.727 382.6 275.627 381.75 276.847 380.32C277.977 379 278.477 377.26 278.217 375.55L274.887 354.12C274.417 351.08 271.707 348.88 268.467 348.88H268.457Z" fill="#0F0F0F"/>
</g>
<defs>
<clipPath id="clip0_873_2128">
<rect width="380.54" height="573" fill="white" transform="translate(0.197266)"/>
</clipPath>
</defs>
</svg>
