<svg width="382" height="573" viewBox="0 0 382 573" fill="none" xmlns="http://www.w3.org/2000/svg">
<g clip-path="url(#clip0_873_731)">
<path d="M359.139 0H23.1391C10.8398 0 0.869141 9.97062 0.869141 22.27V550.73C0.869141 563.029 10.8398 573 23.1391 573H359.139C371.439 573 381.409 563.029 381.409 550.73V22.27C381.409 9.97062 371.439 0 359.139 0Z" fill="white"/>
<path d="M320.1 95.66C338.877 95.66 354.1 80.4377 354.1 61.66C354.1 42.8823 338.877 27.66 320.1 27.66C301.322 27.66 286.1 42.8823 286.1 61.66C286.1 80.4377 301.322 95.66 320.1 95.66Z" fill="#FFBA35"/>
<path d="M324.989 44.9999V78.5155H316.966V54.8206H311.658V50.767C312.55 50.3491 313.358 49.9172 314.082 49.4715C314.723 49.0814 315.336 48.6078 315.921 48.0506C316.534 47.4934 317.007 46.8805 317.342 46.2118C317.537 45.6825 317.899 45.3621 318.428 45.2507C318.958 45.1114 319.626 45.0278 320.434 44.9999H324.989Z" fill="white"/>
<path d="M83.2496 441.125V525.808H62.9763V465.938H49.5664V455.696C51.819 454.64 53.8604 453.549 55.6906 452.423C57.3097 451.437 58.8583 450.24 60.3366 448.833C61.8852 447.425 63.0819 445.876 63.9266 444.187C64.4194 442.849 65.3345 442.04 66.672 441.758C68.0095 441.406 69.6989 441.195 71.7403 441.125H83.2496Z" fill="#FFBA35"/>
<path d="M262.069 361.72L118.729 348.24V303.16H263.589L262.069 361.72Z" fill="#98CA51"/>
<path d="M118.43 312.02C115.2 310.75 112.04 309.29 108.97 307.6C104.92 305.36 101.06 302.78 97.5196 299.84C93.8096 296.74 90.4696 293.2 87.7296 289.24C80.6296 279 78.4995 266.65 80.6896 254.56C81.1996 251.74 81.9196 248.96 82.7996 246.24C82.7996 246.24 86.2795 228.83 113.15 206.55C112.15 203.32 111.61 199.91 111.61 196.37C111.61 176.91 127.82 161.14 147.82 161.14C164.93 161.14 179.25 172.69 183.04 188.2C183.65 188.08 186.64 188.1 187.83 188.12C189.03 188.11 192.02 188.08 192.62 188.2C196.41 172.68 210.73 161.14 227.84 161.14C247.84 161.14 264.05 176.91 264.05 196.37C264.05 199.91 263.51 203.33 262.51 206.55C289.39 228.82 292.86 246.24 292.86 246.24C293.74 248.97 294.46 251.75 294.97 254.56C297.16 266.65 295.03 279 287.93 289.24C285.19 293.19 281.85 296.73 278.14 299.84C276.49 301.22 274.75 302.48 272.99 303.71C270.16 305.7 267.4 307.79 264.54 309.73L259.86 312.02" fill="#98CA51"/>
<path d="M118.419 315.52C117.989 315.52 117.559 315.44 117.139 315.28C113.579 313.88 110.359 312.37 107.269 310.66C102.909 308.25 98.8791 305.52 95.2791 302.53C91.1691 299.09 87.6591 295.29 84.8491 291.23C77.5091 280.64 74.8091 267.39 77.2391 253.93C77.7491 251.12 78.4791 248.22 79.4091 245.31C79.9291 243.06 84.5191 226.32 109.169 205.31C108.459 202.38 108.099 199.38 108.099 196.36C108.099 175 125.909 157.63 147.809 157.63C165.289 157.63 180.449 168.58 185.639 184.6C186.249 184.6 186.979 184.6 187.859 184.61C188.699 184.61 189.399 184.59 189.999 184.6C195.199 168.58 210.359 157.63 227.829 157.63C249.719 157.63 267.539 175 267.539 196.36C267.539 199.38 267.179 202.38 266.469 205.31C291.129 226.33 295.709 243.07 296.229 245.31C297.159 248.22 297.889 251.12 298.399 253.93C300.839 267.39 298.139 280.64 290.789 291.23C287.979 295.29 284.469 299.09 280.369 302.52C278.719 303.9 277.019 305.14 274.989 306.57C273.879 307.35 272.769 308.15 271.669 308.95C269.989 310.17 268.259 311.42 266.489 312.62L266.069 312.86L261.389 315.15C259.649 316 257.559 315.28 256.709 313.55C255.859 311.81 256.579 309.72 258.309 308.87L262.769 306.69C264.379 305.6 265.989 304.42 267.559 303.29C268.689 302.47 269.819 301.65 270.969 300.85C272.859 299.52 274.419 298.38 275.889 297.15C279.509 294.12 282.589 290.79 285.049 287.25C291.329 278.19 293.629 266.8 291.519 255.18C291.059 252.62 290.389 249.97 289.529 247.3L289.429 246.91C289.399 246.77 285.639 230.25 260.279 209.23L258.479 207.74L259.169 205.5C260.089 202.53 260.559 199.46 260.559 196.35C260.559 178.85 245.889 164.62 227.849 164.62C212.619 164.62 199.539 174.65 196.029 189.01L195.239 192.26L192.049 191.63C191.679 191.6 190.319 191.56 187.879 191.6C185.359 191.57 183.999 191.6 183.629 191.63L180.439 192.26L179.649 189.01C176.149 174.65 163.059 164.62 147.829 164.62C129.799 164.62 115.119 178.85 115.119 196.35C115.119 199.45 115.589 202.53 116.509 205.5L117.199 207.74L115.399 209.23C90.039 230.25 86.2791 246.76 86.2391 246.93L86.139 247.3C85.279 249.97 84.609 252.62 84.149 255.17C82.049 266.79 84.339 278.18 90.6191 287.24C93.0791 290.78 96.1591 294.12 99.7791 297.15C103.029 299.85 106.699 302.34 110.669 304.53C113.489 306.09 116.449 307.47 119.729 308.76C121.529 309.47 122.409 311.5 121.699 313.3C121.159 314.68 119.839 315.52 118.439 315.52H118.419ZM191.939 191.63C191.939 191.63 191.939 191.63 191.949 191.63H191.939ZM183.699 191.63H183.689C183.689 191.63 183.689 191.63 183.699 191.63Z" fill="black"/>
<path d="M114.94 344.24C113.46 363.96 115.51 383.92 115.51 383.92L109.59 390.51C106.33 394.14 108.47 399.94 113.3 400.58C137.74 403.78 188.84 392.96 188.84 392.96C188.84 392.96 241.72 404.16 265.62 400.4C269.91 399.73 271.72 394.55 268.83 391.33L262.18 383.92C262.18 383.92 262.58 368.51 262.29 354.98V346.28" fill="#98CA51"/>
<path d="M123.96 404.68C119.92 404.68 116.16 404.49 112.85 404.06C109.33 403.6 106.37 401.24 105.13 397.9C103.89 394.56 104.6 390.83 106.98 388.18L111.87 382.73C111.42 377.61 110.17 360.85 111.44 343.98C111.58 342.05 113.26 340.6 115.19 340.75C117.12 340.89 118.56 342.57 118.42 344.5C116.98 363.67 118.96 383.37 118.98 383.56L119.14 385.1L112.19 392.85C111.25 393.89 111.53 395.02 111.69 395.46C111.85 395.89 112.37 396.93 113.75 397.11C137.31 400.21 187.61 389.64 188.11 389.53L188.83 389.38L189.56 389.53C190.08 389.64 242.09 400.55 265.07 396.94C266.1 396.78 266.49 395.99 266.61 395.66C266.73 395.32 266.93 394.46 266.22 393.66L258.64 385.22L258.68 383.83C258.68 383.68 259.08 368.35 258.79 355.06V346.28C258.79 344.35 260.36 342.78 262.29 342.78C264.22 342.78 265.79 344.35 265.79 346.28V354.98C266.03 366.02 265.8 378.5 265.71 382.61L271.43 388.99C273.63 391.45 274.31 394.9 273.21 398.01C272.11 401.11 269.41 403.35 266.16 403.86C243.16 407.48 195.56 397.93 188.83 396.53C183.17 397.7 148.47 404.67 123.94 404.67L123.96 404.68Z" fill="black"/>
<g style="mix-blend-mode:multiply" opacity="0.6">
<path d="M208.679 189.61C208.169 184.48 204.799 179.66 200.949 176.39C195.649 171.9 190.109 173.81 185.009 177.59C181.299 180.34 173.249 185.82 176.279 191.4C178.799 196.05 182.469 199.69 186.339 203.21C189.119 205.74 192.039 208.43 196.069 207.11C201.739 205.25 207.439 199.1 208.539 193.28C208.769 192.05 208.809 190.82 208.689 189.6L208.679 189.61Z" fill="#B2B6B5"/>
</g>
<path d="M205.289 186.05C204.779 180.92 201.409 176.1 197.559 172.83C192.259 168.34 186.719 170.25 181.619 174.03C177.899 176.78 169.859 182.26 172.889 187.85C175.409 192.5 179.079 196.14 182.949 199.66C185.729 202.19 188.649 204.88 192.679 203.56C198.349 201.7 204.049 195.55 205.139 189.73C205.369 188.5 205.409 187.27 205.289 186.05Z" fill="#908882"/>
<path d="M190.58 204.2C187.5 204.2 185.11 202.02 182.8 199.92L182.75 199.87C179.24 196.68 175.28 192.87 172.63 187.98C169.64 182.47 176.92 177.12 180.83 174.25L181.45 173.8C184.96 171.2 188.07 169.94 190.96 169.94C193.37 169.94 195.65 170.84 197.75 172.62C202.19 176.39 205.12 181.4 205.58 186.03C205.71 187.31 205.66 188.57 205.43 189.79C204.34 195.61 198.66 201.92 192.77 203.84C192.04 204.08 191.3 204.2 190.59 204.2H190.58ZM190.95 170.52C188.18 170.52 185.18 171.75 181.78 174.27L181.16 174.72C177.39 177.49 170.38 182.64 173.13 187.71C175.73 192.52 179.66 196.29 183.13 199.45L183.18 199.5C185.41 201.53 187.71 203.63 190.57 203.63C191.22 203.63 191.9 203.52 192.57 203.3C198.28 201.43 203.78 195.33 204.84 189.69C205.06 188.53 205.11 187.32 204.99 186.09C204.54 181.6 201.69 176.73 197.36 173.06C195.37 171.37 193.22 170.52 190.95 170.52Z" fill="#626262"/>
<path d="M190.58 205.2C187.11 205.2 184.46 202.79 182.13 200.67C178.51 197.37 174.47 193.49 171.75 188.47C168.35 182.19 176.08 176.51 180.23 173.46L180.84 173.01C184.52 170.28 187.83 168.95 190.95 168.95C193.6 168.95 196.1 169.93 198.38 171.86C203.02 175.79 206.08 181.05 206.56 185.94C206.7 187.31 206.64 188.67 206.39 189.98C205.24 196.12 199.26 202.77 193.06 204.8C192.23 205.07 191.39 205.21 190.57 205.21L190.58 205.2ZM190.95 171.52C188.4 171.52 185.6 172.68 182.38 175.07L181.76 175.53C178.24 178.12 171.69 182.94 174.02 187.24C176.55 191.91 180.4 195.61 183.81 198.71C185.95 200.66 188.11 202.62 190.58 202.62C191.13 202.62 191.7 202.53 192.27 202.34C197.67 200.58 202.87 194.81 203.87 189.5C204.07 188.43 204.12 187.32 204 186.19C203.58 181.95 200.86 177.33 196.72 173.83C194.92 172.3 192.98 171.53 190.95 171.53V171.52Z" fill="#0F0F0F"/>
<g style="mix-blend-mode:multiply" opacity="0.4">
<path d="M205.289 186.05C204.779 180.92 201.409 176.1 197.559 172.83C192.259 168.34 186.719 170.25 181.619 174.03C177.899 176.78 169.859 182.26 172.889 187.85C175.409 192.5 179.079 196.14 182.949 199.66C185.729 202.19 188.649 204.88 192.679 203.56C198.349 201.7 204.049 195.55 205.139 189.73C205.369 188.5 205.409 187.27 205.289 186.05ZM193.659 190.52C193.469 193.04 193.199 198.65 189.869 199.21C187.369 199.63 184.569 196.95 182.919 195.43C180.229 192.97 177.249 190.56 175.269 187.46C174.439 186.15 173.799 184.91 174.289 183.36C174.699 182.06 175.969 181.01 176.959 180.15C178.839 178.53 180.739 176.9 182.779 175.49C184.729 173.68 186.979 171.8 189.669 171.98C192.269 172.15 192.809 175.45 193.129 177.48C193.799 181.75 193.989 186.22 193.659 190.53V190.52Z" fill="#908882"/>
</g>
<g style="mix-blend-mode:multiply" opacity="0.4">
<path d="M174.35 185.7C174.15 185.12 174.06 184.53 174.16 183.88C173.57 183.7 172.99 183.56 172.52 183.51C172.2 184.49 172.13 185.49 172.37 186.5C173.03 186.23 173.69 185.96 174.35 185.7Z" fill="#908882"/>
</g>
<g style="mix-blend-mode:multiply" opacity="0.4">
<path d="M190.499 199.03C190.299 199.11 190.089 199.18 189.869 199.21C189.619 199.25 189.369 199.26 189.109 199.24C189.229 200.79 189.419 202.33 189.739 203.84C190.649 203.97 191.629 203.9 192.669 203.56C192.769 203.53 192.869 203.48 192.969 203.45C192.069 202.02 191.219 200.55 190.499 199.03Z" fill="#908882"/>
</g>
<g style="mix-blend-mode:multiply" opacity="0.4">
<path d="M193.65 181.99C193.87 184.83 193.88 187.71 193.66 190.52C193.55 191.89 193.42 194.19 192.79 196.09C194.61 195.17 196.66 194.55 198.38 193.73C200.71 192.62 202.89 191.25 205.1 189.91C205.11 189.85 205.13 189.79 205.14 189.74C205.37 188.51 205.41 187.28 205.29 186.06C204.78 180.93 201.41 176.11 197.56 172.84C195.81 171.35 194.03 170.57 192.24 170.32C192.89 173.84 193.78 177.25 193.68 180.92C193.68 181.28 193.65 181.64 193.64 181.99H193.65Z" fill="#908882"/>
</g>
<g style="mix-blend-mode:screen" opacity="0.4">
<path d="M191.96 173.47C192.67 174.65 192.94 176.27 193.13 177.47C193.8 181.74 193.99 186.21 193.66 190.52C193.47 193.04 193.2 198.65 189.87 199.21C189.78 199.23 189.69 199.23 189.6 199.23C190.59 199.45 191.58 199.39 192.45 198.82C195.24 197.02 195.41 192.87 195.55 189.91C195.71 186.39 195.88 182.87 195.22 179.37C194.75 176.89 194.15 174.49 191.96 173.46V173.47Z" fill="white"/>
</g>
<g style="mix-blend-mode:multiply" opacity="0.4">
<path d="M180.629 180.22C180.399 180.04 180.149 180.09 179.929 180.22C179.669 180.3 179.459 180.53 179.329 180.78C179.139 181.17 178.989 181.9 179.489 182.11C179.739 182.21 180.139 182 180.309 181.83C180.579 181.55 180.779 181.27 180.859 180.88C180.899 180.67 180.809 180.35 180.639 180.21L180.629 180.22Z" fill="#908882"/>
</g>
<g style="mix-blend-mode:multiply" opacity="0.4">
<path d="M181.869 182.79C181.869 182.79 181.809 182.75 181.789 182.73C181.449 182.49 180.819 183.18 181.049 183.51C181.069 183.54 181.089 183.57 181.109 183.6C181.449 184.08 182.279 183.08 181.879 182.8L181.869 182.79Z" fill="#908882"/>
</g>
<g style="mix-blend-mode:multiply" opacity="0.4">
<path d="M185.018 188.27C185.018 188.27 184.978 188.23 184.938 188.21C184.858 188.15 184.698 188.32 184.748 188.4C184.718 188.45 184.718 188.5 184.778 188.51C184.808 188.51 184.838 188.51 184.878 188.51C184.968 188.51 185.098 188.34 185.018 188.27Z" fill="#908882"/>
</g>
<g style="mix-blend-mode:multiply" opacity="0.4">
<path d="M199.639 190.48C199.639 190.48 199.589 190.48 199.559 190.49C199.549 190.49 199.529 190.5 199.519 190.51C199.509 190.51 199.499 190.52 199.479 190.54C199.479 190.54 199.479 190.54 199.469 190.54C199.449 190.55 199.439 190.58 199.419 190.6C199.419 190.6 199.419 190.62 199.409 190.63C199.409 190.65 199.389 190.67 199.389 190.69C199.389 190.69 199.389 190.7 199.389 190.71C199.389 190.74 199.389 190.77 199.439 190.79H199.459C199.459 190.79 199.519 190.79 199.549 190.76C199.679 190.74 199.819 190.47 199.639 190.47V190.48Z" fill="#908882"/>
</g>
<g style="mix-blend-mode:multiply" opacity="0.4">
<path d="M200.618 184.31C200.638 184.13 200.608 183.96 200.518 183.84C200.468 183.78 200.418 183.77 200.338 183.79C200.248 183.82 200.178 183.87 200.108 183.93C200.118 183.85 200.038 183.81 199.948 183.9C199.798 184.05 199.738 184.3 199.738 184.5C199.738 184.69 199.798 185.04 200.058 185.03C200.338 185.02 200.528 184.75 200.588 184.45C200.608 184.4 200.618 184.35 200.608 184.31H200.618Z" fill="#908882"/>
</g>
<g style="mix-blend-mode:multiply" opacity="0.4">
<path d="M201.769 188.25C201.709 188.09 201.509 188.31 201.469 188.39C201.249 188.62 201.419 188.89 201.659 188.62C201.759 188.51 201.829 188.39 201.769 188.24V188.25Z" fill="#908882"/>
</g>
<g style="mix-blend-mode:multiply" opacity="0.4">
<path d="M201.08 193.71C200.93 193.67 200.79 193.71 200.66 193.83C200.39 193.81 200.24 194.07 200.16 194.28C200.07 194.51 200 194.86 200.21 195.03C200.46 195.25 200.83 194.97 201 194.78C201.05 194.73 201.06 194.71 201.05 194.72C201.09 194.68 201.12 194.64 201.15 194.59C201.22 194.48 201.25 194.36 201.28 194.23C201.33 194.04 201.29 193.78 201.08 193.71Z" fill="#908882"/>
</g>
<g style="mix-blend-mode:multiply" opacity="0.4">
<path d="M194.59 200.05C194.59 200.05 194.549 200.07 194.519 200.08C194.459 200.1 194.29 200.28 194.4 200.34C194.41 200.34 194.43 200.36 194.44 200.36C194.67 200.49 194.81 199.96 194.58 200.05H194.59Z" fill="#908882"/>
</g>
<g style="mix-blend-mode:multiply" opacity="0.4">
<path d="M185.259 199.51C185.239 199.36 185.079 199.41 184.979 199.53C184.979 199.53 184.959 199.51 184.949 199.51C184.839 199.44 184.689 199.64 184.729 199.74C184.819 199.97 184.949 200.25 185.229 200.08C185.329 200.02 185.409 199.9 185.419 199.79C185.439 199.64 185.269 199.63 185.259 199.52V199.51Z" fill="#908882"/>
</g>
<g style="mix-blend-mode:multiply" opacity="0.4">
<path d="M176.879 190.48C176.879 190.48 176.879 190.44 176.849 190.42C176.779 190.26 176.649 190.14 176.489 190.1C176.309 190.06 176.129 190.3 176.139 190.47C176.139 190.56 176.179 190.63 176.219 190.69C176.219 190.94 176.369 191.2 176.609 191.26C176.719 191.28 176.819 191.19 176.869 191.1C176.959 190.93 176.959 190.69 176.879 190.48Z" fill="#908882"/>
</g>
<g style="mix-blend-mode:multiply" opacity="0.4">
<path d="M183.68 192.66C183.68 192.66 183.65 192.7 183.64 192.72C183.6 192.72 183.55 192.72 183.51 192.72C183.25 192.8 183.19 193.1 183.22 193.34C183.26 193.63 183.51 193.88 183.78 193.97C184.1 194.08 184.41 193.78 184.6 193.56C185.12 192.98 184.24 192 183.67 192.65L183.68 192.66Z" fill="#908882"/>
</g>
<g style="mix-blend-mode:multiply" opacity="0.4">
<path d="M190.958 177.33C190.768 177.33 190.628 177.44 190.528 177.59C190.508 177.59 190.488 177.59 190.478 177.61C190.198 177.74 190.038 178.25 190.268 178.49C191.098 179.33 191.578 177.34 190.958 177.34V177.33Z" fill="#908882"/>
</g>
<g style="mix-blend-mode:multiply" opacity="0.4">
<path d="M181.069 175.15C180.989 175.19 180.919 175.24 180.859 175.29C180.689 175.33 180.549 175.54 180.499 175.69C180.489 175.73 180.479 175.8 180.519 175.83C180.769 176.03 181.299 175.49 181.239 175.23C181.219 175.15 181.149 175.11 181.069 175.15Z" fill="#908882"/>
</g>
<g style="mix-blend-mode:multiply" opacity="0.4">
<path d="M176.819 185.44C176.819 185.44 176.699 185.42 176.649 185.44C176.639 185.42 176.629 185.4 176.619 185.38C176.599 185.35 176.569 185.33 176.529 185.34C176.199 185.41 176.189 185.82 176.379 186.03C176.579 186.25 177.049 185.67 176.809 185.44H176.819Z" fill="#908882"/>
</g>
<g style="mix-blend-mode:multiply" opacity="0.4">
<path d="M197.439 179.89C197.389 179.83 197.319 179.86 197.259 179.91C197.249 179.91 197.229 179.91 197.209 179.91C196.979 180.03 196.859 180.55 197.129 180.68C197.289 180.75 197.419 180.6 197.499 180.47C197.619 180.28 197.569 180.04 197.429 179.87L197.439 179.89Z" fill="#908882"/>
</g>
<g style="mix-blend-mode:multiply" opacity="0.4">
<path d="M198.61 177.51C198.61 177.51 198.57 177.48 198.55 177.46C198.49 177.34 198.27 177.53 198.3 177.64C198.32 177.73 198.33 177.75 198.42 177.78C198.53 177.82 198.73 177.57 198.61 177.5V177.51Z" fill="#908882"/>
</g>
<g style="mix-blend-mode:multiply" opacity="0.4">
<path d="M194.079 172.27C194.079 172.27 194.079 172.21 194.049 172.19C194.009 172.17 193.989 172.13 193.979 172.09C193.979 172.09 193.969 172.07 193.959 172.07C193.889 171.99 193.789 172.11 193.739 172.21C193.739 172.18 193.729 172.15 193.739 172.13C193.759 172.08 193.689 172.1 193.679 172.13C193.619 172.26 193.809 172.75 193.989 172.69C194.169 172.63 194.149 172.44 194.089 172.28L194.079 172.27Z" fill="#908882"/>
</g>
<g style="mix-blend-mode:multiply" opacity="0.4">
<path d="M203.079 182.62C203.079 182.62 203.059 182.6 203.049 182.59C203.109 182.42 202.929 182.4 202.819 182.49C202.749 182.55 202.619 182.82 202.819 182.81C202.859 182.81 202.899 182.82 202.929 182.84C203.019 182.87 203.139 182.7 203.079 182.63V182.62Z" fill="#908882"/>
</g>
<g style="mix-blend-mode:multiply" opacity="0.4">
<path d="M197.04 190.13C197.01 190.19 196.98 190.25 196.95 190.31C196.92 190.35 196.87 190.41 196.9 190.46C196.9 190.46 196.9 190.46 196.9 190.47C196.92 190.51 196.98 190.51 197.02 190.48C197.15 190.38 197.23 190.31 197.28 190.14C197.35 189.93 197.1 189.99 197.04 190.12V190.13Z" fill="#908882"/>
</g>
<g style="mix-blend-mode:multiply" opacity="0.4">
<path d="M196.129 196.88C196.129 196.88 196.129 196.83 196.109 196.82C195.809 196.61 195.609 197.36 196.019 197.14C196.079 197.11 196.179 196.96 196.129 196.88Z" fill="#908882"/>
</g>
<path d="M230.48 395.64C238.27 387.23 243.01 376.25 243.01 364.22C243.01 337.8 220.25 316.39 192.18 316.39C164.11 316.39 141.35 337.81 141.35 364.22C141.35 376 145.89 386.79 153.4 395.12C172.58 392.77 189.73 389.26 189.73 389.26C189.73 389.26 209.61 393.33 230.5 395.64H230.48Z" fill="white"/>
<path d="M119.509 312.35C112.219 315.94 105.859 321.41 101.209 328.08C98.1694 332.43 95.8794 337.26 93.9094 342.19C93.2294 343.89 92.5694 345.65 91.3894 347.05C89.9594 348.76 87.8794 349.84 86.5394 351.62C85.1994 353.4 85.0594 356.48 87.0794 357.41C88.5394 358.08 90.2194 357.26 91.6094 356.45C91.5394 358.8 93.0494 361.12 95.2294 362C97.4094 362.88 100.109 362.27 101.699 360.54C101.179 362.42 102.639 364.38 104.449 365.11C106.259 365.84 108.279 365.67 110.209 365.48C110.739 365.43 111.289 365.37 111.729 365.08C112.319 364.69 112.589 363.97 112.829 363.29C114.959 357.14 117.079 350.99 119.209 344.84" fill="#98CA51"/>
<path d="M117.989 309.76C109.759 313.84 102.729 320.2 97.7194 327.89C94.9694 332.12 92.8694 336.72 90.9994 341.4C90.8894 341.66 90.7894 341.93 90.6894 342.19C90.6394 342.32 90.5794 342.45 90.5294 342.58C90.4994 342.65 90.3594 342.99 90.5194 342.61C90.6794 342.21 90.4994 342.64 90.4594 342.74C90.3994 342.87 90.3394 343 90.2794 343.13C90.1394 343.42 89.9994 343.7 89.8494 343.98C89.7094 344.23 89.5694 344.47 89.4194 344.7C89.3394 344.82 89.2594 344.93 89.1794 345.05C89.1394 345.11 88.9494 345.42 89.1594 345.08C89.3694 344.74 89.1394 345.08 89.0594 345.17C88.9694 345.27 88.8794 345.37 88.7794 345.46C88.5694 345.68 88.3494 345.89 88.1194 346.09C86.4694 347.57 84.4694 348.83 83.4694 350.89C82.2194 353.45 82.1094 356.61 84.0694 358.86C85.1094 360.05 86.7794 360.72 88.3494 360.67C90.0694 360.61 91.6394 359.9 93.1094 359.06C91.6094 358.2 90.0994 357.33 88.5994 356.47C88.5594 360.06 90.7794 363.38 94.0694 364.76C97.3594 366.14 101.369 365.26 103.809 362.68L98.7994 359.76C98.0594 362.81 99.6394 365.81 102.269 367.39C104.709 368.85 107.679 368.77 110.399 368.48C111.339 368.38 112.219 368.26 113.059 367.79C113.839 367.36 114.499 366.67 114.949 365.9C115.639 364.72 115.989 363.29 116.439 362.01C117.329 359.44 118.219 356.87 119.109 354.3C120.109 351.42 121.099 348.54 122.099 345.66C122.609 344.18 121.509 342.31 119.999 341.97C118.329 341.59 116.859 342.48 116.309 344.07C114.789 348.47 113.269 352.87 111.749 357.27C111.369 358.36 110.999 359.45 110.619 360.54C110.429 361.08 110.239 361.63 110.049 362.17C109.969 362.4 109.889 362.63 109.809 362.86C109.639 363.33 110.019 362.26 109.779 362.88C109.649 363.22 110.219 362.47 109.939 362.7C109.689 362.9 110.239 362.5 110.219 362.52C109.859 362.75 110.239 362.38 110.399 362.46C110.369 362.45 110.149 362.52 110.109 362.53C109.809 362.63 110.389 362.49 110.409 362.49C110.289 362.48 110.119 362.52 109.989 362.53C109.689 362.56 109.389 362.59 109.089 362.61C108.599 362.65 108.109 362.67 107.619 362.67C107.359 362.67 107.099 362.67 106.829 362.65C106.719 362.65 106.609 362.63 106.499 362.62C106.119 362.6 107.089 362.75 106.529 362.62C106.239 362.55 105.959 362.47 105.669 362.4C105.579 362.38 105.249 362.22 105.629 362.4C106.069 362.61 105.519 362.33 105.469 362.31C105.389 362.27 105.309 362.22 105.229 362.17C104.959 362 104.979 361.82 105.309 362.26C105.189 362.1 104.979 361.97 104.839 361.81C104.759 361.73 104.489 361.4 104.779 361.76C105.069 362.12 104.809 361.78 104.749 361.69C104.689 361.59 104.639 361.47 104.569 361.37C104.389 361.08 104.729 361.92 104.669 361.59C104.649 361.48 104.609 361.36 104.569 361.25C104.449 360.95 104.579 361.85 104.599 361.53C104.599 361.45 104.599 361.35 104.599 361.27C104.569 360.67 104.449 361.96 104.599 361.36C104.899 360.11 104.409 358.6 103.219 357.97C102.029 357.34 100.519 357.45 99.5794 358.44C99.4994 358.53 99.4094 358.61 99.3294 358.7C99.2494 358.78 98.8294 359.11 99.2194 358.82C99.5894 358.54 99.2394 358.8 99.1594 358.85C99.0594 358.92 98.9594 358.98 98.8494 359.04C98.7394 359.1 98.5394 359.17 98.4494 359.25C98.5294 359.17 99.0594 359.02 98.6694 359.16C98.4394 359.24 98.2094 359.31 97.9794 359.37C97.8294 359.41 97.6794 359.43 97.5394 359.46C97.1694 359.54 98.1694 359.43 97.7994 359.42C97.5594 359.42 97.3194 359.44 97.0794 359.43C96.5794 359.41 97.0294 359.41 97.2494 359.48C97.1394 359.45 97.0094 359.44 96.8994 359.41C96.7894 359.38 96.6694 359.35 96.5494 359.32C96.4294 359.29 95.9494 359.08 96.3994 359.29C96.8494 359.5 96.1494 359.16 96.0294 359.08C95.9294 359.02 95.8294 358.95 95.7294 358.89C95.4194 358.71 96.2194 359.33 95.8394 358.98C95.6594 358.82 95.4894 358.66 95.3194 358.48C95.2394 358.39 95.1694 358.29 95.0794 358.21C95.5694 358.67 95.3194 358.52 95.1794 358.31C95.0494 358.11 94.9294 357.9 94.8194 357.68C94.5894 357.23 94.8594 357.61 94.8694 357.82C94.8694 357.71 94.7894 357.58 94.7494 357.48C94.6794 357.25 94.6594 357 94.5794 356.78C94.7994 357.41 94.6294 357.25 94.6194 356.95C94.6194 356.8 94.6194 356.65 94.6194 356.5C94.6494 354.2 92.0594 352.79 90.1094 353.91C89.8894 354.03 89.6794 354.16 89.4594 354.27C89.3494 354.33 88.8494 354.49 88.7794 354.6C88.9094 354.37 89.2694 354.44 88.8994 354.54C88.7594 354.58 88.6294 354.63 88.4994 354.66C88.3994 354.69 88.2994 354.7 88.1994 354.73C87.8394 354.83 88.8394 354.71 88.2894 354.7C87.7394 354.69 88.9594 354.81 88.1994 354.67C87.8794 354.61 88.4794 354.76 88.4994 354.8C88.4994 354.8 88.2894 354.66 88.2594 354.65C88.2894 354.65 88.8394 355.16 88.5494 354.85C88.4694 354.76 88.3294 354.57 88.5994 354.95C88.9894 355.49 88.4494 354.76 88.4794 354.67C88.5194 354.56 88.6494 355.39 88.6594 355.06C88.6594 355 88.6194 354.91 88.5994 354.86C88.5994 354.86 88.5194 354.6 88.5394 354.58C88.5694 354.54 88.5894 355.44 88.5994 354.94C88.5994 354.77 88.5994 354.59 88.5994 354.42C88.5994 353.79 88.4394 355.09 88.5994 354.46C88.6394 354.28 88.6794 354.11 88.7394 353.94C88.7694 353.86 88.8294 353.73 88.8394 353.65C88.8394 353.64 88.5394 354.26 88.6894 354.01C88.7794 353.86 88.8494 353.69 88.9394 353.54C88.9594 353.5 89.0894 353.35 89.0994 353.29C89.0494 353.51 88.6794 353.8 89.0394 353.38C90.3394 351.86 92.1294 350.86 93.4394 349.36C95.0894 347.47 95.9794 345.22 96.8994 342.91C97.0994 342.41 97.2594 341.79 97.5494 341.33C97.5494 341.35 97.3294 341.84 97.4694 341.52C97.5094 341.42 97.5594 341.31 97.5994 341.21C97.7294 340.9 97.8694 340.58 98.0094 340.27C98.4494 339.26 98.9194 338.27 99.3994 337.28C100.399 335.24 101.499 333.24 102.719 331.33C103.289 330.44 103.889 329.56 104.509 328.71C104.649 328.52 104.799 328.33 104.939 328.13C105.249 327.71 104.889 328.19 104.839 328.25C104.919 328.14 105.009 328.03 105.089 327.93C105.409 327.53 105.729 327.13 106.059 326.74C107.359 325.2 108.759 323.74 110.239 322.37C111.089 321.58 111.969 320.82 112.879 320.1C113.039 319.97 113.749 319.5 113.079 319.94C113.309 319.79 113.519 319.61 113.739 319.45C114.209 319.1 114.679 318.77 115.159 318.44C117.049 317.15 119.029 315.99 121.079 314.97C122.489 314.27 122.989 312.16 122.159 310.87C121.229 309.43 119.559 309.05 118.059 309.79L117.989 309.76Z" fill="black"/>
<path d="M257.391 312.35C264.681 315.94 271.041 321.41 275.691 328.08C278.731 332.43 281.021 337.26 282.991 342.19C283.671 343.89 284.331 345.65 285.511 347.05C286.941 348.76 289.021 349.84 290.361 351.62C291.701 353.4 291.841 356.48 289.821 357.41C288.361 358.08 286.681 357.26 285.291 356.45C285.361 358.8 283.851 361.12 281.671 362C279.491 362.88 276.791 362.27 275.201 360.54C275.721 362.42 274.261 364.38 272.451 365.11C270.641 365.84 268.621 365.67 266.691 365.48C266.161 365.43 265.611 365.37 265.171 365.08C264.581 364.69 264.311 363.97 264.071 363.29C261.941 357.14 259.821 350.99 257.691 344.84" fill="#98CA51"/>
<path d="M255.88 314.94C257.72 315.85 259.5 316.87 261.21 318C262.04 318.55 262.84 319.12 263.63 319.72C264.23 320.17 263.33 319.48 263.75 319.81C263.94 319.96 264.12 320.11 264.31 320.26C264.73 320.6 265.15 320.96 265.57 321.31C267.09 322.63 268.53 324.04 269.88 325.54C270.57 326.3 271.23 327.09 271.86 327.89C271.92 327.97 271.99 328.05 272.05 328.13C272.3 328.45 271.71 327.68 271.96 328.01C272.1 328.2 272.25 328.39 272.39 328.58C272.7 329 273 329.43 273.3 329.86C274.57 331.7 275.7 333.63 276.74 335.61C277.27 336.62 277.77 337.64 278.25 338.67C278.47 339.15 278.69 339.64 278.91 340.12C279.03 340.4 279.15 340.68 279.27 340.95C279.32 341.05 279.36 341.16 279.4 341.26C279.48 341.44 279.75 341.82 279.4 341.28C279.67 341.7 279.82 342.29 280 342.75C280.2 343.25 280.39 343.75 280.6 344.24C281.08 345.39 281.55 346.55 282.22 347.6C282.89 348.65 283.67 349.56 284.58 350.36C285.32 351.01 286.1 351.6 286.84 352.25C287.27 352.63 287.65 353.04 288.04 353.47C288.27 353.72 287.85 353.22 287.85 353.22C287.87 353.3 288.01 353.46 288.05 353.54C288.1 353.63 288.15 353.72 288.2 353.81C288.35 354.09 288.2 354.2 288.11 353.58C288.14 353.77 288.25 353.98 288.3 354.17C288.32 354.24 288.33 354.32 288.35 354.4C288.48 354.89 288.3 354.3 288.32 354.13C288.3 354.32 288.35 354.54 288.34 354.73C288.34 354.73 288.34 355 288.32 355.02C288.35 354.99 288.5 354.18 288.35 354.72C288.33 354.79 288.31 354.86 288.3 354.93C288.21 355.39 288.61 354.4 288.43 354.67C288.35 354.79 288.01 355.34 288.34 354.88C288.63 354.48 288.45 354.74 288.34 354.83C288.12 355.02 289.02 354.43 288.56 354.66C288.46 354.71 288.25 354.79 288.63 354.66C289.22 354.44 288.44 354.71 288.44 354.69C288.43 354.63 289.08 354.69 288.74 354.64C288.1 354.55 288.78 354.78 288.83 354.7C288.79 354.77 288.13 354.52 288.02 354.49C287.49 354.33 288.07 354.54 288.14 354.55C287.98 354.52 287.8 354.39 287.65 354.32C287.36 354.17 287.08 354.02 286.8 353.86C284.85 352.74 282.26 354.15 282.29 356.45C282.29 356.57 282.29 356.69 282.29 356.81C282.29 356.93 282.23 357.48 282.29 356.95C282.35 356.42 282.22 357.19 282.18 357.34C282.14 357.47 282.05 357.64 282.04 357.77C282.04 357.66 282.32 357.18 282.13 357.55C282.02 357.76 281.91 357.98 281.78 358.18C281.72 358.28 281.39 358.7 281.7 358.32C281.99 357.96 281.71 358.29 281.65 358.37C281.49 358.55 281.32 358.72 281.14 358.88C280.77 359.21 281.05 358.87 281.25 358.8C281.15 358.83 281.04 358.94 280.95 359C280.85 359.06 280.74 359.12 280.64 359.18C280.54 359.23 280.05 359.47 280.51 359.25C280.93 359.05 280.55 359.22 280.44 359.25C280.33 359.29 280.21 359.32 280.09 359.35C279.97 359.38 279.85 359.4 279.74 359.42C279.37 359.5 280.45 359.38 279.91 359.39C279.67 359.39 279.43 359.39 279.19 359.39C278.78 359.39 279.33 359.41 279.45 359.44C279.31 359.4 279.15 359.39 279.01 359.36C278.77 359.31 278.54 359.24 278.32 359.16C277.84 358.99 278.3 359.08 278.45 359.22C278.37 359.15 278.22 359.11 278.13 359.06C277.92 358.94 277.73 358.78 277.52 358.67C278.09 358.96 277.84 358.93 277.64 358.74C277.53 358.64 277.42 358.53 277.32 358.42C276.44 357.49 274.77 357.25 273.68 357.95C272.53 358.69 271.98 360 272.3 361.34C272.3 360.67 272.43 361.86 272.3 361.34C272.3 361.42 272.27 361.53 272.29 361.6C272.27 361.51 272.46 360.87 272.31 361.32C272.28 361.4 272.25 361.49 272.23 361.57C272.17 361.86 272.35 361.28 272.37 361.27C272.27 361.38 272.06 361.74 272 361.89C272.15 361.47 272.34 361.5 272.13 361.71C272.07 361.78 272 361.85 271.94 361.91C271.88 361.97 271.8 362.04 271.74 362.1C271.38 362.45 271.84 362 271.91 361.98C271.73 362.03 271.52 362.23 271.36 362.32C271.29 362.36 271.18 362.39 271.11 362.44C271.26 362.32 271.64 362.25 271.24 362.36C270.99 362.43 270.74 362.5 270.49 362.56C270.38 362.58 269.9 362.65 270.34 362.6C270.78 362.55 270.37 362.6 270.3 362.6C269.74 362.63 269.18 362.65 268.61 362.62C268.12 362.6 267.63 362.56 267.14 362.51C266.99 362.5 266.84 362.48 266.69 362.47C266.25 362.42 266.6 362.47 266.69 362.47C267.25 362.54 266.69 362.47 266.69 362.46C266.44 362.38 266.43 362.39 266.67 362.49C266.87 362.59 266.9 362.6 266.76 362.52C266.46 362.35 267.02 362.73 267.01 362.72C266.64 362.42 267.16 362.82 267.16 362.91C267.16 362.87 267.06 362.71 267.03 362.68C266.86 362.43 267.14 362.98 267.15 362.99C267.01 362.46 266.78 361.95 266.6 361.43C266.22 360.34 265.85 359.25 265.47 358.16C264.7 355.94 263.94 353.72 263.17 351.5C262.31 349.01 261.45 346.52 260.59 344.03C260.08 342.55 258.51 341.41 256.9 341.93C255.43 342.4 254.26 344.03 254.8 345.62C256.58 350.76 258.35 355.9 260.13 361.03C261.09 363.8 261.77 367.46 265.1 368.24C266.38 368.54 267.85 368.61 269.17 368.62C270.83 368.63 272.44 368.35 273.97 367.68C276.98 366.34 278.88 362.97 278.09 359.72L273.08 362.64C275.52 365.22 279.55 366.1 282.82 364.72C286.09 363.34 288.33 360.02 288.29 356.43C286.79 357.29 285.28 358.16 283.78 359.02C284.92 359.67 286.14 360.29 287.44 360.5C289.28 360.8 290.98 360.41 292.43 359.21C294.31 357.64 294.66 354.84 294.09 352.58C293.5 350.24 291.82 348.57 290.01 347.1C289.59 346.76 289.17 346.42 288.77 346.06C288.59 345.9 288.42 345.74 288.25 345.58C288.14 345.47 287.64 345.07 287.63 344.91C287.63 344.93 288.04 345.5 287.71 345.02C287.63 344.9 287.55 344.79 287.47 344.67C287.32 344.44 287.17 344.19 287.04 343.95C286.79 343.49 286.43 342.94 286.3 342.43C286.32 342.5 286.56 343.06 286.36 342.56C286.31 342.43 286.25 342.3 286.2 342.17C286.09 341.91 285.99 341.64 285.89 341.38C285.66 340.82 285.44 340.25 285.2 339.69C284.66 338.4 284.11 337.12 283.52 335.85C282.5 333.65 281.39 331.49 280.13 329.41C277.72 325.42 274.78 321.71 271.4 318.5C267.7 314.99 263.47 312 258.9 309.74C257.5 309.04 255.59 309.32 254.8 310.82C254.08 312.18 254.37 314.18 255.88 314.92V314.94Z" fill="black"/>
<path d="M168.828 227.64C171.916 227.64 174.418 225.137 174.418 222.05C174.418 218.963 171.916 216.46 168.828 216.46C165.741 216.46 163.238 218.963 163.238 222.05C163.238 225.137 165.741 227.64 168.828 227.64Z" fill="black"/>
<path d="M213.199 227.64C216.287 227.64 218.789 225.137 218.789 222.05C218.789 218.963 216.287 216.46 213.199 216.46C210.112 216.46 207.609 218.963 207.609 222.05C207.609 225.137 210.112 227.64 213.199 227.64Z" fill="black"/>
<path d="M224.738 244.91C224.478 243.55 223.168 242.67 221.818 242.92C221.648 242.96 204.298 246.08 192.718 236.06C192.348 235.74 191.908 235.55 191.448 235.48V235.45C191.378 235.45 191.308 235.45 191.238 235.46C191.168 235.46 191.098 235.44 191.028 235.45V235.48C190.578 235.55 190.128 235.74 189.758 236.06C178.178 246.08 160.838 242.96 160.658 242.92C159.308 242.66 157.998 243.55 157.738 244.91C157.478 246.27 158.368 247.58 159.728 247.83C159.978 247.88 161.938 248.24 164.938 248.38C171.048 248.67 181.428 248.04 190.248 241.99C190.848 241.57 191.638 241.57 192.238 241.99C201.058 248.04 211.438 248.67 217.548 248.38C220.548 248.24 222.508 247.88 222.758 247.83C224.118 247.57 225.008 246.26 224.748 244.91H224.738Z" fill="black"/>
</g>
<defs>
<clipPath id="clip0_873_731">
<rect width="380.54" height="573" fill="white" transform="translate(0.869141)"/>
</clipPath>
</defs>
</svg>
