<svg width="382" height="573" viewBox="0 0 382 573" fill="none" xmlns="http://www.w3.org/2000/svg">
<g clip-path="url(#clip0_873_2211)">
<path d="M358.926 0H22.9263C10.6269 0 0.65625 9.97062 0.65625 22.27V550.73C0.65625 563.029 10.6269 573 22.9263 573H358.926C371.226 573 381.196 563.029 381.196 550.73V22.27C381.196 9.97062 371.226 0 358.926 0Z" fill="#98CA51"/>
<path d="M319.887 95.66C338.664 95.66 353.887 80.4377 353.887 61.66C353.887 42.8823 338.664 27.66 319.887 27.66C301.109 27.66 285.887 42.8823 285.887 61.66C285.887 80.4377 301.109 95.66 319.887 95.66Z" fill="white"/>
<path d="M319.155 64.3069C317.734 64.3069 316.648 64.8084 315.896 65.8114C315.143 66.7865 314.767 67.9705 314.767 69.3635C314.767 70.7565 315.116 71.9406 315.812 72.9157C316.536 73.8629 317.651 74.3365 319.155 74.3365H320.827C322.303 74.3365 323.404 73.849 324.128 72.8739C324.853 71.8988 325.215 70.7287 325.215 69.3635C325.215 68.0541 324.839 66.884 324.087 65.8532C323.334 64.8223 322.248 64.3069 320.827 64.3069H319.155ZM324.588 53.7759C324.588 52.4107 324.24 51.3102 323.543 50.4744C322.847 49.6108 321.579 49.179 319.74 49.179C318.487 49.179 317.456 49.6247 316.648 50.5162C315.84 51.4078 315.436 52.4943 315.436 53.7759C315.436 54.3888 315.52 54.9738 315.687 55.531C315.882 56.0882 316.146 56.5897 316.481 57.0355C316.815 57.537 317.233 57.927 317.734 58.2056C318.236 58.4842 318.807 58.6374 319.448 58.6653H319.991C321.217 58.6096 322.29 58.1081 323.209 57.1608C324.128 56.1857 324.588 55.0574 324.588 53.7759ZM319.072 43.9552C320.186 43.9273 321.356 43.9831 322.582 44.1224C323.808 44.2617 325.006 44.5263 326.176 44.9164C327.318 45.3621 328.363 45.9472 329.31 46.6716C330.285 47.3681 331.065 48.2596 331.651 49.3461C332.236 50.6555 332.528 52.0485 332.528 53.5251C332.528 54.8345 332.291 56.13 331.818 57.4116C331.372 58.6931 330.689 59.8633 329.77 60.9219C331.079 61.702 332.068 62.8582 332.737 64.3905C333.406 65.9228 333.74 67.4551 333.74 68.9874C333.74 70.6312 333.42 72.1217 332.779 73.4589C332.138 74.7684 331.288 75.8688 330.23 76.7604C329.143 77.6797 327.889 78.3902 326.469 78.8917C325.076 79.3931 323.585 79.6439 321.997 79.6439H317.985C316.425 79.5603 314.935 79.2678 313.514 78.7663C312.093 78.2648 310.839 77.5683 309.753 76.6768C308.666 75.7853 307.802 74.7126 307.162 73.4589C306.549 72.1774 306.242 70.7426 306.242 69.1546C306.242 67.5944 306.563 66.0343 307.203 64.4741C307.844 62.9139 308.861 61.7299 310.254 60.9219C309.474 60.114 308.805 59.0971 308.248 57.8713C307.719 56.6454 307.454 55.4057 307.454 54.152C307.454 52.5639 307.761 51.157 308.373 49.9312C308.986 48.7053 309.808 47.6606 310.839 46.7969C311.898 45.9611 313.124 45.3064 314.517 44.8328C315.937 44.3313 317.456 44.0388 319.072 43.9552Z" fill="#98CA51"/>
<path d="M69.1465 546.34C87.9242 546.34 103.146 531.118 103.146 512.34C103.146 493.562 87.9242 478.34 69.1465 478.34C50.3688 478.34 35.1465 493.562 35.1465 512.34C35.1465 531.118 50.3688 546.34 69.1465 546.34Z" fill="#98CA51"/>
<path d="M77.6527 489.907C74.0626 489.907 71.3173 491.174 69.4167 493.708C67.5161 496.172 66.5658 499.164 66.5658 502.683C66.5658 506.203 67.4457 509.195 69.2055 511.659C71.0357 514.052 73.8515 515.249 77.6527 515.249H81.8763C85.6071 515.249 88.3877 514.017 90.2179 511.553C92.0481 509.089 92.9633 506.133 92.9633 502.683C92.9633 499.375 92.0129 496.418 90.1123 493.814C88.2117 491.209 85.4664 489.907 81.8763 489.907H77.6527ZM91.3794 463.298C91.3794 459.849 90.4995 457.069 88.7397 454.957C86.9798 452.775 83.7769 451.684 79.131 451.684C75.9633 451.684 73.3587 452.81 71.3173 455.062C69.2759 457.315 68.2552 460.06 68.2552 463.298C68.2552 464.847 68.4664 466.325 68.8887 467.733C69.3815 469.141 70.0502 470.408 70.8949 471.534C71.7397 472.802 72.7956 473.787 74.0626 474.491C75.3297 475.195 76.7728 475.582 78.3918 475.652H79.7645C82.8618 475.512 85.572 474.245 87.8949 471.851C90.2179 469.387 91.3794 466.537 91.3794 463.298ZM77.4415 438.485C80.2573 438.414 83.2138 438.555 86.3111 438.907C89.4084 439.259 92.4353 439.928 95.3918 440.913C98.2779 442.04 100.918 443.518 103.311 445.348C105.775 447.108 107.746 449.361 109.224 452.106C110.702 455.414 111.441 458.934 111.441 462.665C111.441 465.973 110.843 469.247 109.646 472.485C108.52 475.723 106.796 478.679 104.473 481.354C107.781 483.325 110.28 486.247 111.969 490.118C113.659 493.99 114.504 497.862 114.504 501.733C114.504 505.886 113.694 509.652 112.075 513.031C110.456 516.34 108.309 519.12 105.634 521.373C102.889 523.696 99.721 525.491 96.131 526.758C92.6113 528.025 88.8452 528.659 84.8328 528.659H74.6962C70.7542 528.447 66.9881 527.708 63.3981 526.441C59.808 525.174 56.6403 523.414 53.895 521.162C51.1496 518.909 48.9674 516.199 47.3484 513.031C45.7997 509.793 45.0254 506.168 45.0254 502.156C45.0254 498.214 45.8349 494.271 47.454 490.329C49.073 486.387 51.6424 483.396 55.162 481.354C53.191 479.313 51.5016 476.744 50.0937 473.646C48.7562 470.549 48.0875 467.416 48.0875 464.249C48.0875 460.236 48.8618 456.681 50.4105 453.584C51.9591 450.487 54.0357 447.847 56.6403 445.665C59.3152 443.553 62.4125 441.899 65.9322 440.702C69.5223 439.435 73.3587 438.696 77.4415 438.485Z" fill="white"/>
<path d="M263.385 363.87L120.045 350.39V305.3H264.905L263.385 363.87Z" fill="#D6AF43"/>
<path d="M119.736 314.17C116.506 312.9 113.346 311.44 110.276 309.75C106.226 307.51 102.366 304.93 98.8262 301.99C95.1162 298.89 91.7762 295.35 89.0362 291.39C81.9362 281.15 79.8062 268.8 81.9962 256.71C82.5062 253.89 83.2262 251.11 84.1062 248.39C84.1062 248.39 87.5862 230.98 114.456 208.7C113.456 205.47 112.916 202.06 112.916 198.52C112.916 179.06 129.126 163.29 149.126 163.29C166.236 163.29 180.556 174.84 184.346 190.35C184.956 190.23 187.946 190.25 189.136 190.27C190.336 190.26 193.326 190.23 193.926 190.35C197.716 174.83 212.036 163.29 229.146 163.29C249.146 163.29 265.356 179.06 265.356 198.52C265.356 202.06 264.816 205.48 263.816 208.7C290.696 230.97 294.166 248.39 294.166 248.39C295.046 251.12 295.766 253.9 296.276 256.71C298.466 268.8 296.336 281.15 289.236 291.39C286.496 295.34 283.156 298.88 279.446 301.99C277.796 303.37 276.056 304.63 274.296 305.86C271.466 307.85 268.706 309.94 265.846 311.88L261.166 314.17" fill="#D6AF43"/>
<path d="M119.735 317.67C119.305 317.67 118.875 317.59 118.455 317.42C114.895 316.02 111.675 314.51 108.585 312.81C104.225 310.4 100.185 307.66 96.5955 304.68C92.4855 301.25 88.9855 297.45 86.1655 293.39C78.8255 282.8 76.1255 269.55 78.5555 256.09C79.0655 253.28 79.7955 250.38 80.7255 247.47C81.2455 245.22 85.8255 228.48 110.485 207.47C109.775 204.54 109.415 201.54 109.415 198.52C109.415 177.17 127.225 159.79 149.125 159.79C166.605 159.79 181.765 170.74 186.955 186.76C187.565 186.76 188.295 186.76 189.175 186.77C190.015 186.77 190.725 186.77 191.315 186.76C196.515 170.74 211.675 159.79 229.145 159.79C251.035 159.79 268.855 177.16 268.855 198.52C268.855 201.54 268.495 204.54 267.785 207.47C292.445 228.49 297.025 245.23 297.545 247.47C298.475 250.38 299.205 253.28 299.715 256.09C302.155 269.55 299.455 282.8 292.105 293.39C289.295 297.45 285.785 301.25 281.685 304.68C280.035 306.06 278.345 307.3 276.305 308.73C275.185 309.52 274.075 310.32 272.965 311.13C271.295 312.34 269.565 313.6 267.805 314.79L267.385 315.03L262.705 317.32C260.965 318.17 258.875 317.45 258.025 315.72C257.175 313.98 257.895 311.89 259.625 311.04L264.085 308.86C265.685 307.77 267.295 306.6 268.855 305.47C269.995 304.64 271.135 303.82 272.275 303.01C274.165 301.68 275.735 300.54 277.195 299.32C280.815 296.29 283.895 292.96 286.355 289.41C292.635 280.35 294.935 268.96 292.825 257.34C292.365 254.78 291.695 252.13 290.835 249.47L290.735 249.08C290.705 248.94 286.945 232.42 261.585 211.4L259.785 209.91L260.475 207.67C261.395 204.7 261.865 201.63 261.865 198.52C261.865 181.02 247.195 166.79 229.155 166.79C213.925 166.79 200.845 176.82 197.335 191.18L196.545 194.43L193.355 193.8C193.015 193.77 191.815 193.73 189.185 193.76C186.485 193.73 185.275 193.76 184.935 193.8L181.745 194.43L180.955 191.18C177.445 176.82 164.365 166.79 149.135 166.79C131.105 166.79 116.425 181.02 116.425 198.52C116.425 201.62 116.895 204.7 117.815 207.67L118.505 209.91L116.705 211.4C91.3455 232.42 87.5855 248.93 87.5455 249.1L87.4455 249.47C86.5855 252.14 85.9155 254.79 85.4555 257.34C83.3555 268.96 85.6455 280.35 91.9255 289.41C94.3855 292.95 97.4655 296.29 101.085 299.31C104.335 302.01 108.005 304.49 111.985 306.69C114.805 308.25 117.765 309.63 121.045 310.92C122.845 311.63 123.725 313.66 123.015 315.46C122.475 316.84 121.155 317.68 119.755 317.68L119.735 317.67Z" fill="black"/>
<path d="M116.256 346.39C114.776 366.11 116.826 386.07 116.826 386.07L110.906 392.66C107.646 396.29 109.786 402.09 114.616 402.73C139.056 405.93 190.156 395.11 190.156 395.11C190.156 395.11 243.036 406.31 266.936 402.55C271.226 401.88 273.036 396.7 270.146 393.48L263.496 386.07C263.496 386.07 263.896 370.66 263.606 357.13V348.43" fill="#D6AF43"/>
<path d="M125.276 406.82C121.236 406.82 117.476 406.63 114.166 406.2C110.646 405.74 107.686 403.38 106.446 400.04C105.206 396.7 105.916 392.97 108.296 390.32L113.186 384.87C112.736 379.75 111.486 362.99 112.756 346.12C112.896 344.19 114.576 342.75 116.506 342.89C118.436 343.03 119.876 344.71 119.736 346.64C118.296 365.81 120.276 385.51 120.296 385.7L120.456 387.24L113.506 394.99C112.566 396.03 112.846 397.16 113.006 397.6C113.166 398.03 113.686 399.07 115.066 399.25C138.636 402.34 188.926 391.78 189.426 391.67L190.156 391.52L190.886 391.67C191.406 391.78 243.416 402.69 266.396 399.08C267.426 398.92 267.816 398.13 267.936 397.8C268.056 397.46 268.256 396.6 267.546 395.8L259.966 387.36L260.006 385.97C260.006 385.82 260.406 370.49 260.116 357.2V348.42C260.116 346.49 261.686 344.92 263.616 344.92C265.546 344.92 267.116 346.49 267.116 348.42V357.12C267.356 368.16 267.126 380.64 267.036 384.75L272.756 391.13C274.956 393.58 275.636 397.04 274.536 400.15C273.436 403.25 270.736 405.49 267.496 406C244.496 409.62 196.896 400.07 190.166 398.67C184.506 399.84 149.806 406.81 125.276 406.81V406.82Z" fill="black"/>
<path d="M231.786 397.78C239.576 389.37 244.316 378.39 244.316 366.36C244.316 339.94 221.556 318.53 193.486 318.53C165.416 318.53 142.656 339.95 142.656 366.36C142.656 378.14 147.196 388.93 154.706 397.26C173.886 394.91 191.036 391.4 191.036 391.4C191.036 391.4 210.916 395.47 231.806 397.78H231.786Z" fill="white"/>
<path d="M251.365 187.95C251.365 187.95 247.955 177.19 251.125 166.33C251.175 166.15 251.415 166.1 251.545 166.24L253.085 168.03C253.085 168.03 256.155 138.36 283.995 121.92C283.995 121.92 293.595 125.92 291.905 135.62C290.225 145.32 268.255 173.31 261.515 179.11C261.515 179.11 262.485 179.23 264.805 178.76C265.015 178.72 265.175 178.96 265.045 179.13C263.885 180.67 259.755 185.42 251.365 187.93V187.95Z" fill="#EF6600"/>
<path d="M249.395 191.67L248.505 188.86C248.355 188.38 244.855 177.09 248.245 165.49C248.585 164.35 249.515 163.48 250.675 163.23C250.745 163.22 250.815 163.2 250.875 163.19C252.935 153.91 259.945 132.63 282.455 119.34L283.745 118.58L285.135 119.16C289.215 120.86 296.505 126.6 294.845 136.14C293.285 145.1 276.845 167.1 267.575 177.26C267.575 177.26 267.575 177.27 267.585 177.28C268.305 178.43 268.245 179.87 267.435 180.95C265.885 183.01 261.295 188.11 252.215 190.82L249.385 191.67H249.395ZM252.965 172.53C252.485 177.11 253.005 181.31 253.505 184C255.195 183.29 256.625 182.5 257.825 181.7L254.385 181.29L259.555 176.84C266.525 170.84 287.495 143.48 288.945 135.11C289.875 129.75 286.155 126.65 284.095 125.37C259.165 141.01 256.095 168.06 256.065 168.34L255.345 175.29L252.975 172.52L252.965 172.53Z" fill="#0F0F0F"/>
<path d="M291.864 131.12C290.554 124.68 283.984 121.94 283.984 121.94C282.044 123.08 280.234 124.29 278.524 125.55C278.484 125.68 274.004 140.28 291.864 131.12Z" fill="#3FC9B1"/>
<path d="M282.495 137.13C280.505 137.13 278.875 136.59 277.585 135.5C273.625 132.18 275.295 125.9 275.665 124.67L275.955 123.72L276.755 123.13C278.605 121.77 280.525 120.49 282.465 119.35L283.755 118.59L285.145 119.17C285.475 119.31 293.195 122.62 294.805 130.52L295.265 132.75L293.245 133.79C288.905 136.02 285.335 137.13 282.505 137.13H282.495ZM281.185 127.33C280.905 128.8 280.935 130.47 281.435 130.9C281.445 130.91 282.785 131.93 288.155 129.57C287.075 127.53 285.285 126.15 284.085 125.39C283.105 126.01 282.135 126.66 281.185 127.33Z" fill="#0F0F0F"/>
<path d="M276.105 139.04L263.955 140.67C263.115 141.9 262.325 143.17 261.575 144.46C261.185 145.13 260.805 145.8 260.435 146.48C260.065 147.16 259.615 147.8 259.365 148.49C259.615 148.57 259.985 148.48 260.255 148.46L261.845 148.34C263.245 148.24 264.645 148.13 266.045 148.03C267.495 147.92 268.945 147.81 270.395 147.7L276.195 162.07C277.865 159.87 279.525 157.6 281.115 155.34L276.105 139.05V139.04Z" fill="#FFB727"/>
<path d="M275.396 168.09L268.446 150.85L260.486 151.45C260.016 151.51 259.266 151.61 258.436 151.34L255.516 150.38L256.546 147.49C256.816 146.72 257.216 146.06 257.526 145.52C257.626 145.36 257.716 145.19 257.806 145.04C258.186 144.34 258.586 143.65 258.986 142.96C259.836 141.5 260.656 140.21 261.486 138.99L262.236 137.89L278.236 135.74L284.426 155.86L283.586 157.06C282.026 159.28 280.346 161.58 278.596 163.88L275.406 168.09H275.396ZM272.366 144.54L276.976 155.98C277.256 155.59 277.536 155.2 277.816 154.81L273.986 142.36L265.696 143.47C265.356 144 265.016 144.55 264.666 145.12L272.366 144.54Z" fill="#0F0F0F"/>
<path d="M248.895 196.08C248.895 196.08 248.965 195.77 249.095 195.19C249.225 194.61 249.415 193.76 249.705 192.7C249.995 191.63 250.345 190.33 250.785 188.86C251.005 188.12 251.245 187.34 251.495 186.51C251.745 185.68 252.055 184.83 252.355 183.92C252.935 182.11 253.665 180.19 254.425 178.14C254.805 177.12 255.245 176.09 255.665 175.02C256.095 173.96 256.515 172.87 257.005 171.78C257.975 169.61 258.925 167.33 260.055 165.09C260.605 163.96 261.155 162.83 261.715 161.69C262.305 160.57 262.905 159.44 263.495 158.31C264.665 156.04 265.975 153.85 267.235 151.67C267.555 151.13 267.865 150.58 268.175 150.05C268.485 149.51 268.845 149 269.165 148.47C269.835 147.43 270.495 146.4 271.145 145.39C272.395 143.35 273.805 141.48 275.075 139.67C275.715 138.77 276.325 137.89 276.945 137.06C277.595 136.24 278.215 135.45 278.815 134.69C280.015 133.18 281.095 131.77 282.125 130.58C283.165 129.4 284.075 128.37 284.825 127.52C285.565 126.67 286.175 126.02 286.575 125.56C286.985 125.11 287.195 124.87 287.195 124.87C287.195 124.87 287.005 125.13 286.635 125.61C286.265 126.09 285.745 126.8 285.055 127.68C284.365 128.57 283.535 129.65 282.575 130.88C282.085 131.49 281.635 132.19 281.125 132.9C280.615 133.61 280.085 134.36 279.525 135.14C278.965 135.92 278.385 136.73 277.785 137.57C277.215 138.43 276.625 139.32 276.015 140.23C274.815 142.07 273.495 143.96 272.285 146.01C271.045 148.05 269.715 150.12 268.505 152.31C267.885 153.39 267.255 154.49 266.635 155.58C265.855 156.9 265.215 158.29 264.445 159.62C263.935 160.6 263.415 161.57 262.905 162.55C262.395 163.59 261.885 164.62 261.375 165.65C260.245 167.87 259.235 170.1 258.225 172.25C257.705 173.32 257.275 174.4 256.805 175.44C256.355 176.49 255.885 177.5 255.465 178.5C254.655 180.51 253.835 182.4 253.165 184.17C252.465 185.93 251.855 187.56 251.325 189C250.785 190.44 250.355 191.71 249.995 192.76C249.645 193.81 249.375 194.63 249.185 195.2C249.005 195.77 248.915 196.07 248.915 196.07L248.895 196.08Z" fill="#603913"/>
<path d="M251.755 196.98L245.965 195.44L246.165 194.55C246.305 193.94 246.505 193.05 246.805 191.93C247.115 190.77 247.475 189.47 247.905 188L248.615 185.64C248.785 185.07 248.985 184.5 249.185 183.91L249.495 182.98C250.005 181.4 250.615 179.74 251.265 177.99L251.595 177.1C251.855 176.41 252.125 175.73 252.405 175.03L253.125 173.24C253.485 172.35 253.845 171.44 254.255 170.54C254.505 169.97 254.765 169.39 255.025 168.8C255.745 167.15 256.495 165.45 257.355 163.74L258.995 160.38L260.815 156.91C261.815 154.97 262.925 153.06 263.995 151.22L265.555 148.53C265.775 148.15 266.025 147.76 266.265 147.38C266.375 147.21 266.485 147.04 266.595 146.86L268.585 143.75C269.535 142.2 270.565 140.75 271.575 139.35C271.915 138.87 272.255 138.4 272.585 137.93L273.285 136.95C273.695 136.37 274.105 135.8 274.505 135.25L277.245 131.77C278.135 130.64 278.985 129.57 279.805 128.61L282.535 125.52C283.055 124.93 283.505 124.43 283.875 124.02L284.925 122.85L289.545 126.67L288.555 127.97C288.235 128.4 287.835 128.92 287.375 129.52L284.895 132.71C284.595 133.09 284.335 133.46 284.075 133.84C283.895 134.1 283.705 134.37 283.505 134.64L280.205 139.26L278.465 141.88C278.125 142.4 277.765 142.94 277.395 143.5C276.525 144.8 275.635 146.15 274.815 147.54C274.455 148.14 274.095 148.72 273.735 149.31C272.845 150.76 271.915 152.25 271.085 153.77L269.195 157.08C268.795 157.75 268.455 158.41 268.085 159.11C267.745 159.77 267.395 160.43 267.025 161.08L265.025 164.96L264.015 166.99C263.115 168.77 262.285 170.55 261.485 172.27L260.895 173.53C260.585 174.18 260.315 174.8 260.055 175.41C259.875 175.84 259.685 176.27 259.495 176.68L259.025 177.74C258.735 178.38 258.455 179.02 258.195 179.65C257.895 180.39 257.595 181.13 257.295 181.85C256.805 183.02 256.345 184.15 255.935 185.23C255.225 187.02 254.625 188.62 254.095 190.05C253.575 191.46 253.145 192.71 252.795 193.73L251.735 196.96L251.755 196.98Z" fill="#0F0F0F"/>
<path d="M251.793 187.51C251.543 186.7 248.563 176.5 251.663 166.31C251.683 166.26 251.743 166.24 251.783 166.29L253.373 168.15C253.373 168.15 253.483 168.18 253.493 168.12C253.763 165.91 257.573 138.85 283.423 123.57C283.443 123.56 283.463 123.56 283.483 123.57C284.053 123.82 292.703 127.75 291.123 136.84C289.503 146.19 268.433 173.08 261.773 178.91C261.733 178.95 261.753 179.01 261.813 179.02C262.173 179.03 263.213 179.02 265.133 178.62C265.243 178.6 265.333 178.71 265.263 178.8C264.433 179.96 260.473 184.97 251.883 187.56C251.853 187.56 251.823 187.56 251.813 187.53L251.793 187.51Z" fill="#EF6600"/>
<path d="M254.394 180.36C252.174 174.74 251.774 168.28 251.714 166.6C251.714 166.52 251.604 166.52 251.584 166.59C248.624 176.69 251.554 186.71 251.794 187.51C251.794 187.54 251.834 187.55 251.864 187.54C260.504 184.94 264.454 179.9 265.264 178.77C265.304 178.71 265.234 178.65 265.174 178.69C260.144 181.63 254.894 180.51 254.444 180.41C254.424 180.41 254.404 180.39 254.404 180.37L254.394 180.36Z" fill="#FFB300"/>
<path d="M291.064 132.39C289.814 126.43 283.924 123.75 283.464 123.55C283.444 123.55 283.424 123.55 283.404 123.55C281.534 124.65 279.794 125.82 278.154 127.03C278.154 127.03 278.144 127.03 278.144 127.05C278.034 127.42 273.934 141.22 291.024 132.47C291.054 132.46 291.064 132.42 291.064 132.39Z" fill="#3FC9B1"/>
<path d="M264.413 151.12L272.153 167.08C272.153 167.08 272.233 167.13 272.263 167.09C273.833 165.12 275.453 163.03 277.043 160.89C277.053 160.87 277.063 160.85 277.053 160.83L272.243 145.19C272.243 145.19 272.203 145.14 272.173 145.14L260.943 146.65" fill="#3FC9B1"/>
<path d="M275.744 140.14L264.044 141.71C264.044 141.71 264.004 141.72 263.994 141.74C262.234 144.31 260.734 146.89 259.504 149.34L270.214 148.52C270.214 148.52 270.274 148.53 270.284 148.56L275.844 162.34C275.844 162.34 275.924 162.4 275.954 162.36C277.544 160.26 279.124 158.1 280.634 155.95C280.644 155.93 280.654 155.91 280.634 155.89L275.804 140.18C275.804 140.18 275.764 140.13 275.734 140.13L275.744 140.14Z" fill="#FFB727"/>
<path d="M249.414 195.44C249.414 195.44 249.484 195.14 249.604 194.58C249.724 194.02 249.914 193.2 250.194 192.16C250.474 191.12 250.814 189.87 251.244 188.43C251.464 187.71 251.684 186.95 251.934 186.15C252.174 185.35 252.474 184.52 252.764 183.64C253.334 181.89 254.034 180.02 254.774 178.04C255.144 177.05 255.564 176.05 255.974 175.01C256.394 173.98 256.804 172.92 257.274 171.87C258.214 169.76 259.134 167.55 260.224 165.38C260.754 164.29 261.294 163.19 261.824 162.08C262.394 160.99 262.974 159.9 263.554 158.8C264.684 156.6 265.954 154.47 267.184 152.36C267.494 151.83 267.794 151.31 268.094 150.79C268.394 150.27 268.744 149.77 269.054 149.26C269.704 148.25 270.344 147.25 270.974 146.27C272.184 144.29 273.554 142.48 274.784 140.73C275.404 139.86 275.994 139 276.594 138.19C277.224 137.4 277.824 136.63 278.404 135.89C279.574 134.42 280.614 133.06 281.614 131.9C282.624 130.75 283.504 129.76 284.234 128.93C284.954 128.11 285.544 127.47 285.934 127.03C286.324 126.59 286.534 126.36 286.534 126.36C286.534 126.36 286.344 126.61 285.994 127.07C285.634 127.53 285.124 128.22 284.454 129.08C283.784 129.94 282.974 130.99 282.044 132.18C281.564 132.77 281.134 133.45 280.634 134.14C280.144 134.83 279.624 135.56 279.084 136.31C278.544 137.06 277.984 137.85 277.394 138.67C276.844 139.5 276.274 140.36 275.684 141.25C274.524 143.03 273.244 144.87 272.064 146.86C270.864 148.84 269.574 150.85 268.404 152.97C267.804 154.02 267.194 155.08 266.584 156.15C265.854 157.38 265.254 158.67 264.554 159.91L263.524 161.79C262.844 163.17 262.164 164.54 261.484 165.91C260.394 168.07 259.404 170.23 258.434 172.31C257.934 173.35 257.514 174.4 257.064 175.4C256.624 176.41 256.174 177.4 255.764 178.37C254.974 180.32 254.184 182.15 253.534 183.87C252.854 185.58 252.264 187.16 251.744 188.56C251.224 189.96 250.804 191.19 250.454 192.21C250.114 193.23 249.854 194.03 249.674 194.57C249.504 195.12 249.414 195.41 249.414 195.41V195.44Z" fill="#603913"/>
<path d="M262.854 149.09L259.514 149.34C258.614 151.17 257.804 153.03 257.064 154.9L265.984 154.4L266.104 152.32" fill="#3FC9B1"/>
<path d="M155.375 236.15C162.495 235.38 169.555 234.2 176.525 232.57C178.305 232.15 179.535 230.01 178.965 228.26C178.365 226.4 176.575 225.37 174.655 225.82C169.415 227.05 164.115 228.03 158.775 228.75L159.705 228.62C158.255 228.81 156.815 228.99 155.365 229.14C154.415 229.24 153.595 229.46 152.895 230.17C152.285 230.78 151.835 231.77 151.865 232.64C151.945 234.37 153.415 236.35 155.365 236.14L155.375 236.15Z" fill="black"/>
<path d="M229.145 229.15C227.695 228.99 226.245 228.82 224.805 228.63L225.735 228.76C220.395 228.04 215.105 227.06 209.855 225.83C208.075 225.41 205.985 226.38 205.545 228.27C205.135 230.06 206.085 232.13 207.985 232.58C214.955 234.21 222.025 235.39 229.135 236.16C229.975 236.25 231.045 235.7 231.605 235.13C232.215 234.52 232.665 233.53 232.635 232.66C232.605 231.79 232.295 230.82 231.605 230.19C230.885 229.52 230.105 229.27 229.135 229.16L229.145 229.15Z" fill="black"/>
<path d="M113.905 218.47C111.735 218.47 109.635 217.77 107.915 216.46C105.845 214.88 104.535 212.51 104.315 209.97C103.945 205.71 103.825 199 105.315 191.22C106.095 187.17 109.485 184.14 113.755 183.7C127.065 182.31 196.945 175.78 265.445 183.65C270.005 184.17 273.565 187.75 273.915 192.17C274.535 200.04 274.105 205.9 272.635 209.59C271.235 213.11 267.745 215.41 263.755 215.44C250.885 215.54 137.325 216.47 114.785 218.44C114.485 218.47 114.195 218.48 113.895 218.48L113.905 218.47ZM115.895 194.54C115.035 199.62 114.975 204.09 115.155 207.37C139.835 205.51 240.015 204.62 262.725 204.44C263.125 202.59 263.355 199.29 263.045 194.44C197.605 187.09 131.095 192.99 115.895 194.54Z" fill="black"/>
<mask id="mask0_873_2211" style="mask-type:luminance" maskUnits="userSpaceOnUse" x="109" y="185" width="160" height="28">
<path d="M114.185 188.87C128.835 187.34 197.265 181.02 264.975 188.81C266.845 189.03 268.285 190.42 268.415 192.14C268.745 196.23 269.045 203.55 267.475 207.35C266.905 208.72 265.445 209.61 263.835 209.62C248.525 209.74 136.315 210.67 114.115 212.66C111.915 212.86 109.985 211.37 109.805 209.36C109.465 205.52 109.305 199.19 110.735 191.82C111.035 190.26 112.445 189.06 114.175 188.88L114.185 188.87Z" fill="white"/>
</mask>
<g mask="url(#mask0_873_2211)">
<path d="M213.304 177.65H168.904L180.004 195.17L191.104 212.7L202.204 195.17L213.304 177.65Z" fill="#63D3B3"/>
<path d="M257.695 177.65H213.305L224.405 195.17L235.495 212.7L246.595 195.17L257.695 177.65Z" fill="#63D3B3"/>
<path d="M168.904 177.65H124.514L135.614 195.17L146.714 212.7L157.804 195.17L168.904 177.65Z" fill="#63D3B3"/>
<path d="M124.514 177.65L113.414 195.17L102.324 212.7H124.514H146.714L135.614 195.17L124.514 177.65Z" fill="#EF6600"/>
<path d="M168.905 177.65L157.805 195.17L146.715 212.7H168.905H191.105L180.005 195.17L168.905 177.65Z" fill="#EF6600"/>
<path d="M213.304 177.65L202.204 195.17L191.104 212.7H213.304H235.494L224.404 195.17L213.304 177.65Z" fill="#EF6600"/>
<path d="M268.794 195.17L257.694 177.65L246.594 195.17L235.494 212.7H257.694H279.814V212.59L268.794 195.17Z" fill="#EF6600"/>
<path d="M128.584 200.44C128.584 202.64 126.624 204.43 124.214 204.43C121.804 204.43 119.844 202.65 119.844 200.44C119.844 198.23 121.804 196.45 124.214 196.45C126.624 196.45 128.584 198.24 128.584 200.44Z" fill="#F8C054"/>
<path d="M173.285 200.44C173.285 202.64 171.325 204.43 168.915 204.43C166.505 204.43 164.545 202.65 164.545 200.44C164.545 198.23 166.505 196.45 168.915 196.45C171.325 196.45 173.285 198.24 173.285 200.44Z" fill="#F8C054"/>
<path d="M217.974 200.44C217.974 202.64 216.014 204.43 213.604 204.43C211.194 204.43 209.234 202.65 209.234 200.44C209.234 198.23 211.194 196.45 213.604 196.45C216.014 196.45 217.974 198.24 217.974 200.44Z" fill="#F8C054"/>
<path d="M262.674 200.44C262.674 202.64 260.714 204.43 258.304 204.43C255.894 204.43 253.934 202.65 253.934 200.44C253.934 198.23 255.894 196.45 258.304 196.45C260.714 196.45 262.674 198.24 262.674 200.44Z" fill="#F8C054"/>
<path d="M156.084 184.76H137.344L142.024 192.15L146.714 199.55L151.394 192.15L156.084 184.76Z" fill="#EF6600"/>
<path d="M200.474 184.76H181.734L186.424 192.15L191.104 199.55L195.784 192.15L200.474 184.76Z" fill="#EF6600"/>
<path d="M244.865 184.76H226.125L230.815 192.15L235.495 199.55L240.175 192.15L244.865 184.76Z" fill="#EF6600"/>
<path d="M270.513 184.76H279.813V177.65H257.693L268.793 195.17L279.813 212.59V199.44L275.203 192.15L270.513 184.76Z" fill="#63D3B3"/>
<path d="M102.324 177.65V184.76H111.684L107.004 192.15L102.324 199.55V212.7L113.414 195.17L124.514 177.65H102.324Z" fill="#63D3B3"/>
<path d="M111.684 184.76H102.324V199.55L107.004 192.15L111.684 184.76Z" fill="#F96C41"/>
</g>
<path d="M167.995 252.42C168.055 254.25 169.175 255.93 170.685 256.97C172.185 258.02 173.985 258.54 175.765 258.97C186.785 261.66 198.435 261.74 209.465 259.08C212.465 258.36 215.555 257.35 217.655 255.1C219.755 252.85 220.445 249.01 218.385 246.72C217.075 245.27 214.985 244.75 213.035 244.87C211.085 244.99 209.225 245.66 207.355 246.25C197.705 249.28 187.085 250.12 177.525 246.81C177.525 246.81 167.735 244.75 167.985 252.41L167.995 252.42Z" fill="white"/>
<path d="M165.495 252.42C165.645 255.2 167.115 257.48 169.345 259.08C171.345 260.52 173.885 261.12 176.255 261.66C181.305 262.8 186.495 263.44 191.675 263.53C196.935 263.62 202.205 263.13 207.365 262.11C211.945 261.21 217.075 259.98 220.075 256.09C223.035 252.26 222.935 246.08 218.335 243.54C213.535 240.89 208.325 243.52 203.535 244.76C202.325 245.07 201.105 245.35 199.875 245.58C199.315 245.69 198.755 245.79 198.195 245.88C197.895 245.93 197.595 245.97 197.295 246.02C197.225 246.03 196.745 246.09 197.065 246.05C197.385 246.01 196.705 246.09 196.725 246.09C194.325 246.38 191.905 246.5 189.485 246.43C188.245 246.39 187.005 246.31 185.775 246.17C185.615 246.15 184.955 246.06 185.435 246.13C185.135 246.09 184.845 246.04 184.545 246C183.915 245.9 183.285 245.78 182.665 245.65C181.455 245.39 180.255 245.08 179.065 244.7C178.715 244.59 178.385 244.45 178.025 244.38C173.385 243.45 167.205 244.45 165.795 249.74C165.565 250.6 165.475 251.53 165.505 252.42C165.535 253.73 166.635 254.98 168.005 254.92C169.335 254.86 170.535 253.82 170.505 252.42C170.505 252.08 170.515 251.75 170.535 251.41C170.555 251.03 170.415 252.05 170.535 251.43C170.565 251.27 170.605 251.11 170.655 250.95C170.695 250.82 170.745 250.69 170.785 250.56C170.865 250.28 170.525 251.1 170.665 250.85C170.695 250.8 170.715 250.75 170.735 250.7C170.805 250.57 170.865 250.45 170.945 250.33C170.975 250.29 171.005 250.24 171.035 250.2C171.245 249.86 170.925 250.36 170.855 250.42C171.025 250.27 171.175 250.07 171.335 249.91C171.715 249.53 170.965 250.15 171.215 249.99C171.325 249.92 171.435 249.84 171.545 249.77C171.745 249.65 171.955 249.56 172.155 249.45C172.425 249.3 171.495 249.69 172.015 249.51C172.145 249.47 172.265 249.42 172.385 249.38C172.605 249.31 172.825 249.25 173.055 249.21C173.185 249.18 173.315 249.16 173.445 249.13C173.495 249.13 173.545 249.12 173.585 249.11C173.985 249.03 173.315 249.15 173.255 249.15C173.725 249.13 174.185 249.06 174.655 249.06C175.075 249.06 175.485 249.07 175.895 249.1C176.055 249.11 176.225 249.13 176.385 249.14C176.465 249.14 176.555 249.16 176.635 249.17C177.065 249.22 175.935 249.07 176.245 249.12C176.985 249.24 177.645 249.49 178.375 249.71C180.685 250.4 183.045 250.83 185.425 251.12C190.085 251.69 194.775 251.44 199.405 250.71C201.615 250.36 203.805 249.88 205.965 249.28C208.195 248.66 210.375 247.8 212.665 247.41C213.055 247.34 212.295 247.41 212.695 247.41C212.815 247.41 212.925 247.39 213.045 247.38C213.295 247.36 213.555 247.36 213.805 247.37C214.025 247.37 214.245 247.4 214.475 247.41C214.775 247.43 214.285 247.4 214.285 247.38C214.285 247.38 214.705 247.46 214.755 247.47C214.975 247.52 215.185 247.58 215.395 247.65C215.495 247.68 215.655 247.72 215.745 247.78C215.685 247.74 215.265 247.53 215.655 247.76C215.845 247.87 216.025 247.99 216.215 248.09C216.485 248.23 216.055 247.98 216.085 247.97C216.135 247.97 216.385 248.23 216.435 248.28C216.525 248.37 216.595 248.46 216.685 248.55C216.875 248.73 216.565 248.41 216.565 248.38C216.565 248.48 216.855 248.86 216.915 248.96C217.135 249.34 216.765 248.48 216.955 249.06C217.025 249.27 217.065 249.49 217.125 249.71C217.215 250.04 217.085 249.2 217.105 249.55C217.105 249.63 217.125 249.72 217.125 249.8C217.135 250.03 217.135 250.26 217.125 250.49C217.125 250.58 217.105 250.66 217.105 250.75C217.105 251.1 217.205 250.26 217.125 250.6C217.075 250.83 217.035 251.06 216.975 251.29C216.925 251.49 216.855 251.68 216.795 251.88C216.655 252.32 216.835 251.83 216.845 251.78C216.825 251.87 216.735 252.02 216.695 252.1C216.615 252.26 216.535 252.42 216.445 252.57C216.385 252.67 216.325 252.77 216.255 252.87C216.215 252.94 215.935 253.37 216.145 253.05C216.325 252.77 215.975 253.24 215.895 253.33C215.735 253.5 215.565 253.66 215.395 253.82C215.225 253.98 215.045 254.12 214.865 254.27C215.315 253.9 214.595 254.44 214.485 254.51C214.095 254.76 213.685 254.99 213.275 255.2C213.065 255.3 212.855 255.4 212.635 255.5C213.165 255.24 212.335 255.62 212.205 255.66C211.255 256.01 210.275 256.29 209.295 256.54C207.035 257.11 204.735 257.55 202.425 257.88C202.305 257.9 202.195 257.91 202.075 257.93C202.525 257.86 202.125 257.93 202.035 257.93C201.765 257.96 201.485 258 201.215 258.03C200.585 258.1 199.965 258.17 199.335 258.22C198.155 258.33 196.975 258.4 195.795 258.45C193.475 258.54 191.145 258.52 188.825 258.39C187.645 258.32 186.465 258.23 185.295 258.1C184.705 258.04 184.125 257.97 183.535 257.89C183.235 257.85 183.565 257.89 183.615 257.9C183.455 257.88 183.305 257.86 183.145 257.83C182.835 257.78 182.525 257.74 182.215 257.69C179.925 257.33 177.635 256.87 175.395 256.26C174.885 256.12 174.375 255.97 173.875 255.79C173.715 255.73 173.135 255.49 173.585 255.69C173.325 255.58 173.075 255.46 172.825 255.32C172.575 255.18 172.335 255.04 172.105 254.89C172.025 254.83 171.935 254.77 171.855 254.72C171.565 254.53 172.155 255.01 171.915 254.76C171.755 254.6 171.585 254.46 171.425 254.3C171.335 254.21 171.255 254.11 171.165 254.02C170.905 253.74 171.135 254.07 171.205 254.08C171.115 254.07 170.845 253.52 170.805 253.44C170.765 253.36 170.725 253.27 170.675 253.19C170.495 252.89 170.805 253.6 170.705 253.27C170.645 253.06 170.585 252.85 170.515 252.64C170.475 252.52 170.325 252.19 170.515 252.75C170.485 252.65 170.495 252.47 170.485 252.37C170.415 251.07 169.385 249.81 167.985 249.87C166.695 249.93 165.415 250.97 165.485 252.37L165.495 252.42Z" fill="black"/>
<path d="M179.536 249.53C179.516 250.89 179.416 252.24 179.236 253.59L179.326 252.93C179.206 253.77 179.066 254.61 178.886 255.44C178.746 256.1 178.786 256.77 179.136 257.37C179.436 257.89 180.036 258.38 180.626 258.52C181.266 258.67 181.986 258.63 182.556 258.27C183.086 257.93 183.566 257.41 183.706 256.78C184.206 254.41 184.496 251.98 184.536 249.55C184.556 248.24 183.366 246.99 182.036 247.05C180.706 247.11 179.556 248.15 179.536 249.55V249.53Z" fill="black"/>
<path d="M192.665 251.51C192.775 251.93 192.855 252.36 192.915 252.79L192.825 252.13C193.135 254.57 192.885 257.03 193.475 259.44C193.785 260.71 195.285 261.59 196.555 261.19C197.875 260.76 198.635 259.48 198.305 258.11C198.215 257.73 198.145 257.36 198.085 256.97L198.175 257.63C197.845 255.15 198.125 252.63 197.495 250.18C197.165 248.91 195.695 248.02 194.415 248.43C193.135 248.84 192.315 250.15 192.665 251.51Z" fill="black"/>
<path d="M204.286 249.31C205.206 251.88 206.056 254.47 206.826 257.09C207.196 258.34 208.606 259.26 209.906 258.84C211.206 258.42 212.046 257.11 211.656 255.76C210.886 253.14 210.036 250.55 209.116 247.98C208.896 247.36 208.556 246.83 207.966 246.49C207.426 246.18 206.636 246.04 206.036 246.24C204.826 246.63 203.816 248 204.286 249.32V249.31Z" fill="black"/>
<path d="M258.707 314.5C265.997 318.09 272.357 323.56 277.007 330.23C280.047 334.58 282.337 339.41 284.307 344.34C284.987 346.04 285.647 347.8 286.827 349.2C288.257 350.91 290.337 351.99 291.677 353.77C293.017 355.55 293.157 358.63 291.137 359.56C289.677 360.23 287.997 359.41 286.607 358.6C286.677 360.95 285.167 363.27 282.987 364.15C280.807 365.03 278.107 364.42 276.517 362.69C277.037 364.57 275.577 366.53 273.767 367.26C271.957 367.99 269.937 367.82 268.007 367.63C267.477 367.58 266.927 367.52 266.487 367.23C265.897 366.84 265.627 366.12 265.387 365.44C263.257 359.29 261.137 353.14 259.007 346.99" fill="#D6AF43"/>
<path d="M257.196 317.09C259.036 318 260.816 319.02 262.526 320.15C263.356 320.7 264.156 321.27 264.946 321.87C265.546 322.32 264.646 321.63 265.066 321.96C265.256 322.11 265.436 322.26 265.626 322.41C266.046 322.75 266.466 323.11 266.886 323.46C268.406 324.78 269.846 326.19 271.196 327.69C271.886 328.45 272.546 329.24 273.176 330.04C273.236 330.12 273.306 330.2 273.366 330.28C273.616 330.6 273.026 329.83 273.276 330.16C273.416 330.35 273.566 330.54 273.706 330.73C274.016 331.15 274.316 331.58 274.616 332.01C275.886 333.85 277.016 335.78 278.056 337.76C278.586 338.77 279.086 339.79 279.566 340.82C279.786 341.3 280.006 341.79 280.226 342.27C280.346 342.55 280.466 342.83 280.586 343.1C280.636 343.2 280.676 343.31 280.716 343.41C280.796 343.59 281.066 343.97 280.716 343.43C280.986 343.85 281.136 344.44 281.316 344.9C281.516 345.4 281.706 345.9 281.916 346.39C282.396 347.54 282.866 348.7 283.536 349.75C284.196 350.77 284.986 351.71 285.896 352.51C286.636 353.16 287.416 353.75 288.156 354.4C288.586 354.78 288.966 355.19 289.356 355.62C289.586 355.87 289.166 355.37 289.166 355.37C289.186 355.45 289.326 355.61 289.366 355.69C289.416 355.78 289.466 355.87 289.516 355.96C289.666 356.24 289.516 356.35 289.426 355.73C289.456 355.92 289.566 356.13 289.616 356.32C289.636 356.39 289.646 356.47 289.666 356.55C289.796 357.04 289.616 356.45 289.636 356.28C289.616 356.47 289.666 356.69 289.656 356.88C289.656 356.88 289.656 357.15 289.636 357.17C289.666 357.14 289.816 356.33 289.666 356.87C289.646 356.94 289.626 357.01 289.616 357.08C289.526 357.54 289.926 356.55 289.746 356.82C289.666 356.94 289.326 357.49 289.656 357.03C289.946 356.63 289.766 356.89 289.656 356.98C289.436 357.17 290.336 356.58 289.876 356.81C289.776 356.86 289.566 356.94 289.946 356.81C290.536 356.59 289.756 356.86 289.756 356.84C289.746 356.78 290.396 356.84 290.056 356.79C289.416 356.7 290.096 356.93 290.146 356.85C290.106 356.92 289.446 356.67 289.336 356.64C288.806 356.48 289.386 356.69 289.456 356.7C289.296 356.67 289.116 356.54 288.966 356.47C288.676 356.32 288.396 356.17 288.116 356.01C286.166 354.89 283.576 356.3 283.606 358.6C283.606 358.72 283.606 358.84 283.606 358.96C283.606 359.08 283.546 359.63 283.606 359.1C283.666 358.57 283.536 359.34 283.496 359.49C283.456 359.62 283.366 359.79 283.356 359.92C283.356 359.81 283.636 359.33 283.446 359.7C283.336 359.91 283.226 360.13 283.096 360.33C283.036 360.43 282.706 360.85 283.016 360.47C283.306 360.11 283.026 360.44 282.966 360.52C282.806 360.7 282.636 360.87 282.456 361.03C282.086 361.36 282.366 361.02 282.566 360.95C282.466 360.98 282.356 361.09 282.266 361.15C282.166 361.21 282.056 361.27 281.956 361.33C281.856 361.38 281.366 361.62 281.826 361.4C282.246 361.2 281.866 361.37 281.756 361.4C281.646 361.44 281.526 361.47 281.406 361.5C281.286 361.53 281.166 361.55 281.056 361.57C280.686 361.65 281.766 361.53 281.226 361.54C280.986 361.54 280.746 361.54 280.506 361.54C280.096 361.54 280.646 361.56 280.766 361.59C280.626 361.55 280.466 361.54 280.326 361.51C280.086 361.46 279.856 361.39 279.636 361.31C279.156 361.14 279.616 361.23 279.766 361.37C279.686 361.3 279.536 361.26 279.446 361.21C279.236 361.09 279.046 360.93 278.836 360.82C279.406 361.11 279.156 361.08 278.956 360.89C278.846 360.79 278.736 360.68 278.636 360.57C277.756 359.64 276.086 359.4 274.996 360.1C273.846 360.84 273.296 362.15 273.616 363.49C273.616 362.82 273.746 364.01 273.616 363.49C273.616 363.57 273.586 363.68 273.606 363.75C273.586 363.66 273.776 363.02 273.626 363.47C273.596 363.55 273.566 363.64 273.546 363.72C273.486 364.01 273.666 363.43 273.686 363.42C273.586 363.53 273.376 363.89 273.316 364.04C273.466 363.62 273.656 363.65 273.446 363.86C273.386 363.93 273.316 364 273.256 364.06C273.196 364.12 273.116 364.19 273.056 364.25C272.696 364.6 273.156 364.15 273.226 364.13C273.046 364.18 272.836 364.38 272.676 364.47C272.606 364.51 272.496 364.54 272.426 364.59C272.576 364.47 272.956 364.4 272.556 364.51C272.306 364.58 272.056 364.65 271.806 364.71C271.696 364.73 271.216 364.8 271.656 364.75C272.096 364.7 271.686 364.75 271.616 364.75C271.056 364.78 270.496 364.8 269.926 364.77C269.436 364.75 268.946 364.71 268.456 364.66C268.306 364.65 268.156 364.63 268.006 364.62C267.566 364.57 267.916 364.62 268.006 364.62C268.566 364.69 268.006 364.62 268.006 364.61C267.756 364.53 267.746 364.54 267.986 364.64C268.186 364.74 268.216 364.75 268.076 364.67C267.776 364.5 268.336 364.88 268.326 364.87C267.956 364.57 268.476 364.97 268.476 365.06C268.476 365.02 268.376 364.86 268.346 364.83C268.176 364.58 268.456 365.13 268.466 365.14C268.326 364.61 268.096 364.1 267.916 363.58C267.536 362.49 267.166 361.4 266.786 360.31C266.016 358.09 265.256 355.87 264.486 353.65C263.626 351.16 262.766 348.67 261.906 346.18C261.396 344.7 259.826 343.56 258.216 344.08C256.746 344.55 255.576 346.18 256.116 347.77C257.896 352.91 259.666 358.05 261.446 363.18C262.406 365.95 263.086 369.61 266.416 370.39C267.696 370.69 269.166 370.76 270.486 370.77C272.146 370.78 273.756 370.5 275.286 369.83C278.296 368.49 280.196 365.12 279.406 361.87C277.736 362.84 276.066 363.82 274.396 364.79C276.836 367.37 280.866 368.25 284.136 366.87C287.426 365.48 289.646 362.17 289.606 358.58C288.106 359.44 286.596 360.31 285.096 361.17C286.236 361.82 287.456 362.44 288.756 362.65C290.596 362.95 292.296 362.56 293.746 361.36C295.626 359.79 295.976 356.99 295.406 354.73C294.816 352.39 293.136 350.72 291.326 349.25C290.906 348.91 290.486 348.57 290.086 348.21C289.906 348.05 289.736 347.89 289.566 347.73C289.456 347.62 288.956 347.22 288.946 347.06C288.946 347.08 289.356 347.65 289.026 347.17C288.946 347.05 288.866 346.94 288.786 346.82C288.636 346.59 288.486 346.34 288.356 346.1C288.106 345.64 287.746 345.09 287.616 344.58C287.636 344.65 287.876 345.21 287.676 344.71C287.626 344.58 287.566 344.45 287.516 344.32C287.406 344.06 287.306 343.79 287.206 343.53C286.976 342.97 286.756 342.4 286.516 341.84C285.976 340.55 285.426 339.27 284.836 338C283.816 335.8 282.706 333.64 281.446 331.56C279.036 327.57 276.096 323.86 272.716 320.65C269.016 317.14 264.786 314.15 260.216 311.89C258.816 311.19 256.906 311.47 256.116 312.97C255.396 314.33 255.686 316.33 257.196 317.07V317.09Z" fill="black"/>
<path d="M199.516 389.49C198.866 389.49 198.216 389.34 197.646 389.05L185.946 383.25C185.946 383.25 185.886 383.23 185.846 383.23C185.816 383.23 185.776 383.23 185.726 383.26L178.346 388.03C177.666 388.47 176.876 388.7 176.056 388.7C175.236 388.7 174.426 388.46 173.736 388L166.516 383.23C166.516 383.23 166.426 383.2 166.396 383.2C166.366 383.2 166.326 383.2 166.276 383.23L160.186 387.21C159.496 387.66 158.706 387.9 157.876 387.9C156.766 387.9 155.726 387.48 154.936 386.71L151.116 382.99C151.116 382.99 151.016 382.93 150.966 382.93C150.916 382.93 150.876 382.93 150.826 382.98L146.736 386.67C145.966 387.37 144.966 387.75 143.916 387.75C142.866 387.75 141.906 387.38 141.136 386.7L136.336 382.47C136.336 382.47 136.236 382.42 136.196 382.42C136.156 382.42 136.106 382.42 136.066 382.46L132.246 385.56C131.496 386.16 130.556 386.5 129.596 386.5C128.806 386.5 128.036 386.28 127.366 385.87L121.976 382.52C121.976 382.52 121.886 382.49 121.866 382.49C121.846 382.49 121.796 382.49 121.756 382.52L116.636 385.56C115.976 385.95 115.236 386.16 114.486 386.16C113.206 386.16 111.966 385.55 111.166 384.54C110.386 383.54 110.116 382.26 110.416 381.03L115.616 359.83C116.076 357.96 117.746 356.66 119.676 356.66C119.806 356.66 119.936 356.66 120.066 356.68C128.926 357.5 160.516 360.18 195.306 360.18C220.906 360.18 242.356 358.72 259.066 355.85C259.306 355.81 259.556 355.79 259.786 355.79C261.876 355.79 263.656 357.33 263.936 359.38L266.866 380.81C267.026 382.01 266.686 383.17 265.896 384.07C265.096 384.99 263.936 385.52 262.716 385.52C261.946 385.52 261.186 385.3 260.526 384.9L252.916 380.25C252.916 380.25 252.846 380.22 252.806 380.22C252.776 380.22 252.696 380.22 252.646 380.3L248.346 386.19C247.556 387.27 246.296 387.91 244.956 387.91C243.856 387.91 242.816 387.49 242.026 386.72L236.866 381.72C236.866 381.72 236.756 381.66 236.716 381.66C236.666 381.66 236.626 381.67 236.586 381.7L227.426 388.6C226.706 389.15 225.806 389.45 224.896 389.45C224.196 389.45 223.496 389.27 222.876 388.94L210.916 382.43C210.916 382.43 210.846 382.4 210.816 382.4C210.786 382.4 210.736 382.4 210.696 382.44L201.996 388.71C201.276 389.23 200.426 389.5 199.536 389.5L199.516 389.49Z" fill="#7F4F08"/>
<path d="M259.796 357.79C260.876 357.79 261.816 358.56 261.966 359.65L264.896 381.08C265.086 382.45 263.966 383.52 262.726 383.52C262.346 383.52 261.946 383.42 261.576 383.19L253.966 378.54C253.606 378.32 253.206 378.22 252.816 378.22C252.136 378.22 251.466 378.53 251.036 379.12L246.736 385.01C246.306 385.6 245.636 385.91 244.956 385.91C244.406 385.91 243.846 385.71 243.416 385.29L238.256 380.29C237.836 379.88 237.276 379.67 236.716 379.67C236.246 379.67 235.776 379.82 235.386 380.11L226.226 387.01C225.836 387.3 225.366 387.45 224.896 387.45C224.536 387.45 224.166 387.36 223.836 387.18L211.876 380.67C211.546 380.49 211.176 380.4 210.816 380.4C210.356 380.4 209.906 380.54 209.526 380.82L200.826 387.09C200.446 387.37 199.986 387.51 199.536 387.51C199.196 387.51 198.866 387.43 198.546 387.28L186.846 381.48C186.536 381.33 186.196 381.25 185.856 381.25C185.436 381.25 185.016 381.37 184.656 381.6L177.276 386.37C176.906 386.61 176.496 386.72 176.076 386.72C175.656 386.72 175.226 386.6 174.856 386.35L167.636 381.58C167.266 381.34 166.846 381.21 166.416 381.21C165.986 381.21 165.576 381.33 165.206 381.57L159.116 385.55C158.746 385.79 158.326 385.91 157.906 385.91C157.346 385.91 156.786 385.7 156.366 385.29L152.556 381.57C152.126 381.16 151.576 380.95 151.016 380.95C150.456 380.95 149.956 381.14 149.536 381.52L145.446 385.21C145.026 385.59 144.496 385.78 143.966 385.78C143.436 385.78 142.926 385.6 142.506 385.23L137.706 381C137.296 380.63 136.766 380.45 136.246 380.45C135.756 380.45 135.256 380.61 134.856 380.94L131.036 384.04C130.636 384.37 130.136 384.53 129.646 384.53C129.246 384.53 128.836 384.42 128.476 384.2L123.086 380.85C122.726 380.63 122.326 380.52 121.916 380.52C121.506 380.52 121.136 380.62 120.786 380.83L115.666 383.87C115.296 384.09 114.916 384.19 114.536 384.19C113.216 384.19 112.056 382.98 112.406 381.53L117.606 360.33C117.846 359.36 118.726 358.68 119.726 358.68C119.796 358.68 119.866 358.68 119.936 358.68C127.906 359.42 160.116 362.19 195.356 362.19C217.256 362.19 240.316 361.12 259.456 357.83C259.586 357.81 259.716 357.8 259.836 357.8M259.836 353.8C259.486 353.8 259.126 353.83 258.776 353.89C242.176 356.74 220.836 358.19 195.356 358.19C160.646 358.19 129.136 355.52 120.306 354.7C120.116 354.68 119.916 354.67 119.726 354.67C116.866 354.67 114.396 356.6 113.726 359.36L108.526 380.56C108.076 382.4 108.486 384.3 109.646 385.78C110.816 387.27 112.646 388.17 114.536 388.17C115.646 388.17 116.746 387.87 117.706 387.29L121.896 384.8L126.366 387.58C127.356 388.19 128.486 388.52 129.646 388.52C131.066 388.52 132.456 388.03 133.556 387.13L136.206 384.98L139.876 388.21C141.006 389.21 142.466 389.76 143.976 389.76C145.486 389.76 146.996 389.19 148.136 388.16L150.976 385.6L153.586 388.14C154.756 389.27 156.286 389.9 157.916 389.9C159.126 389.9 160.306 389.55 161.316 388.89L166.426 385.55L172.666 389.67C173.686 390.34 174.866 390.7 176.086 390.7C177.306 390.7 178.456 390.36 179.466 389.7L185.986 385.48L196.776 390.83C197.626 391.25 198.586 391.48 199.536 391.48C200.846 391.48 202.106 391.07 203.166 390.31L210.956 384.7L221.936 390.68C222.846 391.17 223.876 391.44 224.906 391.44C226.246 391.44 227.576 391 228.646 390.19L236.586 384.21L240.646 388.15C241.806 389.28 243.346 389.9 244.966 389.9C246.946 389.9 248.816 388.95 249.976 387.36L253.296 382.81L259.506 386.6C260.486 387.2 261.606 387.52 262.746 387.52C264.546 387.52 266.256 386.74 267.436 385.39C268.596 384.06 269.126 382.3 268.886 380.54L265.956 359.11C265.546 356.08 262.906 353.79 259.826 353.79L259.836 353.8Z" fill="#0F0F0F"/>
<path d="M112.295 370.86C139.255 371.13 166.055 365.13 191.225 355.47C216.395 345.81 240.045 332.52 262.715 317.91C263.865 317.17 265.055 316.37 265.665 315.15C266.275 313.93 265.985 312.16 264.735 311.61C264.025 311.3 263.215 311.44 262.455 311.59C215.445 321.05 171.275 343.18 123.615 348.47L116.895 349.17L112.305 370.85L112.295 370.86Z" fill="#3F2E05"/>
<path d="M112.295 372.36C123.645 372.46 134.995 371.47 146.185 369.57C157.375 367.67 168.375 364.88 179.145 361.35C189.805 357.86 200.225 353.67 210.405 348.96C220.535 344.27 230.425 339.06 240.105 333.5C244.905 330.74 249.655 327.89 254.365 324.97C256.735 323.5 259.105 322.01 261.455 320.51C263.555 319.17 266.255 317.86 267.195 315.38C268.025 313.18 266.945 310.38 264.455 309.99C263.075 309.78 261.625 310.23 260.275 310.51C258.925 310.79 257.625 311.07 256.305 311.37C250.935 312.57 245.595 313.92 240.285 315.38C229.645 318.3 219.125 321.64 208.625 325.04C198.175 328.43 187.745 331.89 177.235 335.07C166.725 338.25 156.125 341.16 145.375 343.42C136.845 345.22 128.245 346.49 119.575 347.4L116.885 347.68C116.255 347.75 115.585 348.1 115.435 348.78C114.095 355.1 112.755 361.43 111.415 367.75C111.225 368.65 111.035 369.56 110.845 370.46C110.445 372.34 113.335 373.15 113.735 371.26C115.075 364.94 116.415 358.61 117.755 352.29C117.945 351.39 118.135 350.48 118.325 349.58L116.875 350.68C123.655 349.97 130.405 349.21 137.125 348.05C147.705 346.22 158.155 343.67 168.485 340.75C178.865 337.82 189.145 334.52 199.395 331.19C209.675 327.85 219.935 324.46 230.285 321.37C240.615 318.28 251.035 315.48 261.595 313.3C262.185 313.18 262.795 313.01 263.405 312.95C263.725 312.92 264.115 312.95 264.225 313.06C264.665 313.52 264.435 314.39 264.045 314.91C263.395 315.79 262.365 316.35 261.465 316.93C260.355 317.65 259.235 318.36 258.115 319.07C253.475 322.01 248.805 324.89 244.075 327.69C234.675 333.26 225.085 338.53 215.265 343.33C205.455 348.12 195.415 352.45 185.145 356.13C174.705 359.87 164.015 362.96 153.145 365.21C142.345 367.46 131.365 368.86 120.335 369.25C117.655 369.35 114.965 369.38 112.285 369.35C110.355 369.33 110.355 372.33 112.285 372.35L112.295 372.36Z" fill="black"/>
<path d="M120.826 314.5C113.536 318.09 107.176 323.56 102.526 330.23C99.4858 334.58 97.1958 339.41 95.2258 344.34C94.5458 346.04 93.8858 347.8 92.7058 349.2C91.2758 350.91 89.1958 351.99 87.8558 353.77C86.5158 355.55 86.3758 358.63 88.3958 359.56C89.8558 360.23 91.5358 359.41 92.9258 358.6C92.8558 360.95 94.3658 363.27 96.5458 364.15C98.7258 365.03 101.426 364.42 103.016 362.69C102.496 364.57 103.956 366.53 105.766 367.26C107.566 367.99 109.596 367.82 111.526 367.63C112.056 367.58 112.606 367.52 113.046 367.23C113.636 366.84 113.906 366.12 114.146 365.44C116.276 359.29 118.396 353.14 120.526 346.99" fill="#D6AF43"/>
<path d="M119.306 311.91C111.076 315.99 104.046 322.35 99.0358 330.04C96.2858 334.27 94.1858 338.87 92.3158 343.55C92.2058 343.81 92.1058 344.08 92.0058 344.34C91.9558 344.47 91.8958 344.6 91.8458 344.73C91.8158 344.8 91.6758 345.14 91.8358 344.76C91.9958 344.36 91.8158 344.79 91.7758 344.89C91.7158 345.02 91.6558 345.15 91.5958 345.28C91.4558 345.57 91.3158 345.85 91.1658 346.13C91.0258 346.38 90.8858 346.62 90.7358 346.85C90.6558 346.97 90.5758 347.08 90.4958 347.2C90.4558 347.26 90.2658 347.57 90.4758 347.23C90.6858 346.89 90.4558 347.23 90.3758 347.32C90.2858 347.42 90.1958 347.52 90.0958 347.61C89.8858 347.83 89.6658 348.04 89.4358 348.24C87.7858 349.72 85.7858 350.98 84.7858 353.04C83.5358 355.6 83.4258 358.76 85.3858 361.01C86.4258 362.2 88.0958 362.87 89.6658 362.82C91.3858 362.76 92.9558 362.05 94.4258 361.21C92.9258 360.35 91.4158 359.48 89.9158 358.62C89.8758 362.21 92.0958 365.53 95.3858 366.91C98.6658 368.29 102.686 367.41 105.126 364.83C103.456 363.86 101.786 362.88 100.116 361.91C99.3758 364.96 100.956 367.96 103.586 369.54C106.026 371 108.996 370.92 111.716 370.63C112.656 370.53 113.536 370.41 114.376 369.94C115.156 369.51 115.816 368.82 116.266 368.05C116.956 366.87 117.306 365.44 117.756 364.16C118.646 361.59 119.536 359.02 120.426 356.45C121.426 353.57 122.416 350.69 123.416 347.81C123.926 346.33 122.826 344.46 121.316 344.12C119.646 343.74 118.176 344.63 117.626 346.22C116.106 350.62 114.586 355.02 113.066 359.42C112.686 360.51 112.316 361.6 111.936 362.69C111.746 363.23 111.556 363.78 111.366 364.32C111.286 364.55 111.206 364.78 111.126 365.01C110.956 365.48 111.336 364.41 111.096 365.03C110.966 365.37 111.536 364.62 111.256 364.85C111.006 365.05 111.556 364.65 111.536 364.67C111.176 364.9 111.556 364.53 111.716 364.61C111.686 364.6 111.466 364.67 111.426 364.68C111.126 364.78 111.706 364.64 111.726 364.64C111.606 364.63 111.436 364.67 111.306 364.68C111.006 364.71 110.706 364.74 110.406 364.76C109.916 364.8 109.426 364.82 108.936 364.82C108.676 364.82 108.416 364.82 108.146 364.8C108.036 364.8 107.926 364.78 107.816 364.77C107.436 364.75 108.406 364.9 107.846 364.77C107.556 364.7 107.276 364.62 106.986 364.55C106.896 364.53 106.566 364.37 106.946 364.55C107.386 364.76 106.836 364.48 106.786 364.46C106.706 364.42 106.626 364.37 106.546 364.32C106.276 364.15 106.296 363.97 106.626 364.41C106.506 364.25 106.296 364.12 106.156 363.96C106.076 363.88 105.806 363.55 106.096 363.91C106.386 364.27 106.126 363.93 106.066 363.84C106.006 363.74 105.956 363.62 105.886 363.52C105.706 363.23 106.046 364.07 105.986 363.74C105.966 363.63 105.926 363.51 105.886 363.4C105.766 363.1 105.896 364 105.916 363.68C105.916 363.6 105.916 363.5 105.916 363.42C105.886 362.82 105.766 364.11 105.916 363.51C106.216 362.26 105.726 360.75 104.536 360.12C103.346 359.49 101.836 359.6 100.896 360.59C100.816 360.68 100.726 360.76 100.646 360.85C100.566 360.93 100.146 361.26 100.536 360.97C100.906 360.69 100.556 360.95 100.476 361C100.376 361.07 100.276 361.13 100.166 361.19C100.056 361.25 99.8558 361.32 99.7658 361.4C99.8458 361.32 100.376 361.17 99.9858 361.31C99.7558 361.39 99.5258 361.46 99.2958 361.52C99.1458 361.56 98.9958 361.58 98.8558 361.61C98.4858 361.69 99.4858 361.58 99.1158 361.57C98.8758 361.57 98.6358 361.59 98.3958 361.58C97.8958 361.56 98.3458 361.56 98.5658 361.63C98.4558 361.6 98.3258 361.59 98.2158 361.56C98.1058 361.53 97.9858 361.5 97.8658 361.47C97.7458 361.44 97.2658 361.23 97.7158 361.44C98.1658 361.65 97.4658 361.31 97.3458 361.23C97.2458 361.17 97.1458 361.1 97.0458 361.04C96.7358 360.86 97.5358 361.48 97.1558 361.13C96.9758 360.97 96.8058 360.81 96.6358 360.63C96.5558 360.54 96.4858 360.44 96.3958 360.36C96.8858 360.82 96.6358 360.67 96.4958 360.46C96.3658 360.26 96.2458 360.05 96.1358 359.83C95.9058 359.38 96.1758 359.76 96.1858 359.97C96.1858 359.86 96.1058 359.73 96.0658 359.63C95.9958 359.4 95.9758 359.15 95.8958 358.93C96.1158 359.56 95.9458 359.4 95.9358 359.1C95.9358 358.95 95.9358 358.8 95.9358 358.65C95.9658 356.35 93.3758 354.94 91.4258 356.06C91.2058 356.18 90.9958 356.31 90.7758 356.42C90.6658 356.48 90.1658 356.64 90.0958 356.75C90.2258 356.52 90.5858 356.59 90.2158 356.69C90.0758 356.73 89.9458 356.78 89.8158 356.81C89.7158 356.84 89.6158 356.85 89.5158 356.88C89.1558 356.98 90.1558 356.86 89.6058 356.85C89.0558 356.84 90.2758 356.96 89.5158 356.82C89.1958 356.76 89.7958 356.91 89.8158 356.95C89.8158 356.95 89.6058 356.81 89.5758 356.8C89.6058 356.8 90.1558 357.31 89.8658 357C89.7858 356.91 89.6458 356.72 89.9158 357.1C90.3058 357.64 89.7658 356.91 89.7958 356.82C89.8358 356.71 89.9658 357.54 89.9758 357.21C89.9758 357.15 89.9358 357.06 89.9158 357.01C89.9158 357.01 89.8358 356.75 89.8558 356.73C89.8858 356.69 89.9058 357.59 89.9158 357.09C89.9158 356.92 89.9158 356.74 89.9158 356.57C89.9158 355.94 89.7558 357.24 89.9158 356.61C89.9558 356.43 89.9958 356.26 90.0558 356.09C90.0858 356.01 90.1458 355.88 90.1558 355.8C90.1558 355.79 89.8558 356.41 90.0058 356.16C90.0958 356.01 90.1658 355.84 90.2558 355.69C90.2758 355.65 90.4058 355.5 90.4158 355.44C90.3658 355.66 89.9958 355.95 90.3558 355.53C91.6558 354.01 93.4458 353.01 94.7558 351.51C96.4058 349.62 97.2958 347.37 98.2158 345.06C98.4158 344.56 98.5758 343.94 98.8658 343.48C98.8658 343.5 98.6458 343.99 98.7858 343.67C98.8258 343.57 98.8758 343.46 98.9158 343.36C99.0458 343.05 99.1858 342.73 99.3258 342.42C99.7658 341.41 100.236 340.42 100.716 339.43C101.716 337.39 102.816 335.39 104.036 333.48C104.606 332.59 105.206 331.71 105.826 330.86C105.966 330.67 106.116 330.48 106.256 330.28C106.566 329.86 106.206 330.34 106.156 330.4C106.236 330.29 106.326 330.18 106.406 330.08C106.726 329.68 107.046 329.28 107.376 328.89C108.676 327.35 110.076 325.89 111.556 324.52C112.406 323.73 113.286 322.97 114.196 322.25C114.356 322.12 115.066 321.65 114.396 322.09C114.626 321.94 114.836 321.76 115.056 321.6C115.526 321.25 115.996 320.92 116.476 320.59C118.366 319.3 120.346 318.14 122.396 317.12C123.806 316.42 124.306 314.31 123.476 313.02C122.546 311.58 120.876 311.2 119.376 311.94L119.306 311.91Z" fill="black"/>
</g>
<defs>
<clipPath id="clip0_873_2211">
<rect width="380.54" height="573" fill="white" transform="translate(0.65625)"/>
</clipPath>
</defs>
</svg>
