<svg width="381" height="573" viewBox="0 0 381 573" fill="none" xmlns="http://www.w3.org/2000/svg">
<g clip-path="url(#clip0_873_640)">
<path d="M358.68 0H22.6802C10.3808 0 0.410156 9.97062 0.410156 22.27V550.73C0.410156 563.029 10.3808 573 22.6802 573H358.68C370.98 573 380.95 563.029 380.95 550.73V22.27C380.95 9.97062 370.98 0 358.68 0Z" fill="#FFBA35"/>
<path d="M319.641 95.66C338.418 95.66 353.641 80.4377 353.641 61.66C353.641 42.8823 338.418 27.66 319.641 27.66C300.863 27.66 285.641 42.8823 285.641 61.66C285.641 80.4377 300.863 95.66 319.641 95.66Z" fill="white"/>
<path d="M321.07 67.6501C320.54 68.0123 320.025 68.4302 319.523 68.9038C319.022 69.3496 318.59 69.7953 318.228 70.2411C317.81 70.6868 317.462 71.1187 317.183 71.5366C316.905 71.9266 316.724 72.2749 316.64 72.5813H332.478V78.5155H307.822V74.0022C307.85 73.445 307.948 72.846 308.115 72.2052C308.282 71.648 308.505 71.0351 308.783 70.3665C309.09 69.6978 309.536 68.9735 310.121 68.1934C310.344 67.8869 310.622 67.4969 310.957 67.0233C311.319 66.5496 311.848 65.9785 312.545 65.3099C313.185 64.6412 314.049 63.8611 315.136 62.9696C316.222 62.0502 317.657 60.9916 319.44 59.7936C319.523 59.7379 319.621 59.6682 319.732 59.5846C319.872 59.5011 319.969 59.4453 320.025 59.4175H319.983C320.763 58.8881 321.515 58.3309 322.24 57.7459C322.964 57.133 323.326 56.3529 323.326 55.4056C323.326 53.7898 322.713 52.7032 321.488 52.146C320.29 51.5888 318.799 51.3102 317.016 51.3102L313.297 51.4774C312.656 51.4774 312.127 51.3938 311.709 51.2266C311.291 51.0316 310.957 50.7948 310.706 50.5162C310.427 50.2376 310.218 49.9451 310.079 49.6386C309.94 49.3322 309.842 49.0814 309.786 48.8864L308.825 45.1671L319.607 44.8746C321.446 44.8746 323.131 45.0556 324.664 45.4178C326.224 45.7521 327.575 46.3233 328.717 47.1312C329.832 47.9392 330.709 48.9839 331.35 50.2655C332.019 51.547 332.353 53.1629 332.353 55.1131C332.353 56.5618 331.949 57.913 331.141 59.1667C330.333 60.4204 329.344 61.507 328.174 62.4264C327.032 63.3179 325.876 64.1815 324.705 65.0173C323.563 65.8531 322.351 66.7307 321.07 67.6501Z" fill="#FFBA35"/>
<path d="M79.8334 498.354C78.4959 499.269 77.1936 500.325 75.9265 501.522C74.6594 502.648 73.5684 503.775 72.6532 504.901C71.5973 506.027 70.7174 507.118 70.0135 508.174C69.3096 509.16 68.852 510.04 68.6408 510.814H108.659V525.808H46.3613V514.404C46.4317 512.996 46.6781 511.483 47.1005 509.864C47.5228 508.456 48.086 506.907 48.7899 505.218C49.5642 503.528 50.6905 501.698 52.1688 499.727C52.7319 498.953 53.4359 497.967 54.2806 496.77C55.1957 495.574 56.5332 494.131 58.293 492.441C59.912 490.752 62.0942 488.781 64.8396 486.528C67.5849 484.205 71.2102 481.53 75.7153 478.503C75.9265 478.363 76.1729 478.187 76.4545 477.975C76.8064 477.764 77.0528 477.623 77.1936 477.553H77.088C79.059 476.216 80.9597 474.808 82.7899 473.329C84.6201 471.781 85.5352 469.81 85.5352 467.416C85.5352 463.334 83.9866 460.588 80.8893 459.18C77.8623 457.773 74.0963 457.069 69.5911 457.069L60.1936 457.491C58.5746 457.491 57.2371 457.28 56.1812 456.857C55.1253 456.365 54.2806 455.766 53.647 455.062C52.9431 454.358 52.4152 453.619 52.0632 452.845C51.7112 452.071 51.4648 451.437 51.3241 450.944L48.8955 441.547L76.1377 440.808C80.7837 440.808 85.0425 441.265 88.9141 442.18C92.8561 443.025 96.2702 444.468 99.1563 446.51C101.972 448.551 104.189 451.191 105.808 454.429C107.498 457.667 108.343 461.75 108.343 466.677C108.343 470.338 107.322 473.752 105.281 476.92C103.239 480.087 100.74 482.833 97.7837 485.156C94.8975 487.408 91.9762 489.59 89.0197 491.702C86.1336 493.814 83.0715 496.031 79.8334 498.354Z" fill="white"/>
<path d="M137.609 309.23H113.809V354.12H137.609V309.23Z" fill="#98CA51"/>
<path d="M266.618 312.52H242.818V354.86H266.618V312.52Z" fill="#98CA51"/>
<path d="M263.309 362.22L119.959 348.74V303.66H264.829L263.309 362.22Z" fill="#98CA51"/>
<path d="M265.77 310.23C268.63 308.29 271.39 306.2 274.22 304.21C275.98 302.97 277.72 301.72 279.37 300.34C283.08 297.24 286.42 293.7 289.16 289.74C296.26 279.5 298.39 267.15 296.2 255.06C295.69 252.24 294.97 249.46 294.09 246.74C294.09 246.74 290.61 229.33 263.74 207.05C264.74 203.82 265.28 200.41 265.28 196.87C265.28 177.41 249.07 161.64 229.07 161.64C211.96 161.64 197.64 173.19 193.85 188.7C193.24 188.58 190.25 188.6 189.06 188.62C187.86 188.61 184.87 188.58 184.27 188.7C180.48 173.18 166.16 161.64 149.05 161.64C129.05 161.64 112.84 177.41 112.84 196.87C112.84 200.41 113.38 203.83 114.38 207.05C87.5 229.32 84.03 246.74 84.03 246.74C83.15 249.47 82.43 252.25 81.92 255.06C79.73 267.15 81.86 279.5 88.96 289.74C91.7 293.69 95.04 297.23 98.75 300.34C102.29 303.28 106.15 305.86 110.2 308.1C111.72 308.94 113.77 309.93 114.37 310.49" fill="#98CA51"/>
<path d="M114.369 313.99C113.539 313.99 112.709 313.7 112.039 313.11C111.699 312.86 110.569 312.27 109.889 311.9C109.419 311.65 108.939 311.4 108.509 311.16C104.149 308.75 100.119 306.02 96.5193 303.03C92.4093 299.59 88.8993 295.79 86.0893 291.73C78.7493 281.14 76.0493 267.89 78.4793 254.43C78.9893 251.62 79.7193 248.72 80.6493 245.81C81.1693 243.56 85.7493 226.82 110.409 205.81C109.699 202.88 109.339 199.88 109.339 196.86C109.339 175.51 127.149 158.13 149.049 158.13C166.529 158.13 181.689 169.08 186.879 185.1C187.489 185.1 188.219 185.1 189.099 185.11C189.939 185.11 190.639 185.11 191.239 185.1C196.439 169.09 211.599 158.13 229.069 158.13C250.959 158.13 268.779 175.5 268.779 196.86C268.779 199.88 268.419 202.88 267.709 205.81C292.369 226.83 296.949 243.57 297.469 245.81C298.399 248.72 299.129 251.62 299.639 254.43C302.079 267.89 299.379 281.14 292.029 291.73C289.219 295.79 285.709 299.59 281.609 303.02C279.949 304.41 278.259 305.64 276.229 307.07C275.109 307.86 273.999 308.66 272.899 309.46C271.229 310.67 269.499 311.93 267.739 313.12C266.139 314.2 263.959 313.78 262.879 312.18C261.799 310.58 262.219 308.4 263.819 307.32C265.489 306.19 267.169 304.97 268.799 303.79C269.939 302.97 271.069 302.14 272.219 301.34C274.109 300.01 275.669 298.88 277.139 297.64C280.759 294.61 283.839 291.28 286.299 287.74C292.579 278.68 294.879 267.29 292.769 255.67C292.309 253.11 291.639 250.46 290.779 247.79L290.679 247.4C290.649 247.26 286.889 230.74 261.529 209.72L259.729 208.23L260.419 205.99C261.339 203.02 261.809 199.95 261.809 196.84C261.809 179.34 247.139 165.11 229.099 165.11C213.869 165.11 200.789 175.14 197.279 189.5L196.489 192.75L193.299 192.12C192.929 192.09 191.569 192.05 189.129 192.09C186.609 192.06 185.249 192.09 184.879 192.12L181.689 192.75L180.899 189.5C177.399 175.14 164.309 165.11 149.079 165.11C131.049 165.11 116.369 179.34 116.369 196.84C116.369 199.94 116.839 203.02 117.759 205.99L118.449 208.23L116.649 209.72C91.2893 230.74 87.5293 247.25 87.4893 247.42L87.3893 247.79C86.5293 250.46 85.8593 253.11 85.3993 255.66C83.2993 267.28 85.5893 278.67 91.8693 287.73C94.3293 291.27 97.4093 294.61 101.029 297.64C104.279 300.34 107.949 302.83 111.919 305.02C112.319 305.24 112.749 305.47 113.189 305.7C114.939 306.63 116.049 307.23 116.789 307.93C118.199 309.25 118.269 311.47 116.939 312.88C116.249 313.61 115.319 313.98 114.389 313.98L114.369 313.99ZM111.969 313.04C111.969 313.04 111.989 313.06 112.009 313.08C111.999 313.07 111.979 313.06 111.969 313.04ZM193.179 192.13C193.179 192.13 193.179 192.13 193.189 192.13H193.179ZM184.939 192.13H184.929C184.929 192.13 184.929 192.13 184.939 192.13Z" fill="black"/>
<path d="M116.18 344.74C114.7 364.46 116.75 384.42 116.75 384.42L110.83 391.01C107.57 394.64 109.71 400.44 114.54 401.08C138.98 404.28 190.08 393.46 190.08 393.46C190.08 393.46 242.96 404.66 266.86 400.9C271.15 400.23 272.96 395.05 270.07 391.83L263.42 384.42C263.42 384.42 263.82 369.01 263.53 355.48V346.78" fill="#98CA51"/>
<g style="mix-blend-mode:multiply" opacity="0.6">
<path d="M209.919 190.11C209.409 184.98 206.039 180.16 202.189 176.89C196.889 172.4 191.349 174.31 186.249 178.09C182.539 180.84 174.489 186.32 177.519 191.9C180.039 196.55 183.709 200.19 187.579 203.71C190.359 206.24 193.279 208.93 197.309 207.61C202.979 205.75 208.679 199.6 209.779 193.78C210.009 192.55 210.049 191.32 209.929 190.1L209.919 190.11Z" fill="#B2B6B5"/>
</g>
<path d="M206.529 186.55C206.019 181.42 202.649 176.6 198.799 173.33C193.499 168.84 187.959 170.75 182.859 174.53C179.139 177.28 171.099 182.76 174.129 188.35C176.649 193 180.319 196.64 184.189 200.16C186.969 202.69 189.889 205.38 193.919 204.06C199.589 202.2 205.289 196.05 206.379 190.23C206.609 189 206.649 187.77 206.529 186.55Z" fill="#908882"/>
<path d="M191.821 204.7C188.741 204.7 186.351 202.52 184.041 200.42L183.991 200.37C180.481 197.18 176.521 193.37 173.871 188.48C170.881 182.97 178.161 177.62 182.071 174.75L182.691 174.3C186.201 171.7 189.311 170.44 192.201 170.44C194.611 170.44 196.891 171.34 198.991 173.12C203.431 176.89 206.361 181.9 206.821 186.53C206.951 187.81 206.901 189.07 206.671 190.29C205.581 196.11 199.901 202.42 194.011 204.34C193.281 204.58 192.541 204.7 191.831 204.7H191.821ZM192.191 171.02C189.421 171.02 186.421 172.25 183.021 174.77L182.401 175.22C178.631 177.99 171.621 183.14 174.371 188.21C176.971 193.02 180.901 196.79 184.371 199.95L184.421 200C186.651 202.03 188.951 204.13 191.811 204.13C192.461 204.13 193.141 204.02 193.811 203.8C199.521 201.93 205.021 195.83 206.081 190.19C206.301 189.03 206.351 187.82 206.231 186.59C205.781 182.1 202.931 177.23 198.601 173.56C196.611 171.87 194.461 171.02 192.191 171.02Z" fill="#626262"/>
<path d="M191.82 205.7C188.35 205.7 185.7 203.29 183.37 201.17C179.75 197.87 175.71 193.99 172.99 188.97C169.59 182.69 177.32 177.01 181.47 173.96L182.08 173.51C185.76 170.78 189.07 169.45 192.19 169.45C194.84 169.45 197.34 170.43 199.62 172.36C204.26 176.29 207.32 181.55 207.8 186.44C207.94 187.81 207.88 189.17 207.63 190.48C206.48 196.62 200.5 203.27 194.3 205.3C193.46 205.57 192.63 205.71 191.81 205.71L191.82 205.7ZM192.19 172.02C189.64 172.02 186.84 173.18 183.62 175.57L183 176.03C179.48 178.62 172.93 183.44 175.26 187.74C177.79 192.41 181.64 196.11 185.05 199.21C187.19 201.16 189.35 203.12 191.82 203.12C192.37 203.12 192.94 203.03 193.51 202.84C198.91 201.08 204.11 195.31 205.11 190C205.31 188.93 205.36 187.82 205.24 186.69C204.82 182.45 202.1 177.83 197.96 174.33C196.16 172.8 194.22 172.03 192.19 172.03V172.02Z" fill="#0F0F0F"/>
<g style="mix-blend-mode:multiply" opacity="0.4">
<path d="M206.529 186.55C206.019 181.42 202.649 176.6 198.799 173.33C193.499 168.84 187.959 170.75 182.859 174.53C179.139 177.28 171.099 182.76 174.129 188.35C176.649 193 180.319 196.64 184.189 200.16C186.969 202.69 189.889 205.38 193.919 204.06C199.589 202.2 205.289 196.05 206.379 190.23C206.609 189 206.649 187.77 206.529 186.55ZM194.899 191.02C194.709 193.54 194.439 199.15 191.109 199.71C188.609 200.13 185.809 197.45 184.159 195.93C181.469 193.47 178.489 191.06 176.509 187.96C175.679 186.65 175.039 185.41 175.529 183.86C175.939 182.56 177.209 181.51 178.199 180.65C180.079 179.03 181.979 177.4 184.019 175.99C185.969 174.18 188.219 172.3 190.909 172.48C193.509 172.65 194.049 175.95 194.369 177.98C195.039 182.25 195.229 186.72 194.899 191.03V191.02Z" fill="#908882"/>
</g>
<g style="mix-blend-mode:multiply" opacity="0.4">
<path d="M175.59 186.2C175.39 185.62 175.3 185.03 175.4 184.38C174.81 184.2 174.23 184.06 173.76 184.01C173.44 184.99 173.37 185.99 173.61 187C174.27 186.73 174.93 186.46 175.59 186.2Z" fill="#908882"/>
</g>
<g style="mix-blend-mode:multiply" opacity="0.4">
<path d="M191.74 199.53C191.54 199.61 191.33 199.68 191.11 199.71C190.86 199.75 190.61 199.76 190.35 199.74C190.47 201.29 190.66 202.83 190.98 204.34C191.89 204.47 192.87 204.4 193.91 204.06C194.01 204.03 194.11 203.98 194.21 203.95C193.31 202.52 192.46 201.05 191.74 199.53Z" fill="#908882"/>
</g>
<g style="mix-blend-mode:multiply" opacity="0.4">
<path d="M194.881 182.49C195.101 185.33 195.111 188.21 194.891 191.02C194.781 192.39 194.651 194.69 194.021 196.59C195.841 195.67 197.891 195.05 199.611 194.23C201.941 193.12 204.121 191.75 206.331 190.41C206.341 190.35 206.361 190.29 206.371 190.24C206.601 189.01 206.641 187.78 206.521 186.56C206.011 181.43 202.641 176.61 198.791 173.34C197.041 171.85 195.261 171.07 193.471 170.82C194.121 174.34 195.011 177.75 194.911 181.42C194.911 181.78 194.881 182.14 194.871 182.49H194.881Z" fill="#908882"/>
</g>
<g style="mix-blend-mode:screen" opacity="0.4">
<path d="M193.2 173.97C193.91 175.15 194.18 176.77 194.37 177.97C195.04 182.24 195.23 186.71 194.9 191.02C194.71 193.54 194.44 199.15 191.11 199.71C191.02 199.73 190.93 199.73 190.84 199.73C191.83 199.95 192.82 199.89 193.69 199.32C196.48 197.52 196.65 193.37 196.79 190.41C196.95 186.89 197.12 183.37 196.46 179.87C195.99 177.39 195.39 174.99 193.2 173.96V173.97Z" fill="white"/>
</g>
<g style="mix-blend-mode:multiply" opacity="0.4">
<path d="M181.86 180.72C181.63 180.54 181.38 180.59 181.16 180.72C180.9 180.8 180.69 181.03 180.56 181.28C180.37 181.67 180.22 182.4 180.72 182.61C180.97 182.71 181.37 182.5 181.54 182.33C181.81 182.05 182.01 181.77 182.09 181.38C182.13 181.17 182.04 180.85 181.87 180.71L181.86 180.72Z" fill="#908882"/>
</g>
<g style="mix-blend-mode:multiply" opacity="0.4">
<path d="M183.1 183.29C183.1 183.29 183.04 183.25 183.02 183.23C182.68 182.99 182.05 183.68 182.28 184.01C182.3 184.04 182.32 184.07 182.34 184.1C182.68 184.58 183.51 183.58 183.11 183.3L183.1 183.29Z" fill="#908882"/>
</g>
<g style="mix-blend-mode:multiply" opacity="0.4">
<path d="M186.258 188.76C186.258 188.76 186.218 188.72 186.178 188.7C186.098 188.64 185.938 188.81 185.988 188.89C185.958 188.94 185.958 188.99 186.018 189C186.048 189 186.078 189 186.118 189C186.208 189 186.338 188.83 186.258 188.76Z" fill="#908882"/>
</g>
<g style="mix-blend-mode:multiply" opacity="0.4">
<path d="M200.869 190.98C200.869 190.98 200.819 190.98 200.789 190.99C200.779 190.99 200.759 191 200.749 191.01C200.739 191.01 200.729 191.02 200.709 191.04C200.709 191.04 200.709 191.04 200.699 191.04C200.679 191.05 200.669 191.08 200.649 191.1C200.649 191.1 200.649 191.12 200.639 191.13C200.639 191.15 200.619 191.17 200.619 191.19C200.619 191.19 200.619 191.2 200.619 191.21C200.619 191.24 200.619 191.27 200.669 191.29H200.689C200.689 191.29 200.749 191.29 200.779 191.26C200.909 191.24 201.049 190.97 200.869 190.97V190.98Z" fill="#908882"/>
</g>
<g style="mix-blend-mode:multiply" opacity="0.4">
<path d="M201.859 184.81C201.879 184.63 201.849 184.46 201.759 184.34C201.709 184.28 201.659 184.27 201.579 184.29C201.489 184.32 201.419 184.37 201.349 184.43C201.359 184.35 201.279 184.31 201.189 184.4C201.039 184.55 200.979 184.8 200.979 185C200.979 185.19 201.039 185.54 201.299 185.53C201.579 185.52 201.769 185.25 201.829 184.95C201.849 184.9 201.859 184.85 201.849 184.81H201.859Z" fill="#908882"/>
</g>
<g style="mix-blend-mode:multiply" opacity="0.4">
<path d="M203.009 188.75C202.949 188.59 202.749 188.81 202.709 188.89C202.489 189.12 202.659 189.39 202.899 189.12C202.999 189.01 203.069 188.89 203.009 188.74V188.75Z" fill="#908882"/>
</g>
<g style="mix-blend-mode:multiply" opacity="0.4">
<path d="M202.32 194.21C202.17 194.17 202.03 194.21 201.9 194.33C201.63 194.31 201.48 194.57 201.4 194.78C201.31 195.01 201.24 195.36 201.45 195.53C201.7 195.75 202.07 195.47 202.24 195.28C202.29 195.23 202.3 195.21 202.29 195.22C202.33 195.18 202.36 195.14 202.39 195.09C202.46 194.98 202.49 194.86 202.52 194.73C202.57 194.54 202.53 194.28 202.32 194.21Z" fill="#908882"/>
</g>
<g style="mix-blend-mode:multiply" opacity="0.4">
<path d="M195.83 200.55C195.83 200.55 195.79 200.57 195.76 200.58C195.7 200.6 195.53 200.78 195.64 200.84C195.65 200.84 195.67 200.86 195.68 200.86C195.91 200.99 196.05 200.46 195.82 200.55H195.83Z" fill="#908882"/>
</g>
<g style="mix-blend-mode:multiply" opacity="0.4">
<path d="M186.5 200.01C186.48 199.86 186.32 199.91 186.22 200.03C186.22 200.03 186.2 200.01 186.19 200.01C186.08 199.94 185.93 200.14 185.97 200.24C186.06 200.47 186.19 200.75 186.47 200.58C186.57 200.52 186.65 200.4 186.66 200.29C186.68 200.14 186.51 200.13 186.5 200.02V200.01Z" fill="#908882"/>
</g>
<g style="mix-blend-mode:multiply" opacity="0.4">
<path d="M178.119 190.98C178.119 190.98 178.119 190.94 178.089 190.92C178.019 190.76 177.889 190.64 177.729 190.6C177.549 190.56 177.369 190.8 177.379 190.97C177.379 191.06 177.419 191.13 177.459 191.19C177.459 191.44 177.609 191.7 177.849 191.76C177.959 191.78 178.059 191.69 178.109 191.6C178.199 191.43 178.199 191.19 178.119 190.98Z" fill="#908882"/>
</g>
<g style="mix-blend-mode:multiply" opacity="0.4">
<path d="M184.92 193.16C184.92 193.16 184.89 193.2 184.88 193.22C184.84 193.22 184.79 193.22 184.75 193.22C184.49 193.3 184.43 193.6 184.46 193.84C184.5 194.13 184.75 194.38 185.02 194.47C185.34 194.58 185.65 194.28 185.84 194.06C186.36 193.48 185.48 192.5 184.91 193.15L184.92 193.16Z" fill="#908882"/>
</g>
<g style="mix-blend-mode:multiply" opacity="0.4">
<path d="M192.198 177.82C192.008 177.82 191.868 177.93 191.768 178.08C191.748 178.08 191.728 178.08 191.718 178.1C191.438 178.23 191.278 178.74 191.508 178.98C192.338 179.82 192.818 177.83 192.198 177.83V177.82Z" fill="#908882"/>
</g>
<g style="mix-blend-mode:multiply" opacity="0.4">
<path d="M182.309 175.65C182.229 175.69 182.159 175.74 182.099 175.79C181.929 175.83 181.789 176.04 181.739 176.19C181.729 176.23 181.719 176.3 181.759 176.33C182.009 176.53 182.539 175.99 182.479 175.73C182.459 175.65 182.389 175.61 182.309 175.65Z" fill="#908882"/>
</g>
<g style="mix-blend-mode:multiply" opacity="0.4">
<path d="M178.049 185.94C178.049 185.94 177.929 185.92 177.879 185.94C177.869 185.92 177.859 185.9 177.849 185.88C177.829 185.85 177.799 185.83 177.759 185.84C177.429 185.91 177.419 186.32 177.609 186.53C177.809 186.75 178.279 186.17 178.039 185.94H178.049Z" fill="#908882"/>
</g>
<g style="mix-blend-mode:multiply" opacity="0.4">
<path d="M198.68 180.39C198.63 180.33 198.56 180.36 198.5 180.41C198.49 180.41 198.47 180.41 198.45 180.41C198.22 180.53 198.1 181.05 198.37 181.18C198.53 181.25 198.66 181.1 198.74 180.97C198.86 180.78 198.81 180.54 198.67 180.37L198.68 180.39Z" fill="#908882"/>
</g>
<g style="mix-blend-mode:multiply" opacity="0.4">
<path d="M199.84 178C199.84 178 199.8 177.97 199.78 177.95C199.72 177.83 199.5 178.02 199.53 178.13C199.55 178.22 199.56 178.24 199.65 178.27C199.76 178.31 199.96 178.06 199.84 177.99V178Z" fill="#908882"/>
</g>
<g style="mix-blend-mode:multiply" opacity="0.4">
<path d="M195.32 172.77C195.32 172.77 195.32 172.71 195.29 172.69C195.25 172.67 195.23 172.63 195.22 172.59C195.22 172.59 195.209 172.57 195.199 172.57C195.129 172.49 195.03 172.61 194.98 172.71C194.98 172.68 194.97 172.65 194.98 172.63C195 172.58 194.93 172.6 194.92 172.63C194.86 172.76 195.05 173.25 195.23 173.19C195.41 173.13 195.39 172.94 195.33 172.78L195.32 172.77Z" fill="#908882"/>
</g>
<g style="mix-blend-mode:multiply" opacity="0.4">
<path d="M204.32 183.12C204.32 183.12 204.3 183.1 204.29 183.09C204.35 182.92 204.17 182.9 204.06 182.99C203.99 183.05 203.86 183.32 204.06 183.31C204.1 183.31 204.14 183.32 204.17 183.34C204.26 183.37 204.38 183.2 204.32 183.13V183.12Z" fill="#908882"/>
</g>
<g style="mix-blend-mode:multiply" opacity="0.4">
<path d="M198.28 190.63C198.25 190.69 198.22 190.75 198.19 190.81C198.16 190.85 198.11 190.91 198.14 190.96C198.14 190.96 198.14 190.96 198.14 190.97C198.16 191.01 198.22 191.01 198.26 190.98C198.39 190.88 198.47 190.81 198.52 190.64C198.59 190.43 198.34 190.49 198.28 190.62V190.63Z" fill="#908882"/>
</g>
<g style="mix-blend-mode:multiply" opacity="0.4">
<path d="M197.369 197.38C197.369 197.38 197.369 197.33 197.349 197.32C197.049 197.11 196.849 197.86 197.259 197.64C197.319 197.61 197.419 197.46 197.369 197.38Z" fill="#908882"/>
</g>
<path d="M231.71 396.13C239.5 387.72 244.24 376.74 244.24 364.71C244.24 338.29 221.48 316.88 193.41 316.88C165.34 316.88 142.58 338.3 142.58 364.71C142.58 376.49 147.12 387.28 154.63 395.61C173.81 393.26 190.96 389.75 190.96 389.75C190.96 389.75 210.84 393.82 231.73 396.13H231.71Z" fill="white"/>
<path d="M175.491 243.24C175.171 244.04 175.341 244.99 175.411 245.87C175.541 247.69 175.691 249.52 175.871 251.34C176.391 256.74 176.921 262.32 178.091 267.62C179.021 271.85 180.931 276.19 184.351 279C188.271 282.21 193.821 282.7 198.221 280.16C203.071 277.36 206.091 271.71 207.911 266.6C210.771 258.54 211.281 249.87 211.531 241.4C211.611 238.65 208.081 238.82 206.171 238.78C202.601 238.72 199.031 237.9 195.841 236.28C194.221 235.45 191.731 233.32 189.841 234.34C189.181 234.7 188.631 235.24 188.071 235.75C185.431 238.16 182.271 240.01 178.871 241.13C177.881 241.46 176.691 241.75 175.941 242.53C175.731 242.74 175.591 242.98 175.501 243.23L175.491 243.24Z" fill="#FF743E"/>
<path d="M173.08 242.58C172.61 243.96 172.87 245.45 172.98 246.87C173.09 248.28 173.21 249.69 173.34 251.1C173.6 253.79 173.86 256.48 174.19 259.17C174.83 264.38 175.53 269.71 177.82 274.5C179.93 278.9 183.65 282.61 188.48 283.83C190.88 284.44 193.43 284.44 195.84 283.83C198.25 283.22 200.39 281.93 202.27 280.32C205.78 277.31 208.05 273.06 209.74 268.82C211.68 263.95 212.67 258.78 213.27 253.59C213.57 250.97 213.75 248.33 213.87 245.7C213.93 244.39 213.98 243.07 214.02 241.76C214.06 240.45 213.63 241.17 212.71 240.16C211.36 238.67 209.84 238.55 207.93 238.49C207.03 238.46 205.62 236.3 204.72 236.23C204.42 236.21 204.13 236.18 203.83 236.15C203.76 236.15 203.29 236.08 203.61 236.13C203.93 236.18 203.46 236.11 203.39 236.1C202.73 236 202.07 235.87 201.42 235.71C200.84 235.57 200.27 235.41 199.7 235.22C199.42 235.13 199.14 235.03 198.86 234.93C198.72 234.88 198.58 234.83 198.44 234.77C198.34 234.73 198.23 234.69 198.13 234.65C198.35 234.74 198.38 234.76 198.21 234.68C197.28 234.24 196.4 233.76 195.52 233.22C193.37 231.92 190.77 230.89 188.4 232.31C187.27 232.99 186.36 234 185.35 234.84C185.24 234.93 185.13 235.02 185.02 235.11C184.5 235.54 185.28 234.93 184.94 235.17C184.71 235.33 184.49 235.5 184.26 235.66C183.77 236 183.27 236.33 182.76 236.64C182.25 236.95 181.73 237.24 181.2 237.51C180.95 237.64 180.7 237.76 180.44 237.88C180.31 237.94 180.19 238 180.06 238.06C179.85 238.15 179.65 238.24 179.98 238.1C178.94 238.53 177.86 238.82 176.82 239.22C175.41 239.76 173.94 243.47 173.34 242.01C172.82 240.74 172.95 244.75 174.24 245.43C175.33 246.01 177.09 245.81 177.66 244.53C177.72 244.4 177.77 244.29 177.84 244.17C177.77 244.28 177.55 244.43 177.84 244.21C177.4 244.54 177.89 244.19 178.08 244.09C178.16 244.05 178.25 244.01 178.33 243.97C178.64 243.81 177.91 244.11 178.25 244.01C178.51 243.93 178.77 243.83 179.04 243.74C180.22 243.36 181.37 242.92 182.5 242.42C184.67 241.46 186.63 240.18 188.49 238.72C188.9 238.39 189.31 238.05 189.7 237.7C189.91 237.52 190.11 237.32 190.31 237.14C190.41 237.05 190.52 236.96 190.62 236.87C190.96 236.56 190.44 236.96 190.68 236.82C190.77 236.77 190.86 236.71 190.94 236.65C191.4 236.32 190.87 236.73 190.81 236.67C190.78 236.64 191.09 236.61 191.11 236.58C191.02 236.77 190.54 236.58 190.9 236.62C190.94 236.62 191.21 236.63 191.21 236.62C191.17 236.67 190.58 236.47 191.02 236.6C191.23 236.66 191.45 236.72 191.66 236.79C192.09 236.94 191.57 236.79 191.54 236.74C191.57 236.78 191.79 236.86 191.86 236.89C192.07 237 192.28 237.11 192.49 237.23C192.89 237.46 193.28 237.71 193.68 237.95C194.68 238.56 195.74 239.03 196.82 239.48C199.14 240.42 201.58 240.95 204.07 241.2C205.03 241.3 205.98 241.32 206.94 241.33C207.26 241.33 207.59 241.34 207.91 241.36C208.09 241.37 208.27 241.39 208.45 241.4C208.64 241.41 208.84 241.52 208.19 241.36C208.3 241.39 208.41 241.39 208.52 241.42C208.67 241.45 208.82 241.48 208.96 241.52C209.04 241.54 209.12 241.57 209.2 241.59C209.56 241.68 208.98 241.5 208.95 241.47C209.04 241.55 209.25 241.64 209.37 241.7C209.5 241.76 209.8 242.07 209.14 241.52C209.2 241.57 209.25 241.62 209.3 241.68C208.79 241.08 209.04 241.3 209.11 241.45C209.28 241.79 209.01 241.17 209.01 241.17C209.01 241.2 209.08 241.39 209.08 241.41C209.14 241.73 208.99 241.28 209.05 241.14C208.99 241.29 209.05 241.61 209.05 241.78C209.04 242.13 209.03 242.47 209.02 242.82C208.94 245.3 208.82 247.78 208.62 250.25C208.52 251.45 208.41 252.65 208.27 253.84C208.23 254.15 208.19 254.46 208.16 254.76C208.11 255.16 208.21 254.38 208.16 254.79C208.14 254.91 208.13 255.02 208.11 255.14C208.02 255.79 207.92 256.44 207.8 257.09C207.39 259.49 206.84 261.87 206.12 264.2C205.79 265.26 205.43 266.31 205.02 267.34C204.93 267.57 204.84 267.8 204.74 268.03C204.63 268.29 204.78 268.21 204.77 267.95C204.77 268.01 204.68 268.15 204.66 268.21C204.44 268.7 204.22 269.19 203.98 269.68C203.53 270.6 203.04 271.5 202.5 272.37C202.25 272.78 201.98 273.18 201.71 273.57C201.58 273.75 201.45 273.93 201.32 274.11C201.05 274.48 201.32 274.12 201.36 274.06C201.28 274.19 201.16 274.31 201.06 274.43C200.42 275.21 199.73 275.94 198.98 276.61C198.82 276.76 198.65 276.89 198.48 277.04C198.12 277.35 198.51 277.04 198.55 277C198.49 277.07 198.33 277.16 198.25 277.22C197.82 277.53 197.37 277.82 196.91 278.08C196.71 278.19 196.51 278.3 196.3 278.4C196.16 278.47 195.51 278.87 196.01 278.54C195.62 278.8 194.99 278.9 194.54 279.02C194.29 279.08 194.04 279.14 193.79 279.19C193.74 279.19 193.41 279.25 193.41 279.25C193.41 279.23 194.04 279.19 193.51 279.24C193 279.29 192.5 279.32 191.99 279.31C191.74 279.31 191.48 279.29 191.23 279.27C191.1 279.27 190.48 279.17 190.81 279.23C191.17 279.3 190.76 279.22 190.67 279.2C190.55 279.18 190.42 279.15 190.3 279.13C190.02 279.07 189.74 279 189.47 278.92C189.23 278.85 188.98 278.77 188.74 278.69C188.64 278.66 188.02 278.4 188.33 278.54C188.64 278.68 188.02 278.39 187.93 278.35C187.64 278.21 187.36 278.05 187.08 277.88C186.89 277.76 186.69 277.64 186.51 277.51C186.4 277.44 186.3 277.36 186.19 277.28C185.89 277.08 186.5 277.55 186.23 277.31C185.83 276.97 185.43 276.63 185.06 276.25C184.71 275.9 184.39 275.53 184.08 275.15C183.79 274.8 184.06 275.12 184.11 275.19C184.03 275.08 183.95 274.98 183.88 274.87C183.71 274.63 183.54 274.38 183.38 274.14C182.82 273.28 182.36 272.37 181.93 271.44C181.73 271.01 181.91 271.42 181.95 271.49C181.89 271.38 181.85 271.24 181.8 271.12C181.7 270.87 181.61 270.63 181.52 270.38C181.34 269.88 181.18 269.38 181.03 268.87C180.36 266.57 179.96 264.19 179.6 261.83C179.56 261.55 179.52 261.28 179.48 261C179.46 260.84 179.43 260.68 179.41 260.53C179.41 260.46 179.33 259.97 179.37 260.27C179.41 260.57 179.34 260.07 179.34 260.01C179.32 259.89 179.31 259.77 179.29 259.65C179.24 259.25 179.19 258.86 179.14 258.46C178.99 257.23 178.86 256 178.74 254.78C178.48 252.23 178.23 249.68 178.04 247.13C177.99 246.49 177.94 245.85 177.89 245.21C177.86 244.91 177.86 244.61 177.85 244.31C177.85 244.26 177.88 243.9 177.85 244.21C177.8 244.58 177.95 243.93 177.95 243.91C178.37 242.67 177.47 241.12 176.2 240.83C174.81 240.51 173.57 241.25 173.12 242.58H173.08Z" fill="black"/>
<path d="M170.069 225.18C173.156 225.18 175.659 222.677 175.659 219.59C175.659 216.503 173.156 214 170.069 214C166.981 214 164.479 216.503 164.479 219.59C164.479 222.677 166.981 225.18 170.069 225.18Z" fill="black"/>
<path d="M214.44 225.18C217.527 225.18 220.03 222.677 220.03 219.59C220.03 216.503 217.527 214 214.44 214C211.352 214 208.85 216.503 208.85 219.59C208.85 222.677 211.352 225.18 214.44 225.18Z" fill="black"/>
<path d="M225.979 239.45C225.719 238.09 224.409 237.21 223.059 237.46C222.889 237.5 205.539 240.62 193.959 230.6C193.589 230.28 193.149 230.09 192.689 230.02V229.99C192.619 229.99 192.549 229.99 192.479 230C192.409 230 192.339 229.98 192.269 229.99V230.02C191.819 230.09 191.369 230.28 190.999 230.6C179.419 240.62 162.079 237.5 161.899 237.46C160.549 237.2 159.239 238.09 158.979 239.45C158.719 240.81 159.609 242.12 160.969 242.37C161.219 242.42 163.179 242.78 166.179 242.92C172.289 243.21 182.669 242.58 191.489 236.53C192.089 236.11 192.879 236.11 193.479 236.53C202.299 242.58 212.679 243.21 218.789 242.92C221.789 242.78 223.749 242.42 223.999 242.37C225.359 242.11 226.249 240.8 225.989 239.45H225.979Z" fill="black"/>
<path d="M115.249 311.54C111.539 313.76 108.019 316.3 104.749 319.13C98.7595 324.3 93.3895 330.84 92.1795 338.66C90.9695 346.47 95.2495 355.51 102.929 357.39C101.269 358.53 99.6895 359.88 98.7495 361.67C97.8095 363.46 97.6195 365.72 98.6695 367.44C99.5995 368.97 101.349 369.82 103.089 370.22C106.379 370.97 109.959 370.31 112.769 368.44" fill="#98CA51"/>
<path d="M113.99 309.39C109.71 311.96 105.64 314.95 101.93 318.3C98.6801 321.23 95.7001 324.56 93.4301 328.32C91.1801 332.06 89.6301 336.35 89.4801 340.74C89.3501 344.59 90.3401 348.54 92.2601 351.88C94.4401 355.68 97.9701 358.72 102.26 359.8C102.06 358.28 101.86 356.75 101.66 355.23C99.8101 356.51 98.0901 357.96 96.8901 359.88C95.6301 361.9 95.1301 364.44 95.7001 366.77C96.8801 371.51 102.4 373.32 106.77 372.98C109.34 372.78 111.85 372.01 114.02 370.59C115.11 369.88 115.67 368.34 114.92 367.17C114.22 366.08 112.67 365.51 111.5 366.27C111.04 366.57 110.56 366.85 110.07 367.09C109.95 367.15 109.82 367.21 109.7 367.26C109.98 367.14 109.99 367.14 109.73 367.24C109.47 367.33 109.21 367.43 108.95 367.51C108.42 367.68 107.89 367.78 107.35 367.9C107.06 367.95 107.08 367.95 107.4 367.9C107.26 367.92 107.13 367.93 106.99 367.94C106.72 367.97 106.44 367.98 106.17 367.99C105.62 368.01 105.07 367.98 104.52 367.93C103.84 367.87 105.03 368.04 104.37 367.9C104.1 367.85 103.84 367.8 103.58 367.73C103.32 367.66 103.08 367.6 102.84 367.52C102.72 367.48 102.6 367.44 102.47 367.39C102.21 367.29 102.23 367.3 102.53 367.42C102.31 367.38 102.04 367.18 101.85 367.06C101.74 366.99 101.01 366.6 101.57 366.91C101.36 366.8 101.2 366.55 101.02 366.39C100.84 366.18 100.85 366.2 101.05 366.46C100.97 366.36 100.9 366.25 100.84 366.14C100.77 366.03 100.71 365.92 100.65 365.8C100.53 365.55 100.54 365.57 100.68 365.87C100.61 365.81 100.45 365.22 100.48 365.13C100.52 365.48 100.52 365.51 100.49 365.22C100.48 365.09 100.47 364.96 100.47 364.83C100.47 364.63 100.48 364.44 100.49 364.25C100.52 363.96 100.51 363.99 100.48 364.33C100.5 364.2 100.53 364.07 100.56 363.95C100.62 363.69 100.71 363.45 100.78 363.2C100.88 362.94 100.87 362.95 100.75 363.25C100.8 363.13 100.86 363.01 100.92 362.9C101.04 362.66 101.18 362.43 101.33 362.21C101.4 362.1 101.48 361.99 101.56 361.88C101.37 362.12 101.36 362.13 101.54 361.91C101.71 361.71 101.89 361.5 102.07 361.31C102.44 360.92 102.84 360.56 103.26 360.22C103.36 360.13 103.47 360.05 103.58 359.97C103.34 360.15 103.33 360.16 103.56 359.99C103.78 359.84 104 359.68 104.22 359.52C105.06 358.94 105.55 358.08 105.41 357.03C105.28 356.08 104.58 355.19 103.62 354.95C103.22 354.85 102.83 354.73 102.44 354.6C102.38 354.58 101.91 354.4 101.91 354.4C101.91 354.38 102.49 354.67 102.06 354.46C101.96 354.41 101.87 354.37 101.77 354.32C101.58 354.23 99.6601 353.17 99.7201 353.06C99.7201 353.05 100.14 353.4 99.8501 353.16C99.7701 353.09 99.6801 353.02 99.6001 352.96C99.4601 352.84 99.3201 352.71 99.1801 352.59C98.8801 352.32 98.6001 352.03 98.3201 351.73C98.1701 351.57 98.0301 351.41 97.8901 351.24C97.8201 351.15 97.4301 350.71 97.6801 350.99C97.9401 351.29 97.5401 350.8 97.4901 350.72C97.3501 350.52 97.2101 350.32 97.0801 350.11C96.6301 349.41 96.2301 348.69 95.8901 347.93C95.8601 347.85 95.8201 347.78 95.7901 347.7C95.6001 347.28 95.8201 347.81 95.8501 347.84C95.7401 347.74 95.6901 347.44 95.6401 347.3C95.4801 346.88 95.3401 346.46 95.2101 346.03C94.9701 345.22 94.7901 344.4 94.6501 343.57C94.5501 342.93 94.6901 343.94 94.6401 343.48C94.6201 343.26 94.5901 343.03 94.5701 342.81C94.5401 342.39 94.5201 341.97 94.5101 341.55C94.5001 341.13 94.5101 340.71 94.5401 340.3C94.5501 340.11 94.5701 339.91 94.5801 339.72C94.5801 339.64 94.6001 339.55 94.6001 339.47C94.6001 339.42 94.6701 338.87 94.6201 339.31C94.5701 339.75 94.6701 339.03 94.6901 338.92C94.7401 338.66 94.7901 338.4 94.8401 338.14C94.9401 337.66 95.0601 337.18 95.1901 336.7C95.3201 336.22 95.4701 335.76 95.6301 335.29C95.7101 335.07 95.7801 334.86 95.8701 334.64C95.9201 334.5 96.1901 333.65 96.0201 334.23C96.2801 333.32 96.8701 332.4 97.3401 331.58C97.8301 330.71 98.3601 329.87 98.9201 329.06C99.1901 328.68 99.4601 328.3 99.7401 327.93C99.8201 327.82 99.9001 327.72 99.9801 327.61C99.9301 327.68 99.6701 328 99.9601 327.64C100.13 327.43 100.3 327.22 100.47 327.02C101.75 325.47 103.15 324.01 104.62 322.63C105.48 321.82 106.36 321.04 107.26 320.29C107.76 319.87 108.27 319.45 108.78 319.04C109.02 318.85 109.26 318.66 109.51 318.47C109.82 318.22 109.24 318.67 109.55 318.44C109.7 318.32 109.86 318.21 110.01 318.09C112.11 316.51 114.29 315.05 116.54 313.7C117.66 313.03 118.17 311.42 117.44 310.28C116.71 309.14 115.22 308.66 114.02 309.38L113.99 309.39Z" fill="black"/>
<path d="M264.83 310.8C268.54 313.02 272.06 315.56 275.33 318.39C281.32 323.56 286.69 330.1 287.9 337.92C289.11 345.73 284.83 354.77 277.15 356.65C278.81 357.79 280.39 359.14 281.33 360.93C282.27 362.71 282.46 364.98 281.41 366.7C280.48 368.23 278.73 369.08 276.99 369.48C273.7 370.23 270.12 369.57 267.31 367.7" fill="#98CA51"/>
<path d="M263.57 312.96C265.56 314.15 267.49 315.43 269.36 316.8C269.61 316.98 269.86 317.17 270.1 317.35C270.19 317.42 270.29 317.49 270.38 317.56C270.43 317.6 270.809 317.89 270.589 317.72C270.389 317.56 270.69 317.8 270.7 317.81C270.82 317.91 270.94 318 271.06 318.1C271.3 318.29 271.54 318.48 271.78 318.68C272.66 319.4 273.53 320.13 274.38 320.89C275.88 322.23 277.319 323.65 278.649 325.15C278.959 325.5 279.27 325.86 279.57 326.22C279.72 326.4 279.87 326.58 280.01 326.77C280.09 326.87 280.18 326.98 280.26 327.08C279.92 326.66 280.23 327.04 280.3 327.13C280.9 327.93 281.47 328.75 282 329.59C282.53 330.43 283.01 331.29 283.45 332.18C283.66 332.6 283.94 333.06 284.07 333.52C283.93 333.05 284.069 333.54 284.149 333.74C284.249 333.98 284.34 334.23 284.42 334.48C284.76 335.44 285.04 336.42 285.25 337.42C285.32 337.75 285.579 338.43 285.489 338.76C285.489 338.73 285.419 338.13 285.459 338.59C285.459 338.67 285.479 338.76 285.489 338.84C285.509 339.09 285.53 339.34 285.55 339.59C285.6 340.43 285.589 341.27 285.519 342.1C285.499 342.3 285.489 342.49 285.459 342.69C285.389 343.28 285.529 342.32 285.459 342.78C285.389 343.24 285.309 343.66 285.209 344.1C285.029 344.92 284.79 345.73 284.5 346.51C284.43 346.69 284.36 346.87 284.29 347.06C284.17 347.38 284.49 346.62 284.35 346.92C284.32 347 284.28 347.07 284.25 347.15C284.07 347.55 283.87 347.95 283.66 348.34C283.44 348.75 283.19 349.15 282.94 349.54C282.82 349.72 282.7 349.9 282.57 350.08C282.51 350.17 282.44 350.25 282.38 350.34C282.2 350.59 282.71 349.94 282.42 350.28C281.83 350.98 281.21 351.65 280.51 352.25C280.45 352.3 280.39 352.35 280.32 352.4C279.91 352.75 280.39 352.36 280.38 352.36C280.38 352.37 279.92 352.69 279.86 352.73C279.48 352.98 279.09 353.22 278.69 353.43C278.48 353.54 278.26 353.64 278.04 353.75C277.79 353.87 277.99 353.71 278.04 353.75C278.24 353.67 278.24 353.67 278.04 353.75L277.89 353.81C277.43 353.98 276.96 354.13 276.48 354.25C275.52 354.49 274.82 355.38 274.69 356.33C274.55 357.37 275.04 358.24 275.88 358.82C276.1 358.97 276.32 359.13 276.54 359.29C276.76 359.46 276.759 359.45 276.519 359.27C276.629 359.35 276.729 359.44 276.839 359.52C277.249 359.86 277.65 360.23 278.03 360.61C278.22 360.8 278.39 361.01 278.56 361.21C278.74 361.43 278.73 361.42 278.54 361.18C278.62 361.29 278.689 361.4 278.769 361.51C278.919 361.73 279.049 361.96 279.179 362.2C279.239 362.32 279.3 362.43 279.35 362.55C279.23 362.25 279.22 362.23 279.32 362.5C279.4 362.75 279.48 363 279.54 363.25C279.57 363.38 279.599 363.51 279.619 363.63C279.579 363.29 279.58 363.26 279.61 363.55C279.62 363.75 279.63 363.94 279.63 364.13C279.63 364.26 279.63 364.39 279.61 364.52C279.58 364.81 279.589 364.78 279.619 364.43C279.649 364.52 279.49 365.11 279.42 365.17C279.56 364.87 279.57 364.85 279.45 365.1C279.39 365.22 279.33 365.33 279.26 365.44C279.19 365.55 279.12 365.65 279.05 365.76C279.25 365.51 279.26 365.48 279.08 365.69C278.9 365.85 278.74 366.09 278.53 366.21C279.1 365.9 278.36 366.3 278.25 366.36C278.06 366.47 277.78 366.68 277.57 366.72C277.87 366.6 277.89 366.59 277.63 366.69C277.51 366.74 277.39 366.78 277.26 366.82C277.02 366.9 276.769 366.97 276.519 367.03C276.259 367.1 275.99 367.14 275.73 367.2C275.2 367.31 276.17 367.18 275.58 367.23C275.03 367.27 274.479 367.31 273.929 367.29C273.649 367.29 273.38 367.27 273.11 367.24C272.97 367.23 272.84 367.21 272.7 367.2C273.02 367.24 273.04 367.24 272.75 367.2C272.21 367.08 271.669 366.98 271.149 366.81C270.889 366.73 270.629 366.63 270.369 366.54C270.109 366.43 270.109 366.44 270.399 366.56C270.269 366.5 270.15 366.45 270.03 366.39C269.53 366.15 269.06 365.87 268.6 365.57C267.5 364.85 265.789 365.31 265.179 366.47C264.519 367.72 264.91 369.13 266.08 369.89C269.73 372.28 274.75 373.08 278.89 371.56C281.18 370.72 283.1 369.29 284.07 367C285.04 364.71 284.69 362.07 283.6 359.87C282.49 357.61 280.47 355.93 278.44 354.52C278.24 356.04 278.039 357.57 277.839 359.09C285.699 357.11 290.309 349.07 290.619 341.36C290.969 332.52 285.48 324.52 279.35 318.67C275.35 314.86 270.849 311.52 266.119 308.67C264.999 308 263.32 308.38 262.7 309.57C262.08 310.76 262.4 312.27 263.6 312.99L263.57 312.96Z" fill="black"/>
<path d="M125.21 404.68C121.19 404.68 117.45 404.49 114.15 404.06C110.81 403.62 108.01 401.39 106.84 398.23C105.67 395.06 106.34 391.53 108.6 389.02L113.64 383.4C113.21 378.57 111.91 361.6 113.19 344.52C113.31 342.87 114.76 341.63 116.41 341.75C118.06 341.87 119.3 343.31 119.18 344.97C117.74 364.18 119.72 383.93 119.74 384.12L119.88 385.44L113.08 393.02C112.3 393.88 112.08 395.05 112.49 396.14C112.68 396.66 113.31 397.89 114.96 398.11C138.61 401.21 188.99 390.63 189.49 390.53L190.11 390.4L190.73 390.53C191.25 390.64 243.35 401.57 266.42 397.95C267.72 397.75 268.2 396.76 268.35 396.34C268.5 395.92 268.75 394.83 267.86 393.84L260.42 385.54L260.45 384.35C260.45 384.2 260.85 368.86 260.56 355.55V346.78C260.56 345.12 261.9 343.78 263.56 343.78C265.22 343.78 266.56 345.12 266.56 346.78V355.48C266.8 366.71 266.56 379.4 266.48 383.3L272.33 389.82C274.41 392.14 275.05 395.4 274.01 398.34C272.97 401.26 270.42 403.38 267.36 403.86C244.32 407.48 196.43 397.83 190.11 396.52C184.79 397.62 149.85 404.67 125.23 404.67L125.21 404.68Z" fill="black"/>
</g>
<defs>
<clipPath id="clip0_873_640">
<rect width="380.54" height="573" fill="white" transform="translate(0.410156)"/>
</clipPath>
</defs>
</svg>
