<svg width="381" height="573" viewBox="0 0 381 573" fill="none" xmlns="http://www.w3.org/2000/svg">
<g clip-path="url(#clip0_873_2045)">
<path d="M358.383 0H22.3833C10.0839 0 0.113281 9.97062 0.113281 22.27V550.73C0.113281 563.029 10.0839 573 22.3833 573H358.383C370.683 573 380.653 563.029 380.653 550.73V22.27C380.653 9.97062 370.683 0 358.383 0Z" fill="white"/>
<path d="M319.344 95.66C338.121 95.66 353.344 80.4377 353.344 61.66C353.344 42.8823 338.121 27.66 319.344 27.66C300.566 27.66 285.344 42.8823 285.344 61.66C285.344 80.4377 300.566 95.66 319.344 95.66Z" fill="#98CA51"/>
<path d="M333.323 46.1517C333.323 46.6532 333.323 47.2243 333.323 47.8651C333.323 48.478 333.309 49.1049 333.281 49.7457C333.197 50.3865 333.1 51.0272 332.988 51.668C332.905 52.2809 332.752 52.7824 332.529 53.1725L319.866 78.7479C319.644 79.1658 319.379 79.4166 319.072 79.5002C318.766 79.5837 318.251 79.6255 317.526 79.6255L310.38 79.5419L323.92 52.462H307.998V46.1517H333.323Z" fill="white"/>
<path d="M107.48 441.23C107.48 442.497 107.48 443.94 107.48 445.559C107.48 447.108 107.445 448.692 107.374 450.311C107.163 451.93 106.917 453.549 106.635 455.168C106.424 456.717 106.037 457.984 105.474 458.969L73.4797 523.59C72.9166 524.646 72.2479 525.28 71.4735 525.491C70.6992 525.702 69.3969 525.808 67.5667 525.808L49.5108 525.597L83.722 457.174H43.4922V441.23H107.48Z" fill="#98CA51"/>
<path d="M262.513 386.31H114.253C110.023 357.19 107.483 322.27 116.773 304.48L264.143 302C270.023 329.04 268.613 357.29 262.513 386.31Z" fill="#D6AF43"/>
<path d="M189.393 391.81C189.393 391.81 138.283 402.64 113.853 399.43C110.763 399.03 108.453 396.26 108.583 393.15C108.743 389.17 113.443 386.42 116.333 384.28C110.883 372.46 104.573 360.41 104.563 347.39C104.543 334.43 110.783 322.38 116.863 310.93" fill="#D6AF43"/>
<path d="M188.463 388.43C186.363 388.88 184.243 389.28 182.133 389.69C176.903 390.69 171.653 391.61 166.383 392.45C162.593 393.05 158.803 393.62 155.003 394.13L155.933 394C150.103 394.78 144.243 395.45 138.383 395.91C132.873 396.35 127.343 396.62 121.813 396.49C119.153 396.43 116.493 396.27 113.853 395.93L114.783 396.06C114.463 396.01 114.153 395.95 113.853 395.86C113.723 395.82 113.583 395.75 113.443 395.72C114.213 395.87 114.023 395.98 113.663 395.8C113.413 395.67 113.183 395.52 112.943 395.36C112.413 395.02 113.563 395.93 113.123 395.49C113.023 395.39 112.923 395.3 112.823 395.2C112.723 395.1 112.633 395 112.543 394.89C112.163 394.47 112.953 395.48 112.733 395.14C112.563 394.88 112.393 394.63 112.253 394.35C112.183 394.22 111.973 393.73 112.223 394.31C112.473 394.89 112.273 394.4 112.223 394.25C112.123 393.92 112.053 393.59 112.003 393.25L112.133 394.18C112.073 393.67 112.063 393.17 112.133 392.66L112.003 393.59C112.033 393.38 112.073 393.18 112.123 392.97C112.163 392.8 112.463 392.02 112.193 392.64C111.933 393.26 112.243 392.56 112.323 392.41C112.433 392.2 112.563 391.99 112.693 391.79C112.753 391.7 112.823 391.61 112.883 391.52C113.143 391.13 112.653 391.8 112.633 391.84C112.703 391.64 112.983 391.42 113.123 391.27C113.453 390.91 113.803 390.57 114.163 390.25C114.523 389.93 114.863 389.65 115.233 389.35C115.683 388.99 114.673 389.78 115.003 389.52C115.093 389.45 115.183 389.38 115.283 389.31C115.463 389.17 115.653 389.04 115.833 388.9C116.583 388.35 117.353 387.82 118.103 387.27C118.853 386.72 119.503 386.1 119.713 385.18C119.923 384.26 119.773 383.38 119.363 382.48C117.563 378.58 115.703 374.7 113.983 370.76C113.773 370.28 113.563 369.79 113.353 369.3C113.383 369.37 113.673 370.07 113.443 369.51C113.403 369.41 113.353 369.3 113.313 369.2C113.193 368.92 113.083 368.64 112.973 368.36C112.563 367.35 112.163 366.34 111.793 365.31C111.053 363.32 110.383 361.3 109.823 359.25C109.183 356.93 108.683 354.58 108.353 352.19L108.483 353.12C107.963 349.28 107.963 345.41 108.473 341.56L108.343 342.49C108.923 338.29 110.063 334.19 111.533 330.21C111.903 329.22 112.283 328.25 112.683 327.27C112.743 327.13 112.803 326.99 112.853 326.85C112.853 326.84 112.563 327.52 112.723 327.17C112.833 326.93 112.933 326.68 113.033 326.44C113.243 325.96 113.463 325.47 113.673 324.99C114.563 323.03 115.503 321.09 116.483 319.16C117.593 316.97 118.733 314.81 119.883 312.64C120.743 311.02 120.343 308.76 118.623 307.85C117.003 306.99 114.753 307.38 113.833 309.11C108.943 318.33 103.903 327.85 101.963 338.21C101.453 340.92 101.123 343.68 101.063 346.44C101.003 349.2 101.273 352.04 101.693 354.81C102.463 359.85 104.033 364.74 105.913 369.47C108.143 375.08 110.773 380.51 113.303 385.99L114.563 381.2C110.503 384.21 105.723 387.11 105.123 392.62C104.823 395.39 106.023 398.38 108.053 400.27C109.193 401.34 110.563 402.15 112.073 402.57C113.123 402.87 114.263 402.93 115.343 403.05C122.453 403.79 129.673 403.49 136.793 402.98C144.953 402.39 153.083 401.39 161.183 400.22C167.743 399.27 174.293 398.19 180.813 396.98C183.933 396.4 187.103 395.89 190.193 395.15C190.233 395.14 190.283 395.13 190.323 395.12C192.113 394.74 193.323 392.54 192.763 390.81C192.153 388.92 190.383 387.96 188.453 388.37L188.463 388.43Z" fill="black"/>
<path d="M189.393 391.81C189.393 391.81 240.503 402.64 264.933 399.43C268.023 399.03 270.333 396.26 270.203 393.15C270.043 389.17 265.343 386.42 262.453 384.28C267.903 372.46 274.213 360.41 274.223 347.39C274.243 334.43 268.003 322.38 261.923 310.93" fill="#D6AF43"/>
<path d="M188.463 395.18C191.013 395.72 193.563 396.21 196.123 396.69C202.363 397.86 208.613 398.93 214.893 399.87C222.943 401.08 231.023 402.12 239.133 402.81C246.433 403.42 253.803 403.82 261.123 403.31C261.913 403.25 262.713 403.19 263.503 403.1C264.623 402.98 265.803 402.92 266.883 402.58C269.893 401.63 272.123 399.37 273.203 396.44C274.173 393.82 273.723 390.75 272.233 388.42C270.743 386.09 268.753 384.54 266.633 382.99C265.833 382.41 265.023 381.84 264.223 381.26C264.643 382.86 265.063 384.45 265.483 386.05C269.853 376.57 274.793 367.06 276.773 356.73C277.293 354.03 277.643 351.27 277.723 348.52C277.803 345.71 277.553 342.92 277.143 340.14C276.393 335.09 274.823 330.19 272.873 325.48C270.563 319.89 267.793 314.52 264.963 309.18C264.103 307.56 261.723 306.93 260.173 307.92C258.523 308.98 257.993 310.98 258.913 312.71C260.933 316.51 262.943 320.32 264.743 324.23C265.183 325.19 265.613 326.16 266.033 327.13C266.113 327.31 266.273 327.75 265.943 326.92C265.983 327.02 266.033 327.13 266.073 327.23C266.173 327.47 266.273 327.72 266.373 327.96C266.573 328.45 266.763 328.94 266.953 329.43C267.713 331.42 268.403 333.43 268.973 335.48C269.623 337.8 270.133 340.16 270.463 342.54L270.333 341.61C270.843 345.46 270.833 349.32 270.323 353.17L270.453 352.24C269.873 356.44 268.743 360.53 267.313 364.51C266.943 365.53 266.563 366.55 266.163 367.56C265.973 368.05 265.773 368.54 265.573 369.03C265.523 369.16 265.223 369.67 265.273 369.76C265.273 369.76 265.553 369.09 265.403 369.45C265.333 369.62 265.253 369.8 265.183 369.97C264.333 371.95 263.443 373.91 262.543 375.87C261.513 378.09 260.473 380.3 259.443 382.52C259.053 383.36 258.793 384.29 259.093 385.22C259.393 386.14 259.933 386.74 260.703 387.31C261.433 387.85 262.173 388.36 262.903 388.89C263.083 389.02 263.273 389.16 263.453 389.3C263.543 389.37 263.633 389.44 263.733 389.51C264.253 389.9 263.203 389.09 263.503 389.33C263.883 389.64 264.273 389.95 264.633 390.28C264.973 390.59 265.303 390.9 265.613 391.24C265.783 391.42 265.943 391.62 266.113 391.81C266.383 392.11 265.653 391.16 265.873 391.49C265.933 391.58 266.003 391.67 266.063 391.76C266.193 391.96 266.783 392.69 266.723 392.95C266.723 392.95 266.413 392.08 266.543 392.55C266.583 392.68 266.623 392.8 266.663 392.92C266.723 393.15 266.773 393.38 266.803 393.61L266.673 392.68C266.733 393.19 266.723 393.69 266.673 394.2L266.803 393.27C266.753 393.58 266.693 393.88 266.603 394.18C266.563 394.31 266.493 394.45 266.473 394.58C266.613 393.83 266.743 393.98 266.553 394.36C266.423 394.61 266.273 394.84 266.123 395.08C265.803 395.61 266.693 394.45 266.263 394.9C266.163 395 266.073 395.11 265.983 395.21C265.893 395.31 265.783 395.4 265.683 395.5C265.273 395.88 266.273 395.09 265.933 395.32C265.673 395.49 265.423 395.66 265.143 395.81C265.013 395.88 264.523 396.09 265.103 395.85C265.683 395.61 265.183 395.81 265.043 395.85C264.713 395.95 264.373 396.02 264.023 396.08L264.953 395.95C260.023 396.59 255.013 396.63 250.053 396.47C244.273 396.29 238.493 395.82 232.743 395.21C229.453 394.86 226.163 394.46 222.873 394.02L223.803 394.15C217.393 393.29 210.993 392.28 204.613 391.17C200.553 390.46 196.493 389.71 192.453 388.89C191.743 388.75 191.043 388.61 190.343 388.46C188.553 388.08 186.473 388.99 186.033 390.9C185.633 392.66 186.563 394.8 188.473 395.21L188.463 395.18Z" fill="black"/>
<path d="M116.713 310.07C115.423 309.56 116.413 309.83 115.143 309.26C113.233 308.4 111.353 307.47 109.503 306.45C105.453 304.21 101.593 301.63 98.0528 298.69C94.3428 295.59 91.0028 292.05 88.2628 288.09C81.1628 277.85 79.0328 265.5 81.2228 253.41C81.7328 250.59 82.4528 247.81 83.3328 245.09C83.3328 245.09 86.8128 227.68 113.683 205.4C112.683 202.17 112.143 198.76 112.143 195.22C112.143 175.76 128.353 159.99 148.353 159.99C165.463 159.99 179.783 171.54 183.573 187.05C184.183 186.93 187.173 186.95 188.363 186.97C189.563 186.96 192.553 186.93 193.153 187.05C196.943 171.53 211.263 159.99 228.373 159.99C248.373 159.99 264.583 175.76 264.583 195.22C264.583 198.76 264.043 202.18 263.043 205.4C289.923 227.67 293.393 245.09 293.393 245.09C294.273 247.82 294.993 250.6 295.503 253.41C297.693 265.5 295.563 277.85 288.463 288.09C285.723 292.04 282.383 295.58 278.673 298.69C277.023 300.07 275.283 301.33 273.523 302.56C270.693 304.55 267.933 306.64 265.073 308.58L261.353 310.39" fill="#D6AF43"/>
<path d="M261.363 313.89C260.063 313.89 258.824 313.17 258.214 311.92C257.364 310.18 258.094 308.09 259.833 307.24L263.323 305.54C264.923 304.45 266.544 303.28 268.113 302.14C269.243 301.32 270.373 300.5 271.513 299.7C273.403 298.37 274.964 297.23 276.434 296C280.054 292.97 283.134 289.64 285.594 286.1C291.874 277.04 294.174 265.65 292.064 254.03C291.604 251.47 290.933 248.82 290.073 246.15L289.973 245.76C289.943 245.62 286.183 229.1 260.823 208.08L259.023 206.59L259.714 204.35C260.633 201.38 261.103 198.31 261.103 195.2C261.103 177.7 246.434 163.47 228.393 163.47C213.163 163.47 200.084 173.5 196.574 187.86L195.783 191.11L192.593 190.48C192.223 190.45 190.863 190.41 188.423 190.45C185.903 190.42 184.543 190.45 184.173 190.48L180.983 191.11L180.193 187.86C176.693 173.5 163.603 163.47 148.373 163.47C130.343 163.47 115.664 177.7 115.664 195.2C115.664 198.3 116.134 201.38 117.054 204.35L117.743 206.59L115.944 208.08C90.5835 229.1 86.8235 245.61 86.7835 245.78L86.6835 246.15C85.8235 248.82 85.1535 251.47 84.6935 254.02C82.5935 265.64 84.8835 277.03 91.1635 286.09C93.6235 289.63 96.7035 292.97 100.324 296C103.574 298.7 107.243 301.19 111.213 303.38C112.924 304.32 114.734 305.23 116.594 306.06C117.114 306.3 117.523 306.5 117.883 306.76C117.923 306.77 117.964 306.79 118.014 306.81C119.814 307.52 120.694 309.55 119.984 311.35C119.274 313.15 117.244 314.03 115.444 313.32C114.834 313.08 114.333 312.87 113.853 312.5C113.813 312.48 113.774 312.46 113.723 312.44C111.684 311.52 109.704 310.54 107.834 309.5C103.474 307.09 99.4435 304.36 95.8435 301.37C91.7335 297.93 88.2235 294.13 85.4135 290.07C78.0735 279.48 75.3735 266.23 77.8035 252.77C78.3135 249.96 79.0435 247.06 79.9735 244.15C80.4935 241.9 85.0735 225.16 109.734 204.15C109.024 201.22 108.664 198.22 108.664 195.2C108.664 173.85 126.473 156.47 148.373 156.47C165.853 156.47 181.013 167.42 186.203 183.44C186.813 183.44 187.543 183.44 188.423 183.45C189.263 183.44 189.963 183.44 190.563 183.44C195.763 167.43 210.924 156.47 228.393 156.47C250.283 156.47 268.103 173.84 268.103 195.2C268.103 198.22 267.744 201.22 267.034 204.15C291.694 225.17 296.273 241.91 296.793 244.15C297.723 247.06 298.454 249.96 298.964 252.77C301.404 266.23 298.703 279.48 291.353 290.07C288.543 294.13 285.034 297.93 280.934 301.36C279.284 302.74 277.583 303.98 275.553 305.41C274.443 306.19 273.333 306.99 272.233 307.79C270.553 309.01 268.824 310.26 267.053 311.46L266.624 311.71L262.904 313.52C262.414 313.76 261.894 313.87 261.374 313.87L261.363 313.89ZM192.493 190.48C192.493 190.48 192.493 190.48 192.503 190.48H192.493ZM184.253 190.48H184.243C184.243 190.48 184.243 190.48 184.253 190.48Z" fill="black"/>
<path d="M250.603 184.65C250.603 184.65 247.193 173.89 250.363 163.03C250.413 162.85 250.653 162.8 250.783 162.94L252.323 164.73C252.323 164.73 255.393 135.06 283.233 118.62C283.233 118.62 292.833 122.62 291.143 132.32C289.463 142.02 267.493 170.01 260.753 175.81C260.753 175.81 261.723 175.93 264.043 175.46C264.253 175.42 264.413 175.66 264.283 175.83C263.123 177.37 258.993 182.12 250.603 184.63V184.65Z" fill="#EF6600"/>
<path d="M248.633 188.37L247.743 185.56C247.593 185.09 244.093 173.79 247.483 162.19C247.823 161.05 248.753 160.18 249.923 159.93C249.993 159.92 250.053 159.9 250.123 159.89C252.183 150.61 259.193 129.33 281.703 116.04L282.993 115.28L284.383 115.86C288.463 117.56 295.753 123.3 294.093 132.84C292.533 141.8 276.093 163.8 266.823 173.96C266.823 173.96 266.823 173.97 266.833 173.98C267.553 175.13 267.493 176.57 266.683 177.65C265.133 179.71 260.543 184.81 251.463 187.52L248.633 188.36V188.37ZM252.203 169.23C251.723 173.82 252.233 178.02 252.743 180.71C254.433 180 255.863 179.21 257.063 178.41L253.623 178L258.793 173.55C265.763 167.55 286.733 140.19 288.183 131.82C289.113 126.46 285.393 123.36 283.333 122.08C258.503 137.67 255.333 164.78 255.303 165.05L254.563 171.97L252.213 169.22L252.203 169.23ZM248.493 164.9C248.493 164.9 248.493 164.9 248.493 164.91V164.9Z" fill="#0F0F0F"/>
<path d="M291.103 127.81C289.793 121.37 283.223 118.63 283.223 118.63C281.283 119.77 279.473 120.98 277.763 122.24C277.723 122.37 273.243 136.97 291.103 127.81Z" fill="#3FC9B1"/>
<path d="M281.723 133.82C279.733 133.82 278.103 133.28 276.813 132.19C272.843 128.87 274.523 122.59 274.893 121.36L275.183 120.41L275.983 119.82C277.833 118.46 279.753 117.19 281.693 116.04L282.993 115.28L284.383 115.86C284.713 116 292.433 119.31 294.043 127.21L294.503 129.44L292.483 130.48C288.133 132.71 284.573 133.82 281.733 133.82H281.723ZM280.413 124.03C280.133 125.5 280.163 127.17 280.663 127.59C280.673 127.6 282.013 128.62 287.383 126.26C286.303 124.22 284.523 122.84 283.313 122.08C282.333 122.7 281.363 123.35 280.413 124.02V124.03Z" fill="#0F0F0F"/>
<path d="M275.342 135.74L263.192 137.37C262.352 138.6 261.562 139.87 260.812 141.16C260.422 141.83 260.042 142.5 259.672 143.18C259.302 143.86 258.852 144.5 258.602 145.19C258.852 145.27 259.222 145.18 259.492 145.16L261.082 145.04C262.482 144.94 263.882 144.83 265.282 144.73C266.682 144.63 268.182 144.51 269.632 144.4L275.432 158.77C277.102 156.57 278.762 154.3 280.352 152.04L275.342 135.75V135.74Z" fill="#FFB727"/>
<path d="M274.632 164.79L267.682 147.55L259.712 148.15C259.252 148.21 258.502 148.31 257.672 148.04L254.742 147.09L255.772 144.19C256.042 143.42 256.442 142.76 256.752 142.22C256.852 142.06 256.942 141.9 257.032 141.74C257.412 141.04 257.812 140.35 258.212 139.66C259.062 138.21 259.872 136.91 260.712 135.69L261.462 134.59L277.462 132.44L283.652 152.56L282.812 153.76C281.262 155.97 279.582 158.27 277.822 160.58L274.622 164.79H274.632ZM271.602 141.24L276.212 152.68C276.492 152.29 276.772 151.9 277.052 151.51L273.222 139.06L264.932 140.17C264.592 140.7 264.252 141.25 263.902 141.82L271.602 141.24Z" fill="#0F0F0F"/>
<path d="M248.133 192.78C248.133 192.78 248.203 192.47 248.333 191.89C248.463 191.31 248.653 190.46 248.943 189.4C249.233 188.33 249.583 187.03 250.023 185.56C250.243 184.82 250.483 184.04 250.733 183.21C250.983 182.38 251.293 181.53 251.593 180.62C252.173 178.81 252.903 176.89 253.663 174.84C254.043 173.82 254.483 172.79 254.903 171.72C255.333 170.66 255.753 169.57 256.243 168.48C257.213 166.31 258.163 164.03 259.293 161.79C259.843 160.66 260.393 159.53 260.953 158.39C261.543 157.27 262.143 156.14 262.733 155.01C263.903 152.74 265.213 150.55 266.473 148.37C266.793 147.83 267.103 147.28 267.413 146.75C267.723 146.21 268.083 145.7 268.403 145.17C269.073 144.13 269.733 143.1 270.383 142.09C271.633 140.05 273.043 138.18 274.313 136.37C274.953 135.47 275.563 134.59 276.183 133.76C276.833 132.94 277.453 132.15 278.053 131.39C279.253 129.88 280.333 128.47 281.363 127.28C282.403 126.1 283.313 125.07 284.063 124.22C284.803 123.37 285.413 122.72 285.813 122.26C286.223 121.81 286.433 121.57 286.433 121.57C286.433 121.57 286.243 121.83 285.873 122.31C285.503 122.79 284.983 123.5 284.293 124.38C283.603 125.27 282.773 126.35 281.813 127.58C281.323 128.19 280.873 128.89 280.363 129.6C279.853 130.31 279.323 131.06 278.763 131.84C278.203 132.62 277.623 133.43 277.023 134.27C276.453 135.13 275.863 136.02 275.253 136.93C274.053 138.77 272.733 140.66 271.523 142.71C270.283 144.75 268.953 146.82 267.743 149.01C267.123 150.09 266.493 151.19 265.873 152.28C265.093 153.6 264.453 154.99 263.683 156.32C263.173 157.3 262.653 158.27 262.143 159.25C261.633 160.29 261.123 161.32 260.613 162.35C259.483 164.57 258.473 166.8 257.463 168.95C256.943 170.02 256.513 171.1 256.043 172.14C255.593 173.19 255.123 174.2 254.703 175.2C253.893 177.21 253.073 179.1 252.403 180.87C251.703 182.63 251.093 184.26 250.563 185.7C250.023 187.14 249.593 188.41 249.233 189.46C248.883 190.51 248.613 191.33 248.423 191.9C248.243 192.47 248.153 192.77 248.153 192.77L248.133 192.78Z" fill="#603913"/>
<path d="M250.993 193.68L245.203 192.13L245.393 191.25C245.533 190.64 245.733 189.75 246.033 188.63C246.343 187.49 246.693 186.18 247.133 184.7L247.843 182.34C248.013 181.77 248.213 181.2 248.413 180.61L248.723 179.68C249.233 178.1 249.843 176.46 250.493 174.72L250.833 173.8C251.093 173.11 251.363 172.43 251.643 171.73L252.363 169.94C252.723 169.05 253.083 168.14 253.493 167.24C253.743 166.67 254.003 166.08 254.263 165.49C254.983 163.85 255.733 162.15 256.583 160.45L258.223 157.09L260.043 153.62C261.043 151.68 262.143 149.79 263.213 147.95L264.783 145.25C265.003 144.87 265.243 144.49 265.493 144.12C265.603 143.95 265.723 143.77 265.833 143.59L267.823 140.48C268.763 138.94 269.803 137.49 270.803 136.09C271.143 135.61 271.483 135.13 271.813 134.66L272.513 133.67C272.923 133.09 273.323 132.52 273.733 131.97L276.473 128.49C277.363 127.36 278.213 126.29 279.033 125.32L281.763 122.23C282.273 121.65 282.713 121.16 283.083 120.75L284.153 119.56L288.773 123.38L287.803 124.66C287.473 125.09 287.073 125.62 286.603 126.23L284.123 129.42C283.823 129.8 283.563 130.17 283.303 130.55C283.123 130.81 282.933 131.08 282.743 131.35L279.443 135.97L277.703 138.59C277.363 139.11 277.003 139.66 276.633 140.21C275.773 141.51 274.873 142.85 274.053 144.24C273.693 144.84 273.333 145.42 272.973 146C272.083 147.45 271.153 148.95 270.323 150.46L268.433 153.77C268.033 154.44 267.693 155.1 267.333 155.8C266.993 156.46 266.643 157.12 266.273 157.77L264.513 161.15L263.263 163.68C262.363 165.45 261.533 167.23 260.743 168.95L260.153 170.22C259.833 170.87 259.573 171.49 259.303 172.11C259.123 172.54 258.933 172.96 258.743 173.38L258.273 174.46C257.993 175.1 257.713 175.73 257.453 176.35C257.153 177.09 256.853 177.83 256.553 178.55C256.063 179.72 255.593 180.85 255.193 181.94C254.483 183.73 253.883 185.33 253.353 186.76C252.833 188.17 252.403 189.42 252.053 190.44L250.993 193.68Z" fill="#0F0F0F"/>
<path d="M251.022 184.2C250.772 183.39 247.792 173.19 250.892 163C250.912 162.95 250.972 162.93 251.012 162.98L252.602 164.84C252.602 164.84 252.712 164.87 252.722 164.81C252.992 162.6 256.802 135.54 282.652 120.26C282.672 120.25 282.692 120.25 282.712 120.26C283.282 120.51 291.932 124.44 290.352 133.53C288.732 142.88 267.662 169.77 261.002 175.6C260.962 175.64 260.982 175.7 261.042 175.71C261.402 175.72 262.442 175.71 264.362 175.31C264.472 175.29 264.562 175.4 264.492 175.49C263.662 176.65 259.702 181.66 251.112 184.25C251.082 184.25 251.052 184.25 251.042 184.22L251.022 184.2Z" fill="#EF6600"/>
<path d="M253.632 177.06C251.412 171.44 251.012 164.98 250.952 163.3C250.952 163.22 250.842 163.22 250.822 163.29C247.862 173.39 250.792 183.41 251.032 184.21C251.032 184.24 251.072 184.25 251.102 184.24C259.742 181.64 263.692 176.6 264.502 175.47C264.542 175.41 264.472 175.35 264.412 175.39C259.382 178.33 254.132 177.21 253.682 177.11C253.662 177.11 253.642 177.09 253.642 177.07L253.632 177.06Z" fill="#FFB300"/>
<path d="M290.303 129.09C289.053 123.13 283.163 120.45 282.703 120.25C282.683 120.25 282.663 120.25 282.643 120.25C280.773 121.35 279.033 122.52 277.393 123.73C277.393 123.73 277.383 123.73 277.383 123.75C277.273 124.12 273.173 137.92 290.263 129.17C290.293 129.16 290.303 129.12 290.303 129.09Z" fill="#3FC9B1"/>
<path d="M263.652 147.82L271.392 163.78C271.392 163.78 271.472 163.83 271.502 163.79C273.072 161.82 274.692 159.73 276.282 157.59C276.292 157.57 276.302 157.55 276.292 157.53L271.482 141.89C271.482 141.89 271.442 141.84 271.412 141.84L260.182 143.35" fill="#3FC9B1"/>
<path d="M274.982 136.83L263.282 138.4C263.282 138.4 263.242 138.41 263.232 138.43C261.472 141 259.972 143.58 258.742 146.03L269.452 145.21C269.452 145.21 269.512 145.22 269.522 145.25L275.082 159.03C275.082 159.03 275.162 159.09 275.192 159.05C276.782 156.95 278.362 154.79 279.872 152.64C279.882 152.62 279.892 152.6 279.872 152.58L275.042 136.87C275.042 136.87 275.002 136.82 274.972 136.82L274.982 136.83Z" fill="#FFB727"/>
<path d="M248.652 192.13C248.652 192.13 248.722 191.83 248.842 191.27C248.962 190.71 249.152 189.89 249.432 188.85C249.712 187.81 250.052 186.56 250.482 185.12C250.702 184.4 250.922 183.64 251.172 182.84C251.412 182.04 251.712 181.21 252.002 180.33C252.572 178.58 253.272 176.71 254.012 174.73C254.382 173.74 254.802 172.74 255.212 171.7C255.632 170.67 256.042 169.61 256.512 168.56C257.452 166.45 258.372 164.24 259.462 162.07C259.992 160.98 260.532 159.88 261.062 158.77C261.632 157.68 262.212 156.59 262.792 155.49C263.922 153.29 265.192 151.16 266.422 149.05C266.732 148.52 267.032 148 267.332 147.48C267.632 146.96 267.982 146.46 268.292 145.95C268.942 144.94 269.582 143.94 270.212 142.96C271.422 140.98 272.792 139.17 274.022 137.42C274.642 136.55 275.232 135.69 275.832 134.88C276.462 134.09 277.062 133.32 277.642 132.58C278.812 131.11 279.852 129.75 280.852 128.59C281.862 127.44 282.742 126.45 283.472 125.62C284.192 124.8 284.782 124.16 285.172 123.72C285.562 123.28 285.772 123.05 285.772 123.05C285.772 123.05 285.582 123.3 285.232 123.76C284.872 124.22 284.362 124.91 283.692 125.77C283.022 126.63 282.212 127.68 281.282 128.87C280.802 129.46 280.372 130.14 279.872 130.83C279.382 131.52 278.862 132.25 278.322 133C277.782 133.75 277.222 134.54 276.632 135.36C276.082 136.19 275.512 137.05 274.922 137.94C273.762 139.72 272.482 141.56 271.302 143.55C270.102 145.53 268.812 147.54 267.642 149.66C267.042 150.71 266.432 151.77 265.822 152.84C265.092 154.07 264.492 155.36 263.792 156.6L262.762 158.48C262.082 159.86 261.402 161.23 260.722 162.6C259.632 164.76 258.642 166.92 257.672 169C257.172 170.04 256.752 171.09 256.302 172.09C255.862 173.1 255.412 174.09 255.002 175.06C254.212 177.01 253.422 178.84 252.772 180.56C252.092 182.27 251.502 183.85 250.982 185.25C250.462 186.65 250.042 187.88 249.692 188.9C249.352 189.92 249.092 190.72 248.912 191.26C248.742 191.81 248.652 192.1 248.652 192.1V192.13Z" fill="#603913"/>
<path d="M262.083 145.79L258.743 146.04C257.843 147.87 257.033 149.73 256.293 151.6L265.213 151.1L265.333 149.02" fill="#3FC9B1"/>
<path d="M112.433 215.17C110.263 215.17 108.163 214.47 106.443 213.16C104.373 211.58 103.063 209.21 102.843 206.67C102.473 202.41 102.353 195.7 103.843 187.92C104.623 183.87 108.013 180.84 112.283 180.4C125.593 179.01 195.493 172.49 263.973 180.35C268.533 180.87 272.093 184.45 272.443 188.87C273.063 196.74 272.633 202.6 271.163 206.29C269.763 209.81 266.283 212.11 262.293 212.14C249.413 212.24 135.863 213.17 113.323 215.14C113.023 215.17 112.733 215.18 112.433 215.18V215.17ZM114.423 191.24C113.563 196.32 113.503 200.79 113.683 204.07C138.363 202.21 238.553 201.32 261.253 201.15C261.653 199.3 261.883 196 261.573 191.15C196.153 183.8 129.623 189.7 114.423 191.25V191.24Z" fill="black"/>
<mask id="mask0_873_2045" style="mask-type:luminance" maskUnits="userSpaceOnUse" x="108" y="181" width="160" height="29">
<path d="M112.702 185.57C127.352 184.04 195.782 177.72 263.492 185.51C265.362 185.73 266.802 187.12 266.932 188.84C267.262 192.93 267.562 200.25 265.992 204.05C265.422 205.42 263.962 206.31 262.352 206.32C247.042 206.44 134.832 207.37 112.632 209.36C110.432 209.56 108.502 208.07 108.322 206.06C107.982 202.22 107.822 195.89 109.252 188.52C109.552 186.96 110.962 185.76 112.692 185.58L112.702 185.57Z" fill="white"/>
</mask>
<g mask="url(#mask0_873_2045)">
<path d="M211.822 174.34H167.432L178.532 191.87L189.632 209.4L200.722 191.87L211.822 174.34Z" fill="#63D3B3"/>
<path d="M256.212 174.34H211.822L222.922 191.87L234.012 209.4L245.112 191.87L256.212 174.34Z" fill="#63D3B3"/>
<path d="M167.431 174.34H123.041L134.131 191.87L145.231 209.4L156.331 191.87L167.431 174.34Z" fill="#63D3B3"/>
<path d="M123.042 174.34L111.942 191.87L100.842 209.4H123.042H145.232L134.132 191.87L123.042 174.34Z" fill="#EF6600"/>
<path d="M167.432 174.34L156.332 191.87L145.232 209.4H167.432H189.632L178.532 191.87L167.432 174.34Z" fill="#EF6600"/>
<path d="M211.821 174.34L200.721 191.87L189.631 209.4H211.821H234.011L222.921 191.87L211.821 174.34Z" fill="#EF6600"/>
<path d="M267.312 191.87L256.212 174.34L245.112 191.87L234.012 209.4H256.212H278.342V209.29L267.312 191.87Z" fill="#EF6600"/>
<path d="M127.101 197.13C127.101 199.33 125.141 201.12 122.731 201.12C120.321 201.12 118.361 199.34 118.361 197.13C118.361 194.92 120.321 193.14 122.731 193.14C125.141 193.14 127.101 194.93 127.101 197.13Z" fill="#F8C054"/>
<path d="M171.803 197.13C171.803 199.33 169.843 201.12 167.433 201.12C165.023 201.12 163.062 199.34 163.062 197.13C163.062 194.92 165.023 193.14 167.433 193.14C169.843 193.14 171.803 194.93 171.803 197.13Z" fill="#F8C054"/>
<path d="M216.502 197.13C216.502 199.33 214.542 201.12 212.132 201.12C209.722 201.12 207.762 199.34 207.762 197.13C207.762 194.92 209.722 193.14 212.132 193.14C214.542 193.14 216.502 194.93 216.502 197.13Z" fill="#F8C054"/>
<path d="M261.191 197.13C261.191 199.33 259.231 201.12 256.821 201.12C254.411 201.12 252.451 199.34 252.451 197.13C252.451 194.92 254.411 193.14 256.821 193.14C259.231 193.14 261.191 194.93 261.191 197.13Z" fill="#F8C054"/>
<path d="M154.601 181.45H135.861L140.551 188.85L145.231 196.25L149.911 188.85L154.601 181.45Z" fill="#EF6600"/>
<path d="M198.992 181.45H180.252L184.942 188.85L189.622 196.25L194.312 188.85L198.992 181.45Z" fill="#EF6600"/>
<path d="M243.383 181.45H224.643L229.333 188.85L234.013 196.25L238.703 188.85L243.383 181.45Z" fill="#EF6600"/>
<path d="M269.041 181.45H278.341V174.34H256.211L267.311 191.87L278.341 209.29V196.14L273.721 188.85L269.041 181.45Z" fill="#63D3B3"/>
<path d="M100.842 174.34V181.45H110.212L105.522 188.85L100.842 196.25V209.4L111.942 191.87L123.042 174.34H100.842Z" fill="#63D3B3"/>
<path d="M110.212 181.45H100.842V196.25L105.522 188.85L110.212 181.45Z" fill="#F96C41"/>
</g>
<path d="M154.613 232.85C161.733 232.08 168.793 230.9 175.763 229.27C177.543 228.85 178.773 226.71 178.203 224.96C177.603 223.1 175.813 222.07 173.893 222.52C168.653 223.75 163.353 224.73 158.013 225.45L158.943 225.32C157.493 225.51 156.053 225.69 154.603 225.84C153.653 225.94 152.833 226.16 152.133 226.87C151.523 227.48 151.073 228.47 151.103 229.34C151.183 231.07 152.653 233.05 154.603 232.84L154.613 232.85Z" fill="black"/>
<path d="M228.384 225.85C226.934 225.69 225.484 225.52 224.044 225.33L224.974 225.46C219.634 224.74 214.344 223.76 209.094 222.53C207.314 222.11 205.224 223.08 204.784 224.97C204.374 226.76 205.324 228.83 207.224 229.28C214.194 230.91 221.264 232.09 228.374 232.86C229.214 232.95 230.284 232.4 230.844 231.83C231.454 231.22 231.904 230.23 231.874 229.36C231.844 228.49 231.534 227.52 230.844 226.89C230.124 226.22 229.344 225.97 228.374 225.86L228.384 225.85Z" fill="black"/>
<path d="M220.913 342.1C217.873 341 214.663 340.51 211.533 339.7C205.203 338.04 199.233 334.98 194.193 330.81C192.973 329.8 191.773 328.71 190.313 328.07C185.723 326.05 180.553 329.15 176.823 332.49C174.203 334.84 171.753 337.39 169.313 339.94C166.043 343.35 162.773 346.77 159.783 350.42C154.613 356.74 150.253 363.93 148.513 371.91C146.843 379.56 147.853 388.02 152.303 394.43C171.813 392 189.453 388.26 189.453 388.26C189.453 388.26 217.763 394.26 242.313 396C242.573 395.52 242.603 394.93 242.613 394.37C242.743 384.27 242.843 373.97 239.893 364.31C236.943 354.65 230.393 345.54 220.893 342.1H220.913Z" fill="white"/>
<path d="M179.254 251.64C187.094 253.84 195.704 253.47 203.304 250.56C205.544 249.7 207.704 248.67 209.754 247.42C210.864 246.74 211.394 245.15 210.654 244C209.914 242.85 208.424 242.37 207.234 243.1C206.434 243.59 205.624 244.05 204.794 244.47C204.394 244.67 203.994 244.87 203.584 245.06C203.364 245.16 203.144 245.26 202.924 245.36C202.824 245.4 202.734 245.44 202.634 245.48C202.954 245.34 202.784 245.42 202.564 245.51C200.834 246.21 199.044 246.77 197.224 247.19C196.314 247.4 195.394 247.58 194.474 247.72C194.344 247.74 194.194 247.78 194.064 247.78C194.084 247.78 194.514 247.73 194.214 247.76C194.004 247.78 193.804 247.81 193.594 247.83C193.074 247.89 192.564 247.93 192.044 247.97C190.184 248.1 188.304 248.08 186.444 247.92C186.164 247.9 185.894 247.87 185.614 247.84C185.514 247.83 185.404 247.82 185.304 247.8C185.244 247.8 184.794 247.74 185.124 247.78C185.454 247.82 185.094 247.78 185.044 247.77C184.874 247.74 184.704 247.72 184.534 247.69C184.294 247.65 184.054 247.61 183.814 247.57C182.724 247.37 181.644 247.12 180.584 246.82C179.324 246.47 177.804 247.25 177.504 248.57C177.204 249.9 177.904 251.27 179.254 251.65V251.64Z" fill="black"/>
<path d="M154.714 346.96L164.574 350.11L163.854 354.85L152.604 353.7L154.714 346.96Z" fill="#D6AF43"/>
<path d="M231.903 346.98L242.173 348.33L242.303 353.12L231.033 353.99L231.903 346.98Z" fill="#D6AF43"/>
<path d="M228.335 320.09C216.185 319.24 203.765 320.38 192.305 323.39C188.315 324.44 184.075 325.97 182.515 328.8C180.945 331.65 182.635 334.88 184.865 337.5C193.815 347.94 216.995 357.24 233.745 354.65" fill="#D6AF43"/>
<path d="M228.334 317.59C219.194 316.96 210.004 317.45 200.974 318.98C196.834 319.68 192.624 320.52 188.644 321.88C184.984 323.13 180.674 325.2 179.634 329.32C178.594 333.44 181.364 337.55 184.164 340.45C186.314 342.68 188.804 344.59 191.384 346.3C197.234 350.17 203.834 353.03 210.564 354.98C217.314 356.94 224.544 358.09 231.574 357.43C232.524 357.34 233.464 357.22 234.404 357.07C235.704 356.87 236.534 355.17 236.154 353.99C235.694 352.58 234.464 352.03 233.074 352.24C232.974 352.26 232.324 352.35 232.744 352.29C233.164 352.23 232.594 352.31 232.494 352.32C232.104 352.37 231.704 352.41 231.314 352.44C230.544 352.51 229.764 352.55 228.994 352.57C227.364 352.62 225.734 352.57 224.114 352.45C223.294 352.39 222.484 352.31 221.664 352.21C221.484 352.19 221.294 352.16 221.114 352.14C220.654 352.08 221.564 352.2 220.954 352.12C220.524 352.06 220.094 351.99 219.674 351.92C218.004 351.64 216.354 351.3 214.714 350.9C211.384 350.08 208.114 349.02 204.934 347.74C204.734 347.66 204.534 347.58 204.334 347.49C204.254 347.46 203.724 347.23 204.034 347.36C204.344 347.49 203.764 347.24 203.654 347.19C203.454 347.1 203.264 347.02 203.064 346.93C202.314 346.59 201.564 346.25 200.824 345.88C199.354 345.16 197.914 344.4 196.514 343.57C195.204 342.8 193.924 341.98 192.674 341.11C192.384 340.91 192.104 340.7 191.824 340.49C191.674 340.38 191.524 340.27 191.374 340.15C190.924 339.81 191.644 340.36 191.314 340.11C190.754 339.66 190.194 339.21 189.654 338.74C188.684 337.89 187.754 336.99 186.894 336.02C186.634 335.73 186.394 335.43 186.144 335.13C185.964 334.91 186.184 335.18 186.204 335.21C186.144 335.12 186.074 335.04 186.014 334.95C185.844 334.72 185.684 334.48 185.534 334.25C185.294 333.87 185.064 333.48 184.864 333.07C184.824 332.98 184.784 332.88 184.734 332.79C184.564 332.46 184.864 333.18 184.754 332.83C184.684 332.61 184.604 332.4 184.534 332.18C184.464 331.96 184.434 331.74 184.384 331.52C184.314 331.23 184.424 331.71 184.404 331.72C184.414 331.72 184.384 331.46 184.384 331.44C184.374 331.22 184.384 331.01 184.384 330.79C184.384 330.69 184.474 330.46 184.384 330.75C184.284 331.09 184.414 330.69 184.434 330.62C184.464 330.5 184.514 330.38 184.544 330.25C184.604 329.96 184.474 330.39 184.474 330.39C184.474 330.25 184.654 330.02 184.734 329.9C184.784 329.81 184.844 329.72 184.904 329.63C185.044 329.39 184.964 329.64 184.894 329.63C184.704 329.85 184.874 329.63 184.894 329.63C184.964 329.55 185.034 329.47 185.104 329.39C185.334 329.14 185.794 328.88 185.954 328.6C185.954 328.61 185.564 328.88 185.794 328.73C185.864 328.68 185.934 328.63 186.004 328.58C186.204 328.44 186.394 328.31 186.604 328.19C186.944 327.98 187.294 327.79 187.654 327.61C187.824 327.52 187.994 327.44 188.164 327.36C188.254 327.32 188.344 327.28 188.424 327.24C188.994 326.98 188.114 327.36 188.454 327.23C192.154 325.8 196.074 324.94 199.964 324.19C201.004 323.99 202.044 323.81 203.084 323.64C203.584 323.56 204.094 323.48 204.594 323.41C204.824 323.38 205.064 323.34 205.294 323.31C205.454 323.29 205.604 323.27 205.764 323.25C205.504 323.29 205.594 323.27 205.804 323.25C207.914 322.98 210.034 322.76 212.164 322.61C216.474 322.3 220.794 322.23 225.114 322.4C226.184 322.44 227.254 322.5 228.314 322.58C229.624 322.67 230.874 321.37 230.814 320.08C230.754 318.65 229.714 317.68 228.314 317.58L228.334 317.59Z" fill="black"/>
<path d="M154.344 318.74C161.944 316.47 169.844 315.16 177.714 314.18C182.984 313.53 188.534 313.05 193.484 315.33C198.434 317.6 202.434 323.54 201.014 329.04C200.324 331.75 198.484 333.89 196.614 335.81C186.344 346.31 173.004 353.27 158.884 355.48" fill="#D6AF43"/>
<path d="M155.004 321.15C158.854 320.01 162.764 319.1 166.704 318.37C168.604 318.02 170.504 317.7 172.414 317.41C173.364 317.27 174.324 317.13 175.274 317C176.064 316.89 174.774 317.06 175.564 316.96C175.804 316.93 176.044 316.9 176.284 316.87C176.834 316.8 177.384 316.73 177.934 316.66C179.704 316.44 181.484 316.25 183.264 316.18C184.154 316.14 185.044 316.14 185.934 316.18C186.374 316.2 186.824 316.23 187.264 316.27C187.484 316.29 187.704 316.32 187.924 316.34C188.214 316.38 188.214 316.38 187.924 316.34C188.074 316.36 188.214 316.38 188.364 316.41C189.234 316.56 190.104 316.76 190.944 317.03C191.374 317.17 191.794 317.32 192.204 317.49C191.784 317.32 192.154 317.47 192.224 317.51C192.434 317.61 192.644 317.71 192.854 317.82C193.474 318.15 194.134 318.52 194.664 318.98C194.174 318.55 194.634 318.97 194.724 319.05C194.864 319.17 195.004 319.29 195.134 319.41C195.454 319.7 195.754 320 196.044 320.32C196.284 320.59 196.564 320.86 196.764 321.16C196.414 320.63 196.744 321.16 196.814 321.25C196.924 321.4 197.024 321.55 197.124 321.71C197.324 322.02 197.514 322.33 197.684 322.66C197.774 322.82 197.854 322.98 197.934 323.15C197.984 323.26 198.044 323.37 198.094 323.48C198.204 323.73 198.194 323.7 198.054 323.38C198.004 323.52 198.314 324.1 198.364 324.23C198.474 324.57 198.564 324.92 198.644 325.27C198.684 325.45 198.714 325.62 198.744 325.8C198.864 326.4 198.714 325.23 198.744 325.85C198.764 326.27 198.794 326.68 198.784 327.1C198.784 327.28 198.764 327.46 198.754 327.64C198.724 328.25 198.874 327.09 198.754 327.69C198.674 328.07 198.604 328.44 198.484 328.8C198.424 329 198.354 329.19 198.284 329.39C198.074 330.03 198.524 328.95 198.214 329.55C197.994 329.98 197.784 330.4 197.534 330.8C197.314 331.15 197.084 331.48 196.844 331.81C196.464 332.35 197.064 331.56 196.794 331.87C196.684 332 196.584 332.13 196.474 332.26C195.904 332.94 195.304 333.58 194.684 334.21C193.474 335.44 192.214 336.63 190.914 337.76C190.294 338.3 189.664 338.84 189.024 339.36C188.754 339.58 188.494 339.79 188.224 340C188.064 340.13 187.904 340.25 187.734 340.38C188.204 340.01 187.504 340.55 187.424 340.61C184.754 342.62 181.934 344.43 178.994 346.03C177.324 346.94 175.614 347.78 173.884 348.54C173.694 348.62 173.514 348.7 173.324 348.78C173.064 348.89 173.074 348.89 173.364 348.77C173.244 348.82 173.114 348.87 172.984 348.93C172.544 349.11 172.104 349.29 171.664 349.46C170.844 349.78 170.014 350.08 169.184 350.36C165.604 351.58 161.934 352.49 158.194 353.08C156.894 353.28 156.064 354.97 156.444 356.16C156.904 357.57 158.134 358.13 159.524 357.91C166.554 356.8 173.364 354.52 179.714 351.31C186.124 348.07 192.044 343.79 197.184 338.78C199.854 336.17 202.624 333.23 203.474 329.47C204.274 325.93 203.404 322.21 201.434 319.19C199.464 316.17 196.474 313.77 192.984 312.47C189.264 311.09 185.154 311 181.244 311.33C177.084 311.68 172.924 312.3 168.804 312.97C164.724 313.64 160.664 314.46 156.664 315.51C155.654 315.78 154.654 316.06 153.654 316.35C152.404 316.72 151.484 318.12 151.904 319.43C152.314 320.7 153.634 321.57 154.984 321.18L155.004 321.15Z" fill="black"/>
<path d="M199.683 384.57C199.023 384.57 198.363 384.43 197.763 384.17L184.423 378.37C184.323 378.33 184.213 378.31 184.093 378.31C183.953 378.31 183.813 378.34 183.703 378.4L175.293 383.17C174.583 383.57 173.773 383.79 172.933 383.79C172.093 383.79 171.253 383.57 170.543 383.16L162.313 378.39C162.203 378.33 162.073 378.29 161.923 378.29C161.773 378.29 161.643 378.32 161.533 378.38L154.593 382.36C153.883 382.77 153.063 382.98 152.213 382.98C151.073 382.98 149.993 382.59 149.153 381.88L144.803 378.16C144.703 378.07 144.523 378.02 144.343 378.02C144.163 378.02 144.003 378.07 143.893 378.15L139.233 381.84C138.423 382.48 137.383 382.84 136.303 382.84C135.223 382.84 134.223 382.5 133.413 381.87L127.943 377.64C127.833 377.56 127.673 377.51 127.503 377.51C127.333 377.51 127.183 377.55 127.073 377.63L122.723 380.73C121.943 381.29 120.963 381.59 119.973 381.59C119.163 381.59 118.373 381.39 117.683 381.01L111.533 377.66C111.433 377.6 111.293 377.57 111.153 377.57C111.013 377.57 110.893 377.6 110.783 377.65L104.943 380.69C104.263 381.05 103.493 381.23 102.733 381.23C101.263 381.23 99.8833 380.56 99.0333 379.45C98.2833 378.46 98.0433 377.22 98.3733 376.04L104.293 354.84C104.803 353.01 106.593 351.73 108.633 351.73C108.763 351.73 108.893 351.73 109.033 351.75C119.133 352.57 155.173 355.25 194.843 355.25C224.053 355.25 248.533 353.79 267.613 350.91C267.863 350.87 268.103 350.85 268.353 350.85C270.613 350.85 272.483 352.34 272.803 354.4L276.133 375.83C276.313 376.97 275.983 378.1 275.223 378.99C274.373 379.98 273.053 380.57 271.683 380.57C270.893 380.57 270.113 380.37 269.423 380L260.743 375.35C260.633 375.29 260.513 375.26 260.373 375.26C260.133 375.26 259.953 375.35 259.883 375.44L254.973 381.33C254.113 382.36 252.823 382.95 251.413 382.95C250.283 382.95 249.193 382.56 248.363 381.85L242.483 376.85C242.373 376.76 242.203 376.71 242.023 376.71C241.863 376.71 241.713 376.75 241.613 376.82L231.163 383.72C230.393 384.23 229.493 384.49 228.543 384.49C227.823 384.49 227.103 384.33 226.473 384.03L212.843 377.52C212.743 377.47 212.623 377.45 212.493 377.45C212.343 377.45 212.193 377.49 212.083 377.56L202.163 383.83C201.413 384.3 200.533 384.56 199.623 384.56L199.683 384.57Z" fill="#7F4F08"/>
<path d="M268.403 352.87C269.633 352.87 270.703 353.64 270.873 354.73L274.203 376.16C274.413 377.53 273.143 378.6 271.723 378.6C271.283 378.6 270.833 378.5 270.413 378.27L261.733 373.62C261.323 373.4 260.873 373.3 260.413 373.3C259.633 373.3 258.873 373.61 258.383 374.2L253.473 380.09C252.983 380.68 252.213 380.99 251.443 380.99C250.813 380.99 250.183 380.79 249.693 380.37L243.813 375.37C243.333 374.96 242.693 374.75 242.063 374.75C241.533 374.75 240.993 374.9 240.543 375.19L230.093 382.09C229.653 382.38 229.113 382.53 228.573 382.53C228.163 382.53 227.743 382.44 227.363 382.26L213.733 375.75C213.353 375.57 212.943 375.48 212.523 375.48C212.003 375.48 211.483 375.62 211.043 375.9L201.123 382.17C200.683 382.45 200.173 382.59 199.643 382.59C199.263 382.59 198.873 382.51 198.523 382.36L185.183 376.56C184.833 376.41 184.443 376.33 184.063 376.33C183.583 376.33 183.103 376.45 182.693 376.68L174.283 381.45C173.863 381.69 173.393 381.8 172.913 381.8C172.433 381.8 171.943 381.68 171.523 381.43L163.293 376.66C162.873 376.42 162.383 376.29 161.903 376.29C161.423 376.29 160.943 376.41 160.523 376.65L153.583 380.63C153.163 380.87 152.683 380.99 152.203 380.99C151.563 380.99 150.923 380.78 150.443 380.37L146.093 376.65C145.613 376.24 144.973 376.03 144.333 376.03C143.693 376.03 143.123 376.22 142.643 376.6L137.983 380.29C137.503 380.67 136.903 380.86 136.293 380.86C135.683 380.86 135.103 380.68 134.633 380.31L129.153 376.08C128.683 375.71 128.083 375.53 127.493 375.53C126.933 375.53 126.363 375.69 125.903 376.02L121.553 379.12C121.093 379.45 120.533 379.61 119.963 379.61C119.503 379.61 119.043 379.5 118.633 379.28L112.483 375.93C112.073 375.71 111.613 375.6 111.153 375.6C110.693 375.6 110.263 375.7 109.863 375.91L104.023 378.95C103.603 379.17 103.163 379.27 102.733 379.27C101.233 379.27 99.9027 378.06 100.303 376.61L106.223 355.41C106.493 354.44 107.503 353.76 108.643 353.76C108.723 353.76 108.803 353.76 108.883 353.76C117.973 354.5 154.693 357.27 194.863 357.27C219.823 357.27 246.123 356.2 267.933 352.91C268.083 352.89 268.223 352.88 268.373 352.88M268.373 348.88C268.023 348.88 267.683 348.91 267.333 348.96C248.353 351.82 223.963 353.27 194.853 353.27C155.243 353.27 119.283 350.6 109.203 349.78C109.013 349.76 108.833 349.76 108.643 349.76C105.703 349.76 103.123 351.64 102.373 354.33L96.4527 375.53C95.9527 377.32 96.3127 379.2 97.4427 380.69C98.6627 382.3 100.643 383.26 102.733 383.26C103.823 383.26 104.903 382.99 105.873 382.49L111.143 379.75L116.723 382.79C117.713 383.33 118.833 383.61 119.973 383.61C121.373 383.61 122.763 383.17 123.883 382.38L127.473 379.82L132.203 383.47C133.353 384.36 134.813 384.85 136.313 384.85C137.813 384.85 139.313 384.34 140.483 383.42L144.313 380.39L147.853 383.41C149.043 384.43 150.593 384.99 152.203 384.99C153.393 384.99 154.553 384.68 155.573 384.1L161.903 380.47L169.523 384.89C170.543 385.48 171.723 385.79 172.923 385.79C174.123 385.79 175.263 385.49 176.263 384.92L184.143 380.45L196.943 386.02C197.803 386.39 198.713 386.58 199.663 386.58C200.953 386.58 202.203 386.22 203.273 385.55L212.613 379.65L225.653 385.88C226.553 386.31 227.573 386.54 228.583 386.54C229.923 386.54 231.213 386.16 232.303 385.43L241.963 379.05L247.103 383.42C248.293 384.43 249.843 384.99 251.443 384.99C253.453 384.99 255.313 384.14 256.543 382.65L260.723 377.63L268.503 381.8C269.483 382.33 270.593 382.6 271.703 382.6C273.643 382.6 275.543 381.75 276.763 380.32C277.893 379 278.393 377.26 278.133 375.55L274.803 354.12C274.333 351.08 271.623 348.88 268.383 348.88H268.373Z" fill="#0F0F0F"/>
</g>
<defs>
<clipPath id="clip0_873_2045">
<rect width="380.54" height="573" fill="white" transform="translate(0.113281)"/>
</clipPath>
</defs>
</svg>
