<svg width="382" height="573" viewBox="0 0 382 573" fill="none" xmlns="http://www.w3.org/2000/svg">
<g clip-path="url(#clip0_873_1083)">
<path d="M358.842 0H22.8423C10.5429 0 0.572266 9.97062 0.572266 22.27V550.73C0.572266 563.029 10.5429 573 22.8423 573H358.842C371.142 573 381.112 563.029 381.112 550.73V22.27C381.112 9.97062 371.142 0 358.842 0Z" fill="#FFBA35"/>
<path d="M319.803 95.66C338.58 95.66 353.803 80.4377 353.803 61.66C353.803 42.8823 338.58 27.66 319.803 27.66C301.025 27.66 285.803 42.8823 285.803 61.66C285.803 80.4377 301.025 95.66 319.803 95.66Z" fill="white"/>
<path d="M319.535 56.1996C321.29 56.1996 322.934 56.4086 324.466 56.8265C326.026 57.2444 327.364 57.8991 328.478 58.7906C329.565 59.6821 330.414 60.8244 331.027 62.2174C331.64 63.5825 331.905 65.2124 331.821 67.1068C331.738 69.3635 331.473 71.2858 331.027 72.8739C330.582 74.434 329.871 75.6599 328.896 76.5514C327.893 77.415 326.5 78.0419 324.717 78.4319C322.934 78.7941 321.039 78.9752 319.034 78.9752C315.077 78.9752 312.069 78.0976 310.007 76.3424C307.945 74.5594 306.873 71.6619 306.789 67.6501V55.6146C306.873 51.9371 308.001 49.2346 310.174 47.5073C312.375 45.7521 315.245 44.8188 318.783 44.7074L328.645 44.7492C328.617 46.2815 328.478 47.4795 328.227 48.3431C328.004 49.1789 327.67 49.7918 327.224 50.1819C326.779 50.6276 326.249 50.8923 325.636 50.9759C325.023 51.0595 324.341 51.1013 323.589 51.1013H319.702C318.727 51.157 317.919 51.3659 317.278 51.7281C316.665 52.0903 316.178 52.5361 315.816 53.0654C315.454 53.5669 315.203 54.138 315.063 54.7788C314.924 55.3917 314.855 55.9628 314.855 56.4922V56.8683C315.412 56.6733 316.094 56.52 316.902 56.4086C317.71 56.2693 318.588 56.1996 319.535 56.1996ZM314.855 68.5695C314.855 69.0988 314.896 69.6421 314.98 70.1993C315.091 70.7286 315.286 71.2162 315.565 71.6619C315.844 72.1356 316.248 72.5117 316.777 72.7903C317.306 73.0689 318.003 73.2082 318.866 73.2082C320.761 73.2082 322.14 72.8321 323.004 72.0798C323.867 71.2998 324.299 69.9486 324.299 68.0262C324.299 65.9924 323.825 64.5855 322.878 63.8054C321.959 63.0254 320.287 62.6353 317.863 62.6353C317.39 62.6353 316.874 62.7189 316.317 62.8861C315.788 63.0254 315.3 63.2064 314.855 63.4293V68.5695Z" fill="#FFBA35"/>
<path d="M80.2069 469.423C84.6417 469.423 88.7949 469.951 92.6665 471.006C96.6086 472.062 99.9874 473.717 102.803 475.969C105.549 478.222 107.695 481.108 109.244 484.628C110.793 488.077 111.462 492.195 111.25 496.982C111.039 502.683 110.37 507.541 109.244 511.553C108.118 515.495 106.323 518.592 103.859 520.845C101.325 523.027 97.8052 524.611 93.3001 525.597C88.7949 526.512 84.0081 526.969 78.9398 526.969C68.944 526.969 61.3415 524.752 56.1324 520.317C50.9233 515.812 48.2131 508.491 48.002 498.354V467.944C48.2131 458.652 51.0641 451.824 56.5547 447.46C62.1158 443.025 69.3663 440.667 78.3063 440.385L103.226 440.491C103.155 444.363 102.803 447.39 102.17 449.572C101.606 451.684 100.762 453.232 99.6355 454.218C98.5092 455.344 97.1717 456.013 95.623 456.224C94.0744 456.435 92.3498 456.541 90.4491 456.541H80.6293C78.1655 456.681 76.1241 457.209 74.505 458.125C72.9564 459.04 71.7245 460.166 70.8094 461.503C69.8943 462.77 69.2607 464.214 68.9088 465.833C68.5568 467.381 68.3808 468.824 68.3808 470.162V471.112C69.7887 470.619 71.5133 470.232 73.5547 469.951C75.5961 469.599 77.8135 469.423 80.2069 469.423ZM68.3808 500.677C68.3808 502.015 68.4864 503.387 68.6976 504.795C68.9792 506.133 69.4719 507.365 70.1759 508.491C70.8798 509.688 71.9005 510.638 73.238 511.342C74.5754 512.046 76.3353 512.398 78.5175 512.398C83.3042 512.398 86.7887 511.447 88.9709 509.547C91.1531 507.576 92.2442 504.162 92.2442 499.305C92.2442 494.166 91.0475 490.611 88.6541 488.64C86.3311 486.669 82.1075 485.683 75.9833 485.683C74.7866 485.683 73.4843 485.895 72.0765 486.317C70.739 486.669 69.5071 487.127 68.3808 487.69V500.677Z" fill="white"/>
<path d="M138.671 309.23H114.871V354.12H138.671V309.23Z" fill="#98CA51"/>
<path d="M267.693 312.52H243.893V354.86H267.693V312.52Z" fill="#98CA51"/>
<path d="M264.371 362.22L121.031 348.74V303.66H265.891L264.371 362.22Z" fill="#98CA51"/>
<path d="M266.833 310.23C269.693 308.29 272.453 306.2 275.283 304.21C277.043 302.97 278.783 301.72 280.433 300.34C284.143 297.24 287.483 293.7 290.223 289.74C297.323 279.5 299.453 267.15 297.263 255.06C296.753 252.24 296.033 249.46 295.153 246.74C295.153 246.74 291.673 229.33 264.803 207.05C265.803 203.82 266.343 200.41 266.343 196.87C266.343 177.41 250.133 161.64 230.133 161.64C213.023 161.64 198.703 173.19 194.913 188.7C194.303 188.58 191.313 188.6 190.123 188.62C188.923 188.61 185.933 188.58 185.333 188.7C181.543 173.18 167.223 161.64 150.113 161.64C130.113 161.64 113.903 177.41 113.903 196.87C113.903 200.41 114.443 203.83 115.443 207.05C88.5625 229.32 85.0925 246.74 85.0925 246.74C84.2125 249.47 83.4925 252.25 82.9825 255.06C80.7925 267.15 82.9225 279.5 90.0225 289.74C92.7625 293.69 96.1025 297.23 99.8125 300.34C103.353 303.28 107.213 305.86 111.263 308.1C112.783 308.94 114.833 309.93 115.433 310.49" fill="#98CA51"/>
<path d="M115.432 313.99C114.602 313.99 113.772 313.7 113.102 313.11C112.762 312.86 111.632 312.27 110.952 311.9C110.482 311.65 110.002 311.4 109.572 311.16C105.212 308.75 101.182 306.02 97.5818 303.03C93.4718 299.59 89.9618 295.79 87.1518 291.73C79.8118 281.14 77.1118 267.89 79.5418 254.43C80.0518 251.62 80.7818 248.72 81.7118 245.81C82.2318 243.56 86.8118 226.82 111.472 205.81C110.762 202.88 110.402 199.88 110.402 196.86C110.402 175.51 128.212 158.13 150.112 158.13C167.592 158.13 182.752 169.08 187.942 185.1C188.552 185.1 189.282 185.1 190.162 185.11C191.002 185.11 191.702 185.11 192.302 185.1C197.502 169.09 212.662 158.13 230.132 158.13C252.022 158.13 269.842 175.5 269.842 196.86C269.842 199.88 269.482 202.88 268.772 205.81C293.432 226.83 298.012 243.57 298.532 245.81C299.462 248.72 300.192 251.62 300.702 254.43C303.142 267.89 300.442 281.14 293.092 291.73C290.282 295.79 286.772 299.59 282.672 303.02C281.012 304.41 279.322 305.64 277.292 307.07C276.172 307.86 275.062 308.66 273.962 309.46C272.292 310.67 270.562 311.93 268.802 313.12C267.202 314.2 265.022 313.78 263.942 312.18C262.862 310.58 263.282 308.4 264.882 307.32C266.552 306.19 268.232 304.97 269.862 303.79C271.002 302.97 272.132 302.14 273.282 301.34C275.172 300.01 276.732 298.88 278.202 297.64C281.822 294.61 284.902 291.28 287.362 287.74C293.642 278.68 295.942 267.29 293.832 255.67C293.372 253.11 292.702 250.46 291.842 247.79L291.742 247.4C291.712 247.26 287.952 230.74 262.592 209.72L260.792 208.23L261.482 205.99C262.402 203.02 262.872 199.95 262.872 196.84C262.872 179.34 248.202 165.11 230.162 165.11C214.932 165.11 201.852 175.14 198.342 189.5L197.552 192.75L194.362 192.12C193.992 192.09 192.632 192.05 190.192 192.09C187.672 192.06 186.312 192.09 185.942 192.12L182.752 192.75L181.962 189.5C178.462 175.14 165.372 165.11 150.142 165.11C132.112 165.11 117.432 179.34 117.432 196.84C117.432 199.94 117.902 203.02 118.822 205.99L119.512 208.23L117.712 209.72C92.3518 230.74 88.5918 247.25 88.5518 247.42L88.4518 247.79C87.5918 250.46 86.9218 253.11 86.4618 255.66C84.3618 267.28 86.6518 278.67 92.9318 287.73C95.3918 291.27 98.4718 294.61 102.092 297.64C105.342 300.34 109.012 302.83 112.982 305.02C113.382 305.24 113.812 305.47 114.252 305.7C116.002 306.63 117.112 307.23 117.852 307.93C119.262 309.25 119.332 311.47 118.002 312.88C117.312 313.61 116.382 313.98 115.452 313.98L115.432 313.99ZM113.032 313.04C113.032 313.04 113.052 313.06 113.072 313.08C113.062 313.07 113.042 313.06 113.032 313.04ZM194.242 192.13C194.242 192.13 194.242 192.13 194.252 192.13H194.242ZM186.002 192.13H185.992C185.992 192.13 185.992 192.13 186.002 192.13Z" fill="black"/>
<path d="M117.243 344.74C115.763 364.46 117.813 384.42 117.813 384.42L111.893 391.01C108.633 394.64 110.773 400.44 115.603 401.08C140.043 404.28 191.143 393.46 191.143 393.46C191.143 393.46 244.023 404.66 267.923 400.9C272.213 400.23 274.023 395.05 271.133 391.83L264.483 384.42C264.483 384.42 264.883 369.01 264.593 355.48V346.78" fill="#98CA51"/>
<g style="mix-blend-mode:multiply" opacity="0.6">
<path d="M210.982 190.11C210.472 184.98 207.102 180.16 203.252 176.89C197.952 172.4 192.412 174.31 187.312 178.09C183.602 180.84 175.552 186.32 178.582 191.9C181.102 196.55 184.772 200.19 188.642 203.71C191.422 206.24 194.342 208.93 198.372 207.61C204.042 205.75 209.742 199.6 210.842 193.78C211.072 192.55 211.112 191.32 210.992 190.1L210.982 190.11Z" fill="#B2B6B5"/>
</g>
<path d="M207.592 186.55C207.082 181.42 203.712 176.6 199.862 173.33C194.562 168.84 189.022 170.75 183.922 174.53C180.202 177.28 172.162 182.76 175.192 188.35C177.712 193 181.382 196.64 185.252 200.16C188.032 202.69 190.952 205.38 194.982 204.06C200.652 202.2 206.352 196.05 207.442 190.23C207.672 189 207.712 187.77 207.592 186.55Z" fill="#908882"/>
<path d="M192.883 204.7C189.803 204.7 187.413 202.52 185.103 200.42L185.053 200.37C181.543 197.18 177.583 193.37 174.933 188.48C171.943 182.97 179.223 177.62 183.133 174.75L183.753 174.3C187.263 171.7 190.373 170.44 193.263 170.44C195.673 170.44 197.953 171.34 200.053 173.12C204.493 176.89 207.423 181.9 207.883 186.53C208.013 187.81 207.963 189.07 207.733 190.29C206.643 196.11 200.963 202.42 195.073 204.34C194.343 204.58 193.603 204.7 192.893 204.7H192.883ZM193.253 171.02C190.483 171.02 187.483 172.25 184.083 174.77L183.463 175.22C179.693 177.99 172.683 183.14 175.433 188.21C178.033 193.02 181.963 196.79 185.433 199.95L185.483 200C187.713 202.03 190.013 204.13 192.873 204.13C193.523 204.13 194.203 204.02 194.873 203.8C200.583 201.93 206.083 195.83 207.143 190.19C207.363 189.03 207.413 187.82 207.293 186.59C206.843 182.1 203.993 177.23 199.663 173.56C197.673 171.87 195.523 171.02 193.253 171.02Z" fill="#626262"/>
<path d="M192.882 205.7C189.412 205.7 186.762 203.29 184.432 201.17C180.812 197.87 176.772 193.99 174.052 188.97C170.652 182.69 178.382 177.01 182.532 173.96L183.142 173.51C186.822 170.78 190.132 169.45 193.252 169.45C195.902 169.45 198.402 170.43 200.682 172.36C205.322 176.29 208.382 181.55 208.862 186.44C209.002 187.81 208.942 189.17 208.692 190.48C207.542 196.62 201.562 203.27 195.362 205.3C194.522 205.57 193.692 205.71 192.872 205.71L192.882 205.7ZM193.252 172.02C190.702 172.02 187.902 173.18 184.682 175.57L184.062 176.03C180.542 178.62 173.992 183.44 176.322 187.74C178.852 192.41 182.702 196.11 186.112 199.21C188.252 201.16 190.412 203.12 192.882 203.12C193.432 203.12 194.002 203.03 194.572 202.84C199.972 201.08 205.172 195.31 206.172 190C206.372 188.93 206.422 187.82 206.302 186.69C205.882 182.45 203.162 177.83 199.022 174.33C197.222 172.8 195.282 172.03 193.252 172.03V172.02Z" fill="#0F0F0F"/>
<g style="mix-blend-mode:multiply" opacity="0.4">
<path d="M207.592 186.55C207.082 181.42 203.712 176.6 199.862 173.33C194.562 168.84 189.022 170.75 183.922 174.53C180.202 177.28 172.162 182.76 175.192 188.35C177.712 193 181.382 196.64 185.252 200.16C188.032 202.69 190.952 205.38 194.982 204.06C200.652 202.2 206.352 196.05 207.442 190.23C207.672 189 207.712 187.77 207.592 186.55ZM195.962 191.02C195.772 193.54 195.502 199.15 192.172 199.71C189.672 200.13 186.872 197.45 185.222 195.93C182.532 193.47 179.552 191.06 177.572 187.96C176.742 186.65 176.102 185.41 176.592 183.86C177.002 182.56 178.272 181.51 179.262 180.65C181.142 179.03 183.042 177.4 185.082 175.99C187.032 174.18 189.282 172.3 191.972 172.48C194.572 172.65 195.112 175.95 195.432 177.98C196.102 182.25 196.292 186.72 195.962 191.03V191.02Z" fill="#908882"/>
</g>
<g style="mix-blend-mode:multiply" opacity="0.4">
<path d="M176.652 186.2C176.452 185.62 176.362 185.03 176.462 184.38C175.872 184.2 175.292 184.06 174.822 184.01C174.502 184.99 174.432 185.99 174.672 187C175.332 186.73 175.992 186.46 176.652 186.2Z" fill="#908882"/>
</g>
<g style="mix-blend-mode:multiply" opacity="0.4">
<path d="M192.802 199.53C192.602 199.61 192.392 199.68 192.172 199.71C191.922 199.75 191.672 199.76 191.412 199.74C191.532 201.29 191.722 202.83 192.042 204.34C192.952 204.47 193.932 204.4 194.972 204.06C195.072 204.03 195.172 203.98 195.272 203.95C194.372 202.52 193.522 201.05 192.802 199.53Z" fill="#908882"/>
</g>
<g style="mix-blend-mode:multiply" opacity="0.4">
<path d="M195.953 182.49C196.173 185.33 196.183 188.21 195.963 191.02C195.853 192.39 195.723 194.69 195.093 196.59C196.913 195.67 198.963 195.05 200.683 194.23C203.013 193.12 205.193 191.75 207.403 190.41C207.413 190.35 207.433 190.29 207.443 190.24C207.673 189.01 207.713 187.78 207.593 186.56C207.083 181.43 203.713 176.61 199.863 173.34C198.113 171.85 196.333 171.07 194.543 170.82C195.193 174.34 196.083 177.75 195.983 181.42C195.983 181.78 195.953 182.14 195.943 182.49H195.953Z" fill="#908882"/>
</g>
<g style="mix-blend-mode:screen" opacity="0.4">
<path d="M194.262 173.97C194.972 175.15 195.242 176.77 195.432 177.97C196.102 182.24 196.292 186.71 195.962 191.02C195.772 193.54 195.502 199.15 192.172 199.71C192.082 199.73 191.992 199.73 191.902 199.73C192.892 199.95 193.882 199.89 194.752 199.32C197.542 197.52 197.712 193.37 197.852 190.41C198.012 186.89 198.182 183.37 197.522 179.87C197.052 177.39 196.452 174.99 194.262 173.96V173.97Z" fill="white"/>
</g>
<g style="mix-blend-mode:multiply" opacity="0.4">
<path d="M182.932 180.72C182.702 180.54 182.452 180.59 182.232 180.72C181.972 180.8 181.762 181.03 181.632 181.28C181.442 181.67 181.292 182.4 181.792 182.61C182.042 182.71 182.442 182.5 182.612 182.33C182.882 182.05 183.082 181.77 183.162 181.38C183.202 181.17 183.112 180.85 182.942 180.71L182.932 180.72Z" fill="#908882"/>
</g>
<g style="mix-blend-mode:multiply" opacity="0.4">
<path d="M184.172 183.29C184.172 183.29 184.112 183.25 184.092 183.23C183.752 182.99 183.122 183.68 183.352 184.01C183.372 184.04 183.392 184.07 183.412 184.1C183.752 184.58 184.582 183.58 184.182 183.3L184.172 183.29Z" fill="#908882"/>
</g>
<g style="mix-blend-mode:multiply" opacity="0.4">
<path d="M187.321 188.76C187.321 188.76 187.281 188.72 187.241 188.7C187.161 188.64 187.001 188.81 187.051 188.89C187.021 188.94 187.021 188.99 187.081 189C187.111 189 187.141 189 187.181 189C187.271 189 187.401 188.83 187.321 188.76Z" fill="#908882"/>
</g>
<g style="mix-blend-mode:multiply" opacity="0.4">
<path d="M201.941 190.98C201.941 190.98 201.891 190.98 201.861 190.99C201.851 190.99 201.831 191 201.821 191.01C201.811 191.01 201.801 191.02 201.781 191.04C201.781 191.04 201.781 191.04 201.771 191.04C201.751 191.05 201.741 191.08 201.721 191.1C201.721 191.1 201.721 191.12 201.711 191.13C201.711 191.15 201.691 191.17 201.691 191.19C201.691 191.19 201.691 191.2 201.691 191.21C201.691 191.24 201.691 191.27 201.741 191.29H201.761C201.761 191.29 201.821 191.29 201.851 191.26C201.981 191.24 202.121 190.97 201.941 190.97V190.98Z" fill="#908882"/>
</g>
<g style="mix-blend-mode:multiply" opacity="0.4">
<path d="M202.921 184.81C202.941 184.63 202.911 184.46 202.821 184.34C202.771 184.28 202.721 184.27 202.641 184.29C202.551 184.32 202.481 184.37 202.411 184.43C202.421 184.35 202.341 184.31 202.251 184.4C202.101 184.55 202.041 184.8 202.041 185C202.041 185.19 202.101 185.54 202.361 185.53C202.641 185.52 202.831 185.25 202.891 184.95C202.911 184.9 202.921 184.85 202.911 184.81H202.921Z" fill="#908882"/>
</g>
<g style="mix-blend-mode:multiply" opacity="0.4">
<path d="M204.072 188.75C204.012 188.59 203.812 188.81 203.772 188.89C203.552 189.12 203.722 189.39 203.962 189.12C204.062 189.01 204.132 188.89 204.072 188.74V188.75Z" fill="#908882"/>
</g>
<g style="mix-blend-mode:multiply" opacity="0.4">
<path d="M203.383 194.21C203.233 194.17 203.093 194.21 202.963 194.33C202.693 194.31 202.543 194.57 202.463 194.78C202.373 195.01 202.303 195.36 202.513 195.53C202.763 195.75 203.133 195.47 203.303 195.28C203.353 195.23 203.363 195.21 203.353 195.22C203.393 195.18 203.423 195.14 203.453 195.09C203.523 194.98 203.553 194.86 203.583 194.73C203.633 194.54 203.593 194.28 203.383 194.21Z" fill="#908882"/>
</g>
<g style="mix-blend-mode:multiply" opacity="0.4">
<path d="M196.892 200.55C196.892 200.55 196.852 200.57 196.822 200.58C196.762 200.6 196.592 200.78 196.702 200.84C196.712 200.84 196.732 200.86 196.742 200.86C196.972 200.99 197.112 200.46 196.882 200.55H196.892Z" fill="#908882"/>
</g>
<g style="mix-blend-mode:multiply" opacity="0.4">
<path d="M187.562 200.01C187.542 199.86 187.382 199.91 187.282 200.03C187.282 200.03 187.262 200.01 187.252 200.01C187.142 199.94 186.992 200.14 187.032 200.24C187.122 200.47 187.252 200.75 187.532 200.58C187.632 200.52 187.712 200.4 187.722 200.29C187.742 200.14 187.572 200.13 187.562 200.02V200.01Z" fill="#908882"/>
</g>
<g style="mix-blend-mode:multiply" opacity="0.4">
<path d="M179.182 190.98C179.182 190.98 179.182 190.94 179.152 190.92C179.082 190.76 178.952 190.64 178.792 190.6C178.612 190.56 178.432 190.8 178.442 190.97C178.442 191.06 178.482 191.13 178.522 191.19C178.522 191.44 178.672 191.7 178.912 191.76C179.022 191.78 179.122 191.69 179.172 191.6C179.262 191.43 179.262 191.19 179.182 190.98Z" fill="#908882"/>
</g>
<g style="mix-blend-mode:multiply" opacity="0.4">
<path d="M185.983 193.16C185.983 193.16 185.953 193.2 185.943 193.22C185.903 193.22 185.853 193.22 185.813 193.22C185.553 193.3 185.493 193.6 185.523 193.84C185.563 194.13 185.813 194.38 186.083 194.47C186.403 194.58 186.713 194.28 186.903 194.06C187.423 193.48 186.543 192.5 185.973 193.15L185.983 193.16Z" fill="#908882"/>
</g>
<g style="mix-blend-mode:multiply" opacity="0.4">
<path d="M193.261 177.82C193.071 177.82 192.931 177.93 192.831 178.08C192.811 178.08 192.791 178.08 192.781 178.1C192.501 178.23 192.341 178.74 192.571 178.98C193.401 179.82 193.881 177.83 193.261 177.83V177.82Z" fill="#908882"/>
</g>
<g style="mix-blend-mode:multiply" opacity="0.4">
<path d="M183.372 175.65C183.292 175.69 183.222 175.74 183.162 175.79C182.992 175.83 182.852 176.04 182.802 176.19C182.792 176.23 182.782 176.3 182.822 176.33C183.072 176.53 183.602 175.99 183.542 175.73C183.522 175.65 183.452 175.61 183.372 175.65Z" fill="#908882"/>
</g>
<g style="mix-blend-mode:multiply" opacity="0.4">
<path d="M179.121 185.94C179.121 185.94 179.001 185.92 178.951 185.94C178.941 185.92 178.931 185.9 178.921 185.88C178.901 185.85 178.871 185.83 178.831 185.84C178.501 185.91 178.491 186.32 178.681 186.53C178.881 186.75 179.351 186.17 179.111 185.94H179.121Z" fill="#908882"/>
</g>
<g style="mix-blend-mode:multiply" opacity="0.4">
<path d="M199.742 180.39C199.692 180.33 199.622 180.36 199.562 180.41C199.552 180.41 199.532 180.41 199.512 180.41C199.282 180.53 199.162 181.05 199.432 181.18C199.592 181.25 199.722 181.1 199.802 180.97C199.922 180.78 199.872 180.54 199.732 180.37L199.742 180.39Z" fill="#908882"/>
</g>
<g style="mix-blend-mode:multiply" opacity="0.4">
<path d="M200.912 178C200.912 178 200.872 177.97 200.852 177.95C200.792 177.83 200.572 178.02 200.602 178.13C200.622 178.22 200.632 178.24 200.722 178.27C200.832 178.31 201.032 178.06 200.912 177.99V178Z" fill="#908882"/>
</g>
<g style="mix-blend-mode:multiply" opacity="0.4">
<path d="M196.382 172.77C196.382 172.77 196.382 172.71 196.352 172.69C196.312 172.67 196.292 172.63 196.282 172.59C196.282 172.59 196.272 172.57 196.262 172.57C196.192 172.49 196.092 172.61 196.042 172.71C196.042 172.68 196.032 172.65 196.042 172.63C196.062 172.58 195.992 172.6 195.982 172.63C195.922 172.76 196.112 173.25 196.292 173.19C196.472 173.13 196.452 172.94 196.392 172.78L196.382 172.77Z" fill="#908882"/>
</g>
<g style="mix-blend-mode:multiply" opacity="0.4">
<path d="M205.382 183.12C205.382 183.12 205.362 183.1 205.352 183.09C205.412 182.92 205.232 182.9 205.122 182.99C205.052 183.05 204.922 183.32 205.122 183.31C205.162 183.31 205.202 183.32 205.232 183.34C205.322 183.37 205.442 183.2 205.382 183.13V183.12Z" fill="#908882"/>
</g>
<g style="mix-blend-mode:multiply" opacity="0.4">
<path d="M199.343 190.63C199.313 190.69 199.283 190.75 199.253 190.81C199.223 190.85 199.173 190.91 199.203 190.96C199.203 190.96 199.203 190.96 199.203 190.97C199.223 191.01 199.283 191.01 199.323 190.98C199.453 190.88 199.533 190.81 199.583 190.64C199.653 190.43 199.403 190.49 199.343 190.62V190.63Z" fill="#908882"/>
</g>
<g style="mix-blend-mode:multiply" opacity="0.4">
<path d="M198.432 197.38C198.432 197.38 198.432 197.33 198.412 197.32C198.112 197.11 197.912 197.86 198.322 197.64C198.382 197.61 198.482 197.46 198.432 197.38Z" fill="#908882"/>
</g>
<path d="M232.782 396.13C240.572 387.72 245.312 376.74 245.312 364.71C245.312 338.29 222.552 316.88 194.482 316.88C166.412 316.88 143.652 338.3 143.652 364.71C143.652 376.49 148.192 387.28 155.702 395.61C174.882 393.26 192.032 389.75 192.032 389.75C192.032 389.75 211.912 393.82 232.802 396.13H232.782Z" fill="white"/>
<path d="M176.553 243.24C176.233 244.04 176.403 244.99 176.473 245.87C176.603 247.69 176.753 249.52 176.933 251.34C177.453 256.74 177.983 262.32 179.153 267.62C180.083 271.85 181.993 276.19 185.413 279C189.333 282.21 194.883 282.7 199.283 280.16C204.133 277.36 207.153 271.71 208.973 266.6C211.833 258.54 212.343 249.87 212.593 241.4C212.673 238.65 209.143 238.82 207.233 238.78C203.663 238.72 200.093 237.9 196.903 236.28C195.283 235.45 192.793 233.32 190.903 234.34C190.243 234.7 189.693 235.24 189.133 235.75C186.493 238.16 183.333 240.01 179.933 241.13C178.943 241.46 177.753 241.75 177.003 242.53C176.793 242.74 176.653 242.98 176.563 243.23L176.553 243.24Z" fill="#FF743E"/>
<path d="M174.142 242.58C173.672 243.96 173.932 245.45 174.042 246.87C174.152 248.28 174.272 249.69 174.402 251.1C174.662 253.79 174.922 256.48 175.252 259.17C175.892 264.38 176.592 269.71 178.882 274.5C180.992 278.9 184.712 282.61 189.542 283.83C191.942 284.44 194.492 284.44 196.902 283.83C199.312 283.22 201.452 281.93 203.332 280.32C206.842 277.31 209.112 273.06 210.802 268.82C212.742 263.95 213.732 258.78 214.332 253.59C214.632 250.97 214.812 248.33 214.932 245.7C214.992 244.39 215.042 243.07 215.082 241.76C215.122 240.45 214.692 241.17 213.772 240.16C212.422 238.67 210.902 238.55 208.992 238.49C208.092 238.46 206.682 236.3 205.782 236.23C205.482 236.21 205.192 236.18 204.892 236.15C204.822 236.15 204.352 236.08 204.672 236.13C204.992 236.18 204.522 236.11 204.452 236.1C203.792 236 203.132 235.87 202.482 235.71C201.902 235.57 201.332 235.41 200.762 235.22C200.482 235.13 200.202 235.03 199.922 234.93C199.782 234.88 199.642 234.83 199.502 234.77C199.402 234.73 199.292 234.69 199.192 234.65C199.412 234.74 199.442 234.76 199.272 234.68C198.342 234.24 197.462 233.76 196.582 233.22C194.432 231.92 191.832 230.89 189.462 232.31C188.332 232.99 187.422 234 186.412 234.84C186.302 234.93 186.192 235.02 186.082 235.11C185.562 235.54 186.342 234.93 186.002 235.17C185.772 235.33 185.552 235.5 185.322 235.66C184.832 236 184.332 236.33 183.822 236.64C183.312 236.95 182.792 237.24 182.262 237.51C182.012 237.64 181.762 237.76 181.502 237.88C181.372 237.94 181.252 238 181.122 238.06C180.912 238.15 180.712 238.24 181.042 238.1C180.002 238.53 178.922 238.82 177.882 239.22C176.472 239.76 175.002 243.47 174.402 242.01C173.882 240.74 174.012 244.75 175.302 245.43C176.392 246.01 178.152 245.81 178.722 244.53C178.782 244.4 178.832 244.29 178.902 244.17C178.832 244.28 178.612 244.43 178.902 244.21C178.462 244.54 178.952 244.19 179.142 244.09C179.222 244.05 179.312 244.01 179.392 243.97C179.702 243.81 178.972 244.11 179.312 244.01C179.572 243.93 179.832 243.83 180.102 243.74C181.282 243.36 182.432 242.92 183.562 242.42C185.732 241.46 187.692 240.18 189.552 238.72C189.962 238.39 190.372 238.05 190.762 237.7C190.972 237.52 191.172 237.32 191.372 237.14C191.472 237.05 191.582 236.96 191.682 236.87C192.022 236.56 191.502 236.96 191.742 236.82C191.832 236.77 191.922 236.71 192.002 236.65C192.462 236.32 191.932 236.73 191.872 236.67C191.842 236.64 192.152 236.61 192.172 236.58C192.082 236.77 191.602 236.58 191.962 236.62C192.002 236.62 192.272 236.63 192.272 236.62C192.232 236.67 191.642 236.47 192.082 236.6C192.292 236.66 192.512 236.72 192.722 236.79C193.152 236.94 192.632 236.79 192.602 236.74C192.632 236.78 192.852 236.86 192.922 236.89C193.132 237 193.342 237.11 193.552 237.23C193.952 237.46 194.342 237.71 194.742 237.95C195.742 238.56 196.802 239.03 197.882 239.48C200.202 240.42 202.642 240.95 205.132 241.2C206.092 241.3 207.042 241.32 208.002 241.33C208.322 241.33 208.652 241.34 208.972 241.36C209.152 241.37 209.332 241.39 209.512 241.4C209.702 241.41 209.902 241.52 209.252 241.36C209.362 241.39 209.472 241.39 209.582 241.42C209.732 241.45 209.882 241.48 210.022 241.52C210.102 241.54 210.182 241.57 210.262 241.59C210.622 241.68 210.042 241.5 210.012 241.47C210.102 241.55 210.312 241.64 210.432 241.7C210.562 241.76 210.862 242.07 210.202 241.52C210.262 241.57 210.312 241.62 210.362 241.68C209.852 241.08 210.102 241.3 210.172 241.45C210.342 241.79 210.072 241.17 210.072 241.17C210.072 241.2 210.142 241.39 210.142 241.41C210.202 241.73 210.052 241.28 210.112 241.14C210.052 241.29 210.112 241.61 210.112 241.78C210.102 242.13 210.092 242.47 210.082 242.82C210.002 245.3 209.882 247.78 209.682 250.25C209.582 251.45 209.472 252.65 209.332 253.84C209.292 254.15 209.252 254.46 209.222 254.76C209.172 255.16 209.272 254.38 209.222 254.79C209.202 254.91 209.192 255.02 209.172 255.14C209.082 255.79 208.982 256.44 208.862 257.09C208.452 259.49 207.902 261.87 207.182 264.2C206.852 265.26 206.492 266.31 206.082 267.34C205.992 267.57 205.902 267.8 205.802 268.03C205.692 268.29 205.842 268.21 205.832 267.95C205.832 268.01 205.742 268.15 205.722 268.21C205.502 268.7 205.282 269.19 205.042 269.68C204.592 270.6 204.102 271.5 203.562 272.37C203.312 272.78 203.042 273.18 202.772 273.57C202.642 273.75 202.512 273.93 202.382 274.11C202.112 274.48 202.382 274.12 202.422 274.06C202.342 274.19 202.222 274.31 202.122 274.43C201.482 275.21 200.792 275.94 200.042 276.61C199.882 276.76 199.712 276.89 199.542 277.04C199.182 277.35 199.572 277.04 199.612 277C199.552 277.07 199.392 277.16 199.312 277.22C198.882 277.53 198.432 277.82 197.972 278.08C197.772 278.19 197.572 278.3 197.362 278.4C197.222 278.47 196.572 278.87 197.072 278.54C196.682 278.8 196.052 278.9 195.602 279.02C195.352 279.08 195.102 279.14 194.852 279.19C194.802 279.19 194.472 279.25 194.472 279.25C194.472 279.23 195.102 279.19 194.572 279.24C194.062 279.29 193.562 279.32 193.052 279.31C192.802 279.31 192.542 279.29 192.292 279.27C192.162 279.27 191.542 279.17 191.872 279.23C192.232 279.3 191.822 279.22 191.732 279.2C191.612 279.18 191.482 279.15 191.362 279.13C191.082 279.07 190.802 279 190.532 278.92C190.292 278.85 190.042 278.77 189.802 278.69C189.702 278.66 189.082 278.4 189.392 278.54C189.702 278.68 189.082 278.39 188.992 278.35C188.702 278.21 188.422 278.05 188.142 277.88C187.952 277.76 187.752 277.64 187.572 277.51C187.462 277.44 187.362 277.36 187.252 277.28C186.952 277.08 187.562 277.55 187.292 277.31C186.892 276.97 186.492 276.63 186.122 276.25C185.772 275.9 185.452 275.53 185.142 275.15C184.852 274.8 185.122 275.12 185.172 275.19C185.092 275.08 185.012 274.98 184.942 274.87C184.772 274.63 184.602 274.38 184.442 274.14C183.882 273.28 183.422 272.37 182.992 271.44C182.792 271.01 182.972 271.42 183.012 271.49C182.952 271.38 182.912 271.24 182.862 271.12C182.762 270.87 182.672 270.63 182.582 270.38C182.402 269.88 182.242 269.38 182.092 268.87C181.422 266.57 181.022 264.19 180.662 261.83C180.622 261.55 180.582 261.28 180.542 261C180.522 260.84 180.492 260.68 180.472 260.53C180.472 260.46 180.392 259.97 180.432 260.27C180.472 260.57 180.402 260.07 180.402 260.01C180.382 259.89 180.372 259.77 180.352 259.65C180.302 259.25 180.252 258.86 180.202 258.46C180.052 257.23 179.922 256 179.802 254.78C179.542 252.23 179.292 249.68 179.102 247.13C179.052 246.49 179.002 245.85 178.952 245.21C178.922 244.91 178.922 244.61 178.912 244.31C178.912 244.26 178.942 243.9 178.912 244.21C178.862 244.58 179.012 243.93 179.012 243.91C179.432 242.67 178.532 241.12 177.262 240.83C175.872 240.51 174.632 241.25 174.182 242.58H174.142Z" fill="black"/>
<path d="M171.131 225.18C174.218 225.18 176.721 222.677 176.721 219.59C176.721 216.503 174.218 214 171.131 214C168.044 214 165.541 216.503 165.541 219.59C165.541 222.677 168.044 225.18 171.131 225.18Z" fill="black"/>
<path d="M215.502 225.18C218.589 225.18 221.092 222.677 221.092 219.59C221.092 216.503 218.589 214 215.502 214C212.415 214 209.912 216.503 209.912 219.59C209.912 222.677 212.415 225.18 215.502 225.18Z" fill="black"/>
<path d="M227.041 239.45C226.781 238.09 225.471 237.21 224.121 237.46C223.951 237.5 206.601 240.62 195.021 230.6C194.651 230.28 194.211 230.09 193.751 230.02V229.99C193.681 229.99 193.611 229.99 193.541 230C193.471 230 193.401 229.98 193.331 229.99V230.02C192.881 230.09 192.431 230.28 192.061 230.6C180.481 240.62 163.141 237.5 162.961 237.46C161.611 237.2 160.301 238.09 160.041 239.45C159.781 240.81 160.671 242.12 162.031 242.37C162.281 242.42 164.241 242.78 167.241 242.92C173.351 243.21 183.731 242.58 192.551 236.53C193.151 236.11 193.941 236.11 194.541 236.53C203.361 242.58 213.741 243.21 219.851 242.92C222.851 242.78 224.811 242.42 225.061 242.37C226.421 242.11 227.311 240.8 227.051 239.45H227.041Z" fill="black"/>
<path d="M116.312 311.54C112.602 313.76 109.082 316.3 105.812 319.13C99.822 324.3 94.452 330.84 93.242 338.66C92.032 346.47 96.312 355.51 103.992 357.39C102.332 358.53 100.752 359.88 99.812 361.67C98.872 363.46 98.682 365.72 99.732 367.44C100.662 368.97 102.412 369.82 104.152 370.22C107.442 370.97 111.022 370.31 113.832 368.44" fill="#98CA51"/>
<path d="M115.053 309.39C110.773 311.96 106.703 314.95 102.993 318.3C99.7426 321.23 96.7626 324.56 94.4926 328.32C92.2426 332.06 90.6926 336.35 90.5426 340.74C90.4126 344.59 91.4026 348.54 93.3226 351.88C95.5026 355.68 99.0326 358.72 103.323 359.8C103.123 358.28 102.923 356.75 102.723 355.23C100.873 356.51 99.1526 357.96 97.9526 359.88C96.6926 361.9 96.1926 364.44 96.7626 366.77C97.9426 371.51 103.463 373.32 107.833 372.98C110.403 372.78 112.913 372.01 115.083 370.59C116.173 369.88 116.733 368.34 115.983 367.17C115.283 366.08 113.733 365.51 112.563 366.27C112.103 366.57 111.623 366.85 111.133 367.09C111.013 367.15 110.883 367.21 110.763 367.26C111.043 367.14 111.053 367.14 110.793 367.24C110.533 367.33 110.273 367.43 110.013 367.51C109.483 367.68 108.953 367.78 108.413 367.9C108.123 367.95 108.143 367.95 108.463 367.9C108.323 367.92 108.193 367.93 108.053 367.94C107.783 367.97 107.503 367.98 107.233 367.99C106.683 368.01 106.133 367.98 105.583 367.93C104.903 367.87 106.093 368.04 105.433 367.9C105.163 367.85 104.903 367.8 104.643 367.73C104.383 367.66 104.143 367.6 103.903 367.52C103.783 367.48 103.663 367.44 103.533 367.39C103.273 367.29 103.293 367.3 103.593 367.42C103.373 367.38 103.103 367.18 102.913 367.06C102.803 366.99 102.073 366.6 102.633 366.91C102.423 366.8 102.263 366.55 102.083 366.39C101.903 366.18 101.913 366.2 102.113 366.46C102.033 366.36 101.963 366.25 101.903 366.14C101.833 366.03 101.773 365.92 101.713 365.8C101.593 365.55 101.603 365.57 101.743 365.87C101.673 365.81 101.513 365.22 101.543 365.13C101.583 365.48 101.583 365.51 101.553 365.22C101.543 365.09 101.533 364.96 101.533 364.83C101.533 364.63 101.543 364.44 101.553 364.25C101.583 363.96 101.573 363.99 101.543 364.33C101.563 364.2 101.593 364.07 101.623 363.95C101.683 363.69 101.773 363.45 101.843 363.2C101.943 362.94 101.933 362.95 101.813 363.25C101.863 363.13 101.923 363.01 101.983 362.9C102.103 362.66 102.243 362.43 102.393 362.21C102.463 362.1 102.543 361.99 102.623 361.88C102.433 362.12 102.423 362.13 102.603 361.91C102.773 361.71 102.953 361.5 103.133 361.31C103.503 360.92 103.903 360.56 104.323 360.22C104.423 360.13 104.533 360.05 104.643 359.97C104.403 360.15 104.393 360.16 104.623 359.99C104.843 359.84 105.063 359.68 105.283 359.52C106.123 358.94 106.613 358.08 106.473 357.03C106.343 356.08 105.643 355.19 104.683 354.95C104.283 354.85 103.893 354.73 103.503 354.6C103.443 354.58 102.973 354.4 102.973 354.4C102.973 354.38 103.553 354.67 103.123 354.46C103.023 354.41 102.933 354.37 102.833 354.32C102.643 354.23 100.723 353.17 100.783 353.06C100.783 353.05 101.203 353.4 100.913 353.16C100.833 353.09 100.743 353.02 100.663 352.96C100.523 352.84 100.383 352.71 100.243 352.59C99.9426 352.32 99.6626 352.03 99.3826 351.73C99.2326 351.57 99.0926 351.41 98.9526 351.24C98.8826 351.15 98.4926 350.71 98.7426 350.99C99.0026 351.29 98.6026 350.8 98.5526 350.72C98.4126 350.52 98.2726 350.32 98.1426 350.11C97.6926 349.41 97.2926 348.69 96.9526 347.93C96.9226 347.85 96.8826 347.78 96.8526 347.7C96.6626 347.28 96.8826 347.81 96.9126 347.84C96.8026 347.74 96.7526 347.44 96.7026 347.3C96.5426 346.88 96.4026 346.46 96.2726 346.03C96.0326 345.22 95.8526 344.4 95.7126 343.57C95.6126 342.93 95.7526 343.94 95.7026 343.48C95.6826 343.26 95.6526 343.03 95.6326 342.81C95.6026 342.39 95.5826 341.97 95.5726 341.55C95.5626 341.13 95.5726 340.71 95.6026 340.3C95.6126 340.11 95.6326 339.91 95.6426 339.72C95.6426 339.64 95.6626 339.55 95.6626 339.47C95.6626 339.42 95.7326 338.87 95.6826 339.31C95.6326 339.75 95.7326 339.03 95.7526 338.92C95.8026 338.66 95.8526 338.4 95.9026 338.14C96.0026 337.66 96.1226 337.18 96.2526 336.7C96.3826 336.22 96.5326 335.76 96.6926 335.29C96.7726 335.07 96.8426 334.86 96.9326 334.64C96.9826 334.5 97.2526 333.65 97.0826 334.23C97.3426 333.32 97.9326 332.4 98.4026 331.58C98.8926 330.71 99.4226 329.87 99.9826 329.06C100.253 328.68 100.523 328.3 100.803 327.93C100.883 327.82 100.963 327.72 101.043 327.61C100.993 327.68 100.733 328 101.023 327.64C101.193 327.43 101.363 327.22 101.533 327.02C102.813 325.47 104.213 324.01 105.683 322.63C106.543 321.82 107.423 321.04 108.323 320.29C108.823 319.87 109.333 319.45 109.843 319.04C110.083 318.85 110.323 318.66 110.573 318.47C110.883 318.22 110.303 318.67 110.613 318.44C110.763 318.32 110.923 318.21 111.073 318.09C113.173 316.51 115.353 315.05 117.603 313.7C118.723 313.03 119.233 311.42 118.503 310.28C117.773 309.14 116.283 308.66 115.083 309.38L115.053 309.39Z" fill="black"/>
<path d="M265.893 310.8C269.603 313.02 273.123 315.56 276.393 318.39C282.383 323.56 287.753 330.1 288.963 337.92C290.173 345.73 285.893 354.77 278.213 356.65C279.873 357.79 281.453 359.14 282.393 360.93C283.333 362.71 283.523 364.98 282.473 366.7C281.543 368.23 279.793 369.08 278.053 369.48C274.763 370.23 271.183 369.57 268.373 367.7" fill="#98CA51"/>
<path d="M264.632 312.96C266.622 314.15 268.552 315.43 270.422 316.8C270.672 316.98 270.922 317.17 271.162 317.35C271.252 317.42 271.352 317.49 271.442 317.56C271.492 317.6 271.872 317.89 271.652 317.72C271.452 317.56 271.752 317.8 271.762 317.81C271.882 317.91 272.002 318 272.122 318.1C272.362 318.29 272.602 318.48 272.842 318.68C273.722 319.4 274.592 320.13 275.442 320.89C276.942 322.23 278.382 323.65 279.712 325.15C280.022 325.5 280.332 325.86 280.632 326.22C280.782 326.4 280.932 326.58 281.072 326.77C281.152 326.87 281.242 326.98 281.322 327.08C280.982 326.66 281.292 327.04 281.362 327.13C281.962 327.93 282.532 328.75 283.062 329.59C283.592 330.43 284.072 331.29 284.512 332.18C284.722 332.6 285.002 333.06 285.132 333.52C284.992 333.05 285.132 333.54 285.212 333.74C285.312 333.98 285.402 334.23 285.482 334.48C285.822 335.44 286.102 336.42 286.312 337.42C286.382 337.75 286.642 338.43 286.552 338.76C286.552 338.73 286.482 338.13 286.522 338.59C286.522 338.67 286.542 338.76 286.552 338.84C286.572 339.09 286.592 339.34 286.612 339.59C286.662 340.43 286.652 341.27 286.582 342.1C286.562 342.3 286.552 342.49 286.522 342.69C286.452 343.28 286.592 342.32 286.522 342.78C286.452 343.24 286.372 343.66 286.272 344.1C286.092 344.92 285.852 345.73 285.562 346.51C285.492 346.69 285.422 346.87 285.352 347.06C285.232 347.38 285.552 346.62 285.412 346.92C285.382 347 285.342 347.07 285.312 347.15C285.132 347.55 284.932 347.95 284.722 348.34C284.502 348.75 284.252 349.15 284.002 349.54C283.882 349.72 283.762 349.9 283.632 350.08C283.572 350.17 283.502 350.25 283.442 350.34C283.262 350.59 283.772 349.94 283.482 350.28C282.892 350.98 282.272 351.65 281.572 352.25C281.512 352.3 281.452 352.35 281.382 352.4C280.972 352.75 281.452 352.36 281.442 352.36C281.442 352.37 280.982 352.69 280.922 352.73C280.542 352.98 280.152 353.22 279.752 353.43C279.542 353.54 279.322 353.64 279.102 353.75C278.852 353.87 279.052 353.71 279.102 353.75C279.302 353.67 279.302 353.67 279.102 353.75L278.952 353.81C278.492 353.98 278.022 354.13 277.542 354.25C276.582 354.49 275.882 355.38 275.752 356.33C275.612 357.37 276.102 358.24 276.942 358.82C277.162 358.97 277.382 359.13 277.602 359.29C277.822 359.46 277.822 359.45 277.582 359.27C277.692 359.35 277.792 359.44 277.902 359.52C278.312 359.86 278.712 360.23 279.092 360.61C279.282 360.8 279.452 361.01 279.622 361.21C279.802 361.43 279.792 361.42 279.602 361.18C279.682 361.29 279.752 361.4 279.832 361.51C279.982 361.73 280.112 361.96 280.242 362.2C280.302 362.32 280.362 362.43 280.412 362.55C280.292 362.25 280.282 362.23 280.382 362.5C280.462 362.75 280.542 363 280.602 363.25C280.632 363.38 280.662 363.51 280.682 363.63C280.642 363.29 280.642 363.26 280.672 363.55C280.682 363.75 280.692 363.94 280.692 364.13C280.692 364.26 280.692 364.39 280.672 364.52C280.642 364.81 280.652 364.78 280.682 364.43C280.712 364.52 280.552 365.11 280.482 365.17C280.622 364.87 280.632 364.85 280.512 365.1C280.452 365.22 280.392 365.33 280.322 365.44C280.252 365.55 280.182 365.65 280.112 365.76C280.312 365.51 280.322 365.48 280.142 365.69C279.962 365.85 279.802 366.09 279.592 366.21C280.162 365.9 279.422 366.3 279.312 366.36C279.122 366.47 278.842 366.68 278.632 366.72C278.932 366.6 278.952 366.59 278.692 366.69C278.572 366.74 278.452 366.78 278.322 366.82C278.082 366.9 277.832 366.97 277.582 367.03C277.322 367.1 277.052 367.14 276.792 367.2C276.262 367.31 277.232 367.18 276.642 367.23C276.092 367.27 275.542 367.31 274.992 367.29C274.712 367.29 274.442 367.27 274.172 367.24C274.032 367.23 273.902 367.21 273.762 367.2C274.082 367.24 274.102 367.24 273.812 367.2C273.272 367.08 272.732 366.98 272.212 366.81C271.952 366.73 271.692 366.63 271.432 366.54C271.172 366.43 271.172 366.44 271.462 366.56C271.332 366.5 271.212 366.45 271.092 366.39C270.592 366.15 270.122 365.87 269.662 365.57C268.562 364.85 266.852 365.31 266.242 366.47C265.582 367.72 265.972 369.13 267.142 369.89C270.792 372.28 275.812 373.08 279.952 371.56C282.242 370.72 284.162 369.29 285.132 367C286.102 364.71 285.752 362.07 284.662 359.87C283.552 357.61 281.532 355.93 279.502 354.52C279.302 356.04 279.102 357.57 278.902 359.09C286.762 357.11 291.372 349.07 291.682 341.36C292.032 332.52 286.542 324.52 280.412 318.67C276.412 314.86 271.912 311.52 267.182 308.67C266.062 308 264.382 308.38 263.762 309.57C263.142 310.76 263.462 312.27 264.662 312.99L264.632 312.96Z" fill="black"/>
<path d="M126.272 404.68C122.252 404.68 118.512 404.49 115.212 404.06C111.872 403.62 109.072 401.39 107.902 398.23C106.732 395.06 107.402 391.53 109.662 389.02L114.702 383.4C114.272 378.57 112.972 361.6 114.252 344.52C114.372 342.87 115.822 341.63 117.472 341.75C119.122 341.87 120.362 343.31 120.242 344.97C118.802 364.18 120.782 383.93 120.802 384.12L120.942 385.44L114.142 393.02C113.362 393.88 113.142 395.05 113.552 396.14C113.742 396.66 114.372 397.89 116.022 398.11C139.672 401.21 190.052 390.63 190.552 390.53L191.172 390.4L191.792 390.53C192.312 390.64 244.412 401.57 267.482 397.95C268.782 397.75 269.262 396.76 269.412 396.34C269.562 395.92 269.812 394.83 268.922 393.84L261.482 385.54L261.512 384.35C261.512 384.2 261.912 368.86 261.622 355.55V346.78C261.622 345.12 262.962 343.78 264.622 343.78C266.282 343.78 267.622 345.12 267.622 346.78V355.48C267.862 366.71 267.622 379.4 267.542 383.3L273.392 389.82C275.472 392.14 276.112 395.4 275.072 398.34C274.032 401.26 271.482 403.38 268.422 403.86C245.382 407.48 197.492 397.83 191.172 396.52C185.852 397.62 150.912 404.67 126.292 404.67L126.272 404.68Z" fill="black"/>
</g>
<defs>
<clipPath id="clip0_873_1083">
<rect width="380.54" height="573" fill="white" transform="translate(0.572266)"/>
</clipPath>
</defs>
</svg>
